M48
; DRILL file {KiCad 7.0.5} date Wed Sep 27 13:54:24 2023
; FORMAT={-:-/ absolute / metric / decimal}
; #@! TF.CreationDate,2023-09-27T13:54:24+07:00
; #@! TF.GenerationSoftware,Kicad,Pcbnew,7.0.5
; #@! TF.FileFunction,Plated,1,2,PTH
FMAT,2
METRIC
; #@! TA.AperFunction,Plated,PTH,ViaDrill
T1C0.400
; #@! TA.AperFunction,Plated,PTH,ComponentDrill
T2C1.016
; #@! TA.AperFunction,Plated,PTH,ComponentDrill
T3C1.700
%
G90
G05
T1
X191.54Y-112.77
X191.54Y-113.77
X191.54Y-114.77
X191.54Y-115.77
X191.54Y-116.77
X191.54Y-117.77
X191.54Y-118.77
X200.641Y-121.806
X200.93Y-135.76
X200.93Y-136.76
X200.93Y-137.76
X200.93Y-138.76
X200.93Y-139.76
X200.93Y-140.76
X200.93Y-141.76
X201.472Y-120.956
X201.565Y-106.428
X201.93Y-135.76
X201.93Y-136.76
X201.93Y-137.76
X201.93Y-138.76
X201.93Y-139.76
X201.93Y-140.76
X201.93Y-141.76
X202.93Y-135.76
X202.93Y-136.76
X202.93Y-137.76
X202.93Y-138.76
X202.93Y-139.76
X202.93Y-140.76
X202.93Y-141.76
X203.93Y-135.76
X203.93Y-136.76
X203.93Y-137.76
X203.93Y-138.76
X203.93Y-139.76
X203.93Y-140.76
X203.93Y-141.76
X207.39Y-96.56
X207.39Y-97.56
X207.39Y-98.56
X208.114Y-114.893
X208.19Y-116.04
X208.39Y-96.56
X208.39Y-97.56
X208.39Y-98.56
X209.39Y-96.56
X209.39Y-97.56
X209.39Y-98.56
X210.39Y-96.56
X210.39Y-97.56
X210.39Y-98.56
X211.12Y-108.949
X211.16Y-124.44
X211.16Y-125.44
X211.16Y-126.44
X211.39Y-96.56
X211.39Y-97.56
X211.39Y-98.56
X211.614Y-119.719
X212.39Y-96.56
X212.39Y-97.56
X212.39Y-98.56
X212.612Y-135.978
X213.1Y-128.572
X213.39Y-96.56
X213.39Y-97.56
X213.39Y-98.56
X213.462Y-105.912
X218.59Y-130.846
X223.32Y-131.98
X225.027Y-126.707
X225.442Y-128.416
X231.91Y-103.41
X231.91Y-104.41
X231.91Y-105.41
X231.91Y-106.41
X232.91Y-103.41
X232.91Y-104.41
X232.91Y-105.41
X232.91Y-106.41
X233.91Y-103.41
X233.91Y-104.41
X233.91Y-105.41
X233.91Y-106.41
X234.91Y-103.41
X234.91Y-104.41
X234.91Y-105.41
X234.91Y-106.41
X235.48Y-135.21
X235.48Y-136.21
X235.48Y-136.21
X235.48Y-136.21
X235.48Y-137.21
X235.48Y-137.21
X235.48Y-137.21
X235.48Y-138.21
X235.48Y-138.21
X235.48Y-138.21
X235.48Y-139.21
X236.48Y-135.21
X236.48Y-135.21
X236.48Y-135.21
X236.48Y-136.21
X236.48Y-136.21
X236.48Y-136.21
X236.48Y-137.21
X236.48Y-137.21
X236.48Y-137.21
X236.48Y-138.21
X236.48Y-138.21
X236.48Y-138.21
X236.48Y-139.21
X237.48Y-135.21
X237.48Y-135.21
X237.48Y-135.21
X237.48Y-136.21
X237.48Y-136.21
X237.48Y-136.21
X237.48Y-137.21
X237.48Y-137.21
X237.48Y-137.21
X237.48Y-138.21
X237.48Y-138.21
X237.48Y-138.21
X237.48Y-139.21
X238.48Y-135.21
X238.48Y-135.21
X238.48Y-135.21
X238.48Y-136.21
X238.48Y-136.21
X238.48Y-136.21
X238.48Y-137.21
X238.48Y-137.21
X238.48Y-137.21
X238.48Y-138.21
X238.48Y-138.21
X238.48Y-138.21
X238.48Y-139.21
X238.671Y-113.577
X239.48Y-135.21
X239.48Y-135.21
X239.48Y-136.21
X239.48Y-136.21
X239.48Y-137.21
X239.48Y-137.21
X239.48Y-138.21
X239.48Y-138.21
X239.48Y-139.21
X240.48Y-135.21
X240.48Y-136.21
X240.48Y-137.21
X240.48Y-138.21
X240.48Y-139.21
X245.77Y-129.87
X246.11Y-122.35
X250.27Y-109.51
X250.27Y-110.51
X250.27Y-111.51
X250.27Y-112.51
X251.27Y-109.51
X251.27Y-110.51
X251.27Y-111.51
X251.27Y-112.51
X252.27Y-109.51
X252.27Y-110.51
X252.27Y-111.51
X252.27Y-112.51
X253.27Y-109.51
X253.27Y-110.51
X253.27Y-111.51
X253.27Y-112.51
T2
X198.586Y-94.26
X201.126Y-94.26
X203.666Y-94.26
X206.206Y-94.26
X207.73Y-142.52
X208.746Y-94.26
X210.27Y-142.52
X211.286Y-94.26
X212.81Y-142.52
X213.826Y-94.26
X215.35Y-142.52
X216.366Y-94.26
X217.89Y-142.52
X218.906Y-94.26
X220.43Y-142.52
X221.446Y-94.26
X222.97Y-142.52
X225.51Y-94.26
X225.51Y-142.52
X228.05Y-94.26
X230.59Y-94.26
X230.59Y-142.52
X233.13Y-94.26
X233.13Y-142.52
X235.67Y-94.26
X235.67Y-142.52
X238.21Y-94.26
X238.21Y-142.52
X240.75Y-94.26
X240.75Y-142.52
X243.29Y-94.26
X243.29Y-142.52
X243.417Y-114.58
X243.417Y-117.12
X243.417Y-119.66
X245.83Y-142.52
X245.957Y-114.58
X245.957Y-117.12
X245.957Y-119.66
X248.37Y-94.26
X248.37Y-142.52
X250.91Y-94.26
X253.45Y-94.26
X253.45Y-142.52
X255.99Y-94.26
X255.99Y-142.52
X258.53Y-94.26
X258.53Y-142.52
X261.07Y-94.26
X261.07Y-142.52
X263.61Y-94.26
X263.61Y-142.52
X266.15Y-94.26
X266.15Y-142.52
X268.69Y-142.52
X271.23Y-142.52
X273.77Y-94.26
X273.77Y-96.8
X273.77Y-99.34
X273.77Y-101.88
X273.77Y-104.42
X273.77Y-106.96
X273.77Y-109.5
X273.77Y-112.04
X273.77Y-114.58
X273.77Y-117.12
X273.77Y-119.66
X273.77Y-122.2
X273.77Y-124.74
X273.77Y-127.28
X273.77Y-129.82
X273.77Y-132.36
X273.77Y-134.9
X273.77Y-137.44
X276.31Y-94.26
X276.31Y-96.8
X276.31Y-99.34
X276.31Y-101.88
X276.31Y-104.42
X276.31Y-106.96
X276.31Y-109.5
X276.31Y-112.04
X276.31Y-114.58
X276.31Y-117.12
X276.31Y-119.66
X276.31Y-122.2
X276.31Y-124.74
X276.31Y-127.28
X276.31Y-129.82
X276.31Y-132.36
X276.31Y-134.9
X276.31Y-137.44
T3
X237.43Y-101.28
X241.39Y-101.28
T0
M30
