G04 #@! TF.GenerationSoftware,KiCad,Pcbnew,7.0.5*
G04 #@! TF.CreationDate,2023-09-27T13:54:17+07:00*
G04 #@! TF.ProjectId,sumoRobotPCB,73756d6f-526f-4626-9f74-5043422e6b69,rev?*
G04 #@! TF.SameCoordinates,Original*
G04 #@! TF.FileFunction,Legend,Bot*
G04 #@! TF.FilePolarity,Positive*
%FSLAX46Y46*%
G04 Gerber Fmt 4.6, Leading zero omitted, Abs format (unit mm)*
G04 Created by KiCad (PCBNEW 7.0.5) date 2023-09-27 13:54:17*
%MOMM*%
%LPD*%
G01*
G04 APERTURE LIST*
G04 Aperture macros list*
%AMRoundRect*
0 Rectangle with rounded corners*
0 $1 Rounding radius*
0 $2 $3 $4 $5 $6 $7 $8 $9 X,Y pos of 4 corners*
0 Add a 4 corners polygon primitive as box body*
4,1,4,$2,$3,$4,$5,$6,$7,$8,$9,$2,$3,0*
0 Add four circle primitives for the rounded corners*
1,1,$1+$1,$2,$3*
1,1,$1+$1,$4,$5*
1,1,$1+$1,$6,$7*
1,1,$1+$1,$8,$9*
0 Add four rect primitives between the rounded corners*
20,1,$1+$1,$2,$3,$4,$5,0*
20,1,$1+$1,$4,$5,$6,$7,0*
20,1,$1+$1,$6,$7,$8,$9,0*
20,1,$1+$1,$8,$9,$2,$3,0*%
G04 Aperture macros list end*
%ADD10C,0.150000*%
%ADD11C,0.075000*%
%ADD12RoundRect,0.250001X-1.099999X-1.099999X1.099999X-1.099999X1.099999X1.099999X-1.099999X1.099999X0*%
%ADD13C,2.700000*%
%ADD14C,3.200000*%
%ADD15O,1.727200X1.727200*%
%ADD16R,1.727200X1.727200*%
G04 APERTURE END LIST*
D10*
X183568094Y-90158819D02*
X182901428Y-91158819D01*
X182901428Y-90158819D02*
X183568094Y-91158819D01*
X182568094Y-90873104D02*
X182091904Y-90873104D01*
X182663332Y-91158819D02*
X182329999Y-90158819D01*
X182329999Y-90158819D02*
X181996666Y-91158819D01*
X181139523Y-91158819D02*
X181710951Y-91158819D01*
X181425237Y-91158819D02*
X181425237Y-90158819D01*
X181425237Y-90158819D02*
X181520475Y-90301676D01*
X181520475Y-90301676D02*
X181615713Y-90396914D01*
X181615713Y-90396914D02*
X181710951Y-90444533D01*
X242274000Y-113415580D02*
X242321619Y-113463200D01*
X242321619Y-113463200D02*
X242274000Y-113510819D01*
X242274000Y-113510819D02*
X242226381Y-113463200D01*
X242226381Y-113463200D02*
X242274000Y-113415580D01*
X242274000Y-113415580D02*
X242274000Y-113510819D01*
D11*
X243659047Y-96392409D02*
X243659047Y-95892409D01*
X243659047Y-95892409D02*
X243539999Y-95892409D01*
X243539999Y-95892409D02*
X243468571Y-95916219D01*
X243468571Y-95916219D02*
X243420952Y-95963838D01*
X243420952Y-95963838D02*
X243397142Y-96011457D01*
X243397142Y-96011457D02*
X243373333Y-96106695D01*
X243373333Y-96106695D02*
X243373333Y-96178123D01*
X243373333Y-96178123D02*
X243397142Y-96273361D01*
X243397142Y-96273361D02*
X243420952Y-96320980D01*
X243420952Y-96320980D02*
X243468571Y-96368600D01*
X243468571Y-96368600D02*
X243539999Y-96392409D01*
X243539999Y-96392409D02*
X243659047Y-96392409D01*
X243063809Y-95892409D02*
X243016190Y-95892409D01*
X243016190Y-95892409D02*
X242968571Y-95916219D01*
X242968571Y-95916219D02*
X242944761Y-95940028D01*
X242944761Y-95940028D02*
X242920952Y-95987647D01*
X242920952Y-95987647D02*
X242897142Y-96082885D01*
X242897142Y-96082885D02*
X242897142Y-96201933D01*
X242897142Y-96201933D02*
X242920952Y-96297171D01*
X242920952Y-96297171D02*
X242944761Y-96344790D01*
X242944761Y-96344790D02*
X242968571Y-96368600D01*
X242968571Y-96368600D02*
X243016190Y-96392409D01*
X243016190Y-96392409D02*
X243063809Y-96392409D01*
X243063809Y-96392409D02*
X243111428Y-96368600D01*
X243111428Y-96368600D02*
X243135237Y-96344790D01*
X243135237Y-96344790D02*
X243159047Y-96297171D01*
X243159047Y-96297171D02*
X243182856Y-96201933D01*
X243182856Y-96201933D02*
X243182856Y-96082885D01*
X243182856Y-96082885D02*
X243159047Y-95987647D01*
X243159047Y-95987647D02*
X243135237Y-95940028D01*
X243135237Y-95940028D02*
X243111428Y-95916219D01*
X243111428Y-95916219D02*
X243063809Y-95892409D01*
G36*
X201038895Y-121618796D02*
G01*
X201227810Y-121628539D01*
X201280455Y-121664617D01*
X201224512Y-121740901D01*
X201211915Y-121755264D01*
X201117325Y-121915732D01*
X200995896Y-122179078D01*
X200870667Y-122496126D01*
X200850666Y-122551905D01*
X200731377Y-122970740D01*
X200715757Y-123261655D01*
X200804668Y-123431315D01*
X200998976Y-123486388D01*
X201094870Y-123501911D01*
X201165887Y-123571337D01*
X201119649Y-123630575D01*
X200975350Y-123654212D01*
X200802760Y-123626340D01*
X200674560Y-123550100D01*
X200631234Y-123474536D01*
X200533589Y-123261122D01*
X200406107Y-122954947D01*
X200265235Y-122594414D01*
X200158314Y-122321329D01*
X200026181Y-122008757D01*
X199919233Y-121783785D01*
X199853753Y-121682505D01*
X199842606Y-121671466D01*
X199891193Y-121634863D01*
X200061539Y-121620093D01*
X200127185Y-121621098D01*
X200266281Y-121642879D01*
X200241979Y-121694129D01*
X200223878Y-121706772D01*
X200176477Y-121785226D01*
X200193186Y-121928436D01*
X200277257Y-122181290D01*
X200335184Y-122332839D01*
X200425957Y-122547890D01*
X200485721Y-122660509D01*
X200529215Y-122638187D01*
X200609720Y-122492410D01*
X200703150Y-122252575D01*
X200762256Y-122072561D01*
X200811795Y-121874500D01*
X200803101Y-121764594D01*
X200738995Y-121699319D01*
X200703305Y-121665555D01*
X200762965Y-121630431D01*
X200980817Y-121618792D01*
X201038895Y-121618796D01*
G37*
G36*
X225955529Y-121116678D02*
G01*
X226150143Y-121144029D01*
X226226087Y-121192742D01*
X226223619Y-121213047D01*
X226141137Y-121277692D01*
X226121532Y-121295724D01*
X226086862Y-121447240D01*
X226064264Y-121732555D01*
X226056188Y-122127190D01*
X226056791Y-122303979D01*
X226064972Y-122640207D01*
X226086042Y-122845771D01*
X226124192Y-122948617D01*
X226183612Y-122976689D01*
X226242231Y-122986273D01*
X226311037Y-123061638D01*
X226282373Y-123092239D01*
X226128583Y-123131308D01*
X225886288Y-123146588D01*
X225733287Y-123140856D01*
X225537940Y-123110098D01*
X225461539Y-123061638D01*
X225475915Y-123022559D01*
X225588964Y-122976689D01*
X225632282Y-122976909D01*
X225684532Y-122964855D01*
X225716463Y-122909804D01*
X225734633Y-122780055D01*
X225745601Y-122543909D01*
X225755923Y-122169665D01*
X225758371Y-122074071D01*
X225761759Y-121707600D01*
X225744168Y-121474642D01*
X225695990Y-121345281D01*
X225607617Y-121289603D01*
X225469440Y-121277692D01*
X225249537Y-121314919D01*
X225088401Y-121467178D01*
X225036790Y-121746494D01*
X225043467Y-121855785D01*
X225118029Y-122019523D01*
X225312877Y-122148820D01*
X225441660Y-122217496D01*
X225499263Y-122273201D01*
X225416728Y-122291657D01*
X225175872Y-122231450D01*
X224938517Y-122060822D01*
X224782147Y-121830410D01*
X224738368Y-121627859D01*
X224801145Y-121376003D01*
X225005512Y-121203097D01*
X225157938Y-121158567D01*
X225409599Y-121124369D01*
X225692072Y-121110266D01*
X225955529Y-121116678D01*
G37*
G36*
X224243677Y-120947243D02*
G01*
X224428026Y-121012321D01*
X224492486Y-121078182D01*
X224406789Y-121135779D01*
X224346399Y-121225317D01*
X224298398Y-121439708D01*
X224268665Y-121735551D01*
X224257362Y-122071135D01*
X224264648Y-122404750D01*
X224290687Y-122694687D01*
X224335639Y-122899237D01*
X224399666Y-122976689D01*
X224458285Y-122986273D01*
X224527091Y-123061638D01*
X224504214Y-123089617D01*
X224358783Y-123129430D01*
X224123579Y-123143887D01*
X224017367Y-123142557D01*
X223840851Y-123130152D01*
X223799658Y-123095866D01*
X223868729Y-123028334D01*
X223928275Y-122965001D01*
X223973586Y-122850810D01*
X224000733Y-122660519D01*
X224013929Y-122362890D01*
X224017392Y-121926688D01*
X224017515Y-121802222D01*
X224021451Y-121416318D01*
X224034056Y-121165068D01*
X224059548Y-121020468D01*
X224102142Y-120954512D01*
X224166054Y-120939193D01*
X224243677Y-120947243D01*
G37*
G36*
X223687667Y-121579678D02*
G01*
X223859744Y-121628792D01*
X223932442Y-121711650D01*
X223932424Y-121712558D01*
X223856569Y-121765441D01*
X223677592Y-121787391D01*
X223587281Y-121789217D01*
X223474817Y-121821407D01*
X223430498Y-121930404D01*
X223422743Y-122162717D01*
X223421367Y-122255994D01*
X223404766Y-122503383D01*
X223375382Y-122661463D01*
X223373330Y-122760970D01*
X223460332Y-122917193D01*
X223539677Y-123006300D01*
X223592642Y-123098046D01*
X223584032Y-123108893D01*
X223465717Y-123135812D01*
X223252843Y-123146588D01*
X223105392Y-123137282D01*
X222947039Y-123091586D01*
X222908330Y-123025059D01*
X223013902Y-122957227D01*
X223039984Y-122938067D01*
X223088599Y-122778388D01*
X223094461Y-122478723D01*
X223089211Y-122269187D01*
X223114204Y-121948481D01*
X223195156Y-121741864D01*
X223341803Y-121615345D01*
X223485236Y-121575563D01*
X223687667Y-121579678D01*
G37*
G36*
X222658194Y-122373573D02*
G01*
X222657653Y-122423872D01*
X222612763Y-122741526D01*
X222484985Y-122960670D01*
X222431928Y-123009491D01*
X222168790Y-123126715D01*
X221866661Y-123127545D01*
X221596321Y-123008196D01*
X221585510Y-122999719D01*
X221492238Y-122918039D01*
X221525936Y-122900351D01*
X221705961Y-122933456D01*
X221873140Y-122947022D01*
X222134281Y-122886284D01*
X222327725Y-122744750D01*
X222403345Y-122549981D01*
X222398568Y-122492728D01*
X222347121Y-122421617D01*
X222206350Y-122389530D01*
X221936121Y-122382040D01*
X221468897Y-122382040D01*
X221468897Y-122089532D01*
X221488546Y-121965610D01*
X221741072Y-121965610D01*
X221746257Y-122132624D01*
X221858119Y-122245526D01*
X221902506Y-122261340D01*
X222151491Y-122302870D01*
X222333067Y-122257164D01*
X222403345Y-122133258D01*
X222343363Y-121941493D01*
X222199563Y-121773817D01*
X222031993Y-121702441D01*
X221973899Y-121709217D01*
X221823355Y-121804478D01*
X221741072Y-121965610D01*
X221488546Y-121965610D01*
X221506753Y-121850785D01*
X221657698Y-121664783D01*
X221673854Y-121653646D01*
X221909782Y-121546872D01*
X222135397Y-121577989D01*
X222396827Y-121752468D01*
X222400184Y-121755297D01*
X222565268Y-121922479D01*
X222640399Y-122102735D01*
X222642404Y-122133258D01*
X222658194Y-122373573D01*
G37*
G36*
X220385061Y-121590352D02*
G01*
X220403587Y-121597902D01*
X220629495Y-121640904D01*
X220895485Y-121637500D01*
X220923186Y-121634376D01*
X221137277Y-121635486D01*
X221214047Y-121693147D01*
X221199592Y-121736614D01*
X221086622Y-121787391D01*
X221063005Y-121792831D01*
X220992526Y-121902947D01*
X220954358Y-122117358D01*
X220947654Y-122386584D01*
X220971568Y-122661143D01*
X221025252Y-122891553D01*
X221107860Y-123028334D01*
X221145096Y-123058279D01*
X221175750Y-123112011D01*
X221086742Y-123136759D01*
X220853010Y-123143887D01*
X220719384Y-123139965D01*
X220525649Y-123110645D01*
X220449499Y-123061638D01*
X220463875Y-123022559D01*
X220576923Y-122976689D01*
X220614516Y-122969192D01*
X220668976Y-122893816D01*
X220696644Y-122711766D01*
X220704348Y-122391682D01*
X220703912Y-122207636D01*
X220694415Y-121974716D01*
X220659951Y-121850568D01*
X220584361Y-121795436D01*
X220451484Y-121769562D01*
X220428333Y-121766352D01*
X220225190Y-121769032D01*
X220102022Y-121859599D01*
X220041115Y-122064680D01*
X220024749Y-122410902D01*
X220035803Y-122697715D01*
X220081931Y-122908031D01*
X220173412Y-123028334D01*
X220210648Y-123058279D01*
X220241302Y-123112011D01*
X220152294Y-123136759D01*
X219918562Y-123143887D01*
X219784936Y-123139965D01*
X219591200Y-123110645D01*
X219515050Y-123061638D01*
X219529427Y-123022559D01*
X219642475Y-122976689D01*
X219688528Y-122964226D01*
X219737951Y-122878771D01*
X219762967Y-122685638D01*
X219769900Y-122353920D01*
X219770177Y-122241885D01*
X219778693Y-121958793D01*
X219808450Y-121789331D01*
X219871913Y-121690144D01*
X219981549Y-121617880D01*
X220157570Y-121553776D01*
X220385061Y-121590352D01*
G37*
G36*
X219185578Y-121636683D02*
G01*
X219302676Y-121702441D01*
X219310667Y-121746208D01*
X219222740Y-121787391D01*
X219199268Y-121792490D01*
X219126332Y-121901517D01*
X219086079Y-122115263D01*
X219077862Y-122384273D01*
X219101035Y-122659091D01*
X219154951Y-122890264D01*
X219238964Y-123028334D01*
X219276200Y-123058279D01*
X219306854Y-123112011D01*
X219217846Y-123136759D01*
X218984114Y-123143887D01*
X218850487Y-123139965D01*
X218656752Y-123110645D01*
X218580602Y-123061638D01*
X218594978Y-123022559D01*
X218708027Y-122976689D01*
X218764467Y-122955054D01*
X218807674Y-122855052D01*
X218829450Y-122645786D01*
X218835452Y-122297090D01*
X218836689Y-122020020D01*
X218847465Y-121791940D01*
X218878362Y-121671925D01*
X218939954Y-121625325D01*
X219042813Y-121617491D01*
X219185578Y-121636683D01*
G37*
G36*
X218129364Y-120948459D02*
G01*
X218325753Y-121022843D01*
X218342026Y-121033485D01*
X218402887Y-121092462D01*
X218304515Y-121106492D01*
X218298216Y-121106628D01*
X218234754Y-121126987D01*
X218193365Y-121201903D01*
X218169472Y-121360200D01*
X218158495Y-121630704D01*
X218155853Y-122042240D01*
X218157330Y-122334196D01*
X218166939Y-122655679D01*
X218188685Y-122851970D01*
X218226241Y-122949997D01*
X218283278Y-122976689D01*
X218341897Y-122986273D01*
X218410703Y-123061638D01*
X218393162Y-123087026D01*
X218256408Y-123129716D01*
X218028428Y-123146588D01*
X217914186Y-123142690D01*
X217722081Y-123112301D01*
X217646154Y-123061638D01*
X217660530Y-123022559D01*
X217773579Y-122976689D01*
X217785184Y-122976151D01*
X217873372Y-122899270D01*
X217901004Y-122679364D01*
X217900619Y-122646408D01*
X217865113Y-122442074D01*
X217777385Y-122394646D01*
X217645183Y-122502576D01*
X217476254Y-122764314D01*
X217328244Y-123001461D01*
X217194591Y-123116535D01*
X217032042Y-123146588D01*
X216870001Y-123123113D01*
X216796656Y-123061638D01*
X216809768Y-123023709D01*
X216920500Y-122976689D01*
X216982741Y-122948958D01*
X217120676Y-122809138D01*
X217270373Y-122590998D01*
X217388087Y-122383658D01*
X217444696Y-122238226D01*
X217426341Y-122134579D01*
X217339685Y-122017587D01*
X217207478Y-121869621D01*
X217058525Y-121723679D01*
X217005024Y-121668132D01*
X217034655Y-121627422D01*
X217210182Y-121617491D01*
X217225414Y-121617585D01*
X217400724Y-121642747D01*
X217431471Y-121706177D01*
X217428018Y-121822701D01*
X217510741Y-121994838D01*
X217641616Y-122146760D01*
X217775537Y-122212140D01*
X217821250Y-122198750D01*
X217869517Y-122110066D01*
X217894122Y-121912208D01*
X217901004Y-121575016D01*
X217901014Y-121554281D01*
X217906621Y-121233543D01*
X217927964Y-121046788D01*
X217972995Y-120960008D01*
X218049666Y-120939193D01*
X218129364Y-120948459D01*
G37*
G36*
X216711706Y-122795965D02*
G01*
X216700739Y-122872948D01*
X216609766Y-123044649D01*
X216520615Y-123099053D01*
X216320068Y-123141714D01*
X216116324Y-123130643D01*
X215990708Y-123063378D01*
X215937784Y-123028248D01*
X215784572Y-123076785D01*
X215669982Y-123120325D01*
X215469949Y-123111807D01*
X215411741Y-123088397D01*
X215357383Y-123037992D01*
X215458696Y-122966755D01*
X215503430Y-122934226D01*
X215566920Y-122823756D01*
X215593055Y-122658127D01*
X215878063Y-122658127D01*
X215893445Y-122744036D01*
X216001366Y-122922390D01*
X216168691Y-122973818D01*
X216351661Y-122878004D01*
X216440057Y-122749039D01*
X216420331Y-122588342D01*
X216238952Y-122464887D01*
X216128230Y-122425111D01*
X215951118Y-122392504D01*
X215878429Y-122464447D01*
X215878063Y-122658127D01*
X215593055Y-122658127D01*
X215598687Y-122622435D01*
X215607358Y-122291048D01*
X215607497Y-122210624D01*
X215615153Y-121926891D01*
X215644386Y-121759862D01*
X215708796Y-121665809D01*
X215821983Y-121601009D01*
X215913453Y-121565897D01*
X216096882Y-121556843D01*
X216331682Y-121643931D01*
X216382645Y-121670170D01*
X216556536Y-121796783D01*
X216626756Y-121913441D01*
X216593858Y-122023543D01*
X216495831Y-122015567D01*
X216361031Y-121872761D01*
X216240161Y-121761498D01*
X216065450Y-121739973D01*
X215921834Y-121843197D01*
X215862208Y-122052148D01*
X215865411Y-122137557D01*
X215916850Y-122265532D01*
X216063126Y-122297090D01*
X216238428Y-122334357D01*
X216462354Y-122458760D01*
X216639616Y-122627630D01*
X216691610Y-122749039D01*
X216711706Y-122795965D01*
G37*
G36*
X214712155Y-121616425D02*
G01*
X214763324Y-121633735D01*
X214940950Y-121702160D01*
X215012709Y-121744556D01*
X215019426Y-121776298D01*
X215064273Y-121907868D01*
X215076213Y-121987801D01*
X214989231Y-122042240D01*
X214907407Y-122010454D01*
X214818196Y-121872341D01*
X214729753Y-121735944D01*
X214568577Y-121717878D01*
X214377410Y-121840177D01*
X214342423Y-121878317D01*
X214264987Y-122060631D01*
X214346379Y-122210378D01*
X214577479Y-122306316D01*
X214704299Y-122338678D01*
X214980538Y-122479635D01*
X215118607Y-122678930D01*
X215103439Y-122919013D01*
X215090430Y-122951333D01*
X214972074Y-123105301D01*
X214764976Y-123146588D01*
X214598219Y-123129306D01*
X214476778Y-123074810D01*
X214472175Y-123009641D01*
X214607938Y-122961525D01*
X214757477Y-122898925D01*
X214835312Y-122754814D01*
X214793385Y-122591282D01*
X214629197Y-122466519D01*
X214626300Y-122465421D01*
X214397206Y-122418013D01*
X214278555Y-122497126D01*
X214260750Y-122709077D01*
X214260404Y-122879708D01*
X214218780Y-123040452D01*
X214172521Y-123087613D01*
X214030608Y-123140131D01*
X213888220Y-123132867D01*
X213823412Y-123061638D01*
X213825880Y-123041333D01*
X213908362Y-122976689D01*
X213951894Y-122898465D01*
X213982053Y-122688290D01*
X213993311Y-122383998D01*
X213993325Y-122360671D01*
X214000051Y-122050305D01*
X214028231Y-121860230D01*
X214091241Y-121743775D01*
X214202456Y-121654271D01*
X214308318Y-121593896D01*
X214480183Y-121561528D01*
X214712155Y-121616425D01*
G37*
G36*
X212615021Y-121113105D02*
G01*
X212842672Y-121121345D01*
X212920744Y-121148229D01*
X212867726Y-121199547D01*
X212865115Y-121201086D01*
X212791301Y-121274132D01*
X212746762Y-121408976D01*
X212724886Y-121641567D01*
X212719064Y-122007848D01*
X212718246Y-122194574D01*
X212707378Y-122491949D01*
X212675828Y-122685151D01*
X212613563Y-122818939D01*
X212510551Y-122938075D01*
X212334470Y-123065786D01*
X212012904Y-123153446D01*
X211680998Y-123110875D01*
X211398480Y-122938075D01*
X211357171Y-122895216D01*
X211268057Y-122773174D01*
X211217579Y-122619747D01*
X211195096Y-122388808D01*
X211189967Y-122034229D01*
X211185583Y-121729489D01*
X211164080Y-121472695D01*
X211118299Y-121317449D01*
X211041305Y-121226046D01*
X211010014Y-121201302D01*
X210970020Y-121144348D01*
X211050034Y-121118982D01*
X211274917Y-121113196D01*
X211358228Y-121113581D01*
X211537534Y-121123924D01*
X211579347Y-121157409D01*
X211508529Y-121226046D01*
X211462391Y-121270036D01*
X211400171Y-121399516D01*
X211368627Y-121619353D01*
X211359867Y-121968991D01*
X211362966Y-122158933D01*
X211403660Y-122547561D01*
X211500367Y-122799681D01*
X211664246Y-122935866D01*
X211906456Y-122976689D01*
X212052166Y-122966320D01*
X212225841Y-122895017D01*
X212339515Y-122733361D01*
X212408271Y-122455051D01*
X212447192Y-122033784D01*
X212451216Y-121962237D01*
X212462697Y-121639401D01*
X212449872Y-121437669D01*
X212406585Y-121316208D01*
X212326683Y-121234186D01*
X212270744Y-121188587D01*
X212249951Y-121139007D01*
X212348504Y-121117682D01*
X212591639Y-121113077D01*
X212615021Y-121113105D01*
G37*
G36*
X210428589Y-121617498D02*
G01*
X210606449Y-121642795D01*
X210680268Y-121702441D01*
X210665892Y-121741521D01*
X210552843Y-121787391D01*
X210512950Y-121796061D01*
X210459857Y-121874047D01*
X210432912Y-122058957D01*
X210425418Y-122382040D01*
X210427276Y-122568206D01*
X210443987Y-122815973D01*
X210483611Y-122941718D01*
X210552843Y-122976689D01*
X210611462Y-122986273D01*
X210680268Y-123061638D01*
X210662727Y-123087026D01*
X210525973Y-123129716D01*
X210297994Y-123146588D01*
X210183751Y-123142690D01*
X209991647Y-123112301D01*
X209915719Y-123061638D01*
X209930096Y-123022559D01*
X210043144Y-122976689D01*
X210099584Y-122955054D01*
X210142791Y-122855052D01*
X210164567Y-122645786D01*
X210170569Y-122297090D01*
X210170569Y-121617491D01*
X210425418Y-121617491D01*
X210428589Y-121617498D01*
G37*
G36*
X209895925Y-121595351D02*
G01*
X210021907Y-121616331D01*
X210036577Y-121618886D01*
X210085619Y-121702441D01*
X210012942Y-121762265D01*
X209836494Y-121787391D01*
X209799091Y-121788157D01*
X209638322Y-121826685D01*
X209544905Y-121944623D01*
X209505995Y-122171313D01*
X209508747Y-122536098D01*
X209515585Y-122646798D01*
X209559621Y-122893757D01*
X209636869Y-122976689D01*
X209678487Y-122983167D01*
X209745820Y-123061638D01*
X209737155Y-123080681D01*
X209618804Y-123127748D01*
X209406020Y-123146588D01*
X209329851Y-123144422D01*
X209141584Y-123114834D01*
X209066221Y-123061638D01*
X209068690Y-123041333D01*
X209151171Y-122976689D01*
X209192322Y-122910611D01*
X209224118Y-122713059D01*
X209236121Y-122424515D01*
X209267593Y-122036659D01*
X209371709Y-121734949D01*
X209542814Y-121574878D01*
X209774911Y-121566002D01*
X209895925Y-121595351D01*
G37*
G36*
X208559693Y-121617498D02*
G01*
X208737553Y-121642795D01*
X208811372Y-121702441D01*
X208796995Y-121741521D01*
X208683947Y-121787391D01*
X208660329Y-121792831D01*
X208589850Y-121902947D01*
X208551682Y-122117358D01*
X208544979Y-122386584D01*
X208568892Y-122661143D01*
X208622576Y-122891553D01*
X208705184Y-123028334D01*
X208729813Y-123047544D01*
X208779494Y-123108531D01*
X208708712Y-123136173D01*
X208492810Y-123143887D01*
X208397606Y-123141583D01*
X208207401Y-123112946D01*
X208131773Y-123061638D01*
X208134241Y-123041333D01*
X208216723Y-122976689D01*
X208224322Y-122974423D01*
X208264613Y-122870147D01*
X208291737Y-122633644D01*
X208301673Y-122297090D01*
X208301673Y-121617491D01*
X208556522Y-121617491D01*
X208559693Y-121617498D01*
G37*
G36*
X206863946Y-121622449D02*
G01*
X206979550Y-121647256D01*
X206944618Y-121699319D01*
X206899532Y-121735711D01*
X206868458Y-121822650D01*
X206894495Y-121980431D01*
X206980463Y-122252575D01*
X207060142Y-122461348D01*
X207143861Y-122623684D01*
X207197891Y-122660509D01*
X207227988Y-122609710D01*
X207309102Y-122429626D01*
X207406356Y-122181290D01*
X207430107Y-122115899D01*
X207499534Y-121890204D01*
X207502292Y-121764577D01*
X207441634Y-121694129D01*
X207416546Y-121669841D01*
X207480820Y-121633180D01*
X207707024Y-121621375D01*
X207854513Y-121625362D01*
X207986916Y-121649845D01*
X207960373Y-121698200D01*
X207935024Y-121720742D01*
X207834175Y-121877651D01*
X207708079Y-122138190D01*
X207578099Y-122459798D01*
X207529215Y-122588044D01*
X207407763Y-122873442D01*
X207304669Y-123071792D01*
X207238194Y-123146221D01*
X207221359Y-123137947D01*
X207140076Y-123019746D01*
X207028723Y-122790657D01*
X206906243Y-122488227D01*
X206872820Y-122400670D01*
X206741695Y-122091106D01*
X206620055Y-121850061D01*
X206530576Y-121723679D01*
X206472838Y-121657968D01*
X206531410Y-121625954D01*
X206735102Y-121618792D01*
X206863946Y-121622449D01*
G37*
G36*
X206348617Y-122475243D02*
G01*
X206293264Y-122767556D01*
X206177927Y-122976689D01*
X205983926Y-123094346D01*
X205682909Y-123146859D01*
X205377851Y-123095025D01*
X205309209Y-123064569D01*
X205248689Y-122997113D01*
X205345094Y-122949847D01*
X205589329Y-122929873D01*
X205856855Y-122892997D01*
X206034290Y-122764061D01*
X206091676Y-122530702D01*
X206091437Y-122516854D01*
X206053719Y-122432905D01*
X205924734Y-122392493D01*
X205665562Y-122382040D01*
X205402036Y-122364456D01*
X205218402Y-122285660D01*
X205170876Y-122126797D01*
X205195056Y-122042436D01*
X205455853Y-122042436D01*
X205472021Y-122152148D01*
X205564453Y-122230744D01*
X205780346Y-122269779D01*
X205844587Y-122276109D01*
X206019934Y-122278771D01*
X206082680Y-122221538D01*
X206077670Y-122075035D01*
X206072207Y-122039123D01*
X205977693Y-121833483D01*
X205821036Y-121728491D01*
X205650000Y-121726649D01*
X205512351Y-121830463D01*
X205455853Y-122042436D01*
X205195056Y-122042436D01*
X205244558Y-121869735D01*
X205249791Y-121857409D01*
X205418963Y-121633737D01*
X205652560Y-121554921D01*
X205925769Y-121621842D01*
X206213778Y-121835378D01*
X206270727Y-121916283D01*
X206341825Y-122168552D01*
X206342998Y-122221538D01*
X206348617Y-122475243D01*
G37*
G36*
X204093645Y-121617731D02*
G01*
X204287482Y-121631553D01*
X204542642Y-121628394D01*
X204632335Y-121626559D01*
X204827613Y-121647457D01*
X204903679Y-121699038D01*
X204889275Y-121739720D01*
X204776254Y-121787391D01*
X204752637Y-121792831D01*
X204682158Y-121902947D01*
X204643990Y-122117358D01*
X204637286Y-122386584D01*
X204661200Y-122661143D01*
X204714884Y-122891553D01*
X204797492Y-123028334D01*
X204843550Y-123066860D01*
X204856896Y-123114841D01*
X204750833Y-123137253D01*
X204500168Y-123143887D01*
X204327517Y-123138271D01*
X204130773Y-123108629D01*
X204054181Y-123061638D01*
X204086040Y-123012263D01*
X204224081Y-122976689D01*
X204242178Y-122976379D01*
X204323766Y-122953717D01*
X204369518Y-122869364D01*
X204389551Y-122687278D01*
X204393980Y-122371421D01*
X204393980Y-121766154D01*
X204133078Y-121818334D01*
X204010961Y-121838303D01*
X203908810Y-121820368D01*
X203904511Y-121722765D01*
X203941974Y-121648097D01*
X204059226Y-121610559D01*
X204093645Y-121617731D01*
G37*
G36*
X203402960Y-121634091D02*
G01*
X203566802Y-121802701D01*
X203613044Y-122029217D01*
X203588941Y-122130319D01*
X203471500Y-122280985D01*
X203225920Y-122422316D01*
X203078151Y-122497914D01*
X202912826Y-122631849D01*
X202864883Y-122783353D01*
X202874808Y-122879279D01*
X202952554Y-122957876D01*
X203149226Y-122976689D01*
X203176477Y-122976397D01*
X203398675Y-122930209D01*
X203525751Y-122785552D01*
X203583712Y-122670574D01*
X203615121Y-122661224D01*
X203623682Y-122813868D01*
X203613765Y-122970017D01*
X203572799Y-123089955D01*
X203562642Y-123098951D01*
X203394338Y-123150356D01*
X203152600Y-123141980D01*
X202911172Y-123083275D01*
X202743798Y-122983694D01*
X202655685Y-122860180D01*
X202620943Y-122636819D01*
X202752634Y-122426691D01*
X203048550Y-122235223D01*
X203065978Y-122226855D01*
X203295661Y-122100357D01*
X203396595Y-121993391D01*
X203399679Y-121874186D01*
X203311311Y-121755642D01*
X203134457Y-121698878D01*
X202948109Y-121728798D01*
X202826927Y-121848723D01*
X202819893Y-121866670D01*
X202763816Y-121946719D01*
X202691999Y-121869960D01*
X202662227Y-121771515D01*
X202755280Y-121638729D01*
X202916394Y-121558864D01*
X203169998Y-121545456D01*
X203402960Y-121634091D01*
G37*
G36*
X202061394Y-121228172D02*
G01*
X202100335Y-121363516D01*
X202129548Y-121484843D01*
X202286923Y-121597241D01*
X202361523Y-121618043D01*
X202416785Y-121654645D01*
X202318950Y-121700252D01*
X202252616Y-121738532D01*
X202196183Y-121841582D01*
X202166280Y-122039099D01*
X202153600Y-122368708D01*
X202134824Y-122733180D01*
X202090508Y-122956159D01*
X202015385Y-123063467D01*
X201901385Y-123127084D01*
X201794621Y-123136189D01*
X201612829Y-123093295D01*
X201500599Y-123044832D01*
X201464251Y-122975006D01*
X201520366Y-122944187D01*
X201675670Y-122952097D01*
X201689518Y-122955591D01*
X201774662Y-122959791D01*
X201821523Y-122897238D01*
X201841373Y-122733570D01*
X201845485Y-122434423D01*
X201845825Y-122151484D01*
X201846776Y-121920679D01*
X201848126Y-121808628D01*
X201784218Y-121754844D01*
X201614514Y-121709696D01*
X201378261Y-121674475D01*
X201632970Y-121623936D01*
X201819484Y-121552108D01*
X201887819Y-121411620D01*
X201905110Y-121317812D01*
X201994147Y-121214214D01*
X202061394Y-121228172D01*
G37*
G36*
X233455556Y-112460559D02*
G01*
X233770846Y-112473675D01*
X234004634Y-112496909D01*
X234150199Y-112543174D01*
X234250834Y-112627133D01*
X234349832Y-112763450D01*
X234359992Y-112778909D01*
X234502648Y-113067696D01*
X234592686Y-113371676D01*
X234684169Y-113634513D01*
X234855060Y-113761084D01*
X235111522Y-113746662D01*
X235460813Y-113593100D01*
X235730362Y-113457894D01*
X236014756Y-113380557D01*
X236269750Y-113418460D01*
X236537062Y-113579973D01*
X236858408Y-113873465D01*
X237103932Y-114135105D01*
X237288734Y-114402097D01*
X237350102Y-114644897D01*
X237296466Y-114904396D01*
X237136255Y-115221486D01*
X237069380Y-115342513D01*
X236968841Y-115610914D01*
X236972153Y-115840500D01*
X236982238Y-115883034D01*
X237044894Y-116020316D01*
X237174263Y-116096429D01*
X237421822Y-116146391D01*
X237720296Y-116224684D01*
X238053149Y-116441517D01*
X238110584Y-116500811D01*
X238207601Y-116629101D01*
X238261236Y-116780944D01*
X238284140Y-117005092D01*
X238288964Y-117350299D01*
X238276946Y-117738621D01*
X238221960Y-118013167D01*
X238097644Y-118190853D01*
X237877651Y-118308490D01*
X237535636Y-118402894D01*
X237286057Y-118473427D01*
X237087997Y-118581525D01*
X236966151Y-118740974D01*
X236917544Y-118842518D01*
X236854812Y-119083737D01*
X236898544Y-119322689D01*
X237054975Y-119621170D01*
X237094779Y-119687608D01*
X237243868Y-120020348D01*
X237256774Y-120304563D01*
X237127101Y-120579348D01*
X236848456Y-120883793D01*
X236784779Y-120942232D01*
X236479954Y-121174314D01*
X236211694Y-121268299D01*
X235937043Y-121230576D01*
X235613044Y-121067533D01*
X235488016Y-120993968D01*
X235218935Y-120879933D01*
X234987508Y-120875519D01*
X234732848Y-120974277D01*
X234599681Y-121067824D01*
X234483932Y-121246826D01*
X234394767Y-121543762D01*
X234349141Y-121712398D01*
X234251167Y-121975614D01*
X234153231Y-122144501D01*
X234089998Y-122199768D01*
X233945567Y-122258955D01*
X233712585Y-122288836D01*
X233350665Y-122297090D01*
X232986855Y-122286815D01*
X232726116Y-122233803D01*
X232557476Y-122106991D01*
X232441073Y-121875342D01*
X232337048Y-121507816D01*
X232290876Y-121347800D01*
X232172821Y-121117022D01*
X231995931Y-120976880D01*
X231860587Y-120913045D01*
X231645428Y-120862853D01*
X231431017Y-120911365D01*
X231153178Y-121065317D01*
X231021904Y-121143372D01*
X230735745Y-121258608D01*
X230480467Y-121251855D01*
X230215473Y-121115931D01*
X229900168Y-120843656D01*
X229844938Y-120789507D01*
X229598378Y-120513961D01*
X229480169Y-120287730D01*
X229478512Y-120073397D01*
X229581606Y-119833545D01*
X229665390Y-119671105D01*
X229706020Y-119557458D01*
X229705384Y-119554085D01*
X229613736Y-119524792D01*
X229392409Y-119504921D01*
X229077793Y-119493992D01*
X228706273Y-119491529D01*
X228314237Y-119497053D01*
X227938074Y-119510086D01*
X227614171Y-119530152D01*
X227378915Y-119556771D01*
X227268695Y-119589466D01*
X227157414Y-119638822D01*
X226948866Y-119628938D01*
X226938375Y-119626240D01*
X226778114Y-119543159D01*
X226751509Y-119393231D01*
X226753145Y-119383016D01*
X226853797Y-119175649D01*
X227034268Y-119083533D01*
X227244039Y-119133328D01*
X227247370Y-119135340D01*
X227406757Y-119181595D01*
X227708120Y-119213850D01*
X228160623Y-119232740D01*
X228773430Y-119238896D01*
X228940829Y-119238937D01*
X229435275Y-119241957D01*
X229783202Y-119255636D01*
X230002872Y-119288084D01*
X230112545Y-119347412D01*
X230130483Y-119441729D01*
X230074947Y-119579148D01*
X229964197Y-119767779D01*
X229942163Y-119805202D01*
X229837172Y-120027427D01*
X229794298Y-120197990D01*
X229805172Y-120242197D01*
X229907275Y-120403654D01*
X230081604Y-120606722D01*
X230284617Y-120807021D01*
X230472771Y-120960169D01*
X230602521Y-121021783D01*
X230634036Y-121015376D01*
X230788166Y-120942682D01*
X230995110Y-120814828D01*
X231209691Y-120680650D01*
X231505260Y-120561707D01*
X231776262Y-120562580D01*
X232074954Y-120676579D01*
X232213140Y-120752043D01*
X232428502Y-120920780D01*
X232557713Y-121142064D01*
X232642496Y-121474561D01*
X232702780Y-121706813D01*
X232833282Y-121911559D01*
X233053418Y-122014170D01*
X233400014Y-122042240D01*
X233663000Y-122029685D01*
X233886706Y-121960091D01*
X234017141Y-121801918D01*
X234095575Y-121524445D01*
X234128256Y-121373675D01*
X234257786Y-121029494D01*
X234462868Y-120796027D01*
X234775235Y-120631589D01*
X235172816Y-120479751D01*
X235668704Y-120754453D01*
X235741217Y-120794107D01*
X236013672Y-120925978D01*
X236194793Y-120972311D01*
X236323154Y-120944296D01*
X236324220Y-120943721D01*
X236459667Y-120840538D01*
X236638864Y-120669232D01*
X236819388Y-120475342D01*
X236958813Y-120304408D01*
X237014716Y-120201966D01*
X236985024Y-120126805D01*
X236890357Y-119941731D01*
X236753260Y-119694573D01*
X236617052Y-119426220D01*
X236540235Y-119125693D01*
X236585157Y-118839538D01*
X236751744Y-118508126D01*
X236753124Y-118505862D01*
X236887826Y-118340565D01*
X237080235Y-118230761D01*
X237386338Y-118144358D01*
X237564483Y-118096914D01*
X237813376Y-117996482D01*
X237942339Y-117892452D01*
X237951672Y-117872773D01*
X237995522Y-117663392D01*
X238003998Y-117374435D01*
X237981276Y-117068013D01*
X237931529Y-116806238D01*
X237858930Y-116651222D01*
X237777060Y-116596681D01*
X237555615Y-116501639D01*
X237276133Y-116416220D01*
X237071925Y-116360835D01*
X236886540Y-116279786D01*
X236776732Y-116158087D01*
X236688804Y-115953425D01*
X236629776Y-115778685D01*
X236609331Y-115616588D01*
X236658950Y-115454344D01*
X236788423Y-115219865D01*
X236871921Y-115070596D01*
X236989787Y-114778231D01*
X236987016Y-114537205D01*
X236855745Y-114300468D01*
X236588115Y-114020969D01*
X236400656Y-113852596D01*
X236188554Y-113710132D01*
X235996741Y-113681248D01*
X235773665Y-113762746D01*
X235467775Y-113951424D01*
X235411915Y-113987192D01*
X235150822Y-114106261D01*
X234928407Y-114105757D01*
X234629625Y-113956460D01*
X234388762Y-113675514D01*
X234256070Y-113305570D01*
X234176329Y-113031800D01*
X234013129Y-112834014D01*
X233744512Y-112728771D01*
X233342971Y-112697759D01*
X232993915Y-112724644D01*
X232727933Y-112832670D01*
X232563210Y-113046283D01*
X232469280Y-113389610D01*
X232452057Y-113481789D01*
X232388840Y-113719848D01*
X232322469Y-113865819D01*
X232273778Y-113892316D01*
X232135708Y-113919022D01*
X231898297Y-113939604D01*
X231547441Y-113954628D01*
X231069034Y-113964660D01*
X230448970Y-113970264D01*
X229673144Y-113972006D01*
X229096400Y-113973228D01*
X228363263Y-113979778D01*
X227792904Y-113992121D01*
X227381090Y-114010405D01*
X227123592Y-114034780D01*
X227016177Y-114065395D01*
X226952498Y-114109399D01*
X226781319Y-114116333D01*
X226630646Y-114016325D01*
X226565887Y-113841846D01*
X226585899Y-113740048D01*
X226686316Y-113590068D01*
X226823685Y-113504800D01*
X226943910Y-113529009D01*
X226959195Y-113534542D01*
X227109718Y-113551640D01*
X227401328Y-113569541D01*
X227812585Y-113587398D01*
X228322050Y-113604360D01*
X228908284Y-113619580D01*
X229549846Y-113632207D01*
X232095219Y-113674682D01*
X232141527Y-113462307D01*
X232192332Y-113242877D01*
X232307996Y-112879117D01*
X232459129Y-112644179D01*
X232678752Y-112512889D01*
X232999888Y-112460074D01*
X233455556Y-112460559D01*
G37*
G36*
X219033376Y-120950661D02*
G01*
X219143848Y-121050256D01*
X219132776Y-121192742D01*
X219024658Y-121274305D01*
X218895905Y-121244456D01*
X218835452Y-121107792D01*
X218858624Y-121008623D01*
X218957863Y-120937893D01*
X219033376Y-120950661D01*
G37*
G36*
X208541535Y-121002650D02*
G01*
X208625300Y-121129030D01*
X208610997Y-121234697D01*
X208471572Y-121277692D01*
X208347395Y-121249443D01*
X208317845Y-121129030D01*
X208351624Y-121050988D01*
X208471572Y-120980368D01*
X208541535Y-121002650D01*
G37*
G36*
X233845641Y-114814398D02*
G01*
X234431552Y-114982339D01*
X234748266Y-115157311D01*
X235183978Y-115508553D01*
X235565386Y-115937675D01*
X235840939Y-116393077D01*
X235982132Y-116824606D01*
X236046673Y-117416149D01*
X235990877Y-118016482D01*
X235815457Y-118564953D01*
X235591479Y-118957597D01*
X235150617Y-119461123D01*
X234605305Y-119843716D01*
X233979079Y-120085886D01*
X233708188Y-120130121D01*
X233195671Y-120127340D01*
X232667192Y-120037963D01*
X232197839Y-119871047D01*
X232125796Y-119833994D01*
X231696270Y-119536077D01*
X231314198Y-119147482D01*
X231007152Y-118706654D01*
X230802705Y-118252041D01*
X230728428Y-117822091D01*
X230728428Y-117624849D01*
X229321171Y-117624849D01*
X229053911Y-117626243D01*
X228573304Y-117636515D01*
X228176620Y-117655432D01*
X227892504Y-117681390D01*
X227749600Y-117712788D01*
X227698281Y-117734884D01*
X227489261Y-117738758D01*
X227317062Y-117634569D01*
X227245485Y-117454950D01*
X227254925Y-117394512D01*
X227361550Y-117243564D01*
X227531095Y-117155709D01*
X227693228Y-117174934D01*
X227798672Y-117197429D01*
X228048103Y-117222281D01*
X228411061Y-117246441D01*
X228858641Y-117267999D01*
X229361934Y-117285050D01*
X230926208Y-117327525D01*
X231035142Y-117862309D01*
X231048404Y-117925087D01*
X231214132Y-118455517D01*
X231470754Y-118887390D01*
X231850754Y-119277051D01*
X232054924Y-119432575D01*
X232579326Y-119694236D01*
X233141857Y-119813725D01*
X233714288Y-119797071D01*
X234268388Y-119650302D01*
X234775927Y-119379447D01*
X235208674Y-118990534D01*
X235538399Y-118489592D01*
X235566138Y-118427665D01*
X235681078Y-118011432D01*
X235728504Y-117523997D01*
X235705623Y-117038283D01*
X235609648Y-116627212D01*
X235481028Y-116362926D01*
X235184720Y-115947985D01*
X234817643Y-115578490D01*
X234433714Y-115314620D01*
X234176615Y-115206064D01*
X233610534Y-115091703D01*
X233020749Y-115115147D01*
X232451469Y-115272068D01*
X231946900Y-115558137D01*
X231576457Y-115840903D01*
X230264466Y-115840903D01*
X230251849Y-115840906D01*
X229696550Y-115847923D01*
X229244473Y-115867444D01*
X228917776Y-115898056D01*
X228738620Y-115938342D01*
X228732216Y-115941241D01*
X228540376Y-115992484D01*
X228394824Y-115927940D01*
X228286713Y-115773027D01*
X228279751Y-115588650D01*
X228363240Y-115433937D01*
X228510632Y-115355519D01*
X228695378Y-115400027D01*
X228807195Y-115436252D01*
X229102822Y-115472182D01*
X229563930Y-115493848D01*
X230188321Y-115501103D01*
X230477327Y-115500835D01*
X230904754Y-115497377D01*
X231208438Y-115486813D01*
X231418476Y-115465292D01*
X231564964Y-115428965D01*
X231678000Y-115373980D01*
X231787681Y-115296487D01*
X232034158Y-115133513D01*
X232601925Y-114895334D01*
X233220759Y-114787180D01*
X233845641Y-114814398D01*
G37*
G36*
X225004837Y-116605451D02*
G01*
X225006704Y-116610904D01*
X225205770Y-117185780D01*
X225390586Y-117707065D01*
X225553185Y-118153263D01*
X225685600Y-118502881D01*
X225779865Y-118734424D01*
X225828013Y-118826400D01*
X225846091Y-118836196D01*
X226005465Y-118886432D01*
X226237802Y-118933591D01*
X226378398Y-118958344D01*
X226509178Y-119012758D01*
X226558364Y-119131489D01*
X226565887Y-119367325D01*
X226565887Y-119748595D01*
X225036790Y-119748595D01*
X223507693Y-119748595D01*
X223507693Y-119372433D01*
X223507693Y-118996272D01*
X223974917Y-118937896D01*
X224168260Y-118909420D01*
X224365651Y-118867361D01*
X224442141Y-118831623D01*
X224442019Y-118829502D01*
X224414658Y-118721228D01*
X224348663Y-118499777D01*
X224257467Y-118210332D01*
X224256903Y-118208580D01*
X224132169Y-117869955D01*
X224017187Y-117672519D01*
X223896430Y-117589578D01*
X223879227Y-117585606D01*
X223683817Y-117564557D01*
X223373563Y-117550714D01*
X222995898Y-117544077D01*
X222598254Y-117544644D01*
X222228061Y-117552417D01*
X221932752Y-117567395D01*
X221759758Y-117589578D01*
X221759219Y-117589724D01*
X221638518Y-117673088D01*
X221523528Y-117871059D01*
X221398721Y-118210332D01*
X221375802Y-118281456D01*
X221278716Y-118589356D01*
X221233378Y-118772989D01*
X221240582Y-118864436D01*
X221301125Y-118895778D01*
X221415803Y-118899097D01*
X221622808Y-118913189D01*
X221883027Y-118952190D01*
X221957227Y-118968290D01*
X222085954Y-119024703D01*
X222138477Y-119142946D01*
X222148495Y-119376939D01*
X222148495Y-119748595D01*
X220279599Y-119748595D01*
X218410703Y-119748595D01*
X218410703Y-119378268D01*
X218410703Y-119007942D01*
X218840604Y-118932282D01*
X219270504Y-118856622D01*
X220136205Y-116541739D01*
X221920605Y-116541739D01*
X221958513Y-116562679D01*
X222133036Y-116584807D01*
X222418099Y-116599881D01*
X222780606Y-116605451D01*
X223070614Y-116601905D01*
X223384496Y-116588217D01*
X223598486Y-116566634D01*
X223677592Y-116539721D01*
X223677194Y-116533389D01*
X223646119Y-116407054D01*
X223572987Y-116169512D01*
X223468429Y-115851033D01*
X223343077Y-115481884D01*
X223207564Y-115092335D01*
X223072521Y-114712655D01*
X222948580Y-114373112D01*
X222846373Y-114103976D01*
X222776532Y-113935515D01*
X222749690Y-113897999D01*
X222748885Y-113905655D01*
X222715544Y-114043696D01*
X222641690Y-114302850D01*
X222538398Y-114647804D01*
X222416741Y-115043243D01*
X222287795Y-115453854D01*
X222162634Y-115844323D01*
X222052332Y-116179336D01*
X221967964Y-116423579D01*
X221920605Y-116541739D01*
X220136205Y-116541739D01*
X220573027Y-115373679D01*
X221875549Y-111890735D01*
X222624776Y-111890735D01*
X223374003Y-111890735D01*
X223818684Y-113164983D01*
X223910083Y-113427558D01*
X224092780Y-113954732D01*
X224307613Y-114576744D01*
X224540574Y-115252957D01*
X224777651Y-115942738D01*
X224982304Y-116539721D01*
X225004837Y-116605451D01*
G37*
G36*
X212384727Y-114778138D02*
G01*
X212567422Y-115361531D01*
X212761985Y-115976060D01*
X212936469Y-116520027D01*
X213084879Y-116975072D01*
X213201219Y-117322835D01*
X213279496Y-117544959D01*
X213313713Y-117623082D01*
X213332199Y-117588605D01*
X213395973Y-117415655D01*
X213496387Y-117117095D01*
X213626140Y-116715287D01*
X213777930Y-116232590D01*
X213944456Y-115691365D01*
X214010207Y-115475605D01*
X214198972Y-114857622D01*
X214386108Y-114246878D01*
X214559684Y-113682208D01*
X214707770Y-113202444D01*
X214818436Y-112846421D01*
X215104147Y-111933210D01*
X216587525Y-111933210D01*
X218070903Y-111933210D01*
X218070903Y-112301247D01*
X218070903Y-112669284D01*
X217667392Y-112747234D01*
X217263880Y-112825184D01*
X217263880Y-115837030D01*
X217263880Y-118848877D01*
X217752341Y-118968093D01*
X218240803Y-119087309D01*
X218240803Y-119417952D01*
X218240803Y-119748595D01*
X216669231Y-119748595D01*
X215097659Y-119748595D01*
X215097659Y-119412789D01*
X215097962Y-119355666D01*
X215119644Y-119161311D01*
X215209858Y-119060066D01*
X215416221Y-118988513D01*
X215460112Y-118976690D01*
X215705540Y-118922037D01*
X215883445Y-118899570D01*
X215901227Y-118898363D01*
X215941600Y-118878033D01*
X215972589Y-118818086D01*
X215995333Y-118699909D01*
X216010972Y-118504893D01*
X216020646Y-118214426D01*
X216025496Y-117809898D01*
X216026662Y-117272697D01*
X216025283Y-116584214D01*
X216018458Y-114269331D01*
X215688123Y-115288729D01*
X215558965Y-115691431D01*
X215392527Y-116216805D01*
X215205341Y-116812428D01*
X215012024Y-117431785D01*
X214827194Y-118028361D01*
X214296600Y-119748595D01*
X213557134Y-119748595D01*
X212817668Y-119748595D01*
X212687718Y-119345083D01*
X212624330Y-119146542D01*
X212510058Y-118784597D01*
X212368837Y-118334302D01*
X212208434Y-117820709D01*
X212036616Y-117268868D01*
X211861150Y-116703828D01*
X211689802Y-116150639D01*
X211530339Y-115634353D01*
X211390528Y-115180019D01*
X211278135Y-114812687D01*
X211200928Y-114557407D01*
X211166672Y-114439230D01*
X211165376Y-114435089D01*
X211154143Y-114489109D01*
X211143401Y-114691068D01*
X211133628Y-115021262D01*
X211125297Y-115459987D01*
X211118887Y-115987539D01*
X211114871Y-116584214D01*
X211113753Y-116864625D01*
X211112377Y-117493437D01*
X211114159Y-117978038D01*
X211120216Y-118337042D01*
X211131664Y-118589062D01*
X211149618Y-118752711D01*
X211175195Y-118846604D01*
X211209510Y-118889352D01*
X211253679Y-118899570D01*
X211276393Y-118900426D01*
X211473389Y-118929995D01*
X211720903Y-118988513D01*
X211775013Y-119003859D01*
X211953675Y-119076332D01*
X212025954Y-119191503D01*
X212039465Y-119412789D01*
X212039465Y-119748595D01*
X210213044Y-119748595D01*
X208386622Y-119748595D01*
X208386622Y-119417952D01*
X208386622Y-119087309D01*
X208875084Y-118968115D01*
X209363545Y-118848921D01*
X209385844Y-115826900D01*
X209408142Y-112804879D01*
X208982332Y-112748393D01*
X208556522Y-112691907D01*
X208556522Y-112312559D01*
X208556522Y-111933210D01*
X210027369Y-111933210D01*
X211498216Y-111933210D01*
X212384727Y-114778138D01*
G37*
G36*
X207537124Y-112269017D02*
G01*
X207536821Y-112326139D01*
X207515139Y-112520494D01*
X207424925Y-112621739D01*
X207218562Y-112693292D01*
X207174671Y-112705116D01*
X206929244Y-112759769D01*
X206751338Y-112782235D01*
X206723953Y-112786168D01*
X206690093Y-112813533D01*
X206663168Y-112881075D01*
X206642391Y-113005009D01*
X206626972Y-113201551D01*
X206616124Y-113486915D01*
X206609058Y-113877318D01*
X206604987Y-114388973D01*
X206603122Y-115038096D01*
X206602676Y-115840903D01*
X206602863Y-116404255D01*
X206604188Y-117100803D01*
X206607467Y-117654693D01*
X206613488Y-118082140D01*
X206623040Y-118399360D01*
X206636910Y-118622566D01*
X206655887Y-118767976D01*
X206680759Y-118851803D01*
X206712313Y-118890262D01*
X206751338Y-118899570D01*
X206774052Y-118900426D01*
X206971048Y-118929995D01*
X207218562Y-118988513D01*
X207272672Y-119003859D01*
X207451334Y-119076332D01*
X207523613Y-119191503D01*
X207537124Y-119412789D01*
X207537124Y-119748595D01*
X204648830Y-119748595D01*
X201760535Y-119748595D01*
X201760535Y-118601772D01*
X201760535Y-117454950D01*
X202139535Y-117454950D01*
X202291291Y-117456801D01*
X202456616Y-117486222D01*
X202542558Y-117584897D01*
X202606759Y-117794749D01*
X202612709Y-117817665D01*
X202698810Y-118149286D01*
X202783208Y-118474348D01*
X202871432Y-118814147D01*
X203696418Y-118812987D01*
X203898569Y-118811223D01*
X204258927Y-118800694D01*
X204546858Y-118782885D01*
X204713631Y-118760319D01*
X204905857Y-118708812D01*
X204883531Y-115770847D01*
X204861204Y-112832882D01*
X204372743Y-112713689D01*
X203884281Y-112594496D01*
X203884281Y-112263853D01*
X203884281Y-111933210D01*
X205710703Y-111933210D01*
X207537124Y-111933210D01*
X207537124Y-112269017D01*
G37*
G36*
X234367721Y-118032887D02*
G01*
X234190134Y-118066030D01*
X233944286Y-118077649D01*
X233701673Y-118067588D01*
X233568090Y-118057719D01*
X233291008Y-118049691D01*
X232974166Y-118049750D01*
X232459033Y-118057551D01*
X232458555Y-118007123D01*
X233616723Y-118007123D01*
X233659198Y-118049598D01*
X233701673Y-118007123D01*
X233871572Y-118007123D01*
X233914047Y-118049598D01*
X233956522Y-118007123D01*
X233914047Y-117964649D01*
X233871572Y-118007123D01*
X233701673Y-118007123D01*
X233659198Y-117964649D01*
X233616723Y-118007123D01*
X232458555Y-118007123D01*
X232454317Y-117560220D01*
X232449600Y-117062890D01*
X233457911Y-117049707D01*
X234466221Y-117036524D01*
X234475660Y-117245737D01*
X234481162Y-117399761D01*
X234485099Y-117624849D01*
X234483116Y-117763619D01*
X234454828Y-117947868D01*
X234394118Y-118007123D01*
X234367721Y-118032887D01*
G37*
D10*
X179790000Y-91720000D02*
X179790000Y-145060000D01*
X179790000Y-91720000D02*
X277326000Y-91720000D01*
X179790000Y-145060000D02*
X278850000Y-145060000D01*
X277326000Y-91720000D02*
X278850000Y-93244000D01*
X278850000Y-104420000D02*
X278850000Y-93244000D01*
X278850000Y-143790000D02*
X281390000Y-141250000D01*
X278850000Y-145060000D02*
X278850000Y-143790000D01*
X281390000Y-106960000D02*
X278850000Y-104420000D01*
X281390000Y-141250000D02*
X281390000Y-106960000D01*
%LPC*%
D12*
X237430000Y-101280000D03*
D13*
X241390000Y-101280000D03*
D14*
X193760000Y-142520000D03*
X195030000Y-94260000D03*
D15*
X207730000Y-142520000D03*
D14*
X245830000Y-109500000D03*
X245830000Y-137440000D03*
X269960000Y-94260000D03*
X276310000Y-142520000D03*
D15*
X215350000Y-142520000D03*
X217890000Y-142520000D03*
X245957000Y-114580000D03*
X273770000Y-94260000D03*
X276310000Y-94260000D03*
X230590000Y-142520000D03*
X233130000Y-142520000D03*
X235670000Y-142520000D03*
X238210000Y-142520000D03*
X240750000Y-142520000D03*
X243290000Y-142520000D03*
X245830000Y-142520000D03*
X248370000Y-142520000D03*
X253450000Y-142520000D03*
X255990000Y-142520000D03*
X258530000Y-142520000D03*
X261070000Y-142520000D03*
X263610000Y-142520000D03*
X266150000Y-142520000D03*
X268690000Y-142520000D03*
X271230000Y-142520000D03*
X203666000Y-94260000D03*
X243290000Y-94260000D03*
X240750000Y-94260000D03*
X238210000Y-94260000D03*
X235670000Y-94260000D03*
X233130000Y-94260000D03*
X230590000Y-94260000D03*
X228050000Y-94260000D03*
X225510000Y-94260000D03*
X221446000Y-94260000D03*
X218906000Y-94260000D03*
X216366000Y-94260000D03*
X213826000Y-94260000D03*
X211286000Y-94260000D03*
X208746000Y-94260000D03*
X248370000Y-94260000D03*
X250910000Y-94260000D03*
X253450000Y-94260000D03*
X255990000Y-94260000D03*
X258530000Y-94260000D03*
X261070000Y-94260000D03*
X263610000Y-94260000D03*
X266150000Y-94260000D03*
X273770000Y-96800000D03*
X276310000Y-96800000D03*
X273770000Y-99340000D03*
X276310000Y-99340000D03*
X273770000Y-101880000D03*
X276310000Y-101880000D03*
X273770000Y-104420000D03*
X276310000Y-104420000D03*
X273770000Y-106960000D03*
X276310000Y-106960000D03*
X273770000Y-109500000D03*
X276310000Y-109500000D03*
X273770000Y-112040000D03*
X276310000Y-112040000D03*
X273770000Y-114580000D03*
X276310000Y-114580000D03*
X273770000Y-117120000D03*
X276310000Y-117120000D03*
X273770000Y-119660000D03*
X276310000Y-119660000D03*
X273770000Y-122200000D03*
X276310000Y-122200000D03*
X273770000Y-124740000D03*
X276310000Y-124740000D03*
X273770000Y-127280000D03*
X276310000Y-127280000D03*
X273770000Y-129820000D03*
X276310000Y-129820000D03*
X273770000Y-132360000D03*
X276310000Y-132360000D03*
X273770000Y-134900000D03*
X276310000Y-134900000D03*
D16*
X206206000Y-94260000D03*
X220430000Y-142520000D03*
X222970000Y-142520000D03*
X245957000Y-119660000D03*
X273770000Y-137440000D03*
X276310000Y-137440000D03*
D15*
X210270000Y-142520000D03*
X243417000Y-114580000D03*
X245957000Y-117120000D03*
X212810000Y-142520000D03*
X243417000Y-119660000D03*
X243417000Y-117120000D03*
X198586000Y-94260000D03*
X201126000Y-94260000D03*
X225510000Y-142520000D03*
%LPD*%
M02*
