%TF.GenerationSoftware,KiCad,Pcbnew,7.0.5*%
%TF.CreationDate,2023-09-27T13:54:26+07:00*%
%TF.ProjectId,sumoRobotPCB,73756d6f-526f-4626-9f74-5043422e6b69,rev?*%
%TF.SameCoordinates,Original*%
%TF.FileFunction,Drillmap*%
%TF.FilePolarity,Positive*%
%FSLAX45Y45*%
G04 Gerber Fmt 4.5, Leading zero omitted, Abs format (unit mm)*
G04 Created by KiCad (PCBNEW 7.0.5) date 2023-09-27 13:54:26*
%MOMM*%
%LPD*%
G01*
G04 APERTURE LIST*
%ADD10C,0.100000*%
%ADD11C,0.200000*%
%ADD12C,0.320000*%
G04 APERTURE END LIST*
D10*
X19004000Y-8863000D02*
X28004000Y-8863000D01*
X28004000Y-14863000D01*
X19004000Y-14863000D01*
X19004000Y-8863000D01*
D11*
D12*
X19216000Y-14092000D02*
X19536000Y-14412000D01*
X19536000Y-14092000D02*
X19216000Y-14412000D01*
X19343000Y-9266000D02*
X19663000Y-9586000D01*
X19663000Y-9266000D02*
X19343000Y-9586000D01*
X24423000Y-10790000D02*
X24743000Y-11110000D01*
X24743000Y-10790000D02*
X24423000Y-11110000D01*
X24423000Y-13584000D02*
X24743000Y-13904000D01*
X24743000Y-13584000D02*
X24423000Y-13904000D01*
X26836000Y-9266000D02*
X27156000Y-9586000D01*
X27156000Y-9266000D02*
X26836000Y-9586000D01*
X27471000Y-14092000D02*
X27791000Y-14412000D01*
X27791000Y-14092000D02*
X27471000Y-14412000D01*
D11*
X19259777Y-15179484D02*
X19259777Y-14979484D01*
X19259777Y-14979484D02*
X19307396Y-14979484D01*
X19307396Y-14979484D02*
X19335967Y-14989008D01*
X19335967Y-14989008D02*
X19355015Y-15008055D01*
X19355015Y-15008055D02*
X19364539Y-15027103D01*
X19364539Y-15027103D02*
X19374063Y-15065198D01*
X19374063Y-15065198D02*
X19374063Y-15093769D01*
X19374063Y-15093769D02*
X19364539Y-15131865D01*
X19364539Y-15131865D02*
X19355015Y-15150912D01*
X19355015Y-15150912D02*
X19335967Y-15169960D01*
X19335967Y-15169960D02*
X19307396Y-15179484D01*
X19307396Y-15179484D02*
X19259777Y-15179484D01*
X19459777Y-15179484D02*
X19459777Y-15046150D01*
X19459777Y-15084246D02*
X19469301Y-15065198D01*
X19469301Y-15065198D02*
X19478824Y-15055674D01*
X19478824Y-15055674D02*
X19497872Y-15046150D01*
X19497872Y-15046150D02*
X19516920Y-15046150D01*
X19583586Y-15179484D02*
X19583586Y-15046150D01*
X19583586Y-14979484D02*
X19574063Y-14989008D01*
X19574063Y-14989008D02*
X19583586Y-14998531D01*
X19583586Y-14998531D02*
X19593110Y-14989008D01*
X19593110Y-14989008D02*
X19583586Y-14979484D01*
X19583586Y-14979484D02*
X19583586Y-14998531D01*
X19707396Y-15179484D02*
X19688348Y-15169960D01*
X19688348Y-15169960D02*
X19678824Y-15150912D01*
X19678824Y-15150912D02*
X19678824Y-14979484D01*
X19812158Y-15179484D02*
X19793110Y-15169960D01*
X19793110Y-15169960D02*
X19783586Y-15150912D01*
X19783586Y-15150912D02*
X19783586Y-14979484D01*
X20040729Y-15179484D02*
X20040729Y-14979484D01*
X20040729Y-14979484D02*
X20107396Y-15122341D01*
X20107396Y-15122341D02*
X20174063Y-14979484D01*
X20174063Y-14979484D02*
X20174063Y-15179484D01*
X20355015Y-15179484D02*
X20355015Y-15074722D01*
X20355015Y-15074722D02*
X20345491Y-15055674D01*
X20345491Y-15055674D02*
X20326444Y-15046150D01*
X20326444Y-15046150D02*
X20288348Y-15046150D01*
X20288348Y-15046150D02*
X20269301Y-15055674D01*
X20355015Y-15169960D02*
X20335967Y-15179484D01*
X20335967Y-15179484D02*
X20288348Y-15179484D01*
X20288348Y-15179484D02*
X20269301Y-15169960D01*
X20269301Y-15169960D02*
X20259777Y-15150912D01*
X20259777Y-15150912D02*
X20259777Y-15131865D01*
X20259777Y-15131865D02*
X20269301Y-15112817D01*
X20269301Y-15112817D02*
X20288348Y-15103293D01*
X20288348Y-15103293D02*
X20335967Y-15103293D01*
X20335967Y-15103293D02*
X20355015Y-15093769D01*
X20450253Y-15046150D02*
X20450253Y-15246150D01*
X20450253Y-15055674D02*
X20469301Y-15046150D01*
X20469301Y-15046150D02*
X20507396Y-15046150D01*
X20507396Y-15046150D02*
X20526444Y-15055674D01*
X20526444Y-15055674D02*
X20535967Y-15065198D01*
X20535967Y-15065198D02*
X20545491Y-15084246D01*
X20545491Y-15084246D02*
X20545491Y-15141388D01*
X20545491Y-15141388D02*
X20535967Y-15160436D01*
X20535967Y-15160436D02*
X20526444Y-15169960D01*
X20526444Y-15169960D02*
X20507396Y-15179484D01*
X20507396Y-15179484D02*
X20469301Y-15179484D01*
X20469301Y-15179484D02*
X20450253Y-15169960D01*
X20631205Y-15160436D02*
X20640729Y-15169960D01*
X20640729Y-15169960D02*
X20631205Y-15179484D01*
X20631205Y-15179484D02*
X20621682Y-15169960D01*
X20621682Y-15169960D02*
X20631205Y-15160436D01*
X20631205Y-15160436D02*
X20631205Y-15179484D01*
X20631205Y-15055674D02*
X20640729Y-15065198D01*
X20640729Y-15065198D02*
X20631205Y-15074722D01*
X20631205Y-15074722D02*
X20621682Y-15065198D01*
X20621682Y-15065198D02*
X20631205Y-15055674D01*
X20631205Y-15055674D02*
X20631205Y-15074722D01*
X18799000Y-15408000D02*
X18999000Y-15608000D01*
X18999000Y-15408000D02*
X18799000Y-15608000D01*
X19240729Y-15399484D02*
X19364539Y-15399484D01*
X19364539Y-15399484D02*
X19297872Y-15475674D01*
X19297872Y-15475674D02*
X19326444Y-15475674D01*
X19326444Y-15475674D02*
X19345491Y-15485198D01*
X19345491Y-15485198D02*
X19355015Y-15494722D01*
X19355015Y-15494722D02*
X19364539Y-15513769D01*
X19364539Y-15513769D02*
X19364539Y-15561388D01*
X19364539Y-15561388D02*
X19355015Y-15580436D01*
X19355015Y-15580436D02*
X19345491Y-15589960D01*
X19345491Y-15589960D02*
X19326444Y-15599484D01*
X19326444Y-15599484D02*
X19269301Y-15599484D01*
X19269301Y-15599484D02*
X19250253Y-15589960D01*
X19250253Y-15589960D02*
X19240729Y-15580436D01*
X19450253Y-15580436D02*
X19459777Y-15589960D01*
X19459777Y-15589960D02*
X19450253Y-15599484D01*
X19450253Y-15599484D02*
X19440729Y-15589960D01*
X19440729Y-15589960D02*
X19450253Y-15580436D01*
X19450253Y-15580436D02*
X19450253Y-15599484D01*
X19535967Y-15418531D02*
X19545491Y-15409008D01*
X19545491Y-15409008D02*
X19564539Y-15399484D01*
X19564539Y-15399484D02*
X19612158Y-15399484D01*
X19612158Y-15399484D02*
X19631205Y-15409008D01*
X19631205Y-15409008D02*
X19640729Y-15418531D01*
X19640729Y-15418531D02*
X19650253Y-15437579D01*
X19650253Y-15437579D02*
X19650253Y-15456627D01*
X19650253Y-15456627D02*
X19640729Y-15485198D01*
X19640729Y-15485198D02*
X19526444Y-15599484D01*
X19526444Y-15599484D02*
X19650253Y-15599484D01*
X19774063Y-15399484D02*
X19793110Y-15399484D01*
X19793110Y-15399484D02*
X19812158Y-15409008D01*
X19812158Y-15409008D02*
X19821682Y-15418531D01*
X19821682Y-15418531D02*
X19831205Y-15437579D01*
X19831205Y-15437579D02*
X19840729Y-15475674D01*
X19840729Y-15475674D02*
X19840729Y-15523293D01*
X19840729Y-15523293D02*
X19831205Y-15561388D01*
X19831205Y-15561388D02*
X19821682Y-15580436D01*
X19821682Y-15580436D02*
X19812158Y-15589960D01*
X19812158Y-15589960D02*
X19793110Y-15599484D01*
X19793110Y-15599484D02*
X19774063Y-15599484D01*
X19774063Y-15599484D02*
X19755015Y-15589960D01*
X19755015Y-15589960D02*
X19745491Y-15580436D01*
X19745491Y-15580436D02*
X19735967Y-15561388D01*
X19735967Y-15561388D02*
X19726444Y-15523293D01*
X19726444Y-15523293D02*
X19726444Y-15475674D01*
X19726444Y-15475674D02*
X19735967Y-15437579D01*
X19735967Y-15437579D02*
X19745491Y-15418531D01*
X19745491Y-15418531D02*
X19755015Y-15409008D01*
X19755015Y-15409008D02*
X19774063Y-15399484D01*
X19964539Y-15399484D02*
X19983586Y-15399484D01*
X19983586Y-15399484D02*
X20002634Y-15409008D01*
X20002634Y-15409008D02*
X20012158Y-15418531D01*
X20012158Y-15418531D02*
X20021682Y-15437579D01*
X20021682Y-15437579D02*
X20031205Y-15475674D01*
X20031205Y-15475674D02*
X20031205Y-15523293D01*
X20031205Y-15523293D02*
X20021682Y-15561388D01*
X20021682Y-15561388D02*
X20012158Y-15580436D01*
X20012158Y-15580436D02*
X20002634Y-15589960D01*
X20002634Y-15589960D02*
X19983586Y-15599484D01*
X19983586Y-15599484D02*
X19964539Y-15599484D01*
X19964539Y-15599484D02*
X19945491Y-15589960D01*
X19945491Y-15589960D02*
X19935967Y-15580436D01*
X19935967Y-15580436D02*
X19926444Y-15561388D01*
X19926444Y-15561388D02*
X19916920Y-15523293D01*
X19916920Y-15523293D02*
X19916920Y-15475674D01*
X19916920Y-15475674D02*
X19926444Y-15437579D01*
X19926444Y-15437579D02*
X19935967Y-15418531D01*
X19935967Y-15418531D02*
X19945491Y-15409008D01*
X19945491Y-15409008D02*
X19964539Y-15399484D01*
X20116920Y-15599484D02*
X20116920Y-15466150D01*
X20116920Y-15485198D02*
X20126444Y-15475674D01*
X20126444Y-15475674D02*
X20145491Y-15466150D01*
X20145491Y-15466150D02*
X20174063Y-15466150D01*
X20174063Y-15466150D02*
X20193110Y-15475674D01*
X20193110Y-15475674D02*
X20202634Y-15494722D01*
X20202634Y-15494722D02*
X20202634Y-15599484D01*
X20202634Y-15494722D02*
X20212158Y-15475674D01*
X20212158Y-15475674D02*
X20231205Y-15466150D01*
X20231205Y-15466150D02*
X20259777Y-15466150D01*
X20259777Y-15466150D02*
X20278825Y-15475674D01*
X20278825Y-15475674D02*
X20288348Y-15494722D01*
X20288348Y-15494722D02*
X20288348Y-15599484D01*
X20383586Y-15599484D02*
X20383586Y-15466150D01*
X20383586Y-15485198D02*
X20393110Y-15475674D01*
X20393110Y-15475674D02*
X20412158Y-15466150D01*
X20412158Y-15466150D02*
X20440729Y-15466150D01*
X20440729Y-15466150D02*
X20459777Y-15475674D01*
X20459777Y-15475674D02*
X20469301Y-15494722D01*
X20469301Y-15494722D02*
X20469301Y-15599484D01*
X20469301Y-15494722D02*
X20478825Y-15475674D01*
X20478825Y-15475674D02*
X20497872Y-15466150D01*
X20497872Y-15466150D02*
X20526444Y-15466150D01*
X20526444Y-15466150D02*
X20545491Y-15475674D01*
X20545491Y-15475674D02*
X20555015Y-15494722D01*
X20555015Y-15494722D02*
X20555015Y-15599484D01*
X20945491Y-15389960D02*
X20774063Y-15647103D01*
X21202634Y-15399484D02*
X21221682Y-15399484D01*
X21221682Y-15399484D02*
X21240729Y-15409008D01*
X21240729Y-15409008D02*
X21250253Y-15418531D01*
X21250253Y-15418531D02*
X21259777Y-15437579D01*
X21259777Y-15437579D02*
X21269301Y-15475674D01*
X21269301Y-15475674D02*
X21269301Y-15523293D01*
X21269301Y-15523293D02*
X21259777Y-15561388D01*
X21259777Y-15561388D02*
X21250253Y-15580436D01*
X21250253Y-15580436D02*
X21240729Y-15589960D01*
X21240729Y-15589960D02*
X21221682Y-15599484D01*
X21221682Y-15599484D02*
X21202634Y-15599484D01*
X21202634Y-15599484D02*
X21183587Y-15589960D01*
X21183587Y-15589960D02*
X21174063Y-15580436D01*
X21174063Y-15580436D02*
X21164539Y-15561388D01*
X21164539Y-15561388D02*
X21155015Y-15523293D01*
X21155015Y-15523293D02*
X21155015Y-15475674D01*
X21155015Y-15475674D02*
X21164539Y-15437579D01*
X21164539Y-15437579D02*
X21174063Y-15418531D01*
X21174063Y-15418531D02*
X21183587Y-15409008D01*
X21183587Y-15409008D02*
X21202634Y-15399484D01*
X21355015Y-15580436D02*
X21364539Y-15589960D01*
X21364539Y-15589960D02*
X21355015Y-15599484D01*
X21355015Y-15599484D02*
X21345491Y-15589960D01*
X21345491Y-15589960D02*
X21355015Y-15580436D01*
X21355015Y-15580436D02*
X21355015Y-15599484D01*
X21555015Y-15599484D02*
X21440729Y-15599484D01*
X21497872Y-15599484D02*
X21497872Y-15399484D01*
X21497872Y-15399484D02*
X21478825Y-15428055D01*
X21478825Y-15428055D02*
X21459777Y-15447103D01*
X21459777Y-15447103D02*
X21440729Y-15456627D01*
X21631206Y-15418531D02*
X21640729Y-15409008D01*
X21640729Y-15409008D02*
X21659777Y-15399484D01*
X21659777Y-15399484D02*
X21707396Y-15399484D01*
X21707396Y-15399484D02*
X21726444Y-15409008D01*
X21726444Y-15409008D02*
X21735968Y-15418531D01*
X21735968Y-15418531D02*
X21745491Y-15437579D01*
X21745491Y-15437579D02*
X21745491Y-15456627D01*
X21745491Y-15456627D02*
X21735968Y-15485198D01*
X21735968Y-15485198D02*
X21621682Y-15599484D01*
X21621682Y-15599484D02*
X21745491Y-15599484D01*
X21916920Y-15399484D02*
X21878825Y-15399484D01*
X21878825Y-15399484D02*
X21859777Y-15409008D01*
X21859777Y-15409008D02*
X21850253Y-15418531D01*
X21850253Y-15418531D02*
X21831206Y-15447103D01*
X21831206Y-15447103D02*
X21821682Y-15485198D01*
X21821682Y-15485198D02*
X21821682Y-15561388D01*
X21821682Y-15561388D02*
X21831206Y-15580436D01*
X21831206Y-15580436D02*
X21840729Y-15589960D01*
X21840729Y-15589960D02*
X21859777Y-15599484D01*
X21859777Y-15599484D02*
X21897872Y-15599484D01*
X21897872Y-15599484D02*
X21916920Y-15589960D01*
X21916920Y-15589960D02*
X21926444Y-15580436D01*
X21926444Y-15580436D02*
X21935968Y-15561388D01*
X21935968Y-15561388D02*
X21935968Y-15513769D01*
X21935968Y-15513769D02*
X21926444Y-15494722D01*
X21926444Y-15494722D02*
X21916920Y-15485198D01*
X21916920Y-15485198D02*
X21897872Y-15475674D01*
X21897872Y-15475674D02*
X21859777Y-15475674D01*
X21859777Y-15475674D02*
X21840729Y-15485198D01*
X21840729Y-15485198D02*
X21831206Y-15494722D01*
X21831206Y-15494722D02*
X21821682Y-15513769D01*
X22059777Y-15399484D02*
X22078825Y-15399484D01*
X22078825Y-15399484D02*
X22097872Y-15409008D01*
X22097872Y-15409008D02*
X22107396Y-15418531D01*
X22107396Y-15418531D02*
X22116920Y-15437579D01*
X22116920Y-15437579D02*
X22126444Y-15475674D01*
X22126444Y-15475674D02*
X22126444Y-15523293D01*
X22126444Y-15523293D02*
X22116920Y-15561388D01*
X22116920Y-15561388D02*
X22107396Y-15580436D01*
X22107396Y-15580436D02*
X22097872Y-15589960D01*
X22097872Y-15589960D02*
X22078825Y-15599484D01*
X22078825Y-15599484D02*
X22059777Y-15599484D01*
X22059777Y-15599484D02*
X22040729Y-15589960D01*
X22040729Y-15589960D02*
X22031206Y-15580436D01*
X22031206Y-15580436D02*
X22021682Y-15561388D01*
X22021682Y-15561388D02*
X22012158Y-15523293D01*
X22012158Y-15523293D02*
X22012158Y-15475674D01*
X22012158Y-15475674D02*
X22021682Y-15437579D01*
X22021682Y-15437579D02*
X22031206Y-15418531D01*
X22031206Y-15418531D02*
X22040729Y-15409008D01*
X22040729Y-15409008D02*
X22059777Y-15399484D01*
X22202634Y-15399484D02*
X22202634Y-15437579D01*
X22278825Y-15399484D02*
X22278825Y-15437579D01*
X22574063Y-15675674D02*
X22564539Y-15666150D01*
X22564539Y-15666150D02*
X22545491Y-15637579D01*
X22545491Y-15637579D02*
X22535968Y-15618531D01*
X22535968Y-15618531D02*
X22526444Y-15589960D01*
X22526444Y-15589960D02*
X22516920Y-15542341D01*
X22516920Y-15542341D02*
X22516920Y-15504246D01*
X22516920Y-15504246D02*
X22526444Y-15456627D01*
X22526444Y-15456627D02*
X22535968Y-15428055D01*
X22535968Y-15428055D02*
X22545491Y-15409008D01*
X22545491Y-15409008D02*
X22564539Y-15380436D01*
X22564539Y-15380436D02*
X22574063Y-15370912D01*
X22735968Y-15399484D02*
X22697872Y-15399484D01*
X22697872Y-15399484D02*
X22678825Y-15409008D01*
X22678825Y-15409008D02*
X22669301Y-15418531D01*
X22669301Y-15418531D02*
X22650253Y-15447103D01*
X22650253Y-15447103D02*
X22640729Y-15485198D01*
X22640729Y-15485198D02*
X22640729Y-15561388D01*
X22640729Y-15561388D02*
X22650253Y-15580436D01*
X22650253Y-15580436D02*
X22659777Y-15589960D01*
X22659777Y-15589960D02*
X22678825Y-15599484D01*
X22678825Y-15599484D02*
X22716920Y-15599484D01*
X22716920Y-15599484D02*
X22735968Y-15589960D01*
X22735968Y-15589960D02*
X22745491Y-15580436D01*
X22745491Y-15580436D02*
X22755015Y-15561388D01*
X22755015Y-15561388D02*
X22755015Y-15513769D01*
X22755015Y-15513769D02*
X22745491Y-15494722D01*
X22745491Y-15494722D02*
X22735968Y-15485198D01*
X22735968Y-15485198D02*
X22716920Y-15475674D01*
X22716920Y-15475674D02*
X22678825Y-15475674D01*
X22678825Y-15475674D02*
X22659777Y-15485198D01*
X22659777Y-15485198D02*
X22650253Y-15494722D01*
X22650253Y-15494722D02*
X22640729Y-15513769D01*
X22993110Y-15599484D02*
X22993110Y-15399484D01*
X23078825Y-15599484D02*
X23078825Y-15494722D01*
X23078825Y-15494722D02*
X23069301Y-15475674D01*
X23069301Y-15475674D02*
X23050253Y-15466150D01*
X23050253Y-15466150D02*
X23021682Y-15466150D01*
X23021682Y-15466150D02*
X23002634Y-15475674D01*
X23002634Y-15475674D02*
X22993110Y-15485198D01*
X23202634Y-15599484D02*
X23183587Y-15589960D01*
X23183587Y-15589960D02*
X23174063Y-15580436D01*
X23174063Y-15580436D02*
X23164539Y-15561388D01*
X23164539Y-15561388D02*
X23164539Y-15504246D01*
X23164539Y-15504246D02*
X23174063Y-15485198D01*
X23174063Y-15485198D02*
X23183587Y-15475674D01*
X23183587Y-15475674D02*
X23202634Y-15466150D01*
X23202634Y-15466150D02*
X23231206Y-15466150D01*
X23231206Y-15466150D02*
X23250253Y-15475674D01*
X23250253Y-15475674D02*
X23259777Y-15485198D01*
X23259777Y-15485198D02*
X23269301Y-15504246D01*
X23269301Y-15504246D02*
X23269301Y-15561388D01*
X23269301Y-15561388D02*
X23259777Y-15580436D01*
X23259777Y-15580436D02*
X23250253Y-15589960D01*
X23250253Y-15589960D02*
X23231206Y-15599484D01*
X23231206Y-15599484D02*
X23202634Y-15599484D01*
X23383587Y-15599484D02*
X23364539Y-15589960D01*
X23364539Y-15589960D02*
X23355015Y-15570912D01*
X23355015Y-15570912D02*
X23355015Y-15399484D01*
X23535968Y-15589960D02*
X23516920Y-15599484D01*
X23516920Y-15599484D02*
X23478825Y-15599484D01*
X23478825Y-15599484D02*
X23459777Y-15589960D01*
X23459777Y-15589960D02*
X23450253Y-15570912D01*
X23450253Y-15570912D02*
X23450253Y-15494722D01*
X23450253Y-15494722D02*
X23459777Y-15475674D01*
X23459777Y-15475674D02*
X23478825Y-15466150D01*
X23478825Y-15466150D02*
X23516920Y-15466150D01*
X23516920Y-15466150D02*
X23535968Y-15475674D01*
X23535968Y-15475674D02*
X23545491Y-15494722D01*
X23545491Y-15494722D02*
X23545491Y-15513769D01*
X23545491Y-15513769D02*
X23450253Y-15532817D01*
X23621682Y-15589960D02*
X23640730Y-15599484D01*
X23640730Y-15599484D02*
X23678825Y-15599484D01*
X23678825Y-15599484D02*
X23697872Y-15589960D01*
X23697872Y-15589960D02*
X23707396Y-15570912D01*
X23707396Y-15570912D02*
X23707396Y-15561388D01*
X23707396Y-15561388D02*
X23697872Y-15542341D01*
X23697872Y-15542341D02*
X23678825Y-15532817D01*
X23678825Y-15532817D02*
X23650253Y-15532817D01*
X23650253Y-15532817D02*
X23631206Y-15523293D01*
X23631206Y-15523293D02*
X23621682Y-15504246D01*
X23621682Y-15504246D02*
X23621682Y-15494722D01*
X23621682Y-15494722D02*
X23631206Y-15475674D01*
X23631206Y-15475674D02*
X23650253Y-15466150D01*
X23650253Y-15466150D02*
X23678825Y-15466150D01*
X23678825Y-15466150D02*
X23697872Y-15475674D01*
X23774063Y-15675674D02*
X23783587Y-15666150D01*
X23783587Y-15666150D02*
X23802634Y-15637579D01*
X23802634Y-15637579D02*
X23812158Y-15618531D01*
X23812158Y-15618531D02*
X23821682Y-15589960D01*
X23821682Y-15589960D02*
X23831206Y-15542341D01*
X23831206Y-15542341D02*
X23831206Y-15504246D01*
X23831206Y-15504246D02*
X23821682Y-15456627D01*
X23821682Y-15456627D02*
X23812158Y-15428055D01*
X23812158Y-15428055D02*
X23802634Y-15409008D01*
X23802634Y-15409008D02*
X23783587Y-15380436D01*
X23783587Y-15380436D02*
X23774063Y-15370912D01*
X24135968Y-15675674D02*
X24126444Y-15666150D01*
X24126444Y-15666150D02*
X24107396Y-15637579D01*
X24107396Y-15637579D02*
X24097872Y-15618531D01*
X24097872Y-15618531D02*
X24088349Y-15589960D01*
X24088349Y-15589960D02*
X24078825Y-15542341D01*
X24078825Y-15542341D02*
X24078825Y-15504246D01*
X24078825Y-15504246D02*
X24088349Y-15456627D01*
X24088349Y-15456627D02*
X24097872Y-15428055D01*
X24097872Y-15428055D02*
X24107396Y-15409008D01*
X24107396Y-15409008D02*
X24126444Y-15380436D01*
X24126444Y-15380436D02*
X24135968Y-15370912D01*
X24212158Y-15466150D02*
X24212158Y-15599484D01*
X24212158Y-15485198D02*
X24221682Y-15475674D01*
X24221682Y-15475674D02*
X24240730Y-15466150D01*
X24240730Y-15466150D02*
X24269301Y-15466150D01*
X24269301Y-15466150D02*
X24288349Y-15475674D01*
X24288349Y-15475674D02*
X24297872Y-15494722D01*
X24297872Y-15494722D02*
X24297872Y-15599484D01*
X24421682Y-15599484D02*
X24402634Y-15589960D01*
X24402634Y-15589960D02*
X24393111Y-15580436D01*
X24393111Y-15580436D02*
X24383587Y-15561388D01*
X24383587Y-15561388D02*
X24383587Y-15504246D01*
X24383587Y-15504246D02*
X24393111Y-15485198D01*
X24393111Y-15485198D02*
X24402634Y-15475674D01*
X24402634Y-15475674D02*
X24421682Y-15466150D01*
X24421682Y-15466150D02*
X24450253Y-15466150D01*
X24450253Y-15466150D02*
X24469301Y-15475674D01*
X24469301Y-15475674D02*
X24478825Y-15485198D01*
X24478825Y-15485198D02*
X24488349Y-15504246D01*
X24488349Y-15504246D02*
X24488349Y-15561388D01*
X24488349Y-15561388D02*
X24478825Y-15580436D01*
X24478825Y-15580436D02*
X24469301Y-15589960D01*
X24469301Y-15589960D02*
X24450253Y-15599484D01*
X24450253Y-15599484D02*
X24421682Y-15599484D01*
X24545492Y-15466150D02*
X24621682Y-15466150D01*
X24574063Y-15399484D02*
X24574063Y-15570912D01*
X24574063Y-15570912D02*
X24583587Y-15589960D01*
X24583587Y-15589960D02*
X24602634Y-15599484D01*
X24602634Y-15599484D02*
X24621682Y-15599484D01*
X24840730Y-15466150D02*
X24840730Y-15666150D01*
X24840730Y-15475674D02*
X24859777Y-15466150D01*
X24859777Y-15466150D02*
X24897873Y-15466150D01*
X24897873Y-15466150D02*
X24916920Y-15475674D01*
X24916920Y-15475674D02*
X24926444Y-15485198D01*
X24926444Y-15485198D02*
X24935968Y-15504246D01*
X24935968Y-15504246D02*
X24935968Y-15561388D01*
X24935968Y-15561388D02*
X24926444Y-15580436D01*
X24926444Y-15580436D02*
X24916920Y-15589960D01*
X24916920Y-15589960D02*
X24897873Y-15599484D01*
X24897873Y-15599484D02*
X24859777Y-15599484D01*
X24859777Y-15599484D02*
X24840730Y-15589960D01*
X25050253Y-15599484D02*
X25031206Y-15589960D01*
X25031206Y-15589960D02*
X25021682Y-15570912D01*
X25021682Y-15570912D02*
X25021682Y-15399484D01*
X25212158Y-15599484D02*
X25212158Y-15494722D01*
X25212158Y-15494722D02*
X25202634Y-15475674D01*
X25202634Y-15475674D02*
X25183587Y-15466150D01*
X25183587Y-15466150D02*
X25145492Y-15466150D01*
X25145492Y-15466150D02*
X25126444Y-15475674D01*
X25212158Y-15589960D02*
X25193111Y-15599484D01*
X25193111Y-15599484D02*
X25145492Y-15599484D01*
X25145492Y-15599484D02*
X25126444Y-15589960D01*
X25126444Y-15589960D02*
X25116920Y-15570912D01*
X25116920Y-15570912D02*
X25116920Y-15551865D01*
X25116920Y-15551865D02*
X25126444Y-15532817D01*
X25126444Y-15532817D02*
X25145492Y-15523293D01*
X25145492Y-15523293D02*
X25193111Y-15523293D01*
X25193111Y-15523293D02*
X25212158Y-15513769D01*
X25278825Y-15466150D02*
X25355015Y-15466150D01*
X25307396Y-15399484D02*
X25307396Y-15570912D01*
X25307396Y-15570912D02*
X25316920Y-15589960D01*
X25316920Y-15589960D02*
X25335968Y-15599484D01*
X25335968Y-15599484D02*
X25355015Y-15599484D01*
X25497873Y-15589960D02*
X25478825Y-15599484D01*
X25478825Y-15599484D02*
X25440730Y-15599484D01*
X25440730Y-15599484D02*
X25421682Y-15589960D01*
X25421682Y-15589960D02*
X25412158Y-15570912D01*
X25412158Y-15570912D02*
X25412158Y-15494722D01*
X25412158Y-15494722D02*
X25421682Y-15475674D01*
X25421682Y-15475674D02*
X25440730Y-15466150D01*
X25440730Y-15466150D02*
X25478825Y-15466150D01*
X25478825Y-15466150D02*
X25497873Y-15475674D01*
X25497873Y-15475674D02*
X25507396Y-15494722D01*
X25507396Y-15494722D02*
X25507396Y-15513769D01*
X25507396Y-15513769D02*
X25412158Y-15532817D01*
X25678825Y-15599484D02*
X25678825Y-15399484D01*
X25678825Y-15589960D02*
X25659777Y-15599484D01*
X25659777Y-15599484D02*
X25621682Y-15599484D01*
X25621682Y-15599484D02*
X25602634Y-15589960D01*
X25602634Y-15589960D02*
X25593111Y-15580436D01*
X25593111Y-15580436D02*
X25583587Y-15561388D01*
X25583587Y-15561388D02*
X25583587Y-15504246D01*
X25583587Y-15504246D02*
X25593111Y-15485198D01*
X25593111Y-15485198D02*
X25602634Y-15475674D01*
X25602634Y-15475674D02*
X25621682Y-15466150D01*
X25621682Y-15466150D02*
X25659777Y-15466150D01*
X25659777Y-15466150D02*
X25678825Y-15475674D01*
X25755015Y-15675674D02*
X25764539Y-15666150D01*
X25764539Y-15666150D02*
X25783587Y-15637579D01*
X25783587Y-15637579D02*
X25793111Y-15618531D01*
X25793111Y-15618531D02*
X25802634Y-15589960D01*
X25802634Y-15589960D02*
X25812158Y-15542341D01*
X25812158Y-15542341D02*
X25812158Y-15504246D01*
X25812158Y-15504246D02*
X25802634Y-15456627D01*
X25802634Y-15456627D02*
X25793111Y-15428055D01*
X25793111Y-15428055D02*
X25783587Y-15409008D01*
X25783587Y-15409008D02*
X25764539Y-15380436D01*
X25764539Y-15380436D02*
X25755015Y-15370912D01*
M02*
