G04 #@! TF.GenerationSoftware,KiCad,Pcbnew,7.0.5*
G04 #@! TF.CreationDate,2023-09-27T13:54:17+07:00*
G04 #@! TF.ProjectId,sumoRobotPCB,73756d6f-526f-4626-9f74-5043422e6b69,rev?*
G04 #@! TF.SameCoordinates,Original*
G04 #@! TF.FileFunction,Legend,Top*
G04 #@! TF.FilePolarity,Positive*
%FSLAX46Y46*%
G04 Gerber Fmt 4.6, Leading zero omitted, Abs format (unit mm)*
G04 Created by KiCad (PCBNEW 7.0.5) date 2023-09-27 13:54:17*
%MOMM*%
%LPD*%
G01*
G04 APERTURE LIST*
G04 Aperture macros list*
%AMRoundRect*
0 Rectangle with rounded corners*
0 $1 Rounding radius*
0 $2 $3 $4 $5 $6 $7 $8 $9 X,Y pos of 4 corners*
0 Add a 4 corners polygon primitive as box body*
4,1,4,$2,$3,$4,$5,$6,$7,$8,$9,$2,$3,0*
0 Add four circle primitives for the rounded corners*
1,1,$1+$1,$2,$3*
1,1,$1+$1,$4,$5*
1,1,$1+$1,$6,$7*
1,1,$1+$1,$8,$9*
0 Add four rect primitives between the rounded corners*
20,1,$1+$1,$2,$3,$4,$5,0*
20,1,$1+$1,$4,$5,$6,$7,0*
20,1,$1+$1,$6,$7,$8,$9,0*
20,1,$1+$1,$8,$9,$2,$3,0*%
G04 Aperture macros list end*
%ADD10C,0.150000*%
%ADD11C,0.075000*%
%ADD12C,0.120000*%
%ADD13RoundRect,0.150000X-0.150000X-0.700000X0.150000X-0.700000X0.150000X0.700000X-0.150000X0.700000X0*%
%ADD14RoundRect,0.250000X-0.250000X-1.150000X0.250000X-1.150000X0.250000X1.150000X-0.250000X1.150000X0*%
%ADD15RoundRect,0.250000X1.500000X0.650000X-1.500000X0.650000X-1.500000X-0.650000X1.500000X-0.650000X0*%
%ADD16RoundRect,0.250000X-1.025000X0.875000X-1.025000X-0.875000X1.025000X-0.875000X1.025000X0.875000X0*%
%ADD17RoundRect,0.250000X-0.650000X1.500000X-0.650000X-1.500000X0.650000X-1.500000X0.650000X1.500000X0*%
%ADD18RoundRect,0.250000X-0.450000X0.325000X-0.450000X-0.325000X0.450000X-0.325000X0.450000X0.325000X0*%
%ADD19RoundRect,0.250001X-1.099999X-1.099999X1.099999X-1.099999X1.099999X1.099999X-1.099999X1.099999X0*%
%ADD20C,2.700000*%
%ADD21R,2.900000X5.400000*%
%ADD22C,3.200000*%
%ADD23O,1.727200X1.727200*%
%ADD24R,1.727200X1.727200*%
%ADD25RoundRect,0.250000X0.300000X-2.050000X0.300000X2.050000X-0.300000X2.050000X-0.300000X-2.050000X0*%
%ADD26RoundRect,0.250002X5.149998X-4.449998X5.149998X4.449998X-5.149998X4.449998X-5.149998X-4.449998X0*%
%ADD27RoundRect,0.250000X-1.950000X-1.000000X1.950000X-1.000000X1.950000X1.000000X-1.950000X1.000000X0*%
%ADD28RoundRect,0.250000X0.450000X-0.350000X0.450000X0.350000X-0.450000X0.350000X-0.450000X-0.350000X0*%
G04 APERTURE END LIST*
D10*
X233220190Y-107982819D02*
X232744000Y-107982819D01*
X232744000Y-107982819D02*
X232744000Y-106982819D01*
X233505905Y-107935200D02*
X233648762Y-107982819D01*
X233648762Y-107982819D02*
X233886857Y-107982819D01*
X233886857Y-107982819D02*
X233982095Y-107935200D01*
X233982095Y-107935200D02*
X234029714Y-107887580D01*
X234029714Y-107887580D02*
X234077333Y-107792342D01*
X234077333Y-107792342D02*
X234077333Y-107697104D01*
X234077333Y-107697104D02*
X234029714Y-107601866D01*
X234029714Y-107601866D02*
X233982095Y-107554247D01*
X233982095Y-107554247D02*
X233886857Y-107506628D01*
X233886857Y-107506628D02*
X233696381Y-107459009D01*
X233696381Y-107459009D02*
X233601143Y-107411390D01*
X233601143Y-107411390D02*
X233553524Y-107363771D01*
X233553524Y-107363771D02*
X233505905Y-107268533D01*
X233505905Y-107268533D02*
X233505905Y-107173295D01*
X233505905Y-107173295D02*
X233553524Y-107078057D01*
X233553524Y-107078057D02*
X233601143Y-107030438D01*
X233601143Y-107030438D02*
X233696381Y-106982819D01*
X233696381Y-106982819D02*
X233934476Y-106982819D01*
X233934476Y-106982819D02*
X234077333Y-107030438D01*
X234267810Y-108078057D02*
X235029714Y-108078057D01*
X235601143Y-107459009D02*
X235744000Y-107506628D01*
X235744000Y-107506628D02*
X235791619Y-107554247D01*
X235791619Y-107554247D02*
X235839238Y-107649485D01*
X235839238Y-107649485D02*
X235839238Y-107792342D01*
X235839238Y-107792342D02*
X235791619Y-107887580D01*
X235791619Y-107887580D02*
X235744000Y-107935200D01*
X235744000Y-107935200D02*
X235648762Y-107982819D01*
X235648762Y-107982819D02*
X235267810Y-107982819D01*
X235267810Y-107982819D02*
X235267810Y-106982819D01*
X235267810Y-106982819D02*
X235601143Y-106982819D01*
X235601143Y-106982819D02*
X235696381Y-107030438D01*
X235696381Y-107030438D02*
X235744000Y-107078057D01*
X235744000Y-107078057D02*
X235791619Y-107173295D01*
X235791619Y-107173295D02*
X235791619Y-107268533D01*
X235791619Y-107268533D02*
X235744000Y-107363771D01*
X235744000Y-107363771D02*
X235696381Y-107411390D01*
X235696381Y-107411390D02*
X235601143Y-107459009D01*
X235601143Y-107459009D02*
X235267810Y-107459009D01*
X236839238Y-107982819D02*
X236505905Y-107506628D01*
X236267810Y-107982819D02*
X236267810Y-106982819D01*
X236267810Y-106982819D02*
X236648762Y-106982819D01*
X236648762Y-106982819D02*
X236744000Y-107030438D01*
X236744000Y-107030438D02*
X236791619Y-107078057D01*
X236791619Y-107078057D02*
X236839238Y-107173295D01*
X236839238Y-107173295D02*
X236839238Y-107316152D01*
X236839238Y-107316152D02*
X236791619Y-107411390D01*
X236791619Y-107411390D02*
X236744000Y-107459009D01*
X236744000Y-107459009D02*
X236648762Y-107506628D01*
X236648762Y-107506628D02*
X236267810Y-107506628D01*
X237744000Y-106982819D02*
X237267810Y-106982819D01*
X237267810Y-106982819D02*
X237220191Y-107459009D01*
X237220191Y-107459009D02*
X237267810Y-107411390D01*
X237267810Y-107411390D02*
X237363048Y-107363771D01*
X237363048Y-107363771D02*
X237601143Y-107363771D01*
X237601143Y-107363771D02*
X237696381Y-107411390D01*
X237696381Y-107411390D02*
X237744000Y-107459009D01*
X237744000Y-107459009D02*
X237791619Y-107554247D01*
X237791619Y-107554247D02*
X237791619Y-107792342D01*
X237791619Y-107792342D02*
X237744000Y-107887580D01*
X237744000Y-107887580D02*
X237696381Y-107935200D01*
X237696381Y-107935200D02*
X237601143Y-107982819D01*
X237601143Y-107982819D02*
X237363048Y-107982819D01*
X237363048Y-107982819D02*
X237267810Y-107935200D01*
X237267810Y-107935200D02*
X237220191Y-107887580D01*
X233315428Y-123282819D02*
X232839238Y-123282819D01*
X232839238Y-123282819D02*
X232839238Y-122282819D01*
X233601143Y-123235200D02*
X233744000Y-123282819D01*
X233744000Y-123282819D02*
X233982095Y-123282819D01*
X233982095Y-123282819D02*
X234077333Y-123235200D01*
X234077333Y-123235200D02*
X234124952Y-123187580D01*
X234124952Y-123187580D02*
X234172571Y-123092342D01*
X234172571Y-123092342D02*
X234172571Y-122997104D01*
X234172571Y-122997104D02*
X234124952Y-122901866D01*
X234124952Y-122901866D02*
X234077333Y-122854247D01*
X234077333Y-122854247D02*
X233982095Y-122806628D01*
X233982095Y-122806628D02*
X233791619Y-122759009D01*
X233791619Y-122759009D02*
X233696381Y-122711390D01*
X233696381Y-122711390D02*
X233648762Y-122663771D01*
X233648762Y-122663771D02*
X233601143Y-122568533D01*
X233601143Y-122568533D02*
X233601143Y-122473295D01*
X233601143Y-122473295D02*
X233648762Y-122378057D01*
X233648762Y-122378057D02*
X233696381Y-122330438D01*
X233696381Y-122330438D02*
X233791619Y-122282819D01*
X233791619Y-122282819D02*
X234029714Y-122282819D01*
X234029714Y-122282819D02*
X234172571Y-122330438D01*
X234363048Y-123378057D02*
X235124952Y-123378057D01*
X235934476Y-123282819D02*
X235601143Y-122806628D01*
X235363048Y-123282819D02*
X235363048Y-122282819D01*
X235363048Y-122282819D02*
X235744000Y-122282819D01*
X235744000Y-122282819D02*
X235839238Y-122330438D01*
X235839238Y-122330438D02*
X235886857Y-122378057D01*
X235886857Y-122378057D02*
X235934476Y-122473295D01*
X235934476Y-122473295D02*
X235934476Y-122616152D01*
X235934476Y-122616152D02*
X235886857Y-122711390D01*
X235886857Y-122711390D02*
X235839238Y-122759009D01*
X235839238Y-122759009D02*
X235744000Y-122806628D01*
X235744000Y-122806628D02*
X235363048Y-122806628D01*
X236839238Y-123282819D02*
X236363048Y-123282819D01*
X236363048Y-123282819D02*
X236363048Y-122282819D01*
X237077334Y-122282819D02*
X237744000Y-122282819D01*
X237744000Y-122282819D02*
X237315429Y-123282819D01*
X208102095Y-100380819D02*
X208102095Y-99380819D01*
X209149713Y-100380819D02*
X208816380Y-99904628D01*
X208578285Y-100380819D02*
X208578285Y-99380819D01*
X208578285Y-99380819D02*
X208959237Y-99380819D01*
X208959237Y-99380819D02*
X209054475Y-99428438D01*
X209054475Y-99428438D02*
X209102094Y-99476057D01*
X209102094Y-99476057D02*
X209149713Y-99571295D01*
X209149713Y-99571295D02*
X209149713Y-99714152D01*
X209149713Y-99714152D02*
X209102094Y-99809390D01*
X209102094Y-99809390D02*
X209054475Y-99857009D01*
X209054475Y-99857009D02*
X208959237Y-99904628D01*
X208959237Y-99904628D02*
X208578285Y-99904628D01*
X209340190Y-100476057D02*
X210102094Y-100476057D01*
X210673523Y-99857009D02*
X210816380Y-99904628D01*
X210816380Y-99904628D02*
X210863999Y-99952247D01*
X210863999Y-99952247D02*
X210911618Y-100047485D01*
X210911618Y-100047485D02*
X210911618Y-100190342D01*
X210911618Y-100190342D02*
X210863999Y-100285580D01*
X210863999Y-100285580D02*
X210816380Y-100333200D01*
X210816380Y-100333200D02*
X210721142Y-100380819D01*
X210721142Y-100380819D02*
X210340190Y-100380819D01*
X210340190Y-100380819D02*
X210340190Y-99380819D01*
X210340190Y-99380819D02*
X210673523Y-99380819D01*
X210673523Y-99380819D02*
X210768761Y-99428438D01*
X210768761Y-99428438D02*
X210816380Y-99476057D01*
X210816380Y-99476057D02*
X210863999Y-99571295D01*
X210863999Y-99571295D02*
X210863999Y-99666533D01*
X210863999Y-99666533D02*
X210816380Y-99761771D01*
X210816380Y-99761771D02*
X210768761Y-99809390D01*
X210768761Y-99809390D02*
X210673523Y-99857009D01*
X210673523Y-99857009D02*
X210340190Y-99857009D01*
X211816380Y-100380819D02*
X211340190Y-100380819D01*
X211340190Y-100380819D02*
X211340190Y-99380819D01*
X212578285Y-99714152D02*
X212578285Y-100380819D01*
X212340190Y-99333200D02*
X212102095Y-100047485D01*
X212102095Y-100047485D02*
X212721142Y-100047485D01*
X248071905Y-101874819D02*
X248071905Y-100874819D01*
X248071905Y-100874819D02*
X248310000Y-100874819D01*
X248310000Y-100874819D02*
X248452857Y-100922438D01*
X248452857Y-100922438D02*
X248548095Y-101017676D01*
X248548095Y-101017676D02*
X248595714Y-101112914D01*
X248595714Y-101112914D02*
X248643333Y-101303390D01*
X248643333Y-101303390D02*
X248643333Y-101446247D01*
X248643333Y-101446247D02*
X248595714Y-101636723D01*
X248595714Y-101636723D02*
X248548095Y-101731961D01*
X248548095Y-101731961D02*
X248452857Y-101827200D01*
X248452857Y-101827200D02*
X248310000Y-101874819D01*
X248310000Y-101874819D02*
X248071905Y-101874819D01*
X249595714Y-101874819D02*
X249024286Y-101874819D01*
X249310000Y-101874819D02*
X249310000Y-100874819D01*
X249310000Y-100874819D02*
X249214762Y-101017676D01*
X249214762Y-101017676D02*
X249119524Y-101112914D01*
X249119524Y-101112914D02*
X249024286Y-101160533D01*
X221608333Y-132114819D02*
X221132143Y-132114819D01*
X221132143Y-132114819D02*
X221132143Y-131114819D01*
X222513095Y-132019580D02*
X222465476Y-132067200D01*
X222465476Y-132067200D02*
X222322619Y-132114819D01*
X222322619Y-132114819D02*
X222227381Y-132114819D01*
X222227381Y-132114819D02*
X222084524Y-132067200D01*
X222084524Y-132067200D02*
X221989286Y-131971961D01*
X221989286Y-131971961D02*
X221941667Y-131876723D01*
X221941667Y-131876723D02*
X221894048Y-131686247D01*
X221894048Y-131686247D02*
X221894048Y-131543390D01*
X221894048Y-131543390D02*
X221941667Y-131352914D01*
X221941667Y-131352914D02*
X221989286Y-131257676D01*
X221989286Y-131257676D02*
X222084524Y-131162438D01*
X222084524Y-131162438D02*
X222227381Y-131114819D01*
X222227381Y-131114819D02*
X222322619Y-131114819D01*
X222322619Y-131114819D02*
X222465476Y-131162438D01*
X222465476Y-131162438D02*
X222513095Y-131210057D01*
X222941667Y-132114819D02*
X222941667Y-131114819D01*
X222941667Y-131114819D02*
X223179762Y-131114819D01*
X223179762Y-131114819D02*
X223322619Y-131162438D01*
X223322619Y-131162438D02*
X223417857Y-131257676D01*
X223417857Y-131257676D02*
X223465476Y-131352914D01*
X223465476Y-131352914D02*
X223513095Y-131543390D01*
X223513095Y-131543390D02*
X223513095Y-131686247D01*
X223513095Y-131686247D02*
X223465476Y-131876723D01*
X223465476Y-131876723D02*
X223417857Y-131971961D01*
X223417857Y-131971961D02*
X223322619Y-132067200D01*
X223322619Y-132067200D02*
X223179762Y-132114819D01*
X223179762Y-132114819D02*
X222941667Y-132114819D01*
X224465476Y-132114819D02*
X223894048Y-132114819D01*
X224179762Y-132114819D02*
X224179762Y-131114819D01*
X224179762Y-131114819D02*
X224084524Y-131257676D01*
X224084524Y-131257676D02*
X223989286Y-131352914D01*
X223989286Y-131352914D02*
X223894048Y-131400533D01*
X208078286Y-123330819D02*
X208078286Y-122330819D01*
X209125904Y-123330819D02*
X208792571Y-122854628D01*
X208554476Y-123330819D02*
X208554476Y-122330819D01*
X208554476Y-122330819D02*
X208935428Y-122330819D01*
X208935428Y-122330819D02*
X209030666Y-122378438D01*
X209030666Y-122378438D02*
X209078285Y-122426057D01*
X209078285Y-122426057D02*
X209125904Y-122521295D01*
X209125904Y-122521295D02*
X209125904Y-122664152D01*
X209125904Y-122664152D02*
X209078285Y-122759390D01*
X209078285Y-122759390D02*
X209030666Y-122807009D01*
X209030666Y-122807009D02*
X208935428Y-122854628D01*
X208935428Y-122854628D02*
X208554476Y-122854628D01*
X209316381Y-123426057D02*
X210078285Y-123426057D01*
X210649714Y-122807009D02*
X210316381Y-122807009D01*
X210316381Y-123330819D02*
X210316381Y-122330819D01*
X210316381Y-122330819D02*
X210792571Y-122330819D01*
X211744952Y-123330819D02*
X211411619Y-122854628D01*
X211173524Y-123330819D02*
X211173524Y-122330819D01*
X211173524Y-122330819D02*
X211554476Y-122330819D01*
X211554476Y-122330819D02*
X211649714Y-122378438D01*
X211649714Y-122378438D02*
X211697333Y-122426057D01*
X211697333Y-122426057D02*
X211744952Y-122521295D01*
X211744952Y-122521295D02*
X211744952Y-122664152D01*
X211744952Y-122664152D02*
X211697333Y-122759390D01*
X211697333Y-122759390D02*
X211649714Y-122807009D01*
X211649714Y-122807009D02*
X211554476Y-122854628D01*
X211554476Y-122854628D02*
X211173524Y-122854628D01*
X212125905Y-122426057D02*
X212173524Y-122378438D01*
X212173524Y-122378438D02*
X212268762Y-122330819D01*
X212268762Y-122330819D02*
X212506857Y-122330819D01*
X212506857Y-122330819D02*
X212602095Y-122378438D01*
X212602095Y-122378438D02*
X212649714Y-122426057D01*
X212649714Y-122426057D02*
X212697333Y-122521295D01*
X212697333Y-122521295D02*
X212697333Y-122616533D01*
X212697333Y-122616533D02*
X212649714Y-122759390D01*
X212649714Y-122759390D02*
X212078286Y-123330819D01*
X212078286Y-123330819D02*
X212697333Y-123330819D01*
X196836428Y-126838819D02*
X196503095Y-126362628D01*
X196265000Y-126838819D02*
X196265000Y-125838819D01*
X196265000Y-125838819D02*
X196645952Y-125838819D01*
X196645952Y-125838819D02*
X196741190Y-125886438D01*
X196741190Y-125886438D02*
X196788809Y-125934057D01*
X196788809Y-125934057D02*
X196836428Y-126029295D01*
X196836428Y-126029295D02*
X196836428Y-126172152D01*
X196836428Y-126172152D02*
X196788809Y-126267390D01*
X196788809Y-126267390D02*
X196741190Y-126315009D01*
X196741190Y-126315009D02*
X196645952Y-126362628D01*
X196645952Y-126362628D02*
X196265000Y-126362628D01*
X197265000Y-126315009D02*
X197598333Y-126315009D01*
X197741190Y-126838819D02*
X197265000Y-126838819D01*
X197265000Y-126838819D02*
X197265000Y-125838819D01*
X197265000Y-125838819D02*
X197741190Y-125838819D01*
X198122143Y-126791200D02*
X198265000Y-126838819D01*
X198265000Y-126838819D02*
X198503095Y-126838819D01*
X198503095Y-126838819D02*
X198598333Y-126791200D01*
X198598333Y-126791200D02*
X198645952Y-126743580D01*
X198645952Y-126743580D02*
X198693571Y-126648342D01*
X198693571Y-126648342D02*
X198693571Y-126553104D01*
X198693571Y-126553104D02*
X198645952Y-126457866D01*
X198645952Y-126457866D02*
X198598333Y-126410247D01*
X198598333Y-126410247D02*
X198503095Y-126362628D01*
X198503095Y-126362628D02*
X198312619Y-126315009D01*
X198312619Y-126315009D02*
X198217381Y-126267390D01*
X198217381Y-126267390D02*
X198169762Y-126219771D01*
X198169762Y-126219771D02*
X198122143Y-126124533D01*
X198122143Y-126124533D02*
X198122143Y-126029295D01*
X198122143Y-126029295D02*
X198169762Y-125934057D01*
X198169762Y-125934057D02*
X198217381Y-125886438D01*
X198217381Y-125886438D02*
X198312619Y-125838819D01*
X198312619Y-125838819D02*
X198550714Y-125838819D01*
X198550714Y-125838819D02*
X198693571Y-125886438D01*
X199122143Y-126315009D02*
X199455476Y-126315009D01*
X199598333Y-126838819D02*
X199122143Y-126838819D01*
X199122143Y-126838819D02*
X199122143Y-125838819D01*
X199122143Y-125838819D02*
X199598333Y-125838819D01*
X199884048Y-125838819D02*
X200455476Y-125838819D01*
X200169762Y-126838819D02*
X200169762Y-125838819D01*
X201312619Y-126838819D02*
X200741191Y-126838819D01*
X201026905Y-126838819D02*
X201026905Y-125838819D01*
X201026905Y-125838819D02*
X200931667Y-125981676D01*
X200931667Y-125981676D02*
X200836429Y-126076914D01*
X200836429Y-126076914D02*
X200741191Y-126124533D01*
X269209580Y-133618666D02*
X269257200Y-133666285D01*
X269257200Y-133666285D02*
X269304819Y-133809142D01*
X269304819Y-133809142D02*
X269304819Y-133904380D01*
X269304819Y-133904380D02*
X269257200Y-134047237D01*
X269257200Y-134047237D02*
X269161961Y-134142475D01*
X269161961Y-134142475D02*
X269066723Y-134190094D01*
X269066723Y-134190094D02*
X268876247Y-134237713D01*
X268876247Y-134237713D02*
X268733390Y-134237713D01*
X268733390Y-134237713D02*
X268542914Y-134190094D01*
X268542914Y-134190094D02*
X268447676Y-134142475D01*
X268447676Y-134142475D02*
X268352438Y-134047237D01*
X268352438Y-134047237D02*
X268304819Y-133904380D01*
X268304819Y-133904380D02*
X268304819Y-133809142D01*
X268304819Y-133809142D02*
X268352438Y-133666285D01*
X268352438Y-133666285D02*
X268400057Y-133618666D01*
X268400057Y-133237713D02*
X268352438Y-133190094D01*
X268352438Y-133190094D02*
X268304819Y-133094856D01*
X268304819Y-133094856D02*
X268304819Y-132856761D01*
X268304819Y-132856761D02*
X268352438Y-132761523D01*
X268352438Y-132761523D02*
X268400057Y-132713904D01*
X268400057Y-132713904D02*
X268495295Y-132666285D01*
X268495295Y-132666285D02*
X268590533Y-132666285D01*
X268590533Y-132666285D02*
X268733390Y-132713904D01*
X268733390Y-132713904D02*
X269304819Y-133285332D01*
X269304819Y-133285332D02*
X269304819Y-132666285D01*
X263264819Y-134192094D02*
X262264819Y-134192094D01*
X262264819Y-134192094D02*
X262264819Y-133953999D01*
X262264819Y-133953999D02*
X262312438Y-133811142D01*
X262312438Y-133811142D02*
X262407676Y-133715904D01*
X262407676Y-133715904D02*
X262502914Y-133668285D01*
X262502914Y-133668285D02*
X262693390Y-133620666D01*
X262693390Y-133620666D02*
X262836247Y-133620666D01*
X262836247Y-133620666D02*
X263026723Y-133668285D01*
X263026723Y-133668285D02*
X263121961Y-133715904D01*
X263121961Y-133715904D02*
X263217200Y-133811142D01*
X263217200Y-133811142D02*
X263264819Y-133953999D01*
X263264819Y-133953999D02*
X263264819Y-134192094D01*
X262360057Y-133239713D02*
X262312438Y-133192094D01*
X262312438Y-133192094D02*
X262264819Y-133096856D01*
X262264819Y-133096856D02*
X262264819Y-132858761D01*
X262264819Y-132858761D02*
X262312438Y-132763523D01*
X262312438Y-132763523D02*
X262360057Y-132715904D01*
X262360057Y-132715904D02*
X262455295Y-132668285D01*
X262455295Y-132668285D02*
X262550533Y-132668285D01*
X262550533Y-132668285D02*
X262693390Y-132715904D01*
X262693390Y-132715904D02*
X263264819Y-133287332D01*
X263264819Y-133287332D02*
X263264819Y-132668285D01*
X220178856Y-100242819D02*
X219702666Y-100242819D01*
X219702666Y-100242819D02*
X219702666Y-99242819D01*
X220464571Y-100195200D02*
X220607428Y-100242819D01*
X220607428Y-100242819D02*
X220845523Y-100242819D01*
X220845523Y-100242819D02*
X220940761Y-100195200D01*
X220940761Y-100195200D02*
X220988380Y-100147580D01*
X220988380Y-100147580D02*
X221035999Y-100052342D01*
X221035999Y-100052342D02*
X221035999Y-99957104D01*
X221035999Y-99957104D02*
X220988380Y-99861866D01*
X220988380Y-99861866D02*
X220940761Y-99814247D01*
X220940761Y-99814247D02*
X220845523Y-99766628D01*
X220845523Y-99766628D02*
X220655047Y-99719009D01*
X220655047Y-99719009D02*
X220559809Y-99671390D01*
X220559809Y-99671390D02*
X220512190Y-99623771D01*
X220512190Y-99623771D02*
X220464571Y-99528533D01*
X220464571Y-99528533D02*
X220464571Y-99433295D01*
X220464571Y-99433295D02*
X220512190Y-99338057D01*
X220512190Y-99338057D02*
X220559809Y-99290438D01*
X220559809Y-99290438D02*
X220655047Y-99242819D01*
X220655047Y-99242819D02*
X220893142Y-99242819D01*
X220893142Y-99242819D02*
X221035999Y-99290438D01*
X221226476Y-100338057D02*
X221988380Y-100338057D01*
X222559809Y-99719009D02*
X222226476Y-99719009D01*
X222226476Y-100242819D02*
X222226476Y-99242819D01*
X222226476Y-99242819D02*
X222702666Y-99242819D01*
X223559809Y-100242819D02*
X223083619Y-100242819D01*
X223083619Y-100242819D02*
X223083619Y-99242819D01*
X224416952Y-100242819D02*
X223845524Y-100242819D01*
X224131238Y-100242819D02*
X224131238Y-99242819D01*
X224131238Y-99242819D02*
X224036000Y-99385676D01*
X224036000Y-99385676D02*
X223940762Y-99480914D01*
X223940762Y-99480914D02*
X223845524Y-99528533D01*
X194695142Y-100185104D02*
X195171332Y-100185104D01*
X194599904Y-100470819D02*
X194933237Y-99470819D01*
X194933237Y-99470819D02*
X195266570Y-100470819D01*
X195599904Y-100470819D02*
X195599904Y-99470819D01*
X195599904Y-99470819D02*
X195837999Y-99470819D01*
X195837999Y-99470819D02*
X195980856Y-99518438D01*
X195980856Y-99518438D02*
X196076094Y-99613676D01*
X196076094Y-99613676D02*
X196123713Y-99708914D01*
X196123713Y-99708914D02*
X196171332Y-99899390D01*
X196171332Y-99899390D02*
X196171332Y-100042247D01*
X196171332Y-100042247D02*
X196123713Y-100232723D01*
X196123713Y-100232723D02*
X196076094Y-100327961D01*
X196076094Y-100327961D02*
X195980856Y-100423200D01*
X195980856Y-100423200D02*
X195837999Y-100470819D01*
X195837999Y-100470819D02*
X195599904Y-100470819D01*
X196599904Y-100470819D02*
X196599904Y-99470819D01*
X197171332Y-100470819D02*
X196742761Y-99899390D01*
X197171332Y-99470819D02*
X196599904Y-100042247D01*
X197980856Y-100423200D02*
X197885618Y-100470819D01*
X197885618Y-100470819D02*
X197695142Y-100470819D01*
X197695142Y-100470819D02*
X197599904Y-100423200D01*
X197599904Y-100423200D02*
X197552285Y-100327961D01*
X197552285Y-100327961D02*
X197552285Y-99947009D01*
X197552285Y-99947009D02*
X197599904Y-99851771D01*
X197599904Y-99851771D02*
X197695142Y-99804152D01*
X197695142Y-99804152D02*
X197885618Y-99804152D01*
X197885618Y-99804152D02*
X197980856Y-99851771D01*
X197980856Y-99851771D02*
X198028475Y-99947009D01*
X198028475Y-99947009D02*
X198028475Y-100042247D01*
X198028475Y-100042247D02*
X197552285Y-100137485D01*
X198361809Y-99804152D02*
X198599904Y-100470819D01*
X198837999Y-99804152D02*
X198599904Y-100470819D01*
X198599904Y-100470819D02*
X198504666Y-100708914D01*
X198504666Y-100708914D02*
X198457047Y-100756533D01*
X198457047Y-100756533D02*
X198361809Y-100804152D01*
X199218952Y-100470819D02*
X199218952Y-99470819D01*
X199218952Y-99851771D02*
X199314190Y-99804152D01*
X199314190Y-99804152D02*
X199504666Y-99804152D01*
X199504666Y-99804152D02*
X199599904Y-99851771D01*
X199599904Y-99851771D02*
X199647523Y-99899390D01*
X199647523Y-99899390D02*
X199695142Y-99994628D01*
X199695142Y-99994628D02*
X199695142Y-100280342D01*
X199695142Y-100280342D02*
X199647523Y-100375580D01*
X199647523Y-100375580D02*
X199599904Y-100423200D01*
X199599904Y-100423200D02*
X199504666Y-100470819D01*
X199504666Y-100470819D02*
X199314190Y-100470819D01*
X199314190Y-100470819D02*
X199218952Y-100423200D01*
X200266571Y-100470819D02*
X200171333Y-100423200D01*
X200171333Y-100423200D02*
X200123714Y-100375580D01*
X200123714Y-100375580D02*
X200076095Y-100280342D01*
X200076095Y-100280342D02*
X200076095Y-99994628D01*
X200076095Y-99994628D02*
X200123714Y-99899390D01*
X200123714Y-99899390D02*
X200171333Y-99851771D01*
X200171333Y-99851771D02*
X200266571Y-99804152D01*
X200266571Y-99804152D02*
X200409428Y-99804152D01*
X200409428Y-99804152D02*
X200504666Y-99851771D01*
X200504666Y-99851771D02*
X200552285Y-99899390D01*
X200552285Y-99899390D02*
X200599904Y-99994628D01*
X200599904Y-99994628D02*
X200599904Y-100280342D01*
X200599904Y-100280342D02*
X200552285Y-100375580D01*
X200552285Y-100375580D02*
X200504666Y-100423200D01*
X200504666Y-100423200D02*
X200409428Y-100470819D01*
X200409428Y-100470819D02*
X200266571Y-100470819D01*
X201457047Y-100470819D02*
X201457047Y-99947009D01*
X201457047Y-99947009D02*
X201409428Y-99851771D01*
X201409428Y-99851771D02*
X201314190Y-99804152D01*
X201314190Y-99804152D02*
X201123714Y-99804152D01*
X201123714Y-99804152D02*
X201028476Y-99851771D01*
X201457047Y-100423200D02*
X201361809Y-100470819D01*
X201361809Y-100470819D02*
X201123714Y-100470819D01*
X201123714Y-100470819D02*
X201028476Y-100423200D01*
X201028476Y-100423200D02*
X200980857Y-100327961D01*
X200980857Y-100327961D02*
X200980857Y-100232723D01*
X200980857Y-100232723D02*
X201028476Y-100137485D01*
X201028476Y-100137485D02*
X201123714Y-100089866D01*
X201123714Y-100089866D02*
X201361809Y-100089866D01*
X201361809Y-100089866D02*
X201457047Y-100042247D01*
X201933238Y-100470819D02*
X201933238Y-99804152D01*
X201933238Y-99994628D02*
X201980857Y-99899390D01*
X201980857Y-99899390D02*
X202028476Y-99851771D01*
X202028476Y-99851771D02*
X202123714Y-99804152D01*
X202123714Y-99804152D02*
X202218952Y-99804152D01*
X202980857Y-100470819D02*
X202980857Y-99470819D01*
X202980857Y-100423200D02*
X202885619Y-100470819D01*
X202885619Y-100470819D02*
X202695143Y-100470819D01*
X202695143Y-100470819D02*
X202599905Y-100423200D01*
X202599905Y-100423200D02*
X202552286Y-100375580D01*
X202552286Y-100375580D02*
X202504667Y-100280342D01*
X202504667Y-100280342D02*
X202504667Y-99994628D01*
X202504667Y-99994628D02*
X202552286Y-99899390D01*
X202552286Y-99899390D02*
X202599905Y-99851771D01*
X202599905Y-99851771D02*
X202695143Y-99804152D01*
X202695143Y-99804152D02*
X202885619Y-99804152D01*
X202885619Y-99804152D02*
X202980857Y-99851771D01*
X203980857Y-100470819D02*
X203409429Y-100470819D01*
X203695143Y-100470819D02*
X203695143Y-99470819D01*
X203695143Y-99470819D02*
X203599905Y-99613676D01*
X203599905Y-99613676D02*
X203504667Y-99708914D01*
X203504667Y-99708914D02*
X203409429Y-99756533D01*
X194009048Y-117612819D02*
X194009048Y-116612819D01*
X194009048Y-116612819D02*
X194247143Y-116612819D01*
X194247143Y-116612819D02*
X194390000Y-116660438D01*
X194390000Y-116660438D02*
X194485238Y-116755676D01*
X194485238Y-116755676D02*
X194532857Y-116850914D01*
X194532857Y-116850914D02*
X194580476Y-117041390D01*
X194580476Y-117041390D02*
X194580476Y-117184247D01*
X194580476Y-117184247D02*
X194532857Y-117374723D01*
X194532857Y-117374723D02*
X194485238Y-117469961D01*
X194485238Y-117469961D02*
X194390000Y-117565200D01*
X194390000Y-117565200D02*
X194247143Y-117612819D01*
X194247143Y-117612819D02*
X194009048Y-117612819D01*
X195580476Y-117612819D02*
X195247143Y-117136628D01*
X195009048Y-117612819D02*
X195009048Y-116612819D01*
X195009048Y-116612819D02*
X195390000Y-116612819D01*
X195390000Y-116612819D02*
X195485238Y-116660438D01*
X195485238Y-116660438D02*
X195532857Y-116708057D01*
X195532857Y-116708057D02*
X195580476Y-116803295D01*
X195580476Y-116803295D02*
X195580476Y-116946152D01*
X195580476Y-116946152D02*
X195532857Y-117041390D01*
X195532857Y-117041390D02*
X195485238Y-117089009D01*
X195485238Y-117089009D02*
X195390000Y-117136628D01*
X195390000Y-117136628D02*
X195009048Y-117136628D01*
X196009048Y-117612819D02*
X196009048Y-116612819D01*
X196342381Y-116612819D02*
X196675714Y-117612819D01*
X196675714Y-117612819D02*
X197009047Y-116612819D01*
X197342381Y-117089009D02*
X197675714Y-117089009D01*
X197818571Y-117612819D02*
X197342381Y-117612819D01*
X197342381Y-117612819D02*
X197342381Y-116612819D01*
X197342381Y-116612819D02*
X197818571Y-116612819D01*
X198818571Y-117612819D02*
X198485238Y-117136628D01*
X198247143Y-117612819D02*
X198247143Y-116612819D01*
X198247143Y-116612819D02*
X198628095Y-116612819D01*
X198628095Y-116612819D02*
X198723333Y-116660438D01*
X198723333Y-116660438D02*
X198770952Y-116708057D01*
X198770952Y-116708057D02*
X198818571Y-116803295D01*
X198818571Y-116803295D02*
X198818571Y-116946152D01*
X198818571Y-116946152D02*
X198770952Y-117041390D01*
X198770952Y-117041390D02*
X198723333Y-117089009D01*
X198723333Y-117089009D02*
X198628095Y-117136628D01*
X198628095Y-117136628D02*
X198247143Y-117136628D01*
X199009048Y-117708057D02*
X199770952Y-117708057D01*
X200580476Y-117612819D02*
X200247143Y-117136628D01*
X200009048Y-117612819D02*
X200009048Y-116612819D01*
X200009048Y-116612819D02*
X200390000Y-116612819D01*
X200390000Y-116612819D02*
X200485238Y-116660438D01*
X200485238Y-116660438D02*
X200532857Y-116708057D01*
X200532857Y-116708057D02*
X200580476Y-116803295D01*
X200580476Y-116803295D02*
X200580476Y-116946152D01*
X200580476Y-116946152D02*
X200532857Y-117041390D01*
X200532857Y-117041390D02*
X200485238Y-117089009D01*
X200485238Y-117089009D02*
X200390000Y-117136628D01*
X200390000Y-117136628D02*
X200009048Y-117136628D01*
X201009048Y-117612819D02*
X201009048Y-116612819D01*
X202009047Y-116660438D02*
X201913809Y-116612819D01*
X201913809Y-116612819D02*
X201770952Y-116612819D01*
X201770952Y-116612819D02*
X201628095Y-116660438D01*
X201628095Y-116660438D02*
X201532857Y-116755676D01*
X201532857Y-116755676D02*
X201485238Y-116850914D01*
X201485238Y-116850914D02*
X201437619Y-117041390D01*
X201437619Y-117041390D02*
X201437619Y-117184247D01*
X201437619Y-117184247D02*
X201485238Y-117374723D01*
X201485238Y-117374723D02*
X201532857Y-117469961D01*
X201532857Y-117469961D02*
X201628095Y-117565200D01*
X201628095Y-117565200D02*
X201770952Y-117612819D01*
X201770952Y-117612819D02*
X201866190Y-117612819D01*
X201866190Y-117612819D02*
X202009047Y-117565200D01*
X202009047Y-117565200D02*
X202056666Y-117517580D01*
X202056666Y-117517580D02*
X202056666Y-117184247D01*
X202056666Y-117184247D02*
X201866190Y-117184247D01*
X202485238Y-117612819D02*
X202485238Y-116612819D01*
X202485238Y-117089009D02*
X203056666Y-117089009D01*
X203056666Y-117612819D02*
X203056666Y-116612819D01*
X203390000Y-116612819D02*
X203961428Y-116612819D01*
X203675714Y-117612819D02*
X203675714Y-116612819D01*
X204818571Y-117612819D02*
X204247143Y-117612819D01*
X204532857Y-117612819D02*
X204532857Y-116612819D01*
X204532857Y-116612819D02*
X204437619Y-116755676D01*
X204437619Y-116755676D02*
X204342381Y-116850914D01*
X204342381Y-116850914D02*
X204247143Y-116898533D01*
X220012190Y-123192819D02*
X219536000Y-123192819D01*
X219536000Y-123192819D02*
X219536000Y-122192819D01*
X220297905Y-123145200D02*
X220440762Y-123192819D01*
X220440762Y-123192819D02*
X220678857Y-123192819D01*
X220678857Y-123192819D02*
X220774095Y-123145200D01*
X220774095Y-123145200D02*
X220821714Y-123097580D01*
X220821714Y-123097580D02*
X220869333Y-123002342D01*
X220869333Y-123002342D02*
X220869333Y-122907104D01*
X220869333Y-122907104D02*
X220821714Y-122811866D01*
X220821714Y-122811866D02*
X220774095Y-122764247D01*
X220774095Y-122764247D02*
X220678857Y-122716628D01*
X220678857Y-122716628D02*
X220488381Y-122669009D01*
X220488381Y-122669009D02*
X220393143Y-122621390D01*
X220393143Y-122621390D02*
X220345524Y-122573771D01*
X220345524Y-122573771D02*
X220297905Y-122478533D01*
X220297905Y-122478533D02*
X220297905Y-122383295D01*
X220297905Y-122383295D02*
X220345524Y-122288057D01*
X220345524Y-122288057D02*
X220393143Y-122240438D01*
X220393143Y-122240438D02*
X220488381Y-122192819D01*
X220488381Y-122192819D02*
X220726476Y-122192819D01*
X220726476Y-122192819D02*
X220869333Y-122240438D01*
X221059810Y-123288057D02*
X221821714Y-123288057D01*
X222631238Y-123192819D02*
X222297905Y-122716628D01*
X222059810Y-123192819D02*
X222059810Y-122192819D01*
X222059810Y-122192819D02*
X222440762Y-122192819D01*
X222440762Y-122192819D02*
X222536000Y-122240438D01*
X222536000Y-122240438D02*
X222583619Y-122288057D01*
X222583619Y-122288057D02*
X222631238Y-122383295D01*
X222631238Y-122383295D02*
X222631238Y-122526152D01*
X222631238Y-122526152D02*
X222583619Y-122621390D01*
X222583619Y-122621390D02*
X222536000Y-122669009D01*
X222536000Y-122669009D02*
X222440762Y-122716628D01*
X222440762Y-122716628D02*
X222059810Y-122716628D01*
X223631238Y-123192819D02*
X223297905Y-122716628D01*
X223059810Y-123192819D02*
X223059810Y-122192819D01*
X223059810Y-122192819D02*
X223440762Y-122192819D01*
X223440762Y-122192819D02*
X223536000Y-122240438D01*
X223536000Y-122240438D02*
X223583619Y-122288057D01*
X223583619Y-122288057D02*
X223631238Y-122383295D01*
X223631238Y-122383295D02*
X223631238Y-122526152D01*
X223631238Y-122526152D02*
X223583619Y-122621390D01*
X223583619Y-122621390D02*
X223536000Y-122669009D01*
X223536000Y-122669009D02*
X223440762Y-122716628D01*
X223440762Y-122716628D02*
X223059810Y-122716628D01*
X224488381Y-122526152D02*
X224488381Y-123192819D01*
X224250286Y-122145200D02*
X224012191Y-122859485D01*
X224012191Y-122859485D02*
X224631238Y-122859485D01*
X272104819Y-105663094D02*
X271104819Y-105663094D01*
X271104819Y-105663094D02*
X271104819Y-105424999D01*
X271104819Y-105424999D02*
X271152438Y-105282142D01*
X271152438Y-105282142D02*
X271247676Y-105186904D01*
X271247676Y-105186904D02*
X271342914Y-105139285D01*
X271342914Y-105139285D02*
X271533390Y-105091666D01*
X271533390Y-105091666D02*
X271676247Y-105091666D01*
X271676247Y-105091666D02*
X271866723Y-105139285D01*
X271866723Y-105139285D02*
X271961961Y-105186904D01*
X271961961Y-105186904D02*
X272057200Y-105282142D01*
X272057200Y-105282142D02*
X272104819Y-105424999D01*
X272104819Y-105424999D02*
X272104819Y-105663094D01*
X271104819Y-104758332D02*
X271104819Y-104139285D01*
X271104819Y-104139285D02*
X271485771Y-104472618D01*
X271485771Y-104472618D02*
X271485771Y-104329761D01*
X271485771Y-104329761D02*
X271533390Y-104234523D01*
X271533390Y-104234523D02*
X271581009Y-104186904D01*
X271581009Y-104186904D02*
X271676247Y-104139285D01*
X271676247Y-104139285D02*
X271914342Y-104139285D01*
X271914342Y-104139285D02*
X272009580Y-104186904D01*
X272009580Y-104186904D02*
X272057200Y-104234523D01*
X272057200Y-104234523D02*
X272104819Y-104329761D01*
X272104819Y-104329761D02*
X272104819Y-104615475D01*
X272104819Y-104615475D02*
X272057200Y-104710713D01*
X272057200Y-104710713D02*
X272009580Y-104758332D01*
X239076666Y-95834819D02*
X239076666Y-96549104D01*
X239076666Y-96549104D02*
X239029047Y-96691961D01*
X239029047Y-96691961D02*
X238933809Y-96787200D01*
X238933809Y-96787200D02*
X238790952Y-96834819D01*
X238790952Y-96834819D02*
X238695714Y-96834819D01*
X240076666Y-96834819D02*
X239505238Y-96834819D01*
X239790952Y-96834819D02*
X239790952Y-95834819D01*
X239790952Y-95834819D02*
X239695714Y-95977676D01*
X239695714Y-95977676D02*
X239600476Y-96072914D01*
X239600476Y-96072914D02*
X239505238Y-96120533D01*
X263273333Y-114704819D02*
X262797143Y-114704819D01*
X262797143Y-114704819D02*
X262797143Y-113704819D01*
X264130476Y-114704819D02*
X263559048Y-114704819D01*
X263844762Y-114704819D02*
X263844762Y-113704819D01*
X263844762Y-113704819D02*
X263749524Y-113847676D01*
X263749524Y-113847676D02*
X263654286Y-113942914D01*
X263654286Y-113942914D02*
X263559048Y-113990533D01*
X242274000Y-113415580D02*
X242321619Y-113463200D01*
X242321619Y-113463200D02*
X242274000Y-113510819D01*
X242274000Y-113510819D02*
X242226381Y-113463200D01*
X242226381Y-113463200D02*
X242274000Y-113415580D01*
X242274000Y-113415580D02*
X242274000Y-113510819D01*
D11*
X242920952Y-96392409D02*
X242920952Y-95892409D01*
X242920952Y-95892409D02*
X243040000Y-95892409D01*
X243040000Y-95892409D02*
X243111428Y-95916219D01*
X243111428Y-95916219D02*
X243159047Y-95963838D01*
X243159047Y-95963838D02*
X243182857Y-96011457D01*
X243182857Y-96011457D02*
X243206666Y-96106695D01*
X243206666Y-96106695D02*
X243206666Y-96178123D01*
X243206666Y-96178123D02*
X243182857Y-96273361D01*
X243182857Y-96273361D02*
X243159047Y-96320980D01*
X243159047Y-96320980D02*
X243111428Y-96368600D01*
X243111428Y-96368600D02*
X243040000Y-96392409D01*
X243040000Y-96392409D02*
X242920952Y-96392409D01*
X243516190Y-95892409D02*
X243563809Y-95892409D01*
X243563809Y-95892409D02*
X243611428Y-95916219D01*
X243611428Y-95916219D02*
X243635238Y-95940028D01*
X243635238Y-95940028D02*
X243659047Y-95987647D01*
X243659047Y-95987647D02*
X243682857Y-96082885D01*
X243682857Y-96082885D02*
X243682857Y-96201933D01*
X243682857Y-96201933D02*
X243659047Y-96297171D01*
X243659047Y-96297171D02*
X243635238Y-96344790D01*
X243635238Y-96344790D02*
X243611428Y-96368600D01*
X243611428Y-96368600D02*
X243563809Y-96392409D01*
X243563809Y-96392409D02*
X243516190Y-96392409D01*
X243516190Y-96392409D02*
X243468571Y-96368600D01*
X243468571Y-96368600D02*
X243444762Y-96344790D01*
X243444762Y-96344790D02*
X243420952Y-96297171D01*
X243420952Y-96297171D02*
X243397143Y-96201933D01*
X243397143Y-96201933D02*
X243397143Y-96082885D01*
X243397143Y-96082885D02*
X243420952Y-95987647D01*
X243420952Y-95987647D02*
X243444762Y-95940028D01*
X243444762Y-95940028D02*
X243468571Y-95916219D01*
X243468571Y-95916219D02*
X243516190Y-95892409D01*
D10*
X208173524Y-115680819D02*
X208173524Y-114680819D01*
X209221142Y-115680819D02*
X208887809Y-115204628D01*
X208649714Y-115680819D02*
X208649714Y-114680819D01*
X208649714Y-114680819D02*
X209030666Y-114680819D01*
X209030666Y-114680819D02*
X209125904Y-114728438D01*
X209125904Y-114728438D02*
X209173523Y-114776057D01*
X209173523Y-114776057D02*
X209221142Y-114871295D01*
X209221142Y-114871295D02*
X209221142Y-115014152D01*
X209221142Y-115014152D02*
X209173523Y-115109390D01*
X209173523Y-115109390D02*
X209125904Y-115157009D01*
X209125904Y-115157009D02*
X209030666Y-115204628D01*
X209030666Y-115204628D02*
X208649714Y-115204628D01*
X209411619Y-115776057D02*
X210173523Y-115776057D01*
X210744952Y-115157009D02*
X210411619Y-115157009D01*
X210411619Y-115680819D02*
X210411619Y-114680819D01*
X210411619Y-114680819D02*
X210887809Y-114680819D01*
X211744952Y-115680819D02*
X211268762Y-115680819D01*
X211268762Y-115680819D02*
X211268762Y-114680819D01*
X212602095Y-115680819D02*
X212030667Y-115680819D01*
X212316381Y-115680819D02*
X212316381Y-114680819D01*
X212316381Y-114680819D02*
X212221143Y-114823676D01*
X212221143Y-114823676D02*
X212125905Y-114918914D01*
X212125905Y-114918914D02*
X212030667Y-114966533D01*
X208006857Y-108030819D02*
X208006857Y-107030819D01*
X209054475Y-108030819D02*
X208721142Y-107554628D01*
X208483047Y-108030819D02*
X208483047Y-107030819D01*
X208483047Y-107030819D02*
X208863999Y-107030819D01*
X208863999Y-107030819D02*
X208959237Y-107078438D01*
X208959237Y-107078438D02*
X209006856Y-107126057D01*
X209006856Y-107126057D02*
X209054475Y-107221295D01*
X209054475Y-107221295D02*
X209054475Y-107364152D01*
X209054475Y-107364152D02*
X209006856Y-107459390D01*
X209006856Y-107459390D02*
X208959237Y-107507009D01*
X208959237Y-107507009D02*
X208863999Y-107554628D01*
X208863999Y-107554628D02*
X208483047Y-107554628D01*
X209244952Y-108126057D02*
X210006856Y-108126057D01*
X210578285Y-107507009D02*
X210721142Y-107554628D01*
X210721142Y-107554628D02*
X210768761Y-107602247D01*
X210768761Y-107602247D02*
X210816380Y-107697485D01*
X210816380Y-107697485D02*
X210816380Y-107840342D01*
X210816380Y-107840342D02*
X210768761Y-107935580D01*
X210768761Y-107935580D02*
X210721142Y-107983200D01*
X210721142Y-107983200D02*
X210625904Y-108030819D01*
X210625904Y-108030819D02*
X210244952Y-108030819D01*
X210244952Y-108030819D02*
X210244952Y-107030819D01*
X210244952Y-107030819D02*
X210578285Y-107030819D01*
X210578285Y-107030819D02*
X210673523Y-107078438D01*
X210673523Y-107078438D02*
X210721142Y-107126057D01*
X210721142Y-107126057D02*
X210768761Y-107221295D01*
X210768761Y-107221295D02*
X210768761Y-107316533D01*
X210768761Y-107316533D02*
X210721142Y-107411771D01*
X210721142Y-107411771D02*
X210673523Y-107459390D01*
X210673523Y-107459390D02*
X210578285Y-107507009D01*
X210578285Y-107507009D02*
X210244952Y-107507009D01*
X211816380Y-108030819D02*
X211483047Y-107554628D01*
X211244952Y-108030819D02*
X211244952Y-107030819D01*
X211244952Y-107030819D02*
X211625904Y-107030819D01*
X211625904Y-107030819D02*
X211721142Y-107078438D01*
X211721142Y-107078438D02*
X211768761Y-107126057D01*
X211768761Y-107126057D02*
X211816380Y-107221295D01*
X211816380Y-107221295D02*
X211816380Y-107364152D01*
X211816380Y-107364152D02*
X211768761Y-107459390D01*
X211768761Y-107459390D02*
X211721142Y-107507009D01*
X211721142Y-107507009D02*
X211625904Y-107554628D01*
X211625904Y-107554628D02*
X211244952Y-107554628D01*
X212149714Y-107030819D02*
X212768761Y-107030819D01*
X212768761Y-107030819D02*
X212435428Y-107411771D01*
X212435428Y-107411771D02*
X212578285Y-107411771D01*
X212578285Y-107411771D02*
X212673523Y-107459390D01*
X212673523Y-107459390D02*
X212721142Y-107507009D01*
X212721142Y-107507009D02*
X212768761Y-107602247D01*
X212768761Y-107602247D02*
X212768761Y-107840342D01*
X212768761Y-107840342D02*
X212721142Y-107935580D01*
X212721142Y-107935580D02*
X212673523Y-107983200D01*
X212673523Y-107983200D02*
X212578285Y-108030819D01*
X212578285Y-108030819D02*
X212292571Y-108030819D01*
X212292571Y-108030819D02*
X212197333Y-107983200D01*
X212197333Y-107983200D02*
X212149714Y-107935580D01*
X233315428Y-115632819D02*
X232839238Y-115632819D01*
X232839238Y-115632819D02*
X232839238Y-114632819D01*
X233601143Y-115585200D02*
X233744000Y-115632819D01*
X233744000Y-115632819D02*
X233982095Y-115632819D01*
X233982095Y-115632819D02*
X234077333Y-115585200D01*
X234077333Y-115585200D02*
X234124952Y-115537580D01*
X234124952Y-115537580D02*
X234172571Y-115442342D01*
X234172571Y-115442342D02*
X234172571Y-115347104D01*
X234172571Y-115347104D02*
X234124952Y-115251866D01*
X234124952Y-115251866D02*
X234077333Y-115204247D01*
X234077333Y-115204247D02*
X233982095Y-115156628D01*
X233982095Y-115156628D02*
X233791619Y-115109009D01*
X233791619Y-115109009D02*
X233696381Y-115061390D01*
X233696381Y-115061390D02*
X233648762Y-115013771D01*
X233648762Y-115013771D02*
X233601143Y-114918533D01*
X233601143Y-114918533D02*
X233601143Y-114823295D01*
X233601143Y-114823295D02*
X233648762Y-114728057D01*
X233648762Y-114728057D02*
X233696381Y-114680438D01*
X233696381Y-114680438D02*
X233791619Y-114632819D01*
X233791619Y-114632819D02*
X234029714Y-114632819D01*
X234029714Y-114632819D02*
X234172571Y-114680438D01*
X234363048Y-115728057D02*
X235124952Y-115728057D01*
X235696381Y-115109009D02*
X235839238Y-115156628D01*
X235839238Y-115156628D02*
X235886857Y-115204247D01*
X235886857Y-115204247D02*
X235934476Y-115299485D01*
X235934476Y-115299485D02*
X235934476Y-115442342D01*
X235934476Y-115442342D02*
X235886857Y-115537580D01*
X235886857Y-115537580D02*
X235839238Y-115585200D01*
X235839238Y-115585200D02*
X235744000Y-115632819D01*
X235744000Y-115632819D02*
X235363048Y-115632819D01*
X235363048Y-115632819D02*
X235363048Y-114632819D01*
X235363048Y-114632819D02*
X235696381Y-114632819D01*
X235696381Y-114632819D02*
X235791619Y-114680438D01*
X235791619Y-114680438D02*
X235839238Y-114728057D01*
X235839238Y-114728057D02*
X235886857Y-114823295D01*
X235886857Y-114823295D02*
X235886857Y-114918533D01*
X235886857Y-114918533D02*
X235839238Y-115013771D01*
X235839238Y-115013771D02*
X235791619Y-115061390D01*
X235791619Y-115061390D02*
X235696381Y-115109009D01*
X235696381Y-115109009D02*
X235363048Y-115109009D01*
X236839238Y-115632819D02*
X236363048Y-115632819D01*
X236363048Y-115632819D02*
X236363048Y-114632819D01*
X237601143Y-114632819D02*
X237410667Y-114632819D01*
X237410667Y-114632819D02*
X237315429Y-114680438D01*
X237315429Y-114680438D02*
X237267810Y-114728057D01*
X237267810Y-114728057D02*
X237172572Y-114870914D01*
X237172572Y-114870914D02*
X237124953Y-115061390D01*
X237124953Y-115061390D02*
X237124953Y-115442342D01*
X237124953Y-115442342D02*
X237172572Y-115537580D01*
X237172572Y-115537580D02*
X237220191Y-115585200D01*
X237220191Y-115585200D02*
X237315429Y-115632819D01*
X237315429Y-115632819D02*
X237505905Y-115632819D01*
X237505905Y-115632819D02*
X237601143Y-115585200D01*
X237601143Y-115585200D02*
X237648762Y-115537580D01*
X237648762Y-115537580D02*
X237696381Y-115442342D01*
X237696381Y-115442342D02*
X237696381Y-115204247D01*
X237696381Y-115204247D02*
X237648762Y-115109009D01*
X237648762Y-115109009D02*
X237601143Y-115061390D01*
X237601143Y-115061390D02*
X237505905Y-115013771D01*
X237505905Y-115013771D02*
X237315429Y-115013771D01*
X237315429Y-115013771D02*
X237220191Y-115061390D01*
X237220191Y-115061390D02*
X237172572Y-115109009D01*
X237172572Y-115109009D02*
X237124953Y-115204247D01*
X220083618Y-115542819D02*
X219607428Y-115542819D01*
X219607428Y-115542819D02*
X219607428Y-114542819D01*
X220369333Y-115495200D02*
X220512190Y-115542819D01*
X220512190Y-115542819D02*
X220750285Y-115542819D01*
X220750285Y-115542819D02*
X220845523Y-115495200D01*
X220845523Y-115495200D02*
X220893142Y-115447580D01*
X220893142Y-115447580D02*
X220940761Y-115352342D01*
X220940761Y-115352342D02*
X220940761Y-115257104D01*
X220940761Y-115257104D02*
X220893142Y-115161866D01*
X220893142Y-115161866D02*
X220845523Y-115114247D01*
X220845523Y-115114247D02*
X220750285Y-115066628D01*
X220750285Y-115066628D02*
X220559809Y-115019009D01*
X220559809Y-115019009D02*
X220464571Y-114971390D01*
X220464571Y-114971390D02*
X220416952Y-114923771D01*
X220416952Y-114923771D02*
X220369333Y-114828533D01*
X220369333Y-114828533D02*
X220369333Y-114733295D01*
X220369333Y-114733295D02*
X220416952Y-114638057D01*
X220416952Y-114638057D02*
X220464571Y-114590438D01*
X220464571Y-114590438D02*
X220559809Y-114542819D01*
X220559809Y-114542819D02*
X220797904Y-114542819D01*
X220797904Y-114542819D02*
X220940761Y-114590438D01*
X221131238Y-115638057D02*
X221893142Y-115638057D01*
X222464571Y-115019009D02*
X222131238Y-115019009D01*
X222131238Y-115542819D02*
X222131238Y-114542819D01*
X222131238Y-114542819D02*
X222607428Y-114542819D01*
X223559809Y-115542819D02*
X223226476Y-115066628D01*
X222988381Y-115542819D02*
X222988381Y-114542819D01*
X222988381Y-114542819D02*
X223369333Y-114542819D01*
X223369333Y-114542819D02*
X223464571Y-114590438D01*
X223464571Y-114590438D02*
X223512190Y-114638057D01*
X223512190Y-114638057D02*
X223559809Y-114733295D01*
X223559809Y-114733295D02*
X223559809Y-114876152D01*
X223559809Y-114876152D02*
X223512190Y-114971390D01*
X223512190Y-114971390D02*
X223464571Y-115019009D01*
X223464571Y-115019009D02*
X223369333Y-115066628D01*
X223369333Y-115066628D02*
X222988381Y-115066628D01*
X223893143Y-114542819D02*
X224512190Y-114542819D01*
X224512190Y-114542819D02*
X224178857Y-114923771D01*
X224178857Y-114923771D02*
X224321714Y-114923771D01*
X224321714Y-114923771D02*
X224416952Y-114971390D01*
X224416952Y-114971390D02*
X224464571Y-115019009D01*
X224464571Y-115019009D02*
X224512190Y-115114247D01*
X224512190Y-115114247D02*
X224512190Y-115352342D01*
X224512190Y-115352342D02*
X224464571Y-115447580D01*
X224464571Y-115447580D02*
X224416952Y-115495200D01*
X224416952Y-115495200D02*
X224321714Y-115542819D01*
X224321714Y-115542819D02*
X224036000Y-115542819D01*
X224036000Y-115542819D02*
X223940762Y-115495200D01*
X223940762Y-115495200D02*
X223893143Y-115447580D01*
X208397571Y-131172819D02*
X208397571Y-131982342D01*
X208397571Y-131982342D02*
X208445190Y-132077580D01*
X208445190Y-132077580D02*
X208492809Y-132125200D01*
X208492809Y-132125200D02*
X208588047Y-132172819D01*
X208588047Y-132172819D02*
X208778523Y-132172819D01*
X208778523Y-132172819D02*
X208873761Y-132125200D01*
X208873761Y-132125200D02*
X208921380Y-132077580D01*
X208921380Y-132077580D02*
X208968999Y-131982342D01*
X208968999Y-131982342D02*
X208968999Y-131172819D01*
X209397571Y-131887104D02*
X209873761Y-131887104D01*
X209302333Y-132172819D02*
X209635666Y-131172819D01*
X209635666Y-131172819D02*
X209968999Y-132172819D01*
X210873761Y-132172819D02*
X210540428Y-131696628D01*
X210302333Y-132172819D02*
X210302333Y-131172819D01*
X210302333Y-131172819D02*
X210683285Y-131172819D01*
X210683285Y-131172819D02*
X210778523Y-131220438D01*
X210778523Y-131220438D02*
X210826142Y-131268057D01*
X210826142Y-131268057D02*
X210873761Y-131363295D01*
X210873761Y-131363295D02*
X210873761Y-131506152D01*
X210873761Y-131506152D02*
X210826142Y-131601390D01*
X210826142Y-131601390D02*
X210778523Y-131649009D01*
X210778523Y-131649009D02*
X210683285Y-131696628D01*
X210683285Y-131696628D02*
X210302333Y-131696628D01*
X211159476Y-131172819D02*
X211730904Y-131172819D01*
X211445190Y-132172819D02*
X211445190Y-131172819D01*
X212588047Y-132172819D02*
X212016619Y-132172819D01*
X212302333Y-132172819D02*
X212302333Y-131172819D01*
X212302333Y-131172819D02*
X212207095Y-131315676D01*
X212207095Y-131315676D02*
X212111857Y-131410914D01*
X212111857Y-131410914D02*
X212016619Y-131458533D01*
X253589819Y-103836904D02*
X254399342Y-103836904D01*
X254399342Y-103836904D02*
X254494580Y-103789285D01*
X254494580Y-103789285D02*
X254542200Y-103741666D01*
X254542200Y-103741666D02*
X254589819Y-103646428D01*
X254589819Y-103646428D02*
X254589819Y-103455952D01*
X254589819Y-103455952D02*
X254542200Y-103360714D01*
X254542200Y-103360714D02*
X254494580Y-103313095D01*
X254494580Y-103313095D02*
X254399342Y-103265476D01*
X254399342Y-103265476D02*
X253589819Y-103265476D01*
X254589819Y-102265476D02*
X254589819Y-102836904D01*
X254589819Y-102551190D02*
X253589819Y-102551190D01*
X253589819Y-102551190D02*
X253732676Y-102646428D01*
X253732676Y-102646428D02*
X253827914Y-102741666D01*
X253827914Y-102741666D02*
X253875533Y-102836904D01*
X220155047Y-107892819D02*
X219678857Y-107892819D01*
X219678857Y-107892819D02*
X219678857Y-106892819D01*
X220440762Y-107845200D02*
X220583619Y-107892819D01*
X220583619Y-107892819D02*
X220821714Y-107892819D01*
X220821714Y-107892819D02*
X220916952Y-107845200D01*
X220916952Y-107845200D02*
X220964571Y-107797580D01*
X220964571Y-107797580D02*
X221012190Y-107702342D01*
X221012190Y-107702342D02*
X221012190Y-107607104D01*
X221012190Y-107607104D02*
X220964571Y-107511866D01*
X220964571Y-107511866D02*
X220916952Y-107464247D01*
X220916952Y-107464247D02*
X220821714Y-107416628D01*
X220821714Y-107416628D02*
X220631238Y-107369009D01*
X220631238Y-107369009D02*
X220536000Y-107321390D01*
X220536000Y-107321390D02*
X220488381Y-107273771D01*
X220488381Y-107273771D02*
X220440762Y-107178533D01*
X220440762Y-107178533D02*
X220440762Y-107083295D01*
X220440762Y-107083295D02*
X220488381Y-106988057D01*
X220488381Y-106988057D02*
X220536000Y-106940438D01*
X220536000Y-106940438D02*
X220631238Y-106892819D01*
X220631238Y-106892819D02*
X220869333Y-106892819D01*
X220869333Y-106892819D02*
X221012190Y-106940438D01*
X221202667Y-107988057D02*
X221964571Y-107988057D01*
X222536000Y-107369009D02*
X222202667Y-107369009D01*
X222202667Y-107892819D02*
X222202667Y-106892819D01*
X222202667Y-106892819D02*
X222678857Y-106892819D01*
X223393143Y-107369009D02*
X223059810Y-107369009D01*
X223059810Y-107892819D02*
X223059810Y-106892819D01*
X223059810Y-106892819D02*
X223536000Y-106892819D01*
X223869334Y-106988057D02*
X223916953Y-106940438D01*
X223916953Y-106940438D02*
X224012191Y-106892819D01*
X224012191Y-106892819D02*
X224250286Y-106892819D01*
X224250286Y-106892819D02*
X224345524Y-106940438D01*
X224345524Y-106940438D02*
X224393143Y-106988057D01*
X224393143Y-106988057D02*
X224440762Y-107083295D01*
X224440762Y-107083295D02*
X224440762Y-107178533D01*
X224440762Y-107178533D02*
X224393143Y-107321390D01*
X224393143Y-107321390D02*
X223821715Y-107892819D01*
X223821715Y-107892819D02*
X224440762Y-107892819D01*
X249193333Y-121479580D02*
X249145714Y-121527200D01*
X249145714Y-121527200D02*
X249002857Y-121574819D01*
X249002857Y-121574819D02*
X248907619Y-121574819D01*
X248907619Y-121574819D02*
X248764762Y-121527200D01*
X248764762Y-121527200D02*
X248669524Y-121431961D01*
X248669524Y-121431961D02*
X248621905Y-121336723D01*
X248621905Y-121336723D02*
X248574286Y-121146247D01*
X248574286Y-121146247D02*
X248574286Y-121003390D01*
X248574286Y-121003390D02*
X248621905Y-120812914D01*
X248621905Y-120812914D02*
X248669524Y-120717676D01*
X248669524Y-120717676D02*
X248764762Y-120622438D01*
X248764762Y-120622438D02*
X248907619Y-120574819D01*
X248907619Y-120574819D02*
X249002857Y-120574819D01*
X249002857Y-120574819D02*
X249145714Y-120622438D01*
X249145714Y-120622438D02*
X249193333Y-120670057D01*
X250145714Y-121574819D02*
X249574286Y-121574819D01*
X249860000Y-121574819D02*
X249860000Y-120574819D01*
X249860000Y-120574819D02*
X249764762Y-120717676D01*
X249764762Y-120717676D02*
X249669524Y-120812914D01*
X249669524Y-120812914D02*
X249574286Y-120860533D01*
X194485238Y-109962819D02*
X194485238Y-108962819D01*
X194485238Y-108962819D02*
X194723333Y-108962819D01*
X194723333Y-108962819D02*
X194866190Y-109010438D01*
X194866190Y-109010438D02*
X194961428Y-109105676D01*
X194961428Y-109105676D02*
X195009047Y-109200914D01*
X195009047Y-109200914D02*
X195056666Y-109391390D01*
X195056666Y-109391390D02*
X195056666Y-109534247D01*
X195056666Y-109534247D02*
X195009047Y-109724723D01*
X195009047Y-109724723D02*
X194961428Y-109819961D01*
X194961428Y-109819961D02*
X194866190Y-109915200D01*
X194866190Y-109915200D02*
X194723333Y-109962819D01*
X194723333Y-109962819D02*
X194485238Y-109962819D01*
X196056666Y-109962819D02*
X195723333Y-109486628D01*
X195485238Y-109962819D02*
X195485238Y-108962819D01*
X195485238Y-108962819D02*
X195866190Y-108962819D01*
X195866190Y-108962819D02*
X195961428Y-109010438D01*
X195961428Y-109010438D02*
X196009047Y-109058057D01*
X196009047Y-109058057D02*
X196056666Y-109153295D01*
X196056666Y-109153295D02*
X196056666Y-109296152D01*
X196056666Y-109296152D02*
X196009047Y-109391390D01*
X196009047Y-109391390D02*
X195961428Y-109439009D01*
X195961428Y-109439009D02*
X195866190Y-109486628D01*
X195866190Y-109486628D02*
X195485238Y-109486628D01*
X196485238Y-109962819D02*
X196485238Y-108962819D01*
X196818571Y-108962819D02*
X197151904Y-109962819D01*
X197151904Y-109962819D02*
X197485237Y-108962819D01*
X197818571Y-109439009D02*
X198151904Y-109439009D01*
X198294761Y-109962819D02*
X197818571Y-109962819D01*
X197818571Y-109962819D02*
X197818571Y-108962819D01*
X197818571Y-108962819D02*
X198294761Y-108962819D01*
X199294761Y-109962819D02*
X198961428Y-109486628D01*
X198723333Y-109962819D02*
X198723333Y-108962819D01*
X198723333Y-108962819D02*
X199104285Y-108962819D01*
X199104285Y-108962819D02*
X199199523Y-109010438D01*
X199199523Y-109010438D02*
X199247142Y-109058057D01*
X199247142Y-109058057D02*
X199294761Y-109153295D01*
X199294761Y-109153295D02*
X199294761Y-109296152D01*
X199294761Y-109296152D02*
X199247142Y-109391390D01*
X199247142Y-109391390D02*
X199199523Y-109439009D01*
X199199523Y-109439009D02*
X199104285Y-109486628D01*
X199104285Y-109486628D02*
X198723333Y-109486628D01*
X199485238Y-110058057D02*
X200247142Y-110058057D01*
X200961428Y-109962819D02*
X200485238Y-109962819D01*
X200485238Y-109962819D02*
X200485238Y-108962819D01*
X201294762Y-109439009D02*
X201628095Y-109439009D01*
X201770952Y-109962819D02*
X201294762Y-109962819D01*
X201294762Y-109962819D02*
X201294762Y-108962819D01*
X201294762Y-108962819D02*
X201770952Y-108962819D01*
X202532857Y-109439009D02*
X202199524Y-109439009D01*
X202199524Y-109962819D02*
X202199524Y-108962819D01*
X202199524Y-108962819D02*
X202675714Y-108962819D01*
X202913810Y-108962819D02*
X203485238Y-108962819D01*
X203199524Y-109962819D02*
X203199524Y-108962819D01*
X204342381Y-109962819D02*
X203770953Y-109962819D01*
X204056667Y-109962819D02*
X204056667Y-108962819D01*
X204056667Y-108962819D02*
X203961429Y-109105676D01*
X203961429Y-109105676D02*
X203866191Y-109200914D01*
X203866191Y-109200914D02*
X203770953Y-109248533D01*
X268804819Y-110436666D02*
X268328628Y-110769999D01*
X268804819Y-111008094D02*
X267804819Y-111008094D01*
X267804819Y-111008094D02*
X267804819Y-110627142D01*
X267804819Y-110627142D02*
X267852438Y-110531904D01*
X267852438Y-110531904D02*
X267900057Y-110484285D01*
X267900057Y-110484285D02*
X267995295Y-110436666D01*
X267995295Y-110436666D02*
X268138152Y-110436666D01*
X268138152Y-110436666D02*
X268233390Y-110484285D01*
X268233390Y-110484285D02*
X268281009Y-110531904D01*
X268281009Y-110531904D02*
X268328628Y-110627142D01*
X268328628Y-110627142D02*
X268328628Y-111008094D01*
X268804819Y-109484285D02*
X268804819Y-110055713D01*
X268804819Y-109769999D02*
X267804819Y-109769999D01*
X267804819Y-109769999D02*
X267947676Y-109865237D01*
X267947676Y-109865237D02*
X268042914Y-109960475D01*
X268042914Y-109960475D02*
X268090533Y-110055713D01*
D12*
X230384000Y-111788000D02*
X230384000Y-113388000D01*
X230384000Y-113388000D02*
X232184000Y-113388000D01*
X231654000Y-108918000D02*
X238834000Y-108918000D01*
X232184000Y-113388000D02*
X232184000Y-114328000D01*
X240104000Y-111788000D02*
X240104000Y-113388000D01*
X240104000Y-113388000D02*
X238304000Y-113388000D01*
X230384000Y-127088000D02*
X230384000Y-128688000D01*
X230384000Y-128688000D02*
X232184000Y-128688000D01*
X231654000Y-124218000D02*
X238834000Y-124218000D01*
X232184000Y-128688000D02*
X232184000Y-129628000D01*
X240104000Y-127088000D02*
X240104000Y-128688000D01*
X240104000Y-128688000D02*
X238304000Y-128688000D01*
X206754000Y-104186000D02*
X206754000Y-105786000D01*
X206754000Y-105786000D02*
X208554000Y-105786000D01*
X208024000Y-101316000D02*
X212704000Y-101316000D01*
X208554000Y-105786000D02*
X208554000Y-106726000D01*
X213974000Y-104186000D02*
X213974000Y-105786000D01*
X213974000Y-105786000D02*
X212174000Y-105786000D01*
X253320000Y-100570000D02*
X253320000Y-97270000D01*
X253320000Y-100570000D02*
X246310000Y-100570000D01*
X253320000Y-97270000D02*
X246310000Y-97270000D01*
X218540000Y-135920000D02*
X218540000Y-137520000D01*
X218540000Y-137520000D02*
X220340000Y-137520000D01*
X219810000Y-133050000D02*
X225740000Y-133050000D01*
X220340000Y-137520000D02*
X220340000Y-138460000D01*
X227010000Y-135920000D02*
X227010000Y-137520000D01*
X227010000Y-137520000D02*
X225210000Y-137520000D01*
X206754000Y-127136000D02*
X206754000Y-128736000D01*
X206754000Y-128736000D02*
X208554000Y-128736000D01*
X208024000Y-124266000D02*
X212704000Y-124266000D01*
X208554000Y-128736000D02*
X208554000Y-129676000D01*
X213974000Y-127136000D02*
X213974000Y-128736000D01*
X213974000Y-128736000D02*
X212174000Y-128736000D01*
X195780000Y-130644000D02*
X195780000Y-132244000D01*
X195780000Y-132244000D02*
X197580000Y-132244000D01*
X197050000Y-127774000D02*
X200480000Y-127774000D01*
X197580000Y-132244000D02*
X197580000Y-133184000D01*
X201750000Y-130644000D02*
X201750000Y-132244000D01*
X201750000Y-132244000D02*
X199950000Y-132244000D01*
X268010000Y-128867000D02*
X263490000Y-128867000D01*
X263490000Y-128867000D02*
X263490000Y-137102000D01*
X268010000Y-137102000D02*
X268010000Y-128867000D01*
X261960000Y-128944000D02*
X258660000Y-128944000D01*
X261960000Y-128944000D02*
X261960000Y-135954000D01*
X258660000Y-128944000D02*
X258660000Y-135954000D01*
X217176000Y-104048000D02*
X217176000Y-105648000D01*
X217176000Y-105648000D02*
X218976000Y-105648000D01*
X218446000Y-101178000D02*
X225626000Y-101178000D01*
X218976000Y-105648000D02*
X218976000Y-106588000D01*
X226896000Y-104048000D02*
X226896000Y-105648000D01*
X226896000Y-105648000D02*
X225096000Y-105648000D01*
X195728000Y-104276000D02*
X195728000Y-105876000D01*
X195728000Y-105876000D02*
X197528000Y-105876000D01*
X196998000Y-101406000D02*
X201678000Y-101406000D01*
X197528000Y-105876000D02*
X197528000Y-106816000D01*
X202948000Y-104276000D02*
X202948000Y-105876000D01*
X202948000Y-105876000D02*
X201148000Y-105876000D01*
X195155000Y-121418000D02*
X195155000Y-123018000D01*
X195155000Y-123018000D02*
X196955000Y-123018000D01*
X196425000Y-118548000D02*
X202355000Y-118548000D01*
X196955000Y-123018000D02*
X196955000Y-123958000D01*
X203625000Y-121418000D02*
X203625000Y-123018000D01*
X203625000Y-123018000D02*
X201825000Y-123018000D01*
X217176000Y-126998000D02*
X217176000Y-128598000D01*
X217176000Y-128598000D02*
X218976000Y-128598000D01*
X218446000Y-124128000D02*
X225626000Y-124128000D01*
X218976000Y-128598000D02*
X218976000Y-129538000D01*
X226896000Y-126998000D02*
X226896000Y-128598000D01*
X226896000Y-128598000D02*
X225096000Y-128598000D01*
X270960000Y-103065000D02*
X269040000Y-103065000D01*
X269040000Y-103065000D02*
X269040000Y-105925000D01*
X270960000Y-105925000D02*
X270960000Y-103065000D01*
X234570000Y-100980000D02*
X235170000Y-101280000D01*
X234570000Y-101580000D02*
X234570000Y-100980000D01*
X235170000Y-101280000D02*
X234570000Y-101580000D01*
X235370000Y-99170000D02*
X236570000Y-99170000D01*
X235370000Y-106190000D02*
X235370000Y-99170000D01*
X236570000Y-97470000D02*
X242250000Y-97470000D01*
X236570000Y-99170000D02*
X236570000Y-97470000D01*
X242250000Y-97470000D02*
X242250000Y-99170000D01*
X242250000Y-99170000D02*
X243450000Y-99170000D01*
X243450000Y-99170000D02*
X243450000Y-106190000D01*
X243450000Y-106190000D02*
X235370000Y-106190000D01*
X257140000Y-115050000D02*
X269740000Y-115050000D01*
X257140000Y-118050000D02*
X257140000Y-115050000D01*
X257140000Y-127650000D02*
X257140000Y-124650000D01*
X269740000Y-115050000D02*
X269740000Y-118050000D01*
X269740000Y-124650000D02*
X269740000Y-127650000D01*
X269740000Y-127650000D02*
X257140000Y-127650000D01*
X206754000Y-119486000D02*
X206754000Y-121086000D01*
X206754000Y-121086000D02*
X208554000Y-121086000D01*
X208024000Y-116616000D02*
X212704000Y-116616000D01*
X208554000Y-121086000D02*
X208554000Y-122026000D01*
X213974000Y-119486000D02*
X213974000Y-121086000D01*
X213974000Y-121086000D02*
X212174000Y-121086000D01*
X206754000Y-111836000D02*
X206754000Y-113436000D01*
X206754000Y-113436000D02*
X208554000Y-113436000D01*
X208024000Y-108966000D02*
X212704000Y-108966000D01*
X208554000Y-113436000D02*
X208554000Y-114376000D01*
X213974000Y-111836000D02*
X213974000Y-113436000D01*
X213974000Y-113436000D02*
X212174000Y-113436000D01*
X230384000Y-119438000D02*
X230384000Y-121038000D01*
X230384000Y-121038000D02*
X232184000Y-121038000D01*
X231654000Y-116568000D02*
X238834000Y-116568000D01*
X232184000Y-121038000D02*
X232184000Y-121978000D01*
X240104000Y-119438000D02*
X240104000Y-121038000D01*
X240104000Y-121038000D02*
X238304000Y-121038000D01*
X217176000Y-119348000D02*
X217176000Y-120948000D01*
X217176000Y-120948000D02*
X218976000Y-120948000D01*
X218446000Y-116478000D02*
X225626000Y-116478000D01*
X218976000Y-120948000D02*
X218976000Y-121888000D01*
X226896000Y-119348000D02*
X226896000Y-120948000D01*
X226896000Y-120948000D02*
X225096000Y-120948000D01*
X206234000Y-135978000D02*
X206234000Y-137578000D01*
X206234000Y-137578000D02*
X208034000Y-137578000D01*
X207504000Y-133108000D02*
X213434000Y-133108000D01*
X208034000Y-137578000D02*
X208034000Y-138518000D01*
X214704000Y-135978000D02*
X214704000Y-137578000D01*
X214704000Y-137578000D02*
X212904000Y-137578000D01*
X255585000Y-107900000D02*
X256535000Y-107900000D01*
X256535000Y-107900000D02*
X256535000Y-113025000D01*
X265035000Y-107900000D02*
X265035000Y-109000000D01*
X265985000Y-107900000D02*
X265035000Y-107900000D01*
X255585000Y-106400000D02*
X255585000Y-107900000D01*
X265985000Y-106400000D02*
X265985000Y-107900000D01*
X217176000Y-111698000D02*
X217176000Y-113298000D01*
X217176000Y-113298000D02*
X218976000Y-113298000D01*
X218446000Y-108828000D02*
X225626000Y-108828000D01*
X218976000Y-113298000D02*
X218976000Y-114238000D01*
X226896000Y-111698000D02*
X226896000Y-113298000D01*
X226896000Y-113298000D02*
X225096000Y-113298000D01*
X242510000Y-124660000D02*
X243760000Y-124660000D01*
X243135000Y-124035000D02*
X243135000Y-125285000D01*
X244000000Y-123124437D02*
X244000000Y-125910000D01*
X244000000Y-123124437D02*
X245064437Y-122060000D01*
X244000000Y-131715563D02*
X244000000Y-128930000D01*
X244000000Y-131715563D02*
X245064437Y-132780000D01*
X245064437Y-122060000D02*
X254720000Y-122060000D01*
X245064437Y-132780000D02*
X254720000Y-132780000D01*
X254720000Y-122060000D02*
X254720000Y-125910000D01*
X254720000Y-132780000D02*
X254720000Y-128930000D01*
X195155000Y-113768000D02*
X195155000Y-115368000D01*
X195155000Y-115368000D02*
X196955000Y-115368000D01*
X196425000Y-110898000D02*
X202355000Y-110898000D01*
X196955000Y-115368000D02*
X196955000Y-116308000D01*
X203625000Y-113768000D02*
X203625000Y-115368000D01*
X203625000Y-115368000D02*
X201825000Y-115368000D01*
X269265000Y-110497064D02*
X269265000Y-110042936D01*
X270735000Y-110497064D02*
X270735000Y-110042936D01*
%LPC*%
D13*
X232744000Y-113478000D03*
X233994000Y-113478000D03*
X235244000Y-113478000D03*
X236494000Y-113478000D03*
X237744000Y-113478000D03*
D14*
X230894000Y-110128000D03*
X239594000Y-110128000D03*
D13*
X232744000Y-128778000D03*
X233994000Y-128778000D03*
X235244000Y-128778000D03*
X236494000Y-128778000D03*
X237744000Y-128778000D03*
D14*
X230894000Y-125428000D03*
X239594000Y-125428000D03*
D13*
X209114000Y-105876000D03*
X210364000Y-105876000D03*
X211614000Y-105876000D03*
D14*
X207264000Y-102526000D03*
X213464000Y-102526000D03*
D15*
X251310000Y-98920000D03*
X246310000Y-98920000D03*
D13*
X220900000Y-137610000D03*
X222150000Y-137610000D03*
X223400000Y-137610000D03*
X224650000Y-137610000D03*
D14*
X219050000Y-134260000D03*
X226500000Y-134260000D03*
D13*
X209114000Y-128826000D03*
X210364000Y-128826000D03*
X211614000Y-128826000D03*
D14*
X207264000Y-125476000D03*
X213464000Y-125476000D03*
D13*
X198140000Y-132334000D03*
X199390000Y-132334000D03*
D14*
X196290000Y-128984000D03*
X201240000Y-128984000D03*
D16*
X265750000Y-130252000D03*
X265750000Y-136652000D03*
D17*
X260310000Y-130954000D03*
X260310000Y-135954000D03*
D13*
X219536000Y-105738000D03*
X220786000Y-105738000D03*
X222036000Y-105738000D03*
X223286000Y-105738000D03*
X224536000Y-105738000D03*
D14*
X217686000Y-102388000D03*
X226386000Y-102388000D03*
D13*
X198088000Y-105966000D03*
X199338000Y-105966000D03*
X200588000Y-105966000D03*
D14*
X196238000Y-102616000D03*
X202438000Y-102616000D03*
D13*
X197515000Y-123108000D03*
X198765000Y-123108000D03*
X200015000Y-123108000D03*
X201265000Y-123108000D03*
D14*
X195665000Y-119758000D03*
X203115000Y-119758000D03*
D13*
X219536000Y-128688000D03*
X220786000Y-128688000D03*
X222036000Y-128688000D03*
X223286000Y-128688000D03*
X224536000Y-128688000D03*
D14*
X217686000Y-125338000D03*
X226386000Y-125338000D03*
D18*
X270000000Y-103900000D03*
X270000000Y-105950000D03*
D19*
X237430000Y-101280000D03*
D20*
X241390000Y-101280000D03*
D21*
X258490000Y-121350000D03*
X268390000Y-121350000D03*
D22*
X193760000Y-142520000D03*
X195030000Y-94260000D03*
D23*
X207730000Y-142520000D03*
D22*
X245830000Y-109500000D03*
X245830000Y-137440000D03*
X269960000Y-94260000D03*
X276310000Y-142520000D03*
D23*
X215350000Y-142520000D03*
X217890000Y-142520000D03*
X245957000Y-114580000D03*
X273770000Y-94260000D03*
X276310000Y-94260000D03*
X230590000Y-142520000D03*
X233130000Y-142520000D03*
X235670000Y-142520000D03*
X238210000Y-142520000D03*
X240750000Y-142520000D03*
X243290000Y-142520000D03*
X245830000Y-142520000D03*
X248370000Y-142520000D03*
X253450000Y-142520000D03*
X255990000Y-142520000D03*
X258530000Y-142520000D03*
X261070000Y-142520000D03*
X263610000Y-142520000D03*
X266150000Y-142520000D03*
X268690000Y-142520000D03*
X271230000Y-142520000D03*
X203666000Y-94260000D03*
X243290000Y-94260000D03*
X240750000Y-94260000D03*
X238210000Y-94260000D03*
X235670000Y-94260000D03*
X233130000Y-94260000D03*
X230590000Y-94260000D03*
X228050000Y-94260000D03*
X225510000Y-94260000D03*
X221446000Y-94260000D03*
X218906000Y-94260000D03*
X216366000Y-94260000D03*
X213826000Y-94260000D03*
X211286000Y-94260000D03*
X208746000Y-94260000D03*
X248370000Y-94260000D03*
X250910000Y-94260000D03*
X253450000Y-94260000D03*
X255990000Y-94260000D03*
X258530000Y-94260000D03*
X261070000Y-94260000D03*
X263610000Y-94260000D03*
X266150000Y-94260000D03*
X273770000Y-96800000D03*
X276310000Y-96800000D03*
X273770000Y-99340000D03*
X276310000Y-99340000D03*
X273770000Y-101880000D03*
X276310000Y-101880000D03*
X273770000Y-104420000D03*
X276310000Y-104420000D03*
X273770000Y-106960000D03*
X276310000Y-106960000D03*
X273770000Y-109500000D03*
X276310000Y-109500000D03*
X273770000Y-112040000D03*
X276310000Y-112040000D03*
X273770000Y-114580000D03*
X276310000Y-114580000D03*
X273770000Y-117120000D03*
X276310000Y-117120000D03*
X273770000Y-119660000D03*
X276310000Y-119660000D03*
X273770000Y-122200000D03*
X276310000Y-122200000D03*
X273770000Y-124740000D03*
X276310000Y-124740000D03*
X273770000Y-127280000D03*
X276310000Y-127280000D03*
X273770000Y-129820000D03*
X276310000Y-129820000D03*
X273770000Y-132360000D03*
X276310000Y-132360000D03*
X273770000Y-134900000D03*
X276310000Y-134900000D03*
D24*
X206206000Y-94260000D03*
X220430000Y-142520000D03*
X222970000Y-142520000D03*
X245957000Y-119660000D03*
X273770000Y-137440000D03*
X276310000Y-137440000D03*
D23*
X210270000Y-142520000D03*
X243417000Y-114580000D03*
X245957000Y-117120000D03*
X212810000Y-142520000D03*
X243417000Y-119660000D03*
X243417000Y-117120000D03*
X198586000Y-94260000D03*
X201126000Y-94260000D03*
X225510000Y-142520000D03*
D13*
X209114000Y-121176000D03*
X210364000Y-121176000D03*
X211614000Y-121176000D03*
D14*
X207264000Y-117826000D03*
X213464000Y-117826000D03*
D13*
X209114000Y-113526000D03*
X210364000Y-113526000D03*
X211614000Y-113526000D03*
D14*
X207264000Y-110176000D03*
X213464000Y-110176000D03*
D13*
X232744000Y-121128000D03*
X233994000Y-121128000D03*
X235244000Y-121128000D03*
X236494000Y-121128000D03*
X237744000Y-121128000D03*
D14*
X230894000Y-117778000D03*
X239594000Y-117778000D03*
D13*
X219536000Y-121038000D03*
X220786000Y-121038000D03*
X222036000Y-121038000D03*
X223286000Y-121038000D03*
X224536000Y-121038000D03*
D14*
X217686000Y-117688000D03*
X226386000Y-117688000D03*
D13*
X208594000Y-137668000D03*
X209844000Y-137668000D03*
X211094000Y-137668000D03*
X212344000Y-137668000D03*
D14*
X206744000Y-134318000D03*
X214194000Y-134318000D03*
D25*
X257385000Y-110725000D03*
X259085000Y-110725000D03*
X260785000Y-110725000D03*
D26*
X260785000Y-101575000D03*
D25*
X262485000Y-110725000D03*
X264185000Y-110725000D03*
D13*
X219536000Y-113388000D03*
X220786000Y-113388000D03*
X222036000Y-113388000D03*
X223286000Y-113388000D03*
X224536000Y-113388000D03*
D14*
X217686000Y-110038000D03*
X226386000Y-110038000D03*
D27*
X245160000Y-127420000D03*
X253560000Y-127420000D03*
D13*
X197515000Y-115458000D03*
X198765000Y-115458000D03*
X200015000Y-115458000D03*
X201265000Y-115458000D03*
D14*
X195665000Y-112108000D03*
X203115000Y-112108000D03*
D28*
X270000000Y-111270000D03*
X270000000Y-109270000D03*
%LPD*%
M02*
