G04 #@! TF.GenerationSoftware,KiCad,Pcbnew,7.0.5*
G04 #@! TF.CreationDate,2023-09-27T13:54:17+07:00*
G04 #@! TF.ProjectId,sumoRobotPCB,73756d6f-526f-4626-9f74-5043422e6b69,rev?*
G04 #@! TF.SameCoordinates,Original*
G04 #@! TF.FileFunction,Copper,L2,Bot*
G04 #@! TF.FilePolarity,Positive*
%FSLAX46Y46*%
G04 Gerber Fmt 4.6, Leading zero omitted, Abs format (unit mm)*
G04 Created by KiCad (PCBNEW 7.0.5) date 2023-09-27 13:54:17*
%MOMM*%
%LPD*%
G01*
G04 APERTURE LIST*
G04 Aperture macros list*
%AMRoundRect*
0 Rectangle with rounded corners*
0 $1 Rounding radius*
0 $2 $3 $4 $5 $6 $7 $8 $9 X,Y pos of 4 corners*
0 Add a 4 corners polygon primitive as box body*
4,1,4,$2,$3,$4,$5,$6,$7,$8,$9,$2,$3,0*
0 Add four circle primitives for the rounded corners*
1,1,$1+$1,$2,$3*
1,1,$1+$1,$4,$5*
1,1,$1+$1,$6,$7*
1,1,$1+$1,$8,$9*
0 Add four rect primitives between the rounded corners*
20,1,$1+$1,$2,$3,$4,$5,0*
20,1,$1+$1,$4,$5,$6,$7,0*
20,1,$1+$1,$6,$7,$8,$9,0*
20,1,$1+$1,$8,$9,$2,$3,0*%
G04 Aperture macros list end*
G04 #@! TA.AperFunction,ComponentPad*
%ADD10RoundRect,0.250001X-1.099999X-1.099999X1.099999X-1.099999X1.099999X1.099999X-1.099999X1.099999X0*%
G04 #@! TD*
G04 #@! TA.AperFunction,ComponentPad*
%ADD11C,2.700000*%
G04 #@! TD*
G04 #@! TA.AperFunction,ComponentPad*
%ADD12O,1.727200X1.727200*%
G04 #@! TD*
G04 #@! TA.AperFunction,ComponentPad*
%ADD13R,1.727200X1.727200*%
G04 #@! TD*
G04 #@! TA.AperFunction,ViaPad*
%ADD14C,0.800000*%
G04 #@! TD*
G04 #@! TA.AperFunction,Conductor*
%ADD15C,0.250000*%
G04 #@! TD*
G04 APERTURE END LIST*
D10*
X237430000Y-101280000D03*
D11*
X241390000Y-101280000D03*
D12*
X207730000Y-142520000D03*
X215350000Y-142520000D03*
X217890000Y-142520000D03*
X245957000Y-114580000D03*
X273770000Y-94260000D03*
X276310000Y-94260000D03*
X230590000Y-142520000D03*
X233130000Y-142520000D03*
X235670000Y-142520000D03*
X238210000Y-142520000D03*
X240750000Y-142520000D03*
X243290000Y-142520000D03*
X245830000Y-142520000D03*
X248370000Y-142520000D03*
X253450000Y-142520000D03*
X255990000Y-142520000D03*
X258530000Y-142520000D03*
X261070000Y-142520000D03*
X263610000Y-142520000D03*
X266150000Y-142520000D03*
X268690000Y-142520000D03*
X271230000Y-142520000D03*
X203666000Y-94260000D03*
X243290000Y-94260000D03*
X240750000Y-94260000D03*
X238210000Y-94260000D03*
X235670000Y-94260000D03*
X233130000Y-94260000D03*
X230590000Y-94260000D03*
X228050000Y-94260000D03*
X225510000Y-94260000D03*
X221446000Y-94260000D03*
X218906000Y-94260000D03*
X216366000Y-94260000D03*
X213826000Y-94260000D03*
X211286000Y-94260000D03*
X208746000Y-94260000D03*
X248370000Y-94260000D03*
X250910000Y-94260000D03*
X253450000Y-94260000D03*
X255990000Y-94260000D03*
X258530000Y-94260000D03*
X261070000Y-94260000D03*
X263610000Y-94260000D03*
X266150000Y-94260000D03*
X273770000Y-96800000D03*
X276310000Y-96800000D03*
X273770000Y-99340000D03*
X276310000Y-99340000D03*
X273770000Y-101880000D03*
X276310000Y-101880000D03*
X273770000Y-104420000D03*
X276310000Y-104420000D03*
X273770000Y-106960000D03*
X276310000Y-106960000D03*
X273770000Y-109500000D03*
X276310000Y-109500000D03*
X273770000Y-112040000D03*
X276310000Y-112040000D03*
X273770000Y-114580000D03*
X276310000Y-114580000D03*
X273770000Y-117120000D03*
X276310000Y-117120000D03*
X273770000Y-119660000D03*
X276310000Y-119660000D03*
X273770000Y-122200000D03*
X276310000Y-122200000D03*
X273770000Y-124740000D03*
X276310000Y-124740000D03*
X273770000Y-127280000D03*
X276310000Y-127280000D03*
X273770000Y-129820000D03*
X276310000Y-129820000D03*
X273770000Y-132360000D03*
X276310000Y-132360000D03*
X273770000Y-134900000D03*
X276310000Y-134900000D03*
D13*
X206206000Y-94260000D03*
X220430000Y-142520000D03*
X222970000Y-142520000D03*
X245957000Y-119660000D03*
X273770000Y-137440000D03*
X276310000Y-137440000D03*
D12*
X210270000Y-142520000D03*
X243417000Y-114580000D03*
X245957000Y-117120000D03*
X212810000Y-142520000D03*
X243417000Y-119660000D03*
X243417000Y-117120000D03*
X198586000Y-94260000D03*
X201126000Y-94260000D03*
X225510000Y-142520000D03*
D14*
X232910000Y-104410000D03*
X240480000Y-137210000D03*
X200930000Y-141760000D03*
X202930000Y-139760000D03*
X238480000Y-138210000D03*
X239480000Y-136210000D03*
X233910000Y-106410000D03*
X237480000Y-135210000D03*
X238480000Y-135210000D03*
X237480000Y-137210000D03*
X238480000Y-137210000D03*
X200930000Y-139760000D03*
X203930000Y-137760000D03*
X253270000Y-109510000D03*
X207390000Y-96560000D03*
X236480000Y-139210000D03*
X232910000Y-105410000D03*
X238480000Y-136210000D03*
X203930000Y-138760000D03*
X202930000Y-137760000D03*
X236480000Y-136210000D03*
X238480000Y-137210000D03*
X208390000Y-97560000D03*
X252270000Y-110510000D03*
X235480000Y-138210000D03*
X211390000Y-96560000D03*
X238480000Y-136210000D03*
X234910000Y-105410000D03*
X202930000Y-138760000D03*
X191540000Y-113770000D03*
X202930000Y-136760000D03*
X203930000Y-136760000D03*
X191540000Y-116770000D03*
X201930000Y-141760000D03*
X201930000Y-140760000D03*
X239480000Y-135210000D03*
X200930000Y-137760000D03*
X239480000Y-136210000D03*
X238480000Y-138210000D03*
X251270000Y-109510000D03*
X209390000Y-98560000D03*
X240480000Y-138210000D03*
X239480000Y-137210000D03*
X253270000Y-112510000D03*
X191540000Y-114770000D03*
X235480000Y-138210000D03*
X237480000Y-139210000D03*
X211390000Y-97560000D03*
X235480000Y-136210000D03*
X234910000Y-104410000D03*
X191540000Y-115770000D03*
X210390000Y-98560000D03*
X238480000Y-136210000D03*
X235480000Y-137210000D03*
X235480000Y-138210000D03*
X236480000Y-135210000D03*
X253270000Y-110510000D03*
X237480000Y-136210000D03*
X232910000Y-106410000D03*
X212390000Y-96560000D03*
X232910000Y-103410000D03*
X252270000Y-111510000D03*
X191540000Y-117770000D03*
X236480000Y-138210000D03*
X250270000Y-110510000D03*
X240480000Y-136210000D03*
X252270000Y-109510000D03*
X201930000Y-139760000D03*
X236480000Y-136210000D03*
X238480000Y-138210000D03*
X231910000Y-104410000D03*
X239480000Y-135210000D03*
X191540000Y-112770000D03*
X211390000Y-98560000D03*
X200930000Y-140760000D03*
X252270000Y-112510000D03*
X202930000Y-135760000D03*
X238480000Y-137210000D03*
X240480000Y-139210000D03*
X210390000Y-96560000D03*
X202930000Y-140760000D03*
X208390000Y-98560000D03*
X211160000Y-125440000D03*
X236480000Y-135210000D03*
X191540000Y-118770000D03*
X235480000Y-135210000D03*
X203930000Y-141760000D03*
X235480000Y-137210000D03*
X253270000Y-111510000D03*
X210390000Y-97560000D03*
X240480000Y-135210000D03*
X201930000Y-135760000D03*
X203930000Y-139760000D03*
X201930000Y-138760000D03*
X203930000Y-135760000D03*
X239480000Y-138210000D03*
X213390000Y-98560000D03*
X211160000Y-124440000D03*
X250270000Y-112510000D03*
X237480000Y-138210000D03*
X200930000Y-138760000D03*
X239480000Y-138210000D03*
X251270000Y-112510000D03*
X251270000Y-110510000D03*
X236480000Y-138210000D03*
X207390000Y-98560000D03*
X233910000Y-103410000D03*
X200930000Y-136760000D03*
X234910000Y-106410000D03*
X235480000Y-136210000D03*
X237480000Y-137210000D03*
X211160000Y-126440000D03*
X231910000Y-105410000D03*
X233910000Y-104410000D03*
X212390000Y-97560000D03*
X231910000Y-106410000D03*
X207390000Y-97560000D03*
X237480000Y-138210000D03*
X236480000Y-137210000D03*
X237480000Y-138210000D03*
X237480000Y-135210000D03*
X213390000Y-97560000D03*
X208390000Y-96560000D03*
X235480000Y-137210000D03*
X233910000Y-105410000D03*
X202930000Y-141760000D03*
X250270000Y-111510000D03*
X209390000Y-97560000D03*
X235480000Y-136210000D03*
X236480000Y-138210000D03*
X201930000Y-137760000D03*
X238480000Y-139210000D03*
X238480000Y-135210000D03*
X237480000Y-137210000D03*
X201930000Y-136760000D03*
X235480000Y-139210000D03*
X239480000Y-139210000D03*
X251270000Y-111510000D03*
X234910000Y-103410000D03*
X237480000Y-136210000D03*
X237480000Y-136210000D03*
X209390000Y-96560000D03*
X239480000Y-137210000D03*
X238480000Y-135210000D03*
X212390000Y-98560000D03*
X237480000Y-135210000D03*
X236480000Y-137210000D03*
X231910000Y-103410000D03*
X200930000Y-135760000D03*
X236480000Y-135210000D03*
X203930000Y-140760000D03*
X250270000Y-109510000D03*
X236480000Y-137210000D03*
X213390000Y-96560000D03*
X236480000Y-136210000D03*
X223320000Y-131980000D03*
X225027299Y-126707299D03*
X225441900Y-128415700D03*
X238670900Y-113576700D03*
X246110000Y-122350000D03*
X245770000Y-129870000D03*
X211614000Y-119719400D03*
X213099900Y-128572300D03*
X211120500Y-108949300D03*
X213461800Y-105912100D03*
X201565000Y-106428200D03*
X208190000Y-116040000D03*
X208113938Y-114893061D03*
X200641200Y-121806100D03*
X201471800Y-120956100D03*
X218590500Y-130845900D03*
X212611600Y-135978100D03*
D15*
X223320000Y-131980000D02*
X223320000Y-130530000D01*
X223950000Y-129900000D02*
X223950000Y-127784598D01*
X223950000Y-127784598D02*
X225027299Y-126707299D01*
X223320000Y-130530000D02*
X223950000Y-129900000D01*
X232237000Y-121620600D02*
X225441900Y-128415700D01*
X273770000Y-104420000D02*
X264000000Y-104420000D01*
X264000000Y-104420000D02*
X246799400Y-121620600D01*
X246799400Y-121620600D02*
X232237000Y-121620600D01*
X238670900Y-112674790D02*
X238670900Y-113576700D01*
X274959000Y-104953600D02*
X274959000Y-101365700D01*
X274959000Y-101365700D02*
X274203300Y-100610000D01*
X273860000Y-106060000D02*
X273860000Y-106052600D01*
X273770000Y-106150000D02*
X273860000Y-106060000D01*
X274203300Y-100610000D02*
X250735690Y-100610000D01*
X250735690Y-100610000D02*
X238670900Y-112674790D01*
X273860000Y-106052600D02*
X274959000Y-104953600D01*
X273770000Y-106960000D02*
X273770000Y-106150000D01*
X273770000Y-109500000D02*
X259730000Y-109500000D01*
X259730000Y-109500000D02*
X246880000Y-122350000D01*
X246880000Y-122350000D02*
X246110000Y-122350000D01*
X248652000Y-121238000D02*
X257850000Y-112040000D01*
X245770000Y-129870000D02*
X248652000Y-126988000D01*
X248652000Y-126988000D02*
X248652000Y-121238000D01*
X257850000Y-112040000D02*
X273770000Y-112040000D01*
X235670000Y-95448900D02*
X211614000Y-119504900D01*
X211614000Y-119504900D02*
X211614000Y-119719400D01*
X235670000Y-94260000D02*
X235670000Y-95448900D01*
X238210000Y-94260000D02*
X238210000Y-95448900D01*
X213099900Y-120559000D02*
X213099900Y-128572300D01*
X238210000Y-95448900D02*
X213099900Y-120559000D01*
X211120500Y-106267000D02*
X211120500Y-108949300D01*
X261070000Y-94260000D02*
X260252600Y-94260000D01*
X260252600Y-94260000D02*
X258532300Y-92539700D01*
X224847800Y-92539700D02*
X211120500Y-106267000D01*
X258532300Y-92539700D02*
X224847800Y-92539700D01*
X258530000Y-94260000D02*
X257880000Y-94260000D01*
X213461800Y-104582800D02*
X213461800Y-105912100D01*
X225017600Y-93027000D02*
X213461800Y-104582800D01*
X256647000Y-93027000D02*
X225017600Y-93027000D01*
X257880000Y-94260000D02*
X256647000Y-93027000D01*
X215710000Y-140320000D02*
X199915900Y-124525900D01*
X253790000Y-140320000D02*
X215710000Y-140320000D01*
X199915900Y-124525900D02*
X199915900Y-108077300D01*
X199915900Y-108077300D02*
X201565000Y-106428200D01*
X255990000Y-142520000D02*
X253790000Y-140320000D01*
X208446800Y-115783200D02*
X210796100Y-115783200D01*
X208190000Y-116040000D02*
X208446800Y-115783200D01*
X210796100Y-115783200D02*
X232319300Y-94260000D01*
X232319300Y-94260000D02*
X233130000Y-94260000D01*
X229761200Y-94260000D02*
X230590000Y-94260000D01*
X208113938Y-114893061D02*
X209128139Y-114893061D01*
X209128139Y-114893061D02*
X229761200Y-94260000D01*
X204116000Y-117866400D02*
X204116000Y-119355800D01*
X201665700Y-121806100D02*
X200641200Y-121806100D01*
X227722400Y-94260000D02*
X204116000Y-117866400D01*
X228050000Y-94260000D02*
X227722400Y-94260000D01*
X204116000Y-119355800D02*
X201665700Y-121806100D01*
X225510000Y-94260000D02*
X225510000Y-95448900D01*
X201471800Y-120956100D02*
X201471800Y-119623800D01*
X225510000Y-95585600D02*
X225510000Y-95448900D01*
X201471800Y-119623800D02*
X225510000Y-95585600D01*
X219864100Y-130845900D02*
X218590500Y-130845900D01*
X255990000Y-94260000D02*
X255990000Y-94720000D01*
X255990000Y-94720000D02*
X219864100Y-130845900D01*
X253450000Y-94260000D02*
X253450000Y-94960000D01*
X253160000Y-95250000D02*
X253160000Y-95250700D01*
X212611600Y-135799100D02*
X212611600Y-135978100D01*
X253450000Y-94960000D02*
X253160000Y-95250000D01*
X253160000Y-95250700D02*
X212611600Y-135799100D01*
G04 #@! TA.AperFunction,Conductor*
G36*
X247024733Y-93672185D02*
G01*
X247070488Y-93724989D01*
X247080432Y-93794147D01*
X247076476Y-93810543D01*
X247076648Y-93810587D01*
X247019892Y-94034710D01*
X247001225Y-94259993D01*
X247001225Y-94260006D01*
X247019892Y-94485289D01*
X247075388Y-94704439D01*
X247166198Y-94911466D01*
X247289842Y-95100716D01*
X247289850Y-95100727D01*
X247431352Y-95254437D01*
X247442954Y-95267040D01*
X247621351Y-95405893D01*
X247820169Y-95513488D01*
X247820172Y-95513489D01*
X248033982Y-95586890D01*
X248033984Y-95586890D01*
X248033986Y-95586891D01*
X248256967Y-95624100D01*
X248256968Y-95624100D01*
X248483032Y-95624100D01*
X248483033Y-95624100D01*
X248706014Y-95586891D01*
X248919831Y-95513488D01*
X249118649Y-95405893D01*
X249297046Y-95267040D01*
X249435257Y-95116904D01*
X249450149Y-95100727D01*
X249450149Y-95100726D01*
X249450156Y-95100719D01*
X249536193Y-94969028D01*
X249589338Y-94923675D01*
X249658569Y-94914251D01*
X249721905Y-94943753D01*
X249743804Y-94969025D01*
X249829844Y-95100719D01*
X249829849Y-95100724D01*
X249829850Y-95100727D01*
X249971352Y-95254437D01*
X249982954Y-95267040D01*
X250161351Y-95405893D01*
X250360169Y-95513488D01*
X250360172Y-95513489D01*
X250573982Y-95586890D01*
X250573984Y-95586890D01*
X250573986Y-95586891D01*
X250796967Y-95624100D01*
X250796968Y-95624100D01*
X251023032Y-95624100D01*
X251023033Y-95624100D01*
X251246014Y-95586891D01*
X251459831Y-95513488D01*
X251658649Y-95405893D01*
X251837046Y-95267040D01*
X251975257Y-95116904D01*
X251990149Y-95100727D01*
X251990149Y-95100726D01*
X251990156Y-95100719D01*
X252076193Y-94969028D01*
X252129338Y-94923675D01*
X252198569Y-94914251D01*
X252261905Y-94943753D01*
X252283804Y-94969025D01*
X252336719Y-95050017D01*
X252356905Y-95116904D01*
X252337725Y-95184089D01*
X252320590Y-95205517D01*
X212456005Y-135070102D01*
X212394682Y-135103587D01*
X212394106Y-135103711D01*
X212331796Y-135116956D01*
X212331792Y-135116957D01*
X212158870Y-135193948D01*
X212158865Y-135193951D01*
X212005729Y-135305211D01*
X211891361Y-135432230D01*
X211831874Y-135468879D01*
X211762017Y-135467548D01*
X211711530Y-135436939D01*
X200577719Y-124303128D01*
X200544234Y-124241805D01*
X200541400Y-124215447D01*
X200541400Y-122830600D01*
X200561085Y-122763561D01*
X200613889Y-122717806D01*
X200665400Y-122706600D01*
X200735844Y-122706600D01*
X200735846Y-122706600D01*
X200921003Y-122667244D01*
X201093930Y-122590251D01*
X201247071Y-122478988D01*
X201249988Y-122475747D01*
X201252800Y-122472626D01*
X201312287Y-122435979D01*
X201344948Y-122431600D01*
X201582957Y-122431600D01*
X201598577Y-122433324D01*
X201598604Y-122433039D01*
X201606366Y-122433773D01*
X201606366Y-122433772D01*
X201606367Y-122433773D01*
X201609699Y-122433668D01*
X201674547Y-122431631D01*
X201676494Y-122431600D01*
X201705047Y-122431600D01*
X201705050Y-122431600D01*
X201711928Y-122430730D01*
X201717741Y-122430272D01*
X201764327Y-122428809D01*
X201783569Y-122423217D01*
X201802612Y-122419274D01*
X201822492Y-122416764D01*
X201865822Y-122399607D01*
X201871346Y-122397717D01*
X201875096Y-122396627D01*
X201916090Y-122384718D01*
X201933329Y-122374522D01*
X201950803Y-122365962D01*
X201969427Y-122358588D01*
X201969427Y-122358587D01*
X201969432Y-122358586D01*
X202007149Y-122331182D01*
X202012005Y-122327992D01*
X202052120Y-122304270D01*
X202066289Y-122290099D01*
X202081079Y-122277468D01*
X202097287Y-122265694D01*
X202126999Y-122229776D01*
X202130912Y-122225476D01*
X204499788Y-119856601D01*
X204512042Y-119846786D01*
X204511859Y-119846564D01*
X204517868Y-119841591D01*
X204517877Y-119841586D01*
X204564607Y-119791822D01*
X204565846Y-119790543D01*
X204586120Y-119770271D01*
X204590379Y-119764778D01*
X204594152Y-119760361D01*
X204626062Y-119726382D01*
X204635713Y-119708824D01*
X204646396Y-119692561D01*
X204658673Y-119676736D01*
X204677185Y-119633953D01*
X204679738Y-119628741D01*
X204702197Y-119587892D01*
X204707180Y-119568480D01*
X204713481Y-119550080D01*
X204721437Y-119531696D01*
X204728729Y-119485652D01*
X204729906Y-119479971D01*
X204741500Y-119434819D01*
X204741500Y-119414782D01*
X204743027Y-119395382D01*
X204743609Y-119391708D01*
X204746160Y-119375604D01*
X204741775Y-119329218D01*
X204741500Y-119323380D01*
X204741500Y-118176851D01*
X204761185Y-118109812D01*
X204777814Y-118089175D01*
X207090676Y-115776312D01*
X207151997Y-115742829D01*
X207221689Y-115747813D01*
X207277622Y-115789685D01*
X207302039Y-115855149D01*
X207301676Y-115876956D01*
X207291465Y-115974107D01*
X207284540Y-116040000D01*
X207304326Y-116228256D01*
X207304327Y-116228259D01*
X207362818Y-116408277D01*
X207362821Y-116408284D01*
X207457467Y-116572216D01*
X207499998Y-116619451D01*
X207584129Y-116712888D01*
X207737265Y-116824148D01*
X207737270Y-116824151D01*
X207910192Y-116901142D01*
X207910197Y-116901144D01*
X208095354Y-116940500D01*
X208095355Y-116940500D01*
X208284644Y-116940500D01*
X208284646Y-116940500D01*
X208469803Y-116901144D01*
X208642730Y-116824151D01*
X208795871Y-116712888D01*
X208922533Y-116572216D01*
X208981143Y-116470699D01*
X209031709Y-116422485D01*
X209088530Y-116408700D01*
X210713357Y-116408700D01*
X210728977Y-116410424D01*
X210729004Y-116410139D01*
X210736766Y-116410873D01*
X210736766Y-116410872D01*
X210736767Y-116410873D01*
X210740099Y-116410768D01*
X210804947Y-116408731D01*
X210806894Y-116408700D01*
X210835447Y-116408700D01*
X210835450Y-116408700D01*
X210842328Y-116407830D01*
X210848141Y-116407372D01*
X210894727Y-116405909D01*
X210913969Y-116400317D01*
X210933012Y-116396374D01*
X210952892Y-116393864D01*
X210996222Y-116376707D01*
X211001746Y-116374817D01*
X211005496Y-116373727D01*
X211046490Y-116361818D01*
X211063729Y-116351622D01*
X211081203Y-116343062D01*
X211099827Y-116335688D01*
X211099827Y-116335687D01*
X211099832Y-116335686D01*
X211137549Y-116308282D01*
X211142405Y-116305092D01*
X211182520Y-116281370D01*
X211196689Y-116267199D01*
X211211479Y-116254568D01*
X211227687Y-116242794D01*
X211257399Y-116206876D01*
X211261312Y-116202576D01*
X232122092Y-95341797D01*
X232183413Y-95308314D01*
X232253105Y-95313298D01*
X232285933Y-95331626D01*
X232299004Y-95341799D01*
X232381351Y-95405893D01*
X232580169Y-95513488D01*
X232580172Y-95513489D01*
X232793982Y-95586890D01*
X232793984Y-95586890D01*
X232793986Y-95586891D01*
X233016967Y-95624100D01*
X233016968Y-95624100D01*
X233243032Y-95624100D01*
X233243033Y-95624100D01*
X233466014Y-95586891D01*
X233679831Y-95513488D01*
X233878649Y-95405893D01*
X234057046Y-95267040D01*
X234195257Y-95116904D01*
X234210149Y-95100727D01*
X234210149Y-95100726D01*
X234210156Y-95100719D01*
X234296193Y-94969028D01*
X234349338Y-94923675D01*
X234418569Y-94914251D01*
X234481905Y-94943753D01*
X234503804Y-94969025D01*
X234589844Y-95100719D01*
X234589849Y-95100724D01*
X234589850Y-95100727D01*
X234742950Y-95267036D01*
X234742956Y-95267042D01*
X234749729Y-95272313D01*
X234758281Y-95278970D01*
X234799095Y-95335678D01*
X234802771Y-95405451D01*
X234769802Y-95464505D01*
X211413323Y-118820984D01*
X211352000Y-118854469D01*
X211351428Y-118854592D01*
X211334199Y-118858254D01*
X211334194Y-118858256D01*
X211161270Y-118935248D01*
X211161265Y-118935251D01*
X211008129Y-119046511D01*
X210881466Y-119187185D01*
X210786821Y-119351115D01*
X210786818Y-119351122D01*
X210739581Y-119496505D01*
X210728326Y-119531144D01*
X210708540Y-119719400D01*
X210728326Y-119907656D01*
X210728327Y-119907659D01*
X210786818Y-120087677D01*
X210786821Y-120087684D01*
X210881467Y-120251616D01*
X210975238Y-120355759D01*
X211008129Y-120392288D01*
X211161265Y-120503548D01*
X211161270Y-120503551D01*
X211334192Y-120580542D01*
X211334197Y-120580544D01*
X211519354Y-120619900D01*
X211519355Y-120619900D01*
X211708644Y-120619900D01*
X211708646Y-120619900D01*
X211893803Y-120580544D01*
X212066730Y-120503551D01*
X212219871Y-120392288D01*
X212269629Y-120337025D01*
X212329112Y-120300379D01*
X212398969Y-120301708D01*
X212457018Y-120340594D01*
X212484828Y-120404691D01*
X212481882Y-120450832D01*
X212474401Y-120479971D01*
X212474400Y-120479982D01*
X212474400Y-120500016D01*
X212472873Y-120519415D01*
X212469740Y-120539194D01*
X212469740Y-120539195D01*
X212474125Y-120585583D01*
X212474400Y-120591421D01*
X212474400Y-127873612D01*
X212454715Y-127940651D01*
X212442550Y-127956584D01*
X212367366Y-128040084D01*
X212272721Y-128204015D01*
X212272718Y-128204022D01*
X212221607Y-128361327D01*
X212214226Y-128384044D01*
X212194440Y-128572300D01*
X212214226Y-128760556D01*
X212214227Y-128760559D01*
X212272718Y-128940577D01*
X212272721Y-128940584D01*
X212367367Y-129104516D01*
X212494028Y-129245187D01*
X212494029Y-129245188D01*
X212647165Y-129356448D01*
X212647170Y-129356451D01*
X212820092Y-129433442D01*
X212820097Y-129433444D01*
X213005254Y-129472800D01*
X213005255Y-129472800D01*
X213194544Y-129472800D01*
X213194546Y-129472800D01*
X213379703Y-129433444D01*
X213552630Y-129356451D01*
X213705771Y-129245188D01*
X213832433Y-129104516D01*
X213927079Y-128940584D01*
X213985574Y-128760556D01*
X214005360Y-128572300D01*
X213985574Y-128384044D01*
X213927079Y-128204016D01*
X213832433Y-128040084D01*
X213757248Y-127956583D01*
X213727019Y-127893593D01*
X213725399Y-127873624D01*
X213725399Y-120869450D01*
X213745084Y-120802412D01*
X213761713Y-120781775D01*
X232113504Y-102429985D01*
X235580000Y-102429985D01*
X235590493Y-102532689D01*
X235590494Y-102532696D01*
X235645641Y-102699118D01*
X235645643Y-102699123D01*
X235737684Y-102848344D01*
X235861655Y-102972315D01*
X236010876Y-103064356D01*
X236010881Y-103064358D01*
X236177303Y-103119505D01*
X236177310Y-103119506D01*
X236280014Y-103129999D01*
X236280027Y-103130000D01*
X237180000Y-103130000D01*
X237180000Y-102095319D01*
X237337557Y-102130000D01*
X237476084Y-102130000D01*
X237613802Y-102115022D01*
X237680000Y-102092717D01*
X237680000Y-103130000D01*
X238579973Y-103130000D01*
X238579985Y-103129999D01*
X238682689Y-103119506D01*
X238682696Y-103119505D01*
X238849118Y-103064358D01*
X238849123Y-103064356D01*
X238998344Y-102972315D01*
X239122315Y-102848344D01*
X239214356Y-102699123D01*
X239214358Y-102699118D01*
X239269505Y-102532696D01*
X239269506Y-102532689D01*
X239279999Y-102429985D01*
X239280000Y-102429972D01*
X239280000Y-101530000D01*
X238245376Y-101530000D01*
X238253847Y-101508740D01*
X238283758Y-101326289D01*
X238281248Y-101280001D01*
X239534773Y-101280001D01*
X239553657Y-101544027D01*
X239553658Y-101544034D01*
X239609921Y-101802673D01*
X239702426Y-102050690D01*
X239702428Y-102050694D01*
X239829280Y-102283005D01*
X239829285Y-102283013D01*
X239987906Y-102494907D01*
X239987922Y-102494925D01*
X240175074Y-102682077D01*
X240175092Y-102682093D01*
X240386986Y-102840714D01*
X240386994Y-102840719D01*
X240619305Y-102967571D01*
X240619309Y-102967573D01*
X240619311Y-102967574D01*
X240867322Y-103060077D01*
X240867325Y-103060077D01*
X240867326Y-103060078D01*
X241062552Y-103102546D01*
X241125974Y-103116343D01*
X241365686Y-103133488D01*
X241389999Y-103135227D01*
X241390000Y-103135227D01*
X241390001Y-103135227D01*
X241408885Y-103133876D01*
X241654026Y-103116343D01*
X241912678Y-103060077D01*
X242160689Y-102967574D01*
X242393011Y-102840716D01*
X242604915Y-102682087D01*
X242792087Y-102494915D01*
X242950716Y-102283011D01*
X243077574Y-102050689D01*
X243170077Y-101802678D01*
X243226343Y-101544026D01*
X243245227Y-101280000D01*
X243226343Y-101015974D01*
X243212546Y-100952551D01*
X243170078Y-100757326D01*
X243161417Y-100734106D01*
X243077574Y-100509311D01*
X243055969Y-100469745D01*
X242950719Y-100276994D01*
X242950714Y-100276986D01*
X242792093Y-100065092D01*
X242792077Y-100065074D01*
X242604925Y-99877922D01*
X242604907Y-99877906D01*
X242393013Y-99719285D01*
X242393005Y-99719280D01*
X242160694Y-99592428D01*
X242160690Y-99592426D01*
X241912673Y-99499921D01*
X241654034Y-99443658D01*
X241654027Y-99443657D01*
X241390001Y-99424773D01*
X241389999Y-99424773D01*
X241125972Y-99443657D01*
X241125965Y-99443658D01*
X240867326Y-99499921D01*
X240619309Y-99592426D01*
X240619305Y-99592428D01*
X240386994Y-99719280D01*
X240386986Y-99719285D01*
X240175092Y-99877906D01*
X240175074Y-99877922D01*
X239987922Y-100065074D01*
X239987906Y-100065092D01*
X239829285Y-100276986D01*
X239829280Y-100276994D01*
X239702428Y-100509305D01*
X239702426Y-100509309D01*
X239609921Y-100757326D01*
X239553658Y-101015965D01*
X239553657Y-101015972D01*
X239534773Y-101279998D01*
X239534773Y-101280001D01*
X238281248Y-101280001D01*
X238273749Y-101141674D01*
X238242742Y-101030000D01*
X239280000Y-101030000D01*
X239280000Y-100130027D01*
X239279999Y-100130014D01*
X239269506Y-100027310D01*
X239269505Y-100027303D01*
X239214358Y-99860881D01*
X239214356Y-99860876D01*
X239122315Y-99711655D01*
X238998344Y-99587684D01*
X238849123Y-99495643D01*
X238849118Y-99495641D01*
X238682696Y-99440494D01*
X238682689Y-99440493D01*
X238579985Y-99430000D01*
X237680000Y-99430000D01*
X237680000Y-100464680D01*
X237522443Y-100430000D01*
X237383916Y-100430000D01*
X237246198Y-100444978D01*
X237180000Y-100467282D01*
X237180000Y-99430000D01*
X236280014Y-99430000D01*
X236177310Y-99440493D01*
X236177303Y-99440494D01*
X236010881Y-99495641D01*
X236010876Y-99495643D01*
X235861655Y-99587684D01*
X235737684Y-99711655D01*
X235645643Y-99860876D01*
X235645641Y-99860881D01*
X235590494Y-100027303D01*
X235590493Y-100027310D01*
X235580000Y-100130014D01*
X235580000Y-101030000D01*
X236614624Y-101030000D01*
X236606153Y-101051260D01*
X236576242Y-101233711D01*
X236586251Y-101418326D01*
X236617258Y-101530000D01*
X235580000Y-101530000D01*
X235580000Y-102429985D01*
X232113504Y-102429985D01*
X238593788Y-95949701D01*
X238606042Y-95939886D01*
X238605859Y-95939664D01*
X238611868Y-95934691D01*
X238611877Y-95934686D01*
X238658607Y-95884922D01*
X238659846Y-95883643D01*
X238680120Y-95863371D01*
X238684379Y-95857878D01*
X238688152Y-95853461D01*
X238720062Y-95819482D01*
X238729715Y-95801920D01*
X238740389Y-95785670D01*
X238752673Y-95769836D01*
X238771180Y-95727067D01*
X238773749Y-95721824D01*
X238793014Y-95686781D01*
X238796197Y-95680992D01*
X238801178Y-95661589D01*
X238807478Y-95643188D01*
X238815438Y-95624796D01*
X238822730Y-95578749D01*
X238823911Y-95573052D01*
X238829950Y-95549535D01*
X238835500Y-95527919D01*
X238835500Y-95527917D01*
X238837440Y-95520362D01*
X238839704Y-95520943D01*
X238862956Y-95467627D01*
X238899032Y-95438156D01*
X238958639Y-95405899D01*
X238958642Y-95405896D01*
X238958649Y-95405893D01*
X239137046Y-95267040D01*
X239275257Y-95116904D01*
X239290149Y-95100727D01*
X239290149Y-95100726D01*
X239290156Y-95100719D01*
X239376193Y-94969028D01*
X239429338Y-94923675D01*
X239498569Y-94914251D01*
X239561905Y-94943753D01*
X239583804Y-94969025D01*
X239669844Y-95100719D01*
X239669849Y-95100724D01*
X239669850Y-95100727D01*
X239811352Y-95254437D01*
X239822954Y-95267040D01*
X240001351Y-95405893D01*
X240200169Y-95513488D01*
X240200172Y-95513489D01*
X240413982Y-95586890D01*
X240413984Y-95586890D01*
X240413986Y-95586891D01*
X240636967Y-95624100D01*
X240636968Y-95624100D01*
X240863032Y-95624100D01*
X240863033Y-95624100D01*
X241086014Y-95586891D01*
X241299831Y-95513488D01*
X241498649Y-95405893D01*
X241677046Y-95267040D01*
X241815257Y-95116904D01*
X241830149Y-95100727D01*
X241830151Y-95100724D01*
X241830156Y-95100719D01*
X241916193Y-94969029D01*
X241969336Y-94923675D01*
X242038567Y-94914251D01*
X242101903Y-94943753D01*
X242123807Y-94969031D01*
X242209842Y-95100716D01*
X242209850Y-95100727D01*
X242351352Y-95254437D01*
X242362954Y-95267040D01*
X242541351Y-95405893D01*
X242740169Y-95513488D01*
X242740172Y-95513489D01*
X242953982Y-95586890D01*
X242953984Y-95586890D01*
X242953986Y-95586891D01*
X243176967Y-95624100D01*
X243176968Y-95624100D01*
X243403032Y-95624100D01*
X243403033Y-95624100D01*
X243626014Y-95586891D01*
X243839831Y-95513488D01*
X244038649Y-95405893D01*
X244217046Y-95267040D01*
X244355257Y-95116904D01*
X244370149Y-95100727D01*
X244370151Y-95100724D01*
X244370156Y-95100719D01*
X244493802Y-94911465D01*
X244584611Y-94704441D01*
X244640107Y-94485293D01*
X244658775Y-94260000D01*
X244658775Y-94259993D01*
X244640107Y-94034710D01*
X244640107Y-94034707D01*
X244584611Y-93815559D01*
X244583352Y-93810587D01*
X244584729Y-93810238D01*
X244581875Y-93746964D01*
X244616962Y-93686543D01*
X244679144Y-93654682D01*
X244702306Y-93652500D01*
X246957694Y-93652500D01*
X247024733Y-93672185D01*
G37*
G04 #@! TD.AperFunction*
G04 #@! TA.AperFunction,Conductor*
G36*
X272440386Y-101255185D02*
G01*
X272486141Y-101307989D01*
X272496085Y-101377147D01*
X272486904Y-101409307D01*
X272482948Y-101418326D01*
X272475388Y-101435561D01*
X272419892Y-101654710D01*
X272401225Y-101879993D01*
X272401225Y-101880006D01*
X272419892Y-102105289D01*
X272475388Y-102324439D01*
X272566198Y-102531466D01*
X272689842Y-102720716D01*
X272689850Y-102720727D01*
X272842950Y-102887036D01*
X272842954Y-102887040D01*
X273021351Y-103025893D01*
X273021353Y-103025894D01*
X273021356Y-103025896D01*
X273021362Y-103025899D01*
X273049163Y-103040944D01*
X273098754Y-103090161D01*
X273113864Y-103158378D01*
X273089694Y-103223934D01*
X273049167Y-103259052D01*
X273021361Y-103274100D01*
X273021353Y-103274105D01*
X272842955Y-103412959D01*
X272842950Y-103412963D01*
X272689850Y-103579272D01*
X272689842Y-103579283D01*
X272585937Y-103738322D01*
X272532791Y-103783678D01*
X272482129Y-103794500D01*
X264082743Y-103794500D01*
X264067122Y-103792775D01*
X264067096Y-103793061D01*
X264059333Y-103792326D01*
X263991153Y-103794469D01*
X263989206Y-103794500D01*
X263960649Y-103794500D01*
X263953766Y-103795369D01*
X263947949Y-103795826D01*
X263901373Y-103797290D01*
X263882129Y-103802881D01*
X263863079Y-103806825D01*
X263843211Y-103809334D01*
X263799884Y-103826488D01*
X263794358Y-103828379D01*
X263749614Y-103841379D01*
X263749610Y-103841381D01*
X263732366Y-103851579D01*
X263714905Y-103860133D01*
X263696274Y-103867510D01*
X263696262Y-103867517D01*
X263658570Y-103894902D01*
X263653687Y-103898109D01*
X263613580Y-103921829D01*
X263599414Y-103935995D01*
X263584624Y-103948627D01*
X263568414Y-103960404D01*
X263568411Y-103960407D01*
X263538710Y-103996309D01*
X263534777Y-104000631D01*
X247532780Y-120002628D01*
X247471457Y-120036113D01*
X247401765Y-120031129D01*
X247345832Y-119989257D01*
X247321415Y-119923793D01*
X247321099Y-119914947D01*
X247321099Y-118748529D01*
X247321098Y-118748523D01*
X247319847Y-118736889D01*
X247314691Y-118688917D01*
X247308154Y-118671391D01*
X247264397Y-118554071D01*
X247264393Y-118554064D01*
X247178147Y-118438855D01*
X247178144Y-118438852D01*
X247062935Y-118352606D01*
X247062928Y-118352602D01*
X246948016Y-118309743D01*
X246892082Y-118267872D01*
X246867665Y-118202408D01*
X246882517Y-118134135D01*
X246900113Y-118109586D01*
X247037156Y-117960719D01*
X247160802Y-117771465D01*
X247251611Y-117564441D01*
X247307107Y-117345293D01*
X247325775Y-117120000D01*
X247325775Y-117119993D01*
X247307107Y-116894710D01*
X247307107Y-116894707D01*
X247251611Y-116675559D01*
X247160802Y-116468535D01*
X247123129Y-116410873D01*
X247078826Y-116343062D01*
X247037156Y-116279281D01*
X247037153Y-116279278D01*
X247037149Y-116279272D01*
X246884049Y-116112963D01*
X246884048Y-116112962D01*
X246884046Y-116112960D01*
X246705649Y-115974107D01*
X246705647Y-115974106D01*
X246705646Y-115974105D01*
X246705639Y-115974100D01*
X246677836Y-115959055D01*
X246628244Y-115909837D01*
X246613135Y-115841620D01*
X246637306Y-115776064D01*
X246677836Y-115740945D01*
X246705639Y-115725899D01*
X246705642Y-115725896D01*
X246705649Y-115725893D01*
X246884046Y-115587040D01*
X247037156Y-115420719D01*
X247160802Y-115231465D01*
X247251611Y-115024441D01*
X247307107Y-114805293D01*
X247325775Y-114580000D01*
X247325775Y-114579993D01*
X247307107Y-114354710D01*
X247307107Y-114354707D01*
X247251611Y-114135559D01*
X247160802Y-113928535D01*
X247143924Y-113902702D01*
X247037157Y-113739283D01*
X247037149Y-113739272D01*
X246884049Y-113572963D01*
X246884048Y-113572962D01*
X246884046Y-113572960D01*
X246705649Y-113434107D01*
X246677832Y-113419053D01*
X246506832Y-113326512D01*
X246506827Y-113326510D01*
X246293017Y-113253109D01*
X246125778Y-113225202D01*
X246070033Y-113215900D01*
X245843967Y-113215900D01*
X245799370Y-113223341D01*
X245620982Y-113253109D01*
X245407172Y-113326510D01*
X245407167Y-113326512D01*
X245208352Y-113434106D01*
X245029955Y-113572959D01*
X245029950Y-113572963D01*
X244876850Y-113739272D01*
X244876846Y-113739278D01*
X244790807Y-113870969D01*
X244737660Y-113916325D01*
X244668429Y-113925748D01*
X244605093Y-113896245D01*
X244583192Y-113870969D01*
X244497156Y-113739281D01*
X244497151Y-113739276D01*
X244497149Y-113739272D01*
X244344049Y-113572963D01*
X244344048Y-113572962D01*
X244344046Y-113572960D01*
X244165649Y-113434107D01*
X244137832Y-113419053D01*
X243966832Y-113326512D01*
X243966827Y-113326510D01*
X243753017Y-113253109D01*
X243585778Y-113225202D01*
X243530033Y-113215900D01*
X243303967Y-113215900D01*
X243259370Y-113223341D01*
X243080982Y-113253109D01*
X242867172Y-113326510D01*
X242867167Y-113326512D01*
X242668352Y-113434106D01*
X242489955Y-113572959D01*
X242489950Y-113572963D01*
X242336850Y-113739272D01*
X242336842Y-113739283D01*
X242213198Y-113928533D01*
X242122388Y-114135560D01*
X242066892Y-114354710D01*
X242048225Y-114579993D01*
X242048225Y-114580006D01*
X242066892Y-114805289D01*
X242122388Y-115024439D01*
X242213198Y-115231466D01*
X242336842Y-115420716D01*
X242336850Y-115420727D01*
X242489950Y-115587036D01*
X242489954Y-115587040D01*
X242668351Y-115725893D01*
X242668353Y-115725894D01*
X242668356Y-115725896D01*
X242668362Y-115725899D01*
X242696163Y-115740944D01*
X242745754Y-115790161D01*
X242760864Y-115858378D01*
X242736694Y-115923934D01*
X242696167Y-115959052D01*
X242668361Y-115974100D01*
X242668353Y-115974105D01*
X242489955Y-116112959D01*
X242489950Y-116112963D01*
X242336850Y-116279272D01*
X242336842Y-116279283D01*
X242213198Y-116468533D01*
X242122388Y-116675560D01*
X242066892Y-116894710D01*
X242048225Y-117119993D01*
X242048225Y-117120006D01*
X242066892Y-117345289D01*
X242122388Y-117564439D01*
X242213198Y-117771466D01*
X242336842Y-117960716D01*
X242336850Y-117960727D01*
X242473878Y-118109577D01*
X242489954Y-118127040D01*
X242668351Y-118265893D01*
X242696159Y-118280942D01*
X242696165Y-118280945D01*
X242745755Y-118330165D01*
X242760863Y-118398382D01*
X242736692Y-118463937D01*
X242696165Y-118499055D01*
X242668352Y-118514106D01*
X242489955Y-118652959D01*
X242489950Y-118652963D01*
X242336850Y-118819272D01*
X242336842Y-118819283D01*
X242213198Y-119008533D01*
X242122388Y-119215560D01*
X242066892Y-119434710D01*
X242048225Y-119659993D01*
X242048225Y-119660006D01*
X242066892Y-119885289D01*
X242122388Y-120104439D01*
X242213198Y-120311466D01*
X242336842Y-120500716D01*
X242336850Y-120500727D01*
X242440752Y-120613593D01*
X242489954Y-120667040D01*
X242619466Y-120767844D01*
X242626408Y-120773247D01*
X242667221Y-120829957D01*
X242670895Y-120899730D01*
X242636263Y-120960413D01*
X242574322Y-120992740D01*
X242550245Y-120995100D01*
X232319743Y-120995100D01*
X232304122Y-120993375D01*
X232304095Y-120993661D01*
X232296333Y-120992926D01*
X232228140Y-120995069D01*
X232226193Y-120995100D01*
X232197649Y-120995100D01*
X232190778Y-120995967D01*
X232184959Y-120996425D01*
X232138374Y-120997889D01*
X232138368Y-120997890D01*
X232119126Y-121003480D01*
X232100087Y-121007423D01*
X232080217Y-121009934D01*
X232080203Y-121009937D01*
X232036883Y-121027088D01*
X232031358Y-121028980D01*
X231986613Y-121041980D01*
X231986610Y-121041981D01*
X231969366Y-121052179D01*
X231951905Y-121060733D01*
X231933274Y-121068110D01*
X231933262Y-121068117D01*
X231895570Y-121095502D01*
X231890687Y-121098709D01*
X231850580Y-121122429D01*
X231836414Y-121136595D01*
X231821624Y-121149227D01*
X231805414Y-121161004D01*
X231805411Y-121161007D01*
X231775710Y-121196909D01*
X231771777Y-121201231D01*
X226141258Y-126831750D01*
X226079935Y-126865235D01*
X226010243Y-126860251D01*
X225954310Y-126818379D01*
X225929893Y-126752915D01*
X225930255Y-126731115D01*
X225932759Y-126707299D01*
X225912973Y-126519043D01*
X225854478Y-126339015D01*
X225759832Y-126175083D01*
X225722935Y-126134105D01*
X225677324Y-126083448D01*
X225647094Y-126020456D01*
X225655720Y-125951121D01*
X225681790Y-125912798D01*
X237658403Y-113936185D01*
X237719724Y-113902702D01*
X237789416Y-113907686D01*
X237845349Y-113949558D01*
X237853468Y-113961867D01*
X237938367Y-114108916D01*
X238010887Y-114189457D01*
X238065029Y-114249588D01*
X238218165Y-114360848D01*
X238218170Y-114360851D01*
X238391092Y-114437842D01*
X238391097Y-114437844D01*
X238576254Y-114477200D01*
X238576255Y-114477200D01*
X238765544Y-114477200D01*
X238765546Y-114477200D01*
X238950703Y-114437844D01*
X239123630Y-114360851D01*
X239276771Y-114249588D01*
X239403433Y-114108916D01*
X239498079Y-113944984D01*
X239556574Y-113764956D01*
X239576360Y-113576700D01*
X239556574Y-113388444D01*
X239498079Y-113208416D01*
X239403433Y-113044484D01*
X239379052Y-113017406D01*
X239348824Y-112954416D01*
X239357450Y-112885081D01*
X239383520Y-112846758D01*
X242662515Y-109567763D01*
X243975787Y-109567763D01*
X244005413Y-109837013D01*
X244005415Y-109837024D01*
X244048166Y-110000548D01*
X244073928Y-110099088D01*
X244179870Y-110348390D01*
X244251998Y-110466575D01*
X244320979Y-110579605D01*
X244320986Y-110579615D01*
X244494253Y-110787819D01*
X244494259Y-110787824D01*
X244612879Y-110894107D01*
X244695998Y-110968582D01*
X244921910Y-111118044D01*
X245167176Y-111233020D01*
X245167183Y-111233022D01*
X245167185Y-111233023D01*
X245426557Y-111311057D01*
X245426564Y-111311058D01*
X245426569Y-111311060D01*
X245694561Y-111350500D01*
X245694566Y-111350500D01*
X245897629Y-111350500D01*
X245897631Y-111350500D01*
X245897636Y-111350499D01*
X245897648Y-111350499D01*
X245935191Y-111347750D01*
X246100156Y-111335677D01*
X246212758Y-111310593D01*
X246364546Y-111276782D01*
X246364548Y-111276781D01*
X246364553Y-111276780D01*
X246617558Y-111180014D01*
X246853777Y-111047441D01*
X247068177Y-110881888D01*
X247256186Y-110686881D01*
X247413799Y-110466579D01*
X247487787Y-110322669D01*
X247537649Y-110225690D01*
X247537651Y-110225684D01*
X247537656Y-110225675D01*
X247625118Y-109969305D01*
X247674319Y-109702933D01*
X247684212Y-109432235D01*
X247654586Y-109162982D01*
X247586072Y-108900912D01*
X247480130Y-108651610D01*
X247339018Y-108420390D01*
X247283857Y-108354107D01*
X247165746Y-108212180D01*
X247165740Y-108212175D01*
X246964002Y-108031418D01*
X246738092Y-107881957D01*
X246659695Y-107845206D01*
X246492824Y-107766980D01*
X246492819Y-107766978D01*
X246492814Y-107766976D01*
X246233442Y-107688942D01*
X246233428Y-107688939D01*
X246108941Y-107670619D01*
X245965439Y-107649500D01*
X245762369Y-107649500D01*
X245762351Y-107649500D01*
X245559844Y-107664323D01*
X245559831Y-107664325D01*
X245295453Y-107723217D01*
X245295446Y-107723220D01*
X245042439Y-107819987D01*
X244806226Y-107952557D01*
X244806224Y-107952558D01*
X244806223Y-107952559D01*
X244747022Y-107998272D01*
X244591822Y-108118112D01*
X244403822Y-108313109D01*
X244403816Y-108313116D01*
X244246202Y-108533419D01*
X244246199Y-108533424D01*
X244122350Y-108774309D01*
X244122343Y-108774327D01*
X244034884Y-109030685D01*
X244034881Y-109030699D01*
X243985681Y-109297068D01*
X243985680Y-109297075D01*
X243975787Y-109567763D01*
X242662515Y-109567763D01*
X250958460Y-101271819D01*
X251019784Y-101238334D01*
X251046142Y-101235500D01*
X272373347Y-101235500D01*
X272440386Y-101255185D01*
G37*
G04 #@! TD.AperFunction*
G04 #@! TA.AperFunction,Conductor*
G36*
X279982539Y-88650185D02*
G01*
X280028294Y-88702989D01*
X280039500Y-88754500D01*
X280039500Y-148505500D01*
X280019815Y-148572539D01*
X279967011Y-148618294D01*
X279915500Y-148629500D01*
X190164500Y-148629500D01*
X190097461Y-148609815D01*
X190051706Y-148557011D01*
X190040500Y-148505500D01*
X190040500Y-142587763D01*
X191905787Y-142587763D01*
X191935413Y-142857013D01*
X191935415Y-142857024D01*
X191978166Y-143020548D01*
X192003928Y-143119088D01*
X192109870Y-143368390D01*
X192206691Y-143527036D01*
X192250979Y-143599605D01*
X192250986Y-143599615D01*
X192424253Y-143807819D01*
X192424259Y-143807824D01*
X192509389Y-143884100D01*
X192625998Y-143988582D01*
X192851910Y-144138044D01*
X193097176Y-144253020D01*
X193097183Y-144253022D01*
X193097185Y-144253023D01*
X193356557Y-144331057D01*
X193356564Y-144331058D01*
X193356569Y-144331060D01*
X193624561Y-144370500D01*
X193624566Y-144370500D01*
X193827629Y-144370500D01*
X193827631Y-144370500D01*
X193827636Y-144370499D01*
X193827648Y-144370499D01*
X193865191Y-144367750D01*
X194030156Y-144355677D01*
X194142758Y-144330593D01*
X194294546Y-144296782D01*
X194294548Y-144296781D01*
X194294553Y-144296780D01*
X194547558Y-144200014D01*
X194783777Y-144067441D01*
X194998177Y-143901888D01*
X195186186Y-143706881D01*
X195343799Y-143486579D01*
X195417787Y-143342669D01*
X195467649Y-143245690D01*
X195467651Y-143245684D01*
X195467656Y-143245675D01*
X195555118Y-142989305D01*
X195604319Y-142722933D01*
X195614212Y-142452235D01*
X195584586Y-142182982D01*
X195516072Y-141920912D01*
X195410130Y-141671610D01*
X195269018Y-141440390D01*
X195247114Y-141414069D01*
X195095746Y-141232180D01*
X195095740Y-141232175D01*
X194894002Y-141051418D01*
X194668092Y-140901957D01*
X194668090Y-140901956D01*
X194422824Y-140786980D01*
X194422819Y-140786978D01*
X194422814Y-140786976D01*
X194163442Y-140708942D01*
X194163428Y-140708939D01*
X194047791Y-140691921D01*
X193895439Y-140669500D01*
X193692369Y-140669500D01*
X193692351Y-140669500D01*
X193489844Y-140684323D01*
X193489831Y-140684325D01*
X193225453Y-140743217D01*
X193225446Y-140743220D01*
X192972439Y-140839987D01*
X192736226Y-140972557D01*
X192521822Y-141138112D01*
X192333822Y-141333109D01*
X192333816Y-141333116D01*
X192176202Y-141553419D01*
X192176199Y-141553424D01*
X192052350Y-141794309D01*
X192052343Y-141794327D01*
X191964884Y-142050685D01*
X191964881Y-142050699D01*
X191915681Y-142317068D01*
X191915680Y-142317075D01*
X191905787Y-142587763D01*
X190040500Y-142587763D01*
X190040500Y-94327763D01*
X193175787Y-94327763D01*
X193205413Y-94597013D01*
X193205415Y-94597024D01*
X193272245Y-94852651D01*
X193273928Y-94859088D01*
X193379870Y-95108390D01*
X193474754Y-95263862D01*
X193520979Y-95339605D01*
X193520986Y-95339615D01*
X193694253Y-95547819D01*
X193694259Y-95547824D01*
X193812879Y-95654107D01*
X193895998Y-95728582D01*
X194121910Y-95878044D01*
X194367176Y-95993020D01*
X194367183Y-95993022D01*
X194367185Y-95993023D01*
X194626557Y-96071057D01*
X194626564Y-96071058D01*
X194626569Y-96071060D01*
X194894561Y-96110500D01*
X194894566Y-96110500D01*
X195097629Y-96110500D01*
X195097631Y-96110500D01*
X195097636Y-96110499D01*
X195097648Y-96110499D01*
X195135191Y-96107750D01*
X195300156Y-96095677D01*
X195412758Y-96070593D01*
X195564546Y-96036782D01*
X195564548Y-96036781D01*
X195564553Y-96036780D01*
X195817558Y-95940014D01*
X196053777Y-95807441D01*
X196268177Y-95641888D01*
X196456186Y-95446881D01*
X196613799Y-95226579D01*
X196736085Y-94988731D01*
X196737649Y-94985690D01*
X196737651Y-94985684D01*
X196737656Y-94985675D01*
X196825118Y-94729305D01*
X196874319Y-94462933D01*
X196881735Y-94260006D01*
X197217225Y-94260006D01*
X197235892Y-94485289D01*
X197291388Y-94704439D01*
X197382198Y-94911466D01*
X197505842Y-95100716D01*
X197505850Y-95100727D01*
X197647352Y-95254437D01*
X197658954Y-95267040D01*
X197837351Y-95405893D01*
X198036169Y-95513488D01*
X198036172Y-95513489D01*
X198249982Y-95586890D01*
X198249984Y-95586890D01*
X198249986Y-95586891D01*
X198472967Y-95624100D01*
X198472968Y-95624100D01*
X198699032Y-95624100D01*
X198699033Y-95624100D01*
X198922014Y-95586891D01*
X199135831Y-95513488D01*
X199334649Y-95405893D01*
X199513046Y-95267040D01*
X199651257Y-95116904D01*
X199666149Y-95100727D01*
X199666149Y-95100726D01*
X199666156Y-95100719D01*
X199752193Y-94969028D01*
X199805338Y-94923675D01*
X199874569Y-94914251D01*
X199937905Y-94943753D01*
X199959804Y-94969025D01*
X200045844Y-95100719D01*
X200045849Y-95100724D01*
X200045850Y-95100727D01*
X200187352Y-95254437D01*
X200198954Y-95267040D01*
X200377351Y-95405893D01*
X200576169Y-95513488D01*
X200576172Y-95513489D01*
X200789982Y-95586890D01*
X200789984Y-95586890D01*
X200789986Y-95586891D01*
X201012967Y-95624100D01*
X201012968Y-95624100D01*
X201239032Y-95624100D01*
X201239033Y-95624100D01*
X201462014Y-95586891D01*
X201675831Y-95513488D01*
X201874649Y-95405893D01*
X202053046Y-95267040D01*
X202191257Y-95116904D01*
X202206149Y-95100727D01*
X202206149Y-95100726D01*
X202206156Y-95100719D01*
X202292193Y-94969028D01*
X202345338Y-94923675D01*
X202414569Y-94914251D01*
X202477905Y-94943753D01*
X202499804Y-94969025D01*
X202585844Y-95100719D01*
X202585849Y-95100724D01*
X202585850Y-95100727D01*
X202727352Y-95254437D01*
X202738954Y-95267040D01*
X202917351Y-95405893D01*
X203116169Y-95513488D01*
X203116172Y-95513489D01*
X203329982Y-95586890D01*
X203329984Y-95586890D01*
X203329986Y-95586891D01*
X203552967Y-95624100D01*
X203552968Y-95624100D01*
X203779032Y-95624100D01*
X203779033Y-95624100D01*
X204002014Y-95586891D01*
X204215831Y-95513488D01*
X204414649Y-95405893D01*
X204593046Y-95267040D01*
X204647815Y-95207545D01*
X204707699Y-95171557D01*
X204777537Y-95173657D01*
X204835153Y-95213180D01*
X204855224Y-95248196D01*
X204899046Y-95365688D01*
X204899049Y-95365693D01*
X204985209Y-95480787D01*
X204985212Y-95480790D01*
X205100306Y-95566950D01*
X205100313Y-95566954D01*
X205235020Y-95617196D01*
X205235027Y-95617198D01*
X205294555Y-95623599D01*
X205294572Y-95623600D01*
X205956000Y-95623600D01*
X205955999Y-94704297D01*
X206061408Y-94752435D01*
X206169666Y-94768000D01*
X206242334Y-94768000D01*
X206350592Y-94752435D01*
X206456000Y-94704297D01*
X206456000Y-95623600D01*
X207117428Y-95623600D01*
X207117444Y-95623599D01*
X207176972Y-95617198D01*
X207176979Y-95617196D01*
X207311686Y-95566954D01*
X207311693Y-95566950D01*
X207426787Y-95480790D01*
X207426790Y-95480787D01*
X207512950Y-95365693D01*
X207512954Y-95365686D01*
X207556775Y-95248197D01*
X207598646Y-95192263D01*
X207664110Y-95167846D01*
X207732383Y-95182698D01*
X207764186Y-95207547D01*
X207807352Y-95254437D01*
X207818954Y-95267040D01*
X207997351Y-95405893D01*
X208196169Y-95513488D01*
X208196172Y-95513489D01*
X208409982Y-95586890D01*
X208409984Y-95586890D01*
X208409986Y-95586891D01*
X208632967Y-95624100D01*
X208632968Y-95624100D01*
X208859032Y-95624100D01*
X208859033Y-95624100D01*
X209082014Y-95586891D01*
X209295831Y-95513488D01*
X209494649Y-95405893D01*
X209673046Y-95267040D01*
X209811257Y-95116904D01*
X209826149Y-95100727D01*
X209826149Y-95100726D01*
X209826156Y-95100719D01*
X209912193Y-94969028D01*
X209965338Y-94923675D01*
X210034569Y-94914251D01*
X210097905Y-94943753D01*
X210119804Y-94969025D01*
X210205844Y-95100719D01*
X210205849Y-95100724D01*
X210205850Y-95100727D01*
X210347352Y-95254437D01*
X210358954Y-95267040D01*
X210537351Y-95405893D01*
X210736169Y-95513488D01*
X210736172Y-95513489D01*
X210949982Y-95586890D01*
X210949984Y-95586890D01*
X210949986Y-95586891D01*
X211172967Y-95624100D01*
X211172968Y-95624100D01*
X211399032Y-95624100D01*
X211399033Y-95624100D01*
X211622014Y-95586891D01*
X211835831Y-95513488D01*
X212034649Y-95405893D01*
X212213046Y-95267040D01*
X212351257Y-95116904D01*
X212366149Y-95100727D01*
X212366151Y-95100724D01*
X212366156Y-95100719D01*
X212452193Y-94969029D01*
X212505336Y-94923675D01*
X212574567Y-94914251D01*
X212637903Y-94943753D01*
X212659807Y-94969031D01*
X212745842Y-95100716D01*
X212745850Y-95100727D01*
X212887352Y-95254437D01*
X212898954Y-95267040D01*
X213077351Y-95405893D01*
X213276169Y-95513488D01*
X213276172Y-95513489D01*
X213489982Y-95586890D01*
X213489984Y-95586890D01*
X213489986Y-95586891D01*
X213712967Y-95624100D01*
X213712968Y-95624100D01*
X213939032Y-95624100D01*
X213939033Y-95624100D01*
X214162014Y-95586891D01*
X214375831Y-95513488D01*
X214574649Y-95405893D01*
X214753046Y-95267040D01*
X214891257Y-95116904D01*
X214906149Y-95100727D01*
X214906149Y-95100726D01*
X214906156Y-95100719D01*
X214992193Y-94969028D01*
X215045338Y-94923675D01*
X215114569Y-94914251D01*
X215177905Y-94943753D01*
X215199804Y-94969025D01*
X215285844Y-95100719D01*
X215285849Y-95100724D01*
X215285850Y-95100727D01*
X215427352Y-95254437D01*
X215438954Y-95267040D01*
X215617351Y-95405893D01*
X215816169Y-95513488D01*
X215816172Y-95513489D01*
X216029982Y-95586890D01*
X216029984Y-95586890D01*
X216029986Y-95586891D01*
X216252967Y-95624100D01*
X216252968Y-95624100D01*
X216479032Y-95624100D01*
X216479033Y-95624100D01*
X216702014Y-95586891D01*
X216915831Y-95513488D01*
X217114649Y-95405893D01*
X217293046Y-95267040D01*
X217431257Y-95116904D01*
X217446149Y-95100727D01*
X217446149Y-95100726D01*
X217446156Y-95100719D01*
X217532193Y-94969028D01*
X217585338Y-94923675D01*
X217654569Y-94914251D01*
X217717905Y-94943753D01*
X217739804Y-94969025D01*
X217825844Y-95100719D01*
X217825849Y-95100724D01*
X217825850Y-95100727D01*
X217967352Y-95254437D01*
X217978954Y-95267040D01*
X218157351Y-95405893D01*
X218356169Y-95513488D01*
X218356172Y-95513489D01*
X218569982Y-95586890D01*
X218569984Y-95586890D01*
X218569986Y-95586891D01*
X218792967Y-95624100D01*
X218792968Y-95624100D01*
X219019032Y-95624100D01*
X219019033Y-95624100D01*
X219242014Y-95586891D01*
X219455831Y-95513488D01*
X219654649Y-95405893D01*
X219833046Y-95267040D01*
X219971257Y-95116904D01*
X219986149Y-95100727D01*
X219986149Y-95100726D01*
X219986156Y-95100719D01*
X220072193Y-94969028D01*
X220125338Y-94923675D01*
X220194569Y-94914251D01*
X220257905Y-94943753D01*
X220279804Y-94969025D01*
X220365844Y-95100719D01*
X220365849Y-95100724D01*
X220365850Y-95100727D01*
X220507352Y-95254437D01*
X220518954Y-95267040D01*
X220697351Y-95405893D01*
X220805658Y-95464506D01*
X220810424Y-95467085D01*
X220860014Y-95516305D01*
X220875122Y-95584521D01*
X220850952Y-95650077D01*
X220839087Y-95663821D01*
X210736708Y-105766199D01*
X210724451Y-105776020D01*
X210724634Y-105776241D01*
X210718622Y-105781214D01*
X210671932Y-105830932D01*
X210670579Y-105832329D01*
X210650389Y-105852519D01*
X210650377Y-105852532D01*
X210646121Y-105858017D01*
X210642337Y-105862447D01*
X210610437Y-105896418D01*
X210610436Y-105896420D01*
X210600784Y-105913976D01*
X210590110Y-105930226D01*
X210577829Y-105946061D01*
X210577824Y-105946068D01*
X210559315Y-105988838D01*
X210556745Y-105994084D01*
X210534303Y-106034906D01*
X210529322Y-106054307D01*
X210523021Y-106072710D01*
X210515062Y-106091102D01*
X210515061Y-106091105D01*
X210507771Y-106137127D01*
X210506587Y-106142846D01*
X210495001Y-106187972D01*
X210495000Y-106187982D01*
X210495000Y-106208016D01*
X210493473Y-106227415D01*
X210490340Y-106247194D01*
X210490340Y-106247195D01*
X210494725Y-106293583D01*
X210495000Y-106299421D01*
X210494999Y-108250612D01*
X210475314Y-108317652D01*
X210463150Y-108333583D01*
X210387966Y-108417085D01*
X210293321Y-108581015D01*
X210293318Y-108581022D01*
X210234827Y-108761040D01*
X210234826Y-108761044D01*
X210215040Y-108949300D01*
X210234826Y-109137556D01*
X210234827Y-109137559D01*
X210293318Y-109317577D01*
X210293321Y-109317584D01*
X210359514Y-109432235D01*
X210387967Y-109481516D01*
X210471042Y-109573780D01*
X210501273Y-109636771D01*
X210492648Y-109706106D01*
X210466574Y-109744433D01*
X201088008Y-119122999D01*
X201075751Y-119132820D01*
X201075934Y-119133041D01*
X201069922Y-119138014D01*
X201023232Y-119187732D01*
X201021879Y-119189129D01*
X201001689Y-119209319D01*
X201001677Y-119209332D01*
X200997421Y-119214817D01*
X200993637Y-119219247D01*
X200961737Y-119253218D01*
X200961736Y-119253220D01*
X200952084Y-119270776D01*
X200941410Y-119287026D01*
X200929129Y-119302861D01*
X200929124Y-119302868D01*
X200910615Y-119345638D01*
X200908045Y-119350884D01*
X200885603Y-119391706D01*
X200880622Y-119411107D01*
X200874321Y-119429510D01*
X200866362Y-119447902D01*
X200866361Y-119447905D01*
X200859071Y-119493927D01*
X200857887Y-119499646D01*
X200846301Y-119544772D01*
X200846300Y-119544782D01*
X200846300Y-119564816D01*
X200844773Y-119584215D01*
X200841640Y-119603994D01*
X200841639Y-119603997D01*
X200846024Y-119650385D01*
X200846299Y-119656221D01*
X200846299Y-120257412D01*
X200826614Y-120324451D01*
X200814449Y-120340384D01*
X200757550Y-120403577D01*
X200698064Y-120440226D01*
X200628207Y-120438896D01*
X200570158Y-120400009D01*
X200542348Y-120335912D01*
X200541400Y-120320605D01*
X200541400Y-108387751D01*
X200561085Y-108320712D01*
X200577719Y-108300070D01*
X201512771Y-107365019D01*
X201574094Y-107331534D01*
X201600452Y-107328700D01*
X201659644Y-107328700D01*
X201659646Y-107328700D01*
X201844803Y-107289344D01*
X202017730Y-107212351D01*
X202170871Y-107101088D01*
X202297533Y-106960416D01*
X202392179Y-106796484D01*
X202450674Y-106616456D01*
X202470460Y-106428200D01*
X202450674Y-106239944D01*
X202392179Y-106059916D01*
X202297533Y-105895984D01*
X202170871Y-105755312D01*
X202127559Y-105723844D01*
X202017734Y-105644051D01*
X202017729Y-105644048D01*
X201844807Y-105567057D01*
X201844802Y-105567055D01*
X201699001Y-105536065D01*
X201659646Y-105527700D01*
X201470354Y-105527700D01*
X201437897Y-105534598D01*
X201285197Y-105567055D01*
X201285192Y-105567057D01*
X201112270Y-105644048D01*
X201112265Y-105644051D01*
X200959129Y-105755311D01*
X200832466Y-105895985D01*
X200737821Y-106059915D01*
X200737818Y-106059922D01*
X200683397Y-106227415D01*
X200679326Y-106239944D01*
X200672117Y-106308535D01*
X200661679Y-106407849D01*
X200635094Y-106472463D01*
X200626039Y-106482568D01*
X199532108Y-107576499D01*
X199519851Y-107586320D01*
X199520034Y-107586541D01*
X199514022Y-107591514D01*
X199467332Y-107641232D01*
X199465979Y-107642629D01*
X199445789Y-107662819D01*
X199445777Y-107662832D01*
X199441521Y-107668317D01*
X199437737Y-107672747D01*
X199405837Y-107706718D01*
X199405836Y-107706720D01*
X199396184Y-107724276D01*
X199385510Y-107740526D01*
X199373229Y-107756361D01*
X199373224Y-107756368D01*
X199354715Y-107799138D01*
X199352145Y-107804384D01*
X199329703Y-107845206D01*
X199324722Y-107864607D01*
X199318421Y-107883010D01*
X199310462Y-107901402D01*
X199310461Y-107901405D01*
X199303171Y-107947427D01*
X199301987Y-107953146D01*
X199290401Y-107998272D01*
X199290400Y-107998282D01*
X199290400Y-108018316D01*
X199288873Y-108037715D01*
X199285740Y-108057494D01*
X199285740Y-108057495D01*
X199290125Y-108103883D01*
X199290400Y-108109721D01*
X199290400Y-124443155D01*
X199288675Y-124458772D01*
X199288961Y-124458799D01*
X199288226Y-124466566D01*
X199290369Y-124534746D01*
X199290400Y-124536693D01*
X199290400Y-124565243D01*
X199290401Y-124565260D01*
X199291268Y-124572131D01*
X199291726Y-124577950D01*
X199293190Y-124624524D01*
X199293191Y-124624527D01*
X199298780Y-124643767D01*
X199302724Y-124662811D01*
X199305236Y-124682691D01*
X199322390Y-124726019D01*
X199324282Y-124731547D01*
X199337281Y-124776288D01*
X199347480Y-124793534D01*
X199356038Y-124811003D01*
X199363414Y-124829632D01*
X199390798Y-124867323D01*
X199394006Y-124872207D01*
X199417727Y-124912316D01*
X199417733Y-124912324D01*
X199431890Y-124926480D01*
X199444528Y-124941276D01*
X199456305Y-124957486D01*
X199456306Y-124957487D01*
X199492209Y-124987188D01*
X199496520Y-124991110D01*
X211320565Y-136815156D01*
X215209197Y-140703788D01*
X215219022Y-140716051D01*
X215219243Y-140715869D01*
X215224211Y-140721874D01*
X215273932Y-140768566D01*
X215275332Y-140769923D01*
X215295523Y-140790115D01*
X215295527Y-140790118D01*
X215295529Y-140790120D01*
X215301011Y-140794373D01*
X215305443Y-140798157D01*
X215339418Y-140830062D01*
X215356976Y-140839714D01*
X215373235Y-140850395D01*
X215389064Y-140862673D01*
X215431838Y-140881182D01*
X215437056Y-140883738D01*
X215477908Y-140906197D01*
X215497316Y-140911180D01*
X215515739Y-140917490D01*
X215517179Y-140918113D01*
X215570873Y-140962818D01*
X215591875Y-141029456D01*
X215573515Y-141096871D01*
X215521623Y-141143657D01*
X215467899Y-141155900D01*
X215463033Y-141155900D01*
X215236967Y-141155900D01*
X215229932Y-141157074D01*
X215013982Y-141193109D01*
X214800172Y-141266510D01*
X214800167Y-141266512D01*
X214601352Y-141374106D01*
X214422955Y-141512959D01*
X214422950Y-141512963D01*
X214269850Y-141679272D01*
X214269846Y-141679278D01*
X214183807Y-141810969D01*
X214130660Y-141856325D01*
X214061429Y-141865748D01*
X213998093Y-141836245D01*
X213976192Y-141810969D01*
X213890156Y-141679281D01*
X213890151Y-141679276D01*
X213890149Y-141679272D01*
X213737049Y-141512963D01*
X213737048Y-141512962D01*
X213737046Y-141512960D01*
X213558649Y-141374107D01*
X213482910Y-141333119D01*
X213359832Y-141266512D01*
X213359827Y-141266510D01*
X213146017Y-141193109D01*
X212930068Y-141157074D01*
X212923033Y-141155900D01*
X212696967Y-141155900D01*
X212689932Y-141157074D01*
X212473982Y-141193109D01*
X212260172Y-141266510D01*
X212260167Y-141266512D01*
X212061352Y-141374106D01*
X211882955Y-141512959D01*
X211882950Y-141512963D01*
X211729850Y-141679272D01*
X211729842Y-141679283D01*
X211643808Y-141810968D01*
X211590662Y-141856325D01*
X211521430Y-141865748D01*
X211458095Y-141836246D01*
X211436192Y-141810968D01*
X211350157Y-141679283D01*
X211350149Y-141679272D01*
X211197049Y-141512963D01*
X211197048Y-141512962D01*
X211197046Y-141512960D01*
X211018649Y-141374107D01*
X210942910Y-141333119D01*
X210819832Y-141266512D01*
X210819827Y-141266510D01*
X210606017Y-141193109D01*
X210390068Y-141157074D01*
X210383033Y-141155900D01*
X210156967Y-141155900D01*
X210149932Y-141157074D01*
X209933982Y-141193109D01*
X209720172Y-141266510D01*
X209720167Y-141266512D01*
X209521352Y-141374106D01*
X209342955Y-141512959D01*
X209342950Y-141512963D01*
X209189850Y-141679272D01*
X209189842Y-141679283D01*
X209103808Y-141810968D01*
X209050662Y-141856325D01*
X208981430Y-141865748D01*
X208918095Y-141836246D01*
X208896192Y-141810968D01*
X208810157Y-141679283D01*
X208810149Y-141679272D01*
X208657049Y-141512963D01*
X208657048Y-141512962D01*
X208657046Y-141512960D01*
X208478649Y-141374107D01*
X208402910Y-141333119D01*
X208279832Y-141266512D01*
X208279827Y-141266510D01*
X208066017Y-141193109D01*
X207850068Y-141157074D01*
X207843033Y-141155900D01*
X207616967Y-141155900D01*
X207609932Y-141157074D01*
X207393982Y-141193109D01*
X207180172Y-141266510D01*
X207180167Y-141266512D01*
X206981352Y-141374106D01*
X206802955Y-141512959D01*
X206802950Y-141512963D01*
X206649850Y-141679272D01*
X206649842Y-141679283D01*
X206526198Y-141868533D01*
X206435388Y-142075560D01*
X206379892Y-142294710D01*
X206361225Y-142519993D01*
X206361225Y-142520006D01*
X206379892Y-142745289D01*
X206435388Y-142964439D01*
X206526198Y-143171466D01*
X206649842Y-143360716D01*
X206649850Y-143360727D01*
X206802950Y-143527036D01*
X206802954Y-143527040D01*
X206981351Y-143665893D01*
X207180169Y-143773488D01*
X207180172Y-143773489D01*
X207393982Y-143846890D01*
X207393984Y-143846890D01*
X207393986Y-143846891D01*
X207616967Y-143884100D01*
X207616968Y-143884100D01*
X207843032Y-143884100D01*
X207843033Y-143884100D01*
X208066014Y-143846891D01*
X208279831Y-143773488D01*
X208478649Y-143665893D01*
X208657046Y-143527040D01*
X208756832Y-143418643D01*
X208810149Y-143360727D01*
X208810149Y-143360726D01*
X208810156Y-143360719D01*
X208896193Y-143229028D01*
X208949338Y-143183675D01*
X209018569Y-143174251D01*
X209081905Y-143203753D01*
X209103804Y-143229025D01*
X209189844Y-143360719D01*
X209189849Y-143360724D01*
X209189850Y-143360727D01*
X209342950Y-143527036D01*
X209342954Y-143527040D01*
X209521351Y-143665893D01*
X209720169Y-143773488D01*
X209720172Y-143773489D01*
X209933982Y-143846890D01*
X209933984Y-143846890D01*
X209933986Y-143846891D01*
X210156967Y-143884100D01*
X210156968Y-143884100D01*
X210383032Y-143884100D01*
X210383033Y-143884100D01*
X210606014Y-143846891D01*
X210819831Y-143773488D01*
X211018649Y-143665893D01*
X211197046Y-143527040D01*
X211296832Y-143418643D01*
X211350149Y-143360727D01*
X211350149Y-143360726D01*
X211350156Y-143360719D01*
X211436193Y-143229028D01*
X211489338Y-143183675D01*
X211558569Y-143174251D01*
X211621905Y-143203753D01*
X211643804Y-143229025D01*
X211729844Y-143360719D01*
X211729849Y-143360724D01*
X211729850Y-143360727D01*
X211882950Y-143527036D01*
X211882954Y-143527040D01*
X212061351Y-143665893D01*
X212260169Y-143773488D01*
X212260172Y-143773489D01*
X212473982Y-143846890D01*
X212473984Y-143846890D01*
X212473986Y-143846891D01*
X212696967Y-143884100D01*
X212696968Y-143884100D01*
X212923032Y-143884100D01*
X212923033Y-143884100D01*
X213146014Y-143846891D01*
X213359831Y-143773488D01*
X213558649Y-143665893D01*
X213737046Y-143527040D01*
X213836832Y-143418643D01*
X213890149Y-143360727D01*
X213890151Y-143360724D01*
X213890156Y-143360719D01*
X213976193Y-143229029D01*
X214029336Y-143183675D01*
X214098567Y-143174251D01*
X214161903Y-143203753D01*
X214183807Y-143229031D01*
X214269842Y-143360716D01*
X214269850Y-143360727D01*
X214422950Y-143527036D01*
X214422954Y-143527040D01*
X214601351Y-143665893D01*
X214800169Y-143773488D01*
X214800172Y-143773489D01*
X215013982Y-143846890D01*
X215013984Y-143846890D01*
X215013986Y-143846891D01*
X215236967Y-143884100D01*
X215236968Y-143884100D01*
X215463032Y-143884100D01*
X215463033Y-143884100D01*
X215686014Y-143846891D01*
X215899831Y-143773488D01*
X216098649Y-143665893D01*
X216277046Y-143527040D01*
X216376832Y-143418643D01*
X216430149Y-143360727D01*
X216430149Y-143360726D01*
X216430156Y-143360719D01*
X216516193Y-143229028D01*
X216569338Y-143183675D01*
X216638569Y-143174251D01*
X216701905Y-143203753D01*
X216723804Y-143229025D01*
X216809844Y-143360719D01*
X216809849Y-143360724D01*
X216809850Y-143360727D01*
X216962950Y-143527036D01*
X216962954Y-143527040D01*
X217141351Y-143665893D01*
X217340169Y-143773488D01*
X217340172Y-143773489D01*
X217553982Y-143846890D01*
X217553984Y-143846890D01*
X217553986Y-143846891D01*
X217776967Y-143884100D01*
X217776968Y-143884100D01*
X218003032Y-143884100D01*
X218003033Y-143884100D01*
X218226014Y-143846891D01*
X218439831Y-143773488D01*
X218638649Y-143665893D01*
X218817046Y-143527040D01*
X218871435Y-143467957D01*
X218931320Y-143431969D01*
X219001158Y-143434069D01*
X219058774Y-143473593D01*
X219078845Y-143508609D01*
X219122602Y-143625928D01*
X219122606Y-143625935D01*
X219208852Y-143741144D01*
X219208855Y-143741147D01*
X219324064Y-143827393D01*
X219324071Y-143827397D01*
X219458917Y-143877691D01*
X219458916Y-143877691D01*
X219465844Y-143878435D01*
X219518527Y-143884100D01*
X221341472Y-143884099D01*
X221401083Y-143877691D01*
X221535931Y-143827396D01*
X221625689Y-143760202D01*
X221691153Y-143735786D01*
X221759426Y-143750637D01*
X221774311Y-143760203D01*
X221864069Y-143827396D01*
X221864071Y-143827397D01*
X221998917Y-143877691D01*
X221998916Y-143877691D01*
X222005844Y-143878435D01*
X222058527Y-143884100D01*
X223881472Y-143884099D01*
X223941083Y-143877691D01*
X224075931Y-143827396D01*
X224191146Y-143741146D01*
X224277396Y-143625931D01*
X224314280Y-143527040D01*
X224321154Y-143508610D01*
X224363025Y-143452676D01*
X224428489Y-143428258D01*
X224496762Y-143443109D01*
X224528564Y-143467957D01*
X224582954Y-143527040D01*
X224761351Y-143665893D01*
X224960169Y-143773488D01*
X224960172Y-143773489D01*
X225173982Y-143846890D01*
X225173984Y-143846890D01*
X225173986Y-143846891D01*
X225396967Y-143884100D01*
X225396968Y-143884100D01*
X225623032Y-143884100D01*
X225623033Y-143884100D01*
X225846014Y-143846891D01*
X226059831Y-143773488D01*
X226258649Y-143665893D01*
X226437046Y-143527040D01*
X226536832Y-143418643D01*
X226590149Y-143360727D01*
X226590151Y-143360724D01*
X226590156Y-143360719D01*
X226713802Y-143171465D01*
X226804611Y-142964441D01*
X226860107Y-142745293D01*
X226878775Y-142520000D01*
X226878775Y-142519993D01*
X226860107Y-142294710D01*
X226860107Y-142294707D01*
X226804611Y-142075559D01*
X226713802Y-141868535D01*
X226590156Y-141679281D01*
X226590153Y-141679278D01*
X226590149Y-141679272D01*
X226437049Y-141512963D01*
X226437048Y-141512962D01*
X226437046Y-141512960D01*
X226258649Y-141374107D01*
X226182910Y-141333119D01*
X226059832Y-141266512D01*
X226059827Y-141266510D01*
X225846017Y-141193109D01*
X225838224Y-141191809D01*
X225775339Y-141161358D01*
X225738899Y-141101743D01*
X225740475Y-141031891D01*
X225779565Y-140973980D01*
X225843759Y-140946395D01*
X225858634Y-140945500D01*
X230241366Y-140945500D01*
X230308405Y-140965185D01*
X230354160Y-141017989D01*
X230364104Y-141087147D01*
X230335079Y-141150703D01*
X230276301Y-141188477D01*
X230261776Y-141191809D01*
X230253982Y-141193109D01*
X230040172Y-141266510D01*
X230040167Y-141266512D01*
X229841352Y-141374106D01*
X229662955Y-141512959D01*
X229662950Y-141512963D01*
X229509850Y-141679272D01*
X229509842Y-141679283D01*
X229386198Y-141868533D01*
X229295388Y-142075560D01*
X229239892Y-142294710D01*
X229221225Y-142519993D01*
X229221225Y-142520006D01*
X229239892Y-142745289D01*
X229295388Y-142964439D01*
X229386198Y-143171466D01*
X229509842Y-143360716D01*
X229509850Y-143360727D01*
X229662950Y-143527036D01*
X229662954Y-143527040D01*
X229841351Y-143665893D01*
X230040169Y-143773488D01*
X230040172Y-143773489D01*
X230253982Y-143846890D01*
X230253984Y-143846890D01*
X230253986Y-143846891D01*
X230476967Y-143884100D01*
X230476968Y-143884100D01*
X230703032Y-143884100D01*
X230703033Y-143884100D01*
X230926014Y-143846891D01*
X231139831Y-143773488D01*
X231338649Y-143665893D01*
X231517046Y-143527040D01*
X231616832Y-143418643D01*
X231670149Y-143360727D01*
X231670149Y-143360726D01*
X231670156Y-143360719D01*
X231756193Y-143229028D01*
X231809338Y-143183675D01*
X231878569Y-143174251D01*
X231941905Y-143203753D01*
X231963804Y-143229025D01*
X232049844Y-143360719D01*
X232049849Y-143360724D01*
X232049850Y-143360727D01*
X232202950Y-143527036D01*
X232202954Y-143527040D01*
X232381351Y-143665893D01*
X232580169Y-143773488D01*
X232580172Y-143773489D01*
X232793982Y-143846890D01*
X232793984Y-143846890D01*
X232793986Y-143846891D01*
X233016967Y-143884100D01*
X233016968Y-143884100D01*
X233243032Y-143884100D01*
X233243033Y-143884100D01*
X233466014Y-143846891D01*
X233679831Y-143773488D01*
X233878649Y-143665893D01*
X234057046Y-143527040D01*
X234156832Y-143418643D01*
X234210149Y-143360727D01*
X234210149Y-143360726D01*
X234210156Y-143360719D01*
X234296193Y-143229028D01*
X234349338Y-143183675D01*
X234418569Y-143174251D01*
X234481905Y-143203753D01*
X234503804Y-143229025D01*
X234589844Y-143360719D01*
X234589849Y-143360724D01*
X234589850Y-143360727D01*
X234742950Y-143527036D01*
X234742954Y-143527040D01*
X234921351Y-143665893D01*
X235120169Y-143773488D01*
X235120172Y-143773489D01*
X235333982Y-143846890D01*
X235333984Y-143846890D01*
X235333986Y-143846891D01*
X235556967Y-143884100D01*
X235556968Y-143884100D01*
X235783032Y-143884100D01*
X235783033Y-143884100D01*
X236006014Y-143846891D01*
X236219831Y-143773488D01*
X236418649Y-143665893D01*
X236597046Y-143527040D01*
X236696832Y-143418643D01*
X236750149Y-143360727D01*
X236750149Y-143360726D01*
X236750156Y-143360719D01*
X236836193Y-143229028D01*
X236889338Y-143183675D01*
X236958569Y-143174251D01*
X237021905Y-143203753D01*
X237043804Y-143229025D01*
X237129844Y-143360719D01*
X237129849Y-143360724D01*
X237129850Y-143360727D01*
X237282950Y-143527036D01*
X237282954Y-143527040D01*
X237461351Y-143665893D01*
X237660169Y-143773488D01*
X237660172Y-143773489D01*
X237873982Y-143846890D01*
X237873984Y-143846890D01*
X237873986Y-143846891D01*
X238096967Y-143884100D01*
X238096968Y-143884100D01*
X238323032Y-143884100D01*
X238323033Y-143884100D01*
X238546014Y-143846891D01*
X238759831Y-143773488D01*
X238958649Y-143665893D01*
X239137046Y-143527040D01*
X239236832Y-143418643D01*
X239290149Y-143360727D01*
X239290149Y-143360726D01*
X239290156Y-143360719D01*
X239376193Y-143229028D01*
X239429338Y-143183675D01*
X239498569Y-143174251D01*
X239561905Y-143203753D01*
X239583804Y-143229025D01*
X239669844Y-143360719D01*
X239669849Y-143360724D01*
X239669850Y-143360727D01*
X239822950Y-143527036D01*
X239822954Y-143527040D01*
X240001351Y-143665893D01*
X240200169Y-143773488D01*
X240200172Y-143773489D01*
X240413982Y-143846890D01*
X240413984Y-143846890D01*
X240413986Y-143846891D01*
X240636967Y-143884100D01*
X240636968Y-143884100D01*
X240863032Y-143884100D01*
X240863033Y-143884100D01*
X241086014Y-143846891D01*
X241299831Y-143773488D01*
X241498649Y-143665893D01*
X241677046Y-143527040D01*
X241776832Y-143418643D01*
X241830149Y-143360727D01*
X241830151Y-143360724D01*
X241830156Y-143360719D01*
X241916193Y-143229029D01*
X241969336Y-143183675D01*
X242038567Y-143174251D01*
X242101903Y-143203753D01*
X242123807Y-143229031D01*
X242209842Y-143360716D01*
X242209850Y-143360727D01*
X242362950Y-143527036D01*
X242362954Y-143527040D01*
X242541351Y-143665893D01*
X242740169Y-143773488D01*
X242740172Y-143773489D01*
X242953982Y-143846890D01*
X242953984Y-143846890D01*
X242953986Y-143846891D01*
X243176967Y-143884100D01*
X243176968Y-143884100D01*
X243403032Y-143884100D01*
X243403033Y-143884100D01*
X243626014Y-143846891D01*
X243839831Y-143773488D01*
X244038649Y-143665893D01*
X244217046Y-143527040D01*
X244316832Y-143418643D01*
X244370149Y-143360727D01*
X244370149Y-143360726D01*
X244370156Y-143360719D01*
X244456193Y-143229028D01*
X244509338Y-143183675D01*
X244578569Y-143174251D01*
X244641905Y-143203753D01*
X244663804Y-143229025D01*
X244749844Y-143360719D01*
X244749849Y-143360724D01*
X244749850Y-143360727D01*
X244902950Y-143527036D01*
X244902954Y-143527040D01*
X245081351Y-143665893D01*
X245280169Y-143773488D01*
X245280172Y-143773489D01*
X245493982Y-143846890D01*
X245493984Y-143846890D01*
X245493986Y-143846891D01*
X245716967Y-143884100D01*
X245716968Y-143884100D01*
X245943032Y-143884100D01*
X245943033Y-143884100D01*
X246166014Y-143846891D01*
X246379831Y-143773488D01*
X246578649Y-143665893D01*
X246757046Y-143527040D01*
X246856832Y-143418643D01*
X246910149Y-143360727D01*
X246910149Y-143360726D01*
X246910156Y-143360719D01*
X246996193Y-143229028D01*
X247049338Y-143183675D01*
X247118569Y-143174251D01*
X247181905Y-143203753D01*
X247203804Y-143229025D01*
X247289844Y-143360719D01*
X247289849Y-143360724D01*
X247289850Y-143360727D01*
X247442950Y-143527036D01*
X247442954Y-143527040D01*
X247621351Y-143665893D01*
X247820169Y-143773488D01*
X247820172Y-143773489D01*
X248033982Y-143846890D01*
X248033984Y-143846890D01*
X248033986Y-143846891D01*
X248256967Y-143884100D01*
X248256968Y-143884100D01*
X248483032Y-143884100D01*
X248483033Y-143884100D01*
X248706014Y-143846891D01*
X248919831Y-143773488D01*
X249118649Y-143665893D01*
X249297046Y-143527040D01*
X249396832Y-143418643D01*
X249450149Y-143360727D01*
X249450151Y-143360724D01*
X249450156Y-143360719D01*
X249573802Y-143171465D01*
X249664611Y-142964441D01*
X249720107Y-142745293D01*
X249738775Y-142520000D01*
X249738775Y-142519993D01*
X249720107Y-142294710D01*
X249720107Y-142294707D01*
X249664611Y-142075559D01*
X249573802Y-141868535D01*
X249450156Y-141679281D01*
X249450153Y-141679278D01*
X249450149Y-141679272D01*
X249297049Y-141512963D01*
X249297048Y-141512962D01*
X249297046Y-141512960D01*
X249118649Y-141374107D01*
X249042910Y-141333119D01*
X248919832Y-141266512D01*
X248919827Y-141266510D01*
X248706017Y-141193109D01*
X248698224Y-141191809D01*
X248635339Y-141161358D01*
X248598899Y-141101743D01*
X248600475Y-141031891D01*
X248639565Y-140973980D01*
X248703759Y-140946395D01*
X248718634Y-140945500D01*
X253101366Y-140945500D01*
X253168405Y-140965185D01*
X253214160Y-141017989D01*
X253224104Y-141087147D01*
X253195079Y-141150703D01*
X253136301Y-141188477D01*
X253121776Y-141191809D01*
X253113982Y-141193109D01*
X252900172Y-141266510D01*
X252900167Y-141266512D01*
X252701352Y-141374106D01*
X252522955Y-141512959D01*
X252522950Y-141512963D01*
X252369850Y-141679272D01*
X252369842Y-141679283D01*
X252246198Y-141868533D01*
X252155388Y-142075560D01*
X252099892Y-142294710D01*
X252081225Y-142519993D01*
X252081225Y-142520006D01*
X252099892Y-142745289D01*
X252155388Y-142964439D01*
X252246198Y-143171466D01*
X252369842Y-143360716D01*
X252369850Y-143360727D01*
X252522950Y-143527036D01*
X252522954Y-143527040D01*
X252701351Y-143665893D01*
X252900169Y-143773488D01*
X252900172Y-143773489D01*
X253113982Y-143846890D01*
X253113984Y-143846890D01*
X253113986Y-143846891D01*
X253336967Y-143884100D01*
X253336968Y-143884100D01*
X253563032Y-143884100D01*
X253563033Y-143884100D01*
X253786014Y-143846891D01*
X253999831Y-143773488D01*
X254198649Y-143665893D01*
X254377046Y-143527040D01*
X254476832Y-143418643D01*
X254530149Y-143360727D01*
X254530149Y-143360726D01*
X254530156Y-143360719D01*
X254616193Y-143229028D01*
X254669338Y-143183675D01*
X254738569Y-143174251D01*
X254801905Y-143203753D01*
X254823804Y-143229025D01*
X254909844Y-143360719D01*
X254909849Y-143360724D01*
X254909850Y-143360727D01*
X255062950Y-143527036D01*
X255062954Y-143527040D01*
X255241351Y-143665893D01*
X255440169Y-143773488D01*
X255440172Y-143773489D01*
X255653982Y-143846890D01*
X255653984Y-143846890D01*
X255653986Y-143846891D01*
X255876967Y-143884100D01*
X255876968Y-143884100D01*
X256103032Y-143884100D01*
X256103033Y-143884100D01*
X256326014Y-143846891D01*
X256539831Y-143773488D01*
X256738649Y-143665893D01*
X256917046Y-143527040D01*
X257016832Y-143418643D01*
X257070149Y-143360727D01*
X257070149Y-143360726D01*
X257070156Y-143360719D01*
X257156193Y-143229028D01*
X257209338Y-143183675D01*
X257278569Y-143174251D01*
X257341905Y-143203753D01*
X257363804Y-143229025D01*
X257449844Y-143360719D01*
X257449849Y-143360724D01*
X257449850Y-143360727D01*
X257602950Y-143527036D01*
X257602954Y-143527040D01*
X257781351Y-143665893D01*
X257980169Y-143773488D01*
X257980172Y-143773489D01*
X258193982Y-143846890D01*
X258193984Y-143846890D01*
X258193986Y-143846891D01*
X258416967Y-143884100D01*
X258416968Y-143884100D01*
X258643032Y-143884100D01*
X258643033Y-143884100D01*
X258866014Y-143846891D01*
X259079831Y-143773488D01*
X259278649Y-143665893D01*
X259457046Y-143527040D01*
X259556832Y-143418643D01*
X259610149Y-143360727D01*
X259610149Y-143360726D01*
X259610156Y-143360719D01*
X259696193Y-143229028D01*
X259749338Y-143183675D01*
X259818569Y-143174251D01*
X259881905Y-143203753D01*
X259903804Y-143229025D01*
X259989844Y-143360719D01*
X259989849Y-143360724D01*
X259989850Y-143360727D01*
X260142950Y-143527036D01*
X260142954Y-143527040D01*
X260321351Y-143665893D01*
X260520169Y-143773488D01*
X260520172Y-143773489D01*
X260733982Y-143846890D01*
X260733984Y-143846890D01*
X260733986Y-143846891D01*
X260956967Y-143884100D01*
X260956968Y-143884100D01*
X261183032Y-143884100D01*
X261183033Y-143884100D01*
X261406014Y-143846891D01*
X261619831Y-143773488D01*
X261818649Y-143665893D01*
X261997046Y-143527040D01*
X262096832Y-143418643D01*
X262150149Y-143360727D01*
X262150149Y-143360726D01*
X262150156Y-143360719D01*
X262236193Y-143229028D01*
X262289338Y-143183675D01*
X262358569Y-143174251D01*
X262421905Y-143203753D01*
X262443804Y-143229025D01*
X262529844Y-143360719D01*
X262529849Y-143360724D01*
X262529850Y-143360727D01*
X262682950Y-143527036D01*
X262682954Y-143527040D01*
X262861351Y-143665893D01*
X263060169Y-143773488D01*
X263060172Y-143773489D01*
X263273982Y-143846890D01*
X263273984Y-143846890D01*
X263273986Y-143846891D01*
X263496967Y-143884100D01*
X263496968Y-143884100D01*
X263723032Y-143884100D01*
X263723033Y-143884100D01*
X263946014Y-143846891D01*
X264159831Y-143773488D01*
X264358649Y-143665893D01*
X264537046Y-143527040D01*
X264636832Y-143418643D01*
X264690149Y-143360727D01*
X264690149Y-143360726D01*
X264690156Y-143360719D01*
X264776193Y-143229028D01*
X264829338Y-143183675D01*
X264898569Y-143174251D01*
X264961905Y-143203753D01*
X264983804Y-143229025D01*
X265069844Y-143360719D01*
X265069849Y-143360724D01*
X265069850Y-143360727D01*
X265222950Y-143527036D01*
X265222954Y-143527040D01*
X265401351Y-143665893D01*
X265600169Y-143773488D01*
X265600172Y-143773489D01*
X265813982Y-143846890D01*
X265813984Y-143846890D01*
X265813986Y-143846891D01*
X266036967Y-143884100D01*
X266036968Y-143884100D01*
X266263032Y-143884100D01*
X266263033Y-143884100D01*
X266486014Y-143846891D01*
X266699831Y-143773488D01*
X266898649Y-143665893D01*
X267077046Y-143527040D01*
X267176832Y-143418643D01*
X267230149Y-143360727D01*
X267230149Y-143360726D01*
X267230156Y-143360719D01*
X267316193Y-143229028D01*
X267369338Y-143183675D01*
X267438569Y-143174251D01*
X267501905Y-143203753D01*
X267523804Y-143229025D01*
X267609844Y-143360719D01*
X267609849Y-143360724D01*
X267609850Y-143360727D01*
X267762950Y-143527036D01*
X267762954Y-143527040D01*
X267941351Y-143665893D01*
X268140169Y-143773488D01*
X268140172Y-143773489D01*
X268353982Y-143846890D01*
X268353984Y-143846890D01*
X268353986Y-143846891D01*
X268576967Y-143884100D01*
X268576968Y-143884100D01*
X268803032Y-143884100D01*
X268803033Y-143884100D01*
X269026014Y-143846891D01*
X269239831Y-143773488D01*
X269438649Y-143665893D01*
X269617046Y-143527040D01*
X269716832Y-143418643D01*
X269770149Y-143360727D01*
X269770149Y-143360726D01*
X269770156Y-143360719D01*
X269856193Y-143229028D01*
X269909338Y-143183675D01*
X269978569Y-143174251D01*
X270041905Y-143203753D01*
X270063804Y-143229025D01*
X270149844Y-143360719D01*
X270149849Y-143360724D01*
X270149850Y-143360727D01*
X270302950Y-143527036D01*
X270302954Y-143527040D01*
X270481351Y-143665893D01*
X270680169Y-143773488D01*
X270680172Y-143773489D01*
X270893982Y-143846890D01*
X270893984Y-143846890D01*
X270893986Y-143846891D01*
X271116967Y-143884100D01*
X271116968Y-143884100D01*
X271343032Y-143884100D01*
X271343033Y-143884100D01*
X271566014Y-143846891D01*
X271779831Y-143773488D01*
X271978649Y-143665893D01*
X272157046Y-143527040D01*
X272256832Y-143418643D01*
X272310149Y-143360727D01*
X272310151Y-143360724D01*
X272310156Y-143360719D01*
X272433802Y-143171465D01*
X272524611Y-142964441D01*
X272580107Y-142745293D01*
X272593160Y-142587763D01*
X274455787Y-142587763D01*
X274485413Y-142857013D01*
X274485415Y-142857024D01*
X274528166Y-143020548D01*
X274553928Y-143119088D01*
X274659870Y-143368390D01*
X274756691Y-143527036D01*
X274800979Y-143599605D01*
X274800986Y-143599615D01*
X274974253Y-143807819D01*
X274974259Y-143807824D01*
X275059389Y-143884100D01*
X275175998Y-143988582D01*
X275401910Y-144138044D01*
X275647176Y-144253020D01*
X275647183Y-144253022D01*
X275647185Y-144253023D01*
X275906557Y-144331057D01*
X275906564Y-144331058D01*
X275906569Y-144331060D01*
X276174561Y-144370500D01*
X276174566Y-144370500D01*
X276377629Y-144370500D01*
X276377631Y-144370500D01*
X276377636Y-144370499D01*
X276377648Y-144370499D01*
X276415191Y-144367750D01*
X276580156Y-144355677D01*
X276692758Y-144330593D01*
X276844546Y-144296782D01*
X276844548Y-144296781D01*
X276844553Y-144296780D01*
X277097558Y-144200014D01*
X277333777Y-144067441D01*
X277548177Y-143901888D01*
X277736186Y-143706881D01*
X277893799Y-143486579D01*
X277967787Y-143342669D01*
X278017649Y-143245690D01*
X278017651Y-143245684D01*
X278017656Y-143245675D01*
X278105118Y-142989305D01*
X278154319Y-142722933D01*
X278164212Y-142452235D01*
X278134586Y-142182982D01*
X278066072Y-141920912D01*
X277960130Y-141671610D01*
X277819018Y-141440390D01*
X277797114Y-141414069D01*
X277645746Y-141232180D01*
X277645740Y-141232175D01*
X277444002Y-141051418D01*
X277218092Y-140901957D01*
X277218090Y-140901956D01*
X276972824Y-140786980D01*
X276972819Y-140786978D01*
X276972814Y-140786976D01*
X276713442Y-140708942D01*
X276713428Y-140708939D01*
X276597791Y-140691921D01*
X276445439Y-140669500D01*
X276242369Y-140669500D01*
X276242351Y-140669500D01*
X276039844Y-140684323D01*
X276039831Y-140684325D01*
X275775453Y-140743217D01*
X275775446Y-140743220D01*
X275522439Y-140839987D01*
X275286226Y-140972557D01*
X275071822Y-141138112D01*
X274883822Y-141333109D01*
X274883816Y-141333116D01*
X274726202Y-141553419D01*
X274726199Y-141553424D01*
X274602350Y-141794309D01*
X274602343Y-141794327D01*
X274514884Y-142050685D01*
X274514881Y-142050699D01*
X274465681Y-142317068D01*
X274465680Y-142317075D01*
X274455787Y-142587763D01*
X272593160Y-142587763D01*
X272598775Y-142520000D01*
X272598775Y-142519993D01*
X272580107Y-142294710D01*
X272580107Y-142294707D01*
X272524611Y-142075559D01*
X272433802Y-141868535D01*
X272310156Y-141679281D01*
X272310153Y-141679278D01*
X272310149Y-141679272D01*
X272157049Y-141512963D01*
X272157048Y-141512962D01*
X272157046Y-141512960D01*
X271978649Y-141374107D01*
X271902910Y-141333119D01*
X271779832Y-141266512D01*
X271779827Y-141266510D01*
X271566017Y-141193109D01*
X271350068Y-141157074D01*
X271343033Y-141155900D01*
X271116967Y-141155900D01*
X271109932Y-141157074D01*
X270893982Y-141193109D01*
X270680172Y-141266510D01*
X270680167Y-141266512D01*
X270481352Y-141374106D01*
X270302955Y-141512959D01*
X270302950Y-141512963D01*
X270149850Y-141679272D01*
X270149842Y-141679283D01*
X270063808Y-141810968D01*
X270010662Y-141856325D01*
X269941430Y-141865748D01*
X269878095Y-141836246D01*
X269856192Y-141810968D01*
X269770157Y-141679283D01*
X269770149Y-141679272D01*
X269617049Y-141512963D01*
X269617048Y-141512962D01*
X269617046Y-141512960D01*
X269438649Y-141374107D01*
X269362910Y-141333119D01*
X269239832Y-141266512D01*
X269239827Y-141266510D01*
X269026017Y-141193109D01*
X268810068Y-141157074D01*
X268803033Y-141155900D01*
X268576967Y-141155900D01*
X268569932Y-141157074D01*
X268353982Y-141193109D01*
X268140172Y-141266510D01*
X268140167Y-141266512D01*
X267941352Y-141374106D01*
X267762955Y-141512959D01*
X267762950Y-141512963D01*
X267609850Y-141679272D01*
X267609842Y-141679283D01*
X267523808Y-141810968D01*
X267470662Y-141856325D01*
X267401430Y-141865748D01*
X267338095Y-141836246D01*
X267316192Y-141810968D01*
X267230157Y-141679283D01*
X267230149Y-141679272D01*
X267077049Y-141512963D01*
X267077048Y-141512962D01*
X267077046Y-141512960D01*
X266898649Y-141374107D01*
X266822910Y-141333119D01*
X266699832Y-141266512D01*
X266699827Y-141266510D01*
X266486017Y-141193109D01*
X266270068Y-141157074D01*
X266263033Y-141155900D01*
X266036967Y-141155900D01*
X266029932Y-141157074D01*
X265813982Y-141193109D01*
X265600172Y-141266510D01*
X265600167Y-141266512D01*
X265401352Y-141374106D01*
X265222955Y-141512959D01*
X265222950Y-141512963D01*
X265069850Y-141679272D01*
X265069842Y-141679283D01*
X264983808Y-141810968D01*
X264930662Y-141856325D01*
X264861430Y-141865748D01*
X264798095Y-141836246D01*
X264776192Y-141810968D01*
X264690157Y-141679283D01*
X264690149Y-141679272D01*
X264537049Y-141512963D01*
X264537048Y-141512962D01*
X264537046Y-141512960D01*
X264358649Y-141374107D01*
X264282910Y-141333119D01*
X264159832Y-141266512D01*
X264159827Y-141266510D01*
X263946017Y-141193109D01*
X263730068Y-141157074D01*
X263723033Y-141155900D01*
X263496967Y-141155900D01*
X263489932Y-141157074D01*
X263273982Y-141193109D01*
X263060172Y-141266510D01*
X263060167Y-141266512D01*
X262861352Y-141374106D01*
X262682955Y-141512959D01*
X262682950Y-141512963D01*
X262529850Y-141679272D01*
X262529842Y-141679283D01*
X262443808Y-141810968D01*
X262390662Y-141856325D01*
X262321430Y-141865748D01*
X262258095Y-141836246D01*
X262236192Y-141810968D01*
X262150157Y-141679283D01*
X262150149Y-141679272D01*
X261997049Y-141512963D01*
X261997048Y-141512962D01*
X261997046Y-141512960D01*
X261818649Y-141374107D01*
X261742910Y-141333119D01*
X261619832Y-141266512D01*
X261619827Y-141266510D01*
X261406017Y-141193109D01*
X261190068Y-141157074D01*
X261183033Y-141155900D01*
X260956967Y-141155900D01*
X260949932Y-141157074D01*
X260733982Y-141193109D01*
X260520172Y-141266510D01*
X260520167Y-141266512D01*
X260321352Y-141374106D01*
X260142955Y-141512959D01*
X260142950Y-141512963D01*
X259989850Y-141679272D01*
X259989846Y-141679278D01*
X259903807Y-141810969D01*
X259850660Y-141856325D01*
X259781429Y-141865748D01*
X259718093Y-141836245D01*
X259696192Y-141810969D01*
X259610156Y-141679281D01*
X259610151Y-141679276D01*
X259610149Y-141679272D01*
X259457049Y-141512963D01*
X259457048Y-141512962D01*
X259457046Y-141512960D01*
X259278649Y-141374107D01*
X259202910Y-141333119D01*
X259079832Y-141266512D01*
X259079827Y-141266510D01*
X258866017Y-141193109D01*
X258650068Y-141157074D01*
X258643033Y-141155900D01*
X258416967Y-141155900D01*
X258409932Y-141157074D01*
X258193982Y-141193109D01*
X257980172Y-141266510D01*
X257980167Y-141266512D01*
X257781352Y-141374106D01*
X257602955Y-141512959D01*
X257602950Y-141512963D01*
X257449850Y-141679272D01*
X257449842Y-141679283D01*
X257363808Y-141810968D01*
X257310662Y-141856325D01*
X257241430Y-141865748D01*
X257178095Y-141836246D01*
X257156192Y-141810968D01*
X257070157Y-141679283D01*
X257070149Y-141679272D01*
X256917049Y-141512963D01*
X256917048Y-141512962D01*
X256917046Y-141512960D01*
X256738649Y-141374107D01*
X256662910Y-141333119D01*
X256539832Y-141266512D01*
X256539827Y-141266510D01*
X256326017Y-141193109D01*
X256110068Y-141157074D01*
X256103033Y-141155900D01*
X255876967Y-141155900D01*
X255869932Y-141157074D01*
X255653982Y-141193109D01*
X255648067Y-141195140D01*
X255578268Y-141198286D01*
X255520129Y-141165538D01*
X254290803Y-139936212D01*
X254280980Y-139923950D01*
X254280759Y-139924134D01*
X254275786Y-139918122D01*
X254226066Y-139871432D01*
X254224666Y-139870075D01*
X254204476Y-139849884D01*
X254198986Y-139845625D01*
X254194561Y-139841847D01*
X254160582Y-139809938D01*
X254160580Y-139809936D01*
X254160577Y-139809935D01*
X254143029Y-139800288D01*
X254126763Y-139789604D01*
X254110933Y-139777325D01*
X254068168Y-139758818D01*
X254062922Y-139756248D01*
X254022093Y-139733803D01*
X254022092Y-139733802D01*
X254002693Y-139728822D01*
X253984281Y-139722518D01*
X253965898Y-139714562D01*
X253965892Y-139714560D01*
X253919874Y-139707272D01*
X253914152Y-139706087D01*
X253869021Y-139694500D01*
X253869019Y-139694500D01*
X253848984Y-139694500D01*
X253829586Y-139692973D01*
X253822162Y-139691797D01*
X253809805Y-139689840D01*
X253809804Y-139689840D01*
X253763416Y-139694225D01*
X253757578Y-139694500D01*
X216020453Y-139694500D01*
X215953414Y-139674815D01*
X215932772Y-139658181D01*
X213782354Y-137507763D01*
X243975787Y-137507763D01*
X244005413Y-137777013D01*
X244005415Y-137777024D01*
X244073926Y-138039082D01*
X244073928Y-138039088D01*
X244179870Y-138288390D01*
X244251998Y-138406575D01*
X244320979Y-138519605D01*
X244320986Y-138519615D01*
X244494253Y-138727819D01*
X244494259Y-138727824D01*
X244579389Y-138804100D01*
X244695998Y-138908582D01*
X244921910Y-139058044D01*
X245167176Y-139173020D01*
X245167183Y-139173022D01*
X245167185Y-139173023D01*
X245426557Y-139251057D01*
X245426564Y-139251058D01*
X245426569Y-139251060D01*
X245694561Y-139290500D01*
X245694566Y-139290500D01*
X245897629Y-139290500D01*
X245897631Y-139290500D01*
X245897636Y-139290499D01*
X245897648Y-139290499D01*
X245935191Y-139287750D01*
X246100156Y-139275677D01*
X246212758Y-139250593D01*
X246364546Y-139216782D01*
X246364548Y-139216781D01*
X246364553Y-139216780D01*
X246617558Y-139120014D01*
X246853777Y-138987441D01*
X247068177Y-138821888D01*
X247256186Y-138626881D01*
X247413799Y-138406579D01*
X247487787Y-138262669D01*
X247537649Y-138165690D01*
X247537651Y-138165684D01*
X247537656Y-138165675D01*
X247625118Y-137909305D01*
X247674319Y-137642933D01*
X247684212Y-137372235D01*
X247654586Y-137102982D01*
X247586072Y-136840912D01*
X247480130Y-136591610D01*
X247339018Y-136360390D01*
X247317114Y-136334069D01*
X247165746Y-136152180D01*
X247165740Y-136152175D01*
X246964002Y-135971418D01*
X246738092Y-135821957D01*
X246738090Y-135821956D01*
X246492824Y-135706980D01*
X246492819Y-135706978D01*
X246492814Y-135706976D01*
X246233442Y-135628942D01*
X246233428Y-135628939D01*
X246117791Y-135611921D01*
X245965439Y-135589500D01*
X245762369Y-135589500D01*
X245762351Y-135589500D01*
X245559844Y-135604323D01*
X245559831Y-135604325D01*
X245295453Y-135663217D01*
X245295446Y-135663220D01*
X245042439Y-135759987D01*
X244806226Y-135892557D01*
X244806224Y-135892558D01*
X244806223Y-135892559D01*
X244778281Y-135914135D01*
X244591822Y-136058112D01*
X244403822Y-136253109D01*
X244403816Y-136253116D01*
X244246202Y-136473419D01*
X244246199Y-136473424D01*
X244122350Y-136714309D01*
X244122343Y-136714327D01*
X244034884Y-136970685D01*
X244034881Y-136970699D01*
X243985681Y-137237068D01*
X243985680Y-137237075D01*
X243975787Y-137507763D01*
X213782354Y-137507763D01*
X213151070Y-136876479D01*
X213117585Y-136815156D01*
X213122569Y-136745464D01*
X213164441Y-136689531D01*
X213165746Y-136688567D01*
X213217471Y-136650988D01*
X213344133Y-136510316D01*
X213438779Y-136346384D01*
X213497274Y-136166356D01*
X213517060Y-135978100D01*
X213504233Y-135856056D01*
X213516803Y-135787327D01*
X213539870Y-135755418D01*
X217793624Y-131501664D01*
X217854945Y-131468181D01*
X217924637Y-131473165D01*
X217973452Y-131506375D01*
X217978901Y-131512426D01*
X217984630Y-131518789D01*
X218137765Y-131630048D01*
X218137770Y-131630051D01*
X218310692Y-131707042D01*
X218310697Y-131707044D01*
X218495854Y-131746400D01*
X218495855Y-131746400D01*
X218685144Y-131746400D01*
X218685146Y-131746400D01*
X218870303Y-131707044D01*
X219043230Y-131630051D01*
X219196371Y-131518788D01*
X219199288Y-131515547D01*
X219202100Y-131512426D01*
X219261587Y-131475779D01*
X219294248Y-131471400D01*
X219781357Y-131471400D01*
X219796977Y-131473124D01*
X219797004Y-131472839D01*
X219804766Y-131473573D01*
X219804766Y-131473572D01*
X219804767Y-131473573D01*
X219808099Y-131473468D01*
X219872947Y-131471431D01*
X219874894Y-131471400D01*
X219903447Y-131471400D01*
X219903450Y-131471400D01*
X219910328Y-131470530D01*
X219916141Y-131470072D01*
X219962727Y-131468609D01*
X219981969Y-131463017D01*
X220001012Y-131459074D01*
X220020892Y-131456564D01*
X220064222Y-131439407D01*
X220069746Y-131437517D01*
X220073496Y-131436427D01*
X220114490Y-131424518D01*
X220131729Y-131414322D01*
X220149203Y-131405762D01*
X220167827Y-131398388D01*
X220167827Y-131398387D01*
X220167832Y-131398386D01*
X220205549Y-131370982D01*
X220210405Y-131367792D01*
X220250520Y-131344070D01*
X220264689Y-131329899D01*
X220279479Y-131317268D01*
X220295687Y-131305494D01*
X220325399Y-131269576D01*
X220329312Y-131265276D01*
X223112821Y-128481768D01*
X223174142Y-128448285D01*
X223243834Y-128453269D01*
X223299767Y-128495141D01*
X223324184Y-128560605D01*
X223324500Y-128569451D01*
X223324500Y-129589546D01*
X223304815Y-129656585D01*
X223288181Y-129677227D01*
X222936208Y-130029199D01*
X222923951Y-130039020D01*
X222924134Y-130039241D01*
X222918122Y-130044214D01*
X222871432Y-130093932D01*
X222870079Y-130095329D01*
X222849889Y-130115519D01*
X222849877Y-130115532D01*
X222845621Y-130121017D01*
X222841837Y-130125447D01*
X222809937Y-130159418D01*
X222809936Y-130159420D01*
X222800284Y-130176976D01*
X222789610Y-130193226D01*
X222777329Y-130209061D01*
X222777324Y-130209068D01*
X222758815Y-130251838D01*
X222756245Y-130257084D01*
X222733803Y-130297906D01*
X222728822Y-130317307D01*
X222722521Y-130335710D01*
X222714562Y-130354102D01*
X222714561Y-130354105D01*
X222707271Y-130400127D01*
X222706087Y-130405846D01*
X222694501Y-130450972D01*
X222694499Y-130450984D01*
X222694499Y-130471020D01*
X222692973Y-130490411D01*
X222690860Y-130503753D01*
X222689840Y-130510196D01*
X222692930Y-130542888D01*
X222694225Y-130556583D01*
X222694500Y-130562421D01*
X222694500Y-131281312D01*
X222674815Y-131348351D01*
X222662650Y-131364284D01*
X222587466Y-131447784D01*
X222492821Y-131611715D01*
X222492818Y-131611722D01*
X222461362Y-131708535D01*
X222434326Y-131791744D01*
X222414540Y-131980000D01*
X222434326Y-132168256D01*
X222434327Y-132168259D01*
X222492818Y-132348277D01*
X222492821Y-132348284D01*
X222587467Y-132512216D01*
X222653266Y-132585293D01*
X222714129Y-132652888D01*
X222867265Y-132764148D01*
X222867270Y-132764151D01*
X223040192Y-132841142D01*
X223040197Y-132841144D01*
X223225354Y-132880500D01*
X223225355Y-132880500D01*
X223414644Y-132880500D01*
X223414646Y-132880500D01*
X223599803Y-132841144D01*
X223772730Y-132764151D01*
X223925871Y-132652888D01*
X224052533Y-132512216D01*
X224147179Y-132348284D01*
X224205674Y-132168256D01*
X224225460Y-131980000D01*
X224205674Y-131791744D01*
X224147179Y-131611716D01*
X224052533Y-131447784D01*
X224031584Y-131424518D01*
X223977350Y-131364284D01*
X223947120Y-131301292D01*
X223945500Y-131281312D01*
X223945500Y-130840451D01*
X223965185Y-130773412D01*
X223981819Y-130752770D01*
X224080441Y-130654148D01*
X224333786Y-130400802D01*
X224346048Y-130390980D01*
X224345865Y-130390759D01*
X224351873Y-130385788D01*
X224351877Y-130385786D01*
X224398649Y-130335977D01*
X224399891Y-130334697D01*
X224420120Y-130314470D01*
X224424373Y-130308986D01*
X224428150Y-130304563D01*
X224460062Y-130270582D01*
X224469714Y-130253023D01*
X224480389Y-130236772D01*
X224492674Y-130220936D01*
X224511186Y-130178152D01*
X224513742Y-130172935D01*
X224536197Y-130132092D01*
X224541180Y-130112680D01*
X224547477Y-130094291D01*
X224555438Y-130075895D01*
X224562729Y-130029853D01*
X224563908Y-130024162D01*
X224575500Y-129979019D01*
X224575500Y-129958974D01*
X224577025Y-129939591D01*
X224580160Y-129919804D01*
X224575775Y-129873415D01*
X224575500Y-129867577D01*
X224575500Y-129122272D01*
X224595185Y-129055233D01*
X224647989Y-129009478D01*
X224717147Y-128999534D01*
X224780703Y-129028559D01*
X224791650Y-129039300D01*
X224836029Y-129088588D01*
X224989165Y-129199848D01*
X224989170Y-129199851D01*
X225162092Y-129276842D01*
X225162097Y-129276844D01*
X225347254Y-129316200D01*
X225347255Y-129316200D01*
X225536544Y-129316200D01*
X225536546Y-129316200D01*
X225721703Y-129276844D01*
X225894630Y-129199851D01*
X226047771Y-129088588D01*
X226174433Y-128947916D01*
X226269079Y-128783984D01*
X226327574Y-128603956D01*
X226345221Y-128436045D01*
X226371805Y-128371432D01*
X226380852Y-128361336D01*
X232459770Y-122282419D01*
X232521094Y-122248934D01*
X232547452Y-122246100D01*
X245081970Y-122246100D01*
X245149009Y-122265785D01*
X245194764Y-122318589D01*
X245205289Y-122357134D01*
X245224326Y-122538256D01*
X245224327Y-122538259D01*
X245282818Y-122718277D01*
X245282821Y-122718284D01*
X245377467Y-122882216D01*
X245463417Y-122977673D01*
X245504129Y-123022888D01*
X245657265Y-123134148D01*
X245657270Y-123134151D01*
X245830192Y-123211142D01*
X245830197Y-123211144D01*
X246015354Y-123250500D01*
X246015355Y-123250500D01*
X246204644Y-123250500D01*
X246204646Y-123250500D01*
X246389803Y-123211144D01*
X246562730Y-123134151D01*
X246715871Y-123022888D01*
X246719876Y-123018439D01*
X246779359Y-122981790D01*
X246812899Y-122978893D01*
X246812869Y-122977918D01*
X246888847Y-122975531D01*
X246890794Y-122975500D01*
X246919347Y-122975500D01*
X246919350Y-122975500D01*
X246926228Y-122974630D01*
X246932041Y-122974172D01*
X246978627Y-122972709D01*
X246997869Y-122967117D01*
X247016912Y-122963174D01*
X247036792Y-122960664D01*
X247080122Y-122943507D01*
X247085646Y-122941617D01*
X247089396Y-122940527D01*
X247130390Y-122928618D01*
X247147629Y-122918422D01*
X247165103Y-122909862D01*
X247183727Y-122902488D01*
X247183727Y-122902487D01*
X247183732Y-122902486D01*
X247221449Y-122875082D01*
X247226305Y-122871892D01*
X247266420Y-122848170D01*
X247280589Y-122833999D01*
X247295379Y-122821368D01*
X247311587Y-122809594D01*
X247341299Y-122773676D01*
X247345212Y-122769376D01*
X247814820Y-122299769D01*
X247876142Y-122266285D01*
X247945834Y-122271269D01*
X248001767Y-122313141D01*
X248026184Y-122378605D01*
X248026500Y-122387451D01*
X248026500Y-126677546D01*
X248006815Y-126744585D01*
X247990181Y-126765227D01*
X245822228Y-128933181D01*
X245760905Y-128966666D01*
X245734547Y-128969500D01*
X245675354Y-128969500D01*
X245642897Y-128976398D01*
X245490197Y-129008855D01*
X245490192Y-129008857D01*
X245317270Y-129085848D01*
X245317265Y-129085851D01*
X245164129Y-129197111D01*
X245037466Y-129337785D01*
X244942821Y-129501715D01*
X244942818Y-129501722D01*
X244884327Y-129681740D01*
X244884326Y-129681744D01*
X244864540Y-129870000D01*
X244884326Y-130058256D01*
X244884327Y-130058259D01*
X244942818Y-130238277D01*
X244942821Y-130238284D01*
X245037467Y-130402216D01*
X245128892Y-130503753D01*
X245164129Y-130542888D01*
X245317265Y-130654148D01*
X245317270Y-130654151D01*
X245490192Y-130731142D01*
X245490197Y-130731144D01*
X245675354Y-130770500D01*
X245675355Y-130770500D01*
X245864644Y-130770500D01*
X245864646Y-130770500D01*
X246049803Y-130731144D01*
X246222730Y-130654151D01*
X246375871Y-130542888D01*
X246502533Y-130402216D01*
X246597179Y-130238284D01*
X246655674Y-130058256D01*
X246673321Y-129890344D01*
X246699904Y-129825734D01*
X246708951Y-129815638D01*
X249035788Y-127488801D01*
X249048042Y-127478986D01*
X249047859Y-127478764D01*
X249053868Y-127473791D01*
X249053877Y-127473786D01*
X249100607Y-127424022D01*
X249101846Y-127422743D01*
X249122120Y-127402471D01*
X249126379Y-127396978D01*
X249130152Y-127392561D01*
X249162062Y-127358582D01*
X249171713Y-127341024D01*
X249182396Y-127324761D01*
X249194673Y-127308936D01*
X249213185Y-127266153D01*
X249215738Y-127260941D01*
X249238197Y-127220092D01*
X249243180Y-127200680D01*
X249249481Y-127182280D01*
X249257437Y-127163896D01*
X249264729Y-127117852D01*
X249265906Y-127112171D01*
X249277500Y-127067019D01*
X249277500Y-127046982D01*
X249279027Y-127027582D01*
X249282160Y-127007803D01*
X249282160Y-127007800D01*
X249281022Y-126995768D01*
X249277772Y-126961394D01*
X249277500Y-126955599D01*
X249277499Y-121548452D01*
X249297185Y-121481413D01*
X249313819Y-121460771D01*
X258072772Y-112701819D01*
X258134095Y-112668334D01*
X258160453Y-112665500D01*
X272482129Y-112665500D01*
X272549168Y-112685185D01*
X272585937Y-112721678D01*
X272689842Y-112880716D01*
X272689850Y-112880727D01*
X272842950Y-113047036D01*
X272842954Y-113047040D01*
X273021351Y-113185893D01*
X273049159Y-113200942D01*
X273049165Y-113200945D01*
X273098755Y-113250165D01*
X273113863Y-113318382D01*
X273089692Y-113383937D01*
X273049165Y-113419055D01*
X273021352Y-113434106D01*
X272842955Y-113572959D01*
X272842950Y-113572963D01*
X272689850Y-113739272D01*
X272689842Y-113739283D01*
X272566198Y-113928533D01*
X272475388Y-114135560D01*
X272419892Y-114354710D01*
X272401225Y-114579993D01*
X272401225Y-114580006D01*
X272419892Y-114805289D01*
X272475388Y-115024439D01*
X272566198Y-115231466D01*
X272689842Y-115420716D01*
X272689850Y-115420727D01*
X272842950Y-115587036D01*
X272842954Y-115587040D01*
X273021351Y-115725893D01*
X273021353Y-115725894D01*
X273021356Y-115725896D01*
X273021362Y-115725899D01*
X273049163Y-115740944D01*
X273098754Y-115790161D01*
X273113864Y-115858378D01*
X273089694Y-115923934D01*
X273049167Y-115959052D01*
X273021361Y-115974100D01*
X273021353Y-115974105D01*
X272842955Y-116112959D01*
X272842950Y-116112963D01*
X272689850Y-116279272D01*
X272689842Y-116279283D01*
X272566198Y-116468533D01*
X272475388Y-116675560D01*
X272419892Y-116894710D01*
X272401225Y-117119993D01*
X272401225Y-117120006D01*
X272419892Y-117345289D01*
X272475388Y-117564439D01*
X272566198Y-117771466D01*
X272689842Y-117960716D01*
X272689850Y-117960727D01*
X272826878Y-118109577D01*
X272842954Y-118127040D01*
X273021351Y-118265893D01*
X273049159Y-118280942D01*
X273049165Y-118280945D01*
X273098755Y-118330165D01*
X273113863Y-118398382D01*
X273089692Y-118463937D01*
X273049165Y-118499055D01*
X273021352Y-118514106D01*
X272842955Y-118652959D01*
X272842950Y-118652963D01*
X272689850Y-118819272D01*
X272689842Y-118819283D01*
X272566198Y-119008533D01*
X272475388Y-119215560D01*
X272419892Y-119434710D01*
X272401225Y-119659993D01*
X272401225Y-119660006D01*
X272419892Y-119885289D01*
X272475388Y-120104439D01*
X272566198Y-120311466D01*
X272689842Y-120500716D01*
X272689850Y-120500727D01*
X272793752Y-120613593D01*
X272842954Y-120667040D01*
X273021351Y-120805893D01*
X273049165Y-120820945D01*
X273098755Y-120870165D01*
X273113863Y-120938382D01*
X273089692Y-121003937D01*
X273049165Y-121039055D01*
X273021352Y-121054106D01*
X272842955Y-121192959D01*
X272842950Y-121192963D01*
X272689850Y-121359272D01*
X272689842Y-121359283D01*
X272566198Y-121548533D01*
X272475388Y-121755560D01*
X272419892Y-121974710D01*
X272401225Y-122199993D01*
X272401225Y-122200006D01*
X272419892Y-122425289D01*
X272475388Y-122644439D01*
X272566198Y-122851466D01*
X272689842Y-123040716D01*
X272689850Y-123040727D01*
X272842950Y-123207036D01*
X272842954Y-123207040D01*
X273021351Y-123345893D01*
X273049165Y-123360945D01*
X273098755Y-123410165D01*
X273113863Y-123478382D01*
X273089692Y-123543937D01*
X273049165Y-123579055D01*
X273021352Y-123594106D01*
X272842955Y-123732959D01*
X272842950Y-123732963D01*
X272689850Y-123899272D01*
X272689842Y-123899283D01*
X272566198Y-124088533D01*
X272475388Y-124295560D01*
X272419892Y-124514710D01*
X272401225Y-124739993D01*
X272401225Y-124740006D01*
X272419892Y-124965289D01*
X272475388Y-125184439D01*
X272566198Y-125391466D01*
X272689842Y-125580716D01*
X272689850Y-125580727D01*
X272842950Y-125747036D01*
X272842954Y-125747040D01*
X273021351Y-125885893D01*
X273049159Y-125900942D01*
X273049165Y-125900945D01*
X273098755Y-125950165D01*
X273113863Y-126018382D01*
X273089692Y-126083937D01*
X273049165Y-126119055D01*
X273021352Y-126134106D01*
X272842955Y-126272959D01*
X272842950Y-126272963D01*
X272689850Y-126439272D01*
X272689842Y-126439283D01*
X272566198Y-126628533D01*
X272475388Y-126835560D01*
X272419892Y-127054710D01*
X272401225Y-127279993D01*
X272401225Y-127280006D01*
X272419892Y-127505289D01*
X272475388Y-127724439D01*
X272566198Y-127931466D01*
X272689842Y-128120716D01*
X272689850Y-128120727D01*
X272827350Y-128270090D01*
X272842954Y-128287040D01*
X273021351Y-128425893D01*
X273021353Y-128425894D01*
X273021356Y-128425896D01*
X273021362Y-128425899D01*
X273049163Y-128440944D01*
X273098754Y-128490161D01*
X273113864Y-128558378D01*
X273089694Y-128623934D01*
X273049167Y-128659052D01*
X273021361Y-128674100D01*
X273021353Y-128674105D01*
X272842955Y-128812959D01*
X272842950Y-128812963D01*
X272689850Y-128979272D01*
X272689842Y-128979283D01*
X272566198Y-129168533D01*
X272475388Y-129375560D01*
X272419892Y-129594710D01*
X272401225Y-129819993D01*
X272401225Y-129820006D01*
X272419892Y-130045289D01*
X272475388Y-130264439D01*
X272566198Y-130471466D01*
X272689842Y-130660716D01*
X272689850Y-130660727D01*
X272808017Y-130789089D01*
X272842954Y-130827040D01*
X273021351Y-130965893D01*
X273049159Y-130980942D01*
X273049165Y-130980945D01*
X273098755Y-131030165D01*
X273113863Y-131098382D01*
X273089692Y-131163937D01*
X273049165Y-131199055D01*
X273021352Y-131214106D01*
X272842955Y-131352959D01*
X272842950Y-131352963D01*
X272689850Y-131519272D01*
X272689842Y-131519283D01*
X272566198Y-131708533D01*
X272475388Y-131915560D01*
X272419892Y-132134710D01*
X272401225Y-132359993D01*
X272401225Y-132360006D01*
X272419892Y-132585289D01*
X272475388Y-132804439D01*
X272566198Y-133011466D01*
X272689842Y-133200716D01*
X272689850Y-133200727D01*
X272842950Y-133367036D01*
X272842954Y-133367040D01*
X273021351Y-133505893D01*
X273049159Y-133520942D01*
X273049165Y-133520945D01*
X273098755Y-133570165D01*
X273113863Y-133638382D01*
X273089692Y-133703937D01*
X273049165Y-133739055D01*
X273021352Y-133754106D01*
X272842955Y-133892959D01*
X272842950Y-133892963D01*
X272689850Y-134059272D01*
X272689842Y-134059283D01*
X272566198Y-134248533D01*
X272475388Y-134455560D01*
X272419892Y-134674710D01*
X272401225Y-134899993D01*
X272401225Y-134900006D01*
X272419892Y-135125289D01*
X272475388Y-135344439D01*
X272566198Y-135551466D01*
X272689842Y-135740716D01*
X272689850Y-135740727D01*
X272826879Y-135889578D01*
X272857802Y-135952232D01*
X272849942Y-136021658D01*
X272805795Y-136075814D01*
X272778983Y-136089743D01*
X272664071Y-136132602D01*
X272664064Y-136132606D01*
X272548855Y-136218852D01*
X272548852Y-136218855D01*
X272462606Y-136334064D01*
X272462602Y-136334071D01*
X272412308Y-136468917D01*
X272407858Y-136510314D01*
X272405901Y-136528523D01*
X272405900Y-136528535D01*
X272405900Y-138351470D01*
X272405901Y-138351476D01*
X272412308Y-138411083D01*
X272462602Y-138545928D01*
X272462606Y-138545935D01*
X272548852Y-138661144D01*
X272548855Y-138661147D01*
X272664064Y-138747393D01*
X272664071Y-138747397D01*
X272798917Y-138797691D01*
X272798916Y-138797691D01*
X272805844Y-138798435D01*
X272858527Y-138804100D01*
X274681472Y-138804099D01*
X274741083Y-138797691D01*
X274875931Y-138747396D01*
X274965689Y-138680202D01*
X275031153Y-138655786D01*
X275099426Y-138670637D01*
X275114311Y-138680203D01*
X275204069Y-138747396D01*
X275204071Y-138747397D01*
X275338917Y-138797691D01*
X275338916Y-138797691D01*
X275345844Y-138798435D01*
X275398527Y-138804100D01*
X277221472Y-138804099D01*
X277281083Y-138797691D01*
X277415931Y-138747396D01*
X277531146Y-138661146D01*
X277617396Y-138545931D01*
X277667691Y-138411083D01*
X277674100Y-138351473D01*
X277674099Y-136528528D01*
X277668899Y-136480157D01*
X277667691Y-136468916D01*
X277617397Y-136334071D01*
X277617393Y-136334064D01*
X277531147Y-136218855D01*
X277531144Y-136218852D01*
X277415935Y-136132606D01*
X277415928Y-136132602D01*
X277301016Y-136089743D01*
X277245082Y-136047872D01*
X277220665Y-135982408D01*
X277235517Y-135914135D01*
X277253113Y-135889586D01*
X277390156Y-135740719D01*
X277513802Y-135551465D01*
X277604611Y-135344441D01*
X277660107Y-135125293D01*
X277678775Y-134900000D01*
X277678775Y-134899993D01*
X277660107Y-134674710D01*
X277660107Y-134674707D01*
X277604611Y-134455559D01*
X277513802Y-134248535D01*
X277390156Y-134059281D01*
X277390153Y-134059278D01*
X277390149Y-134059272D01*
X277237049Y-133892963D01*
X277237048Y-133892962D01*
X277237046Y-133892960D01*
X277058649Y-133754107D01*
X277058647Y-133754106D01*
X277058646Y-133754105D01*
X277058639Y-133754100D01*
X277030836Y-133739055D01*
X276981244Y-133689837D01*
X276966135Y-133621620D01*
X276990306Y-133556064D01*
X277030836Y-133520945D01*
X277058639Y-133505899D01*
X277058642Y-133505896D01*
X277058649Y-133505893D01*
X277237046Y-133367040D01*
X277390156Y-133200719D01*
X277513802Y-133011465D01*
X277604611Y-132804441D01*
X277660107Y-132585293D01*
X277678775Y-132360000D01*
X277678775Y-132359993D01*
X277660107Y-132134710D01*
X277660107Y-132134707D01*
X277604611Y-131915559D01*
X277513802Y-131708535D01*
X277390156Y-131519281D01*
X277390153Y-131519278D01*
X277390149Y-131519272D01*
X277237049Y-131352963D01*
X277237048Y-131352962D01*
X277237046Y-131352960D01*
X277058649Y-131214107D01*
X277058647Y-131214106D01*
X277058646Y-131214105D01*
X277058643Y-131214103D01*
X277030833Y-131199053D01*
X276981243Y-131149833D01*
X276966136Y-131081616D01*
X276990307Y-131016061D01*
X277030835Y-130980945D01*
X277058649Y-130965893D01*
X277237046Y-130827040D01*
X277390156Y-130660719D01*
X277513802Y-130471465D01*
X277604611Y-130264441D01*
X277660107Y-130045293D01*
X277678775Y-129820000D01*
X277678775Y-129819993D01*
X277660107Y-129594710D01*
X277660107Y-129594707D01*
X277604611Y-129375559D01*
X277513802Y-129168535D01*
X277390156Y-128979281D01*
X277390153Y-128979278D01*
X277390149Y-128979272D01*
X277237049Y-128812963D01*
X277237048Y-128812962D01*
X277237046Y-128812960D01*
X277058649Y-128674107D01*
X277058647Y-128674106D01*
X277058646Y-128674105D01*
X277058639Y-128674100D01*
X277030836Y-128659055D01*
X276981244Y-128609837D01*
X276966135Y-128541620D01*
X276990306Y-128476064D01*
X277030836Y-128440945D01*
X277058639Y-128425899D01*
X277058642Y-128425896D01*
X277058649Y-128425893D01*
X277237046Y-128287040D01*
X277336832Y-128178643D01*
X277390149Y-128120727D01*
X277390151Y-128120724D01*
X277390156Y-128120719D01*
X277513802Y-127931465D01*
X277604611Y-127724441D01*
X277660107Y-127505293D01*
X277675067Y-127324755D01*
X277678775Y-127280006D01*
X277678775Y-127279993D01*
X277660107Y-127054710D01*
X277660107Y-127054707D01*
X277604611Y-126835559D01*
X277513802Y-126628535D01*
X277390156Y-126439281D01*
X277390153Y-126439278D01*
X277390149Y-126439272D01*
X277237049Y-126272963D01*
X277237048Y-126272962D01*
X277237046Y-126272960D01*
X277058649Y-126134107D01*
X277058647Y-126134106D01*
X277058646Y-126134105D01*
X277058643Y-126134103D01*
X277030833Y-126119053D01*
X276981243Y-126069833D01*
X276966136Y-126001616D01*
X276990307Y-125936061D01*
X277030835Y-125900945D01*
X277058649Y-125885893D01*
X277237046Y-125747040D01*
X277390156Y-125580719D01*
X277513802Y-125391465D01*
X277604611Y-125184441D01*
X277660107Y-124965293D01*
X277672892Y-124811003D01*
X277678775Y-124740006D01*
X277678775Y-124739993D01*
X277661929Y-124536693D01*
X277660107Y-124514707D01*
X277604611Y-124295559D01*
X277513802Y-124088535D01*
X277390156Y-123899281D01*
X277390153Y-123899278D01*
X277390149Y-123899272D01*
X277237049Y-123732963D01*
X277237048Y-123732962D01*
X277237046Y-123732960D01*
X277058649Y-123594107D01*
X277058647Y-123594106D01*
X277058646Y-123594105D01*
X277058639Y-123594100D01*
X277030836Y-123579055D01*
X276981244Y-123529837D01*
X276966135Y-123461620D01*
X276990306Y-123396064D01*
X277030836Y-123360945D01*
X277058639Y-123345899D01*
X277058642Y-123345896D01*
X277058649Y-123345893D01*
X277237046Y-123207040D01*
X277390156Y-123040719D01*
X277513802Y-122851465D01*
X277604611Y-122644441D01*
X277660107Y-122425293D01*
X277673324Y-122265785D01*
X277678775Y-122200006D01*
X277678775Y-122199993D01*
X277660107Y-121974710D01*
X277660107Y-121974707D01*
X277604611Y-121755559D01*
X277513802Y-121548535D01*
X277390156Y-121359281D01*
X277390153Y-121359278D01*
X277390149Y-121359272D01*
X277237049Y-121192963D01*
X277237048Y-121192962D01*
X277237046Y-121192960D01*
X277058649Y-121054107D01*
X277058647Y-121054106D01*
X277058646Y-121054105D01*
X277058639Y-121054100D01*
X277030836Y-121039055D01*
X276981244Y-120989837D01*
X276966135Y-120921620D01*
X276990306Y-120856064D01*
X277030836Y-120820945D01*
X277058639Y-120805899D01*
X277058642Y-120805896D01*
X277058649Y-120805893D01*
X277237046Y-120667040D01*
X277390156Y-120500719D01*
X277513802Y-120311465D01*
X277604611Y-120104441D01*
X277660107Y-119885293D01*
X277670091Y-119764801D01*
X277678775Y-119660006D01*
X277678775Y-119659993D01*
X277664091Y-119482788D01*
X277660107Y-119434707D01*
X277604611Y-119215559D01*
X277513802Y-119008535D01*
X277390156Y-118819281D01*
X277390153Y-118819278D01*
X277390149Y-118819272D01*
X277237049Y-118652963D01*
X277237048Y-118652962D01*
X277237046Y-118652960D01*
X277058649Y-118514107D01*
X277058647Y-118514106D01*
X277058646Y-118514105D01*
X277058643Y-118514103D01*
X277030833Y-118499053D01*
X276981243Y-118449833D01*
X276966136Y-118381616D01*
X276990307Y-118316061D01*
X277030835Y-118280945D01*
X277058649Y-118265893D01*
X277237046Y-118127040D01*
X277390156Y-117960719D01*
X277513802Y-117771465D01*
X277604611Y-117564441D01*
X277660107Y-117345293D01*
X277678775Y-117120000D01*
X277678775Y-117119993D01*
X277660107Y-116894710D01*
X277660107Y-116894707D01*
X277604611Y-116675559D01*
X277513802Y-116468535D01*
X277476129Y-116410873D01*
X277431826Y-116343062D01*
X277390156Y-116279281D01*
X277390153Y-116279278D01*
X277390149Y-116279272D01*
X277237049Y-116112963D01*
X277237048Y-116112962D01*
X277237046Y-116112960D01*
X277058649Y-115974107D01*
X277058647Y-115974106D01*
X277058646Y-115974105D01*
X277058639Y-115974100D01*
X277030836Y-115959055D01*
X276981244Y-115909837D01*
X276966135Y-115841620D01*
X276990306Y-115776064D01*
X277030836Y-115740945D01*
X277058639Y-115725899D01*
X277058642Y-115725896D01*
X277058649Y-115725893D01*
X277237046Y-115587040D01*
X277390156Y-115420719D01*
X277513802Y-115231465D01*
X277604611Y-115024441D01*
X277660107Y-114805293D01*
X277678775Y-114580000D01*
X277678775Y-114579993D01*
X277660107Y-114354710D01*
X277660107Y-114354707D01*
X277604611Y-114135559D01*
X277513802Y-113928535D01*
X277496924Y-113902702D01*
X277390157Y-113739283D01*
X277390149Y-113739272D01*
X277237049Y-113572963D01*
X277237048Y-113572962D01*
X277237046Y-113572960D01*
X277058649Y-113434107D01*
X277058647Y-113434106D01*
X277058646Y-113434105D01*
X277058643Y-113434103D01*
X277030833Y-113419053D01*
X276981243Y-113369833D01*
X276966136Y-113301616D01*
X276990307Y-113236061D01*
X277030835Y-113200945D01*
X277058649Y-113185893D01*
X277237046Y-113047040D01*
X277344824Y-112929962D01*
X277390149Y-112880727D01*
X277390151Y-112880724D01*
X277390156Y-112880719D01*
X277513802Y-112691465D01*
X277604611Y-112484441D01*
X277660107Y-112265293D01*
X277678775Y-112040000D01*
X277678775Y-112039993D01*
X277660107Y-111814710D01*
X277660107Y-111814707D01*
X277604611Y-111595559D01*
X277513802Y-111388535D01*
X277488952Y-111350500D01*
X277390157Y-111199283D01*
X277390149Y-111199272D01*
X277237049Y-111032963D01*
X277237048Y-111032962D01*
X277237046Y-111032960D01*
X277058649Y-110894107D01*
X277058647Y-110894106D01*
X277058646Y-110894105D01*
X277058639Y-110894100D01*
X277030836Y-110879055D01*
X276981244Y-110829837D01*
X276966135Y-110761620D01*
X276990306Y-110696064D01*
X277030836Y-110660945D01*
X277058639Y-110645899D01*
X277058642Y-110645896D01*
X277058649Y-110645893D01*
X277237046Y-110507040D01*
X277336832Y-110398643D01*
X277390149Y-110340727D01*
X277390151Y-110340724D01*
X277390156Y-110340719D01*
X277513802Y-110151465D01*
X277604611Y-109944441D01*
X277660107Y-109725293D01*
X277678775Y-109500000D01*
X277678775Y-109499993D01*
X277660107Y-109274710D01*
X277660107Y-109274707D01*
X277604611Y-109055559D01*
X277513802Y-108848535D01*
X277390156Y-108659281D01*
X277390153Y-108659278D01*
X277390149Y-108659272D01*
X277237049Y-108492963D01*
X277237048Y-108492962D01*
X277237046Y-108492960D01*
X277058649Y-108354107D01*
X277058647Y-108354106D01*
X277058646Y-108354105D01*
X277058639Y-108354100D01*
X277030836Y-108339055D01*
X276981244Y-108289837D01*
X276966135Y-108221620D01*
X276990306Y-108156064D01*
X277030836Y-108120945D01*
X277058639Y-108105899D01*
X277058642Y-108105896D01*
X277058649Y-108105893D01*
X277237046Y-107967040D01*
X277349203Y-107845206D01*
X277390149Y-107800727D01*
X277390151Y-107800724D01*
X277390156Y-107800719D01*
X277513802Y-107611465D01*
X277604611Y-107404441D01*
X277660107Y-107185293D01*
X277667574Y-107095175D01*
X277678775Y-106960006D01*
X277678775Y-106959993D01*
X277660107Y-106734710D01*
X277660107Y-106734707D01*
X277604611Y-106515559D01*
X277513802Y-106308535D01*
X277504033Y-106293583D01*
X277390157Y-106119283D01*
X277390149Y-106119272D01*
X277237049Y-105952963D01*
X277237048Y-105952962D01*
X277237046Y-105952960D01*
X277058649Y-105814107D01*
X277058647Y-105814106D01*
X277058646Y-105814105D01*
X277058643Y-105814103D01*
X277030833Y-105799053D01*
X276981243Y-105749833D01*
X276966136Y-105681616D01*
X276990307Y-105616061D01*
X277030835Y-105580945D01*
X277058649Y-105565893D01*
X277237046Y-105427040D01*
X277357324Y-105296384D01*
X277390149Y-105260727D01*
X277390150Y-105260725D01*
X277390156Y-105260719D01*
X277513802Y-105071465D01*
X277604611Y-104864441D01*
X277660107Y-104645293D01*
X277678775Y-104420000D01*
X277678775Y-104419993D01*
X277660107Y-104194710D01*
X277660107Y-104194707D01*
X277604611Y-103975559D01*
X277513802Y-103768535D01*
X277390156Y-103579281D01*
X277390153Y-103579278D01*
X277390149Y-103579272D01*
X277237049Y-103412963D01*
X277237048Y-103412962D01*
X277237046Y-103412960D01*
X277058649Y-103274107D01*
X277058647Y-103274106D01*
X277058646Y-103274105D01*
X277058639Y-103274100D01*
X277030836Y-103259055D01*
X276981244Y-103209837D01*
X276966135Y-103141620D01*
X276990306Y-103076064D01*
X277030836Y-103040945D01*
X277058639Y-103025899D01*
X277058642Y-103025896D01*
X277058649Y-103025893D01*
X277237046Y-102887040D01*
X277390156Y-102720719D01*
X277513802Y-102531465D01*
X277604611Y-102324441D01*
X277660107Y-102105293D01*
X277678775Y-101880000D01*
X277678775Y-101879993D01*
X277660107Y-101654710D01*
X277660107Y-101654707D01*
X277604611Y-101435559D01*
X277513802Y-101228535D01*
X277390156Y-101039281D01*
X277390153Y-101039278D01*
X277390149Y-101039272D01*
X277237049Y-100872963D01*
X277237048Y-100872962D01*
X277237046Y-100872960D01*
X277058649Y-100734107D01*
X277058647Y-100734106D01*
X277058646Y-100734105D01*
X277058643Y-100734103D01*
X277030833Y-100719053D01*
X276981243Y-100669833D01*
X276966136Y-100601616D01*
X276990307Y-100536061D01*
X277030835Y-100500945D01*
X277058649Y-100485893D01*
X277237046Y-100347040D01*
X277390156Y-100180719D01*
X277513802Y-99991465D01*
X277604611Y-99784441D01*
X277660107Y-99565293D01*
X277678775Y-99340000D01*
X277678775Y-99339993D01*
X277660107Y-99114710D01*
X277660107Y-99114707D01*
X277604611Y-98895559D01*
X277513802Y-98688535D01*
X277390156Y-98499281D01*
X277390153Y-98499278D01*
X277390149Y-98499272D01*
X277237049Y-98332963D01*
X277237048Y-98332962D01*
X277237046Y-98332960D01*
X277058649Y-98194107D01*
X277058647Y-98194106D01*
X277058646Y-98194105D01*
X277058643Y-98194103D01*
X277030833Y-98179053D01*
X276981243Y-98129833D01*
X276966136Y-98061616D01*
X276990307Y-97996061D01*
X277030835Y-97960945D01*
X277058649Y-97945893D01*
X277237046Y-97807040D01*
X277390156Y-97640719D01*
X277513802Y-97451465D01*
X277604611Y-97244441D01*
X277660107Y-97025293D01*
X277678775Y-96800000D01*
X277678775Y-96799993D01*
X277660107Y-96574710D01*
X277660107Y-96574707D01*
X277604611Y-96355559D01*
X277513802Y-96148535D01*
X277488952Y-96110500D01*
X277390157Y-95959283D01*
X277390149Y-95959272D01*
X277237049Y-95792963D01*
X277237048Y-95792962D01*
X277237046Y-95792960D01*
X277058649Y-95654107D01*
X277058647Y-95654106D01*
X277058646Y-95654105D01*
X277058639Y-95654100D01*
X277030836Y-95639055D01*
X276981244Y-95589837D01*
X276966135Y-95521620D01*
X276990306Y-95456064D01*
X277030836Y-95420945D01*
X277058639Y-95405899D01*
X277058642Y-95405896D01*
X277058649Y-95405893D01*
X277237046Y-95267040D01*
X277375257Y-95116904D01*
X277390149Y-95100727D01*
X277390151Y-95100724D01*
X277390156Y-95100719D01*
X277513802Y-94911465D01*
X277604611Y-94704441D01*
X277660107Y-94485293D01*
X277678775Y-94260000D01*
X277678775Y-94259993D01*
X277660107Y-94034710D01*
X277660107Y-94034707D01*
X277604611Y-93815559D01*
X277513802Y-93608535D01*
X277390156Y-93419281D01*
X277390153Y-93419278D01*
X277390149Y-93419272D01*
X277237049Y-93252963D01*
X277237048Y-93252962D01*
X277237046Y-93252960D01*
X277058649Y-93114107D01*
X276982910Y-93073119D01*
X276859832Y-93006512D01*
X276859827Y-93006510D01*
X276646017Y-92933109D01*
X276464388Y-92902801D01*
X276423033Y-92895900D01*
X276196967Y-92895900D01*
X276155612Y-92902801D01*
X275973982Y-92933109D01*
X275760172Y-93006510D01*
X275760167Y-93006512D01*
X275561352Y-93114106D01*
X275382955Y-93252959D01*
X275382950Y-93252963D01*
X275229850Y-93419272D01*
X275229842Y-93419283D01*
X275143808Y-93550968D01*
X275090662Y-93596325D01*
X275021430Y-93605748D01*
X274958095Y-93576246D01*
X274936192Y-93550968D01*
X274850157Y-93419283D01*
X274850149Y-93419272D01*
X274697049Y-93252963D01*
X274697048Y-93252962D01*
X274697046Y-93252960D01*
X274518649Y-93114107D01*
X274442910Y-93073119D01*
X274319832Y-93006512D01*
X274319827Y-93006510D01*
X274106017Y-92933109D01*
X273924388Y-92902801D01*
X273883033Y-92895900D01*
X273656967Y-92895900D01*
X273615612Y-92902801D01*
X273433982Y-92933109D01*
X273220172Y-93006510D01*
X273220167Y-93006512D01*
X273021352Y-93114106D01*
X272842955Y-93252959D01*
X272842950Y-93252963D01*
X272689850Y-93419272D01*
X272689842Y-93419283D01*
X272566198Y-93608533D01*
X272475388Y-93815560D01*
X272419892Y-94034710D01*
X272401225Y-94259993D01*
X272401225Y-94260006D01*
X272419892Y-94485289D01*
X272475388Y-94704439D01*
X272566198Y-94911466D01*
X272689842Y-95100716D01*
X272689850Y-95100727D01*
X272831352Y-95254437D01*
X272842954Y-95267040D01*
X273021351Y-95405893D01*
X273049165Y-95420945D01*
X273098755Y-95470165D01*
X273113863Y-95538382D01*
X273089692Y-95603937D01*
X273049165Y-95639055D01*
X273021352Y-95654106D01*
X272842955Y-95792959D01*
X272842950Y-95792963D01*
X272689850Y-95959272D01*
X272689842Y-95959283D01*
X272566198Y-96148533D01*
X272475388Y-96355560D01*
X272419892Y-96574710D01*
X272401225Y-96799993D01*
X272401225Y-96800006D01*
X272419892Y-97025289D01*
X272475388Y-97244439D01*
X272566198Y-97451466D01*
X272689842Y-97640716D01*
X272689850Y-97640727D01*
X272842950Y-97807036D01*
X272842954Y-97807040D01*
X273021351Y-97945893D01*
X273049159Y-97960942D01*
X273049165Y-97960945D01*
X273098755Y-98010165D01*
X273113863Y-98078382D01*
X273089692Y-98143937D01*
X273049165Y-98179055D01*
X273021352Y-98194106D01*
X272842955Y-98332959D01*
X272842950Y-98332963D01*
X272689850Y-98499272D01*
X272689842Y-98499283D01*
X272566198Y-98688533D01*
X272475388Y-98895560D01*
X272419892Y-99114710D01*
X272401225Y-99339993D01*
X272401225Y-99340006D01*
X272419892Y-99565289D01*
X272419892Y-99565292D01*
X272419893Y-99565293D01*
X272475389Y-99784441D01*
X272486903Y-99810690D01*
X272495806Y-99879989D01*
X272465829Y-99943101D01*
X272406490Y-99979989D01*
X272373347Y-99984500D01*
X251909452Y-99984500D01*
X251842413Y-99964815D01*
X251796658Y-99912011D01*
X251786714Y-99842853D01*
X251815739Y-99779297D01*
X251821771Y-99772819D01*
X255934171Y-95660419D01*
X255995494Y-95626934D01*
X256021852Y-95624100D01*
X256103032Y-95624100D01*
X256103033Y-95624100D01*
X256326014Y-95586891D01*
X256539831Y-95513488D01*
X256738649Y-95405893D01*
X256917046Y-95267040D01*
X257055257Y-95116904D01*
X257070149Y-95100727D01*
X257070149Y-95100726D01*
X257070156Y-95100719D01*
X257156193Y-94969028D01*
X257209338Y-94923675D01*
X257278569Y-94914251D01*
X257341905Y-94943753D01*
X257363804Y-94969025D01*
X257449844Y-95100719D01*
X257449849Y-95100724D01*
X257449850Y-95100727D01*
X257591352Y-95254437D01*
X257602954Y-95267040D01*
X257781351Y-95405893D01*
X257980169Y-95513488D01*
X257980172Y-95513489D01*
X258193982Y-95586890D01*
X258193984Y-95586890D01*
X258193986Y-95586891D01*
X258416967Y-95624100D01*
X258416968Y-95624100D01*
X258643032Y-95624100D01*
X258643033Y-95624100D01*
X258866014Y-95586891D01*
X259079831Y-95513488D01*
X259278649Y-95405893D01*
X259457046Y-95267040D01*
X259595257Y-95116904D01*
X259610149Y-95100727D01*
X259610151Y-95100724D01*
X259610156Y-95100719D01*
X259696193Y-94969029D01*
X259749336Y-94923675D01*
X259818567Y-94914251D01*
X259881903Y-94943753D01*
X259903807Y-94969031D01*
X259989842Y-95100716D01*
X259989850Y-95100727D01*
X260131352Y-95254437D01*
X260142954Y-95267040D01*
X260321351Y-95405893D01*
X260520169Y-95513488D01*
X260520172Y-95513489D01*
X260733982Y-95586890D01*
X260733984Y-95586890D01*
X260733986Y-95586891D01*
X260956967Y-95624100D01*
X260956968Y-95624100D01*
X261183032Y-95624100D01*
X261183033Y-95624100D01*
X261406014Y-95586891D01*
X261619831Y-95513488D01*
X261818649Y-95405893D01*
X261997046Y-95267040D01*
X262135257Y-95116904D01*
X262150149Y-95100727D01*
X262150149Y-95100726D01*
X262150156Y-95100719D01*
X262236193Y-94969028D01*
X262289338Y-94923675D01*
X262358569Y-94914251D01*
X262421905Y-94943753D01*
X262443804Y-94969025D01*
X262529844Y-95100719D01*
X262529849Y-95100724D01*
X262529850Y-95100727D01*
X262671352Y-95254437D01*
X262682954Y-95267040D01*
X262861351Y-95405893D01*
X263060169Y-95513488D01*
X263060172Y-95513489D01*
X263273982Y-95586890D01*
X263273984Y-95586890D01*
X263273986Y-95586891D01*
X263496967Y-95624100D01*
X263496968Y-95624100D01*
X263723032Y-95624100D01*
X263723033Y-95624100D01*
X263946014Y-95586891D01*
X264159831Y-95513488D01*
X264358649Y-95405893D01*
X264537046Y-95267040D01*
X264675257Y-95116904D01*
X264690149Y-95100727D01*
X264690149Y-95100726D01*
X264690156Y-95100719D01*
X264776193Y-94969028D01*
X264829338Y-94923675D01*
X264898569Y-94914251D01*
X264961905Y-94943753D01*
X264983804Y-94969025D01*
X265069844Y-95100719D01*
X265069849Y-95100724D01*
X265069850Y-95100727D01*
X265211352Y-95254437D01*
X265222954Y-95267040D01*
X265401351Y-95405893D01*
X265600169Y-95513488D01*
X265600172Y-95513489D01*
X265813982Y-95586890D01*
X265813984Y-95586890D01*
X265813986Y-95586891D01*
X266036967Y-95624100D01*
X266036968Y-95624100D01*
X266263032Y-95624100D01*
X266263033Y-95624100D01*
X266486014Y-95586891D01*
X266699831Y-95513488D01*
X266898649Y-95405893D01*
X267077046Y-95267040D01*
X267215257Y-95116904D01*
X267230149Y-95100727D01*
X267230151Y-95100724D01*
X267230156Y-95100719D01*
X267353802Y-94911465D01*
X267444611Y-94704441D01*
X267500107Y-94485293D01*
X267513160Y-94327763D01*
X268105787Y-94327763D01*
X268135413Y-94597013D01*
X268135415Y-94597024D01*
X268202245Y-94852651D01*
X268203928Y-94859088D01*
X268309870Y-95108390D01*
X268404754Y-95263862D01*
X268450979Y-95339605D01*
X268450986Y-95339615D01*
X268624253Y-95547819D01*
X268624259Y-95547824D01*
X268742879Y-95654107D01*
X268825998Y-95728582D01*
X269051910Y-95878044D01*
X269297176Y-95993020D01*
X269297183Y-95993022D01*
X269297185Y-95993023D01*
X269556557Y-96071057D01*
X269556564Y-96071058D01*
X269556569Y-96071060D01*
X269824561Y-96110500D01*
X269824566Y-96110500D01*
X270027629Y-96110500D01*
X270027631Y-96110500D01*
X270027636Y-96110499D01*
X270027648Y-96110499D01*
X270065191Y-96107750D01*
X270230156Y-96095677D01*
X270342758Y-96070593D01*
X270494546Y-96036782D01*
X270494548Y-96036781D01*
X270494553Y-96036780D01*
X270747558Y-95940014D01*
X270983777Y-95807441D01*
X271198177Y-95641888D01*
X271386186Y-95446881D01*
X271543799Y-95226579D01*
X271666085Y-94988731D01*
X271667649Y-94985690D01*
X271667651Y-94985684D01*
X271667656Y-94985675D01*
X271755118Y-94729305D01*
X271804319Y-94462933D01*
X271814212Y-94192235D01*
X271784586Y-93922982D01*
X271716072Y-93660912D01*
X271610130Y-93411610D01*
X271469018Y-93180390D01*
X271413857Y-93114107D01*
X271295746Y-92972180D01*
X271295740Y-92972175D01*
X271094002Y-92791418D01*
X270868092Y-92641957D01*
X270868090Y-92641956D01*
X270622824Y-92526980D01*
X270622819Y-92526978D01*
X270622814Y-92526976D01*
X270363442Y-92448942D01*
X270363428Y-92448939D01*
X270247791Y-92431921D01*
X270095439Y-92409500D01*
X269892369Y-92409500D01*
X269892351Y-92409500D01*
X269689844Y-92424323D01*
X269689831Y-92424325D01*
X269425453Y-92483217D01*
X269425446Y-92483220D01*
X269172439Y-92579987D01*
X268936226Y-92712557D01*
X268721822Y-92878112D01*
X268533822Y-93073109D01*
X268533816Y-93073116D01*
X268376202Y-93293419D01*
X268376199Y-93293424D01*
X268252350Y-93534309D01*
X268252343Y-93534327D01*
X268164884Y-93790685D01*
X268164881Y-93790699D01*
X268115681Y-94057068D01*
X268115680Y-94057075D01*
X268105787Y-94327763D01*
X267513160Y-94327763D01*
X267518775Y-94260000D01*
X267518775Y-94259993D01*
X267500107Y-94034710D01*
X267500107Y-94034707D01*
X267444611Y-93815559D01*
X267353802Y-93608535D01*
X267230156Y-93419281D01*
X267230153Y-93419278D01*
X267230149Y-93419272D01*
X267077049Y-93252963D01*
X267077048Y-93252962D01*
X267077046Y-93252960D01*
X266898649Y-93114107D01*
X266822910Y-93073119D01*
X266699832Y-93006512D01*
X266699827Y-93006510D01*
X266486017Y-92933109D01*
X266304388Y-92902801D01*
X266263033Y-92895900D01*
X266036967Y-92895900D01*
X265995612Y-92902801D01*
X265813982Y-92933109D01*
X265600172Y-93006510D01*
X265600167Y-93006512D01*
X265401352Y-93114106D01*
X265222955Y-93252959D01*
X265222950Y-93252963D01*
X265069850Y-93419272D01*
X265069846Y-93419278D01*
X264983807Y-93550969D01*
X264930660Y-93596325D01*
X264861429Y-93605748D01*
X264798093Y-93576245D01*
X264776192Y-93550969D01*
X264690156Y-93419281D01*
X264690151Y-93419276D01*
X264690149Y-93419272D01*
X264537049Y-93252963D01*
X264537048Y-93252962D01*
X264537046Y-93252960D01*
X264358649Y-93114107D01*
X264282910Y-93073119D01*
X264159832Y-93006512D01*
X264159827Y-93006510D01*
X263946017Y-92933109D01*
X263764388Y-92902801D01*
X263723033Y-92895900D01*
X263496967Y-92895900D01*
X263455612Y-92902801D01*
X263273982Y-92933109D01*
X263060172Y-93006510D01*
X263060167Y-93006512D01*
X262861352Y-93114106D01*
X262682955Y-93252959D01*
X262682950Y-93252963D01*
X262529850Y-93419272D01*
X262529842Y-93419283D01*
X262443808Y-93550968D01*
X262390662Y-93596325D01*
X262321430Y-93605748D01*
X262258095Y-93576246D01*
X262236192Y-93550968D01*
X262150157Y-93419283D01*
X262150149Y-93419272D01*
X261997049Y-93252963D01*
X261997048Y-93252962D01*
X261997046Y-93252960D01*
X261818649Y-93114107D01*
X261742910Y-93073119D01*
X261619832Y-93006512D01*
X261619827Y-93006510D01*
X261406017Y-92933109D01*
X261224388Y-92902801D01*
X261183033Y-92895900D01*
X260956967Y-92895900D01*
X260915612Y-92902801D01*
X260733982Y-92933109D01*
X260520172Y-93006510D01*
X260520167Y-93006512D01*
X260321353Y-93114105D01*
X260222166Y-93191306D01*
X260157172Y-93216948D01*
X260088632Y-93203381D01*
X260058323Y-93181133D01*
X259033103Y-92155912D01*
X259023280Y-92143650D01*
X259023059Y-92143834D01*
X259018086Y-92137822D01*
X258968366Y-92091132D01*
X258966966Y-92089775D01*
X258946776Y-92069584D01*
X258941286Y-92065325D01*
X258936861Y-92061547D01*
X258902882Y-92029638D01*
X258902880Y-92029636D01*
X258902877Y-92029635D01*
X258885329Y-92019988D01*
X258869063Y-92009304D01*
X258853233Y-91997025D01*
X258810468Y-91978518D01*
X258805222Y-91975948D01*
X258764393Y-91953503D01*
X258764392Y-91953502D01*
X258744993Y-91948522D01*
X258726581Y-91942218D01*
X258708198Y-91934262D01*
X258708192Y-91934260D01*
X258662174Y-91926972D01*
X258656452Y-91925787D01*
X258611321Y-91914200D01*
X258611319Y-91914200D01*
X258591284Y-91914200D01*
X258571886Y-91912673D01*
X258564462Y-91911497D01*
X258552105Y-91909540D01*
X258552104Y-91909540D01*
X258505716Y-91913925D01*
X258499878Y-91914200D01*
X224930543Y-91914200D01*
X224914922Y-91912475D01*
X224914896Y-91912761D01*
X224907133Y-91912026D01*
X224838953Y-91914169D01*
X224837006Y-91914200D01*
X224808449Y-91914200D01*
X224801566Y-91915069D01*
X224795749Y-91915526D01*
X224749173Y-91916990D01*
X224729929Y-91922581D01*
X224710879Y-91926525D01*
X224691011Y-91929034D01*
X224647684Y-91946188D01*
X224642158Y-91948079D01*
X224597414Y-91961079D01*
X224597410Y-91961081D01*
X224580166Y-91971279D01*
X224562705Y-91979833D01*
X224544074Y-91987210D01*
X224544062Y-91987217D01*
X224506370Y-92014602D01*
X224501487Y-92017809D01*
X224461380Y-92041529D01*
X224447214Y-92055695D01*
X224432424Y-92068327D01*
X224416214Y-92080104D01*
X224416211Y-92080107D01*
X224386510Y-92116009D01*
X224382577Y-92120331D01*
X222852705Y-93650203D01*
X222791382Y-93683688D01*
X222721690Y-93678704D01*
X222665757Y-93636832D01*
X222651469Y-93612334D01*
X222649802Y-93608534D01*
X222526157Y-93419283D01*
X222526149Y-93419272D01*
X222373049Y-93252963D01*
X222373048Y-93252962D01*
X222373046Y-93252960D01*
X222194649Y-93114107D01*
X222118910Y-93073119D01*
X221995832Y-93006512D01*
X221995827Y-93006510D01*
X221782017Y-92933109D01*
X221600388Y-92902801D01*
X221559033Y-92895900D01*
X221332967Y-92895900D01*
X221291612Y-92902801D01*
X221109982Y-92933109D01*
X220896172Y-93006510D01*
X220896167Y-93006512D01*
X220697352Y-93114106D01*
X220518955Y-93252959D01*
X220518950Y-93252963D01*
X220365850Y-93419272D01*
X220365846Y-93419278D01*
X220279807Y-93550969D01*
X220226660Y-93596325D01*
X220157429Y-93605748D01*
X220094093Y-93576245D01*
X220072192Y-93550969D01*
X219986156Y-93419281D01*
X219986151Y-93419276D01*
X219986149Y-93419272D01*
X219833049Y-93252963D01*
X219833048Y-93252962D01*
X219833046Y-93252960D01*
X219654649Y-93114107D01*
X219578910Y-93073119D01*
X219455832Y-93006512D01*
X219455827Y-93006510D01*
X219242017Y-92933109D01*
X219060388Y-92902801D01*
X219019033Y-92895900D01*
X218792967Y-92895900D01*
X218751612Y-92902801D01*
X218569982Y-92933109D01*
X218356172Y-93006510D01*
X218356167Y-93006512D01*
X218157352Y-93114106D01*
X217978955Y-93252959D01*
X217978950Y-93252963D01*
X217825850Y-93419272D01*
X217825842Y-93419283D01*
X217739808Y-93550968D01*
X217686662Y-93596325D01*
X217617430Y-93605748D01*
X217554095Y-93576246D01*
X217532192Y-93550968D01*
X217446157Y-93419283D01*
X217446149Y-93419272D01*
X217293049Y-93252963D01*
X217293048Y-93252962D01*
X217293046Y-93252960D01*
X217114649Y-93114107D01*
X217038910Y-93073119D01*
X216915832Y-93006512D01*
X216915827Y-93006510D01*
X216702017Y-92933109D01*
X216520388Y-92902801D01*
X216479033Y-92895900D01*
X216252967Y-92895900D01*
X216211612Y-92902801D01*
X216029982Y-92933109D01*
X215816172Y-93006510D01*
X215816167Y-93006512D01*
X215617352Y-93114106D01*
X215438955Y-93252959D01*
X215438950Y-93252963D01*
X215285850Y-93419272D01*
X215285842Y-93419283D01*
X215199808Y-93550968D01*
X215146662Y-93596325D01*
X215077430Y-93605748D01*
X215014095Y-93576246D01*
X214992192Y-93550968D01*
X214906157Y-93419283D01*
X214906149Y-93419272D01*
X214753049Y-93252963D01*
X214753048Y-93252962D01*
X214753046Y-93252960D01*
X214574649Y-93114107D01*
X214498910Y-93073119D01*
X214375832Y-93006512D01*
X214375827Y-93006510D01*
X214162017Y-92933109D01*
X213980388Y-92902801D01*
X213939033Y-92895900D01*
X213712967Y-92895900D01*
X213671612Y-92902801D01*
X213489982Y-92933109D01*
X213276172Y-93006510D01*
X213276167Y-93006512D01*
X213077352Y-93114106D01*
X212898955Y-93252959D01*
X212898950Y-93252963D01*
X212745850Y-93419272D01*
X212745846Y-93419278D01*
X212659807Y-93550969D01*
X212606660Y-93596325D01*
X212537429Y-93605748D01*
X212474093Y-93576245D01*
X212452192Y-93550969D01*
X212366156Y-93419281D01*
X212366151Y-93419276D01*
X212366149Y-93419272D01*
X212213049Y-93252963D01*
X212213048Y-93252962D01*
X212213046Y-93252960D01*
X212034649Y-93114107D01*
X211958910Y-93073119D01*
X211835832Y-93006512D01*
X211835827Y-93006510D01*
X211622017Y-92933109D01*
X211440388Y-92902801D01*
X211399033Y-92895900D01*
X211172967Y-92895900D01*
X211131612Y-92902801D01*
X210949982Y-92933109D01*
X210736172Y-93006510D01*
X210736167Y-93006512D01*
X210537352Y-93114106D01*
X210358955Y-93252959D01*
X210358950Y-93252963D01*
X210205850Y-93419272D01*
X210205842Y-93419283D01*
X210119808Y-93550968D01*
X210066662Y-93596325D01*
X209997430Y-93605748D01*
X209934095Y-93576246D01*
X209912192Y-93550968D01*
X209826157Y-93419283D01*
X209826149Y-93419272D01*
X209673049Y-93252963D01*
X209673048Y-93252962D01*
X209673046Y-93252960D01*
X209494649Y-93114107D01*
X209418910Y-93073119D01*
X209295832Y-93006512D01*
X209295827Y-93006510D01*
X209082017Y-92933109D01*
X208900388Y-92902801D01*
X208859033Y-92895900D01*
X208632967Y-92895900D01*
X208591612Y-92902801D01*
X208409982Y-92933109D01*
X208196172Y-93006510D01*
X208196167Y-93006512D01*
X207997352Y-93114106D01*
X207818955Y-93252958D01*
X207764186Y-93312453D01*
X207704298Y-93348443D01*
X207634460Y-93346342D01*
X207576845Y-93306817D01*
X207556775Y-93271802D01*
X207512954Y-93154313D01*
X207512950Y-93154306D01*
X207426790Y-93039212D01*
X207426787Y-93039209D01*
X207311693Y-92953049D01*
X207311686Y-92953045D01*
X207176979Y-92902803D01*
X207176972Y-92902801D01*
X207117444Y-92896400D01*
X206456000Y-92896400D01*
X206456000Y-93815702D01*
X206350592Y-93767565D01*
X206242334Y-93752000D01*
X206169666Y-93752000D01*
X206061408Y-93767565D01*
X205955999Y-93815702D01*
X205956000Y-92896400D01*
X205294555Y-92896400D01*
X205235027Y-92902801D01*
X205235020Y-92902803D01*
X205100313Y-92953045D01*
X205100306Y-92953049D01*
X204985212Y-93039209D01*
X204985209Y-93039212D01*
X204899049Y-93154306D01*
X204899046Y-93154312D01*
X204855224Y-93271803D01*
X204813352Y-93327736D01*
X204747887Y-93352153D01*
X204679615Y-93337301D01*
X204647813Y-93312452D01*
X204593049Y-93252963D01*
X204593048Y-93252962D01*
X204593046Y-93252960D01*
X204414649Y-93114107D01*
X204338910Y-93073119D01*
X204215832Y-93006512D01*
X204215827Y-93006510D01*
X204002017Y-92933109D01*
X203820388Y-92902801D01*
X203779033Y-92895900D01*
X203552967Y-92895900D01*
X203511612Y-92902801D01*
X203329982Y-92933109D01*
X203116172Y-93006510D01*
X203116167Y-93006512D01*
X202917352Y-93114106D01*
X202738955Y-93252959D01*
X202738950Y-93252963D01*
X202585850Y-93419272D01*
X202585842Y-93419283D01*
X202499808Y-93550968D01*
X202446662Y-93596325D01*
X202377430Y-93605748D01*
X202314095Y-93576246D01*
X202292192Y-93550968D01*
X202206157Y-93419283D01*
X202206149Y-93419272D01*
X202053049Y-93252963D01*
X202053048Y-93252962D01*
X202053046Y-93252960D01*
X201874649Y-93114107D01*
X201798910Y-93073119D01*
X201675832Y-93006512D01*
X201675827Y-93006510D01*
X201462017Y-92933109D01*
X201280388Y-92902801D01*
X201239033Y-92895900D01*
X201012967Y-92895900D01*
X200971612Y-92902801D01*
X200789982Y-92933109D01*
X200576172Y-93006510D01*
X200576167Y-93006512D01*
X200377352Y-93114106D01*
X200198955Y-93252959D01*
X200198950Y-93252963D01*
X200045850Y-93419272D01*
X200045842Y-93419283D01*
X199959808Y-93550968D01*
X199906662Y-93596325D01*
X199837430Y-93605748D01*
X199774095Y-93576246D01*
X199752192Y-93550968D01*
X199666157Y-93419283D01*
X199666149Y-93419272D01*
X199513049Y-93252963D01*
X199513048Y-93252962D01*
X199513046Y-93252960D01*
X199334649Y-93114107D01*
X199258910Y-93073119D01*
X199135832Y-93006512D01*
X199135827Y-93006510D01*
X198922017Y-92933109D01*
X198740388Y-92902801D01*
X198699033Y-92895900D01*
X198472967Y-92895900D01*
X198431612Y-92902801D01*
X198249982Y-92933109D01*
X198036172Y-93006510D01*
X198036167Y-93006512D01*
X197837352Y-93114106D01*
X197658955Y-93252959D01*
X197658950Y-93252963D01*
X197505850Y-93419272D01*
X197505842Y-93419283D01*
X197382198Y-93608533D01*
X197291388Y-93815560D01*
X197235892Y-94034710D01*
X197217225Y-94259993D01*
X197217225Y-94260006D01*
X196881735Y-94260006D01*
X196884212Y-94192235D01*
X196854586Y-93922982D01*
X196786072Y-93660912D01*
X196680130Y-93411610D01*
X196539018Y-93180390D01*
X196483857Y-93114107D01*
X196365746Y-92972180D01*
X196365740Y-92972175D01*
X196164002Y-92791418D01*
X195938092Y-92641957D01*
X195938090Y-92641956D01*
X195692824Y-92526980D01*
X195692819Y-92526978D01*
X195692814Y-92526976D01*
X195433442Y-92448942D01*
X195433428Y-92448939D01*
X195317791Y-92431921D01*
X195165439Y-92409500D01*
X194962369Y-92409500D01*
X194962351Y-92409500D01*
X194759844Y-92424323D01*
X194759831Y-92424325D01*
X194495453Y-92483217D01*
X194495446Y-92483220D01*
X194242439Y-92579987D01*
X194006226Y-92712557D01*
X193791822Y-92878112D01*
X193603822Y-93073109D01*
X193603816Y-93073116D01*
X193446202Y-93293419D01*
X193446199Y-93293424D01*
X193322350Y-93534309D01*
X193322343Y-93534327D01*
X193234884Y-93790685D01*
X193234881Y-93790699D01*
X193185681Y-94057068D01*
X193185680Y-94057075D01*
X193175787Y-94327763D01*
X190040500Y-94327763D01*
X190040500Y-88754500D01*
X190060185Y-88687461D01*
X190112989Y-88641706D01*
X190164500Y-88630500D01*
X279915500Y-88630500D01*
X279982539Y-88650185D01*
G37*
G04 #@! TD.AperFunction*
M02*
