G04 #@! TF.GenerationSoftware,KiCad,Pcbnew,7.0.5*
G04 #@! TF.CreationDate,2023-09-27T13:54:17+07:00*
G04 #@! TF.ProjectId,sumoRobotPCB,73756d6f-526f-4626-9f74-5043422e6b69,rev?*
G04 #@! TF.SameCoordinates,Original*
G04 #@! TF.FileFunction,Soldermask,Top*
G04 #@! TF.FilePolarity,Negative*
%FSLAX46Y46*%
G04 Gerber Fmt 4.6, Leading zero omitted, Abs format (unit mm)*
G04 Created by KiCad (PCBNEW 7.0.5) date 2023-09-27 13:54:17*
%MOMM*%
%LPD*%
G01*
G04 APERTURE LIST*
G04 Aperture macros list*
%AMRoundRect*
0 Rectangle with rounded corners*
0 $1 Rounding radius*
0 $2 $3 $4 $5 $6 $7 $8 $9 X,Y pos of 4 corners*
0 Add a 4 corners polygon primitive as box body*
4,1,4,$2,$3,$4,$5,$6,$7,$8,$9,$2,$3,0*
0 Add four circle primitives for the rounded corners*
1,1,$1+$1,$2,$3*
1,1,$1+$1,$4,$5*
1,1,$1+$1,$6,$7*
1,1,$1+$1,$8,$9*
0 Add four rect primitives between the rounded corners*
20,1,$1+$1,$2,$3,$4,$5,0*
20,1,$1+$1,$4,$5,$6,$7,0*
20,1,$1+$1,$6,$7,$8,$9,0*
20,1,$1+$1,$8,$9,$2,$3,0*%
G04 Aperture macros list end*
%ADD10RoundRect,0.150000X-0.150000X-0.700000X0.150000X-0.700000X0.150000X0.700000X-0.150000X0.700000X0*%
%ADD11RoundRect,0.250000X-0.250000X-1.150000X0.250000X-1.150000X0.250000X1.150000X-0.250000X1.150000X0*%
%ADD12RoundRect,0.250000X1.500000X0.650000X-1.500000X0.650000X-1.500000X-0.650000X1.500000X-0.650000X0*%
%ADD13RoundRect,0.250000X-1.025000X0.875000X-1.025000X-0.875000X1.025000X-0.875000X1.025000X0.875000X0*%
%ADD14RoundRect,0.250000X-0.650000X1.500000X-0.650000X-1.500000X0.650000X-1.500000X0.650000X1.500000X0*%
%ADD15RoundRect,0.250000X-0.450000X0.325000X-0.450000X-0.325000X0.450000X-0.325000X0.450000X0.325000X0*%
%ADD16RoundRect,0.250001X-1.099999X-1.099999X1.099999X-1.099999X1.099999X1.099999X-1.099999X1.099999X0*%
%ADD17C,2.700000*%
%ADD18R,2.900000X5.400000*%
%ADD19C,3.200000*%
%ADD20O,1.727200X1.727200*%
%ADD21R,1.727200X1.727200*%
%ADD22RoundRect,0.250000X0.300000X-2.050000X0.300000X2.050000X-0.300000X2.050000X-0.300000X-2.050000X0*%
%ADD23RoundRect,0.250002X5.149998X-4.449998X5.149998X4.449998X-5.149998X4.449998X-5.149998X-4.449998X0*%
%ADD24RoundRect,0.250000X-1.950000X-1.000000X1.950000X-1.000000X1.950000X1.000000X-1.950000X1.000000X0*%
%ADD25RoundRect,0.250000X0.450000X-0.350000X0.450000X0.350000X-0.450000X0.350000X-0.450000X-0.350000X0*%
G04 APERTURE END LIST*
D10*
X232744000Y-113478000D03*
X233994000Y-113478000D03*
X235244000Y-113478000D03*
X236494000Y-113478000D03*
X237744000Y-113478000D03*
D11*
X230894000Y-110128000D03*
X239594000Y-110128000D03*
D10*
X232744000Y-128778000D03*
X233994000Y-128778000D03*
X235244000Y-128778000D03*
X236494000Y-128778000D03*
X237744000Y-128778000D03*
D11*
X230894000Y-125428000D03*
X239594000Y-125428000D03*
D10*
X209114000Y-105876000D03*
X210364000Y-105876000D03*
X211614000Y-105876000D03*
D11*
X207264000Y-102526000D03*
X213464000Y-102526000D03*
D12*
X251310000Y-98920000D03*
X246310000Y-98920000D03*
D10*
X220900000Y-137610000D03*
X222150000Y-137610000D03*
X223400000Y-137610000D03*
X224650000Y-137610000D03*
D11*
X219050000Y-134260000D03*
X226500000Y-134260000D03*
D10*
X209114000Y-128826000D03*
X210364000Y-128826000D03*
X211614000Y-128826000D03*
D11*
X207264000Y-125476000D03*
X213464000Y-125476000D03*
D10*
X198140000Y-132334000D03*
X199390000Y-132334000D03*
D11*
X196290000Y-128984000D03*
X201240000Y-128984000D03*
D13*
X265750000Y-130252000D03*
X265750000Y-136652000D03*
D14*
X260310000Y-130954000D03*
X260310000Y-135954000D03*
D10*
X219536000Y-105738000D03*
X220786000Y-105738000D03*
X222036000Y-105738000D03*
X223286000Y-105738000D03*
X224536000Y-105738000D03*
D11*
X217686000Y-102388000D03*
X226386000Y-102388000D03*
D10*
X198088000Y-105966000D03*
X199338000Y-105966000D03*
X200588000Y-105966000D03*
D11*
X196238000Y-102616000D03*
X202438000Y-102616000D03*
D10*
X197515000Y-123108000D03*
X198765000Y-123108000D03*
X200015000Y-123108000D03*
X201265000Y-123108000D03*
D11*
X195665000Y-119758000D03*
X203115000Y-119758000D03*
D10*
X219536000Y-128688000D03*
X220786000Y-128688000D03*
X222036000Y-128688000D03*
X223286000Y-128688000D03*
X224536000Y-128688000D03*
D11*
X217686000Y-125338000D03*
X226386000Y-125338000D03*
D15*
X270000000Y-103900000D03*
X270000000Y-105950000D03*
D16*
X237430000Y-101280000D03*
D17*
X241390000Y-101280000D03*
D18*
X258490000Y-121350000D03*
X268390000Y-121350000D03*
D19*
X193760000Y-142520000D03*
X195030000Y-94260000D03*
D20*
X207730000Y-142520000D03*
D19*
X245830000Y-109500000D03*
X245830000Y-137440000D03*
X269960000Y-94260000D03*
X276310000Y-142520000D03*
D20*
X215350000Y-142520000D03*
X217890000Y-142520000D03*
X245957000Y-114580000D03*
X273770000Y-94260000D03*
X276310000Y-94260000D03*
X230590000Y-142520000D03*
X233130000Y-142520000D03*
X235670000Y-142520000D03*
X238210000Y-142520000D03*
X240750000Y-142520000D03*
X243290000Y-142520000D03*
X245830000Y-142520000D03*
X248370000Y-142520000D03*
X253450000Y-142520000D03*
X255990000Y-142520000D03*
X258530000Y-142520000D03*
X261070000Y-142520000D03*
X263610000Y-142520000D03*
X266150000Y-142520000D03*
X268690000Y-142520000D03*
X271230000Y-142520000D03*
X203666000Y-94260000D03*
X243290000Y-94260000D03*
X240750000Y-94260000D03*
X238210000Y-94260000D03*
X235670000Y-94260000D03*
X233130000Y-94260000D03*
X230590000Y-94260000D03*
X228050000Y-94260000D03*
X225510000Y-94260000D03*
X221446000Y-94260000D03*
X218906000Y-94260000D03*
X216366000Y-94260000D03*
X213826000Y-94260000D03*
X211286000Y-94260000D03*
X208746000Y-94260000D03*
X248370000Y-94260000D03*
X250910000Y-94260000D03*
X253450000Y-94260000D03*
X255990000Y-94260000D03*
X258530000Y-94260000D03*
X261070000Y-94260000D03*
X263610000Y-94260000D03*
X266150000Y-94260000D03*
X273770000Y-96800000D03*
X276310000Y-96800000D03*
X273770000Y-99340000D03*
X276310000Y-99340000D03*
X273770000Y-101880000D03*
X276310000Y-101880000D03*
X273770000Y-104420000D03*
X276310000Y-104420000D03*
X273770000Y-106960000D03*
X276310000Y-106960000D03*
X273770000Y-109500000D03*
X276310000Y-109500000D03*
X273770000Y-112040000D03*
X276310000Y-112040000D03*
X273770000Y-114580000D03*
X276310000Y-114580000D03*
X273770000Y-117120000D03*
X276310000Y-117120000D03*
X273770000Y-119660000D03*
X276310000Y-119660000D03*
X273770000Y-122200000D03*
X276310000Y-122200000D03*
X273770000Y-124740000D03*
X276310000Y-124740000D03*
X273770000Y-127280000D03*
X276310000Y-127280000D03*
X273770000Y-129820000D03*
X276310000Y-129820000D03*
X273770000Y-132360000D03*
X276310000Y-132360000D03*
X273770000Y-134900000D03*
X276310000Y-134900000D03*
D21*
X206206000Y-94260000D03*
X220430000Y-142520000D03*
X222970000Y-142520000D03*
X245957000Y-119660000D03*
X273770000Y-137440000D03*
X276310000Y-137440000D03*
D20*
X210270000Y-142520000D03*
X243417000Y-114580000D03*
X245957000Y-117120000D03*
X212810000Y-142520000D03*
X243417000Y-119660000D03*
X243417000Y-117120000D03*
X198586000Y-94260000D03*
X201126000Y-94260000D03*
X225510000Y-142520000D03*
D10*
X209114000Y-121176000D03*
X210364000Y-121176000D03*
X211614000Y-121176000D03*
D11*
X207264000Y-117826000D03*
X213464000Y-117826000D03*
D10*
X209114000Y-113526000D03*
X210364000Y-113526000D03*
X211614000Y-113526000D03*
D11*
X207264000Y-110176000D03*
X213464000Y-110176000D03*
D10*
X232744000Y-121128000D03*
X233994000Y-121128000D03*
X235244000Y-121128000D03*
X236494000Y-121128000D03*
X237744000Y-121128000D03*
D11*
X230894000Y-117778000D03*
X239594000Y-117778000D03*
D10*
X219536000Y-121038000D03*
X220786000Y-121038000D03*
X222036000Y-121038000D03*
X223286000Y-121038000D03*
X224536000Y-121038000D03*
D11*
X217686000Y-117688000D03*
X226386000Y-117688000D03*
D10*
X208594000Y-137668000D03*
X209844000Y-137668000D03*
X211094000Y-137668000D03*
X212344000Y-137668000D03*
D11*
X206744000Y-134318000D03*
X214194000Y-134318000D03*
D22*
X257385000Y-110725000D03*
X259085000Y-110725000D03*
X260785000Y-110725000D03*
D23*
X260785000Y-101575000D03*
D22*
X262485000Y-110725000D03*
X264185000Y-110725000D03*
D10*
X219536000Y-113388000D03*
X220786000Y-113388000D03*
X222036000Y-113388000D03*
X223286000Y-113388000D03*
X224536000Y-113388000D03*
D11*
X217686000Y-110038000D03*
X226386000Y-110038000D03*
D24*
X245160000Y-127420000D03*
X253560000Y-127420000D03*
D10*
X197515000Y-115458000D03*
X198765000Y-115458000D03*
X200015000Y-115458000D03*
X201265000Y-115458000D03*
D11*
X195665000Y-112108000D03*
X203115000Y-112108000D03*
D25*
X270000000Y-111270000D03*
X270000000Y-109270000D03*
M02*
