%TF.GenerationSoftware,KiCad,Pcbnew,7.0.5*%
%TF.CreationDate,2023-10-23T19:10:16+07:00*%
%TF.ProjectId,STM32F407VGT6,53544d33-3246-4343-9037-564754362e6b,rev?*%
%TF.SameCoordinates,Original*%
%TF.FileFunction,Drillmap*%
%TF.FilePolarity,Positive*%
%FSLAX45Y45*%
G04 Gerber Fmt 4.5, Leading zero omitted, Abs format (unit mm)*
G04 Created by KiCad (PCBNEW 7.0.5) date 2023-10-23 19:10:16*
%MOMM*%
%LPD*%
G01*
G04 APERTURE LIST*
%ADD10C,0.100000*%
%ADD11C,0.200000*%
%ADD12C,0.040000*%
%ADD13C,0.075000*%
%ADD14C,0.080000*%
%ADD15C,0.170000*%
G04 APERTURE END LIST*
D10*
X12003327Y-5777000D02*
X18503327Y-5777000D01*
X18503327Y-14277000D01*
X12003327Y-14277000D01*
X12003327Y-5777000D01*
X18463506Y-5978000D02*
G75*
G03*
X18463506Y-5978000I-160590J0D01*
G01*
X12864293Y-12377000D02*
G75*
G03*
X12864293Y-12377000I-161966J0D01*
G01*
X12364916Y-5977410D02*
G75*
G03*
X12364916Y-5977410I-160590J0D01*
G01*
X17965653Y-12374000D02*
G75*
G03*
X17965653Y-12374000I-159327J0D01*
G01*
D11*
D12*
X12123000Y-12271000D02*
X12163000Y-12311000D01*
X12163000Y-12271000D02*
X12123000Y-12311000D01*
X12123000Y-12371000D02*
X12163000Y-12411000D01*
X12163000Y-12371000D02*
X12123000Y-12411000D01*
X12123000Y-12471000D02*
X12163000Y-12511000D01*
X12163000Y-12471000D02*
X12123000Y-12511000D01*
X12123000Y-12571000D02*
X12163000Y-12611000D01*
X12163000Y-12571000D02*
X12123000Y-12611000D01*
X12123000Y-12671000D02*
X12163000Y-12711000D01*
X12163000Y-12671000D02*
X12123000Y-12711000D01*
X12123000Y-12771000D02*
X12163000Y-12811000D01*
X12163000Y-12771000D02*
X12123000Y-12811000D01*
X12123000Y-12871000D02*
X12163000Y-12911000D01*
X12163000Y-12871000D02*
X12123000Y-12911000D01*
X12123000Y-12971000D02*
X12163000Y-13011000D01*
X12163000Y-12971000D02*
X12123000Y-13011000D01*
X12123000Y-13071000D02*
X12163000Y-13111000D01*
X12163000Y-13071000D02*
X12123000Y-13111000D01*
X12123000Y-13171000D02*
X12163000Y-13211000D01*
X12163000Y-13171000D02*
X12123000Y-13211000D01*
X12292985Y-10891015D02*
X12332985Y-10931015D01*
X12332985Y-10891015D02*
X12292985Y-10931015D01*
X12491200Y-5999800D02*
X12531200Y-6039800D01*
X12531200Y-5999800D02*
X12491200Y-6039800D01*
X12517960Y-9824610D02*
X12557960Y-9864610D01*
X12557960Y-9824610D02*
X12517960Y-9864610D01*
X12535690Y-9549190D02*
X12575690Y-9589190D01*
X12575690Y-9549190D02*
X12535690Y-9589190D01*
X12591200Y-5999800D02*
X12631200Y-6039800D01*
X12631200Y-5999800D02*
X12591200Y-6039800D01*
X12623000Y-8819000D02*
X12663000Y-8859000D01*
X12663000Y-8819000D02*
X12623000Y-8859000D01*
X12623000Y-8919000D02*
X12663000Y-8959000D01*
X12663000Y-8919000D02*
X12623000Y-8959000D01*
X12623000Y-9019000D02*
X12663000Y-9059000D01*
X12663000Y-9019000D02*
X12623000Y-9059000D01*
X12623000Y-9119000D02*
X12663000Y-9159000D01*
X12663000Y-9119000D02*
X12623000Y-9159000D01*
X12690360Y-9314620D02*
X12730360Y-9354620D01*
X12730360Y-9314620D02*
X12690360Y-9354620D01*
X12691200Y-5999800D02*
X12731200Y-6039800D01*
X12731200Y-5999800D02*
X12691200Y-6039800D01*
X12694000Y-6685000D02*
X12734000Y-6725000D01*
X12734000Y-6685000D02*
X12694000Y-6725000D01*
X12694000Y-6785000D02*
X12734000Y-6825000D01*
X12734000Y-6785000D02*
X12694000Y-6825000D01*
X12694000Y-6885000D02*
X12734000Y-6925000D01*
X12734000Y-6885000D02*
X12694000Y-6925000D01*
X12694000Y-6985000D02*
X12734000Y-7025000D01*
X12734000Y-6985000D02*
X12694000Y-7025000D01*
X12758880Y-8651600D02*
X12798880Y-8691600D01*
X12798880Y-8651600D02*
X12758880Y-8691600D01*
X12790000Y-6686000D02*
X12830000Y-6726000D01*
X12830000Y-6686000D02*
X12790000Y-6726000D01*
X12790000Y-6786000D02*
X12830000Y-6826000D01*
X12830000Y-6786000D02*
X12790000Y-6826000D01*
X12790000Y-6886000D02*
X12830000Y-6926000D01*
X12830000Y-6886000D02*
X12790000Y-6926000D01*
X12790000Y-6986000D02*
X12830000Y-7026000D01*
X12830000Y-6986000D02*
X12790000Y-7026000D01*
X12791200Y-5999800D02*
X12831200Y-6039800D01*
X12831200Y-5999800D02*
X12791200Y-6039800D01*
X12807000Y-11796000D02*
X12847000Y-11836000D01*
X12847000Y-11796000D02*
X12807000Y-11836000D01*
X12807000Y-11896000D02*
X12847000Y-11936000D01*
X12847000Y-11896000D02*
X12807000Y-11936000D01*
X12807000Y-11996000D02*
X12847000Y-12036000D01*
X12847000Y-11996000D02*
X12807000Y-12036000D01*
X12807000Y-12096000D02*
X12847000Y-12136000D01*
X12847000Y-12096000D02*
X12807000Y-12136000D01*
X12874000Y-9043000D02*
X12914000Y-9083000D01*
X12914000Y-9043000D02*
X12874000Y-9083000D01*
X12891200Y-5999800D02*
X12931200Y-6039800D01*
X12931200Y-5999800D02*
X12891200Y-6039800D01*
X12902000Y-8960000D02*
X12942000Y-9000000D01*
X12942000Y-8960000D02*
X12902000Y-9000000D01*
X12963000Y-8294000D02*
X13003000Y-8334000D01*
X13003000Y-8294000D02*
X12963000Y-8334000D01*
X12963000Y-8394000D02*
X13003000Y-8434000D01*
X13003000Y-8394000D02*
X12963000Y-8434000D01*
X12963000Y-8494000D02*
X13003000Y-8534000D01*
X13003000Y-8494000D02*
X12963000Y-8534000D01*
X12963000Y-8594000D02*
X13003000Y-8634000D01*
X13003000Y-8594000D02*
X12963000Y-8634000D01*
X12991200Y-5999800D02*
X13031200Y-6039800D01*
X13031200Y-5999800D02*
X12991200Y-6039800D01*
X13091200Y-5999800D02*
X13131200Y-6039800D01*
X13131200Y-5999800D02*
X13091200Y-6039800D01*
X13191200Y-5999800D02*
X13231200Y-6039800D01*
X13231200Y-5999800D02*
X13191200Y-6039800D01*
X13254210Y-12915770D02*
X13294210Y-12955770D01*
X13294210Y-12915770D02*
X13254210Y-12955770D01*
X13262870Y-11635050D02*
X13302870Y-11675050D01*
X13302870Y-11635050D02*
X13262870Y-11675050D01*
X13262900Y-11532090D02*
X13302900Y-11572090D01*
X13302900Y-11532090D02*
X13262900Y-11572090D01*
X13283000Y-10966000D02*
X13323000Y-11006000D01*
X13323000Y-10966000D02*
X13283000Y-11006000D01*
X13289000Y-10185000D02*
X13329000Y-10225000D01*
X13329000Y-10185000D02*
X13289000Y-10225000D01*
X13289000Y-10285000D02*
X13329000Y-10325000D01*
X13329000Y-10285000D02*
X13289000Y-10325000D01*
X13289000Y-10385000D02*
X13329000Y-10425000D01*
X13329000Y-10385000D02*
X13289000Y-10425000D01*
X13289000Y-10485000D02*
X13329000Y-10525000D01*
X13329000Y-10485000D02*
X13289000Y-10525000D01*
X13304000Y-8291000D02*
X13344000Y-8331000D01*
X13344000Y-8291000D02*
X13304000Y-8331000D01*
X13304000Y-8391000D02*
X13344000Y-8431000D01*
X13344000Y-8391000D02*
X13304000Y-8431000D01*
X13304000Y-8491000D02*
X13344000Y-8531000D01*
X13344000Y-8491000D02*
X13304000Y-8531000D01*
X13304000Y-8591000D02*
X13344000Y-8631000D01*
X13344000Y-8591000D02*
X13304000Y-8631000D01*
X13309000Y-6733000D02*
X13349000Y-6773000D01*
X13349000Y-6733000D02*
X13309000Y-6773000D01*
X13309000Y-6833000D02*
X13349000Y-6873000D01*
X13349000Y-6833000D02*
X13309000Y-6873000D01*
X13309000Y-6933000D02*
X13349000Y-6973000D01*
X13349000Y-6933000D02*
X13309000Y-6973000D01*
X13316000Y-13485000D02*
X13356000Y-13525000D01*
X13356000Y-13485000D02*
X13316000Y-13525000D01*
X13405000Y-6734000D02*
X13445000Y-6774000D01*
X13445000Y-6734000D02*
X13405000Y-6774000D01*
X13405000Y-6834000D02*
X13445000Y-6874000D01*
X13445000Y-6834000D02*
X13405000Y-6874000D01*
X13405000Y-6934000D02*
X13445000Y-6974000D01*
X13445000Y-6934000D02*
X13405000Y-6974000D01*
X13406000Y-12061250D02*
X13446000Y-12101250D01*
X13446000Y-12061250D02*
X13406000Y-12101250D01*
X13410000Y-13488000D02*
X13450000Y-13528000D01*
X13450000Y-13488000D02*
X13410000Y-13528000D01*
X13510000Y-11254000D02*
X13550000Y-11294000D01*
X13550000Y-11254000D02*
X13510000Y-11294000D01*
X13545650Y-11068150D02*
X13585650Y-11108150D01*
X13585650Y-11068150D02*
X13545650Y-11108150D01*
X13553000Y-8826000D02*
X13593000Y-8866000D01*
X13593000Y-8826000D02*
X13553000Y-8866000D01*
X13585560Y-11880250D02*
X13625560Y-11920250D01*
X13625560Y-11880250D02*
X13585560Y-11920250D01*
X13673000Y-11494400D02*
X13713000Y-11534400D01*
X13713000Y-11494400D02*
X13673000Y-11534400D01*
X13763090Y-10665060D02*
X13803090Y-10705060D01*
X13803090Y-10665060D02*
X13763090Y-10705060D01*
X13771060Y-11851250D02*
X13811060Y-11891250D01*
X13811060Y-11851250D02*
X13771060Y-11891250D01*
X13809540Y-11504580D02*
X13849540Y-11544580D01*
X13849540Y-11504580D02*
X13809540Y-11544580D01*
X13833640Y-12312580D02*
X13873640Y-12352580D01*
X13873640Y-12312580D02*
X13833640Y-12352580D01*
X13883000Y-7472000D02*
X13923000Y-7512000D01*
X13923000Y-7472000D02*
X13883000Y-7512000D01*
X13938000Y-12748000D02*
X13978000Y-12788000D01*
X13978000Y-12748000D02*
X13938000Y-12788000D01*
X13945000Y-7909000D02*
X13985000Y-7949000D01*
X13985000Y-7909000D02*
X13945000Y-7949000D01*
X14012380Y-10111760D02*
X14052380Y-10151760D01*
X14052380Y-10111760D02*
X14012380Y-10151760D01*
X14073910Y-12818120D02*
X14113910Y-12858120D01*
X14113910Y-12818120D02*
X14073910Y-12858120D01*
X14076000Y-6005000D02*
X14116000Y-6045000D01*
X14116000Y-6005000D02*
X14076000Y-6045000D01*
X14090000Y-12676000D02*
X14130000Y-12716000D01*
X14130000Y-12676000D02*
X14090000Y-12716000D01*
X14091780Y-12443890D02*
X14131780Y-12483890D01*
X14131780Y-12443890D02*
X14091780Y-12483890D01*
X14093000Y-8060000D02*
X14133000Y-8100000D01*
X14133000Y-8060000D02*
X14093000Y-8100000D01*
X14093000Y-8160000D02*
X14133000Y-8200000D01*
X14133000Y-8160000D02*
X14093000Y-8200000D01*
X14093000Y-8260000D02*
X14133000Y-8300000D01*
X14133000Y-8260000D02*
X14093000Y-8300000D01*
X14130750Y-10163650D02*
X14170750Y-10203650D01*
X14170750Y-10163650D02*
X14130750Y-10203650D01*
X14132350Y-11292600D02*
X14172350Y-11332600D01*
X14172350Y-11292600D02*
X14132350Y-11332600D01*
X14164000Y-12921000D02*
X14204000Y-12961000D01*
X14204000Y-12921000D02*
X14164000Y-12961000D01*
X14176000Y-6005000D02*
X14216000Y-6045000D01*
X14216000Y-6005000D02*
X14176000Y-6045000D01*
X14194130Y-12297330D02*
X14234130Y-12337330D01*
X14234130Y-12297330D02*
X14194130Y-12337330D01*
X14201070Y-12004580D02*
X14241070Y-12044580D01*
X14241070Y-12004580D02*
X14201070Y-12044580D01*
X14225320Y-10069080D02*
X14265320Y-10109080D01*
X14265320Y-10069080D02*
X14225320Y-10109080D01*
X14276000Y-6005000D02*
X14316000Y-6045000D01*
X14316000Y-6005000D02*
X14276000Y-6045000D01*
X14292740Y-11121190D02*
X14332740Y-11161190D01*
X14332740Y-11121190D02*
X14292740Y-11161190D01*
X14337000Y-8062000D02*
X14377000Y-8102000D01*
X14377000Y-8062000D02*
X14337000Y-8102000D01*
X14376000Y-6005000D02*
X14416000Y-6045000D01*
X14416000Y-6005000D02*
X14376000Y-6045000D01*
X14431170Y-9537460D02*
X14471170Y-9577460D01*
X14471170Y-9537460D02*
X14431170Y-9577460D01*
X14476000Y-6005000D02*
X14516000Y-6045000D01*
X14516000Y-6005000D02*
X14476000Y-6045000D01*
X14524160Y-10518500D02*
X14564160Y-10558500D01*
X14564160Y-10518500D02*
X14524160Y-10558500D01*
X14531000Y-11707000D02*
X14571000Y-11747000D01*
X14571000Y-11707000D02*
X14531000Y-11747000D01*
X14576000Y-6005000D02*
X14616000Y-6045000D01*
X14616000Y-6005000D02*
X14576000Y-6045000D01*
X14644000Y-13478000D02*
X14684000Y-13518000D01*
X14684000Y-13478000D02*
X14644000Y-13518000D01*
X14644000Y-13578000D02*
X14684000Y-13618000D01*
X14684000Y-13578000D02*
X14644000Y-13618000D01*
X14644000Y-13678000D02*
X14684000Y-13718000D01*
X14684000Y-13678000D02*
X14644000Y-13718000D01*
X14676000Y-6005000D02*
X14716000Y-6045000D01*
X14716000Y-6005000D02*
X14676000Y-6045000D01*
X14718280Y-8094990D02*
X14758280Y-8134990D01*
X14758280Y-8094990D02*
X14718280Y-8134990D01*
X14718280Y-8804310D02*
X14758280Y-8844310D01*
X14758280Y-8804310D02*
X14718280Y-8844310D01*
X14718290Y-8988720D02*
X14758290Y-9028720D01*
X14758290Y-8988720D02*
X14718290Y-9028720D01*
X14743000Y-12690000D02*
X14783000Y-12730000D01*
X14783000Y-12690000D02*
X14743000Y-12730000D01*
X14771110Y-7758760D02*
X14811110Y-7798760D01*
X14811110Y-7758760D02*
X14771110Y-7798760D01*
X14771300Y-11027510D02*
X14811300Y-11067510D01*
X14811300Y-11027510D02*
X14771300Y-11067510D01*
X14776000Y-6005000D02*
X14816000Y-6045000D01*
X14816000Y-6005000D02*
X14776000Y-6045000D01*
X14777630Y-11823930D02*
X14817630Y-11863930D01*
X14817630Y-11823930D02*
X14777630Y-11863930D01*
X14823000Y-12727000D02*
X14863000Y-12767000D01*
X14863000Y-12727000D02*
X14823000Y-12767000D01*
X14856000Y-10092060D02*
X14896000Y-10132060D01*
X14896000Y-10092060D02*
X14856000Y-10132060D01*
X14898000Y-12183000D02*
X14938000Y-12223000D01*
X14938000Y-12183000D02*
X14898000Y-12223000D01*
X14916000Y-9483000D02*
X14956000Y-9523000D01*
X14956000Y-9483000D02*
X14916000Y-9523000D01*
X14935060Y-9757490D02*
X14975060Y-9797490D01*
X14975060Y-9757490D02*
X14935060Y-9797490D01*
X14949670Y-9656240D02*
X14989670Y-9696240D01*
X14989670Y-9656240D02*
X14949670Y-9696240D01*
X14960960Y-11350330D02*
X15000960Y-11390330D01*
X15000960Y-11350330D02*
X14960960Y-11390330D01*
X14971930Y-13226290D02*
X15011930Y-13266290D01*
X15011930Y-13226290D02*
X14971930Y-13266290D01*
X14998880Y-8284830D02*
X15038880Y-8324830D01*
X15038880Y-8284830D02*
X14998880Y-8324830D01*
X15000130Y-8737130D02*
X15040130Y-8777130D01*
X15040130Y-8737130D02*
X15000130Y-8777130D01*
X15015050Y-9855310D02*
X15055050Y-9895310D01*
X15055050Y-9855310D02*
X15015050Y-9895310D01*
X15020070Y-8089670D02*
X15060070Y-8129670D01*
X15060070Y-8089670D02*
X15020070Y-8129670D01*
X15041000Y-8944000D02*
X15081000Y-8984000D01*
X15081000Y-8944000D02*
X15041000Y-8984000D01*
X15045110Y-9054590D02*
X15085110Y-9094590D01*
X15085110Y-9054590D02*
X15045110Y-9094590D01*
X15056000Y-12885000D02*
X15096000Y-12925000D01*
X15096000Y-12885000D02*
X15056000Y-12925000D01*
X15103810Y-10665060D02*
X15143810Y-10705060D01*
X15143810Y-10665060D02*
X15103810Y-10705060D01*
X15110000Y-7633000D02*
X15150000Y-7673000D01*
X15150000Y-7633000D02*
X15110000Y-7673000D01*
X15137820Y-9166870D02*
X15177820Y-9206870D01*
X15177820Y-9166870D02*
X15137820Y-9206870D01*
X15226000Y-8209600D02*
X15266000Y-8249600D01*
X15266000Y-8209600D02*
X15226000Y-8249600D01*
X15238850Y-10518500D02*
X15278850Y-10558500D01*
X15278850Y-10518500D02*
X15238850Y-10558500D01*
X15239000Y-11417550D02*
X15279000Y-11457550D01*
X15279000Y-11417550D02*
X15239000Y-11457550D01*
X15246000Y-11020530D02*
X15286000Y-11060530D01*
X15286000Y-11020530D02*
X15246000Y-11060530D01*
X15288700Y-7476770D02*
X15328700Y-7516770D01*
X15328700Y-7476770D02*
X15288700Y-7516770D01*
X15315350Y-12244930D02*
X15355350Y-12284930D01*
X15355350Y-12244930D02*
X15315350Y-12284930D01*
X15322000Y-7649000D02*
X15362000Y-7689000D01*
X15362000Y-7649000D02*
X15322000Y-7689000D01*
X15325850Y-8100850D02*
X15365850Y-8140850D01*
X15365850Y-8100850D02*
X15325850Y-8140850D01*
X15336470Y-12594390D02*
X15376470Y-12634390D01*
X15376470Y-12594390D02*
X15336470Y-12634390D01*
X15378430Y-8198140D02*
X15418430Y-8238140D01*
X15418430Y-8198140D02*
X15378430Y-8238140D01*
X15406000Y-7445000D02*
X15446000Y-7485000D01*
X15446000Y-7445000D02*
X15406000Y-7485000D01*
X15491830Y-7628740D02*
X15531830Y-7668740D01*
X15531830Y-7628740D02*
X15491830Y-7668740D01*
X15498000Y-6903000D02*
X15538000Y-6943000D01*
X15538000Y-6903000D02*
X15498000Y-6943000D01*
X15499000Y-7443000D02*
X15539000Y-7483000D01*
X15539000Y-7443000D02*
X15499000Y-7483000D01*
X15502000Y-7260000D02*
X15542000Y-7300000D01*
X15542000Y-7260000D02*
X15502000Y-7300000D01*
X15503000Y-7354000D02*
X15543000Y-7394000D01*
X15543000Y-7354000D02*
X15503000Y-7394000D01*
X15519330Y-7980110D02*
X15559330Y-8020110D01*
X15559330Y-7980110D02*
X15519330Y-8020110D01*
X15531000Y-12784000D02*
X15571000Y-12824000D01*
X15571000Y-12784000D02*
X15531000Y-12824000D01*
X15531000Y-12884000D02*
X15571000Y-12924000D01*
X15571000Y-12884000D02*
X15531000Y-12924000D01*
X15626000Y-8870380D02*
X15666000Y-8910380D01*
X15666000Y-8870380D02*
X15626000Y-8910380D01*
X15634430Y-7602490D02*
X15674430Y-7642490D01*
X15674430Y-7602490D02*
X15634430Y-7642490D01*
X15723010Y-12671610D02*
X15763010Y-12711610D01*
X15763010Y-12671610D02*
X15723010Y-12711610D01*
X15724870Y-7953650D02*
X15764870Y-7993650D01*
X15764870Y-7953650D02*
X15724870Y-7993650D01*
X15727490Y-8754190D02*
X15767490Y-8794190D01*
X15767490Y-8754190D02*
X15727490Y-8794190D01*
X15729000Y-12058000D02*
X15769000Y-12098000D01*
X15769000Y-12058000D02*
X15729000Y-12098000D01*
X15730000Y-11666000D02*
X15770000Y-11706000D01*
X15770000Y-11666000D02*
X15730000Y-11706000D01*
X15730000Y-11766000D02*
X15770000Y-11806000D01*
X15770000Y-11766000D02*
X15730000Y-11806000D01*
X15730000Y-11866000D02*
X15770000Y-11906000D01*
X15770000Y-11866000D02*
X15730000Y-11906000D01*
X15730000Y-11966000D02*
X15770000Y-12006000D01*
X15770000Y-11966000D02*
X15730000Y-12006000D01*
X15751800Y-5999800D02*
X15791800Y-6039800D01*
X15791800Y-5999800D02*
X15751800Y-6039800D01*
X15829000Y-12058000D02*
X15869000Y-12098000D01*
X15869000Y-12058000D02*
X15829000Y-12098000D01*
X15830000Y-11666000D02*
X15870000Y-11706000D01*
X15870000Y-11666000D02*
X15830000Y-11706000D01*
X15830000Y-11766000D02*
X15870000Y-11806000D01*
X15870000Y-11766000D02*
X15830000Y-11806000D01*
X15830000Y-11866000D02*
X15870000Y-11906000D01*
X15870000Y-11866000D02*
X15830000Y-11906000D01*
X15830000Y-11966000D02*
X15870000Y-12006000D01*
X15870000Y-11966000D02*
X15830000Y-12006000D01*
X15847100Y-9042850D02*
X15887100Y-9082850D01*
X15887100Y-9042850D02*
X15847100Y-9082850D01*
X15851800Y-5999800D02*
X15891800Y-6039800D01*
X15891800Y-5999800D02*
X15851800Y-6039800D01*
X15900750Y-9137850D02*
X15940750Y-9177850D01*
X15940750Y-9137850D02*
X15900750Y-9177850D01*
X15929000Y-12058000D02*
X15969000Y-12098000D01*
X15969000Y-12058000D02*
X15929000Y-12098000D01*
X15930000Y-11666000D02*
X15970000Y-11706000D01*
X15970000Y-11666000D02*
X15930000Y-11706000D01*
X15930000Y-11766000D02*
X15970000Y-11806000D01*
X15970000Y-11766000D02*
X15930000Y-11806000D01*
X15930000Y-11866000D02*
X15970000Y-11906000D01*
X15970000Y-11866000D02*
X15930000Y-11906000D01*
X15930000Y-11966000D02*
X15970000Y-12006000D01*
X15970000Y-11966000D02*
X15930000Y-12006000D01*
X15951800Y-5999800D02*
X15991800Y-6039800D01*
X15991800Y-5999800D02*
X15951800Y-6039800D01*
X15974750Y-9487530D02*
X16014750Y-9527530D01*
X16014750Y-9487530D02*
X15974750Y-9527530D01*
X15976000Y-7953800D02*
X16016000Y-7993800D01*
X16016000Y-7953800D02*
X15976000Y-7993800D01*
X15981000Y-11467050D02*
X16021000Y-11507050D01*
X16021000Y-11467050D02*
X15981000Y-11507050D01*
X15995210Y-8654350D02*
X16035210Y-8694350D01*
X16035210Y-8654350D02*
X15995210Y-8694350D01*
X16029000Y-12058000D02*
X16069000Y-12098000D01*
X16069000Y-12058000D02*
X16029000Y-12098000D01*
X16030000Y-11666000D02*
X16070000Y-11706000D01*
X16070000Y-11666000D02*
X16030000Y-11706000D01*
X16030000Y-11766000D02*
X16070000Y-11806000D01*
X16070000Y-11766000D02*
X16030000Y-11806000D01*
X16030000Y-11866000D02*
X16070000Y-11906000D01*
X16070000Y-11866000D02*
X16030000Y-11906000D01*
X16030000Y-11966000D02*
X16070000Y-12006000D01*
X16070000Y-11966000D02*
X16030000Y-12006000D01*
X16051800Y-5999800D02*
X16091800Y-6039800D01*
X16091800Y-5999800D02*
X16051800Y-6039800D01*
X16076000Y-9485550D02*
X16116000Y-9525550D01*
X16116000Y-9485550D02*
X16076000Y-9525550D01*
X16092440Y-6889970D02*
X16132440Y-6929970D01*
X16132440Y-6889970D02*
X16092440Y-6929970D01*
X16096010Y-9162440D02*
X16136010Y-9202440D01*
X16136010Y-9162440D02*
X16096010Y-9202440D01*
X16150100Y-8990410D02*
X16190100Y-9030410D01*
X16190100Y-8990410D02*
X16150100Y-9030410D01*
X16151800Y-5999800D02*
X16191800Y-6039800D01*
X16191800Y-5999800D02*
X16151800Y-6039800D01*
X16176920Y-8580000D02*
X16216920Y-8620000D01*
X16216920Y-8580000D02*
X16176920Y-8620000D01*
X16202320Y-8895030D02*
X16242320Y-8935030D01*
X16242320Y-8895030D02*
X16202320Y-8935030D01*
X16251800Y-5999800D02*
X16291800Y-6039800D01*
X16291800Y-5999800D02*
X16251800Y-6039800D01*
X16252860Y-8355530D02*
X16292860Y-8395530D01*
X16292860Y-8355530D02*
X16252860Y-8395530D01*
X16252860Y-8985970D02*
X16292860Y-9025970D01*
X16292860Y-8985970D02*
X16252860Y-9025970D01*
X16303400Y-9372840D02*
X16343400Y-9412840D01*
X16343400Y-9372840D02*
X16303400Y-9412840D01*
X16328790Y-9476650D02*
X16368790Y-9516650D01*
X16368790Y-9476650D02*
X16328790Y-9516650D01*
X16351800Y-5999800D02*
X16391800Y-6039800D01*
X16391800Y-5999800D02*
X16351800Y-6039800D01*
X16367660Y-7548990D02*
X16407660Y-7588990D01*
X16407660Y-7548990D02*
X16367660Y-7588990D01*
X16441470Y-7668230D02*
X16481470Y-7708230D01*
X16481470Y-7668230D02*
X16441470Y-7708230D01*
X16516870Y-13189930D02*
X16556870Y-13229930D01*
X16556870Y-13189930D02*
X16516870Y-13229930D01*
X16531120Y-14080550D02*
X16571120Y-14120550D01*
X16571120Y-14080550D02*
X16531120Y-14120550D01*
X16533620Y-8758000D02*
X16573620Y-8798000D01*
X16573620Y-8758000D02*
X16533620Y-8798000D01*
X16534480Y-8243750D02*
X16574480Y-8283750D01*
X16574480Y-8243750D02*
X16534480Y-8283750D01*
X16555450Y-8061550D02*
X16595450Y-8101550D01*
X16595450Y-8061550D02*
X16555450Y-8101550D01*
X16580730Y-10323730D02*
X16620730Y-10363730D01*
X16620730Y-10323730D02*
X16580730Y-10363730D01*
X16609000Y-7844000D02*
X16649000Y-7884000D01*
X16649000Y-7844000D02*
X16609000Y-7884000D01*
X16651190Y-9488860D02*
X16691190Y-9528860D01*
X16691190Y-9488860D02*
X16651190Y-9528860D01*
X16670000Y-10696000D02*
X16710000Y-10736000D01*
X16710000Y-10696000D02*
X16670000Y-10736000D01*
X16680677Y-10322916D02*
X16720677Y-10362916D01*
X16720677Y-10322916D02*
X16680677Y-10362916D01*
X16755000Y-10415000D02*
X16795000Y-10455000D01*
X16795000Y-10415000D02*
X16755000Y-10455000D01*
X16761000Y-10690000D02*
X16801000Y-10730000D01*
X16801000Y-10690000D02*
X16761000Y-10730000D01*
X16831150Y-9480890D02*
X16871150Y-9520890D01*
X16871150Y-9480890D02*
X16831150Y-9520890D01*
X16856000Y-10692000D02*
X16896000Y-10732000D01*
X16896000Y-10692000D02*
X16856000Y-10732000D01*
X16903660Y-10326410D02*
X16943660Y-10366410D01*
X16943660Y-10326410D02*
X16903660Y-10366410D01*
X17067900Y-10112930D02*
X17107900Y-10152930D01*
X17107900Y-10112930D02*
X17067900Y-10152930D01*
X17142000Y-12066000D02*
X17182000Y-12106000D01*
X17182000Y-12066000D02*
X17142000Y-12106000D01*
X17143470Y-9849920D02*
X17183470Y-9889920D01*
X17183470Y-9849920D02*
X17143470Y-9889920D01*
X17161000Y-11968000D02*
X17201000Y-12008000D01*
X17201000Y-11968000D02*
X17161000Y-12008000D01*
X17172000Y-12535000D02*
X17212000Y-12575000D01*
X17212000Y-12535000D02*
X17172000Y-12575000D01*
X17175000Y-12695000D02*
X17215000Y-12735000D01*
X17215000Y-12695000D02*
X17175000Y-12735000D01*
X17189000Y-10564000D02*
X17229000Y-10604000D01*
X17229000Y-10564000D02*
X17189000Y-10604000D01*
X17268000Y-12229000D02*
X17308000Y-12269000D01*
X17308000Y-12229000D02*
X17268000Y-12269000D01*
X17272500Y-12071500D02*
X17312500Y-12111500D01*
X17312500Y-12071500D02*
X17272500Y-12111500D01*
X17312000Y-11461000D02*
X17352000Y-11501000D01*
X17352000Y-11461000D02*
X17312000Y-11501000D01*
X17314000Y-11662000D02*
X17354000Y-11702000D01*
X17354000Y-11662000D02*
X17314000Y-11702000D01*
X17340000Y-12169000D02*
X17380000Y-12209000D01*
X17380000Y-12169000D02*
X17340000Y-12209000D01*
X17340000Y-12291000D02*
X17380000Y-12331000D01*
X17380000Y-12291000D02*
X17340000Y-12331000D01*
X17377000Y-6011000D02*
X17417000Y-6051000D01*
X17417000Y-6011000D02*
X17377000Y-6051000D01*
X17477000Y-6011000D02*
X17517000Y-6051000D01*
X17517000Y-6011000D02*
X17477000Y-6051000D01*
X17508870Y-13183640D02*
X17548870Y-13223640D01*
X17548870Y-13183640D02*
X17508870Y-13223640D01*
X17577000Y-6011000D02*
X17617000Y-6051000D01*
X17617000Y-6011000D02*
X17577000Y-6051000D01*
X17596000Y-9201000D02*
X17636000Y-9241000D01*
X17636000Y-9201000D02*
X17596000Y-9241000D01*
X17596000Y-9301000D02*
X17636000Y-9341000D01*
X17636000Y-9301000D02*
X17596000Y-9341000D01*
X17640000Y-10517000D02*
X17680000Y-10557000D01*
X17680000Y-10517000D02*
X17640000Y-10557000D01*
X17647000Y-11468000D02*
X17687000Y-11508000D01*
X17687000Y-11468000D02*
X17647000Y-11508000D01*
X17647000Y-11568000D02*
X17687000Y-11608000D01*
X17687000Y-11568000D02*
X17647000Y-11608000D01*
X17647000Y-11668000D02*
X17687000Y-11708000D01*
X17687000Y-11668000D02*
X17647000Y-11708000D01*
X17647000Y-11768000D02*
X17687000Y-11808000D01*
X17687000Y-11768000D02*
X17647000Y-11808000D01*
X17647000Y-11868000D02*
X17687000Y-11908000D01*
X17687000Y-11868000D02*
X17647000Y-11908000D01*
X17657730Y-12719270D02*
X17697730Y-12759270D01*
X17697730Y-12719270D02*
X17657730Y-12759270D01*
X17677000Y-6011000D02*
X17717000Y-6051000D01*
X17717000Y-6011000D02*
X17677000Y-6051000D01*
X17740000Y-10517000D02*
X17780000Y-10557000D01*
X17780000Y-10517000D02*
X17740000Y-10557000D01*
X17767000Y-7523000D02*
X17807000Y-7563000D01*
X17807000Y-7523000D02*
X17767000Y-7563000D01*
X17767000Y-7623000D02*
X17807000Y-7663000D01*
X17807000Y-7623000D02*
X17767000Y-7663000D01*
X17769000Y-12076000D02*
X17809000Y-12116000D01*
X17809000Y-12076000D02*
X17769000Y-12116000D01*
X17777000Y-6011000D02*
X17817000Y-6051000D01*
X17817000Y-6011000D02*
X17777000Y-6051000D01*
X17796000Y-10821000D02*
X17836000Y-10861000D01*
X17836000Y-10821000D02*
X17796000Y-10861000D01*
X17796000Y-10921000D02*
X17836000Y-10961000D01*
X17836000Y-10921000D02*
X17796000Y-10961000D01*
X17796000Y-11021000D02*
X17836000Y-11061000D01*
X17836000Y-11021000D02*
X17796000Y-11061000D01*
X17830970Y-9880750D02*
X17870970Y-9920750D01*
X17870970Y-9880750D02*
X17830970Y-9920750D01*
X17858000Y-12076000D02*
X17898000Y-12116000D01*
X17898000Y-12076000D02*
X17858000Y-12116000D01*
X17867000Y-7523000D02*
X17907000Y-7563000D01*
X17907000Y-7523000D02*
X17867000Y-7563000D01*
X17867000Y-7623000D02*
X17907000Y-7663000D01*
X17907000Y-7623000D02*
X17867000Y-7663000D01*
X17877000Y-6011000D02*
X17917000Y-6051000D01*
X17917000Y-6011000D02*
X17877000Y-6051000D01*
X17896000Y-10821000D02*
X17936000Y-10861000D01*
X17936000Y-10821000D02*
X17896000Y-10861000D01*
X17896000Y-10921000D02*
X17936000Y-10961000D01*
X17936000Y-10921000D02*
X17896000Y-10961000D01*
X17896000Y-11021000D02*
X17936000Y-11061000D01*
X17936000Y-11021000D02*
X17896000Y-11061000D01*
X17977000Y-6011000D02*
X18017000Y-6051000D01*
X18017000Y-6011000D02*
X17977000Y-6051000D01*
X18241000Y-13883000D02*
X18281000Y-13923000D01*
X18281000Y-13883000D02*
X18241000Y-13923000D01*
X18241000Y-13983000D02*
X18281000Y-14023000D01*
X18281000Y-13983000D02*
X18241000Y-14023000D01*
X18241000Y-14083000D02*
X18281000Y-14123000D01*
X18281000Y-14083000D02*
X18241000Y-14123000D01*
X18341000Y-13883000D02*
X18381000Y-13923000D01*
X18381000Y-13883000D02*
X18341000Y-13923000D01*
X18341000Y-13983000D02*
X18381000Y-14023000D01*
X18381000Y-13983000D02*
X18341000Y-14023000D01*
X18341000Y-14083000D02*
X18381000Y-14123000D01*
X18381000Y-14083000D02*
X18341000Y-14123000D01*
X18383480Y-8138000D02*
X18423480Y-8178000D01*
X18423480Y-8138000D02*
X18383480Y-8178000D01*
D13*
X15618500Y-10723000D02*
G75*
G03*
X15618500Y-10723000I-37500J0D01*
G01*
X16095500Y-10551000D02*
G75*
G03*
X16095500Y-10551000I-37500J0D01*
G01*
D14*
X13144000Y-7227750D02*
X13144000Y-7307750D01*
X13104000Y-7267750D02*
X13184000Y-7267750D01*
X13144000Y-7715750D02*
X13144000Y-7795750D01*
X13104000Y-7755750D02*
X13184000Y-7755750D01*
D10*
X15203356Y-11276356D02*
X15203356Y-11205644D01*
X15132644Y-11205644D01*
X15132644Y-11276356D01*
X15203356Y-11276356D01*
X16536356Y-11382356D02*
X16536356Y-11311644D01*
X16465644Y-11311644D01*
X16465644Y-11382356D01*
X16536356Y-11382356D01*
X16880356Y-11120356D02*
X16880356Y-11049644D01*
X16809644Y-11049644D01*
X16809644Y-11120356D01*
X16880356Y-11120356D01*
X17684356Y-11031356D02*
X17684356Y-10960644D01*
X17613644Y-10960644D01*
X17613644Y-11031356D01*
X17684356Y-11031356D01*
X12406000Y-8234000D02*
X12456000Y-8184000D01*
X12406000Y-8134000D01*
X12356000Y-8184000D01*
X12406000Y-8234000D01*
X12406000Y-8488000D02*
X12456000Y-8438000D01*
X12406000Y-8388000D01*
X12356000Y-8438000D01*
X12406000Y-8488000D01*
X12406000Y-8742000D02*
X12456000Y-8692000D01*
X12406000Y-8642000D01*
X12356000Y-8692000D01*
X12406000Y-8742000D01*
X12406000Y-8996000D02*
X12456000Y-8946000D01*
X12406000Y-8896000D01*
X12356000Y-8946000D01*
X12406000Y-8996000D01*
X12406000Y-9250000D02*
X12456000Y-9200000D01*
X12406000Y-9150000D01*
X12356000Y-9200000D01*
X12406000Y-9250000D01*
X12406000Y-9504000D02*
X12456000Y-9454000D01*
X12406000Y-9404000D01*
X12356000Y-9454000D01*
X12406000Y-9504000D01*
X12408000Y-11223000D02*
X12458000Y-11173000D01*
X12408000Y-11123000D01*
X12358000Y-11173000D01*
X12408000Y-11223000D01*
X12408000Y-11477000D02*
X12458000Y-11427000D01*
X12408000Y-11377000D01*
X12358000Y-11427000D01*
X12408000Y-11477000D01*
X12410000Y-10118000D02*
X12460000Y-10068000D01*
X12410000Y-10018000D01*
X12360000Y-10068000D01*
X12410000Y-10118000D01*
X12410000Y-10372000D02*
X12460000Y-10322000D01*
X12410000Y-10272000D01*
X12360000Y-10322000D01*
X12410000Y-10372000D01*
X12410000Y-10626000D02*
X12460000Y-10576000D01*
X12410000Y-10526000D01*
X12360000Y-10576000D01*
X12410000Y-10626000D01*
X12415550Y-6630250D02*
X12465550Y-6580250D01*
X12415550Y-6530250D01*
X12365550Y-6580250D01*
X12415550Y-6630250D01*
X12415550Y-6884250D02*
X12465550Y-6834250D01*
X12415550Y-6784250D01*
X12365550Y-6834250D01*
X12415550Y-6884250D01*
X12415550Y-7138250D02*
X12465550Y-7088250D01*
X12415550Y-7038250D01*
X12365550Y-7088250D01*
X12415550Y-7138250D01*
X12415550Y-7392250D02*
X12465550Y-7342250D01*
X12415550Y-7292250D01*
X12365550Y-7342250D01*
X12415550Y-7392250D01*
X12415550Y-7646250D02*
X12465550Y-7596250D01*
X12415550Y-7546250D01*
X12365550Y-7596250D01*
X12415550Y-7646250D01*
X13123000Y-6444000D02*
X13173000Y-6394000D01*
X13123000Y-6344000D01*
X13073000Y-6394000D01*
X13123000Y-6444000D01*
X13281000Y-9175000D02*
X13331000Y-9125000D01*
X13281000Y-9075000D01*
X13231000Y-9125000D01*
X13281000Y-9175000D01*
X13281000Y-9429000D02*
X13331000Y-9379000D01*
X13281000Y-9329000D01*
X13231000Y-9379000D01*
X13281000Y-9429000D01*
X13281000Y-9683000D02*
X13331000Y-9633000D01*
X13281000Y-9583000D01*
X13231000Y-9633000D01*
X13281000Y-9683000D01*
X13281000Y-9937000D02*
X13331000Y-9887000D01*
X13281000Y-9837000D01*
X13231000Y-9887000D01*
X13281000Y-9937000D01*
X13377000Y-6444000D02*
X13427000Y-6394000D01*
X13377000Y-6344000D01*
X13327000Y-6394000D01*
X13377000Y-6444000D01*
X13631000Y-6444000D02*
X13681000Y-6394000D01*
X13631000Y-6344000D01*
X13581000Y-6394000D01*
X13631000Y-6444000D01*
X13885000Y-6444000D02*
X13935000Y-6394000D01*
X13885000Y-6344000D01*
X13835000Y-6394000D01*
X13885000Y-6444000D01*
X13987900Y-9175000D02*
X14037900Y-9125000D01*
X13987900Y-9075000D01*
X13937900Y-9125000D01*
X13987900Y-9175000D01*
X13987900Y-9429000D02*
X14037900Y-9379000D01*
X13987900Y-9329000D01*
X13937900Y-9379000D01*
X13987900Y-9429000D01*
X13987900Y-9683000D02*
X14037900Y-9633000D01*
X13987900Y-9583000D01*
X13937900Y-9633000D01*
X13987900Y-9683000D01*
X13987900Y-9937000D02*
X14037900Y-9887000D01*
X13987900Y-9837000D01*
X13937900Y-9887000D01*
X13987900Y-9937000D01*
X14139000Y-6444000D02*
X14189000Y-6394000D01*
X14139000Y-6344000D01*
X14089000Y-6394000D01*
X14139000Y-6444000D01*
X14735000Y-6444000D02*
X14785000Y-6394000D01*
X14735000Y-6344000D01*
X14685000Y-6394000D01*
X14735000Y-6444000D01*
X14989000Y-6444000D02*
X15039000Y-6394000D01*
X14989000Y-6344000D01*
X14939000Y-6394000D01*
X14989000Y-6444000D01*
X15243000Y-6444000D02*
X15293000Y-6394000D01*
X15243000Y-6344000D01*
X15193000Y-6394000D01*
X15243000Y-6444000D01*
X15497000Y-6444000D02*
X15547000Y-6394000D01*
X15497000Y-6344000D01*
X15447000Y-6394000D01*
X15497000Y-6444000D01*
X15751000Y-6444000D02*
X15801000Y-6394000D01*
X15751000Y-6344000D01*
X15701000Y-6394000D01*
X15751000Y-6444000D01*
X15878600Y-10935600D02*
X15928600Y-10885600D01*
X15878600Y-10835600D01*
X15828600Y-10885600D01*
X15878600Y-10935600D01*
X16340000Y-6449000D02*
X16390000Y-6399000D01*
X16340000Y-6349000D01*
X16290000Y-6399000D01*
X16340000Y-6449000D01*
X16594000Y-6449000D02*
X16644000Y-6399000D01*
X16594000Y-6349000D01*
X16544000Y-6399000D01*
X16594000Y-6449000D01*
X16638600Y-10935600D02*
X16688600Y-10885600D01*
X16638600Y-10835600D01*
X16588600Y-10885600D01*
X16638600Y-10935600D01*
X16848000Y-6449000D02*
X16898000Y-6399000D01*
X16848000Y-6349000D01*
X16798000Y-6399000D01*
X16848000Y-6449000D01*
X17102000Y-6449000D02*
X17152000Y-6399000D01*
X17102000Y-6349000D01*
X17052000Y-6399000D01*
X17102000Y-6449000D01*
X17323000Y-8574000D02*
X17373000Y-8524000D01*
X17323000Y-8474000D01*
X17273000Y-8524000D01*
X17323000Y-8574000D01*
X17323000Y-8828000D02*
X17373000Y-8778000D01*
X17323000Y-8728000D01*
X17273000Y-8778000D01*
X17323000Y-8828000D01*
X17323000Y-9082000D02*
X17373000Y-9032000D01*
X17323000Y-8982000D01*
X17273000Y-9032000D01*
X17323000Y-9082000D01*
X17323000Y-9336000D02*
X17373000Y-9286000D01*
X17323000Y-9236000D01*
X17273000Y-9286000D01*
X17323000Y-9336000D01*
X17323000Y-9994000D02*
X17373000Y-9944000D01*
X17323000Y-9894000D01*
X17273000Y-9944000D01*
X17323000Y-9994000D01*
X17323000Y-10248000D02*
X17373000Y-10198000D01*
X17323000Y-10148000D01*
X17273000Y-10198000D01*
X17323000Y-10248000D01*
X17323000Y-10502000D02*
X17373000Y-10452000D01*
X17323000Y-10402000D01*
X17273000Y-10452000D01*
X17323000Y-10502000D01*
X17323000Y-10756000D02*
X17373000Y-10706000D01*
X17323000Y-10656000D01*
X17273000Y-10706000D01*
X17323000Y-10756000D01*
X17334000Y-7192000D02*
X17384000Y-7142000D01*
X17334000Y-7092000D01*
X17284000Y-7142000D01*
X17334000Y-7192000D01*
X17334000Y-7446000D02*
X17384000Y-7396000D01*
X17334000Y-7346000D01*
X17284000Y-7396000D01*
X17334000Y-7446000D01*
X17334000Y-7700000D02*
X17384000Y-7650000D01*
X17334000Y-7600000D01*
X17284000Y-7650000D01*
X17334000Y-7700000D01*
X17334000Y-7954000D02*
X17384000Y-7904000D01*
X17334000Y-7854000D01*
X17284000Y-7904000D01*
X17334000Y-7954000D01*
X17356000Y-6449000D02*
X17406000Y-6399000D01*
X17356000Y-6349000D01*
X17306000Y-6399000D01*
X17356000Y-6449000D01*
X18093920Y-6601000D02*
X18143920Y-6551000D01*
X18093920Y-6501000D01*
X18043920Y-6551000D01*
X18093920Y-6601000D01*
X18093920Y-6855000D02*
X18143920Y-6805000D01*
X18093920Y-6755000D01*
X18043920Y-6805000D01*
X18093920Y-6855000D01*
X18093920Y-7109000D02*
X18143920Y-7059000D01*
X18093920Y-7009000D01*
X18043920Y-7059000D01*
X18093920Y-7109000D01*
X18093920Y-7363000D02*
X18143920Y-7313000D01*
X18093920Y-7263000D01*
X18043920Y-7313000D01*
X18093920Y-7363000D01*
X18093920Y-7617000D02*
X18143920Y-7567000D01*
X18093920Y-7517000D01*
X18043920Y-7567000D01*
X18093920Y-7617000D01*
X18097920Y-8208000D02*
X18147920Y-8158000D01*
X18097920Y-8108000D01*
X18047920Y-8158000D01*
X18097920Y-8208000D01*
X18097920Y-8462000D02*
X18147920Y-8412000D01*
X18097920Y-8362000D01*
X18047920Y-8412000D01*
X18097920Y-8462000D01*
X18097920Y-8716000D02*
X18147920Y-8666000D01*
X18097920Y-8616000D01*
X18047920Y-8666000D01*
X18097920Y-8716000D01*
X18097920Y-8970000D02*
X18147920Y-8920000D01*
X18097920Y-8870000D01*
X18047920Y-8920000D01*
X18097920Y-8970000D01*
X18097920Y-9224000D02*
X18147920Y-9174000D01*
X18097920Y-9124000D01*
X18047920Y-9174000D01*
X18097920Y-9224000D01*
X18097920Y-9478000D02*
X18147920Y-9428000D01*
X18097920Y-9378000D01*
X18047920Y-9428000D01*
X18097920Y-9478000D01*
X18104000Y-10134000D02*
X18154000Y-10084000D01*
X18104000Y-10034000D01*
X18054000Y-10084000D01*
X18104000Y-10134000D01*
X18104000Y-10388000D02*
X18154000Y-10338000D01*
X18104000Y-10288000D01*
X18054000Y-10338000D01*
X18104000Y-10388000D01*
X18104000Y-10642000D02*
X18154000Y-10592000D01*
X18104000Y-10542000D01*
X18054000Y-10592000D01*
X18104000Y-10642000D01*
X18104000Y-10896000D02*
X18154000Y-10846000D01*
X18104000Y-10796000D01*
X18054000Y-10846000D01*
X18104000Y-10896000D01*
D15*
X17861000Y-11360250D02*
X18031000Y-11530250D01*
X18031000Y-11360250D02*
X17861000Y-11530250D01*
X18031000Y-11445250D02*
G75*
G03*
X18031000Y-11445250I-85000J0D01*
G01*
X17861000Y-11756250D02*
X18031000Y-11926250D01*
X18031000Y-11756250D02*
X17861000Y-11926250D01*
X18031000Y-11841250D02*
G75*
G03*
X18031000Y-11841250I-85000J0D01*
G01*
D11*
X12259103Y-14593484D02*
X12259103Y-14393484D01*
X12259103Y-14393484D02*
X12306722Y-14393484D01*
X12306722Y-14393484D02*
X12335294Y-14403008D01*
X12335294Y-14403008D02*
X12354342Y-14422055D01*
X12354342Y-14422055D02*
X12363865Y-14441103D01*
X12363865Y-14441103D02*
X12373389Y-14479198D01*
X12373389Y-14479198D02*
X12373389Y-14507769D01*
X12373389Y-14507769D02*
X12363865Y-14545865D01*
X12363865Y-14545865D02*
X12354342Y-14564912D01*
X12354342Y-14564912D02*
X12335294Y-14583960D01*
X12335294Y-14583960D02*
X12306722Y-14593484D01*
X12306722Y-14593484D02*
X12259103Y-14593484D01*
X12459103Y-14593484D02*
X12459103Y-14460150D01*
X12459103Y-14498246D02*
X12468627Y-14479198D01*
X12468627Y-14479198D02*
X12478151Y-14469674D01*
X12478151Y-14469674D02*
X12497199Y-14460150D01*
X12497199Y-14460150D02*
X12516246Y-14460150D01*
X12582913Y-14593484D02*
X12582913Y-14460150D01*
X12582913Y-14393484D02*
X12573389Y-14403008D01*
X12573389Y-14403008D02*
X12582913Y-14412531D01*
X12582913Y-14412531D02*
X12592437Y-14403008D01*
X12592437Y-14403008D02*
X12582913Y-14393484D01*
X12582913Y-14393484D02*
X12582913Y-14412531D01*
X12706722Y-14593484D02*
X12687675Y-14583960D01*
X12687675Y-14583960D02*
X12678151Y-14564912D01*
X12678151Y-14564912D02*
X12678151Y-14393484D01*
X12811484Y-14593484D02*
X12792437Y-14583960D01*
X12792437Y-14583960D02*
X12782913Y-14564912D01*
X12782913Y-14564912D02*
X12782913Y-14393484D01*
X13040056Y-14593484D02*
X13040056Y-14393484D01*
X13040056Y-14393484D02*
X13106723Y-14536341D01*
X13106723Y-14536341D02*
X13173389Y-14393484D01*
X13173389Y-14393484D02*
X13173389Y-14593484D01*
X13354342Y-14593484D02*
X13354342Y-14488722D01*
X13354342Y-14488722D02*
X13344818Y-14469674D01*
X13344818Y-14469674D02*
X13325770Y-14460150D01*
X13325770Y-14460150D02*
X13287675Y-14460150D01*
X13287675Y-14460150D02*
X13268627Y-14469674D01*
X13354342Y-14583960D02*
X13335294Y-14593484D01*
X13335294Y-14593484D02*
X13287675Y-14593484D01*
X13287675Y-14593484D02*
X13268627Y-14583960D01*
X13268627Y-14583960D02*
X13259103Y-14564912D01*
X13259103Y-14564912D02*
X13259103Y-14545865D01*
X13259103Y-14545865D02*
X13268627Y-14526817D01*
X13268627Y-14526817D02*
X13287675Y-14517293D01*
X13287675Y-14517293D02*
X13335294Y-14517293D01*
X13335294Y-14517293D02*
X13354342Y-14507769D01*
X13449580Y-14460150D02*
X13449580Y-14660150D01*
X13449580Y-14469674D02*
X13468627Y-14460150D01*
X13468627Y-14460150D02*
X13506723Y-14460150D01*
X13506723Y-14460150D02*
X13525770Y-14469674D01*
X13525770Y-14469674D02*
X13535294Y-14479198D01*
X13535294Y-14479198D02*
X13544818Y-14498246D01*
X13544818Y-14498246D02*
X13544818Y-14555388D01*
X13544818Y-14555388D02*
X13535294Y-14574436D01*
X13535294Y-14574436D02*
X13525770Y-14583960D01*
X13525770Y-14583960D02*
X13506723Y-14593484D01*
X13506723Y-14593484D02*
X13468627Y-14593484D01*
X13468627Y-14593484D02*
X13449580Y-14583960D01*
X13630532Y-14574436D02*
X13640056Y-14583960D01*
X13640056Y-14583960D02*
X13630532Y-14593484D01*
X13630532Y-14593484D02*
X13621008Y-14583960D01*
X13621008Y-14583960D02*
X13630532Y-14574436D01*
X13630532Y-14574436D02*
X13630532Y-14593484D01*
X13630532Y-14469674D02*
X13640056Y-14479198D01*
X13640056Y-14479198D02*
X13630532Y-14488722D01*
X13630532Y-14488722D02*
X13621008Y-14479198D01*
X13621008Y-14479198D02*
X13630532Y-14469674D01*
X13630532Y-14469674D02*
X13630532Y-14488722D01*
D12*
X11958327Y-14902000D02*
X11998327Y-14942000D01*
X11998327Y-14902000D02*
X11958327Y-14942000D01*
D11*
X12297199Y-14813484D02*
X12316246Y-14813484D01*
X12316246Y-14813484D02*
X12335294Y-14823008D01*
X12335294Y-14823008D02*
X12344818Y-14832531D01*
X12344818Y-14832531D02*
X12354342Y-14851579D01*
X12354342Y-14851579D02*
X12363865Y-14889674D01*
X12363865Y-14889674D02*
X12363865Y-14937293D01*
X12363865Y-14937293D02*
X12354342Y-14975388D01*
X12354342Y-14975388D02*
X12344818Y-14994436D01*
X12344818Y-14994436D02*
X12335294Y-15003960D01*
X12335294Y-15003960D02*
X12316246Y-15013484D01*
X12316246Y-15013484D02*
X12297199Y-15013484D01*
X12297199Y-15013484D02*
X12278151Y-15003960D01*
X12278151Y-15003960D02*
X12268627Y-14994436D01*
X12268627Y-14994436D02*
X12259103Y-14975388D01*
X12259103Y-14975388D02*
X12249580Y-14937293D01*
X12249580Y-14937293D02*
X12249580Y-14889674D01*
X12249580Y-14889674D02*
X12259103Y-14851579D01*
X12259103Y-14851579D02*
X12268627Y-14832531D01*
X12268627Y-14832531D02*
X12278151Y-14823008D01*
X12278151Y-14823008D02*
X12297199Y-14813484D01*
X12449580Y-14994436D02*
X12459103Y-15003960D01*
X12459103Y-15003960D02*
X12449580Y-15013484D01*
X12449580Y-15013484D02*
X12440056Y-15003960D01*
X12440056Y-15003960D02*
X12449580Y-14994436D01*
X12449580Y-14994436D02*
X12449580Y-15013484D01*
X12630532Y-14880150D02*
X12630532Y-15013484D01*
X12582913Y-14803960D02*
X12535294Y-14946817D01*
X12535294Y-14946817D02*
X12659103Y-14946817D01*
X12773389Y-14813484D02*
X12792437Y-14813484D01*
X12792437Y-14813484D02*
X12811484Y-14823008D01*
X12811484Y-14823008D02*
X12821008Y-14832531D01*
X12821008Y-14832531D02*
X12830532Y-14851579D01*
X12830532Y-14851579D02*
X12840056Y-14889674D01*
X12840056Y-14889674D02*
X12840056Y-14937293D01*
X12840056Y-14937293D02*
X12830532Y-14975388D01*
X12830532Y-14975388D02*
X12821008Y-14994436D01*
X12821008Y-14994436D02*
X12811484Y-15003960D01*
X12811484Y-15003960D02*
X12792437Y-15013484D01*
X12792437Y-15013484D02*
X12773389Y-15013484D01*
X12773389Y-15013484D02*
X12754342Y-15003960D01*
X12754342Y-15003960D02*
X12744818Y-14994436D01*
X12744818Y-14994436D02*
X12735294Y-14975388D01*
X12735294Y-14975388D02*
X12725770Y-14937293D01*
X12725770Y-14937293D02*
X12725770Y-14889674D01*
X12725770Y-14889674D02*
X12735294Y-14851579D01*
X12735294Y-14851579D02*
X12744818Y-14832531D01*
X12744818Y-14832531D02*
X12754342Y-14823008D01*
X12754342Y-14823008D02*
X12773389Y-14813484D01*
X12963865Y-14813484D02*
X12982913Y-14813484D01*
X12982913Y-14813484D02*
X13001961Y-14823008D01*
X13001961Y-14823008D02*
X13011484Y-14832531D01*
X13011484Y-14832531D02*
X13021008Y-14851579D01*
X13021008Y-14851579D02*
X13030532Y-14889674D01*
X13030532Y-14889674D02*
X13030532Y-14937293D01*
X13030532Y-14937293D02*
X13021008Y-14975388D01*
X13021008Y-14975388D02*
X13011484Y-14994436D01*
X13011484Y-14994436D02*
X13001961Y-15003960D01*
X13001961Y-15003960D02*
X12982913Y-15013484D01*
X12982913Y-15013484D02*
X12963865Y-15013484D01*
X12963865Y-15013484D02*
X12944818Y-15003960D01*
X12944818Y-15003960D02*
X12935294Y-14994436D01*
X12935294Y-14994436D02*
X12925770Y-14975388D01*
X12925770Y-14975388D02*
X12916246Y-14937293D01*
X12916246Y-14937293D02*
X12916246Y-14889674D01*
X12916246Y-14889674D02*
X12925770Y-14851579D01*
X12925770Y-14851579D02*
X12935294Y-14832531D01*
X12935294Y-14832531D02*
X12944818Y-14823008D01*
X12944818Y-14823008D02*
X12963865Y-14813484D01*
X13116246Y-15013484D02*
X13116246Y-14880150D01*
X13116246Y-14899198D02*
X13125770Y-14889674D01*
X13125770Y-14889674D02*
X13144818Y-14880150D01*
X13144818Y-14880150D02*
X13173389Y-14880150D01*
X13173389Y-14880150D02*
X13192437Y-14889674D01*
X13192437Y-14889674D02*
X13201961Y-14908722D01*
X13201961Y-14908722D02*
X13201961Y-15013484D01*
X13201961Y-14908722D02*
X13211484Y-14889674D01*
X13211484Y-14889674D02*
X13230532Y-14880150D01*
X13230532Y-14880150D02*
X13259103Y-14880150D01*
X13259103Y-14880150D02*
X13278151Y-14889674D01*
X13278151Y-14889674D02*
X13287675Y-14908722D01*
X13287675Y-14908722D02*
X13287675Y-15013484D01*
X13382913Y-15013484D02*
X13382913Y-14880150D01*
X13382913Y-14899198D02*
X13392437Y-14889674D01*
X13392437Y-14889674D02*
X13411484Y-14880150D01*
X13411484Y-14880150D02*
X13440056Y-14880150D01*
X13440056Y-14880150D02*
X13459104Y-14889674D01*
X13459104Y-14889674D02*
X13468627Y-14908722D01*
X13468627Y-14908722D02*
X13468627Y-15013484D01*
X13468627Y-14908722D02*
X13478151Y-14889674D01*
X13478151Y-14889674D02*
X13497199Y-14880150D01*
X13497199Y-14880150D02*
X13525770Y-14880150D01*
X13525770Y-14880150D02*
X13544818Y-14889674D01*
X13544818Y-14889674D02*
X13554342Y-14908722D01*
X13554342Y-14908722D02*
X13554342Y-15013484D01*
X13944818Y-14803960D02*
X13773389Y-15061103D01*
X14201961Y-14813484D02*
X14221008Y-14813484D01*
X14221008Y-14813484D02*
X14240056Y-14823008D01*
X14240056Y-14823008D02*
X14249580Y-14832531D01*
X14249580Y-14832531D02*
X14259104Y-14851579D01*
X14259104Y-14851579D02*
X14268627Y-14889674D01*
X14268627Y-14889674D02*
X14268627Y-14937293D01*
X14268627Y-14937293D02*
X14259104Y-14975388D01*
X14259104Y-14975388D02*
X14249580Y-14994436D01*
X14249580Y-14994436D02*
X14240056Y-15003960D01*
X14240056Y-15003960D02*
X14221008Y-15013484D01*
X14221008Y-15013484D02*
X14201961Y-15013484D01*
X14201961Y-15013484D02*
X14182913Y-15003960D01*
X14182913Y-15003960D02*
X14173389Y-14994436D01*
X14173389Y-14994436D02*
X14163866Y-14975388D01*
X14163866Y-14975388D02*
X14154342Y-14937293D01*
X14154342Y-14937293D02*
X14154342Y-14889674D01*
X14154342Y-14889674D02*
X14163866Y-14851579D01*
X14163866Y-14851579D02*
X14173389Y-14832531D01*
X14173389Y-14832531D02*
X14182913Y-14823008D01*
X14182913Y-14823008D02*
X14201961Y-14813484D01*
X14354342Y-14994436D02*
X14363866Y-15003960D01*
X14363866Y-15003960D02*
X14354342Y-15013484D01*
X14354342Y-15013484D02*
X14344818Y-15003960D01*
X14344818Y-15003960D02*
X14354342Y-14994436D01*
X14354342Y-14994436D02*
X14354342Y-15013484D01*
X14487675Y-14813484D02*
X14506723Y-14813484D01*
X14506723Y-14813484D02*
X14525770Y-14823008D01*
X14525770Y-14823008D02*
X14535294Y-14832531D01*
X14535294Y-14832531D02*
X14544818Y-14851579D01*
X14544818Y-14851579D02*
X14554342Y-14889674D01*
X14554342Y-14889674D02*
X14554342Y-14937293D01*
X14554342Y-14937293D02*
X14544818Y-14975388D01*
X14544818Y-14975388D02*
X14535294Y-14994436D01*
X14535294Y-14994436D02*
X14525770Y-15003960D01*
X14525770Y-15003960D02*
X14506723Y-15013484D01*
X14506723Y-15013484D02*
X14487675Y-15013484D01*
X14487675Y-15013484D02*
X14468627Y-15003960D01*
X14468627Y-15003960D02*
X14459104Y-14994436D01*
X14459104Y-14994436D02*
X14449580Y-14975388D01*
X14449580Y-14975388D02*
X14440056Y-14937293D01*
X14440056Y-14937293D02*
X14440056Y-14889674D01*
X14440056Y-14889674D02*
X14449580Y-14851579D01*
X14449580Y-14851579D02*
X14459104Y-14832531D01*
X14459104Y-14832531D02*
X14468627Y-14823008D01*
X14468627Y-14823008D02*
X14487675Y-14813484D01*
X14744818Y-15013484D02*
X14630532Y-15013484D01*
X14687675Y-15013484D02*
X14687675Y-14813484D01*
X14687675Y-14813484D02*
X14668627Y-14842055D01*
X14668627Y-14842055D02*
X14649580Y-14861103D01*
X14649580Y-14861103D02*
X14630532Y-14870627D01*
X14925770Y-14813484D02*
X14830532Y-14813484D01*
X14830532Y-14813484D02*
X14821008Y-14908722D01*
X14821008Y-14908722D02*
X14830532Y-14899198D01*
X14830532Y-14899198D02*
X14849580Y-14889674D01*
X14849580Y-14889674D02*
X14897199Y-14889674D01*
X14897199Y-14889674D02*
X14916247Y-14899198D01*
X14916247Y-14899198D02*
X14925770Y-14908722D01*
X14925770Y-14908722D02*
X14935294Y-14927769D01*
X14935294Y-14927769D02*
X14935294Y-14975388D01*
X14935294Y-14975388D02*
X14925770Y-14994436D01*
X14925770Y-14994436D02*
X14916247Y-15003960D01*
X14916247Y-15003960D02*
X14897199Y-15013484D01*
X14897199Y-15013484D02*
X14849580Y-15013484D01*
X14849580Y-15013484D02*
X14830532Y-15003960D01*
X14830532Y-15003960D02*
X14821008Y-14994436D01*
X15001961Y-14813484D02*
X15135294Y-14813484D01*
X15135294Y-14813484D02*
X15049580Y-15013484D01*
X15201961Y-14813484D02*
X15201961Y-14851579D01*
X15278151Y-14813484D02*
X15278151Y-14851579D01*
X15573390Y-15089674D02*
X15563866Y-15080150D01*
X15563866Y-15080150D02*
X15544818Y-15051579D01*
X15544818Y-15051579D02*
X15535294Y-15032531D01*
X15535294Y-15032531D02*
X15525770Y-15003960D01*
X15525770Y-15003960D02*
X15516247Y-14956341D01*
X15516247Y-14956341D02*
X15516247Y-14918246D01*
X15516247Y-14918246D02*
X15525770Y-14870627D01*
X15525770Y-14870627D02*
X15535294Y-14842055D01*
X15535294Y-14842055D02*
X15544818Y-14823008D01*
X15544818Y-14823008D02*
X15563866Y-14794436D01*
X15563866Y-14794436D02*
X15573390Y-14784912D01*
X15640056Y-14832531D02*
X15649580Y-14823008D01*
X15649580Y-14823008D02*
X15668628Y-14813484D01*
X15668628Y-14813484D02*
X15716247Y-14813484D01*
X15716247Y-14813484D02*
X15735294Y-14823008D01*
X15735294Y-14823008D02*
X15744818Y-14832531D01*
X15744818Y-14832531D02*
X15754342Y-14851579D01*
X15754342Y-14851579D02*
X15754342Y-14870627D01*
X15754342Y-14870627D02*
X15744818Y-14899198D01*
X15744818Y-14899198D02*
X15630532Y-15013484D01*
X15630532Y-15013484D02*
X15754342Y-15013484D01*
X15925770Y-14813484D02*
X15887675Y-14813484D01*
X15887675Y-14813484D02*
X15868628Y-14823008D01*
X15868628Y-14823008D02*
X15859104Y-14832531D01*
X15859104Y-14832531D02*
X15840056Y-14861103D01*
X15840056Y-14861103D02*
X15830532Y-14899198D01*
X15830532Y-14899198D02*
X15830532Y-14975388D01*
X15830532Y-14975388D02*
X15840056Y-14994436D01*
X15840056Y-14994436D02*
X15849580Y-15003960D01*
X15849580Y-15003960D02*
X15868628Y-15013484D01*
X15868628Y-15013484D02*
X15906723Y-15013484D01*
X15906723Y-15013484D02*
X15925770Y-15003960D01*
X15925770Y-15003960D02*
X15935294Y-14994436D01*
X15935294Y-14994436D02*
X15944818Y-14975388D01*
X15944818Y-14975388D02*
X15944818Y-14927769D01*
X15944818Y-14927769D02*
X15935294Y-14908722D01*
X15935294Y-14908722D02*
X15925770Y-14899198D01*
X15925770Y-14899198D02*
X15906723Y-14889674D01*
X15906723Y-14889674D02*
X15868628Y-14889674D01*
X15868628Y-14889674D02*
X15849580Y-14899198D01*
X15849580Y-14899198D02*
X15840056Y-14908722D01*
X15840056Y-14908722D02*
X15830532Y-14927769D01*
X16011485Y-14813484D02*
X16144818Y-14813484D01*
X16144818Y-14813484D02*
X16059104Y-15013484D01*
X16373390Y-15013484D02*
X16373390Y-14813484D01*
X16459104Y-15013484D02*
X16459104Y-14908722D01*
X16459104Y-14908722D02*
X16449580Y-14889674D01*
X16449580Y-14889674D02*
X16430532Y-14880150D01*
X16430532Y-14880150D02*
X16401961Y-14880150D01*
X16401961Y-14880150D02*
X16382913Y-14889674D01*
X16382913Y-14889674D02*
X16373390Y-14899198D01*
X16582913Y-15013484D02*
X16563866Y-15003960D01*
X16563866Y-15003960D02*
X16554342Y-14994436D01*
X16554342Y-14994436D02*
X16544818Y-14975388D01*
X16544818Y-14975388D02*
X16544818Y-14918246D01*
X16544818Y-14918246D02*
X16554342Y-14899198D01*
X16554342Y-14899198D02*
X16563866Y-14889674D01*
X16563866Y-14889674D02*
X16582913Y-14880150D01*
X16582913Y-14880150D02*
X16611485Y-14880150D01*
X16611485Y-14880150D02*
X16630532Y-14889674D01*
X16630532Y-14889674D02*
X16640056Y-14899198D01*
X16640056Y-14899198D02*
X16649580Y-14918246D01*
X16649580Y-14918246D02*
X16649580Y-14975388D01*
X16649580Y-14975388D02*
X16640056Y-14994436D01*
X16640056Y-14994436D02*
X16630532Y-15003960D01*
X16630532Y-15003960D02*
X16611485Y-15013484D01*
X16611485Y-15013484D02*
X16582913Y-15013484D01*
X16763866Y-15013484D02*
X16744818Y-15003960D01*
X16744818Y-15003960D02*
X16735294Y-14984912D01*
X16735294Y-14984912D02*
X16735294Y-14813484D01*
X16916247Y-15003960D02*
X16897199Y-15013484D01*
X16897199Y-15013484D02*
X16859104Y-15013484D01*
X16859104Y-15013484D02*
X16840056Y-15003960D01*
X16840056Y-15003960D02*
X16830533Y-14984912D01*
X16830533Y-14984912D02*
X16830533Y-14908722D01*
X16830533Y-14908722D02*
X16840056Y-14889674D01*
X16840056Y-14889674D02*
X16859104Y-14880150D01*
X16859104Y-14880150D02*
X16897199Y-14880150D01*
X16897199Y-14880150D02*
X16916247Y-14889674D01*
X16916247Y-14889674D02*
X16925771Y-14908722D01*
X16925771Y-14908722D02*
X16925771Y-14927769D01*
X16925771Y-14927769D02*
X16830533Y-14946817D01*
X17001961Y-15003960D02*
X17021009Y-15013484D01*
X17021009Y-15013484D02*
X17059104Y-15013484D01*
X17059104Y-15013484D02*
X17078152Y-15003960D01*
X17078152Y-15003960D02*
X17087675Y-14984912D01*
X17087675Y-14984912D02*
X17087675Y-14975388D01*
X17087675Y-14975388D02*
X17078152Y-14956341D01*
X17078152Y-14956341D02*
X17059104Y-14946817D01*
X17059104Y-14946817D02*
X17030533Y-14946817D01*
X17030533Y-14946817D02*
X17011485Y-14937293D01*
X17011485Y-14937293D02*
X17001961Y-14918246D01*
X17001961Y-14918246D02*
X17001961Y-14908722D01*
X17001961Y-14908722D02*
X17011485Y-14889674D01*
X17011485Y-14889674D02*
X17030533Y-14880150D01*
X17030533Y-14880150D02*
X17059104Y-14880150D01*
X17059104Y-14880150D02*
X17078152Y-14889674D01*
X17154342Y-15089674D02*
X17163866Y-15080150D01*
X17163866Y-15080150D02*
X17182914Y-15051579D01*
X17182914Y-15051579D02*
X17192437Y-15032531D01*
X17192437Y-15032531D02*
X17201961Y-15003960D01*
X17201961Y-15003960D02*
X17211485Y-14956341D01*
X17211485Y-14956341D02*
X17211485Y-14918246D01*
X17211485Y-14918246D02*
X17201961Y-14870627D01*
X17201961Y-14870627D02*
X17192437Y-14842055D01*
X17192437Y-14842055D02*
X17182914Y-14823008D01*
X17182914Y-14823008D02*
X17163866Y-14794436D01*
X17163866Y-14794436D02*
X17154342Y-14784912D01*
D13*
X11998327Y-15186000D02*
G75*
G03*
X11998327Y-15186000I-37500J0D01*
G01*
D11*
X12297199Y-15077484D02*
X12316246Y-15077484D01*
X12316246Y-15077484D02*
X12335294Y-15087008D01*
X12335294Y-15087008D02*
X12344818Y-15096531D01*
X12344818Y-15096531D02*
X12354342Y-15115579D01*
X12354342Y-15115579D02*
X12363865Y-15153674D01*
X12363865Y-15153674D02*
X12363865Y-15201293D01*
X12363865Y-15201293D02*
X12354342Y-15239388D01*
X12354342Y-15239388D02*
X12344818Y-15258436D01*
X12344818Y-15258436D02*
X12335294Y-15267960D01*
X12335294Y-15267960D02*
X12316246Y-15277484D01*
X12316246Y-15277484D02*
X12297199Y-15277484D01*
X12297199Y-15277484D02*
X12278151Y-15267960D01*
X12278151Y-15267960D02*
X12268627Y-15258436D01*
X12268627Y-15258436D02*
X12259103Y-15239388D01*
X12259103Y-15239388D02*
X12249580Y-15201293D01*
X12249580Y-15201293D02*
X12249580Y-15153674D01*
X12249580Y-15153674D02*
X12259103Y-15115579D01*
X12259103Y-15115579D02*
X12268627Y-15096531D01*
X12268627Y-15096531D02*
X12278151Y-15087008D01*
X12278151Y-15087008D02*
X12297199Y-15077484D01*
X12449580Y-15258436D02*
X12459103Y-15267960D01*
X12459103Y-15267960D02*
X12449580Y-15277484D01*
X12449580Y-15277484D02*
X12440056Y-15267960D01*
X12440056Y-15267960D02*
X12449580Y-15258436D01*
X12449580Y-15258436D02*
X12449580Y-15277484D01*
X12525770Y-15077484D02*
X12659103Y-15077484D01*
X12659103Y-15077484D02*
X12573389Y-15277484D01*
X12830532Y-15077484D02*
X12735294Y-15077484D01*
X12735294Y-15077484D02*
X12725770Y-15172722D01*
X12725770Y-15172722D02*
X12735294Y-15163198D01*
X12735294Y-15163198D02*
X12754342Y-15153674D01*
X12754342Y-15153674D02*
X12801961Y-15153674D01*
X12801961Y-15153674D02*
X12821008Y-15163198D01*
X12821008Y-15163198D02*
X12830532Y-15172722D01*
X12830532Y-15172722D02*
X12840056Y-15191769D01*
X12840056Y-15191769D02*
X12840056Y-15239388D01*
X12840056Y-15239388D02*
X12830532Y-15258436D01*
X12830532Y-15258436D02*
X12821008Y-15267960D01*
X12821008Y-15267960D02*
X12801961Y-15277484D01*
X12801961Y-15277484D02*
X12754342Y-15277484D01*
X12754342Y-15277484D02*
X12735294Y-15267960D01*
X12735294Y-15267960D02*
X12725770Y-15258436D01*
X12963865Y-15077484D02*
X12982913Y-15077484D01*
X12982913Y-15077484D02*
X13001961Y-15087008D01*
X13001961Y-15087008D02*
X13011484Y-15096531D01*
X13011484Y-15096531D02*
X13021008Y-15115579D01*
X13021008Y-15115579D02*
X13030532Y-15153674D01*
X13030532Y-15153674D02*
X13030532Y-15201293D01*
X13030532Y-15201293D02*
X13021008Y-15239388D01*
X13021008Y-15239388D02*
X13011484Y-15258436D01*
X13011484Y-15258436D02*
X13001961Y-15267960D01*
X13001961Y-15267960D02*
X12982913Y-15277484D01*
X12982913Y-15277484D02*
X12963865Y-15277484D01*
X12963865Y-15277484D02*
X12944818Y-15267960D01*
X12944818Y-15267960D02*
X12935294Y-15258436D01*
X12935294Y-15258436D02*
X12925770Y-15239388D01*
X12925770Y-15239388D02*
X12916246Y-15201293D01*
X12916246Y-15201293D02*
X12916246Y-15153674D01*
X12916246Y-15153674D02*
X12925770Y-15115579D01*
X12925770Y-15115579D02*
X12935294Y-15096531D01*
X12935294Y-15096531D02*
X12944818Y-15087008D01*
X12944818Y-15087008D02*
X12963865Y-15077484D01*
X13116246Y-15277484D02*
X13116246Y-15144150D01*
X13116246Y-15163198D02*
X13125770Y-15153674D01*
X13125770Y-15153674D02*
X13144818Y-15144150D01*
X13144818Y-15144150D02*
X13173389Y-15144150D01*
X13173389Y-15144150D02*
X13192437Y-15153674D01*
X13192437Y-15153674D02*
X13201961Y-15172722D01*
X13201961Y-15172722D02*
X13201961Y-15277484D01*
X13201961Y-15172722D02*
X13211484Y-15153674D01*
X13211484Y-15153674D02*
X13230532Y-15144150D01*
X13230532Y-15144150D02*
X13259103Y-15144150D01*
X13259103Y-15144150D02*
X13278151Y-15153674D01*
X13278151Y-15153674D02*
X13287675Y-15172722D01*
X13287675Y-15172722D02*
X13287675Y-15277484D01*
X13382913Y-15277484D02*
X13382913Y-15144150D01*
X13382913Y-15163198D02*
X13392437Y-15153674D01*
X13392437Y-15153674D02*
X13411484Y-15144150D01*
X13411484Y-15144150D02*
X13440056Y-15144150D01*
X13440056Y-15144150D02*
X13459104Y-15153674D01*
X13459104Y-15153674D02*
X13468627Y-15172722D01*
X13468627Y-15172722D02*
X13468627Y-15277484D01*
X13468627Y-15172722D02*
X13478151Y-15153674D01*
X13478151Y-15153674D02*
X13497199Y-15144150D01*
X13497199Y-15144150D02*
X13525770Y-15144150D01*
X13525770Y-15144150D02*
X13544818Y-15153674D01*
X13544818Y-15153674D02*
X13554342Y-15172722D01*
X13554342Y-15172722D02*
X13554342Y-15277484D01*
X13944818Y-15067960D02*
X13773389Y-15325103D01*
X14201961Y-15077484D02*
X14221008Y-15077484D01*
X14221008Y-15077484D02*
X14240056Y-15087008D01*
X14240056Y-15087008D02*
X14249580Y-15096531D01*
X14249580Y-15096531D02*
X14259104Y-15115579D01*
X14259104Y-15115579D02*
X14268627Y-15153674D01*
X14268627Y-15153674D02*
X14268627Y-15201293D01*
X14268627Y-15201293D02*
X14259104Y-15239388D01*
X14259104Y-15239388D02*
X14249580Y-15258436D01*
X14249580Y-15258436D02*
X14240056Y-15267960D01*
X14240056Y-15267960D02*
X14221008Y-15277484D01*
X14221008Y-15277484D02*
X14201961Y-15277484D01*
X14201961Y-15277484D02*
X14182913Y-15267960D01*
X14182913Y-15267960D02*
X14173389Y-15258436D01*
X14173389Y-15258436D02*
X14163866Y-15239388D01*
X14163866Y-15239388D02*
X14154342Y-15201293D01*
X14154342Y-15201293D02*
X14154342Y-15153674D01*
X14154342Y-15153674D02*
X14163866Y-15115579D01*
X14163866Y-15115579D02*
X14173389Y-15096531D01*
X14173389Y-15096531D02*
X14182913Y-15087008D01*
X14182913Y-15087008D02*
X14201961Y-15077484D01*
X14354342Y-15258436D02*
X14363866Y-15267960D01*
X14363866Y-15267960D02*
X14354342Y-15277484D01*
X14354342Y-15277484D02*
X14344818Y-15267960D01*
X14344818Y-15267960D02*
X14354342Y-15258436D01*
X14354342Y-15258436D02*
X14354342Y-15277484D01*
X14487675Y-15077484D02*
X14506723Y-15077484D01*
X14506723Y-15077484D02*
X14525770Y-15087008D01*
X14525770Y-15087008D02*
X14535294Y-15096531D01*
X14535294Y-15096531D02*
X14544818Y-15115579D01*
X14544818Y-15115579D02*
X14554342Y-15153674D01*
X14554342Y-15153674D02*
X14554342Y-15201293D01*
X14554342Y-15201293D02*
X14544818Y-15239388D01*
X14544818Y-15239388D02*
X14535294Y-15258436D01*
X14535294Y-15258436D02*
X14525770Y-15267960D01*
X14525770Y-15267960D02*
X14506723Y-15277484D01*
X14506723Y-15277484D02*
X14487675Y-15277484D01*
X14487675Y-15277484D02*
X14468627Y-15267960D01*
X14468627Y-15267960D02*
X14459104Y-15258436D01*
X14459104Y-15258436D02*
X14449580Y-15239388D01*
X14449580Y-15239388D02*
X14440056Y-15201293D01*
X14440056Y-15201293D02*
X14440056Y-15153674D01*
X14440056Y-15153674D02*
X14449580Y-15115579D01*
X14449580Y-15115579D02*
X14459104Y-15096531D01*
X14459104Y-15096531D02*
X14468627Y-15087008D01*
X14468627Y-15087008D02*
X14487675Y-15077484D01*
X14630532Y-15096531D02*
X14640056Y-15087008D01*
X14640056Y-15087008D02*
X14659104Y-15077484D01*
X14659104Y-15077484D02*
X14706723Y-15077484D01*
X14706723Y-15077484D02*
X14725770Y-15087008D01*
X14725770Y-15087008D02*
X14735294Y-15096531D01*
X14735294Y-15096531D02*
X14744818Y-15115579D01*
X14744818Y-15115579D02*
X14744818Y-15134627D01*
X14744818Y-15134627D02*
X14735294Y-15163198D01*
X14735294Y-15163198D02*
X14621008Y-15277484D01*
X14621008Y-15277484D02*
X14744818Y-15277484D01*
X14840056Y-15277484D02*
X14878151Y-15277484D01*
X14878151Y-15277484D02*
X14897199Y-15267960D01*
X14897199Y-15267960D02*
X14906723Y-15258436D01*
X14906723Y-15258436D02*
X14925770Y-15229865D01*
X14925770Y-15229865D02*
X14935294Y-15191769D01*
X14935294Y-15191769D02*
X14935294Y-15115579D01*
X14935294Y-15115579D02*
X14925770Y-15096531D01*
X14925770Y-15096531D02*
X14916247Y-15087008D01*
X14916247Y-15087008D02*
X14897199Y-15077484D01*
X14897199Y-15077484D02*
X14859104Y-15077484D01*
X14859104Y-15077484D02*
X14840056Y-15087008D01*
X14840056Y-15087008D02*
X14830532Y-15096531D01*
X14830532Y-15096531D02*
X14821008Y-15115579D01*
X14821008Y-15115579D02*
X14821008Y-15163198D01*
X14821008Y-15163198D02*
X14830532Y-15182246D01*
X14830532Y-15182246D02*
X14840056Y-15191769D01*
X14840056Y-15191769D02*
X14859104Y-15201293D01*
X14859104Y-15201293D02*
X14897199Y-15201293D01*
X14897199Y-15201293D02*
X14916247Y-15191769D01*
X14916247Y-15191769D02*
X14925770Y-15182246D01*
X14925770Y-15182246D02*
X14935294Y-15163198D01*
X15116247Y-15077484D02*
X15021008Y-15077484D01*
X15021008Y-15077484D02*
X15011485Y-15172722D01*
X15011485Y-15172722D02*
X15021008Y-15163198D01*
X15021008Y-15163198D02*
X15040056Y-15153674D01*
X15040056Y-15153674D02*
X15087675Y-15153674D01*
X15087675Y-15153674D02*
X15106723Y-15163198D01*
X15106723Y-15163198D02*
X15116247Y-15172722D01*
X15116247Y-15172722D02*
X15125770Y-15191769D01*
X15125770Y-15191769D02*
X15125770Y-15239388D01*
X15125770Y-15239388D02*
X15116247Y-15258436D01*
X15116247Y-15258436D02*
X15106723Y-15267960D01*
X15106723Y-15267960D02*
X15087675Y-15277484D01*
X15087675Y-15277484D02*
X15040056Y-15277484D01*
X15040056Y-15277484D02*
X15021008Y-15267960D01*
X15021008Y-15267960D02*
X15011485Y-15258436D01*
X15201961Y-15077484D02*
X15201961Y-15115579D01*
X15278151Y-15077484D02*
X15278151Y-15115579D01*
X15573390Y-15353674D02*
X15563866Y-15344150D01*
X15563866Y-15344150D02*
X15544818Y-15315579D01*
X15544818Y-15315579D02*
X15535294Y-15296531D01*
X15535294Y-15296531D02*
X15525770Y-15267960D01*
X15525770Y-15267960D02*
X15516247Y-15220341D01*
X15516247Y-15220341D02*
X15516247Y-15182246D01*
X15516247Y-15182246D02*
X15525770Y-15134627D01*
X15525770Y-15134627D02*
X15535294Y-15106055D01*
X15535294Y-15106055D02*
X15544818Y-15087008D01*
X15544818Y-15087008D02*
X15563866Y-15058436D01*
X15563866Y-15058436D02*
X15573390Y-15048912D01*
X15640056Y-15096531D02*
X15649580Y-15087008D01*
X15649580Y-15087008D02*
X15668628Y-15077484D01*
X15668628Y-15077484D02*
X15716247Y-15077484D01*
X15716247Y-15077484D02*
X15735294Y-15087008D01*
X15735294Y-15087008D02*
X15744818Y-15096531D01*
X15744818Y-15096531D02*
X15754342Y-15115579D01*
X15754342Y-15115579D02*
X15754342Y-15134627D01*
X15754342Y-15134627D02*
X15744818Y-15163198D01*
X15744818Y-15163198D02*
X15630532Y-15277484D01*
X15630532Y-15277484D02*
X15754342Y-15277484D01*
X15992437Y-15277484D02*
X15992437Y-15077484D01*
X16078151Y-15277484D02*
X16078151Y-15172722D01*
X16078151Y-15172722D02*
X16068628Y-15153674D01*
X16068628Y-15153674D02*
X16049580Y-15144150D01*
X16049580Y-15144150D02*
X16021009Y-15144150D01*
X16021009Y-15144150D02*
X16001961Y-15153674D01*
X16001961Y-15153674D02*
X15992437Y-15163198D01*
X16201961Y-15277484D02*
X16182913Y-15267960D01*
X16182913Y-15267960D02*
X16173390Y-15258436D01*
X16173390Y-15258436D02*
X16163866Y-15239388D01*
X16163866Y-15239388D02*
X16163866Y-15182246D01*
X16163866Y-15182246D02*
X16173390Y-15163198D01*
X16173390Y-15163198D02*
X16182913Y-15153674D01*
X16182913Y-15153674D02*
X16201961Y-15144150D01*
X16201961Y-15144150D02*
X16230532Y-15144150D01*
X16230532Y-15144150D02*
X16249580Y-15153674D01*
X16249580Y-15153674D02*
X16259104Y-15163198D01*
X16259104Y-15163198D02*
X16268628Y-15182246D01*
X16268628Y-15182246D02*
X16268628Y-15239388D01*
X16268628Y-15239388D02*
X16259104Y-15258436D01*
X16259104Y-15258436D02*
X16249580Y-15267960D01*
X16249580Y-15267960D02*
X16230532Y-15277484D01*
X16230532Y-15277484D02*
X16201961Y-15277484D01*
X16382913Y-15277484D02*
X16363866Y-15267960D01*
X16363866Y-15267960D02*
X16354342Y-15248912D01*
X16354342Y-15248912D02*
X16354342Y-15077484D01*
X16535294Y-15267960D02*
X16516247Y-15277484D01*
X16516247Y-15277484D02*
X16478151Y-15277484D01*
X16478151Y-15277484D02*
X16459104Y-15267960D01*
X16459104Y-15267960D02*
X16449580Y-15248912D01*
X16449580Y-15248912D02*
X16449580Y-15172722D01*
X16449580Y-15172722D02*
X16459104Y-15153674D01*
X16459104Y-15153674D02*
X16478151Y-15144150D01*
X16478151Y-15144150D02*
X16516247Y-15144150D01*
X16516247Y-15144150D02*
X16535294Y-15153674D01*
X16535294Y-15153674D02*
X16544818Y-15172722D01*
X16544818Y-15172722D02*
X16544818Y-15191769D01*
X16544818Y-15191769D02*
X16449580Y-15210817D01*
X16621009Y-15267960D02*
X16640056Y-15277484D01*
X16640056Y-15277484D02*
X16678151Y-15277484D01*
X16678151Y-15277484D02*
X16697199Y-15267960D01*
X16697199Y-15267960D02*
X16706723Y-15248912D01*
X16706723Y-15248912D02*
X16706723Y-15239388D01*
X16706723Y-15239388D02*
X16697199Y-15220341D01*
X16697199Y-15220341D02*
X16678151Y-15210817D01*
X16678151Y-15210817D02*
X16649580Y-15210817D01*
X16649580Y-15210817D02*
X16630532Y-15201293D01*
X16630532Y-15201293D02*
X16621009Y-15182246D01*
X16621009Y-15182246D02*
X16621009Y-15172722D01*
X16621009Y-15172722D02*
X16630532Y-15153674D01*
X16630532Y-15153674D02*
X16649580Y-15144150D01*
X16649580Y-15144150D02*
X16678151Y-15144150D01*
X16678151Y-15144150D02*
X16697199Y-15153674D01*
X16773390Y-15353674D02*
X16782914Y-15344150D01*
X16782914Y-15344150D02*
X16801961Y-15315579D01*
X16801961Y-15315579D02*
X16811485Y-15296531D01*
X16811485Y-15296531D02*
X16821009Y-15267960D01*
X16821009Y-15267960D02*
X16830533Y-15220341D01*
X16830533Y-15220341D02*
X16830533Y-15182246D01*
X16830533Y-15182246D02*
X16821009Y-15134627D01*
X16821009Y-15134627D02*
X16811485Y-15106055D01*
X16811485Y-15106055D02*
X16801961Y-15087008D01*
X16801961Y-15087008D02*
X16782914Y-15058436D01*
X16782914Y-15058436D02*
X16773390Y-15048912D01*
D14*
X11958327Y-15410000D02*
X11958327Y-15490000D01*
X11918327Y-15450000D02*
X11998327Y-15450000D01*
D11*
X12297199Y-15341484D02*
X12316246Y-15341484D01*
X12316246Y-15341484D02*
X12335294Y-15351008D01*
X12335294Y-15351008D02*
X12344818Y-15360531D01*
X12344818Y-15360531D02*
X12354342Y-15379579D01*
X12354342Y-15379579D02*
X12363865Y-15417674D01*
X12363865Y-15417674D02*
X12363865Y-15465293D01*
X12363865Y-15465293D02*
X12354342Y-15503388D01*
X12354342Y-15503388D02*
X12344818Y-15522436D01*
X12344818Y-15522436D02*
X12335294Y-15531960D01*
X12335294Y-15531960D02*
X12316246Y-15541484D01*
X12316246Y-15541484D02*
X12297199Y-15541484D01*
X12297199Y-15541484D02*
X12278151Y-15531960D01*
X12278151Y-15531960D02*
X12268627Y-15522436D01*
X12268627Y-15522436D02*
X12259103Y-15503388D01*
X12259103Y-15503388D02*
X12249580Y-15465293D01*
X12249580Y-15465293D02*
X12249580Y-15417674D01*
X12249580Y-15417674D02*
X12259103Y-15379579D01*
X12259103Y-15379579D02*
X12268627Y-15360531D01*
X12268627Y-15360531D02*
X12278151Y-15351008D01*
X12278151Y-15351008D02*
X12297199Y-15341484D01*
X12449580Y-15522436D02*
X12459103Y-15531960D01*
X12459103Y-15531960D02*
X12449580Y-15541484D01*
X12449580Y-15541484D02*
X12440056Y-15531960D01*
X12440056Y-15531960D02*
X12449580Y-15522436D01*
X12449580Y-15522436D02*
X12449580Y-15541484D01*
X12573389Y-15427198D02*
X12554342Y-15417674D01*
X12554342Y-15417674D02*
X12544818Y-15408150D01*
X12544818Y-15408150D02*
X12535294Y-15389103D01*
X12535294Y-15389103D02*
X12535294Y-15379579D01*
X12535294Y-15379579D02*
X12544818Y-15360531D01*
X12544818Y-15360531D02*
X12554342Y-15351008D01*
X12554342Y-15351008D02*
X12573389Y-15341484D01*
X12573389Y-15341484D02*
X12611484Y-15341484D01*
X12611484Y-15341484D02*
X12630532Y-15351008D01*
X12630532Y-15351008D02*
X12640056Y-15360531D01*
X12640056Y-15360531D02*
X12649580Y-15379579D01*
X12649580Y-15379579D02*
X12649580Y-15389103D01*
X12649580Y-15389103D02*
X12640056Y-15408150D01*
X12640056Y-15408150D02*
X12630532Y-15417674D01*
X12630532Y-15417674D02*
X12611484Y-15427198D01*
X12611484Y-15427198D02*
X12573389Y-15427198D01*
X12573389Y-15427198D02*
X12554342Y-15436722D01*
X12554342Y-15436722D02*
X12544818Y-15446246D01*
X12544818Y-15446246D02*
X12535294Y-15465293D01*
X12535294Y-15465293D02*
X12535294Y-15503388D01*
X12535294Y-15503388D02*
X12544818Y-15522436D01*
X12544818Y-15522436D02*
X12554342Y-15531960D01*
X12554342Y-15531960D02*
X12573389Y-15541484D01*
X12573389Y-15541484D02*
X12611484Y-15541484D01*
X12611484Y-15541484D02*
X12630532Y-15531960D01*
X12630532Y-15531960D02*
X12640056Y-15522436D01*
X12640056Y-15522436D02*
X12649580Y-15503388D01*
X12649580Y-15503388D02*
X12649580Y-15465293D01*
X12649580Y-15465293D02*
X12640056Y-15446246D01*
X12640056Y-15446246D02*
X12630532Y-15436722D01*
X12630532Y-15436722D02*
X12611484Y-15427198D01*
X12773389Y-15341484D02*
X12792437Y-15341484D01*
X12792437Y-15341484D02*
X12811484Y-15351008D01*
X12811484Y-15351008D02*
X12821008Y-15360531D01*
X12821008Y-15360531D02*
X12830532Y-15379579D01*
X12830532Y-15379579D02*
X12840056Y-15417674D01*
X12840056Y-15417674D02*
X12840056Y-15465293D01*
X12840056Y-15465293D02*
X12830532Y-15503388D01*
X12830532Y-15503388D02*
X12821008Y-15522436D01*
X12821008Y-15522436D02*
X12811484Y-15531960D01*
X12811484Y-15531960D02*
X12792437Y-15541484D01*
X12792437Y-15541484D02*
X12773389Y-15541484D01*
X12773389Y-15541484D02*
X12754342Y-15531960D01*
X12754342Y-15531960D02*
X12744818Y-15522436D01*
X12744818Y-15522436D02*
X12735294Y-15503388D01*
X12735294Y-15503388D02*
X12725770Y-15465293D01*
X12725770Y-15465293D02*
X12725770Y-15417674D01*
X12725770Y-15417674D02*
X12735294Y-15379579D01*
X12735294Y-15379579D02*
X12744818Y-15360531D01*
X12744818Y-15360531D02*
X12754342Y-15351008D01*
X12754342Y-15351008D02*
X12773389Y-15341484D01*
X12963865Y-15341484D02*
X12982913Y-15341484D01*
X12982913Y-15341484D02*
X13001961Y-15351008D01*
X13001961Y-15351008D02*
X13011484Y-15360531D01*
X13011484Y-15360531D02*
X13021008Y-15379579D01*
X13021008Y-15379579D02*
X13030532Y-15417674D01*
X13030532Y-15417674D02*
X13030532Y-15465293D01*
X13030532Y-15465293D02*
X13021008Y-15503388D01*
X13021008Y-15503388D02*
X13011484Y-15522436D01*
X13011484Y-15522436D02*
X13001961Y-15531960D01*
X13001961Y-15531960D02*
X12982913Y-15541484D01*
X12982913Y-15541484D02*
X12963865Y-15541484D01*
X12963865Y-15541484D02*
X12944818Y-15531960D01*
X12944818Y-15531960D02*
X12935294Y-15522436D01*
X12935294Y-15522436D02*
X12925770Y-15503388D01*
X12925770Y-15503388D02*
X12916246Y-15465293D01*
X12916246Y-15465293D02*
X12916246Y-15417674D01*
X12916246Y-15417674D02*
X12925770Y-15379579D01*
X12925770Y-15379579D02*
X12935294Y-15360531D01*
X12935294Y-15360531D02*
X12944818Y-15351008D01*
X12944818Y-15351008D02*
X12963865Y-15341484D01*
X13116246Y-15541484D02*
X13116246Y-15408150D01*
X13116246Y-15427198D02*
X13125770Y-15417674D01*
X13125770Y-15417674D02*
X13144818Y-15408150D01*
X13144818Y-15408150D02*
X13173389Y-15408150D01*
X13173389Y-15408150D02*
X13192437Y-15417674D01*
X13192437Y-15417674D02*
X13201961Y-15436722D01*
X13201961Y-15436722D02*
X13201961Y-15541484D01*
X13201961Y-15436722D02*
X13211484Y-15417674D01*
X13211484Y-15417674D02*
X13230532Y-15408150D01*
X13230532Y-15408150D02*
X13259103Y-15408150D01*
X13259103Y-15408150D02*
X13278151Y-15417674D01*
X13278151Y-15417674D02*
X13287675Y-15436722D01*
X13287675Y-15436722D02*
X13287675Y-15541484D01*
X13382913Y-15541484D02*
X13382913Y-15408150D01*
X13382913Y-15427198D02*
X13392437Y-15417674D01*
X13392437Y-15417674D02*
X13411484Y-15408150D01*
X13411484Y-15408150D02*
X13440056Y-15408150D01*
X13440056Y-15408150D02*
X13459104Y-15417674D01*
X13459104Y-15417674D02*
X13468627Y-15436722D01*
X13468627Y-15436722D02*
X13468627Y-15541484D01*
X13468627Y-15436722D02*
X13478151Y-15417674D01*
X13478151Y-15417674D02*
X13497199Y-15408150D01*
X13497199Y-15408150D02*
X13525770Y-15408150D01*
X13525770Y-15408150D02*
X13544818Y-15417674D01*
X13544818Y-15417674D02*
X13554342Y-15436722D01*
X13554342Y-15436722D02*
X13554342Y-15541484D01*
X13944818Y-15331960D02*
X13773389Y-15589103D01*
X14201961Y-15341484D02*
X14221008Y-15341484D01*
X14221008Y-15341484D02*
X14240056Y-15351008D01*
X14240056Y-15351008D02*
X14249580Y-15360531D01*
X14249580Y-15360531D02*
X14259104Y-15379579D01*
X14259104Y-15379579D02*
X14268627Y-15417674D01*
X14268627Y-15417674D02*
X14268627Y-15465293D01*
X14268627Y-15465293D02*
X14259104Y-15503388D01*
X14259104Y-15503388D02*
X14249580Y-15522436D01*
X14249580Y-15522436D02*
X14240056Y-15531960D01*
X14240056Y-15531960D02*
X14221008Y-15541484D01*
X14221008Y-15541484D02*
X14201961Y-15541484D01*
X14201961Y-15541484D02*
X14182913Y-15531960D01*
X14182913Y-15531960D02*
X14173389Y-15522436D01*
X14173389Y-15522436D02*
X14163866Y-15503388D01*
X14163866Y-15503388D02*
X14154342Y-15465293D01*
X14154342Y-15465293D02*
X14154342Y-15417674D01*
X14154342Y-15417674D02*
X14163866Y-15379579D01*
X14163866Y-15379579D02*
X14173389Y-15360531D01*
X14173389Y-15360531D02*
X14182913Y-15351008D01*
X14182913Y-15351008D02*
X14201961Y-15341484D01*
X14354342Y-15522436D02*
X14363866Y-15531960D01*
X14363866Y-15531960D02*
X14354342Y-15541484D01*
X14354342Y-15541484D02*
X14344818Y-15531960D01*
X14344818Y-15531960D02*
X14354342Y-15522436D01*
X14354342Y-15522436D02*
X14354342Y-15541484D01*
X14487675Y-15341484D02*
X14506723Y-15341484D01*
X14506723Y-15341484D02*
X14525770Y-15351008D01*
X14525770Y-15351008D02*
X14535294Y-15360531D01*
X14535294Y-15360531D02*
X14544818Y-15379579D01*
X14544818Y-15379579D02*
X14554342Y-15417674D01*
X14554342Y-15417674D02*
X14554342Y-15465293D01*
X14554342Y-15465293D02*
X14544818Y-15503388D01*
X14544818Y-15503388D02*
X14535294Y-15522436D01*
X14535294Y-15522436D02*
X14525770Y-15531960D01*
X14525770Y-15531960D02*
X14506723Y-15541484D01*
X14506723Y-15541484D02*
X14487675Y-15541484D01*
X14487675Y-15541484D02*
X14468627Y-15531960D01*
X14468627Y-15531960D02*
X14459104Y-15522436D01*
X14459104Y-15522436D02*
X14449580Y-15503388D01*
X14449580Y-15503388D02*
X14440056Y-15465293D01*
X14440056Y-15465293D02*
X14440056Y-15417674D01*
X14440056Y-15417674D02*
X14449580Y-15379579D01*
X14449580Y-15379579D02*
X14459104Y-15360531D01*
X14459104Y-15360531D02*
X14468627Y-15351008D01*
X14468627Y-15351008D02*
X14487675Y-15341484D01*
X14621008Y-15341484D02*
X14744818Y-15341484D01*
X14744818Y-15341484D02*
X14678151Y-15417674D01*
X14678151Y-15417674D02*
X14706723Y-15417674D01*
X14706723Y-15417674D02*
X14725770Y-15427198D01*
X14725770Y-15427198D02*
X14735294Y-15436722D01*
X14735294Y-15436722D02*
X14744818Y-15455769D01*
X14744818Y-15455769D02*
X14744818Y-15503388D01*
X14744818Y-15503388D02*
X14735294Y-15522436D01*
X14735294Y-15522436D02*
X14725770Y-15531960D01*
X14725770Y-15531960D02*
X14706723Y-15541484D01*
X14706723Y-15541484D02*
X14649580Y-15541484D01*
X14649580Y-15541484D02*
X14630532Y-15531960D01*
X14630532Y-15531960D02*
X14621008Y-15522436D01*
X14935294Y-15541484D02*
X14821008Y-15541484D01*
X14878151Y-15541484D02*
X14878151Y-15341484D01*
X14878151Y-15341484D02*
X14859104Y-15370055D01*
X14859104Y-15370055D02*
X14840056Y-15389103D01*
X14840056Y-15389103D02*
X14821008Y-15398627D01*
X15116247Y-15341484D02*
X15021008Y-15341484D01*
X15021008Y-15341484D02*
X15011485Y-15436722D01*
X15011485Y-15436722D02*
X15021008Y-15427198D01*
X15021008Y-15427198D02*
X15040056Y-15417674D01*
X15040056Y-15417674D02*
X15087675Y-15417674D01*
X15087675Y-15417674D02*
X15106723Y-15427198D01*
X15106723Y-15427198D02*
X15116247Y-15436722D01*
X15116247Y-15436722D02*
X15125770Y-15455769D01*
X15125770Y-15455769D02*
X15125770Y-15503388D01*
X15125770Y-15503388D02*
X15116247Y-15522436D01*
X15116247Y-15522436D02*
X15106723Y-15531960D01*
X15106723Y-15531960D02*
X15087675Y-15541484D01*
X15087675Y-15541484D02*
X15040056Y-15541484D01*
X15040056Y-15541484D02*
X15021008Y-15531960D01*
X15021008Y-15531960D02*
X15011485Y-15522436D01*
X15201961Y-15341484D02*
X15201961Y-15379579D01*
X15278151Y-15341484D02*
X15278151Y-15379579D01*
X15573390Y-15617674D02*
X15563866Y-15608150D01*
X15563866Y-15608150D02*
X15544818Y-15579579D01*
X15544818Y-15579579D02*
X15535294Y-15560531D01*
X15535294Y-15560531D02*
X15525770Y-15531960D01*
X15525770Y-15531960D02*
X15516247Y-15484341D01*
X15516247Y-15484341D02*
X15516247Y-15446246D01*
X15516247Y-15446246D02*
X15525770Y-15398627D01*
X15525770Y-15398627D02*
X15535294Y-15370055D01*
X15535294Y-15370055D02*
X15544818Y-15351008D01*
X15544818Y-15351008D02*
X15563866Y-15322436D01*
X15563866Y-15322436D02*
X15573390Y-15312912D01*
X15640056Y-15360531D02*
X15649580Y-15351008D01*
X15649580Y-15351008D02*
X15668628Y-15341484D01*
X15668628Y-15341484D02*
X15716247Y-15341484D01*
X15716247Y-15341484D02*
X15735294Y-15351008D01*
X15735294Y-15351008D02*
X15744818Y-15360531D01*
X15744818Y-15360531D02*
X15754342Y-15379579D01*
X15754342Y-15379579D02*
X15754342Y-15398627D01*
X15754342Y-15398627D02*
X15744818Y-15427198D01*
X15744818Y-15427198D02*
X15630532Y-15541484D01*
X15630532Y-15541484D02*
X15754342Y-15541484D01*
X15992437Y-15541484D02*
X15992437Y-15341484D01*
X16078151Y-15541484D02*
X16078151Y-15436722D01*
X16078151Y-15436722D02*
X16068628Y-15417674D01*
X16068628Y-15417674D02*
X16049580Y-15408150D01*
X16049580Y-15408150D02*
X16021009Y-15408150D01*
X16021009Y-15408150D02*
X16001961Y-15417674D01*
X16001961Y-15417674D02*
X15992437Y-15427198D01*
X16201961Y-15541484D02*
X16182913Y-15531960D01*
X16182913Y-15531960D02*
X16173390Y-15522436D01*
X16173390Y-15522436D02*
X16163866Y-15503388D01*
X16163866Y-15503388D02*
X16163866Y-15446246D01*
X16163866Y-15446246D02*
X16173390Y-15427198D01*
X16173390Y-15427198D02*
X16182913Y-15417674D01*
X16182913Y-15417674D02*
X16201961Y-15408150D01*
X16201961Y-15408150D02*
X16230532Y-15408150D01*
X16230532Y-15408150D02*
X16249580Y-15417674D01*
X16249580Y-15417674D02*
X16259104Y-15427198D01*
X16259104Y-15427198D02*
X16268628Y-15446246D01*
X16268628Y-15446246D02*
X16268628Y-15503388D01*
X16268628Y-15503388D02*
X16259104Y-15522436D01*
X16259104Y-15522436D02*
X16249580Y-15531960D01*
X16249580Y-15531960D02*
X16230532Y-15541484D01*
X16230532Y-15541484D02*
X16201961Y-15541484D01*
X16382913Y-15541484D02*
X16363866Y-15531960D01*
X16363866Y-15531960D02*
X16354342Y-15512912D01*
X16354342Y-15512912D02*
X16354342Y-15341484D01*
X16535294Y-15531960D02*
X16516247Y-15541484D01*
X16516247Y-15541484D02*
X16478151Y-15541484D01*
X16478151Y-15541484D02*
X16459104Y-15531960D01*
X16459104Y-15531960D02*
X16449580Y-15512912D01*
X16449580Y-15512912D02*
X16449580Y-15436722D01*
X16449580Y-15436722D02*
X16459104Y-15417674D01*
X16459104Y-15417674D02*
X16478151Y-15408150D01*
X16478151Y-15408150D02*
X16516247Y-15408150D01*
X16516247Y-15408150D02*
X16535294Y-15417674D01*
X16535294Y-15417674D02*
X16544818Y-15436722D01*
X16544818Y-15436722D02*
X16544818Y-15455769D01*
X16544818Y-15455769D02*
X16449580Y-15474817D01*
X16621009Y-15531960D02*
X16640056Y-15541484D01*
X16640056Y-15541484D02*
X16678151Y-15541484D01*
X16678151Y-15541484D02*
X16697199Y-15531960D01*
X16697199Y-15531960D02*
X16706723Y-15512912D01*
X16706723Y-15512912D02*
X16706723Y-15503388D01*
X16706723Y-15503388D02*
X16697199Y-15484341D01*
X16697199Y-15484341D02*
X16678151Y-15474817D01*
X16678151Y-15474817D02*
X16649580Y-15474817D01*
X16649580Y-15474817D02*
X16630532Y-15465293D01*
X16630532Y-15465293D02*
X16621009Y-15446246D01*
X16621009Y-15446246D02*
X16621009Y-15436722D01*
X16621009Y-15436722D02*
X16630532Y-15417674D01*
X16630532Y-15417674D02*
X16649580Y-15408150D01*
X16649580Y-15408150D02*
X16678151Y-15408150D01*
X16678151Y-15408150D02*
X16697199Y-15417674D01*
X16773390Y-15617674D02*
X16782914Y-15608150D01*
X16782914Y-15608150D02*
X16801961Y-15579579D01*
X16801961Y-15579579D02*
X16811485Y-15560531D01*
X16811485Y-15560531D02*
X16821009Y-15531960D01*
X16821009Y-15531960D02*
X16830533Y-15484341D01*
X16830533Y-15484341D02*
X16830533Y-15446246D01*
X16830533Y-15446246D02*
X16821009Y-15398627D01*
X16821009Y-15398627D02*
X16811485Y-15370055D01*
X16811485Y-15370055D02*
X16801961Y-15351008D01*
X16801961Y-15351008D02*
X16782914Y-15322436D01*
X16782914Y-15322436D02*
X16773390Y-15312912D01*
D10*
X11983682Y-15749356D02*
X11983682Y-15678644D01*
X11912971Y-15678644D01*
X11912971Y-15749356D01*
X11983682Y-15749356D01*
D11*
X12363865Y-15805484D02*
X12249580Y-15805484D01*
X12306722Y-15805484D02*
X12306722Y-15605484D01*
X12306722Y-15605484D02*
X12287675Y-15634055D01*
X12287675Y-15634055D02*
X12268627Y-15653103D01*
X12268627Y-15653103D02*
X12249580Y-15662627D01*
X12449580Y-15786436D02*
X12459103Y-15795960D01*
X12459103Y-15795960D02*
X12449580Y-15805484D01*
X12449580Y-15805484D02*
X12440056Y-15795960D01*
X12440056Y-15795960D02*
X12449580Y-15786436D01*
X12449580Y-15786436D02*
X12449580Y-15805484D01*
X12582913Y-15605484D02*
X12601961Y-15605484D01*
X12601961Y-15605484D02*
X12621008Y-15615008D01*
X12621008Y-15615008D02*
X12630532Y-15624531D01*
X12630532Y-15624531D02*
X12640056Y-15643579D01*
X12640056Y-15643579D02*
X12649580Y-15681674D01*
X12649580Y-15681674D02*
X12649580Y-15729293D01*
X12649580Y-15729293D02*
X12640056Y-15767388D01*
X12640056Y-15767388D02*
X12630532Y-15786436D01*
X12630532Y-15786436D02*
X12621008Y-15795960D01*
X12621008Y-15795960D02*
X12601961Y-15805484D01*
X12601961Y-15805484D02*
X12582913Y-15805484D01*
X12582913Y-15805484D02*
X12563865Y-15795960D01*
X12563865Y-15795960D02*
X12554342Y-15786436D01*
X12554342Y-15786436D02*
X12544818Y-15767388D01*
X12544818Y-15767388D02*
X12535294Y-15729293D01*
X12535294Y-15729293D02*
X12535294Y-15681674D01*
X12535294Y-15681674D02*
X12544818Y-15643579D01*
X12544818Y-15643579D02*
X12554342Y-15624531D01*
X12554342Y-15624531D02*
X12563865Y-15615008D01*
X12563865Y-15615008D02*
X12582913Y-15605484D01*
X12773389Y-15605484D02*
X12792437Y-15605484D01*
X12792437Y-15605484D02*
X12811484Y-15615008D01*
X12811484Y-15615008D02*
X12821008Y-15624531D01*
X12821008Y-15624531D02*
X12830532Y-15643579D01*
X12830532Y-15643579D02*
X12840056Y-15681674D01*
X12840056Y-15681674D02*
X12840056Y-15729293D01*
X12840056Y-15729293D02*
X12830532Y-15767388D01*
X12830532Y-15767388D02*
X12821008Y-15786436D01*
X12821008Y-15786436D02*
X12811484Y-15795960D01*
X12811484Y-15795960D02*
X12792437Y-15805484D01*
X12792437Y-15805484D02*
X12773389Y-15805484D01*
X12773389Y-15805484D02*
X12754342Y-15795960D01*
X12754342Y-15795960D02*
X12744818Y-15786436D01*
X12744818Y-15786436D02*
X12735294Y-15767388D01*
X12735294Y-15767388D02*
X12725770Y-15729293D01*
X12725770Y-15729293D02*
X12725770Y-15681674D01*
X12725770Y-15681674D02*
X12735294Y-15643579D01*
X12735294Y-15643579D02*
X12744818Y-15624531D01*
X12744818Y-15624531D02*
X12754342Y-15615008D01*
X12754342Y-15615008D02*
X12773389Y-15605484D01*
X12963865Y-15605484D02*
X12982913Y-15605484D01*
X12982913Y-15605484D02*
X13001961Y-15615008D01*
X13001961Y-15615008D02*
X13011484Y-15624531D01*
X13011484Y-15624531D02*
X13021008Y-15643579D01*
X13021008Y-15643579D02*
X13030532Y-15681674D01*
X13030532Y-15681674D02*
X13030532Y-15729293D01*
X13030532Y-15729293D02*
X13021008Y-15767388D01*
X13021008Y-15767388D02*
X13011484Y-15786436D01*
X13011484Y-15786436D02*
X13001961Y-15795960D01*
X13001961Y-15795960D02*
X12982913Y-15805484D01*
X12982913Y-15805484D02*
X12963865Y-15805484D01*
X12963865Y-15805484D02*
X12944818Y-15795960D01*
X12944818Y-15795960D02*
X12935294Y-15786436D01*
X12935294Y-15786436D02*
X12925770Y-15767388D01*
X12925770Y-15767388D02*
X12916246Y-15729293D01*
X12916246Y-15729293D02*
X12916246Y-15681674D01*
X12916246Y-15681674D02*
X12925770Y-15643579D01*
X12925770Y-15643579D02*
X12935294Y-15624531D01*
X12935294Y-15624531D02*
X12944818Y-15615008D01*
X12944818Y-15615008D02*
X12963865Y-15605484D01*
X13116246Y-15805484D02*
X13116246Y-15672150D01*
X13116246Y-15691198D02*
X13125770Y-15681674D01*
X13125770Y-15681674D02*
X13144818Y-15672150D01*
X13144818Y-15672150D02*
X13173389Y-15672150D01*
X13173389Y-15672150D02*
X13192437Y-15681674D01*
X13192437Y-15681674D02*
X13201961Y-15700722D01*
X13201961Y-15700722D02*
X13201961Y-15805484D01*
X13201961Y-15700722D02*
X13211484Y-15681674D01*
X13211484Y-15681674D02*
X13230532Y-15672150D01*
X13230532Y-15672150D02*
X13259103Y-15672150D01*
X13259103Y-15672150D02*
X13278151Y-15681674D01*
X13278151Y-15681674D02*
X13287675Y-15700722D01*
X13287675Y-15700722D02*
X13287675Y-15805484D01*
X13382913Y-15805484D02*
X13382913Y-15672150D01*
X13382913Y-15691198D02*
X13392437Y-15681674D01*
X13392437Y-15681674D02*
X13411484Y-15672150D01*
X13411484Y-15672150D02*
X13440056Y-15672150D01*
X13440056Y-15672150D02*
X13459104Y-15681674D01*
X13459104Y-15681674D02*
X13468627Y-15700722D01*
X13468627Y-15700722D02*
X13468627Y-15805484D01*
X13468627Y-15700722D02*
X13478151Y-15681674D01*
X13478151Y-15681674D02*
X13497199Y-15672150D01*
X13497199Y-15672150D02*
X13525770Y-15672150D01*
X13525770Y-15672150D02*
X13544818Y-15681674D01*
X13544818Y-15681674D02*
X13554342Y-15700722D01*
X13554342Y-15700722D02*
X13554342Y-15805484D01*
X13944818Y-15595960D02*
X13773389Y-15853103D01*
X14201961Y-15605484D02*
X14221008Y-15605484D01*
X14221008Y-15605484D02*
X14240056Y-15615008D01*
X14240056Y-15615008D02*
X14249580Y-15624531D01*
X14249580Y-15624531D02*
X14259104Y-15643579D01*
X14259104Y-15643579D02*
X14268627Y-15681674D01*
X14268627Y-15681674D02*
X14268627Y-15729293D01*
X14268627Y-15729293D02*
X14259104Y-15767388D01*
X14259104Y-15767388D02*
X14249580Y-15786436D01*
X14249580Y-15786436D02*
X14240056Y-15795960D01*
X14240056Y-15795960D02*
X14221008Y-15805484D01*
X14221008Y-15805484D02*
X14201961Y-15805484D01*
X14201961Y-15805484D02*
X14182913Y-15795960D01*
X14182913Y-15795960D02*
X14173389Y-15786436D01*
X14173389Y-15786436D02*
X14163866Y-15767388D01*
X14163866Y-15767388D02*
X14154342Y-15729293D01*
X14154342Y-15729293D02*
X14154342Y-15681674D01*
X14154342Y-15681674D02*
X14163866Y-15643579D01*
X14163866Y-15643579D02*
X14173389Y-15624531D01*
X14173389Y-15624531D02*
X14182913Y-15615008D01*
X14182913Y-15615008D02*
X14201961Y-15605484D01*
X14354342Y-15786436D02*
X14363866Y-15795960D01*
X14363866Y-15795960D02*
X14354342Y-15805484D01*
X14354342Y-15805484D02*
X14344818Y-15795960D01*
X14344818Y-15795960D02*
X14354342Y-15786436D01*
X14354342Y-15786436D02*
X14354342Y-15805484D01*
X14487675Y-15605484D02*
X14506723Y-15605484D01*
X14506723Y-15605484D02*
X14525770Y-15615008D01*
X14525770Y-15615008D02*
X14535294Y-15624531D01*
X14535294Y-15624531D02*
X14544818Y-15643579D01*
X14544818Y-15643579D02*
X14554342Y-15681674D01*
X14554342Y-15681674D02*
X14554342Y-15729293D01*
X14554342Y-15729293D02*
X14544818Y-15767388D01*
X14544818Y-15767388D02*
X14535294Y-15786436D01*
X14535294Y-15786436D02*
X14525770Y-15795960D01*
X14525770Y-15795960D02*
X14506723Y-15805484D01*
X14506723Y-15805484D02*
X14487675Y-15805484D01*
X14487675Y-15805484D02*
X14468627Y-15795960D01*
X14468627Y-15795960D02*
X14459104Y-15786436D01*
X14459104Y-15786436D02*
X14449580Y-15767388D01*
X14449580Y-15767388D02*
X14440056Y-15729293D01*
X14440056Y-15729293D02*
X14440056Y-15681674D01*
X14440056Y-15681674D02*
X14449580Y-15643579D01*
X14449580Y-15643579D02*
X14459104Y-15624531D01*
X14459104Y-15624531D02*
X14468627Y-15615008D01*
X14468627Y-15615008D02*
X14487675Y-15605484D01*
X14621008Y-15605484D02*
X14744818Y-15605484D01*
X14744818Y-15605484D02*
X14678151Y-15681674D01*
X14678151Y-15681674D02*
X14706723Y-15681674D01*
X14706723Y-15681674D02*
X14725770Y-15691198D01*
X14725770Y-15691198D02*
X14735294Y-15700722D01*
X14735294Y-15700722D02*
X14744818Y-15719769D01*
X14744818Y-15719769D02*
X14744818Y-15767388D01*
X14744818Y-15767388D02*
X14735294Y-15786436D01*
X14735294Y-15786436D02*
X14725770Y-15795960D01*
X14725770Y-15795960D02*
X14706723Y-15805484D01*
X14706723Y-15805484D02*
X14649580Y-15805484D01*
X14649580Y-15805484D02*
X14630532Y-15795960D01*
X14630532Y-15795960D02*
X14621008Y-15786436D01*
X14840056Y-15805484D02*
X14878151Y-15805484D01*
X14878151Y-15805484D02*
X14897199Y-15795960D01*
X14897199Y-15795960D02*
X14906723Y-15786436D01*
X14906723Y-15786436D02*
X14925770Y-15757865D01*
X14925770Y-15757865D02*
X14935294Y-15719769D01*
X14935294Y-15719769D02*
X14935294Y-15643579D01*
X14935294Y-15643579D02*
X14925770Y-15624531D01*
X14925770Y-15624531D02*
X14916247Y-15615008D01*
X14916247Y-15615008D02*
X14897199Y-15605484D01*
X14897199Y-15605484D02*
X14859104Y-15605484D01*
X14859104Y-15605484D02*
X14840056Y-15615008D01*
X14840056Y-15615008D02*
X14830532Y-15624531D01*
X14830532Y-15624531D02*
X14821008Y-15643579D01*
X14821008Y-15643579D02*
X14821008Y-15691198D01*
X14821008Y-15691198D02*
X14830532Y-15710246D01*
X14830532Y-15710246D02*
X14840056Y-15719769D01*
X14840056Y-15719769D02*
X14859104Y-15729293D01*
X14859104Y-15729293D02*
X14897199Y-15729293D01*
X14897199Y-15729293D02*
X14916247Y-15719769D01*
X14916247Y-15719769D02*
X14925770Y-15710246D01*
X14925770Y-15710246D02*
X14935294Y-15691198D01*
X15106723Y-15672150D02*
X15106723Y-15805484D01*
X15059104Y-15595960D02*
X15011485Y-15738817D01*
X15011485Y-15738817D02*
X15135294Y-15738817D01*
X15201961Y-15605484D02*
X15201961Y-15643579D01*
X15278151Y-15605484D02*
X15278151Y-15643579D01*
X15573390Y-15881674D02*
X15563866Y-15872150D01*
X15563866Y-15872150D02*
X15544818Y-15843579D01*
X15544818Y-15843579D02*
X15535294Y-15824531D01*
X15535294Y-15824531D02*
X15525770Y-15795960D01*
X15525770Y-15795960D02*
X15516247Y-15748341D01*
X15516247Y-15748341D02*
X15516247Y-15710246D01*
X15516247Y-15710246D02*
X15525770Y-15662627D01*
X15525770Y-15662627D02*
X15535294Y-15634055D01*
X15535294Y-15634055D02*
X15544818Y-15615008D01*
X15544818Y-15615008D02*
X15563866Y-15586436D01*
X15563866Y-15586436D02*
X15573390Y-15576912D01*
X15735294Y-15672150D02*
X15735294Y-15805484D01*
X15687675Y-15595960D02*
X15640056Y-15738817D01*
X15640056Y-15738817D02*
X15763866Y-15738817D01*
X15992437Y-15805484D02*
X15992437Y-15605484D01*
X16078151Y-15805484D02*
X16078151Y-15700722D01*
X16078151Y-15700722D02*
X16068628Y-15681674D01*
X16068628Y-15681674D02*
X16049580Y-15672150D01*
X16049580Y-15672150D02*
X16021009Y-15672150D01*
X16021009Y-15672150D02*
X16001961Y-15681674D01*
X16001961Y-15681674D02*
X15992437Y-15691198D01*
X16201961Y-15805484D02*
X16182913Y-15795960D01*
X16182913Y-15795960D02*
X16173390Y-15786436D01*
X16173390Y-15786436D02*
X16163866Y-15767388D01*
X16163866Y-15767388D02*
X16163866Y-15710246D01*
X16163866Y-15710246D02*
X16173390Y-15691198D01*
X16173390Y-15691198D02*
X16182913Y-15681674D01*
X16182913Y-15681674D02*
X16201961Y-15672150D01*
X16201961Y-15672150D02*
X16230532Y-15672150D01*
X16230532Y-15672150D02*
X16249580Y-15681674D01*
X16249580Y-15681674D02*
X16259104Y-15691198D01*
X16259104Y-15691198D02*
X16268628Y-15710246D01*
X16268628Y-15710246D02*
X16268628Y-15767388D01*
X16268628Y-15767388D02*
X16259104Y-15786436D01*
X16259104Y-15786436D02*
X16249580Y-15795960D01*
X16249580Y-15795960D02*
X16230532Y-15805484D01*
X16230532Y-15805484D02*
X16201961Y-15805484D01*
X16382913Y-15805484D02*
X16363866Y-15795960D01*
X16363866Y-15795960D02*
X16354342Y-15776912D01*
X16354342Y-15776912D02*
X16354342Y-15605484D01*
X16535294Y-15795960D02*
X16516247Y-15805484D01*
X16516247Y-15805484D02*
X16478151Y-15805484D01*
X16478151Y-15805484D02*
X16459104Y-15795960D01*
X16459104Y-15795960D02*
X16449580Y-15776912D01*
X16449580Y-15776912D02*
X16449580Y-15700722D01*
X16449580Y-15700722D02*
X16459104Y-15681674D01*
X16459104Y-15681674D02*
X16478151Y-15672150D01*
X16478151Y-15672150D02*
X16516247Y-15672150D01*
X16516247Y-15672150D02*
X16535294Y-15681674D01*
X16535294Y-15681674D02*
X16544818Y-15700722D01*
X16544818Y-15700722D02*
X16544818Y-15719769D01*
X16544818Y-15719769D02*
X16449580Y-15738817D01*
X16621009Y-15795960D02*
X16640056Y-15805484D01*
X16640056Y-15805484D02*
X16678151Y-15805484D01*
X16678151Y-15805484D02*
X16697199Y-15795960D01*
X16697199Y-15795960D02*
X16706723Y-15776912D01*
X16706723Y-15776912D02*
X16706723Y-15767388D01*
X16706723Y-15767388D02*
X16697199Y-15748341D01*
X16697199Y-15748341D02*
X16678151Y-15738817D01*
X16678151Y-15738817D02*
X16649580Y-15738817D01*
X16649580Y-15738817D02*
X16630532Y-15729293D01*
X16630532Y-15729293D02*
X16621009Y-15710246D01*
X16621009Y-15710246D02*
X16621009Y-15700722D01*
X16621009Y-15700722D02*
X16630532Y-15681674D01*
X16630532Y-15681674D02*
X16649580Y-15672150D01*
X16649580Y-15672150D02*
X16678151Y-15672150D01*
X16678151Y-15672150D02*
X16697199Y-15681674D01*
X16773390Y-15881674D02*
X16782914Y-15872150D01*
X16782914Y-15872150D02*
X16801961Y-15843579D01*
X16801961Y-15843579D02*
X16811485Y-15824531D01*
X16811485Y-15824531D02*
X16821009Y-15795960D01*
X16821009Y-15795960D02*
X16830533Y-15748341D01*
X16830533Y-15748341D02*
X16830533Y-15710246D01*
X16830533Y-15710246D02*
X16821009Y-15662627D01*
X16821009Y-15662627D02*
X16811485Y-15634055D01*
X16811485Y-15634055D02*
X16801961Y-15615008D01*
X16801961Y-15615008D02*
X16782914Y-15586436D01*
X16782914Y-15586436D02*
X16773390Y-15576912D01*
D10*
X11948327Y-16028000D02*
X11998327Y-15978000D01*
X11948327Y-15928000D01*
X11898327Y-15978000D01*
X11948327Y-16028000D01*
D11*
X12363865Y-16069484D02*
X12249580Y-16069484D01*
X12306722Y-16069484D02*
X12306722Y-15869484D01*
X12306722Y-15869484D02*
X12287675Y-15898055D01*
X12287675Y-15898055D02*
X12268627Y-15917103D01*
X12268627Y-15917103D02*
X12249580Y-15926627D01*
X12449580Y-16050436D02*
X12459103Y-16059960D01*
X12459103Y-16059960D02*
X12449580Y-16069484D01*
X12449580Y-16069484D02*
X12440056Y-16059960D01*
X12440056Y-16059960D02*
X12449580Y-16050436D01*
X12449580Y-16050436D02*
X12449580Y-16069484D01*
X12582913Y-15869484D02*
X12601961Y-15869484D01*
X12601961Y-15869484D02*
X12621008Y-15879008D01*
X12621008Y-15879008D02*
X12630532Y-15888531D01*
X12630532Y-15888531D02*
X12640056Y-15907579D01*
X12640056Y-15907579D02*
X12649580Y-15945674D01*
X12649580Y-15945674D02*
X12649580Y-15993293D01*
X12649580Y-15993293D02*
X12640056Y-16031388D01*
X12640056Y-16031388D02*
X12630532Y-16050436D01*
X12630532Y-16050436D02*
X12621008Y-16059960D01*
X12621008Y-16059960D02*
X12601961Y-16069484D01*
X12601961Y-16069484D02*
X12582913Y-16069484D01*
X12582913Y-16069484D02*
X12563865Y-16059960D01*
X12563865Y-16059960D02*
X12554342Y-16050436D01*
X12554342Y-16050436D02*
X12544818Y-16031388D01*
X12544818Y-16031388D02*
X12535294Y-15993293D01*
X12535294Y-15993293D02*
X12535294Y-15945674D01*
X12535294Y-15945674D02*
X12544818Y-15907579D01*
X12544818Y-15907579D02*
X12554342Y-15888531D01*
X12554342Y-15888531D02*
X12563865Y-15879008D01*
X12563865Y-15879008D02*
X12582913Y-15869484D01*
X12773389Y-15869484D02*
X12792437Y-15869484D01*
X12792437Y-15869484D02*
X12811484Y-15879008D01*
X12811484Y-15879008D02*
X12821008Y-15888531D01*
X12821008Y-15888531D02*
X12830532Y-15907579D01*
X12830532Y-15907579D02*
X12840056Y-15945674D01*
X12840056Y-15945674D02*
X12840056Y-15993293D01*
X12840056Y-15993293D02*
X12830532Y-16031388D01*
X12830532Y-16031388D02*
X12821008Y-16050436D01*
X12821008Y-16050436D02*
X12811484Y-16059960D01*
X12811484Y-16059960D02*
X12792437Y-16069484D01*
X12792437Y-16069484D02*
X12773389Y-16069484D01*
X12773389Y-16069484D02*
X12754342Y-16059960D01*
X12754342Y-16059960D02*
X12744818Y-16050436D01*
X12744818Y-16050436D02*
X12735294Y-16031388D01*
X12735294Y-16031388D02*
X12725770Y-15993293D01*
X12725770Y-15993293D02*
X12725770Y-15945674D01*
X12725770Y-15945674D02*
X12735294Y-15907579D01*
X12735294Y-15907579D02*
X12744818Y-15888531D01*
X12744818Y-15888531D02*
X12754342Y-15879008D01*
X12754342Y-15879008D02*
X12773389Y-15869484D01*
X12963865Y-15869484D02*
X12982913Y-15869484D01*
X12982913Y-15869484D02*
X13001961Y-15879008D01*
X13001961Y-15879008D02*
X13011484Y-15888531D01*
X13011484Y-15888531D02*
X13021008Y-15907579D01*
X13021008Y-15907579D02*
X13030532Y-15945674D01*
X13030532Y-15945674D02*
X13030532Y-15993293D01*
X13030532Y-15993293D02*
X13021008Y-16031388D01*
X13021008Y-16031388D02*
X13011484Y-16050436D01*
X13011484Y-16050436D02*
X13001961Y-16059960D01*
X13001961Y-16059960D02*
X12982913Y-16069484D01*
X12982913Y-16069484D02*
X12963865Y-16069484D01*
X12963865Y-16069484D02*
X12944818Y-16059960D01*
X12944818Y-16059960D02*
X12935294Y-16050436D01*
X12935294Y-16050436D02*
X12925770Y-16031388D01*
X12925770Y-16031388D02*
X12916246Y-15993293D01*
X12916246Y-15993293D02*
X12916246Y-15945674D01*
X12916246Y-15945674D02*
X12925770Y-15907579D01*
X12925770Y-15907579D02*
X12935294Y-15888531D01*
X12935294Y-15888531D02*
X12944818Y-15879008D01*
X12944818Y-15879008D02*
X12963865Y-15869484D01*
X13116246Y-16069484D02*
X13116246Y-15936150D01*
X13116246Y-15955198D02*
X13125770Y-15945674D01*
X13125770Y-15945674D02*
X13144818Y-15936150D01*
X13144818Y-15936150D02*
X13173389Y-15936150D01*
X13173389Y-15936150D02*
X13192437Y-15945674D01*
X13192437Y-15945674D02*
X13201961Y-15964722D01*
X13201961Y-15964722D02*
X13201961Y-16069484D01*
X13201961Y-15964722D02*
X13211484Y-15945674D01*
X13211484Y-15945674D02*
X13230532Y-15936150D01*
X13230532Y-15936150D02*
X13259103Y-15936150D01*
X13259103Y-15936150D02*
X13278151Y-15945674D01*
X13278151Y-15945674D02*
X13287675Y-15964722D01*
X13287675Y-15964722D02*
X13287675Y-16069484D01*
X13382913Y-16069484D02*
X13382913Y-15936150D01*
X13382913Y-15955198D02*
X13392437Y-15945674D01*
X13392437Y-15945674D02*
X13411484Y-15936150D01*
X13411484Y-15936150D02*
X13440056Y-15936150D01*
X13440056Y-15936150D02*
X13459104Y-15945674D01*
X13459104Y-15945674D02*
X13468627Y-15964722D01*
X13468627Y-15964722D02*
X13468627Y-16069484D01*
X13468627Y-15964722D02*
X13478151Y-15945674D01*
X13478151Y-15945674D02*
X13497199Y-15936150D01*
X13497199Y-15936150D02*
X13525770Y-15936150D01*
X13525770Y-15936150D02*
X13544818Y-15945674D01*
X13544818Y-15945674D02*
X13554342Y-15964722D01*
X13554342Y-15964722D02*
X13554342Y-16069484D01*
X13944818Y-15859960D02*
X13773389Y-16117103D01*
X14201961Y-15869484D02*
X14221008Y-15869484D01*
X14221008Y-15869484D02*
X14240056Y-15879008D01*
X14240056Y-15879008D02*
X14249580Y-15888531D01*
X14249580Y-15888531D02*
X14259104Y-15907579D01*
X14259104Y-15907579D02*
X14268627Y-15945674D01*
X14268627Y-15945674D02*
X14268627Y-15993293D01*
X14268627Y-15993293D02*
X14259104Y-16031388D01*
X14259104Y-16031388D02*
X14249580Y-16050436D01*
X14249580Y-16050436D02*
X14240056Y-16059960D01*
X14240056Y-16059960D02*
X14221008Y-16069484D01*
X14221008Y-16069484D02*
X14201961Y-16069484D01*
X14201961Y-16069484D02*
X14182913Y-16059960D01*
X14182913Y-16059960D02*
X14173389Y-16050436D01*
X14173389Y-16050436D02*
X14163866Y-16031388D01*
X14163866Y-16031388D02*
X14154342Y-15993293D01*
X14154342Y-15993293D02*
X14154342Y-15945674D01*
X14154342Y-15945674D02*
X14163866Y-15907579D01*
X14163866Y-15907579D02*
X14173389Y-15888531D01*
X14173389Y-15888531D02*
X14182913Y-15879008D01*
X14182913Y-15879008D02*
X14201961Y-15869484D01*
X14354342Y-16050436D02*
X14363866Y-16059960D01*
X14363866Y-16059960D02*
X14354342Y-16069484D01*
X14354342Y-16069484D02*
X14344818Y-16059960D01*
X14344818Y-16059960D02*
X14354342Y-16050436D01*
X14354342Y-16050436D02*
X14354342Y-16069484D01*
X14487675Y-15869484D02*
X14506723Y-15869484D01*
X14506723Y-15869484D02*
X14525770Y-15879008D01*
X14525770Y-15879008D02*
X14535294Y-15888531D01*
X14535294Y-15888531D02*
X14544818Y-15907579D01*
X14544818Y-15907579D02*
X14554342Y-15945674D01*
X14554342Y-15945674D02*
X14554342Y-15993293D01*
X14554342Y-15993293D02*
X14544818Y-16031388D01*
X14544818Y-16031388D02*
X14535294Y-16050436D01*
X14535294Y-16050436D02*
X14525770Y-16059960D01*
X14525770Y-16059960D02*
X14506723Y-16069484D01*
X14506723Y-16069484D02*
X14487675Y-16069484D01*
X14487675Y-16069484D02*
X14468627Y-16059960D01*
X14468627Y-16059960D02*
X14459104Y-16050436D01*
X14459104Y-16050436D02*
X14449580Y-16031388D01*
X14449580Y-16031388D02*
X14440056Y-15993293D01*
X14440056Y-15993293D02*
X14440056Y-15945674D01*
X14440056Y-15945674D02*
X14449580Y-15907579D01*
X14449580Y-15907579D02*
X14459104Y-15888531D01*
X14459104Y-15888531D02*
X14468627Y-15879008D01*
X14468627Y-15879008D02*
X14487675Y-15869484D01*
X14621008Y-15869484D02*
X14744818Y-15869484D01*
X14744818Y-15869484D02*
X14678151Y-15945674D01*
X14678151Y-15945674D02*
X14706723Y-15945674D01*
X14706723Y-15945674D02*
X14725770Y-15955198D01*
X14725770Y-15955198D02*
X14735294Y-15964722D01*
X14735294Y-15964722D02*
X14744818Y-15983769D01*
X14744818Y-15983769D02*
X14744818Y-16031388D01*
X14744818Y-16031388D02*
X14735294Y-16050436D01*
X14735294Y-16050436D02*
X14725770Y-16059960D01*
X14725770Y-16059960D02*
X14706723Y-16069484D01*
X14706723Y-16069484D02*
X14649580Y-16069484D01*
X14649580Y-16069484D02*
X14630532Y-16059960D01*
X14630532Y-16059960D02*
X14621008Y-16050436D01*
X14840056Y-16069484D02*
X14878151Y-16069484D01*
X14878151Y-16069484D02*
X14897199Y-16059960D01*
X14897199Y-16059960D02*
X14906723Y-16050436D01*
X14906723Y-16050436D02*
X14925770Y-16021865D01*
X14925770Y-16021865D02*
X14935294Y-15983769D01*
X14935294Y-15983769D02*
X14935294Y-15907579D01*
X14935294Y-15907579D02*
X14925770Y-15888531D01*
X14925770Y-15888531D02*
X14916247Y-15879008D01*
X14916247Y-15879008D02*
X14897199Y-15869484D01*
X14897199Y-15869484D02*
X14859104Y-15869484D01*
X14859104Y-15869484D02*
X14840056Y-15879008D01*
X14840056Y-15879008D02*
X14830532Y-15888531D01*
X14830532Y-15888531D02*
X14821008Y-15907579D01*
X14821008Y-15907579D02*
X14821008Y-15955198D01*
X14821008Y-15955198D02*
X14830532Y-15974246D01*
X14830532Y-15974246D02*
X14840056Y-15983769D01*
X14840056Y-15983769D02*
X14859104Y-15993293D01*
X14859104Y-15993293D02*
X14897199Y-15993293D01*
X14897199Y-15993293D02*
X14916247Y-15983769D01*
X14916247Y-15983769D02*
X14925770Y-15974246D01*
X14925770Y-15974246D02*
X14935294Y-15955198D01*
X15106723Y-15936150D02*
X15106723Y-16069484D01*
X15059104Y-15859960D02*
X15011485Y-16002817D01*
X15011485Y-16002817D02*
X15135294Y-16002817D01*
X15201961Y-15869484D02*
X15201961Y-15907579D01*
X15278151Y-15869484D02*
X15278151Y-15907579D01*
X15573390Y-16145674D02*
X15563866Y-16136150D01*
X15563866Y-16136150D02*
X15544818Y-16107579D01*
X15544818Y-16107579D02*
X15535294Y-16088531D01*
X15535294Y-16088531D02*
X15525770Y-16059960D01*
X15525770Y-16059960D02*
X15516247Y-16012341D01*
X15516247Y-16012341D02*
X15516247Y-15974246D01*
X15516247Y-15974246D02*
X15525770Y-15926627D01*
X15525770Y-15926627D02*
X15535294Y-15898055D01*
X15535294Y-15898055D02*
X15544818Y-15879008D01*
X15544818Y-15879008D02*
X15563866Y-15850436D01*
X15563866Y-15850436D02*
X15573390Y-15840912D01*
X15735294Y-15869484D02*
X15697199Y-15869484D01*
X15697199Y-15869484D02*
X15678151Y-15879008D01*
X15678151Y-15879008D02*
X15668628Y-15888531D01*
X15668628Y-15888531D02*
X15649580Y-15917103D01*
X15649580Y-15917103D02*
X15640056Y-15955198D01*
X15640056Y-15955198D02*
X15640056Y-16031388D01*
X15640056Y-16031388D02*
X15649580Y-16050436D01*
X15649580Y-16050436D02*
X15659104Y-16059960D01*
X15659104Y-16059960D02*
X15678151Y-16069484D01*
X15678151Y-16069484D02*
X15716247Y-16069484D01*
X15716247Y-16069484D02*
X15735294Y-16059960D01*
X15735294Y-16059960D02*
X15744818Y-16050436D01*
X15744818Y-16050436D02*
X15754342Y-16031388D01*
X15754342Y-16031388D02*
X15754342Y-15983769D01*
X15754342Y-15983769D02*
X15744818Y-15964722D01*
X15744818Y-15964722D02*
X15735294Y-15955198D01*
X15735294Y-15955198D02*
X15716247Y-15945674D01*
X15716247Y-15945674D02*
X15678151Y-15945674D01*
X15678151Y-15945674D02*
X15659104Y-15955198D01*
X15659104Y-15955198D02*
X15649580Y-15964722D01*
X15649580Y-15964722D02*
X15640056Y-15983769D01*
X15868628Y-15955198D02*
X15849580Y-15945674D01*
X15849580Y-15945674D02*
X15840056Y-15936150D01*
X15840056Y-15936150D02*
X15830532Y-15917103D01*
X15830532Y-15917103D02*
X15830532Y-15907579D01*
X15830532Y-15907579D02*
X15840056Y-15888531D01*
X15840056Y-15888531D02*
X15849580Y-15879008D01*
X15849580Y-15879008D02*
X15868628Y-15869484D01*
X15868628Y-15869484D02*
X15906723Y-15869484D01*
X15906723Y-15869484D02*
X15925770Y-15879008D01*
X15925770Y-15879008D02*
X15935294Y-15888531D01*
X15935294Y-15888531D02*
X15944818Y-15907579D01*
X15944818Y-15907579D02*
X15944818Y-15917103D01*
X15944818Y-15917103D02*
X15935294Y-15936150D01*
X15935294Y-15936150D02*
X15925770Y-15945674D01*
X15925770Y-15945674D02*
X15906723Y-15955198D01*
X15906723Y-15955198D02*
X15868628Y-15955198D01*
X15868628Y-15955198D02*
X15849580Y-15964722D01*
X15849580Y-15964722D02*
X15840056Y-15974246D01*
X15840056Y-15974246D02*
X15830532Y-15993293D01*
X15830532Y-15993293D02*
X15830532Y-16031388D01*
X15830532Y-16031388D02*
X15840056Y-16050436D01*
X15840056Y-16050436D02*
X15849580Y-16059960D01*
X15849580Y-16059960D02*
X15868628Y-16069484D01*
X15868628Y-16069484D02*
X15906723Y-16069484D01*
X15906723Y-16069484D02*
X15925770Y-16059960D01*
X15925770Y-16059960D02*
X15935294Y-16050436D01*
X15935294Y-16050436D02*
X15944818Y-16031388D01*
X15944818Y-16031388D02*
X15944818Y-15993293D01*
X15944818Y-15993293D02*
X15935294Y-15974246D01*
X15935294Y-15974246D02*
X15925770Y-15964722D01*
X15925770Y-15964722D02*
X15906723Y-15955198D01*
X16182913Y-16069484D02*
X16182913Y-15869484D01*
X16268628Y-16069484D02*
X16268628Y-15964722D01*
X16268628Y-15964722D02*
X16259104Y-15945674D01*
X16259104Y-15945674D02*
X16240056Y-15936150D01*
X16240056Y-15936150D02*
X16211485Y-15936150D01*
X16211485Y-15936150D02*
X16192437Y-15945674D01*
X16192437Y-15945674D02*
X16182913Y-15955198D01*
X16392437Y-16069484D02*
X16373390Y-16059960D01*
X16373390Y-16059960D02*
X16363866Y-16050436D01*
X16363866Y-16050436D02*
X16354342Y-16031388D01*
X16354342Y-16031388D02*
X16354342Y-15974246D01*
X16354342Y-15974246D02*
X16363866Y-15955198D01*
X16363866Y-15955198D02*
X16373390Y-15945674D01*
X16373390Y-15945674D02*
X16392437Y-15936150D01*
X16392437Y-15936150D02*
X16421009Y-15936150D01*
X16421009Y-15936150D02*
X16440056Y-15945674D01*
X16440056Y-15945674D02*
X16449580Y-15955198D01*
X16449580Y-15955198D02*
X16459104Y-15974246D01*
X16459104Y-15974246D02*
X16459104Y-16031388D01*
X16459104Y-16031388D02*
X16449580Y-16050436D01*
X16449580Y-16050436D02*
X16440056Y-16059960D01*
X16440056Y-16059960D02*
X16421009Y-16069484D01*
X16421009Y-16069484D02*
X16392437Y-16069484D01*
X16573390Y-16069484D02*
X16554342Y-16059960D01*
X16554342Y-16059960D02*
X16544818Y-16040912D01*
X16544818Y-16040912D02*
X16544818Y-15869484D01*
X16725771Y-16059960D02*
X16706723Y-16069484D01*
X16706723Y-16069484D02*
X16668628Y-16069484D01*
X16668628Y-16069484D02*
X16649580Y-16059960D01*
X16649580Y-16059960D02*
X16640056Y-16040912D01*
X16640056Y-16040912D02*
X16640056Y-15964722D01*
X16640056Y-15964722D02*
X16649580Y-15945674D01*
X16649580Y-15945674D02*
X16668628Y-15936150D01*
X16668628Y-15936150D02*
X16706723Y-15936150D01*
X16706723Y-15936150D02*
X16725771Y-15945674D01*
X16725771Y-15945674D02*
X16735294Y-15964722D01*
X16735294Y-15964722D02*
X16735294Y-15983769D01*
X16735294Y-15983769D02*
X16640056Y-16002817D01*
X16811485Y-16059960D02*
X16830533Y-16069484D01*
X16830533Y-16069484D02*
X16868628Y-16069484D01*
X16868628Y-16069484D02*
X16887675Y-16059960D01*
X16887675Y-16059960D02*
X16897199Y-16040912D01*
X16897199Y-16040912D02*
X16897199Y-16031388D01*
X16897199Y-16031388D02*
X16887675Y-16012341D01*
X16887675Y-16012341D02*
X16868628Y-16002817D01*
X16868628Y-16002817D02*
X16840056Y-16002817D01*
X16840056Y-16002817D02*
X16821009Y-15993293D01*
X16821009Y-15993293D02*
X16811485Y-15974246D01*
X16811485Y-15974246D02*
X16811485Y-15964722D01*
X16811485Y-15964722D02*
X16821009Y-15945674D01*
X16821009Y-15945674D02*
X16840056Y-15936150D01*
X16840056Y-15936150D02*
X16868628Y-15936150D01*
X16868628Y-15936150D02*
X16887675Y-15945674D01*
X16963866Y-16145674D02*
X16973390Y-16136150D01*
X16973390Y-16136150D02*
X16992437Y-16107579D01*
X16992437Y-16107579D02*
X17001961Y-16088531D01*
X17001961Y-16088531D02*
X17011485Y-16059960D01*
X17011485Y-16059960D02*
X17021009Y-16012341D01*
X17021009Y-16012341D02*
X17021009Y-15974246D01*
X17021009Y-15974246D02*
X17011485Y-15926627D01*
X17011485Y-15926627D02*
X17001961Y-15898055D01*
X17001961Y-15898055D02*
X16992437Y-15879008D01*
X16992437Y-15879008D02*
X16973390Y-15850436D01*
X16973390Y-15850436D02*
X16963866Y-15840912D01*
D15*
X11828327Y-16157000D02*
X11998327Y-16327000D01*
X11998327Y-16157000D02*
X11828327Y-16327000D01*
X11998327Y-16242000D02*
G75*
G03*
X11998327Y-16242000I-85000J0D01*
G01*
D11*
X12363865Y-16333484D02*
X12249580Y-16333484D01*
X12306722Y-16333484D02*
X12306722Y-16133484D01*
X12306722Y-16133484D02*
X12287675Y-16162055D01*
X12287675Y-16162055D02*
X12268627Y-16181103D01*
X12268627Y-16181103D02*
X12249580Y-16190627D01*
X12449580Y-16314436D02*
X12459103Y-16323960D01*
X12459103Y-16323960D02*
X12449580Y-16333484D01*
X12449580Y-16333484D02*
X12440056Y-16323960D01*
X12440056Y-16323960D02*
X12449580Y-16314436D01*
X12449580Y-16314436D02*
X12449580Y-16333484D01*
X12525770Y-16133484D02*
X12659103Y-16133484D01*
X12659103Y-16133484D02*
X12573389Y-16333484D01*
X12773389Y-16133484D02*
X12792437Y-16133484D01*
X12792437Y-16133484D02*
X12811484Y-16143008D01*
X12811484Y-16143008D02*
X12821008Y-16152531D01*
X12821008Y-16152531D02*
X12830532Y-16171579D01*
X12830532Y-16171579D02*
X12840056Y-16209674D01*
X12840056Y-16209674D02*
X12840056Y-16257293D01*
X12840056Y-16257293D02*
X12830532Y-16295388D01*
X12830532Y-16295388D02*
X12821008Y-16314436D01*
X12821008Y-16314436D02*
X12811484Y-16323960D01*
X12811484Y-16323960D02*
X12792437Y-16333484D01*
X12792437Y-16333484D02*
X12773389Y-16333484D01*
X12773389Y-16333484D02*
X12754342Y-16323960D01*
X12754342Y-16323960D02*
X12744818Y-16314436D01*
X12744818Y-16314436D02*
X12735294Y-16295388D01*
X12735294Y-16295388D02*
X12725770Y-16257293D01*
X12725770Y-16257293D02*
X12725770Y-16209674D01*
X12725770Y-16209674D02*
X12735294Y-16171579D01*
X12735294Y-16171579D02*
X12744818Y-16152531D01*
X12744818Y-16152531D02*
X12754342Y-16143008D01*
X12754342Y-16143008D02*
X12773389Y-16133484D01*
X12963865Y-16133484D02*
X12982913Y-16133484D01*
X12982913Y-16133484D02*
X13001961Y-16143008D01*
X13001961Y-16143008D02*
X13011484Y-16152531D01*
X13011484Y-16152531D02*
X13021008Y-16171579D01*
X13021008Y-16171579D02*
X13030532Y-16209674D01*
X13030532Y-16209674D02*
X13030532Y-16257293D01*
X13030532Y-16257293D02*
X13021008Y-16295388D01*
X13021008Y-16295388D02*
X13011484Y-16314436D01*
X13011484Y-16314436D02*
X13001961Y-16323960D01*
X13001961Y-16323960D02*
X12982913Y-16333484D01*
X12982913Y-16333484D02*
X12963865Y-16333484D01*
X12963865Y-16333484D02*
X12944818Y-16323960D01*
X12944818Y-16323960D02*
X12935294Y-16314436D01*
X12935294Y-16314436D02*
X12925770Y-16295388D01*
X12925770Y-16295388D02*
X12916246Y-16257293D01*
X12916246Y-16257293D02*
X12916246Y-16209674D01*
X12916246Y-16209674D02*
X12925770Y-16171579D01*
X12925770Y-16171579D02*
X12935294Y-16152531D01*
X12935294Y-16152531D02*
X12944818Y-16143008D01*
X12944818Y-16143008D02*
X12963865Y-16133484D01*
X13116246Y-16333484D02*
X13116246Y-16200150D01*
X13116246Y-16219198D02*
X13125770Y-16209674D01*
X13125770Y-16209674D02*
X13144818Y-16200150D01*
X13144818Y-16200150D02*
X13173389Y-16200150D01*
X13173389Y-16200150D02*
X13192437Y-16209674D01*
X13192437Y-16209674D02*
X13201961Y-16228722D01*
X13201961Y-16228722D02*
X13201961Y-16333484D01*
X13201961Y-16228722D02*
X13211484Y-16209674D01*
X13211484Y-16209674D02*
X13230532Y-16200150D01*
X13230532Y-16200150D02*
X13259103Y-16200150D01*
X13259103Y-16200150D02*
X13278151Y-16209674D01*
X13278151Y-16209674D02*
X13287675Y-16228722D01*
X13287675Y-16228722D02*
X13287675Y-16333484D01*
X13382913Y-16333484D02*
X13382913Y-16200150D01*
X13382913Y-16219198D02*
X13392437Y-16209674D01*
X13392437Y-16209674D02*
X13411484Y-16200150D01*
X13411484Y-16200150D02*
X13440056Y-16200150D01*
X13440056Y-16200150D02*
X13459104Y-16209674D01*
X13459104Y-16209674D02*
X13468627Y-16228722D01*
X13468627Y-16228722D02*
X13468627Y-16333484D01*
X13468627Y-16228722D02*
X13478151Y-16209674D01*
X13478151Y-16209674D02*
X13497199Y-16200150D01*
X13497199Y-16200150D02*
X13525770Y-16200150D01*
X13525770Y-16200150D02*
X13544818Y-16209674D01*
X13544818Y-16209674D02*
X13554342Y-16228722D01*
X13554342Y-16228722D02*
X13554342Y-16333484D01*
X13944818Y-16123960D02*
X13773389Y-16381103D01*
X14201961Y-16133484D02*
X14221008Y-16133484D01*
X14221008Y-16133484D02*
X14240056Y-16143008D01*
X14240056Y-16143008D02*
X14249580Y-16152531D01*
X14249580Y-16152531D02*
X14259104Y-16171579D01*
X14259104Y-16171579D02*
X14268627Y-16209674D01*
X14268627Y-16209674D02*
X14268627Y-16257293D01*
X14268627Y-16257293D02*
X14259104Y-16295388D01*
X14259104Y-16295388D02*
X14249580Y-16314436D01*
X14249580Y-16314436D02*
X14240056Y-16323960D01*
X14240056Y-16323960D02*
X14221008Y-16333484D01*
X14221008Y-16333484D02*
X14201961Y-16333484D01*
X14201961Y-16333484D02*
X14182913Y-16323960D01*
X14182913Y-16323960D02*
X14173389Y-16314436D01*
X14173389Y-16314436D02*
X14163866Y-16295388D01*
X14163866Y-16295388D02*
X14154342Y-16257293D01*
X14154342Y-16257293D02*
X14154342Y-16209674D01*
X14154342Y-16209674D02*
X14163866Y-16171579D01*
X14163866Y-16171579D02*
X14173389Y-16152531D01*
X14173389Y-16152531D02*
X14182913Y-16143008D01*
X14182913Y-16143008D02*
X14201961Y-16133484D01*
X14354342Y-16314436D02*
X14363866Y-16323960D01*
X14363866Y-16323960D02*
X14354342Y-16333484D01*
X14354342Y-16333484D02*
X14344818Y-16323960D01*
X14344818Y-16323960D02*
X14354342Y-16314436D01*
X14354342Y-16314436D02*
X14354342Y-16333484D01*
X14487675Y-16133484D02*
X14506723Y-16133484D01*
X14506723Y-16133484D02*
X14525770Y-16143008D01*
X14525770Y-16143008D02*
X14535294Y-16152531D01*
X14535294Y-16152531D02*
X14544818Y-16171579D01*
X14544818Y-16171579D02*
X14554342Y-16209674D01*
X14554342Y-16209674D02*
X14554342Y-16257293D01*
X14554342Y-16257293D02*
X14544818Y-16295388D01*
X14544818Y-16295388D02*
X14535294Y-16314436D01*
X14535294Y-16314436D02*
X14525770Y-16323960D01*
X14525770Y-16323960D02*
X14506723Y-16333484D01*
X14506723Y-16333484D02*
X14487675Y-16333484D01*
X14487675Y-16333484D02*
X14468627Y-16323960D01*
X14468627Y-16323960D02*
X14459104Y-16314436D01*
X14459104Y-16314436D02*
X14449580Y-16295388D01*
X14449580Y-16295388D02*
X14440056Y-16257293D01*
X14440056Y-16257293D02*
X14440056Y-16209674D01*
X14440056Y-16209674D02*
X14449580Y-16171579D01*
X14449580Y-16171579D02*
X14459104Y-16152531D01*
X14459104Y-16152531D02*
X14468627Y-16143008D01*
X14468627Y-16143008D02*
X14487675Y-16133484D01*
X14725770Y-16133484D02*
X14687675Y-16133484D01*
X14687675Y-16133484D02*
X14668627Y-16143008D01*
X14668627Y-16143008D02*
X14659104Y-16152531D01*
X14659104Y-16152531D02*
X14640056Y-16181103D01*
X14640056Y-16181103D02*
X14630532Y-16219198D01*
X14630532Y-16219198D02*
X14630532Y-16295388D01*
X14630532Y-16295388D02*
X14640056Y-16314436D01*
X14640056Y-16314436D02*
X14649580Y-16323960D01*
X14649580Y-16323960D02*
X14668627Y-16333484D01*
X14668627Y-16333484D02*
X14706723Y-16333484D01*
X14706723Y-16333484D02*
X14725770Y-16323960D01*
X14725770Y-16323960D02*
X14735294Y-16314436D01*
X14735294Y-16314436D02*
X14744818Y-16295388D01*
X14744818Y-16295388D02*
X14744818Y-16247769D01*
X14744818Y-16247769D02*
X14735294Y-16228722D01*
X14735294Y-16228722D02*
X14725770Y-16219198D01*
X14725770Y-16219198D02*
X14706723Y-16209674D01*
X14706723Y-16209674D02*
X14668627Y-16209674D01*
X14668627Y-16209674D02*
X14649580Y-16219198D01*
X14649580Y-16219198D02*
X14640056Y-16228722D01*
X14640056Y-16228722D02*
X14630532Y-16247769D01*
X14916247Y-16133484D02*
X14878151Y-16133484D01*
X14878151Y-16133484D02*
X14859104Y-16143008D01*
X14859104Y-16143008D02*
X14849580Y-16152531D01*
X14849580Y-16152531D02*
X14830532Y-16181103D01*
X14830532Y-16181103D02*
X14821008Y-16219198D01*
X14821008Y-16219198D02*
X14821008Y-16295388D01*
X14821008Y-16295388D02*
X14830532Y-16314436D01*
X14830532Y-16314436D02*
X14840056Y-16323960D01*
X14840056Y-16323960D02*
X14859104Y-16333484D01*
X14859104Y-16333484D02*
X14897199Y-16333484D01*
X14897199Y-16333484D02*
X14916247Y-16323960D01*
X14916247Y-16323960D02*
X14925770Y-16314436D01*
X14925770Y-16314436D02*
X14935294Y-16295388D01*
X14935294Y-16295388D02*
X14935294Y-16247769D01*
X14935294Y-16247769D02*
X14925770Y-16228722D01*
X14925770Y-16228722D02*
X14916247Y-16219198D01*
X14916247Y-16219198D02*
X14897199Y-16209674D01*
X14897199Y-16209674D02*
X14859104Y-16209674D01*
X14859104Y-16209674D02*
X14840056Y-16219198D01*
X14840056Y-16219198D02*
X14830532Y-16228722D01*
X14830532Y-16228722D02*
X14821008Y-16247769D01*
X15030532Y-16333484D02*
X15068627Y-16333484D01*
X15068627Y-16333484D02*
X15087675Y-16323960D01*
X15087675Y-16323960D02*
X15097199Y-16314436D01*
X15097199Y-16314436D02*
X15116247Y-16285865D01*
X15116247Y-16285865D02*
X15125770Y-16247769D01*
X15125770Y-16247769D02*
X15125770Y-16171579D01*
X15125770Y-16171579D02*
X15116247Y-16152531D01*
X15116247Y-16152531D02*
X15106723Y-16143008D01*
X15106723Y-16143008D02*
X15087675Y-16133484D01*
X15087675Y-16133484D02*
X15049580Y-16133484D01*
X15049580Y-16133484D02*
X15030532Y-16143008D01*
X15030532Y-16143008D02*
X15021008Y-16152531D01*
X15021008Y-16152531D02*
X15011485Y-16171579D01*
X15011485Y-16171579D02*
X15011485Y-16219198D01*
X15011485Y-16219198D02*
X15021008Y-16238246D01*
X15021008Y-16238246D02*
X15030532Y-16247769D01*
X15030532Y-16247769D02*
X15049580Y-16257293D01*
X15049580Y-16257293D02*
X15087675Y-16257293D01*
X15087675Y-16257293D02*
X15106723Y-16247769D01*
X15106723Y-16247769D02*
X15116247Y-16238246D01*
X15116247Y-16238246D02*
X15125770Y-16219198D01*
X15201961Y-16133484D02*
X15201961Y-16171579D01*
X15278151Y-16133484D02*
X15278151Y-16171579D01*
X15573390Y-16409674D02*
X15563866Y-16400150D01*
X15563866Y-16400150D02*
X15544818Y-16371579D01*
X15544818Y-16371579D02*
X15535294Y-16352531D01*
X15535294Y-16352531D02*
X15525770Y-16323960D01*
X15525770Y-16323960D02*
X15516247Y-16276341D01*
X15516247Y-16276341D02*
X15516247Y-16238246D01*
X15516247Y-16238246D02*
X15525770Y-16190627D01*
X15525770Y-16190627D02*
X15535294Y-16162055D01*
X15535294Y-16162055D02*
X15544818Y-16143008D01*
X15544818Y-16143008D02*
X15563866Y-16114436D01*
X15563866Y-16114436D02*
X15573390Y-16104912D01*
X15640056Y-16152531D02*
X15649580Y-16143008D01*
X15649580Y-16143008D02*
X15668628Y-16133484D01*
X15668628Y-16133484D02*
X15716247Y-16133484D01*
X15716247Y-16133484D02*
X15735294Y-16143008D01*
X15735294Y-16143008D02*
X15744818Y-16152531D01*
X15744818Y-16152531D02*
X15754342Y-16171579D01*
X15754342Y-16171579D02*
X15754342Y-16190627D01*
X15754342Y-16190627D02*
X15744818Y-16219198D01*
X15744818Y-16219198D02*
X15630532Y-16333484D01*
X15630532Y-16333484D02*
X15754342Y-16333484D01*
X15992437Y-16333484D02*
X15992437Y-16133484D01*
X16078151Y-16333484D02*
X16078151Y-16228722D01*
X16078151Y-16228722D02*
X16068628Y-16209674D01*
X16068628Y-16209674D02*
X16049580Y-16200150D01*
X16049580Y-16200150D02*
X16021009Y-16200150D01*
X16021009Y-16200150D02*
X16001961Y-16209674D01*
X16001961Y-16209674D02*
X15992437Y-16219198D01*
X16201961Y-16333484D02*
X16182913Y-16323960D01*
X16182913Y-16323960D02*
X16173390Y-16314436D01*
X16173390Y-16314436D02*
X16163866Y-16295388D01*
X16163866Y-16295388D02*
X16163866Y-16238246D01*
X16163866Y-16238246D02*
X16173390Y-16219198D01*
X16173390Y-16219198D02*
X16182913Y-16209674D01*
X16182913Y-16209674D02*
X16201961Y-16200150D01*
X16201961Y-16200150D02*
X16230532Y-16200150D01*
X16230532Y-16200150D02*
X16249580Y-16209674D01*
X16249580Y-16209674D02*
X16259104Y-16219198D01*
X16259104Y-16219198D02*
X16268628Y-16238246D01*
X16268628Y-16238246D02*
X16268628Y-16295388D01*
X16268628Y-16295388D02*
X16259104Y-16314436D01*
X16259104Y-16314436D02*
X16249580Y-16323960D01*
X16249580Y-16323960D02*
X16230532Y-16333484D01*
X16230532Y-16333484D02*
X16201961Y-16333484D01*
X16382913Y-16333484D02*
X16363866Y-16323960D01*
X16363866Y-16323960D02*
X16354342Y-16304912D01*
X16354342Y-16304912D02*
X16354342Y-16133484D01*
X16535294Y-16323960D02*
X16516247Y-16333484D01*
X16516247Y-16333484D02*
X16478151Y-16333484D01*
X16478151Y-16333484D02*
X16459104Y-16323960D01*
X16459104Y-16323960D02*
X16449580Y-16304912D01*
X16449580Y-16304912D02*
X16449580Y-16228722D01*
X16449580Y-16228722D02*
X16459104Y-16209674D01*
X16459104Y-16209674D02*
X16478151Y-16200150D01*
X16478151Y-16200150D02*
X16516247Y-16200150D01*
X16516247Y-16200150D02*
X16535294Y-16209674D01*
X16535294Y-16209674D02*
X16544818Y-16228722D01*
X16544818Y-16228722D02*
X16544818Y-16247769D01*
X16544818Y-16247769D02*
X16449580Y-16266817D01*
X16621009Y-16323960D02*
X16640056Y-16333484D01*
X16640056Y-16333484D02*
X16678151Y-16333484D01*
X16678151Y-16333484D02*
X16697199Y-16323960D01*
X16697199Y-16323960D02*
X16706723Y-16304912D01*
X16706723Y-16304912D02*
X16706723Y-16295388D01*
X16706723Y-16295388D02*
X16697199Y-16276341D01*
X16697199Y-16276341D02*
X16678151Y-16266817D01*
X16678151Y-16266817D02*
X16649580Y-16266817D01*
X16649580Y-16266817D02*
X16630532Y-16257293D01*
X16630532Y-16257293D02*
X16621009Y-16238246D01*
X16621009Y-16238246D02*
X16621009Y-16228722D01*
X16621009Y-16228722D02*
X16630532Y-16209674D01*
X16630532Y-16209674D02*
X16649580Y-16200150D01*
X16649580Y-16200150D02*
X16678151Y-16200150D01*
X16678151Y-16200150D02*
X16697199Y-16209674D01*
X16773390Y-16409674D02*
X16782914Y-16400150D01*
X16782914Y-16400150D02*
X16801961Y-16371579D01*
X16801961Y-16371579D02*
X16811485Y-16352531D01*
X16811485Y-16352531D02*
X16821009Y-16323960D01*
X16821009Y-16323960D02*
X16830533Y-16276341D01*
X16830533Y-16276341D02*
X16830533Y-16238246D01*
X16830533Y-16238246D02*
X16821009Y-16190627D01*
X16821009Y-16190627D02*
X16811485Y-16162055D01*
X16811485Y-16162055D02*
X16801961Y-16143008D01*
X16801961Y-16143008D02*
X16782914Y-16114436D01*
X16782914Y-16114436D02*
X16773390Y-16104912D01*
M02*
