M48
; DRILL file {KiCad 7.0.5} date Mon Oct 23 19:10:10 2023
; FORMAT={-:-/ absolute / metric / decimal}
; #@! TF.CreationDate,2023-10-23T19:10:10+07:00
; #@! TF.GenerationSoftware,Kicad,Pcbnew,7.0.5
; #@! TF.FileFunction,Plated,1,2,PTH
FMAT,2
METRIC
; #@! TA.AperFunction,Plated,PTH,ViaDrill
T1C0.400
; #@! TA.AperFunction,Plated,PTH,ViaDrill
T2C0.750
; #@! TA.AperFunction,Plated,PTH,ComponentDrill
T3C0.800
; #@! TA.AperFunction,Plated,PTH,ViaDrill
T4C1.000
; #@! TA.AperFunction,Plated,PTH,ComponentDrill
T5C1.000
; #@! TA.AperFunction,Plated,PTH,ComponentDrill
T6C1.700
%
G90
G05
T1
X121.43Y-122.91
X121.43Y-123.91
X121.43Y-124.91
X121.43Y-125.91
X121.43Y-126.91
X121.43Y-127.91
X121.43Y-128.91
X121.43Y-129.91
X121.43Y-130.91
X121.43Y-131.91
X123.13Y-109.11
X125.112Y-60.198
X125.38Y-98.446
X125.557Y-95.692
X126.112Y-60.198
X126.43Y-88.39
X126.43Y-89.39
X126.43Y-90.39
X126.43Y-91.39
X127.104Y-93.346
X127.112Y-60.198
X127.14Y-67.05
X127.14Y-68.05
X127.14Y-69.05
X127.14Y-70.05
X127.789Y-86.716
X128.1Y-67.06
X128.1Y-68.06
X128.1Y-69.06
X128.1Y-70.06
X128.112Y-60.198
X128.27Y-118.16
X128.27Y-119.16
X128.27Y-120.16
X128.27Y-121.16
X128.94Y-90.63
X129.112Y-60.198
X129.22Y-89.8
X129.83Y-83.14
X129.83Y-84.14
X129.83Y-85.14
X129.83Y-86.14
X130.112Y-60.198
X131.112Y-60.198
X132.112Y-60.198
X132.742Y-129.358
X132.829Y-116.55
X132.829Y-115.521
X133.03Y-109.86
X133.09Y-102.05
X133.09Y-103.05
X133.09Y-104.05
X133.09Y-105.05
X133.24Y-83.11
X133.24Y-84.11
X133.24Y-85.11
X133.24Y-86.11
X133.29Y-67.53
X133.29Y-68.53
X133.29Y-69.53
X133.36Y-135.05
X134.25Y-67.54
X134.25Y-68.54
X134.25Y-69.54
X134.26Y-120.812
X134.3Y-135.08
X135.3Y-112.74
X135.656Y-110.881
X135.73Y-88.46
X136.056Y-119.002
X136.93Y-115.144
X137.831Y-106.851
X137.911Y-118.712
X138.295Y-115.246
X138.536Y-123.326
X139.03Y-74.92
X139.58Y-127.68
X139.65Y-79.29
X140.324Y-101.318
X140.939Y-128.381
X140.96Y-60.25
X141.1Y-126.96
X141.118Y-124.639
X141.13Y-80.8
X141.13Y-81.8
X141.13Y-82.8
X141.507Y-101.837
X141.523Y-113.126
X141.84Y-129.41
X141.96Y-60.25
X142.141Y-123.173
X142.211Y-120.246
X142.453Y-100.891
X142.96Y-60.25
X143.127Y-111.412
X143.57Y-80.82
X143.96Y-60.25
X144.512Y-95.575
X144.96Y-60.25
X145.442Y-105.385
X145.51Y-117.27
X145.96Y-60.25
X146.64Y-134.98
X146.64Y-135.98
X146.64Y-136.98
X146.96Y-60.25
X147.383Y-81.15
X147.383Y-88.243
X147.383Y-90.087
X147.63Y-127.1
X147.911Y-77.788
X147.913Y-110.475
X147.96Y-60.25
X147.976Y-118.439
X148.43Y-127.47
X148.76Y-101.121
X149.18Y-122.03
X149.36Y-95.03
X149.551Y-97.775
X149.697Y-96.762
X149.81Y-113.703
X149.919Y-132.463
X150.189Y-83.048
X150.201Y-87.571
X150.35Y-98.753
X150.401Y-81.097
X150.61Y-89.64
X150.651Y-90.746
X150.76Y-129.05
X151.238Y-106.851
X151.3Y-76.53
X151.578Y-91.869
X152.46Y-82.296
X152.588Y-105.385
X152.59Y-114.375
X152.66Y-110.405
X153.087Y-74.968
X153.353Y-122.649
X153.42Y-76.69
X153.458Y-81.209
X153.565Y-126.144
X153.984Y-82.181
X154.26Y-74.65
X155.118Y-76.487
X155.18Y-69.23
X155.19Y-74.63
X155.22Y-72.8
X155.23Y-73.74
X155.393Y-80.001
X155.51Y-128.04
X155.51Y-129.04
X156.46Y-88.904
X156.544Y-76.225
X157.43Y-126.916
X157.449Y-79.736
X157.475Y-87.742
X157.49Y-120.78
X157.5Y-116.86
X157.5Y-117.86
X157.5Y-118.86
X157.5Y-119.86
X157.718Y-60.198
X158.49Y-120.78
X158.5Y-116.86
X158.5Y-117.86
X158.5Y-118.86
X158.5Y-119.86
X158.671Y-90.629
X158.718Y-60.198
X159.207Y-91.578
X159.49Y-120.78
X159.5Y-116.86
X159.5Y-117.86
X159.5Y-118.86
X159.5Y-119.86
X159.718Y-60.198
X159.947Y-95.075
X159.96Y-79.738
X160.01Y-114.87
X160.152Y-86.743
X160.49Y-120.78
X160.5Y-116.86
X160.5Y-117.86
X160.5Y-118.86
X160.5Y-119.86
X160.718Y-60.198
X160.96Y-95.055
X161.124Y-69.1
X161.16Y-91.824
X161.701Y-90.104
X161.718Y-60.198
X161.969Y-86.0
X162.223Y-89.15
X162.718Y-60.198
X162.729Y-83.755
X162.729Y-90.06
X163.234Y-93.928
X163.488Y-94.966
X163.718Y-60.198
X163.877Y-75.69
X164.615Y-76.882
X165.369Y-132.099
X165.511Y-141.005
X165.536Y-87.78
X165.545Y-82.638
X165.755Y-80.815
X166.007Y-103.437
X166.29Y-78.64
X166.712Y-95.089
X166.9Y-107.16
X167.007Y-103.429
X167.75Y-104.35
X167.81Y-107.1
X168.511Y-95.009
X168.76Y-107.12
X169.237Y-103.464
X170.879Y-101.329
X171.62Y-120.86
X171.635Y-98.699
X171.81Y-119.88
X171.92Y-125.55
X171.95Y-127.15
X172.09Y-105.84
X172.88Y-122.49
X172.925Y-120.915
X173.32Y-114.81
X173.34Y-116.82
X173.6Y-121.89
X173.6Y-123.11
X173.97Y-60.31
X174.97Y-60.31
X175.289Y-132.036
X175.97Y-60.31
X176.16Y-92.21
X176.16Y-93.21
X176.6Y-105.37
X176.67Y-114.88
X176.67Y-115.88
X176.67Y-116.88
X176.67Y-117.88
X176.67Y-118.88
X176.777Y-127.393
X176.97Y-60.31
X177.6Y-105.37
X177.87Y-75.43
X177.87Y-76.43
X177.89Y-120.96
X177.97Y-60.31
X178.16Y-108.41
X178.16Y-109.41
X178.16Y-110.41
X178.51Y-99.007
X178.78Y-120.96
X178.87Y-75.43
X178.87Y-76.43
X178.97Y-60.31
X179.16Y-108.41
X179.16Y-109.41
X179.16Y-110.41
X179.97Y-60.31
X182.61Y-139.03
X182.61Y-140.03
X182.61Y-141.03
X183.61Y-139.03
X183.61Y-140.03
X183.61Y-141.03
X184.035Y-81.58
T2
X155.81Y-107.23
X160.58Y-105.51
T3
X131.44Y-72.677
X131.44Y-77.557
T4
X151.68Y-112.41
X165.01Y-113.47
X168.45Y-110.85
X176.49Y-109.96
T5
X124.06Y-81.84
X124.06Y-84.38
X124.06Y-86.92
X124.06Y-89.46
X124.06Y-92.0
X124.06Y-94.54
X124.08Y-111.73
X124.08Y-114.27
X124.1Y-100.68
X124.1Y-103.22
X124.1Y-105.76
X124.155Y-65.802
X124.155Y-68.343
X124.155Y-70.882
X124.155Y-73.422
X124.155Y-75.962
X131.23Y-63.94
X132.81Y-91.25
X132.81Y-93.79
X132.81Y-96.33
X132.81Y-98.87
X133.77Y-63.94
X136.31Y-63.94
X138.85Y-63.94
X139.879Y-91.25
X139.879Y-93.79
X139.879Y-96.33
X139.879Y-98.87
X141.39Y-63.94
X147.35Y-63.94
X149.89Y-63.94
X152.43Y-63.94
X154.97Y-63.94
X157.51Y-63.94
X158.786Y-108.856
X163.4Y-63.99
X165.94Y-63.99
X166.386Y-108.856
X168.48Y-63.99
X171.02Y-63.99
X173.23Y-85.24
X173.23Y-87.78
X173.23Y-90.32
X173.23Y-92.86
X173.23Y-99.44
X173.23Y-101.98
X173.23Y-104.52
X173.23Y-107.06
X173.34Y-71.42
X173.34Y-73.96
X173.34Y-76.5
X173.34Y-79.04
X173.56Y-63.99
X180.939Y-65.51
X180.939Y-68.05
X180.939Y-70.59
X180.939Y-73.13
X180.939Y-75.67
X180.979Y-81.58
X180.979Y-84.12
X180.979Y-86.66
X180.979Y-89.2
X180.979Y-91.74
X180.979Y-94.28
X181.04Y-100.84
X181.04Y-103.38
X181.04Y-105.92
X181.04Y-108.46
T6
X179.46Y-114.453
X179.46Y-118.412
T0
M30
