G04 #@! TF.GenerationSoftware,KiCad,Pcbnew,7.0.5*
G04 #@! TF.CreationDate,2023-10-23T19:09:39+07:00*
G04 #@! TF.ProjectId,STM32F407VGT6,53544d33-3246-4343-9037-564754362e6b,rev?*
G04 #@! TF.SameCoordinates,Original*
G04 #@! TF.FileFunction,Paste,Top*
G04 #@! TF.FilePolarity,Positive*
%FSLAX46Y46*%
G04 Gerber Fmt 4.6, Leading zero omitted, Abs format (unit mm)*
G04 Created by KiCad (PCBNEW 7.0.5) date 2023-10-23 19:09:39*
%MOMM*%
%LPD*%
G01*
G04 APERTURE LIST*
G04 Aperture macros list*
%AMRoundRect*
0 Rectangle with rounded corners*
0 $1 Rounding radius*
0 $2 $3 $4 $5 $6 $7 $8 $9 X,Y pos of 4 corners*
0 Add a 4 corners polygon primitive as box body*
4,1,4,$2,$3,$4,$5,$6,$7,$8,$9,$2,$3,0*
0 Add four circle primitives for the rounded corners*
1,1,$1+$1,$2,$3*
1,1,$1+$1,$4,$5*
1,1,$1+$1,$6,$7*
1,1,$1+$1,$8,$9*
0 Add four rect primitives between the rounded corners*
20,1,$1+$1,$2,$3,$4,$5,0*
20,1,$1+$1,$4,$5,$6,$7,0*
20,1,$1+$1,$6,$7,$8,$9,0*
20,1,$1+$1,$8,$9,$2,$3,0*%
G04 Aperture macros list end*
%ADD10RoundRect,0.250000X0.475000X-0.337500X0.475000X0.337500X-0.475000X0.337500X-0.475000X-0.337500X0*%
%ADD11RoundRect,0.250000X0.450000X-0.325000X0.450000X0.325000X-0.450000X0.325000X-0.450000X-0.325000X0*%
%ADD12RoundRect,0.090000X0.090000X-0.139000X0.090000X0.139000X-0.090000X0.139000X-0.090000X-0.139000X0*%
%ADD13RoundRect,0.250000X-0.450000X0.350000X-0.450000X-0.350000X0.450000X-0.350000X0.450000X0.350000X0*%
%ADD14R,0.500000X0.800000*%
%ADD15R,0.400000X0.800000*%
%ADD16RoundRect,0.250000X-0.475000X0.337500X-0.475000X-0.337500X0.475000X-0.337500X0.475000X0.337500X0*%
%ADD17RoundRect,0.250000X-0.337500X-0.475000X0.337500X-0.475000X0.337500X0.475000X-0.337500X0.475000X0*%
%ADD18R,1.250000X1.000000*%
%ADD19RoundRect,0.250000X0.350000X0.450000X-0.350000X0.450000X-0.350000X-0.450000X0.350000X-0.450000X0*%
%ADD20RoundRect,0.150000X0.587500X0.150000X-0.587500X0.150000X-0.587500X-0.150000X0.587500X-0.150000X0*%
%ADD21RoundRect,0.250000X0.337500X0.475000X-0.337500X0.475000X-0.337500X-0.475000X0.337500X-0.475000X0*%
%ADD22R,0.400000X1.500000*%
%ADD23RoundRect,0.250000X-0.350000X-0.450000X0.350000X-0.450000X0.350000X0.450000X-0.350000X0.450000X0*%
%ADD24RoundRect,0.075000X-0.725000X-0.075000X0.725000X-0.075000X0.725000X0.075000X-0.725000X0.075000X0*%
%ADD25RoundRect,0.075000X-0.075000X-0.725000X0.075000X-0.725000X0.075000X0.725000X-0.075000X0.725000X0*%
%ADD26R,1.300000X1.900000*%
%ADD27RoundRect,0.090000X-0.090000X0.139000X-0.090000X-0.139000X0.090000X-0.139000X0.090000X0.139000X0*%
G04 APERTURE END LIST*
D10*
X140270000Y-78197500D03*
X140270000Y-76122500D03*
X130306000Y-110521000D03*
X130306000Y-108446000D03*
D11*
X160040000Y-126510000D03*
X160040000Y-124460000D03*
D12*
X134116000Y-109862000D03*
X134116000Y-108997000D03*
D11*
X139600000Y-126340000D03*
X139600000Y-124290000D03*
D13*
X169150000Y-113460000D03*
X169150000Y-115460000D03*
D14*
X130640000Y-114130000D03*
D15*
X131440000Y-114130000D03*
X132240000Y-114130000D03*
D14*
X133040000Y-114130000D03*
X133040000Y-112330000D03*
D15*
X132240000Y-112330000D03*
X131440000Y-112330000D03*
D14*
X130640000Y-112330000D03*
D11*
X154940000Y-126400000D03*
X154940000Y-124350000D03*
X165080000Y-126400000D03*
X165080000Y-124350000D03*
D16*
X136040000Y-78335000D03*
X136040000Y-80410000D03*
D17*
X161339000Y-130656000D03*
X163414000Y-130656000D03*
D18*
X143545000Y-135850000D03*
X135795000Y-135850000D03*
D16*
X138180000Y-78355000D03*
X138180000Y-80430000D03*
D17*
X136685000Y-130800000D03*
X138760000Y-130800000D03*
D16*
X146700000Y-70782500D03*
X146700000Y-72857500D03*
X151450000Y-70745000D03*
X151450000Y-72820000D03*
X149100000Y-70785000D03*
X149100000Y-72860000D03*
X159130000Y-70750000D03*
X159130000Y-72825000D03*
D19*
X142820000Y-130750000D03*
X140820000Y-130750000D03*
D20*
X142051000Y-112176000D03*
X142051000Y-114076000D03*
X140176000Y-113126000D03*
D19*
X131197500Y-130720000D03*
X129197500Y-130720000D03*
D18*
X160675000Y-135850000D03*
X168425000Y-135850000D03*
D10*
X163390000Y-99465000D03*
X163390000Y-97390000D03*
D11*
X134260000Y-126380000D03*
X134260000Y-124330000D03*
X144480000Y-126400000D03*
X144480000Y-124350000D03*
D21*
X167545000Y-73180000D03*
X165470000Y-73180000D03*
D17*
X124980000Y-130750000D03*
X127055000Y-130750000D03*
D11*
X149630000Y-126340000D03*
X149630000Y-124290000D03*
X170230000Y-126290000D03*
X170230000Y-124240000D03*
D18*
X131535000Y-84620000D03*
X139285000Y-84620000D03*
X172730000Y-135780000D03*
X180480000Y-135780000D03*
D19*
X167478000Y-130656000D03*
X165478000Y-130656000D03*
D22*
X145510000Y-115955000D03*
X146160000Y-115955000D03*
X146810000Y-115955000D03*
X147460000Y-115955000D03*
X148110000Y-115955000D03*
X148760000Y-115955000D03*
X149410000Y-115955000D03*
X150060000Y-115955000D03*
X150710000Y-115955000D03*
X151360000Y-115955000D03*
X152010000Y-115955000D03*
X152660000Y-115955000D03*
X152660000Y-108705000D03*
X152010000Y-108705000D03*
X151360000Y-108705000D03*
X150710000Y-108705000D03*
X150060000Y-108705000D03*
X149410000Y-108705000D03*
X148760000Y-108705000D03*
X148110000Y-108705000D03*
X147460000Y-108705000D03*
X146810000Y-108705000D03*
X146160000Y-108705000D03*
X145510000Y-108705000D03*
D10*
X166160000Y-99435000D03*
X166160000Y-97360000D03*
D23*
X161270000Y-70650000D03*
X163270000Y-70650000D03*
D16*
X156780000Y-70720000D03*
X156780000Y-72795000D03*
D24*
X148785000Y-79970000D03*
X148785000Y-80470000D03*
X148785000Y-80970000D03*
X148785000Y-81470000D03*
X148785000Y-81970000D03*
X148785000Y-82470000D03*
X148785000Y-82970000D03*
X148785000Y-83470000D03*
X148785000Y-83970000D03*
X148785000Y-84470000D03*
X148785000Y-84970000D03*
X148785000Y-85470000D03*
X148785000Y-85970000D03*
X148785000Y-86470000D03*
X148785000Y-86970000D03*
X148785000Y-87470000D03*
X148785000Y-87970000D03*
X148785000Y-88470000D03*
X148785000Y-88970000D03*
X148785000Y-89470000D03*
X148785000Y-89970000D03*
X148785000Y-90470000D03*
X148785000Y-90970000D03*
X148785000Y-91470000D03*
X148785000Y-91970000D03*
D25*
X150460000Y-93645000D03*
X150960000Y-93645000D03*
X151460000Y-93645000D03*
X151960000Y-93645000D03*
X152460000Y-93645000D03*
X152960000Y-93645000D03*
X153460000Y-93645000D03*
X153960000Y-93645000D03*
X154460000Y-93645000D03*
X154960000Y-93645000D03*
X155460000Y-93645000D03*
X155960000Y-93645000D03*
X156460000Y-93645000D03*
X156960000Y-93645000D03*
X157460000Y-93645000D03*
X157960000Y-93645000D03*
X158460000Y-93645000D03*
X158960000Y-93645000D03*
X159460000Y-93645000D03*
X159960000Y-93645000D03*
X160460000Y-93645000D03*
X160960000Y-93645000D03*
X161460000Y-93645000D03*
X161960000Y-93645000D03*
X162460000Y-93645000D03*
D24*
X164135000Y-91970000D03*
X164135000Y-91470000D03*
X164135000Y-90970000D03*
X164135000Y-90470000D03*
X164135000Y-89970000D03*
X164135000Y-89470000D03*
X164135000Y-88970000D03*
X164135000Y-88470000D03*
X164135000Y-87970000D03*
X164135000Y-87470000D03*
X164135000Y-86970000D03*
X164135000Y-86470000D03*
X164135000Y-85970000D03*
X164135000Y-85470000D03*
X164135000Y-84970000D03*
X164135000Y-84470000D03*
X164135000Y-83970000D03*
X164135000Y-83470000D03*
X164135000Y-82970000D03*
X164135000Y-82470000D03*
X164135000Y-81970000D03*
X164135000Y-81470000D03*
X164135000Y-80970000D03*
X164135000Y-80470000D03*
X164135000Y-79970000D03*
D25*
X162460000Y-78295000D03*
X161960000Y-78295000D03*
X161460000Y-78295000D03*
X160960000Y-78295000D03*
X160460000Y-78295000D03*
X159960000Y-78295000D03*
X159460000Y-78295000D03*
X158960000Y-78295000D03*
X158460000Y-78295000D03*
X157960000Y-78295000D03*
X157460000Y-78295000D03*
X156960000Y-78295000D03*
X156460000Y-78295000D03*
X155960000Y-78295000D03*
X155460000Y-78295000D03*
X154960000Y-78295000D03*
X154460000Y-78295000D03*
X153960000Y-78295000D03*
X153460000Y-78295000D03*
X152960000Y-78295000D03*
X152460000Y-78295000D03*
X151960000Y-78295000D03*
X151460000Y-78295000D03*
X150960000Y-78295000D03*
X150460000Y-78295000D03*
D23*
X140176000Y-110216000D03*
X142176000Y-110216000D03*
D26*
X136590000Y-73550000D03*
X142090000Y-73550000D03*
X142090000Y-70350000D03*
X136590000Y-70350000D03*
D17*
X149341000Y-130622000D03*
X151416000Y-130622000D03*
D19*
X179520000Y-130720000D03*
X177520000Y-130720000D03*
D13*
X171550000Y-113450000D03*
X171550000Y-115450000D03*
D19*
X155540000Y-130656000D03*
X153540000Y-130656000D03*
D10*
X142800000Y-78185000D03*
X142800000Y-76110000D03*
D18*
X124110000Y-135920000D03*
X131860000Y-135920000D03*
D14*
X135330000Y-114140000D03*
D15*
X136130000Y-114140000D03*
X136930000Y-114140000D03*
D14*
X137730000Y-114140000D03*
X137730000Y-112340000D03*
D15*
X136930000Y-112340000D03*
X136130000Y-112340000D03*
D14*
X135330000Y-112340000D03*
D19*
X167460000Y-70630000D03*
X165460000Y-70630000D03*
D16*
X153770000Y-70720000D03*
X153770000Y-72795000D03*
D18*
X148505000Y-135950000D03*
X156255000Y-135950000D03*
D27*
X131830000Y-108894000D03*
X131830000Y-109759000D03*
D17*
X173425000Y-130700000D03*
X175500000Y-130700000D03*
D21*
X137970000Y-76260000D03*
X135895000Y-76260000D03*
X163280000Y-73170000D03*
X161205000Y-73170000D03*
D17*
X135597000Y-109505000D03*
X137672000Y-109505000D03*
M02*
