G04 #@! TF.GenerationSoftware,KiCad,Pcbnew,7.0.5*
G04 #@! TF.CreationDate,2023-10-23T19:09:39+07:00*
G04 #@! TF.ProjectId,STM32F407VGT6,53544d33-3246-4343-9037-564754362e6b,rev?*
G04 #@! TF.SameCoordinates,Original*
G04 #@! TF.FileFunction,Soldermask,Bot*
G04 #@! TF.FilePolarity,Negative*
%FSLAX46Y46*%
G04 Gerber Fmt 4.6, Leading zero omitted, Abs format (unit mm)*
G04 Created by KiCad (PCBNEW 7.0.5) date 2023-10-23 19:09:39*
%MOMM*%
%LPD*%
G01*
G04 APERTURE LIST*
G04 Aperture macros list*
%AMRoundRect*
0 Rectangle with rounded corners*
0 $1 Rounding radius*
0 $2 $3 $4 $5 $6 $7 $8 $9 X,Y pos of 4 corners*
0 Add a 4 corners polygon primitive as box body*
4,1,4,$2,$3,$4,$5,$6,$7,$8,$9,$2,$3,0*
0 Add four circle primitives for the rounded corners*
1,1,$1+$1,$2,$3*
1,1,$1+$1,$4,$5*
1,1,$1+$1,$6,$7*
1,1,$1+$1,$8,$9*
0 Add four rect primitives between the rounded corners*
20,1,$1+$1,$2,$3,$4,$5,0*
20,1,$1+$1,$4,$5,$6,$7,0*
20,1,$1+$1,$6,$7,$8,$9,0*
20,1,$1+$1,$8,$9,$2,$3,0*%
G04 Aperture macros list end*
%ADD10RoundRect,0.425000X-0.425000X0.425000X-0.425000X-0.425000X0.425000X-0.425000X0.425000X0.425000X0*%
%ADD11C,1.700000*%
%ADD12RoundRect,0.250001X-1.099999X1.099999X-1.099999X-1.099999X1.099999X-1.099999X1.099999X1.099999X0*%
%ADD13C,2.700000*%
%ADD14RoundRect,0.425000X-0.425000X-0.425000X0.425000X-0.425000X0.425000X0.425000X-0.425000X0.425000X0*%
%ADD15RoundRect,0.425000X0.425000X-0.425000X0.425000X0.425000X-0.425000X0.425000X-0.425000X-0.425000X0*%
%ADD16C,1.500000*%
%ADD17R,2.000000X2.000000*%
%ADD18C,2.000000*%
%ADD19RoundRect,0.250000X0.475000X-0.337500X0.475000X0.337500X-0.475000X0.337500X-0.475000X-0.337500X0*%
%ADD20RoundRect,0.250000X2.050000X0.300000X-2.050000X0.300000X-2.050000X-0.300000X2.050000X-0.300000X0*%
%ADD21RoundRect,0.250002X4.449998X5.149998X-4.449998X5.149998X-4.449998X-5.149998X4.449998X-5.149998X0*%
%ADD22RoundRect,0.250000X-0.450000X0.325000X-0.450000X-0.325000X0.450000X-0.325000X0.450000X0.325000X0*%
%ADD23RoundRect,0.250000X-0.650000X1.500000X-0.650000X-1.500000X0.650000X-1.500000X0.650000X1.500000X0*%
%ADD24R,2.900000X5.400000*%
%ADD25R,1.500000X2.000000*%
%ADD26R,3.800000X2.000000*%
%ADD27RoundRect,0.250000X0.450000X-0.350000X0.450000X0.350000X-0.450000X0.350000X-0.450000X-0.350000X0*%
%ADD28RoundRect,0.250000X-0.337500X-0.475000X0.337500X-0.475000X0.337500X0.475000X-0.337500X0.475000X0*%
%ADD29RoundRect,0.250000X-0.875000X-1.025000X0.875000X-1.025000X0.875000X1.025000X-0.875000X1.025000X0*%
%ADD30RoundRect,0.250000X-1.000000X1.950000X-1.000000X-1.950000X1.000000X-1.950000X1.000000X1.950000X0*%
%ADD31RoundRect,0.250000X-1.500000X-0.650000X1.500000X-0.650000X1.500000X0.650000X-1.500000X0.650000X0*%
%ADD32RoundRect,0.250000X0.350000X0.450000X-0.350000X0.450000X-0.350000X-0.450000X0.350000X-0.450000X0*%
G04 APERTURE END LIST*
D10*
X132810000Y-91250000D03*
D11*
X132810000Y-93790000D03*
X132810000Y-96330000D03*
X132810000Y-98870000D03*
D12*
X179460000Y-114452500D03*
D13*
X179460000Y-118412500D03*
D10*
X173340000Y-71420000D03*
D11*
X173340000Y-73960000D03*
X173340000Y-76500000D03*
X173340000Y-79040000D03*
D10*
X139879000Y-91250000D03*
D11*
X139879000Y-93790000D03*
X139879000Y-96330000D03*
X139879000Y-98870000D03*
D14*
X147350000Y-63940000D03*
D11*
X149890000Y-63940000D03*
X152430000Y-63940000D03*
X154970000Y-63940000D03*
X157510000Y-63940000D03*
D10*
X173230000Y-85240000D03*
D11*
X173230000Y-87780000D03*
X173230000Y-90320000D03*
X173230000Y-92860000D03*
D15*
X124080000Y-114270000D03*
D11*
X124080000Y-111730000D03*
D10*
X180939200Y-65510000D03*
D11*
X180939200Y-68050000D03*
X180939200Y-70590000D03*
X180939200Y-73130000D03*
X180939200Y-75670000D03*
D15*
X124155500Y-75962500D03*
D11*
X124155500Y-73422500D03*
X124155500Y-70882500D03*
X124155500Y-68342500D03*
X124155500Y-65802500D03*
D14*
X131230000Y-63940000D03*
D11*
X133770000Y-63940000D03*
X136310000Y-63940000D03*
X138850000Y-63940000D03*
X141390000Y-63940000D03*
D10*
X181040000Y-100840000D03*
D11*
X181040000Y-103380000D03*
X181040000Y-105920000D03*
X181040000Y-108460000D03*
D15*
X124060000Y-94540000D03*
D11*
X124060000Y-92000000D03*
X124060000Y-89460000D03*
X124060000Y-86920000D03*
X124060000Y-84380000D03*
X124060000Y-81840000D03*
D10*
X173230000Y-99440000D03*
D11*
X173230000Y-101980000D03*
X173230000Y-104520000D03*
X173230000Y-107060000D03*
D10*
X180979200Y-81580000D03*
D11*
X180979200Y-84120000D03*
X180979200Y-86660000D03*
X180979200Y-89200000D03*
X180979200Y-91740000D03*
X180979200Y-94280000D03*
D15*
X124100000Y-105760000D03*
D11*
X124100000Y-103220000D03*
X124100000Y-100680000D03*
D16*
X131440000Y-72677500D03*
X131440000Y-77557500D03*
D14*
X163400000Y-63990000D03*
D11*
X165940000Y-63990000D03*
X168480000Y-63990000D03*
X171020000Y-63990000D03*
X173560000Y-63990000D03*
D17*
X158786000Y-108856000D03*
D18*
X166386000Y-108856000D03*
D19*
X130800000Y-139467500D03*
X130800000Y-137392500D03*
D20*
X168650000Y-117470000D03*
X168650000Y-119170000D03*
X168650000Y-120870000D03*
D21*
X159500000Y-120870000D03*
D20*
X168650000Y-122570000D03*
X168650000Y-124270000D03*
D22*
X137750000Y-127247500D03*
X137750000Y-129297500D03*
D23*
X134730000Y-127160000D03*
X134730000Y-132160000D03*
D24*
X154030000Y-133870000D03*
X144130000Y-133870000D03*
D25*
X127300000Y-139580000D03*
X125000000Y-139580000D03*
D26*
X125000000Y-133280000D03*
D25*
X122700000Y-139580000D03*
D27*
X137770000Y-133290000D03*
X137770000Y-131290000D03*
D28*
X144770000Y-123310000D03*
X146845000Y-123310000D03*
D29*
X133500000Y-137892500D03*
X139900000Y-137892500D03*
D22*
X149217500Y-123440000D03*
X149217500Y-125490000D03*
D30*
X163310000Y-130640000D03*
X163310000Y-139040000D03*
D31*
X174640000Y-129290000D03*
X179640000Y-129290000D03*
D32*
X146787500Y-125620000D03*
X144787500Y-125620000D03*
M02*
