M48
; DRILL file {KiCad 7.0.8} date Thu Nov  9 09:46:31 2023
; FORMAT={-:-/ absolute / metric / decimal}
; #@! TF.CreationDate,2023-11-09T09:46:31+07:00
; #@! TF.GenerationSoftware,Kicad,Pcbnew,7.0.8
; #@! TF.FileFunction,Plated,1,2,PTH
FMAT,2
METRIC
; #@! TA.AperFunction,Plated,PTH,ViaDrill
T1C0.400
; #@! TA.AperFunction,Plated,PTH,ViaDrill
T2C0.500
; #@! TA.AperFunction,Plated,PTH,ViaDrill
T3C0.600
; #@! TA.AperFunction,Plated,PTH,ViaDrill
T4C0.800
; #@! TA.AperFunction,Plated,PTH,ComponentDrill
T5C0.800
; #@! TA.AperFunction,Plated,PTH,ComponentDrill
T6C1.000
; #@! TA.AperFunction,Plated,PTH,ComponentDrill
T7C1.700
%
G90
G05
T1
X112.916Y-73.879
X113.33Y-79.15
X113.4Y-78.32
X113.73Y-77.52
X116.364Y-91.456
X116.364Y-92.456
X117.248Y-135.787
X117.348Y-82.296
X117.364Y-91.456
X117.364Y-92.456
X117.39Y-55.14
X118.364Y-91.456
X118.364Y-92.456
X118.39Y-55.14
X119.39Y-55.14
X120.39Y-55.14
X121.39Y-55.14
X121.44Y-69.6
X121.44Y-70.6
X122.44Y-69.6
X122.44Y-70.6
X123.44Y-69.6
X123.44Y-70.6
X125.3Y-128.05
X125.32Y-125.41
X126.14Y-128.04
X126.16Y-125.4
X127.23Y-85.33
X127.267Y-80.26
X127.49Y-78.722
X128.92Y-98.78
X128.94Y-69.65
X129.66Y-72.53
X129.999Y-81.804
X130.048Y-91.44
X130.126Y-82.795
X130.171Y-85.311
X130.81Y-92.202
X130.96Y-86.49
X131.778Y-123.999
X131.838Y-126.876
X132.98Y-84.984
X133.15Y-55.13
X133.155Y-74.709
X134.15Y-55.13
X134.29Y-77.924
X135.051Y-125.032
X135.117Y-75.511
X135.15Y-55.13
X135.31Y-71.5
X135.32Y-73.13
X135.99Y-74.605
X136.15Y-55.13
X136.285Y-76.006
X136.6Y-70.36
X136.769Y-72.294
X137.15Y-55.13
X137.35Y-106.831
X137.646Y-89.26
X138.03Y-87.05
X138.08Y-82.32
X138.559Y-123.301
X139.192Y-69.596
X139.195Y-73.893
X139.239Y-117.731
X139.32Y-86.09
X139.4Y-111.11
X139.599Y-80.941
X139.653Y-108.233
X139.8Y-92.85
X139.92Y-90.011
X140.004Y-70.734
X140.259Y-78.278
X140.382Y-72.779
X140.661Y-79.316
X140.72Y-115.73
X140.8Y-114.83
X141.21Y-111.09
X141.251Y-74.67
X141.27Y-96.31
X141.293Y-70.47
X141.48Y-115.42
X141.56Y-114.52
X142.188Y-108.247
X142.188Y-116.524
X142.369Y-80.529
X142.494Y-69.596
X142.68Y-104.35
X142.747Y-71.408
X142.865Y-119.57
X143.28Y-93.408
X143.369Y-80.751
X143.55Y-99.27
X143.66Y-98.32
X144.018Y-69.85
X144.019Y-81.515
X144.29Y-99.88
X144.42Y-73.368
X144.45Y-98.92
X144.65Y-120.68
X144.89Y-114.05
X144.91Y-110.88
X145.13Y-115.56
X145.22Y-99.55
X146.03Y-63.0
X146.42Y-70.612
X146.825Y-80.191
X147.24Y-99.398
X147.273Y-127.911
X147.563Y-78.299
X148.295Y-74.669
X148.6Y-110.57
X148.619Y-93.29
X148.65Y-111.46
X148.65Y-112.46
X148.65Y-113.46
X148.65Y-114.46
X149.26Y-83.759
X149.49Y-55.14
X149.6Y-110.57
X149.707Y-89.134
X150.1Y-63.01
X150.148Y-71.408
X150.49Y-55.14
X150.6Y-110.57
X150.819Y-90.518
X151.13Y-100.33
X151.49Y-55.14
X151.583Y-76.455
X151.6Y-110.57
X152.017Y-91.065
X152.178Y-96.835
X152.224Y-70.752
X152.49Y-55.14
X152.6Y-110.57
X152.611Y-108.905
X153.49Y-55.14
X154.68Y-77.179
X154.69Y-109.53
X154.7Y-80.23
X154.7Y-111.14
X154.983Y-85.232
X155.44Y-98.2
X155.485Y-84.07
X157.29Y-85.98
X158.07Y-115.57
X158.32Y-92.2
X159.01Y-115.6
X159.18Y-92.21
X159.19Y-93.13
X159.91Y-115.59
X159.981Y-67.69
X160.41Y-122.71
X160.709Y-85.985
X161.47Y-122.71
X162.62Y-122.71
X162.625Y-115.051
X162.64Y-89.891
X162.669Y-88.411
X163.221Y-101.865
X163.44Y-80.79
X163.46Y-84.57
X163.46Y-85.52
X163.48Y-81.97
X165.57Y-106.74
X165.91Y-55.14
X166.66Y-110.78
X166.67Y-117.86
X166.91Y-55.14
X167.91Y-55.14
X168.17Y-85.68
X168.91Y-55.14
X169.91Y-55.14
X172.37Y-73.25
X174.46Y-74.86
T2
X125.35Y-85.22
X125.37Y-81.44
X125.43Y-83.5
X159.6Y-111.58
X160.13Y-110.61
X160.7Y-111.57
T3
X157.01Y-79.78
X161.164Y-88.326
T4
X124.461Y-91.746
T5
X122.459Y-67.337
X122.459Y-72.218
T6
X115.078Y-76.5
X115.078Y-79.04
X115.078Y-81.58
X115.078Y-84.12
X115.078Y-86.66
X115.078Y-89.2
X115.099Y-106.39
X115.099Y-108.93
X115.118Y-95.34
X115.118Y-97.88
X115.118Y-100.42
X115.174Y-60.462
X115.174Y-63.002
X115.174Y-65.543
X115.174Y-68.082
X115.174Y-70.623
X122.06Y-105.21
X122.248Y-58.6
X124.788Y-58.6
X127.328Y-58.6
X129.66Y-105.21
X129.868Y-58.6
X132.409Y-58.6
X138.368Y-58.6
X140.909Y-58.6
X143.448Y-58.6
X145.988Y-58.6
X148.528Y-58.6
X154.418Y-58.65
X156.958Y-58.65
X157.544Y-95.61
X157.544Y-98.15
X157.544Y-100.69
X157.544Y-103.23
X159.498Y-58.65
X162.038Y-58.65
X164.358Y-66.08
X164.358Y-68.62
X164.358Y-71.16
X164.358Y-73.7
X164.578Y-58.65
X164.89Y-95.54
X164.89Y-98.08
X164.89Y-100.62
X164.89Y-103.16
X171.958Y-60.17
X171.958Y-62.71
X171.958Y-65.25
X171.958Y-67.79
X171.958Y-70.33
X171.998Y-76.24
X171.998Y-78.78
X171.998Y-81.32
X171.998Y-83.86
X171.998Y-86.4
X171.998Y-88.94
X172.058Y-95.5
X172.058Y-98.04
X172.058Y-100.58
X172.058Y-103.12
T7
X170.93Y-108.292
X170.93Y-112.252
T0
M30
