%TF.GenerationSoftware,KiCad,Pcbnew,7.0.8*%
%TF.CreationDate,2023-11-09T09:46:33+07:00*%
%TF.ProjectId,PCB v2,50434220-7632-42e6-9b69-6361645f7063,rev?*%
%TF.SameCoordinates,Original*%
%TF.FileFunction,Drillmap*%
%TF.FilePolarity,Positive*%
%FSLAX45Y45*%
G04 Gerber Fmt 4.5, Leading zero omitted, Abs format (unit mm)*
G04 Created by KiCad (PCBNEW 7.0.8) date 2023-11-09 09:46:33*
%MOMM*%
%LPD*%
G01*
G04 APERTURE LIST*
%ADD10C,0.100000*%
%ADD11C,0.200000*%
G04 APERTURE END LIST*
D10*
X11105173Y-5243000D02*
X17605173Y-5243000D01*
X17605173Y-13743000D01*
X11105173Y-13743000D01*
X11105173Y-5243000D01*
X17565352Y-5444000D02*
G75*
G03*
X17565352Y-5444000I-160590J0D01*
G01*
X11966139Y-11843000D02*
G75*
G03*
X11966139Y-11843000I-161966J0D01*
G01*
X11466763Y-5443411D02*
G75*
G03*
X11466763Y-5443411I-160590J0D01*
G01*
X17067500Y-11840000D02*
G75*
G03*
X17067500Y-11840000I-159327J0D01*
G01*
D11*
X11360950Y-14059484D02*
X11360950Y-13859484D01*
X11360950Y-13859484D02*
X11408569Y-13859484D01*
X11408569Y-13859484D02*
X11437141Y-13869008D01*
X11437141Y-13869008D02*
X11456188Y-13888055D01*
X11456188Y-13888055D02*
X11465712Y-13907103D01*
X11465712Y-13907103D02*
X11475236Y-13945198D01*
X11475236Y-13945198D02*
X11475236Y-13973769D01*
X11475236Y-13973769D02*
X11465712Y-14011865D01*
X11465712Y-14011865D02*
X11456188Y-14030912D01*
X11456188Y-14030912D02*
X11437141Y-14049960D01*
X11437141Y-14049960D02*
X11408569Y-14059484D01*
X11408569Y-14059484D02*
X11360950Y-14059484D01*
X11560950Y-14059484D02*
X11560950Y-13926150D01*
X11560950Y-13964246D02*
X11570474Y-13945198D01*
X11570474Y-13945198D02*
X11579998Y-13935674D01*
X11579998Y-13935674D02*
X11599045Y-13926150D01*
X11599045Y-13926150D02*
X11618093Y-13926150D01*
X11684760Y-14059484D02*
X11684760Y-13926150D01*
X11684760Y-13859484D02*
X11675236Y-13869008D01*
X11675236Y-13869008D02*
X11684760Y-13878531D01*
X11684760Y-13878531D02*
X11694283Y-13869008D01*
X11694283Y-13869008D02*
X11684760Y-13859484D01*
X11684760Y-13859484D02*
X11684760Y-13878531D01*
X11808569Y-14059484D02*
X11789521Y-14049960D01*
X11789521Y-14049960D02*
X11779998Y-14030912D01*
X11779998Y-14030912D02*
X11779998Y-13859484D01*
X11913331Y-14059484D02*
X11894283Y-14049960D01*
X11894283Y-14049960D02*
X11884760Y-14030912D01*
X11884760Y-14030912D02*
X11884760Y-13859484D01*
X12141902Y-14059484D02*
X12141902Y-13859484D01*
X12141902Y-13859484D02*
X12208569Y-14002341D01*
X12208569Y-14002341D02*
X12275236Y-13859484D01*
X12275236Y-13859484D02*
X12275236Y-14059484D01*
X12456188Y-14059484D02*
X12456188Y-13954722D01*
X12456188Y-13954722D02*
X12446664Y-13935674D01*
X12446664Y-13935674D02*
X12427617Y-13926150D01*
X12427617Y-13926150D02*
X12389521Y-13926150D01*
X12389521Y-13926150D02*
X12370474Y-13935674D01*
X12456188Y-14049960D02*
X12437141Y-14059484D01*
X12437141Y-14059484D02*
X12389521Y-14059484D01*
X12389521Y-14059484D02*
X12370474Y-14049960D01*
X12370474Y-14049960D02*
X12360950Y-14030912D01*
X12360950Y-14030912D02*
X12360950Y-14011865D01*
X12360950Y-14011865D02*
X12370474Y-13992817D01*
X12370474Y-13992817D02*
X12389521Y-13983293D01*
X12389521Y-13983293D02*
X12437141Y-13983293D01*
X12437141Y-13983293D02*
X12456188Y-13973769D01*
X12551426Y-13926150D02*
X12551426Y-14126150D01*
X12551426Y-13935674D02*
X12570474Y-13926150D01*
X12570474Y-13926150D02*
X12608569Y-13926150D01*
X12608569Y-13926150D02*
X12627617Y-13935674D01*
X12627617Y-13935674D02*
X12637141Y-13945198D01*
X12637141Y-13945198D02*
X12646664Y-13964246D01*
X12646664Y-13964246D02*
X12646664Y-14021388D01*
X12646664Y-14021388D02*
X12637141Y-14040436D01*
X12637141Y-14040436D02*
X12627617Y-14049960D01*
X12627617Y-14049960D02*
X12608569Y-14059484D01*
X12608569Y-14059484D02*
X12570474Y-14059484D01*
X12570474Y-14059484D02*
X12551426Y-14049960D01*
X12732379Y-14040436D02*
X12741902Y-14049960D01*
X12741902Y-14049960D02*
X12732379Y-14059484D01*
X12732379Y-14059484D02*
X12722855Y-14049960D01*
X12722855Y-14049960D02*
X12732379Y-14040436D01*
X12732379Y-14040436D02*
X12732379Y-14059484D01*
X12732379Y-13935674D02*
X12741902Y-13945198D01*
X12741902Y-13945198D02*
X12732379Y-13954722D01*
X12732379Y-13954722D02*
X12722855Y-13945198D01*
X12722855Y-13945198D02*
X12732379Y-13935674D01*
X12732379Y-13935674D02*
X12732379Y-13954722D01*
M02*
