G04 #@! TF.GenerationSoftware,KiCad,Pcbnew,7.0.8*
G04 #@! TF.CreationDate,2023-11-09T09:46:19+07:00*
G04 #@! TF.ProjectId,PCB v2,50434220-7632-42e6-9b69-6361645f7063,rev?*
G04 #@! TF.SameCoordinates,Original*
G04 #@! TF.FileFunction,Soldermask,Top*
G04 #@! TF.FilePolarity,Negative*
%FSLAX46Y46*%
G04 Gerber Fmt 4.6, Leading zero omitted, Abs format (unit mm)*
G04 Created by KiCad (PCBNEW 7.0.8) date 2023-11-09 09:46:19*
%MOMM*%
%LPD*%
G01*
G04 APERTURE LIST*
G04 Aperture macros list*
%AMRoundRect*
0 Rectangle with rounded corners*
0 $1 Rounding radius*
0 $2 $3 $4 $5 $6 $7 $8 $9 X,Y pos of 4 corners*
0 Add a 4 corners polygon primitive as box body*
4,1,4,$2,$3,$4,$5,$6,$7,$8,$9,$2,$3,0*
0 Add four circle primitives for the rounded corners*
1,1,$1+$1,$2,$3*
1,1,$1+$1,$4,$5*
1,1,$1+$1,$6,$7*
1,1,$1+$1,$8,$9*
0 Add four rect primitives between the rounded corners*
20,1,$1+$1,$2,$3,$4,$5,0*
20,1,$1+$1,$4,$5,$6,$7,0*
20,1,$1+$1,$6,$7,$8,$9,0*
20,1,$1+$1,$8,$9,$2,$3,0*%
G04 Aperture macros list end*
%ADD10RoundRect,0.425000X-0.425000X0.425000X-0.425000X-0.425000X0.425000X-0.425000X0.425000X0.425000X0*%
%ADD11C,1.700000*%
%ADD12RoundRect,0.250000X0.475000X-0.337500X0.475000X0.337500X-0.475000X0.337500X-0.475000X-0.337500X0*%
%ADD13C,2.700000*%
%ADD14RoundRect,0.250001X-1.099999X1.099999X-1.099999X-1.099999X1.099999X-1.099999X1.099999X1.099999X0*%
%ADD15RoundRect,0.250000X0.337500X0.475000X-0.337500X0.475000X-0.337500X-0.475000X0.337500X-0.475000X0*%
%ADD16RoundRect,0.250000X0.450000X-0.325000X0.450000X0.325000X-0.450000X0.325000X-0.450000X-0.325000X0*%
%ADD17RoundRect,0.250000X0.350000X0.450000X-0.350000X0.450000X-0.350000X-0.450000X0.350000X-0.450000X0*%
%ADD18R,0.500000X0.800000*%
%ADD19R,0.400000X0.800000*%
%ADD20RoundRect,0.425000X-0.425000X-0.425000X0.425000X-0.425000X0.425000X0.425000X-0.425000X0.425000X0*%
%ADD21RoundRect,0.250000X-0.475000X0.337500X-0.475000X-0.337500X0.475000X-0.337500X0.475000X0.337500X0*%
%ADD22RoundRect,0.102000X0.750000X-0.200000X0.750000X0.200000X-0.750000X0.200000X-0.750000X-0.200000X0*%
%ADD23RoundRect,0.250000X-0.337500X-0.475000X0.337500X-0.475000X0.337500X0.475000X-0.337500X0.475000X0*%
%ADD24R,1.250000X1.000000*%
%ADD25RoundRect,0.425000X0.425000X-0.425000X0.425000X0.425000X-0.425000X0.425000X-0.425000X-0.425000X0*%
%ADD26RoundRect,0.150000X0.587500X0.150000X-0.587500X0.150000X-0.587500X-0.150000X0.587500X-0.150000X0*%
%ADD27RoundRect,0.102000X-0.750000X0.200000X-0.750000X-0.200000X0.750000X-0.200000X0.750000X0.200000X0*%
%ADD28RoundRect,0.250000X-0.350000X-0.450000X0.350000X-0.450000X0.350000X0.450000X-0.350000X0.450000X0*%
%ADD29RoundRect,0.075000X-0.075000X-0.725000X0.075000X-0.725000X0.075000X0.725000X-0.075000X0.725000X0*%
%ADD30RoundRect,0.075000X-0.725000X-0.075000X0.725000X-0.075000X0.725000X0.075000X-0.725000X0.075000X0*%
%ADD31RoundRect,0.250000X0.450000X-0.350000X0.450000X0.350000X-0.450000X0.350000X-0.450000X-0.350000X0*%
%ADD32R,1.300000X1.900000*%
%ADD33C,1.500000*%
%ADD34C,2.000000*%
%ADD35R,2.000000X2.000000*%
%ADD36RoundRect,0.250000X0.325000X0.450000X-0.325000X0.450000X-0.325000X-0.450000X0.325000X-0.450000X0*%
G04 APERTURE END LIST*
D10*
X172058500Y-95500000D03*
D11*
X172058500Y-98040000D03*
X172058500Y-100580000D03*
X172058500Y-103120000D03*
D12*
X131288500Y-72857500D03*
X131288500Y-70782500D03*
D13*
X170930000Y-112252500D03*
D14*
X170930000Y-108292500D03*
D15*
X122930000Y-89720000D03*
X120855000Y-89720000D03*
D16*
X151070000Y-120460000D03*
X151070000Y-118410000D03*
D10*
X164358500Y-66080000D03*
D11*
X164358500Y-68620000D03*
X164358500Y-71160000D03*
X164358500Y-73700000D03*
D16*
X130630000Y-120290000D03*
X130630000Y-118240000D03*
D17*
X151160000Y-94860000D03*
X149160000Y-94860000D03*
D18*
X132170000Y-111970000D03*
D19*
X132970000Y-111970000D03*
X133770000Y-111970000D03*
D18*
X134570000Y-111970000D03*
X134570000Y-113770000D03*
D19*
X133770000Y-113770000D03*
X132970000Y-113770000D03*
D18*
X132170000Y-113770000D03*
D16*
X145970000Y-120350000D03*
X145970000Y-118300000D03*
X156110000Y-120350000D03*
X156110000Y-118300000D03*
D20*
X138368500Y-58600000D03*
D11*
X140908500Y-58600000D03*
X143448500Y-58600000D03*
X145988500Y-58600000D03*
X148528500Y-58600000D03*
D21*
X127058500Y-75070000D03*
X127058500Y-72995000D03*
D22*
X158760000Y-86630000D03*
X158760000Y-85980000D03*
X158760000Y-85330000D03*
X158760000Y-84680000D03*
X158760000Y-84030000D03*
X158760000Y-83380000D03*
X158760000Y-82730000D03*
X158760000Y-82080000D03*
X158760000Y-81430000D03*
X158760000Y-80780000D03*
X158760000Y-80130000D03*
X158760000Y-79480000D03*
X166010000Y-79480000D03*
X166010000Y-80130000D03*
X166010000Y-80780000D03*
X166010000Y-81430000D03*
X166010000Y-82080000D03*
X166010000Y-82730000D03*
X166010000Y-83380000D03*
X166010000Y-84030000D03*
X166010000Y-84680000D03*
X166010000Y-85330000D03*
X166010000Y-85980000D03*
X166010000Y-86630000D03*
D23*
X152357500Y-125316000D03*
X154432500Y-125316000D03*
D11*
X164890000Y-103160000D03*
X164890000Y-100620000D03*
X164890000Y-98080000D03*
D10*
X164890000Y-95540000D03*
D24*
X126813500Y-130510000D03*
X134563500Y-130510000D03*
D15*
X155722500Y-107280000D03*
X157797500Y-107280000D03*
D23*
X127703500Y-125460000D03*
X129778500Y-125460000D03*
D21*
X137718500Y-65442500D03*
X137718500Y-67517500D03*
X142468500Y-65405000D03*
X142468500Y-67480000D03*
X140118500Y-65445000D03*
X140118500Y-67520000D03*
X150148500Y-65410000D03*
X150148500Y-67485000D03*
D25*
X115098500Y-108930000D03*
D11*
X115098500Y-106390000D03*
D17*
X133838500Y-125410000D03*
X131838500Y-125410000D03*
D26*
X124610000Y-94270000D03*
X124610000Y-96170000D03*
X122735000Y-95220000D03*
D10*
X171957700Y-60170000D03*
D11*
X171957700Y-62710000D03*
X171957700Y-65250000D03*
X171957700Y-67790000D03*
X171957700Y-70330000D03*
D25*
X115174000Y-70622500D03*
D11*
X115174000Y-68082500D03*
X115174000Y-65542500D03*
X115174000Y-63002500D03*
X115174000Y-60462500D03*
D17*
X122216000Y-125380000D03*
X120216000Y-125380000D03*
D24*
X151693500Y-130510000D03*
X159443500Y-130510000D03*
D23*
X141205000Y-94860000D03*
X143280000Y-94860000D03*
D16*
X125290000Y-120330000D03*
X125290000Y-118280000D03*
X135510000Y-120350000D03*
X135510000Y-118300000D03*
D15*
X158563500Y-67840000D03*
X156488500Y-67840000D03*
D23*
X115998500Y-125410000D03*
X118073500Y-125410000D03*
D16*
X140660000Y-120290000D03*
X140660000Y-118240000D03*
X161260000Y-120240000D03*
X161260000Y-118190000D03*
D20*
X122248500Y-58600000D03*
D11*
X124788500Y-58600000D03*
X127328500Y-58600000D03*
X129868500Y-58600000D03*
X132408500Y-58600000D03*
D24*
X155495000Y-112940000D03*
X163245000Y-112940000D03*
X171498500Y-130440000D03*
X163748500Y-130440000D03*
D17*
X158496500Y-125316000D03*
X156496500Y-125316000D03*
D27*
X128640000Y-79570000D03*
X128640000Y-80220000D03*
X128640000Y-80870000D03*
X128640000Y-81520000D03*
X128640000Y-82170000D03*
X128640000Y-82820000D03*
X128640000Y-83470000D03*
X128640000Y-84120000D03*
X128640000Y-84770000D03*
X128640000Y-85420000D03*
X128640000Y-86070000D03*
X128640000Y-86720000D03*
X121390000Y-86720000D03*
X121390000Y-86070000D03*
X121390000Y-85420000D03*
X121390000Y-84770000D03*
X121390000Y-84120000D03*
X121390000Y-83470000D03*
X121390000Y-82820000D03*
X121390000Y-82170000D03*
X121390000Y-81520000D03*
X121390000Y-80870000D03*
X121390000Y-80220000D03*
X121390000Y-79570000D03*
D25*
X115078500Y-89200000D03*
D11*
X115078500Y-86660000D03*
X115078500Y-84120000D03*
X115078500Y-81580000D03*
X115078500Y-79040000D03*
X115078500Y-76500000D03*
D23*
X137207500Y-94850000D03*
X139282500Y-94850000D03*
D11*
X157544500Y-103230000D03*
X157544500Y-100690000D03*
X157544500Y-98150000D03*
D10*
X157544500Y-95610000D03*
D28*
X152288500Y-65310000D03*
X154288500Y-65310000D03*
D10*
X171997700Y-76240000D03*
D11*
X171997700Y-78780000D03*
X171997700Y-81320000D03*
X171997700Y-83860000D03*
X171997700Y-86400000D03*
X171997700Y-88940000D03*
D21*
X147798500Y-65380000D03*
X147798500Y-67455000D03*
D29*
X137920000Y-76085000D03*
X138420000Y-76085000D03*
X138920000Y-76085000D03*
X139420000Y-76085000D03*
X139920000Y-76085000D03*
X140420000Y-76085000D03*
X140920000Y-76085000D03*
X141420000Y-76085000D03*
X141920000Y-76085000D03*
X142420000Y-76085000D03*
X142920000Y-76085000D03*
X143420000Y-76085000D03*
X143920000Y-76085000D03*
X144420000Y-76085000D03*
X144920000Y-76085000D03*
X145420000Y-76085000D03*
X145920000Y-76085000D03*
X146420000Y-76085000D03*
X146920000Y-76085000D03*
X147420000Y-76085000D03*
X147920000Y-76085000D03*
X148420000Y-76085000D03*
X148920000Y-76085000D03*
X149420000Y-76085000D03*
X149920000Y-76085000D03*
D30*
X151595000Y-77760000D03*
X151595000Y-78260000D03*
X151595000Y-78760000D03*
X151595000Y-79260000D03*
X151595000Y-79760000D03*
X151595000Y-80260000D03*
X151595000Y-80760000D03*
X151595000Y-81260000D03*
X151595000Y-81760000D03*
X151595000Y-82260000D03*
X151595000Y-82760000D03*
X151595000Y-83260000D03*
X151595000Y-83760000D03*
X151595000Y-84260000D03*
X151595000Y-84760000D03*
X151595000Y-85260000D03*
X151595000Y-85760000D03*
X151595000Y-86260000D03*
X151595000Y-86760000D03*
X151595000Y-87260000D03*
X151595000Y-87760000D03*
X151595000Y-88260000D03*
X151595000Y-88760000D03*
X151595000Y-89260000D03*
X151595000Y-89760000D03*
D29*
X149920000Y-91435000D03*
X149420000Y-91435000D03*
X148920000Y-91435000D03*
X148420000Y-91435000D03*
X147920000Y-91435000D03*
X147420000Y-91435000D03*
X146920000Y-91435000D03*
X146420000Y-91435000D03*
X145920000Y-91435000D03*
X145420000Y-91435000D03*
X144920000Y-91435000D03*
X144420000Y-91435000D03*
X143920000Y-91435000D03*
X143420000Y-91435000D03*
X142920000Y-91435000D03*
X142420000Y-91435000D03*
X141920000Y-91435000D03*
X141420000Y-91435000D03*
X140920000Y-91435000D03*
X140420000Y-91435000D03*
X139920000Y-91435000D03*
X139420000Y-91435000D03*
X138920000Y-91435000D03*
X138420000Y-91435000D03*
X137920000Y-91435000D03*
D30*
X136245000Y-89760000D03*
X136245000Y-89260000D03*
X136245000Y-88760000D03*
X136245000Y-88260000D03*
X136245000Y-87760000D03*
X136245000Y-87260000D03*
X136245000Y-86760000D03*
X136245000Y-86260000D03*
X136245000Y-85760000D03*
X136245000Y-85260000D03*
X136245000Y-84760000D03*
X136245000Y-84260000D03*
X136245000Y-83760000D03*
X136245000Y-83260000D03*
X136245000Y-82760000D03*
X136245000Y-82260000D03*
X136245000Y-81760000D03*
X136245000Y-81260000D03*
X136245000Y-80760000D03*
X136245000Y-80260000D03*
X136245000Y-79760000D03*
X136245000Y-79260000D03*
X136245000Y-78760000D03*
X136245000Y-78260000D03*
X136245000Y-77760000D03*
D31*
X127320000Y-96290000D03*
X127320000Y-94290000D03*
D32*
X127608500Y-68210000D03*
X133108500Y-68210000D03*
X133108500Y-65010000D03*
X127608500Y-65010000D03*
D15*
X160130000Y-89530000D03*
X158055000Y-89530000D03*
D23*
X140359500Y-125282000D03*
X142434500Y-125282000D03*
X166067500Y-91560000D03*
X163992500Y-91560000D03*
D17*
X168538500Y-125380000D03*
X170538500Y-125380000D03*
X147240000Y-94860000D03*
X145240000Y-94860000D03*
X146558500Y-125316000D03*
X144558500Y-125316000D03*
D25*
X115118500Y-100420000D03*
D11*
X115118500Y-97880000D03*
X115118500Y-95340000D03*
D12*
X133818500Y-72845000D03*
X133818500Y-70770000D03*
D24*
X115128500Y-130580000D03*
X122878500Y-130580000D03*
D18*
X149870000Y-112000000D03*
D19*
X150670000Y-112000000D03*
X151470000Y-112000000D03*
D18*
X152270000Y-112000000D03*
X152270000Y-113800000D03*
D19*
X151470000Y-113800000D03*
X150670000Y-113800000D03*
D18*
X149870000Y-113800000D03*
D17*
X158478500Y-65290000D03*
X156478500Y-65290000D03*
D21*
X144788500Y-65380000D03*
X144788500Y-67455000D03*
D33*
X122458500Y-67337500D03*
X122458500Y-72217500D03*
D24*
X139523500Y-130610000D03*
X147273500Y-130610000D03*
D20*
X154418500Y-58650000D03*
D11*
X156958500Y-58650000D03*
X159498500Y-58650000D03*
X162038500Y-58650000D03*
X164578500Y-58650000D03*
D34*
X129660000Y-105210000D03*
D35*
X122060000Y-105210000D03*
D23*
X164443500Y-125360000D03*
X166518500Y-125360000D03*
D15*
X128988500Y-70920000D03*
X126913500Y-70920000D03*
X154298500Y-67830000D03*
X152223500Y-67830000D03*
D23*
X129330000Y-89670000D03*
X127255000Y-89670000D03*
D36*
X141022500Y-112980000D03*
X138972500Y-112980000D03*
X143110000Y-113000000D03*
X145160000Y-113000000D03*
M02*
