G04 #@! TF.GenerationSoftware,KiCad,Pcbnew,7.0.8*
G04 #@! TF.CreationDate,2023-11-09T09:46:19+07:00*
G04 #@! TF.ProjectId,PCB v2,50434220-7632-42e6-9b69-6361645f7063,rev?*
G04 #@! TF.SameCoordinates,Original*
G04 #@! TF.FileFunction,Soldermask,Bot*
G04 #@! TF.FilePolarity,Negative*
%FSLAX46Y46*%
G04 Gerber Fmt 4.6, Leading zero omitted, Abs format (unit mm)*
G04 Created by KiCad (PCBNEW 7.0.8) date 2023-11-09 09:46:19*
%MOMM*%
%LPD*%
G01*
G04 APERTURE LIST*
G04 Aperture macros list*
%AMRoundRect*
0 Rectangle with rounded corners*
0 $1 Rounding radius*
0 $2 $3 $4 $5 $6 $7 $8 $9 X,Y pos of 4 corners*
0 Add a 4 corners polygon primitive as box body*
4,1,4,$2,$3,$4,$5,$6,$7,$8,$9,$2,$3,0*
0 Add four circle primitives for the rounded corners*
1,1,$1+$1,$2,$3*
1,1,$1+$1,$4,$5*
1,1,$1+$1,$6,$7*
1,1,$1+$1,$8,$9*
0 Add four rect primitives between the rounded corners*
20,1,$1+$1,$2,$3,$4,$5,0*
20,1,$1+$1,$4,$5,$6,$7,0*
20,1,$1+$1,$6,$7,$8,$9,0*
20,1,$1+$1,$8,$9,$2,$3,0*%
G04 Aperture macros list end*
%ADD10RoundRect,0.425000X-0.425000X0.425000X-0.425000X-0.425000X0.425000X-0.425000X0.425000X0.425000X0*%
%ADD11C,1.700000*%
%ADD12C,2.700000*%
%ADD13RoundRect,0.250001X-1.099999X1.099999X-1.099999X-1.099999X1.099999X-1.099999X1.099999X1.099999X0*%
%ADD14RoundRect,0.425000X-0.425000X-0.425000X0.425000X-0.425000X0.425000X0.425000X-0.425000X0.425000X0*%
%ADD15RoundRect,0.425000X0.425000X-0.425000X0.425000X0.425000X-0.425000X0.425000X-0.425000X-0.425000X0*%
%ADD16C,1.500000*%
%ADD17C,2.000000*%
%ADD18R,2.000000X2.000000*%
%ADD19RoundRect,0.250000X0.475000X-0.337500X0.475000X0.337500X-0.475000X0.337500X-0.475000X-0.337500X0*%
%ADD20RoundRect,0.250000X2.050000X0.300000X-2.050000X0.300000X-2.050000X-0.300000X2.050000X-0.300000X0*%
%ADD21RoundRect,0.250002X4.449998X5.149998X-4.449998X5.149998X-4.449998X-5.149998X4.449998X-5.149998X0*%
%ADD22RoundRect,0.250000X-0.650000X1.500000X-0.650000X-1.500000X0.650000X-1.500000X0.650000X1.500000X0*%
%ADD23R,2.900000X5.400000*%
%ADD24R,1.500000X2.000000*%
%ADD25R,3.800000X2.000000*%
%ADD26RoundRect,0.250000X0.450000X-0.350000X0.450000X0.350000X-0.450000X0.350000X-0.450000X-0.350000X0*%
%ADD27RoundRect,0.250000X-0.337500X-0.475000X0.337500X-0.475000X0.337500X0.475000X-0.337500X0.475000X0*%
%ADD28RoundRect,0.250000X-0.875000X-1.025000X0.875000X-1.025000X0.875000X1.025000X-0.875000X1.025000X0*%
%ADD29RoundRect,0.250000X-1.000000X1.950000X-1.000000X-1.950000X1.000000X-1.950000X1.000000X1.950000X0*%
%ADD30RoundRect,0.250000X-1.500000X-0.650000X1.500000X-0.650000X1.500000X0.650000X-1.500000X0.650000X0*%
%ADD31RoundRect,0.250000X0.350000X0.450000X-0.350000X0.450000X-0.350000X-0.450000X0.350000X-0.450000X0*%
G04 APERTURE END LIST*
D10*
X172058500Y-95500000D03*
D11*
X172058500Y-98040000D03*
X172058500Y-100580000D03*
X172058500Y-103120000D03*
D12*
X170930000Y-112252500D03*
D13*
X170930000Y-108292500D03*
D10*
X164358500Y-66080000D03*
D11*
X164358500Y-68620000D03*
X164358500Y-71160000D03*
X164358500Y-73700000D03*
D14*
X138368500Y-58600000D03*
D11*
X140908500Y-58600000D03*
X143448500Y-58600000D03*
X145988500Y-58600000D03*
X148528500Y-58600000D03*
X164890000Y-103160000D03*
X164890000Y-100620000D03*
X164890000Y-98080000D03*
D10*
X164890000Y-95540000D03*
D15*
X115098500Y-108930000D03*
D11*
X115098500Y-106390000D03*
D10*
X171957700Y-60170000D03*
D11*
X171957700Y-62710000D03*
X171957700Y-65250000D03*
X171957700Y-67790000D03*
X171957700Y-70330000D03*
D15*
X115174000Y-70622500D03*
D11*
X115174000Y-68082500D03*
X115174000Y-65542500D03*
X115174000Y-63002500D03*
X115174000Y-60462500D03*
D14*
X122248500Y-58600000D03*
D11*
X124788500Y-58600000D03*
X127328500Y-58600000D03*
X129868500Y-58600000D03*
X132408500Y-58600000D03*
D15*
X115078500Y-89200000D03*
D11*
X115078500Y-86660000D03*
X115078500Y-84120000D03*
X115078500Y-81580000D03*
X115078500Y-79040000D03*
X115078500Y-76500000D03*
X157544500Y-103230000D03*
X157544500Y-100690000D03*
X157544500Y-98150000D03*
D10*
X157544500Y-95610000D03*
X171997700Y-76240000D03*
D11*
X171997700Y-78780000D03*
X171997700Y-81320000D03*
X171997700Y-83860000D03*
X171997700Y-86400000D03*
X171997700Y-88940000D03*
D15*
X115118500Y-100420000D03*
D11*
X115118500Y-97880000D03*
X115118500Y-95340000D03*
D16*
X122458500Y-67337500D03*
X122458500Y-72217500D03*
D14*
X154418500Y-58650000D03*
D11*
X156958500Y-58650000D03*
X159498500Y-58650000D03*
X162038500Y-58650000D03*
X164578500Y-58650000D03*
D17*
X129660000Y-105210000D03*
D18*
X122060000Y-105210000D03*
D19*
X121818500Y-134127500D03*
X121818500Y-132052500D03*
D20*
X159668500Y-118930000D03*
X159668500Y-117230000D03*
D21*
X150518500Y-115530000D03*
D20*
X159668500Y-115530000D03*
X159668500Y-113830000D03*
X159668500Y-112130000D03*
D22*
X125748500Y-121820000D03*
X125748500Y-126820000D03*
D23*
X145048500Y-128530000D03*
X135148500Y-128530000D03*
D24*
X118318500Y-134240000D03*
X116018500Y-134240000D03*
D25*
X116018500Y-127940000D03*
D24*
X113718500Y-134240000D03*
D26*
X128788500Y-127950000D03*
X128788500Y-125950000D03*
D27*
X135780000Y-117530000D03*
X137855000Y-117530000D03*
D28*
X124518500Y-132552500D03*
X130918500Y-132552500D03*
D29*
X154328500Y-133700000D03*
X154328500Y-125300000D03*
D30*
X170658500Y-123950000D03*
X165658500Y-123950000D03*
D31*
X137817500Y-119570000D03*
X135817500Y-119570000D03*
M02*
