G04 #@! TF.GenerationSoftware,KiCad,Pcbnew,7.0.8*
G04 #@! TF.CreationDate,2023-11-09T09:46:19+07:00*
G04 #@! TF.ProjectId,PCB v2,50434220-7632-42e6-9b69-6361645f7063,rev?*
G04 #@! TF.SameCoordinates,Original*
G04 #@! TF.FileFunction,Legend,Top*
G04 #@! TF.FilePolarity,Positive*
%FSLAX46Y46*%
G04 Gerber Fmt 4.6, Leading zero omitted, Abs format (unit mm)*
G04 Created by KiCad (PCBNEW 7.0.8) date 2023-11-09 09:46:19*
%MOMM*%
%LPD*%
G01*
G04 APERTURE LIST*
G04 Aperture macros list*
%AMRoundRect*
0 Rectangle with rounded corners*
0 $1 Rounding radius*
0 $2 $3 $4 $5 $6 $7 $8 $9 X,Y pos of 4 corners*
0 Add a 4 corners polygon primitive as box body*
4,1,4,$2,$3,$4,$5,$6,$7,$8,$9,$2,$3,0*
0 Add four circle primitives for the rounded corners*
1,1,$1+$1,$2,$3*
1,1,$1+$1,$4,$5*
1,1,$1+$1,$6,$7*
1,1,$1+$1,$8,$9*
0 Add four rect primitives between the rounded corners*
20,1,$1+$1,$2,$3,$4,$5,0*
20,1,$1+$1,$4,$5,$6,$7,0*
20,1,$1+$1,$6,$7,$8,$9,0*
20,1,$1+$1,$8,$9,$2,$3,0*%
G04 Aperture macros list end*
%ADD10C,0.250000*%
%ADD11C,0.200000*%
%ADD12C,0.150000*%
%ADD13C,0.100000*%
%ADD14C,0.120000*%
%ADD15C,0.127000*%
%ADD16C,0.203200*%
%ADD17RoundRect,0.425000X-0.425000X0.425000X-0.425000X-0.425000X0.425000X-0.425000X0.425000X0.425000X0*%
%ADD18C,1.700000*%
%ADD19RoundRect,0.250000X0.475000X-0.337500X0.475000X0.337500X-0.475000X0.337500X-0.475000X-0.337500X0*%
%ADD20C,2.700000*%
%ADD21RoundRect,0.250001X-1.099999X1.099999X-1.099999X-1.099999X1.099999X-1.099999X1.099999X1.099999X0*%
%ADD22RoundRect,0.250000X0.337500X0.475000X-0.337500X0.475000X-0.337500X-0.475000X0.337500X-0.475000X0*%
%ADD23RoundRect,0.250000X0.450000X-0.325000X0.450000X0.325000X-0.450000X0.325000X-0.450000X-0.325000X0*%
%ADD24RoundRect,0.250000X0.350000X0.450000X-0.350000X0.450000X-0.350000X-0.450000X0.350000X-0.450000X0*%
%ADD25R,0.500000X0.800000*%
%ADD26R,0.400000X0.800000*%
%ADD27RoundRect,0.425000X-0.425000X-0.425000X0.425000X-0.425000X0.425000X0.425000X-0.425000X0.425000X0*%
%ADD28RoundRect,0.250000X-0.475000X0.337500X-0.475000X-0.337500X0.475000X-0.337500X0.475000X0.337500X0*%
%ADD29RoundRect,0.102000X0.750000X-0.200000X0.750000X0.200000X-0.750000X0.200000X-0.750000X-0.200000X0*%
%ADD30RoundRect,0.250000X-0.337500X-0.475000X0.337500X-0.475000X0.337500X0.475000X-0.337500X0.475000X0*%
%ADD31R,1.250000X1.000000*%
%ADD32RoundRect,0.425000X0.425000X-0.425000X0.425000X0.425000X-0.425000X0.425000X-0.425000X-0.425000X0*%
%ADD33RoundRect,0.150000X0.587500X0.150000X-0.587500X0.150000X-0.587500X-0.150000X0.587500X-0.150000X0*%
%ADD34RoundRect,0.102000X-0.750000X0.200000X-0.750000X-0.200000X0.750000X-0.200000X0.750000X0.200000X0*%
%ADD35RoundRect,0.250000X-0.350000X-0.450000X0.350000X-0.450000X0.350000X0.450000X-0.350000X0.450000X0*%
%ADD36RoundRect,0.075000X-0.075000X-0.725000X0.075000X-0.725000X0.075000X0.725000X-0.075000X0.725000X0*%
%ADD37RoundRect,0.075000X-0.725000X-0.075000X0.725000X-0.075000X0.725000X0.075000X-0.725000X0.075000X0*%
%ADD38RoundRect,0.250000X0.450000X-0.350000X0.450000X0.350000X-0.450000X0.350000X-0.450000X-0.350000X0*%
%ADD39R,1.300000X1.900000*%
%ADD40C,1.500000*%
%ADD41C,2.000000*%
%ADD42R,2.000000X2.000000*%
%ADD43RoundRect,0.250000X0.325000X0.450000X-0.325000X0.450000X-0.325000X-0.450000X0.325000X-0.450000X0*%
G04 APERTURE END LIST*
D10*
X136921034Y-136424619D02*
X136921034Y-135424619D01*
X136921034Y-135424619D02*
X137254367Y-136138904D01*
X137254367Y-136138904D02*
X137587700Y-135424619D01*
X137587700Y-135424619D02*
X137587700Y-136424619D01*
X138063891Y-136424619D02*
X138063891Y-135757952D01*
X138063891Y-135424619D02*
X138016272Y-135472238D01*
X138016272Y-135472238D02*
X138063891Y-135519857D01*
X138063891Y-135519857D02*
X138111510Y-135472238D01*
X138111510Y-135472238D02*
X138063891Y-135424619D01*
X138063891Y-135424619D02*
X138063891Y-135519857D01*
X138968652Y-136377000D02*
X138873414Y-136424619D01*
X138873414Y-136424619D02*
X138682938Y-136424619D01*
X138682938Y-136424619D02*
X138587700Y-136377000D01*
X138587700Y-136377000D02*
X138540081Y-136329380D01*
X138540081Y-136329380D02*
X138492462Y-136234142D01*
X138492462Y-136234142D02*
X138492462Y-135948428D01*
X138492462Y-135948428D02*
X138540081Y-135853190D01*
X138540081Y-135853190D02*
X138587700Y-135805571D01*
X138587700Y-135805571D02*
X138682938Y-135757952D01*
X138682938Y-135757952D02*
X138873414Y-135757952D01*
X138873414Y-135757952D02*
X138968652Y-135805571D01*
X139397224Y-136424619D02*
X139397224Y-135757952D01*
X139397224Y-135948428D02*
X139444843Y-135853190D01*
X139444843Y-135853190D02*
X139492462Y-135805571D01*
X139492462Y-135805571D02*
X139587700Y-135757952D01*
X139587700Y-135757952D02*
X139682938Y-135757952D01*
X140159129Y-136424619D02*
X140063891Y-136377000D01*
X140063891Y-136377000D02*
X140016272Y-136329380D01*
X140016272Y-136329380D02*
X139968653Y-136234142D01*
X139968653Y-136234142D02*
X139968653Y-135948428D01*
X139968653Y-135948428D02*
X140016272Y-135853190D01*
X140016272Y-135853190D02*
X140063891Y-135805571D01*
X140063891Y-135805571D02*
X140159129Y-135757952D01*
X140159129Y-135757952D02*
X140301986Y-135757952D01*
X140301986Y-135757952D02*
X140397224Y-135805571D01*
X140397224Y-135805571D02*
X140444843Y-135853190D01*
X140444843Y-135853190D02*
X140492462Y-135948428D01*
X140492462Y-135948428D02*
X140492462Y-136234142D01*
X140492462Y-136234142D02*
X140444843Y-136329380D01*
X140444843Y-136329380D02*
X140397224Y-136377000D01*
X140397224Y-136377000D02*
X140301986Y-136424619D01*
X140301986Y-136424619D02*
X140159129Y-136424619D01*
X140921034Y-136424619D02*
X140921034Y-135424619D01*
X140921034Y-135424619D02*
X141254367Y-136138904D01*
X141254367Y-136138904D02*
X141587700Y-135424619D01*
X141587700Y-135424619D02*
X141587700Y-136424619D01*
X142206748Y-136424619D02*
X142111510Y-136377000D01*
X142111510Y-136377000D02*
X142063891Y-136329380D01*
X142063891Y-136329380D02*
X142016272Y-136234142D01*
X142016272Y-136234142D02*
X142016272Y-135948428D01*
X142016272Y-135948428D02*
X142063891Y-135853190D01*
X142063891Y-135853190D02*
X142111510Y-135805571D01*
X142111510Y-135805571D02*
X142206748Y-135757952D01*
X142206748Y-135757952D02*
X142349605Y-135757952D01*
X142349605Y-135757952D02*
X142444843Y-135805571D01*
X142444843Y-135805571D02*
X142492462Y-135853190D01*
X142492462Y-135853190D02*
X142540081Y-135948428D01*
X142540081Y-135948428D02*
X142540081Y-136234142D01*
X142540081Y-136234142D02*
X142492462Y-136329380D01*
X142492462Y-136329380D02*
X142444843Y-136377000D01*
X142444843Y-136377000D02*
X142349605Y-136424619D01*
X142349605Y-136424619D02*
X142206748Y-136424619D01*
X143397224Y-135757952D02*
X143397224Y-136424619D01*
X142968653Y-135757952D02*
X142968653Y-136281761D01*
X142968653Y-136281761D02*
X143016272Y-136377000D01*
X143016272Y-136377000D02*
X143111510Y-136424619D01*
X143111510Y-136424619D02*
X143254367Y-136424619D01*
X143254367Y-136424619D02*
X143349605Y-136377000D01*
X143349605Y-136377000D02*
X143397224Y-136329380D01*
X143825796Y-136377000D02*
X143921034Y-136424619D01*
X143921034Y-136424619D02*
X144111510Y-136424619D01*
X144111510Y-136424619D02*
X144206748Y-136377000D01*
X144206748Y-136377000D02*
X144254367Y-136281761D01*
X144254367Y-136281761D02*
X144254367Y-136234142D01*
X144254367Y-136234142D02*
X144206748Y-136138904D01*
X144206748Y-136138904D02*
X144111510Y-136091285D01*
X144111510Y-136091285D02*
X143968653Y-136091285D01*
X143968653Y-136091285D02*
X143873415Y-136043666D01*
X143873415Y-136043666D02*
X143825796Y-135948428D01*
X143825796Y-135948428D02*
X143825796Y-135900809D01*
X143825796Y-135900809D02*
X143873415Y-135805571D01*
X143873415Y-135805571D02*
X143968653Y-135757952D01*
X143968653Y-135757952D02*
X144111510Y-135757952D01*
X144111510Y-135757952D02*
X144206748Y-135805571D01*
X145063891Y-136377000D02*
X144968653Y-136424619D01*
X144968653Y-136424619D02*
X144778177Y-136424619D01*
X144778177Y-136424619D02*
X144682939Y-136377000D01*
X144682939Y-136377000D02*
X144635320Y-136281761D01*
X144635320Y-136281761D02*
X144635320Y-135900809D01*
X144635320Y-135900809D02*
X144682939Y-135805571D01*
X144682939Y-135805571D02*
X144778177Y-135757952D01*
X144778177Y-135757952D02*
X144968653Y-135757952D01*
X144968653Y-135757952D02*
X145063891Y-135805571D01*
X145063891Y-135805571D02*
X145111510Y-135900809D01*
X145111510Y-135900809D02*
X145111510Y-135996047D01*
X145111510Y-135996047D02*
X144635320Y-136091285D01*
X145540082Y-136424619D02*
X145540082Y-135424619D01*
X145540082Y-135424619D02*
X145921034Y-135424619D01*
X145921034Y-135424619D02*
X146016272Y-135472238D01*
X146016272Y-135472238D02*
X146063891Y-135519857D01*
X146063891Y-135519857D02*
X146111510Y-135615095D01*
X146111510Y-135615095D02*
X146111510Y-135757952D01*
X146111510Y-135757952D02*
X146063891Y-135853190D01*
X146063891Y-135853190D02*
X146016272Y-135900809D01*
X146016272Y-135900809D02*
X145921034Y-135948428D01*
X145921034Y-135948428D02*
X145540082Y-135948428D01*
X147111510Y-136329380D02*
X147063891Y-136377000D01*
X147063891Y-136377000D02*
X146921034Y-136424619D01*
X146921034Y-136424619D02*
X146825796Y-136424619D01*
X146825796Y-136424619D02*
X146682939Y-136377000D01*
X146682939Y-136377000D02*
X146587701Y-136281761D01*
X146587701Y-136281761D02*
X146540082Y-136186523D01*
X146540082Y-136186523D02*
X146492463Y-135996047D01*
X146492463Y-135996047D02*
X146492463Y-135853190D01*
X146492463Y-135853190D02*
X146540082Y-135662714D01*
X146540082Y-135662714D02*
X146587701Y-135567476D01*
X146587701Y-135567476D02*
X146682939Y-135472238D01*
X146682939Y-135472238D02*
X146825796Y-135424619D01*
X146825796Y-135424619D02*
X146921034Y-135424619D01*
X146921034Y-135424619D02*
X147063891Y-135472238D01*
X147063891Y-135472238D02*
X147111510Y-135519857D01*
X147873415Y-135900809D02*
X148016272Y-135948428D01*
X148016272Y-135948428D02*
X148063891Y-135996047D01*
X148063891Y-135996047D02*
X148111510Y-136091285D01*
X148111510Y-136091285D02*
X148111510Y-136234142D01*
X148111510Y-136234142D02*
X148063891Y-136329380D01*
X148063891Y-136329380D02*
X148016272Y-136377000D01*
X148016272Y-136377000D02*
X147921034Y-136424619D01*
X147921034Y-136424619D02*
X147540082Y-136424619D01*
X147540082Y-136424619D02*
X147540082Y-135424619D01*
X147540082Y-135424619D02*
X147873415Y-135424619D01*
X147873415Y-135424619D02*
X147968653Y-135472238D01*
X147968653Y-135472238D02*
X148016272Y-135519857D01*
X148016272Y-135519857D02*
X148063891Y-135615095D01*
X148063891Y-135615095D02*
X148063891Y-135710333D01*
X148063891Y-135710333D02*
X148016272Y-135805571D01*
X148016272Y-135805571D02*
X147968653Y-135853190D01*
X147968653Y-135853190D02*
X147873415Y-135900809D01*
X147873415Y-135900809D02*
X147540082Y-135900809D01*
X148301987Y-136519857D02*
X149063891Y-136519857D01*
X149159130Y-135424619D02*
X149492463Y-136424619D01*
X149492463Y-136424619D02*
X149825796Y-135424619D01*
X150111511Y-135519857D02*
X150159130Y-135472238D01*
X150159130Y-135472238D02*
X150254368Y-135424619D01*
X150254368Y-135424619D02*
X150492463Y-135424619D01*
X150492463Y-135424619D02*
X150587701Y-135472238D01*
X150587701Y-135472238D02*
X150635320Y-135519857D01*
X150635320Y-135519857D02*
X150682939Y-135615095D01*
X150682939Y-135615095D02*
X150682939Y-135710333D01*
X150682939Y-135710333D02*
X150635320Y-135853190D01*
X150635320Y-135853190D02*
X150063892Y-136424619D01*
X150063892Y-136424619D02*
X150682939Y-136424619D01*
D11*
X174863900Y-96287619D02*
X174816280Y-96430476D01*
X174816280Y-96430476D02*
X174816280Y-96668571D01*
X174816280Y-96668571D02*
X174863900Y-96763809D01*
X174863900Y-96763809D02*
X174911519Y-96811428D01*
X174911519Y-96811428D02*
X175006757Y-96859047D01*
X175006757Y-96859047D02*
X175101995Y-96859047D01*
X175101995Y-96859047D02*
X175197233Y-96811428D01*
X175197233Y-96811428D02*
X175244852Y-96763809D01*
X175244852Y-96763809D02*
X175292471Y-96668571D01*
X175292471Y-96668571D02*
X175340090Y-96478095D01*
X175340090Y-96478095D02*
X175387709Y-96382857D01*
X175387709Y-96382857D02*
X175435328Y-96335238D01*
X175435328Y-96335238D02*
X175530566Y-96287619D01*
X175530566Y-96287619D02*
X175625804Y-96287619D01*
X175625804Y-96287619D02*
X175721042Y-96335238D01*
X175721042Y-96335238D02*
X175768661Y-96382857D01*
X175768661Y-96382857D02*
X175816280Y-96478095D01*
X175816280Y-96478095D02*
X175816280Y-96716190D01*
X175816280Y-96716190D02*
X175768661Y-96859047D01*
X175816280Y-97144762D02*
X175816280Y-97716190D01*
X174816280Y-97430476D02*
X175816280Y-97430476D01*
X175197233Y-98049524D02*
X175197233Y-98811429D01*
X174816280Y-99763809D02*
X174816280Y-99287619D01*
X174816280Y-99287619D02*
X175816280Y-99287619D01*
X174816280Y-100097143D02*
X175816280Y-100097143D01*
X174816280Y-100573333D02*
X175816280Y-100573333D01*
X175816280Y-100573333D02*
X174816280Y-101144761D01*
X174816280Y-101144761D02*
X175816280Y-101144761D01*
X174816280Y-101620952D02*
X175816280Y-101620952D01*
X174816280Y-102192380D02*
X175387709Y-101763809D01*
X175816280Y-102192380D02*
X175244852Y-101620952D01*
D12*
X131739580Y-75992857D02*
X131787200Y-76040476D01*
X131787200Y-76040476D02*
X131834819Y-76183333D01*
X131834819Y-76183333D02*
X131834819Y-76278571D01*
X131834819Y-76278571D02*
X131787200Y-76421428D01*
X131787200Y-76421428D02*
X131691961Y-76516666D01*
X131691961Y-76516666D02*
X131596723Y-76564285D01*
X131596723Y-76564285D02*
X131406247Y-76611904D01*
X131406247Y-76611904D02*
X131263390Y-76611904D01*
X131263390Y-76611904D02*
X131072914Y-76564285D01*
X131072914Y-76564285D02*
X130977676Y-76516666D01*
X130977676Y-76516666D02*
X130882438Y-76421428D01*
X130882438Y-76421428D02*
X130834819Y-76278571D01*
X130834819Y-76278571D02*
X130834819Y-76183333D01*
X130834819Y-76183333D02*
X130882438Y-76040476D01*
X130882438Y-76040476D02*
X130930057Y-75992857D01*
X131834819Y-75040476D02*
X131834819Y-75611904D01*
X131834819Y-75326190D02*
X130834819Y-75326190D01*
X130834819Y-75326190D02*
X130977676Y-75421428D01*
X130977676Y-75421428D02*
X131072914Y-75516666D01*
X131072914Y-75516666D02*
X131120533Y-75611904D01*
X130834819Y-74183333D02*
X130834819Y-74373809D01*
X130834819Y-74373809D02*
X130882438Y-74469047D01*
X130882438Y-74469047D02*
X130930057Y-74516666D01*
X130930057Y-74516666D02*
X131072914Y-74611904D01*
X131072914Y-74611904D02*
X131263390Y-74659523D01*
X131263390Y-74659523D02*
X131644342Y-74659523D01*
X131644342Y-74659523D02*
X131739580Y-74611904D01*
X131739580Y-74611904D02*
X131787200Y-74564285D01*
X131787200Y-74564285D02*
X131834819Y-74469047D01*
X131834819Y-74469047D02*
X131834819Y-74278571D01*
X131834819Y-74278571D02*
X131787200Y-74183333D01*
X131787200Y-74183333D02*
X131739580Y-74135714D01*
X131739580Y-74135714D02*
X131644342Y-74088095D01*
X131644342Y-74088095D02*
X131406247Y-74088095D01*
X131406247Y-74088095D02*
X131311009Y-74135714D01*
X131311009Y-74135714D02*
X131263390Y-74183333D01*
X131263390Y-74183333D02*
X131215771Y-74278571D01*
X131215771Y-74278571D02*
X131215771Y-74469047D01*
X131215771Y-74469047D02*
X131263390Y-74564285D01*
X131263390Y-74564285D02*
X131311009Y-74611904D01*
X131311009Y-74611904D02*
X131406247Y-74659523D01*
D11*
X166258571Y-115802219D02*
X166258571Y-114802219D01*
X166258571Y-114802219D02*
X166639523Y-114802219D01*
X166639523Y-114802219D02*
X166734761Y-114849838D01*
X166734761Y-114849838D02*
X166782380Y-114897457D01*
X166782380Y-114897457D02*
X166829999Y-114992695D01*
X166829999Y-114992695D02*
X166829999Y-115135552D01*
X166829999Y-115135552D02*
X166782380Y-115230790D01*
X166782380Y-115230790D02*
X166734761Y-115278409D01*
X166734761Y-115278409D02*
X166639523Y-115326028D01*
X166639523Y-115326028D02*
X166258571Y-115326028D01*
X167449047Y-114802219D02*
X167639523Y-114802219D01*
X167639523Y-114802219D02*
X167734761Y-114849838D01*
X167734761Y-114849838D02*
X167829999Y-114945076D01*
X167829999Y-114945076D02*
X167877618Y-115135552D01*
X167877618Y-115135552D02*
X167877618Y-115468885D01*
X167877618Y-115468885D02*
X167829999Y-115659361D01*
X167829999Y-115659361D02*
X167734761Y-115754600D01*
X167734761Y-115754600D02*
X167639523Y-115802219D01*
X167639523Y-115802219D02*
X167449047Y-115802219D01*
X167449047Y-115802219D02*
X167353809Y-115754600D01*
X167353809Y-115754600D02*
X167258571Y-115659361D01*
X167258571Y-115659361D02*
X167210952Y-115468885D01*
X167210952Y-115468885D02*
X167210952Y-115135552D01*
X167210952Y-115135552D02*
X167258571Y-114945076D01*
X167258571Y-114945076D02*
X167353809Y-114849838D01*
X167353809Y-114849838D02*
X167449047Y-114802219D01*
X168210952Y-114802219D02*
X168449047Y-115802219D01*
X168449047Y-115802219D02*
X168639523Y-115087933D01*
X168639523Y-115087933D02*
X168829999Y-115802219D01*
X168829999Y-115802219D02*
X169068095Y-114802219D01*
X169449047Y-115278409D02*
X169782380Y-115278409D01*
X169925237Y-115802219D02*
X169449047Y-115802219D01*
X169449047Y-115802219D02*
X169449047Y-114802219D01*
X169449047Y-114802219D02*
X169925237Y-114802219D01*
X170925237Y-115802219D02*
X170591904Y-115326028D01*
X170353809Y-115802219D02*
X170353809Y-114802219D01*
X170353809Y-114802219D02*
X170734761Y-114802219D01*
X170734761Y-114802219D02*
X170829999Y-114849838D01*
X170829999Y-114849838D02*
X170877618Y-114897457D01*
X170877618Y-114897457D02*
X170925237Y-114992695D01*
X170925237Y-114992695D02*
X170925237Y-115135552D01*
X170925237Y-115135552D02*
X170877618Y-115230790D01*
X170877618Y-115230790D02*
X170829999Y-115278409D01*
X170829999Y-115278409D02*
X170734761Y-115326028D01*
X170734761Y-115326028D02*
X170353809Y-115326028D01*
X172639523Y-115802219D02*
X172068095Y-115802219D01*
X172353809Y-115802219D02*
X172353809Y-114802219D01*
X172353809Y-114802219D02*
X172258571Y-114945076D01*
X172258571Y-114945076D02*
X172163333Y-115040314D01*
X172163333Y-115040314D02*
X172068095Y-115087933D01*
X173020476Y-114897457D02*
X173068095Y-114849838D01*
X173068095Y-114849838D02*
X173163333Y-114802219D01*
X173163333Y-114802219D02*
X173401428Y-114802219D01*
X173401428Y-114802219D02*
X173496666Y-114849838D01*
X173496666Y-114849838D02*
X173544285Y-114897457D01*
X173544285Y-114897457D02*
X173591904Y-114992695D01*
X173591904Y-114992695D02*
X173591904Y-115087933D01*
X173591904Y-115087933D02*
X173544285Y-115230790D01*
X173544285Y-115230790D02*
X172972857Y-115802219D01*
X172972857Y-115802219D02*
X173591904Y-115802219D01*
X173877619Y-114802219D02*
X174210952Y-115802219D01*
X174210952Y-115802219D02*
X174544285Y-114802219D01*
D12*
X121202142Y-91899580D02*
X121154523Y-91947200D01*
X121154523Y-91947200D02*
X121011666Y-91994819D01*
X121011666Y-91994819D02*
X120916428Y-91994819D01*
X120916428Y-91994819D02*
X120773571Y-91947200D01*
X120773571Y-91947200D02*
X120678333Y-91851961D01*
X120678333Y-91851961D02*
X120630714Y-91756723D01*
X120630714Y-91756723D02*
X120583095Y-91566247D01*
X120583095Y-91566247D02*
X120583095Y-91423390D01*
X120583095Y-91423390D02*
X120630714Y-91232914D01*
X120630714Y-91232914D02*
X120678333Y-91137676D01*
X120678333Y-91137676D02*
X120773571Y-91042438D01*
X120773571Y-91042438D02*
X120916428Y-90994819D01*
X120916428Y-90994819D02*
X121011666Y-90994819D01*
X121011666Y-90994819D02*
X121154523Y-91042438D01*
X121154523Y-91042438D02*
X121202142Y-91090057D01*
X121583095Y-91090057D02*
X121630714Y-91042438D01*
X121630714Y-91042438D02*
X121725952Y-90994819D01*
X121725952Y-90994819D02*
X121964047Y-90994819D01*
X121964047Y-90994819D02*
X122059285Y-91042438D01*
X122059285Y-91042438D02*
X122106904Y-91090057D01*
X122106904Y-91090057D02*
X122154523Y-91185295D01*
X122154523Y-91185295D02*
X122154523Y-91280533D01*
X122154523Y-91280533D02*
X122106904Y-91423390D01*
X122106904Y-91423390D02*
X121535476Y-91994819D01*
X121535476Y-91994819D02*
X122154523Y-91994819D01*
X122535476Y-91090057D02*
X122583095Y-91042438D01*
X122583095Y-91042438D02*
X122678333Y-90994819D01*
X122678333Y-90994819D02*
X122916428Y-90994819D01*
X122916428Y-90994819D02*
X123011666Y-91042438D01*
X123011666Y-91042438D02*
X123059285Y-91090057D01*
X123059285Y-91090057D02*
X123106904Y-91185295D01*
X123106904Y-91185295D02*
X123106904Y-91280533D01*
X123106904Y-91280533D02*
X123059285Y-91423390D01*
X123059285Y-91423390D02*
X122487857Y-91994819D01*
X122487857Y-91994819D02*
X123106904Y-91994819D01*
X149874819Y-120649285D02*
X148874819Y-120649285D01*
X148874819Y-120649285D02*
X148874819Y-120411190D01*
X148874819Y-120411190D02*
X148922438Y-120268333D01*
X148922438Y-120268333D02*
X149017676Y-120173095D01*
X149017676Y-120173095D02*
X149112914Y-120125476D01*
X149112914Y-120125476D02*
X149303390Y-120077857D01*
X149303390Y-120077857D02*
X149446247Y-120077857D01*
X149446247Y-120077857D02*
X149636723Y-120125476D01*
X149636723Y-120125476D02*
X149731961Y-120173095D01*
X149731961Y-120173095D02*
X149827200Y-120268333D01*
X149827200Y-120268333D02*
X149874819Y-120411190D01*
X149874819Y-120411190D02*
X149874819Y-120649285D01*
X149874819Y-119125476D02*
X149874819Y-119696904D01*
X149874819Y-119411190D02*
X148874819Y-119411190D01*
X148874819Y-119411190D02*
X149017676Y-119506428D01*
X149017676Y-119506428D02*
X149112914Y-119601666D01*
X149112914Y-119601666D02*
X149160533Y-119696904D01*
X148874819Y-118506428D02*
X148874819Y-118411190D01*
X148874819Y-118411190D02*
X148922438Y-118315952D01*
X148922438Y-118315952D02*
X148970057Y-118268333D01*
X148970057Y-118268333D02*
X149065295Y-118220714D01*
X149065295Y-118220714D02*
X149255771Y-118173095D01*
X149255771Y-118173095D02*
X149493866Y-118173095D01*
X149493866Y-118173095D02*
X149684342Y-118220714D01*
X149684342Y-118220714D02*
X149779580Y-118268333D01*
X149779580Y-118268333D02*
X149827200Y-118315952D01*
X149827200Y-118315952D02*
X149874819Y-118411190D01*
X149874819Y-118411190D02*
X149874819Y-118506428D01*
X149874819Y-118506428D02*
X149827200Y-118601666D01*
X149827200Y-118601666D02*
X149779580Y-118649285D01*
X149779580Y-118649285D02*
X149684342Y-118696904D01*
X149684342Y-118696904D02*
X149493866Y-118744523D01*
X149493866Y-118744523D02*
X149255771Y-118744523D01*
X149255771Y-118744523D02*
X149065295Y-118696904D01*
X149065295Y-118696904D02*
X148970057Y-118649285D01*
X148970057Y-118649285D02*
X148922438Y-118601666D01*
X148922438Y-118601666D02*
X148874819Y-118506428D01*
D11*
X167126280Y-68602857D02*
X168126280Y-68602857D01*
X168126280Y-68602857D02*
X167411995Y-68936190D01*
X167411995Y-68936190D02*
X168126280Y-69269523D01*
X168126280Y-69269523D02*
X167126280Y-69269523D01*
X167126280Y-69745714D02*
X168126280Y-69745714D01*
X168126280Y-69745714D02*
X168126280Y-70126666D01*
X168126280Y-70126666D02*
X168078661Y-70221904D01*
X168078661Y-70221904D02*
X168031042Y-70269523D01*
X168031042Y-70269523D02*
X167935804Y-70317142D01*
X167935804Y-70317142D02*
X167792947Y-70317142D01*
X167792947Y-70317142D02*
X167697709Y-70269523D01*
X167697709Y-70269523D02*
X167650090Y-70221904D01*
X167650090Y-70221904D02*
X167602471Y-70126666D01*
X167602471Y-70126666D02*
X167602471Y-69745714D01*
X168126280Y-70745714D02*
X167316757Y-70745714D01*
X167316757Y-70745714D02*
X167221519Y-70793333D01*
X167221519Y-70793333D02*
X167173900Y-70840952D01*
X167173900Y-70840952D02*
X167126280Y-70936190D01*
X167126280Y-70936190D02*
X167126280Y-71126666D01*
X167126280Y-71126666D02*
X167173900Y-71221904D01*
X167173900Y-71221904D02*
X167221519Y-71269523D01*
X167221519Y-71269523D02*
X167316757Y-71317142D01*
X167316757Y-71317142D02*
X168126280Y-71317142D01*
D12*
X129434819Y-120003094D02*
X128434819Y-120003094D01*
X128434819Y-120003094D02*
X128434819Y-119764999D01*
X128434819Y-119764999D02*
X128482438Y-119622142D01*
X128482438Y-119622142D02*
X128577676Y-119526904D01*
X128577676Y-119526904D02*
X128672914Y-119479285D01*
X128672914Y-119479285D02*
X128863390Y-119431666D01*
X128863390Y-119431666D02*
X129006247Y-119431666D01*
X129006247Y-119431666D02*
X129196723Y-119479285D01*
X129196723Y-119479285D02*
X129291961Y-119526904D01*
X129291961Y-119526904D02*
X129387200Y-119622142D01*
X129387200Y-119622142D02*
X129434819Y-119764999D01*
X129434819Y-119764999D02*
X129434819Y-120003094D01*
X128434819Y-118574523D02*
X128434819Y-118764999D01*
X128434819Y-118764999D02*
X128482438Y-118860237D01*
X128482438Y-118860237D02*
X128530057Y-118907856D01*
X128530057Y-118907856D02*
X128672914Y-119003094D01*
X128672914Y-119003094D02*
X128863390Y-119050713D01*
X128863390Y-119050713D02*
X129244342Y-119050713D01*
X129244342Y-119050713D02*
X129339580Y-119003094D01*
X129339580Y-119003094D02*
X129387200Y-118955475D01*
X129387200Y-118955475D02*
X129434819Y-118860237D01*
X129434819Y-118860237D02*
X129434819Y-118669761D01*
X129434819Y-118669761D02*
X129387200Y-118574523D01*
X129387200Y-118574523D02*
X129339580Y-118526904D01*
X129339580Y-118526904D02*
X129244342Y-118479285D01*
X129244342Y-118479285D02*
X129006247Y-118479285D01*
X129006247Y-118479285D02*
X128911009Y-118526904D01*
X128911009Y-118526904D02*
X128863390Y-118574523D01*
X128863390Y-118574523D02*
X128815771Y-118669761D01*
X128815771Y-118669761D02*
X128815771Y-118860237D01*
X128815771Y-118860237D02*
X128863390Y-118955475D01*
X128863390Y-118955475D02*
X128911009Y-119003094D01*
X128911009Y-119003094D02*
X129006247Y-119050713D01*
X149993333Y-96964819D02*
X149660000Y-96488628D01*
X149421905Y-96964819D02*
X149421905Y-95964819D01*
X149421905Y-95964819D02*
X149802857Y-95964819D01*
X149802857Y-95964819D02*
X149898095Y-96012438D01*
X149898095Y-96012438D02*
X149945714Y-96060057D01*
X149945714Y-96060057D02*
X149993333Y-96155295D01*
X149993333Y-96155295D02*
X149993333Y-96298152D01*
X149993333Y-96298152D02*
X149945714Y-96393390D01*
X149945714Y-96393390D02*
X149898095Y-96441009D01*
X149898095Y-96441009D02*
X149802857Y-96488628D01*
X149802857Y-96488628D02*
X149421905Y-96488628D01*
X150850476Y-96298152D02*
X150850476Y-96964819D01*
X150612381Y-95917200D02*
X150374286Y-96631485D01*
X150374286Y-96631485D02*
X150993333Y-96631485D01*
X132679523Y-115664819D02*
X132346190Y-115188628D01*
X132108095Y-115664819D02*
X132108095Y-114664819D01*
X132108095Y-114664819D02*
X132489047Y-114664819D01*
X132489047Y-114664819D02*
X132584285Y-114712438D01*
X132584285Y-114712438D02*
X132631904Y-114760057D01*
X132631904Y-114760057D02*
X132679523Y-114855295D01*
X132679523Y-114855295D02*
X132679523Y-114998152D01*
X132679523Y-114998152D02*
X132631904Y-115093390D01*
X132631904Y-115093390D02*
X132584285Y-115141009D01*
X132584285Y-115141009D02*
X132489047Y-115188628D01*
X132489047Y-115188628D02*
X132108095Y-115188628D01*
X133108095Y-115664819D02*
X133108095Y-114664819D01*
X133108095Y-114664819D02*
X133679523Y-115664819D01*
X133679523Y-115664819D02*
X133679523Y-114664819D01*
X134679523Y-115664819D02*
X134108095Y-115664819D01*
X134393809Y-115664819D02*
X134393809Y-114664819D01*
X134393809Y-114664819D02*
X134298571Y-114807676D01*
X134298571Y-114807676D02*
X134203333Y-114902914D01*
X134203333Y-114902914D02*
X134108095Y-114950533D01*
X144774819Y-120063094D02*
X143774819Y-120063094D01*
X143774819Y-120063094D02*
X143774819Y-119824999D01*
X143774819Y-119824999D02*
X143822438Y-119682142D01*
X143822438Y-119682142D02*
X143917676Y-119586904D01*
X143917676Y-119586904D02*
X144012914Y-119539285D01*
X144012914Y-119539285D02*
X144203390Y-119491666D01*
X144203390Y-119491666D02*
X144346247Y-119491666D01*
X144346247Y-119491666D02*
X144536723Y-119539285D01*
X144536723Y-119539285D02*
X144631961Y-119586904D01*
X144631961Y-119586904D02*
X144727200Y-119682142D01*
X144727200Y-119682142D02*
X144774819Y-119824999D01*
X144774819Y-119824999D02*
X144774819Y-120063094D01*
X144774819Y-119015475D02*
X144774819Y-118824999D01*
X144774819Y-118824999D02*
X144727200Y-118729761D01*
X144727200Y-118729761D02*
X144679580Y-118682142D01*
X144679580Y-118682142D02*
X144536723Y-118586904D01*
X144536723Y-118586904D02*
X144346247Y-118539285D01*
X144346247Y-118539285D02*
X143965295Y-118539285D01*
X143965295Y-118539285D02*
X143870057Y-118586904D01*
X143870057Y-118586904D02*
X143822438Y-118634523D01*
X143822438Y-118634523D02*
X143774819Y-118729761D01*
X143774819Y-118729761D02*
X143774819Y-118920237D01*
X143774819Y-118920237D02*
X143822438Y-119015475D01*
X143822438Y-119015475D02*
X143870057Y-119063094D01*
X143870057Y-119063094D02*
X143965295Y-119110713D01*
X143965295Y-119110713D02*
X144203390Y-119110713D01*
X144203390Y-119110713D02*
X144298628Y-119063094D01*
X144298628Y-119063094D02*
X144346247Y-119015475D01*
X144346247Y-119015475D02*
X144393866Y-118920237D01*
X144393866Y-118920237D02*
X144393866Y-118729761D01*
X144393866Y-118729761D02*
X144346247Y-118634523D01*
X144346247Y-118634523D02*
X144298628Y-118586904D01*
X144298628Y-118586904D02*
X144203390Y-118539285D01*
X154914819Y-120539285D02*
X153914819Y-120539285D01*
X153914819Y-120539285D02*
X153914819Y-120301190D01*
X153914819Y-120301190D02*
X153962438Y-120158333D01*
X153962438Y-120158333D02*
X154057676Y-120063095D01*
X154057676Y-120063095D02*
X154152914Y-120015476D01*
X154152914Y-120015476D02*
X154343390Y-119967857D01*
X154343390Y-119967857D02*
X154486247Y-119967857D01*
X154486247Y-119967857D02*
X154676723Y-120015476D01*
X154676723Y-120015476D02*
X154771961Y-120063095D01*
X154771961Y-120063095D02*
X154867200Y-120158333D01*
X154867200Y-120158333D02*
X154914819Y-120301190D01*
X154914819Y-120301190D02*
X154914819Y-120539285D01*
X154914819Y-119015476D02*
X154914819Y-119586904D01*
X154914819Y-119301190D02*
X153914819Y-119301190D01*
X153914819Y-119301190D02*
X154057676Y-119396428D01*
X154057676Y-119396428D02*
X154152914Y-119491666D01*
X154152914Y-119491666D02*
X154200533Y-119586904D01*
X154914819Y-118063095D02*
X154914819Y-118634523D01*
X154914819Y-118348809D02*
X153914819Y-118348809D01*
X153914819Y-118348809D02*
X154057676Y-118444047D01*
X154057676Y-118444047D02*
X154152914Y-118539285D01*
X154152914Y-118539285D02*
X154200533Y-118634523D01*
D11*
X140762785Y-55692219D02*
X140286595Y-55692219D01*
X140286595Y-55692219D02*
X140286595Y-54692219D01*
X141048500Y-55406504D02*
X141524690Y-55406504D01*
X140953262Y-55692219D02*
X141286595Y-54692219D01*
X141286595Y-54692219D02*
X141619928Y-55692219D01*
X141905643Y-55644600D02*
X142048500Y-55692219D01*
X142048500Y-55692219D02*
X142286595Y-55692219D01*
X142286595Y-55692219D02*
X142381833Y-55644600D01*
X142381833Y-55644600D02*
X142429452Y-55596980D01*
X142429452Y-55596980D02*
X142477071Y-55501742D01*
X142477071Y-55501742D02*
X142477071Y-55406504D01*
X142477071Y-55406504D02*
X142429452Y-55311266D01*
X142429452Y-55311266D02*
X142381833Y-55263647D01*
X142381833Y-55263647D02*
X142286595Y-55216028D01*
X142286595Y-55216028D02*
X142096119Y-55168409D01*
X142096119Y-55168409D02*
X142000881Y-55120790D01*
X142000881Y-55120790D02*
X141953262Y-55073171D01*
X141953262Y-55073171D02*
X141905643Y-54977933D01*
X141905643Y-54977933D02*
X141905643Y-54882695D01*
X141905643Y-54882695D02*
X141953262Y-54787457D01*
X141953262Y-54787457D02*
X142000881Y-54739838D01*
X142000881Y-54739838D02*
X142096119Y-54692219D01*
X142096119Y-54692219D02*
X142334214Y-54692219D01*
X142334214Y-54692219D02*
X142477071Y-54739838D01*
X142905643Y-55168409D02*
X143238976Y-55168409D01*
X143381833Y-55692219D02*
X142905643Y-55692219D01*
X142905643Y-55692219D02*
X142905643Y-54692219D01*
X142905643Y-54692219D02*
X143381833Y-54692219D01*
X144381833Y-55692219D02*
X144048500Y-55216028D01*
X143810405Y-55692219D02*
X143810405Y-54692219D01*
X143810405Y-54692219D02*
X144191357Y-54692219D01*
X144191357Y-54692219D02*
X144286595Y-54739838D01*
X144286595Y-54739838D02*
X144334214Y-54787457D01*
X144334214Y-54787457D02*
X144381833Y-54882695D01*
X144381833Y-54882695D02*
X144381833Y-55025552D01*
X144381833Y-55025552D02*
X144334214Y-55120790D01*
X144334214Y-55120790D02*
X144286595Y-55168409D01*
X144286595Y-55168409D02*
X144191357Y-55216028D01*
X144191357Y-55216028D02*
X143810405Y-55216028D01*
X144572310Y-55787457D02*
X145334214Y-55787457D01*
X145905643Y-55168409D02*
X145572310Y-55168409D01*
X145572310Y-55692219D02*
X145572310Y-54692219D01*
X145572310Y-54692219D02*
X146048500Y-54692219D01*
X146762786Y-55168409D02*
X146429453Y-55168409D01*
X146429453Y-55692219D02*
X146429453Y-54692219D01*
X146429453Y-54692219D02*
X146905643Y-54692219D01*
D12*
X127569580Y-77066666D02*
X127617200Y-77114285D01*
X127617200Y-77114285D02*
X127664819Y-77257142D01*
X127664819Y-77257142D02*
X127664819Y-77352380D01*
X127664819Y-77352380D02*
X127617200Y-77495237D01*
X127617200Y-77495237D02*
X127521961Y-77590475D01*
X127521961Y-77590475D02*
X127426723Y-77638094D01*
X127426723Y-77638094D02*
X127236247Y-77685713D01*
X127236247Y-77685713D02*
X127093390Y-77685713D01*
X127093390Y-77685713D02*
X126902914Y-77638094D01*
X126902914Y-77638094D02*
X126807676Y-77590475D01*
X126807676Y-77590475D02*
X126712438Y-77495237D01*
X126712438Y-77495237D02*
X126664819Y-77352380D01*
X126664819Y-77352380D02*
X126664819Y-77257142D01*
X126664819Y-77257142D02*
X126712438Y-77114285D01*
X126712438Y-77114285D02*
X126760057Y-77066666D01*
X126664819Y-76209523D02*
X126664819Y-76399999D01*
X126664819Y-76399999D02*
X126712438Y-76495237D01*
X126712438Y-76495237D02*
X126760057Y-76542856D01*
X126760057Y-76542856D02*
X126902914Y-76638094D01*
X126902914Y-76638094D02*
X127093390Y-76685713D01*
X127093390Y-76685713D02*
X127474342Y-76685713D01*
X127474342Y-76685713D02*
X127569580Y-76638094D01*
X127569580Y-76638094D02*
X127617200Y-76590475D01*
X127617200Y-76590475D02*
X127664819Y-76495237D01*
X127664819Y-76495237D02*
X127664819Y-76304761D01*
X127664819Y-76304761D02*
X127617200Y-76209523D01*
X127617200Y-76209523D02*
X127569580Y-76161904D01*
X127569580Y-76161904D02*
X127474342Y-76114285D01*
X127474342Y-76114285D02*
X127236247Y-76114285D01*
X127236247Y-76114285D02*
X127141009Y-76161904D01*
X127141009Y-76161904D02*
X127093390Y-76209523D01*
X127093390Y-76209523D02*
X127045771Y-76304761D01*
X127045771Y-76304761D02*
X127045771Y-76495237D01*
X127045771Y-76495237D02*
X127093390Y-76590475D01*
X127093390Y-76590475D02*
X127141009Y-76638094D01*
X127141009Y-76638094D02*
X127236247Y-76685713D01*
X161606685Y-77233825D02*
X161606685Y-78044846D01*
X161606685Y-78044846D02*
X161654392Y-78140260D01*
X161654392Y-78140260D02*
X161702100Y-78187968D01*
X161702100Y-78187968D02*
X161797514Y-78235675D01*
X161797514Y-78235675D02*
X161988342Y-78235675D01*
X161988342Y-78235675D02*
X162083757Y-78187968D01*
X162083757Y-78187968D02*
X162131464Y-78140260D01*
X162131464Y-78140260D02*
X162179171Y-78044846D01*
X162179171Y-78044846D02*
X162179171Y-77233825D01*
X163133314Y-77233825D02*
X162656242Y-77233825D01*
X162656242Y-77233825D02*
X162608535Y-77710896D01*
X162608535Y-77710896D02*
X162656242Y-77663189D01*
X162656242Y-77663189D02*
X162751657Y-77615482D01*
X162751657Y-77615482D02*
X162990192Y-77615482D01*
X162990192Y-77615482D02*
X163085607Y-77663189D01*
X163085607Y-77663189D02*
X163133314Y-77710896D01*
X163133314Y-77710896D02*
X163181021Y-77806310D01*
X163181021Y-77806310D02*
X163181021Y-78044846D01*
X163181021Y-78044846D02*
X163133314Y-78140260D01*
X163133314Y-78140260D02*
X163085607Y-78187968D01*
X163085607Y-78187968D02*
X162990192Y-78235675D01*
X162990192Y-78235675D02*
X162751657Y-78235675D01*
X162751657Y-78235675D02*
X162656242Y-78187968D01*
X162656242Y-78187968D02*
X162608535Y-78140260D01*
X152752142Y-123995580D02*
X152704523Y-124043200D01*
X152704523Y-124043200D02*
X152561666Y-124090819D01*
X152561666Y-124090819D02*
X152466428Y-124090819D01*
X152466428Y-124090819D02*
X152323571Y-124043200D01*
X152323571Y-124043200D02*
X152228333Y-123947961D01*
X152228333Y-123947961D02*
X152180714Y-123852723D01*
X152180714Y-123852723D02*
X152133095Y-123662247D01*
X152133095Y-123662247D02*
X152133095Y-123519390D01*
X152133095Y-123519390D02*
X152180714Y-123328914D01*
X152180714Y-123328914D02*
X152228333Y-123233676D01*
X152228333Y-123233676D02*
X152323571Y-123138438D01*
X152323571Y-123138438D02*
X152466428Y-123090819D01*
X152466428Y-123090819D02*
X152561666Y-123090819D01*
X152561666Y-123090819D02*
X152704523Y-123138438D01*
X152704523Y-123138438D02*
X152752142Y-123186057D01*
X153133095Y-123186057D02*
X153180714Y-123138438D01*
X153180714Y-123138438D02*
X153275952Y-123090819D01*
X153275952Y-123090819D02*
X153514047Y-123090819D01*
X153514047Y-123090819D02*
X153609285Y-123138438D01*
X153609285Y-123138438D02*
X153656904Y-123186057D01*
X153656904Y-123186057D02*
X153704523Y-123281295D01*
X153704523Y-123281295D02*
X153704523Y-123376533D01*
X153704523Y-123376533D02*
X153656904Y-123519390D01*
X153656904Y-123519390D02*
X153085476Y-124090819D01*
X153085476Y-124090819D02*
X153704523Y-124090819D01*
X154561666Y-123090819D02*
X154371190Y-123090819D01*
X154371190Y-123090819D02*
X154275952Y-123138438D01*
X154275952Y-123138438D02*
X154228333Y-123186057D01*
X154228333Y-123186057D02*
X154133095Y-123328914D01*
X154133095Y-123328914D02*
X154085476Y-123519390D01*
X154085476Y-123519390D02*
X154085476Y-123900342D01*
X154085476Y-123900342D02*
X154133095Y-123995580D01*
X154133095Y-123995580D02*
X154180714Y-124043200D01*
X154180714Y-124043200D02*
X154275952Y-124090819D01*
X154275952Y-124090819D02*
X154466428Y-124090819D01*
X154466428Y-124090819D02*
X154561666Y-124043200D01*
X154561666Y-124043200D02*
X154609285Y-123995580D01*
X154609285Y-123995580D02*
X154656904Y-123900342D01*
X154656904Y-123900342D02*
X154656904Y-123662247D01*
X154656904Y-123662247D02*
X154609285Y-123567009D01*
X154609285Y-123567009D02*
X154561666Y-123519390D01*
X154561666Y-123519390D02*
X154466428Y-123471771D01*
X154466428Y-123471771D02*
X154275952Y-123471771D01*
X154275952Y-123471771D02*
X154180714Y-123519390D01*
X154180714Y-123519390D02*
X154133095Y-123567009D01*
X154133095Y-123567009D02*
X154085476Y-123662247D01*
D11*
X168537780Y-97208571D02*
X167728257Y-97208571D01*
X167728257Y-97208571D02*
X167633019Y-97256190D01*
X167633019Y-97256190D02*
X167585400Y-97303809D01*
X167585400Y-97303809D02*
X167537780Y-97399047D01*
X167537780Y-97399047D02*
X167537780Y-97589523D01*
X167537780Y-97589523D02*
X167585400Y-97684761D01*
X167585400Y-97684761D02*
X167633019Y-97732380D01*
X167633019Y-97732380D02*
X167728257Y-97779999D01*
X167728257Y-97779999D02*
X168537780Y-97779999D01*
X167823495Y-98208571D02*
X167823495Y-98684761D01*
X167537780Y-98113333D02*
X168537780Y-98446666D01*
X168537780Y-98446666D02*
X167537780Y-98779999D01*
X167537780Y-99684761D02*
X168013971Y-99351428D01*
X167537780Y-99113333D02*
X168537780Y-99113333D01*
X168537780Y-99113333D02*
X168537780Y-99494285D01*
X168537780Y-99494285D02*
X168490161Y-99589523D01*
X168490161Y-99589523D02*
X168442542Y-99637142D01*
X168442542Y-99637142D02*
X168347304Y-99684761D01*
X168347304Y-99684761D02*
X168204447Y-99684761D01*
X168204447Y-99684761D02*
X168109209Y-99637142D01*
X168109209Y-99637142D02*
X168061590Y-99589523D01*
X168061590Y-99589523D02*
X168013971Y-99494285D01*
X168013971Y-99494285D02*
X168013971Y-99113333D01*
X168537780Y-99970476D02*
X168537780Y-100541904D01*
X167537780Y-100256190D02*
X168537780Y-100256190D01*
X168537780Y-101303809D02*
X168537780Y-101113333D01*
X168537780Y-101113333D02*
X168490161Y-101018095D01*
X168490161Y-101018095D02*
X168442542Y-100970476D01*
X168442542Y-100970476D02*
X168299685Y-100875238D01*
X168299685Y-100875238D02*
X168109209Y-100827619D01*
X168109209Y-100827619D02*
X167728257Y-100827619D01*
X167728257Y-100827619D02*
X167633019Y-100875238D01*
X167633019Y-100875238D02*
X167585400Y-100922857D01*
X167585400Y-100922857D02*
X167537780Y-101018095D01*
X167537780Y-101018095D02*
X167537780Y-101208571D01*
X167537780Y-101208571D02*
X167585400Y-101303809D01*
X167585400Y-101303809D02*
X167633019Y-101351428D01*
X167633019Y-101351428D02*
X167728257Y-101399047D01*
X167728257Y-101399047D02*
X167966352Y-101399047D01*
X167966352Y-101399047D02*
X168061590Y-101351428D01*
X168061590Y-101351428D02*
X168109209Y-101303809D01*
X168109209Y-101303809D02*
X168156828Y-101208571D01*
X168156828Y-101208571D02*
X168156828Y-101018095D01*
X168156828Y-101018095D02*
X168109209Y-100922857D01*
X168109209Y-100922857D02*
X168061590Y-100875238D01*
X168061590Y-100875238D02*
X167966352Y-100827619D01*
X129355167Y-127914600D02*
X129498024Y-127962219D01*
X129498024Y-127962219D02*
X129736119Y-127962219D01*
X129736119Y-127962219D02*
X129831357Y-127914600D01*
X129831357Y-127914600D02*
X129878976Y-127866980D01*
X129878976Y-127866980D02*
X129926595Y-127771742D01*
X129926595Y-127771742D02*
X129926595Y-127676504D01*
X129926595Y-127676504D02*
X129878976Y-127581266D01*
X129878976Y-127581266D02*
X129831357Y-127533647D01*
X129831357Y-127533647D02*
X129736119Y-127486028D01*
X129736119Y-127486028D02*
X129545643Y-127438409D01*
X129545643Y-127438409D02*
X129450405Y-127390790D01*
X129450405Y-127390790D02*
X129402786Y-127343171D01*
X129402786Y-127343171D02*
X129355167Y-127247933D01*
X129355167Y-127247933D02*
X129355167Y-127152695D01*
X129355167Y-127152695D02*
X129402786Y-127057457D01*
X129402786Y-127057457D02*
X129450405Y-127009838D01*
X129450405Y-127009838D02*
X129545643Y-126962219D01*
X129545643Y-126962219D02*
X129783738Y-126962219D01*
X129783738Y-126962219D02*
X129926595Y-127009838D01*
X130259929Y-126962219D02*
X130498024Y-127962219D01*
X130498024Y-127962219D02*
X130688500Y-127247933D01*
X130688500Y-127247933D02*
X130878976Y-127962219D01*
X130878976Y-127962219D02*
X131117072Y-126962219D01*
X132021833Y-127962219D02*
X131450405Y-127962219D01*
X131736119Y-127962219D02*
X131736119Y-126962219D01*
X131736119Y-126962219D02*
X131640881Y-127105076D01*
X131640881Y-127105076D02*
X131545643Y-127200314D01*
X131545643Y-127200314D02*
X131450405Y-127247933D01*
D12*
X152717142Y-107639580D02*
X152669523Y-107687200D01*
X152669523Y-107687200D02*
X152526666Y-107734819D01*
X152526666Y-107734819D02*
X152431428Y-107734819D01*
X152431428Y-107734819D02*
X152288571Y-107687200D01*
X152288571Y-107687200D02*
X152193333Y-107591961D01*
X152193333Y-107591961D02*
X152145714Y-107496723D01*
X152145714Y-107496723D02*
X152098095Y-107306247D01*
X152098095Y-107306247D02*
X152098095Y-107163390D01*
X152098095Y-107163390D02*
X152145714Y-106972914D01*
X152145714Y-106972914D02*
X152193333Y-106877676D01*
X152193333Y-106877676D02*
X152288571Y-106782438D01*
X152288571Y-106782438D02*
X152431428Y-106734819D01*
X152431428Y-106734819D02*
X152526666Y-106734819D01*
X152526666Y-106734819D02*
X152669523Y-106782438D01*
X152669523Y-106782438D02*
X152717142Y-106830057D01*
X153669523Y-107734819D02*
X153098095Y-107734819D01*
X153383809Y-107734819D02*
X153383809Y-106734819D01*
X153383809Y-106734819D02*
X153288571Y-106877676D01*
X153288571Y-106877676D02*
X153193333Y-106972914D01*
X153193333Y-106972914D02*
X153098095Y-107020533D01*
X154240952Y-107163390D02*
X154145714Y-107115771D01*
X154145714Y-107115771D02*
X154098095Y-107068152D01*
X154098095Y-107068152D02*
X154050476Y-106972914D01*
X154050476Y-106972914D02*
X154050476Y-106925295D01*
X154050476Y-106925295D02*
X154098095Y-106830057D01*
X154098095Y-106830057D02*
X154145714Y-106782438D01*
X154145714Y-106782438D02*
X154240952Y-106734819D01*
X154240952Y-106734819D02*
X154431428Y-106734819D01*
X154431428Y-106734819D02*
X154526666Y-106782438D01*
X154526666Y-106782438D02*
X154574285Y-106830057D01*
X154574285Y-106830057D02*
X154621904Y-106925295D01*
X154621904Y-106925295D02*
X154621904Y-106972914D01*
X154621904Y-106972914D02*
X154574285Y-107068152D01*
X154574285Y-107068152D02*
X154526666Y-107115771D01*
X154526666Y-107115771D02*
X154431428Y-107163390D01*
X154431428Y-107163390D02*
X154240952Y-107163390D01*
X154240952Y-107163390D02*
X154145714Y-107211009D01*
X154145714Y-107211009D02*
X154098095Y-107258628D01*
X154098095Y-107258628D02*
X154050476Y-107353866D01*
X154050476Y-107353866D02*
X154050476Y-107544342D01*
X154050476Y-107544342D02*
X154098095Y-107639580D01*
X154098095Y-107639580D02*
X154145714Y-107687200D01*
X154145714Y-107687200D02*
X154240952Y-107734819D01*
X154240952Y-107734819D02*
X154431428Y-107734819D01*
X154431428Y-107734819D02*
X154526666Y-107687200D01*
X154526666Y-107687200D02*
X154574285Y-107639580D01*
X154574285Y-107639580D02*
X154621904Y-107544342D01*
X154621904Y-107544342D02*
X154621904Y-107353866D01*
X154621904Y-107353866D02*
X154574285Y-107258628D01*
X154574285Y-107258628D02*
X154526666Y-107211009D01*
X154526666Y-107211009D02*
X154431428Y-107163390D01*
X128098142Y-124139580D02*
X128050523Y-124187200D01*
X128050523Y-124187200D02*
X127907666Y-124234819D01*
X127907666Y-124234819D02*
X127812428Y-124234819D01*
X127812428Y-124234819D02*
X127669571Y-124187200D01*
X127669571Y-124187200D02*
X127574333Y-124091961D01*
X127574333Y-124091961D02*
X127526714Y-123996723D01*
X127526714Y-123996723D02*
X127479095Y-123806247D01*
X127479095Y-123806247D02*
X127479095Y-123663390D01*
X127479095Y-123663390D02*
X127526714Y-123472914D01*
X127526714Y-123472914D02*
X127574333Y-123377676D01*
X127574333Y-123377676D02*
X127669571Y-123282438D01*
X127669571Y-123282438D02*
X127812428Y-123234819D01*
X127812428Y-123234819D02*
X127907666Y-123234819D01*
X127907666Y-123234819D02*
X128050523Y-123282438D01*
X128050523Y-123282438D02*
X128098142Y-123330057D01*
X128479095Y-123330057D02*
X128526714Y-123282438D01*
X128526714Y-123282438D02*
X128621952Y-123234819D01*
X128621952Y-123234819D02*
X128860047Y-123234819D01*
X128860047Y-123234819D02*
X128955285Y-123282438D01*
X128955285Y-123282438D02*
X129002904Y-123330057D01*
X129002904Y-123330057D02*
X129050523Y-123425295D01*
X129050523Y-123425295D02*
X129050523Y-123520533D01*
X129050523Y-123520533D02*
X129002904Y-123663390D01*
X129002904Y-123663390D02*
X128431476Y-124234819D01*
X128431476Y-124234819D02*
X129050523Y-124234819D01*
X129907666Y-123568152D02*
X129907666Y-124234819D01*
X129669571Y-123187200D02*
X129431476Y-123901485D01*
X129431476Y-123901485D02*
X130050523Y-123901485D01*
X138098080Y-70552857D02*
X138145700Y-70600476D01*
X138145700Y-70600476D02*
X138193319Y-70743333D01*
X138193319Y-70743333D02*
X138193319Y-70838571D01*
X138193319Y-70838571D02*
X138145700Y-70981428D01*
X138145700Y-70981428D02*
X138050461Y-71076666D01*
X138050461Y-71076666D02*
X137955223Y-71124285D01*
X137955223Y-71124285D02*
X137764747Y-71171904D01*
X137764747Y-71171904D02*
X137621890Y-71171904D01*
X137621890Y-71171904D02*
X137431414Y-71124285D01*
X137431414Y-71124285D02*
X137336176Y-71076666D01*
X137336176Y-71076666D02*
X137240938Y-70981428D01*
X137240938Y-70981428D02*
X137193319Y-70838571D01*
X137193319Y-70838571D02*
X137193319Y-70743333D01*
X137193319Y-70743333D02*
X137240938Y-70600476D01*
X137240938Y-70600476D02*
X137288557Y-70552857D01*
X138193319Y-69600476D02*
X138193319Y-70171904D01*
X138193319Y-69886190D02*
X137193319Y-69886190D01*
X137193319Y-69886190D02*
X137336176Y-69981428D01*
X137336176Y-69981428D02*
X137431414Y-70076666D01*
X137431414Y-70076666D02*
X137479033Y-70171904D01*
X138193319Y-68648095D02*
X138193319Y-69219523D01*
X138193319Y-68933809D02*
X137193319Y-68933809D01*
X137193319Y-68933809D02*
X137336176Y-69029047D01*
X137336176Y-69029047D02*
X137431414Y-69124285D01*
X137431414Y-69124285D02*
X137479033Y-69219523D01*
X142828080Y-69486666D02*
X142875700Y-69534285D01*
X142875700Y-69534285D02*
X142923319Y-69677142D01*
X142923319Y-69677142D02*
X142923319Y-69772380D01*
X142923319Y-69772380D02*
X142875700Y-69915237D01*
X142875700Y-69915237D02*
X142780461Y-70010475D01*
X142780461Y-70010475D02*
X142685223Y-70058094D01*
X142685223Y-70058094D02*
X142494747Y-70105713D01*
X142494747Y-70105713D02*
X142351890Y-70105713D01*
X142351890Y-70105713D02*
X142161414Y-70058094D01*
X142161414Y-70058094D02*
X142066176Y-70010475D01*
X142066176Y-70010475D02*
X141970938Y-69915237D01*
X141970938Y-69915237D02*
X141923319Y-69772380D01*
X141923319Y-69772380D02*
X141923319Y-69677142D01*
X141923319Y-69677142D02*
X141970938Y-69534285D01*
X141970938Y-69534285D02*
X142018557Y-69486666D01*
X141923319Y-69153332D02*
X141923319Y-68486666D01*
X141923319Y-68486666D02*
X142923319Y-68915237D01*
X140488080Y-69616666D02*
X140535700Y-69664285D01*
X140535700Y-69664285D02*
X140583319Y-69807142D01*
X140583319Y-69807142D02*
X140583319Y-69902380D01*
X140583319Y-69902380D02*
X140535700Y-70045237D01*
X140535700Y-70045237D02*
X140440461Y-70140475D01*
X140440461Y-70140475D02*
X140345223Y-70188094D01*
X140345223Y-70188094D02*
X140154747Y-70235713D01*
X140154747Y-70235713D02*
X140011890Y-70235713D01*
X140011890Y-70235713D02*
X139821414Y-70188094D01*
X139821414Y-70188094D02*
X139726176Y-70140475D01*
X139726176Y-70140475D02*
X139630938Y-70045237D01*
X139630938Y-70045237D02*
X139583319Y-69902380D01*
X139583319Y-69902380D02*
X139583319Y-69807142D01*
X139583319Y-69807142D02*
X139630938Y-69664285D01*
X139630938Y-69664285D02*
X139678557Y-69616666D01*
X140011890Y-69045237D02*
X139964271Y-69140475D01*
X139964271Y-69140475D02*
X139916652Y-69188094D01*
X139916652Y-69188094D02*
X139821414Y-69235713D01*
X139821414Y-69235713D02*
X139773795Y-69235713D01*
X139773795Y-69235713D02*
X139678557Y-69188094D01*
X139678557Y-69188094D02*
X139630938Y-69140475D01*
X139630938Y-69140475D02*
X139583319Y-69045237D01*
X139583319Y-69045237D02*
X139583319Y-68854761D01*
X139583319Y-68854761D02*
X139630938Y-68759523D01*
X139630938Y-68759523D02*
X139678557Y-68711904D01*
X139678557Y-68711904D02*
X139773795Y-68664285D01*
X139773795Y-68664285D02*
X139821414Y-68664285D01*
X139821414Y-68664285D02*
X139916652Y-68711904D01*
X139916652Y-68711904D02*
X139964271Y-68759523D01*
X139964271Y-68759523D02*
X140011890Y-68854761D01*
X140011890Y-68854761D02*
X140011890Y-69045237D01*
X140011890Y-69045237D02*
X140059509Y-69140475D01*
X140059509Y-69140475D02*
X140107128Y-69188094D01*
X140107128Y-69188094D02*
X140202366Y-69235713D01*
X140202366Y-69235713D02*
X140392842Y-69235713D01*
X140392842Y-69235713D02*
X140488080Y-69188094D01*
X140488080Y-69188094D02*
X140535700Y-69140475D01*
X140535700Y-69140475D02*
X140583319Y-69045237D01*
X140583319Y-69045237D02*
X140583319Y-68854761D01*
X140583319Y-68854761D02*
X140535700Y-68759523D01*
X140535700Y-68759523D02*
X140488080Y-68711904D01*
X140488080Y-68711904D02*
X140392842Y-68664285D01*
X140392842Y-68664285D02*
X140202366Y-68664285D01*
X140202366Y-68664285D02*
X140107128Y-68711904D01*
X140107128Y-68711904D02*
X140059509Y-68759523D01*
X140059509Y-68759523D02*
X140011890Y-68854761D01*
X150488080Y-70542857D02*
X150535700Y-70590476D01*
X150535700Y-70590476D02*
X150583319Y-70733333D01*
X150583319Y-70733333D02*
X150583319Y-70828571D01*
X150583319Y-70828571D02*
X150535700Y-70971428D01*
X150535700Y-70971428D02*
X150440461Y-71066666D01*
X150440461Y-71066666D02*
X150345223Y-71114285D01*
X150345223Y-71114285D02*
X150154747Y-71161904D01*
X150154747Y-71161904D02*
X150011890Y-71161904D01*
X150011890Y-71161904D02*
X149821414Y-71114285D01*
X149821414Y-71114285D02*
X149726176Y-71066666D01*
X149726176Y-71066666D02*
X149630938Y-70971428D01*
X149630938Y-70971428D02*
X149583319Y-70828571D01*
X149583319Y-70828571D02*
X149583319Y-70733333D01*
X149583319Y-70733333D02*
X149630938Y-70590476D01*
X149630938Y-70590476D02*
X149678557Y-70542857D01*
X150583319Y-69590476D02*
X150583319Y-70161904D01*
X150583319Y-69876190D02*
X149583319Y-69876190D01*
X149583319Y-69876190D02*
X149726176Y-69971428D01*
X149726176Y-69971428D02*
X149821414Y-70066666D01*
X149821414Y-70066666D02*
X149869033Y-70161904D01*
X149916652Y-68733333D02*
X150583319Y-68733333D01*
X149535700Y-68971428D02*
X150249985Y-69209523D01*
X150249985Y-69209523D02*
X150249985Y-68590476D01*
D11*
X112310719Y-108597619D02*
X111834528Y-108930952D01*
X112310719Y-109169047D02*
X111310719Y-109169047D01*
X111310719Y-109169047D02*
X111310719Y-108788095D01*
X111310719Y-108788095D02*
X111358338Y-108692857D01*
X111358338Y-108692857D02*
X111405957Y-108645238D01*
X111405957Y-108645238D02*
X111501195Y-108597619D01*
X111501195Y-108597619D02*
X111644052Y-108597619D01*
X111644052Y-108597619D02*
X111739290Y-108645238D01*
X111739290Y-108645238D02*
X111786909Y-108692857D01*
X111786909Y-108692857D02*
X111834528Y-108788095D01*
X111834528Y-108788095D02*
X111834528Y-109169047D01*
X112263100Y-108216666D02*
X112310719Y-108073809D01*
X112310719Y-108073809D02*
X112310719Y-107835714D01*
X112310719Y-107835714D02*
X112263100Y-107740476D01*
X112263100Y-107740476D02*
X112215480Y-107692857D01*
X112215480Y-107692857D02*
X112120242Y-107645238D01*
X112120242Y-107645238D02*
X112025004Y-107645238D01*
X112025004Y-107645238D02*
X111929766Y-107692857D01*
X111929766Y-107692857D02*
X111882147Y-107740476D01*
X111882147Y-107740476D02*
X111834528Y-107835714D01*
X111834528Y-107835714D02*
X111786909Y-108026190D01*
X111786909Y-108026190D02*
X111739290Y-108121428D01*
X111739290Y-108121428D02*
X111691671Y-108169047D01*
X111691671Y-108169047D02*
X111596433Y-108216666D01*
X111596433Y-108216666D02*
X111501195Y-108216666D01*
X111501195Y-108216666D02*
X111405957Y-108169047D01*
X111405957Y-108169047D02*
X111358338Y-108121428D01*
X111358338Y-108121428D02*
X111310719Y-108026190D01*
X111310719Y-108026190D02*
X111310719Y-107788095D01*
X111310719Y-107788095D02*
X111358338Y-107645238D01*
X111786909Y-106883333D02*
X111834528Y-106740476D01*
X111834528Y-106740476D02*
X111882147Y-106692857D01*
X111882147Y-106692857D02*
X111977385Y-106645238D01*
X111977385Y-106645238D02*
X112120242Y-106645238D01*
X112120242Y-106645238D02*
X112215480Y-106692857D01*
X112215480Y-106692857D02*
X112263100Y-106740476D01*
X112263100Y-106740476D02*
X112310719Y-106835714D01*
X112310719Y-106835714D02*
X112310719Y-107216666D01*
X112310719Y-107216666D02*
X111310719Y-107216666D01*
X111310719Y-107216666D02*
X111310719Y-106883333D01*
X111310719Y-106883333D02*
X111358338Y-106788095D01*
X111358338Y-106788095D02*
X111405957Y-106740476D01*
X111405957Y-106740476D02*
X111501195Y-106692857D01*
X111501195Y-106692857D02*
X111596433Y-106692857D01*
X111596433Y-106692857D02*
X111691671Y-106740476D01*
X111691671Y-106740476D02*
X111739290Y-106788095D01*
X111739290Y-106788095D02*
X111786909Y-106883333D01*
X111786909Y-106883333D02*
X111786909Y-107216666D01*
X111310719Y-106359523D02*
X111310719Y-105788095D01*
X112310719Y-106073809D02*
X111310719Y-106073809D01*
D12*
X132681833Y-124284819D02*
X132348500Y-123808628D01*
X132110405Y-124284819D02*
X132110405Y-123284819D01*
X132110405Y-123284819D02*
X132491357Y-123284819D01*
X132491357Y-123284819D02*
X132586595Y-123332438D01*
X132586595Y-123332438D02*
X132634214Y-123380057D01*
X132634214Y-123380057D02*
X132681833Y-123475295D01*
X132681833Y-123475295D02*
X132681833Y-123618152D01*
X132681833Y-123618152D02*
X132634214Y-123713390D01*
X132634214Y-123713390D02*
X132586595Y-123761009D01*
X132586595Y-123761009D02*
X132491357Y-123808628D01*
X132491357Y-123808628D02*
X132110405Y-123808628D01*
X133158024Y-124284819D02*
X133348500Y-124284819D01*
X133348500Y-124284819D02*
X133443738Y-124237200D01*
X133443738Y-124237200D02*
X133491357Y-124189580D01*
X133491357Y-124189580D02*
X133586595Y-124046723D01*
X133586595Y-124046723D02*
X133634214Y-123856247D01*
X133634214Y-123856247D02*
X133634214Y-123475295D01*
X133634214Y-123475295D02*
X133586595Y-123380057D01*
X133586595Y-123380057D02*
X133538976Y-123332438D01*
X133538976Y-123332438D02*
X133443738Y-123284819D01*
X133443738Y-123284819D02*
X133253262Y-123284819D01*
X133253262Y-123284819D02*
X133158024Y-123332438D01*
X133158024Y-123332438D02*
X133110405Y-123380057D01*
X133110405Y-123380057D02*
X133062786Y-123475295D01*
X133062786Y-123475295D02*
X133062786Y-123713390D01*
X133062786Y-123713390D02*
X133110405Y-123808628D01*
X133110405Y-123808628D02*
X133158024Y-123856247D01*
X133158024Y-123856247D02*
X133253262Y-123903866D01*
X133253262Y-123903866D02*
X133443738Y-123903866D01*
X133443738Y-123903866D02*
X133538976Y-123856247D01*
X133538976Y-123856247D02*
X133586595Y-123808628D01*
X133586595Y-123808628D02*
X133634214Y-123713390D01*
X123577261Y-98170057D02*
X123482023Y-98122438D01*
X123482023Y-98122438D02*
X123386785Y-98027200D01*
X123386785Y-98027200D02*
X123243928Y-97884342D01*
X123243928Y-97884342D02*
X123148690Y-97836723D01*
X123148690Y-97836723D02*
X123053452Y-97836723D01*
X123101071Y-98074819D02*
X123005833Y-98027200D01*
X123005833Y-98027200D02*
X122910595Y-97931961D01*
X122910595Y-97931961D02*
X122862976Y-97741485D01*
X122862976Y-97741485D02*
X122862976Y-97408152D01*
X122862976Y-97408152D02*
X122910595Y-97217676D01*
X122910595Y-97217676D02*
X123005833Y-97122438D01*
X123005833Y-97122438D02*
X123101071Y-97074819D01*
X123101071Y-97074819D02*
X123291547Y-97074819D01*
X123291547Y-97074819D02*
X123386785Y-97122438D01*
X123386785Y-97122438D02*
X123482023Y-97217676D01*
X123482023Y-97217676D02*
X123529642Y-97408152D01*
X123529642Y-97408152D02*
X123529642Y-97741485D01*
X123529642Y-97741485D02*
X123482023Y-97931961D01*
X123482023Y-97931961D02*
X123386785Y-98027200D01*
X123386785Y-98027200D02*
X123291547Y-98074819D01*
X123291547Y-98074819D02*
X123101071Y-98074819D01*
X124482023Y-98074819D02*
X123910595Y-98074819D01*
X124196309Y-98074819D02*
X124196309Y-97074819D01*
X124196309Y-97074819D02*
X124101071Y-97217676D01*
X124101071Y-97217676D02*
X124005833Y-97312914D01*
X124005833Y-97312914D02*
X123910595Y-97360533D01*
D11*
X174796280Y-62371428D02*
X174796280Y-61895238D01*
X174796280Y-61895238D02*
X175796280Y-61895238D01*
X175081995Y-62657143D02*
X175081995Y-63133333D01*
X174796280Y-62561905D02*
X175796280Y-62895238D01*
X175796280Y-62895238D02*
X174796280Y-63228571D01*
X174843900Y-63514286D02*
X174796280Y-63657143D01*
X174796280Y-63657143D02*
X174796280Y-63895238D01*
X174796280Y-63895238D02*
X174843900Y-63990476D01*
X174843900Y-63990476D02*
X174891519Y-64038095D01*
X174891519Y-64038095D02*
X174986757Y-64085714D01*
X174986757Y-64085714D02*
X175081995Y-64085714D01*
X175081995Y-64085714D02*
X175177233Y-64038095D01*
X175177233Y-64038095D02*
X175224852Y-63990476D01*
X175224852Y-63990476D02*
X175272471Y-63895238D01*
X175272471Y-63895238D02*
X175320090Y-63704762D01*
X175320090Y-63704762D02*
X175367709Y-63609524D01*
X175367709Y-63609524D02*
X175415328Y-63561905D01*
X175415328Y-63561905D02*
X175510566Y-63514286D01*
X175510566Y-63514286D02*
X175605804Y-63514286D01*
X175605804Y-63514286D02*
X175701042Y-63561905D01*
X175701042Y-63561905D02*
X175748661Y-63609524D01*
X175748661Y-63609524D02*
X175796280Y-63704762D01*
X175796280Y-63704762D02*
X175796280Y-63942857D01*
X175796280Y-63942857D02*
X175748661Y-64085714D01*
X175320090Y-64514286D02*
X175320090Y-64847619D01*
X174796280Y-64990476D02*
X174796280Y-64514286D01*
X174796280Y-64514286D02*
X175796280Y-64514286D01*
X175796280Y-64514286D02*
X175796280Y-64990476D01*
X174796280Y-65990476D02*
X175272471Y-65657143D01*
X174796280Y-65419048D02*
X175796280Y-65419048D01*
X175796280Y-65419048D02*
X175796280Y-65800000D01*
X175796280Y-65800000D02*
X175748661Y-65895238D01*
X175748661Y-65895238D02*
X175701042Y-65942857D01*
X175701042Y-65942857D02*
X175605804Y-65990476D01*
X175605804Y-65990476D02*
X175462947Y-65990476D01*
X175462947Y-65990476D02*
X175367709Y-65942857D01*
X175367709Y-65942857D02*
X175320090Y-65895238D01*
X175320090Y-65895238D02*
X175272471Y-65800000D01*
X175272471Y-65800000D02*
X175272471Y-65419048D01*
X174701042Y-66180953D02*
X174701042Y-66942857D01*
X174796280Y-67752381D02*
X175272471Y-67419048D01*
X174796280Y-67180953D02*
X175796280Y-67180953D01*
X175796280Y-67180953D02*
X175796280Y-67561905D01*
X175796280Y-67561905D02*
X175748661Y-67657143D01*
X175748661Y-67657143D02*
X175701042Y-67704762D01*
X175701042Y-67704762D02*
X175605804Y-67752381D01*
X175605804Y-67752381D02*
X175462947Y-67752381D01*
X175462947Y-67752381D02*
X175367709Y-67704762D01*
X175367709Y-67704762D02*
X175320090Y-67657143D01*
X175320090Y-67657143D02*
X175272471Y-67561905D01*
X175272471Y-67561905D02*
X175272471Y-67180953D01*
X174796280Y-68752381D02*
X175272471Y-68419048D01*
X174796280Y-68180953D02*
X175796280Y-68180953D01*
X175796280Y-68180953D02*
X175796280Y-68561905D01*
X175796280Y-68561905D02*
X175748661Y-68657143D01*
X175748661Y-68657143D02*
X175701042Y-68704762D01*
X175701042Y-68704762D02*
X175605804Y-68752381D01*
X175605804Y-68752381D02*
X175462947Y-68752381D01*
X175462947Y-68752381D02*
X175367709Y-68704762D01*
X175367709Y-68704762D02*
X175320090Y-68657143D01*
X175320090Y-68657143D02*
X175272471Y-68561905D01*
X175272471Y-68561905D02*
X175272471Y-68180953D01*
X112350719Y-68393333D02*
X112350719Y-68869523D01*
X112350719Y-68869523D02*
X111350719Y-68869523D01*
X112065004Y-68107618D02*
X112065004Y-67631428D01*
X112350719Y-68202856D02*
X111350719Y-67869523D01*
X111350719Y-67869523D02*
X112350719Y-67536190D01*
X112303100Y-67250475D02*
X112350719Y-67107618D01*
X112350719Y-67107618D02*
X112350719Y-66869523D01*
X112350719Y-66869523D02*
X112303100Y-66774285D01*
X112303100Y-66774285D02*
X112255480Y-66726666D01*
X112255480Y-66726666D02*
X112160242Y-66679047D01*
X112160242Y-66679047D02*
X112065004Y-66679047D01*
X112065004Y-66679047D02*
X111969766Y-66726666D01*
X111969766Y-66726666D02*
X111922147Y-66774285D01*
X111922147Y-66774285D02*
X111874528Y-66869523D01*
X111874528Y-66869523D02*
X111826909Y-67059999D01*
X111826909Y-67059999D02*
X111779290Y-67155237D01*
X111779290Y-67155237D02*
X111731671Y-67202856D01*
X111731671Y-67202856D02*
X111636433Y-67250475D01*
X111636433Y-67250475D02*
X111541195Y-67250475D01*
X111541195Y-67250475D02*
X111445957Y-67202856D01*
X111445957Y-67202856D02*
X111398338Y-67155237D01*
X111398338Y-67155237D02*
X111350719Y-67059999D01*
X111350719Y-67059999D02*
X111350719Y-66821904D01*
X111350719Y-66821904D02*
X111398338Y-66679047D01*
X111826909Y-66250475D02*
X111826909Y-65917142D01*
X112350719Y-65774285D02*
X112350719Y-66250475D01*
X112350719Y-66250475D02*
X111350719Y-66250475D01*
X111350719Y-66250475D02*
X111350719Y-65774285D01*
X112350719Y-64774285D02*
X111874528Y-65107618D01*
X112350719Y-65345713D02*
X111350719Y-65345713D01*
X111350719Y-65345713D02*
X111350719Y-64964761D01*
X111350719Y-64964761D02*
X111398338Y-64869523D01*
X111398338Y-64869523D02*
X111445957Y-64821904D01*
X111445957Y-64821904D02*
X111541195Y-64774285D01*
X111541195Y-64774285D02*
X111684052Y-64774285D01*
X111684052Y-64774285D02*
X111779290Y-64821904D01*
X111779290Y-64821904D02*
X111826909Y-64869523D01*
X111826909Y-64869523D02*
X111874528Y-64964761D01*
X111874528Y-64964761D02*
X111874528Y-65345713D01*
X112445957Y-64583809D02*
X112445957Y-63821904D01*
X112350719Y-63012380D02*
X111874528Y-63345713D01*
X112350719Y-63583808D02*
X111350719Y-63583808D01*
X111350719Y-63583808D02*
X111350719Y-63202856D01*
X111350719Y-63202856D02*
X111398338Y-63107618D01*
X111398338Y-63107618D02*
X111445957Y-63059999D01*
X111445957Y-63059999D02*
X111541195Y-63012380D01*
X111541195Y-63012380D02*
X111684052Y-63012380D01*
X111684052Y-63012380D02*
X111779290Y-63059999D01*
X111779290Y-63059999D02*
X111826909Y-63107618D01*
X111826909Y-63107618D02*
X111874528Y-63202856D01*
X111874528Y-63202856D02*
X111874528Y-63583808D01*
X112350719Y-62107618D02*
X112350719Y-62583808D01*
X112350719Y-62583808D02*
X111350719Y-62583808D01*
D12*
X121041833Y-124204819D02*
X120708500Y-123728628D01*
X120470405Y-124204819D02*
X120470405Y-123204819D01*
X120470405Y-123204819D02*
X120851357Y-123204819D01*
X120851357Y-123204819D02*
X120946595Y-123252438D01*
X120946595Y-123252438D02*
X120994214Y-123300057D01*
X120994214Y-123300057D02*
X121041833Y-123395295D01*
X121041833Y-123395295D02*
X121041833Y-123538152D01*
X121041833Y-123538152D02*
X120994214Y-123633390D01*
X120994214Y-123633390D02*
X120946595Y-123681009D01*
X120946595Y-123681009D02*
X120851357Y-123728628D01*
X120851357Y-123728628D02*
X120470405Y-123728628D01*
X121613262Y-123633390D02*
X121518024Y-123585771D01*
X121518024Y-123585771D02*
X121470405Y-123538152D01*
X121470405Y-123538152D02*
X121422786Y-123442914D01*
X121422786Y-123442914D02*
X121422786Y-123395295D01*
X121422786Y-123395295D02*
X121470405Y-123300057D01*
X121470405Y-123300057D02*
X121518024Y-123252438D01*
X121518024Y-123252438D02*
X121613262Y-123204819D01*
X121613262Y-123204819D02*
X121803738Y-123204819D01*
X121803738Y-123204819D02*
X121898976Y-123252438D01*
X121898976Y-123252438D02*
X121946595Y-123300057D01*
X121946595Y-123300057D02*
X121994214Y-123395295D01*
X121994214Y-123395295D02*
X121994214Y-123442914D01*
X121994214Y-123442914D02*
X121946595Y-123538152D01*
X121946595Y-123538152D02*
X121898976Y-123585771D01*
X121898976Y-123585771D02*
X121803738Y-123633390D01*
X121803738Y-123633390D02*
X121613262Y-123633390D01*
X121613262Y-123633390D02*
X121518024Y-123681009D01*
X121518024Y-123681009D02*
X121470405Y-123728628D01*
X121470405Y-123728628D02*
X121422786Y-123823866D01*
X121422786Y-123823866D02*
X121422786Y-124014342D01*
X121422786Y-124014342D02*
X121470405Y-124109580D01*
X121470405Y-124109580D02*
X121518024Y-124157200D01*
X121518024Y-124157200D02*
X121613262Y-124204819D01*
X121613262Y-124204819D02*
X121803738Y-124204819D01*
X121803738Y-124204819D02*
X121898976Y-124157200D01*
X121898976Y-124157200D02*
X121946595Y-124109580D01*
X121946595Y-124109580D02*
X121994214Y-124014342D01*
X121994214Y-124014342D02*
X121994214Y-123823866D01*
X121994214Y-123823866D02*
X121946595Y-123728628D01*
X121946595Y-123728628D02*
X121898976Y-123681009D01*
X121898976Y-123681009D02*
X121803738Y-123633390D01*
D11*
X154235167Y-127914600D02*
X154378024Y-127962219D01*
X154378024Y-127962219D02*
X154616119Y-127962219D01*
X154616119Y-127962219D02*
X154711357Y-127914600D01*
X154711357Y-127914600D02*
X154758976Y-127866980D01*
X154758976Y-127866980D02*
X154806595Y-127771742D01*
X154806595Y-127771742D02*
X154806595Y-127676504D01*
X154806595Y-127676504D02*
X154758976Y-127581266D01*
X154758976Y-127581266D02*
X154711357Y-127533647D01*
X154711357Y-127533647D02*
X154616119Y-127486028D01*
X154616119Y-127486028D02*
X154425643Y-127438409D01*
X154425643Y-127438409D02*
X154330405Y-127390790D01*
X154330405Y-127390790D02*
X154282786Y-127343171D01*
X154282786Y-127343171D02*
X154235167Y-127247933D01*
X154235167Y-127247933D02*
X154235167Y-127152695D01*
X154235167Y-127152695D02*
X154282786Y-127057457D01*
X154282786Y-127057457D02*
X154330405Y-127009838D01*
X154330405Y-127009838D02*
X154425643Y-126962219D01*
X154425643Y-126962219D02*
X154663738Y-126962219D01*
X154663738Y-126962219D02*
X154806595Y-127009838D01*
X155139929Y-126962219D02*
X155378024Y-127962219D01*
X155378024Y-127962219D02*
X155568500Y-127247933D01*
X155568500Y-127247933D02*
X155758976Y-127962219D01*
X155758976Y-127962219D02*
X155997072Y-126962219D01*
X156282786Y-126962219D02*
X156901833Y-126962219D01*
X156901833Y-126962219D02*
X156568500Y-127343171D01*
X156568500Y-127343171D02*
X156711357Y-127343171D01*
X156711357Y-127343171D02*
X156806595Y-127390790D01*
X156806595Y-127390790D02*
X156854214Y-127438409D01*
X156854214Y-127438409D02*
X156901833Y-127533647D01*
X156901833Y-127533647D02*
X156901833Y-127771742D01*
X156901833Y-127771742D02*
X156854214Y-127866980D01*
X156854214Y-127866980D02*
X156806595Y-127914600D01*
X156806595Y-127914600D02*
X156711357Y-127962219D01*
X156711357Y-127962219D02*
X156425643Y-127962219D01*
X156425643Y-127962219D02*
X156330405Y-127914600D01*
X156330405Y-127914600D02*
X156282786Y-127866980D01*
D12*
X141607142Y-96879580D02*
X141559523Y-96927200D01*
X141559523Y-96927200D02*
X141416666Y-96974819D01*
X141416666Y-96974819D02*
X141321428Y-96974819D01*
X141321428Y-96974819D02*
X141178571Y-96927200D01*
X141178571Y-96927200D02*
X141083333Y-96831961D01*
X141083333Y-96831961D02*
X141035714Y-96736723D01*
X141035714Y-96736723D02*
X140988095Y-96546247D01*
X140988095Y-96546247D02*
X140988095Y-96403390D01*
X140988095Y-96403390D02*
X141035714Y-96212914D01*
X141035714Y-96212914D02*
X141083333Y-96117676D01*
X141083333Y-96117676D02*
X141178571Y-96022438D01*
X141178571Y-96022438D02*
X141321428Y-95974819D01*
X141321428Y-95974819D02*
X141416666Y-95974819D01*
X141416666Y-95974819D02*
X141559523Y-96022438D01*
X141559523Y-96022438D02*
X141607142Y-96070057D01*
X142559523Y-96974819D02*
X141988095Y-96974819D01*
X142273809Y-96974819D02*
X142273809Y-95974819D01*
X142273809Y-95974819D02*
X142178571Y-96117676D01*
X142178571Y-96117676D02*
X142083333Y-96212914D01*
X142083333Y-96212914D02*
X141988095Y-96260533D01*
X142940476Y-96070057D02*
X142988095Y-96022438D01*
X142988095Y-96022438D02*
X143083333Y-95974819D01*
X143083333Y-95974819D02*
X143321428Y-95974819D01*
X143321428Y-95974819D02*
X143416666Y-96022438D01*
X143416666Y-96022438D02*
X143464285Y-96070057D01*
X143464285Y-96070057D02*
X143511904Y-96165295D01*
X143511904Y-96165295D02*
X143511904Y-96260533D01*
X143511904Y-96260533D02*
X143464285Y-96403390D01*
X143464285Y-96403390D02*
X142892857Y-96974819D01*
X142892857Y-96974819D02*
X143511904Y-96974819D01*
X124094819Y-120043094D02*
X123094819Y-120043094D01*
X123094819Y-120043094D02*
X123094819Y-119804999D01*
X123094819Y-119804999D02*
X123142438Y-119662142D01*
X123142438Y-119662142D02*
X123237676Y-119566904D01*
X123237676Y-119566904D02*
X123332914Y-119519285D01*
X123332914Y-119519285D02*
X123523390Y-119471666D01*
X123523390Y-119471666D02*
X123666247Y-119471666D01*
X123666247Y-119471666D02*
X123856723Y-119519285D01*
X123856723Y-119519285D02*
X123951961Y-119566904D01*
X123951961Y-119566904D02*
X124047200Y-119662142D01*
X124047200Y-119662142D02*
X124094819Y-119804999D01*
X124094819Y-119804999D02*
X124094819Y-120043094D01*
X123094819Y-118566904D02*
X123094819Y-119043094D01*
X123094819Y-119043094D02*
X123571009Y-119090713D01*
X123571009Y-119090713D02*
X123523390Y-119043094D01*
X123523390Y-119043094D02*
X123475771Y-118947856D01*
X123475771Y-118947856D02*
X123475771Y-118709761D01*
X123475771Y-118709761D02*
X123523390Y-118614523D01*
X123523390Y-118614523D02*
X123571009Y-118566904D01*
X123571009Y-118566904D02*
X123666247Y-118519285D01*
X123666247Y-118519285D02*
X123904342Y-118519285D01*
X123904342Y-118519285D02*
X123999580Y-118566904D01*
X123999580Y-118566904D02*
X124047200Y-118614523D01*
X124047200Y-118614523D02*
X124094819Y-118709761D01*
X124094819Y-118709761D02*
X124094819Y-118947856D01*
X124094819Y-118947856D02*
X124047200Y-119043094D01*
X124047200Y-119043094D02*
X123999580Y-119090713D01*
X134314819Y-120063094D02*
X133314819Y-120063094D01*
X133314819Y-120063094D02*
X133314819Y-119824999D01*
X133314819Y-119824999D02*
X133362438Y-119682142D01*
X133362438Y-119682142D02*
X133457676Y-119586904D01*
X133457676Y-119586904D02*
X133552914Y-119539285D01*
X133552914Y-119539285D02*
X133743390Y-119491666D01*
X133743390Y-119491666D02*
X133886247Y-119491666D01*
X133886247Y-119491666D02*
X134076723Y-119539285D01*
X134076723Y-119539285D02*
X134171961Y-119586904D01*
X134171961Y-119586904D02*
X134267200Y-119682142D01*
X134267200Y-119682142D02*
X134314819Y-119824999D01*
X134314819Y-119824999D02*
X134314819Y-120063094D01*
X133314819Y-119158332D02*
X133314819Y-118491666D01*
X133314819Y-118491666D02*
X134314819Y-118920237D01*
X156883142Y-69879580D02*
X156835523Y-69927200D01*
X156835523Y-69927200D02*
X156692666Y-69974819D01*
X156692666Y-69974819D02*
X156597428Y-69974819D01*
X156597428Y-69974819D02*
X156454571Y-69927200D01*
X156454571Y-69927200D02*
X156359333Y-69831961D01*
X156359333Y-69831961D02*
X156311714Y-69736723D01*
X156311714Y-69736723D02*
X156264095Y-69546247D01*
X156264095Y-69546247D02*
X156264095Y-69403390D01*
X156264095Y-69403390D02*
X156311714Y-69212914D01*
X156311714Y-69212914D02*
X156359333Y-69117676D01*
X156359333Y-69117676D02*
X156454571Y-69022438D01*
X156454571Y-69022438D02*
X156597428Y-68974819D01*
X156597428Y-68974819D02*
X156692666Y-68974819D01*
X156692666Y-68974819D02*
X156835523Y-69022438D01*
X156835523Y-69022438D02*
X156883142Y-69070057D01*
X157835523Y-69974819D02*
X157264095Y-69974819D01*
X157549809Y-69974819D02*
X157549809Y-68974819D01*
X157549809Y-68974819D02*
X157454571Y-69117676D01*
X157454571Y-69117676D02*
X157359333Y-69212914D01*
X157359333Y-69212914D02*
X157264095Y-69260533D01*
X158740285Y-68974819D02*
X158264095Y-68974819D01*
X158264095Y-68974819D02*
X158216476Y-69451009D01*
X158216476Y-69451009D02*
X158264095Y-69403390D01*
X158264095Y-69403390D02*
X158359333Y-69355771D01*
X158359333Y-69355771D02*
X158597428Y-69355771D01*
X158597428Y-69355771D02*
X158692666Y-69403390D01*
X158692666Y-69403390D02*
X158740285Y-69451009D01*
X158740285Y-69451009D02*
X158787904Y-69546247D01*
X158787904Y-69546247D02*
X158787904Y-69784342D01*
X158787904Y-69784342D02*
X158740285Y-69879580D01*
X158740285Y-69879580D02*
X158692666Y-69927200D01*
X158692666Y-69927200D02*
X158597428Y-69974819D01*
X158597428Y-69974819D02*
X158359333Y-69974819D01*
X158359333Y-69974819D02*
X158264095Y-69927200D01*
X158264095Y-69927200D02*
X158216476Y-69879580D01*
X116393142Y-124089580D02*
X116345523Y-124137200D01*
X116345523Y-124137200D02*
X116202666Y-124184819D01*
X116202666Y-124184819D02*
X116107428Y-124184819D01*
X116107428Y-124184819D02*
X115964571Y-124137200D01*
X115964571Y-124137200D02*
X115869333Y-124041961D01*
X115869333Y-124041961D02*
X115821714Y-123946723D01*
X115821714Y-123946723D02*
X115774095Y-123756247D01*
X115774095Y-123756247D02*
X115774095Y-123613390D01*
X115774095Y-123613390D02*
X115821714Y-123422914D01*
X115821714Y-123422914D02*
X115869333Y-123327676D01*
X115869333Y-123327676D02*
X115964571Y-123232438D01*
X115964571Y-123232438D02*
X116107428Y-123184819D01*
X116107428Y-123184819D02*
X116202666Y-123184819D01*
X116202666Y-123184819D02*
X116345523Y-123232438D01*
X116345523Y-123232438D02*
X116393142Y-123280057D01*
X116774095Y-123280057D02*
X116821714Y-123232438D01*
X116821714Y-123232438D02*
X116916952Y-123184819D01*
X116916952Y-123184819D02*
X117155047Y-123184819D01*
X117155047Y-123184819D02*
X117250285Y-123232438D01*
X117250285Y-123232438D02*
X117297904Y-123280057D01*
X117297904Y-123280057D02*
X117345523Y-123375295D01*
X117345523Y-123375295D02*
X117345523Y-123470533D01*
X117345523Y-123470533D02*
X117297904Y-123613390D01*
X117297904Y-123613390D02*
X116726476Y-124184819D01*
X116726476Y-124184819D02*
X117345523Y-124184819D01*
X117678857Y-123184819D02*
X118297904Y-123184819D01*
X118297904Y-123184819D02*
X117964571Y-123565771D01*
X117964571Y-123565771D02*
X118107428Y-123565771D01*
X118107428Y-123565771D02*
X118202666Y-123613390D01*
X118202666Y-123613390D02*
X118250285Y-123661009D01*
X118250285Y-123661009D02*
X118297904Y-123756247D01*
X118297904Y-123756247D02*
X118297904Y-123994342D01*
X118297904Y-123994342D02*
X118250285Y-124089580D01*
X118250285Y-124089580D02*
X118202666Y-124137200D01*
X118202666Y-124137200D02*
X118107428Y-124184819D01*
X118107428Y-124184819D02*
X117821714Y-124184819D01*
X117821714Y-124184819D02*
X117726476Y-124137200D01*
X117726476Y-124137200D02*
X117678857Y-124089580D01*
X139464819Y-120003094D02*
X138464819Y-120003094D01*
X138464819Y-120003094D02*
X138464819Y-119764999D01*
X138464819Y-119764999D02*
X138512438Y-119622142D01*
X138512438Y-119622142D02*
X138607676Y-119526904D01*
X138607676Y-119526904D02*
X138702914Y-119479285D01*
X138702914Y-119479285D02*
X138893390Y-119431666D01*
X138893390Y-119431666D02*
X139036247Y-119431666D01*
X139036247Y-119431666D02*
X139226723Y-119479285D01*
X139226723Y-119479285D02*
X139321961Y-119526904D01*
X139321961Y-119526904D02*
X139417200Y-119622142D01*
X139417200Y-119622142D02*
X139464819Y-119764999D01*
X139464819Y-119764999D02*
X139464819Y-120003094D01*
X138893390Y-118860237D02*
X138845771Y-118955475D01*
X138845771Y-118955475D02*
X138798152Y-119003094D01*
X138798152Y-119003094D02*
X138702914Y-119050713D01*
X138702914Y-119050713D02*
X138655295Y-119050713D01*
X138655295Y-119050713D02*
X138560057Y-119003094D01*
X138560057Y-119003094D02*
X138512438Y-118955475D01*
X138512438Y-118955475D02*
X138464819Y-118860237D01*
X138464819Y-118860237D02*
X138464819Y-118669761D01*
X138464819Y-118669761D02*
X138512438Y-118574523D01*
X138512438Y-118574523D02*
X138560057Y-118526904D01*
X138560057Y-118526904D02*
X138655295Y-118479285D01*
X138655295Y-118479285D02*
X138702914Y-118479285D01*
X138702914Y-118479285D02*
X138798152Y-118526904D01*
X138798152Y-118526904D02*
X138845771Y-118574523D01*
X138845771Y-118574523D02*
X138893390Y-118669761D01*
X138893390Y-118669761D02*
X138893390Y-118860237D01*
X138893390Y-118860237D02*
X138941009Y-118955475D01*
X138941009Y-118955475D02*
X138988628Y-119003094D01*
X138988628Y-119003094D02*
X139083866Y-119050713D01*
X139083866Y-119050713D02*
X139274342Y-119050713D01*
X139274342Y-119050713D02*
X139369580Y-119003094D01*
X139369580Y-119003094D02*
X139417200Y-118955475D01*
X139417200Y-118955475D02*
X139464819Y-118860237D01*
X139464819Y-118860237D02*
X139464819Y-118669761D01*
X139464819Y-118669761D02*
X139417200Y-118574523D01*
X139417200Y-118574523D02*
X139369580Y-118526904D01*
X139369580Y-118526904D02*
X139274342Y-118479285D01*
X139274342Y-118479285D02*
X139083866Y-118479285D01*
X139083866Y-118479285D02*
X138988628Y-118526904D01*
X138988628Y-118526904D02*
X138941009Y-118574523D01*
X138941009Y-118574523D02*
X138893390Y-118669761D01*
X160064819Y-120429285D02*
X159064819Y-120429285D01*
X159064819Y-120429285D02*
X159064819Y-120191190D01*
X159064819Y-120191190D02*
X159112438Y-120048333D01*
X159112438Y-120048333D02*
X159207676Y-119953095D01*
X159207676Y-119953095D02*
X159302914Y-119905476D01*
X159302914Y-119905476D02*
X159493390Y-119857857D01*
X159493390Y-119857857D02*
X159636247Y-119857857D01*
X159636247Y-119857857D02*
X159826723Y-119905476D01*
X159826723Y-119905476D02*
X159921961Y-119953095D01*
X159921961Y-119953095D02*
X160017200Y-120048333D01*
X160017200Y-120048333D02*
X160064819Y-120191190D01*
X160064819Y-120191190D02*
X160064819Y-120429285D01*
X160064819Y-118905476D02*
X160064819Y-119476904D01*
X160064819Y-119191190D02*
X159064819Y-119191190D01*
X159064819Y-119191190D02*
X159207676Y-119286428D01*
X159207676Y-119286428D02*
X159302914Y-119381666D01*
X159302914Y-119381666D02*
X159350533Y-119476904D01*
X159160057Y-118524523D02*
X159112438Y-118476904D01*
X159112438Y-118476904D02*
X159064819Y-118381666D01*
X159064819Y-118381666D02*
X159064819Y-118143571D01*
X159064819Y-118143571D02*
X159112438Y-118048333D01*
X159112438Y-118048333D02*
X159160057Y-118000714D01*
X159160057Y-118000714D02*
X159255295Y-117953095D01*
X159255295Y-117953095D02*
X159350533Y-117953095D01*
X159350533Y-117953095D02*
X159493390Y-118000714D01*
X159493390Y-118000714D02*
X160064819Y-118572142D01*
X160064819Y-118572142D02*
X160064819Y-117953095D01*
D11*
X124626594Y-55702219D02*
X124150404Y-55702219D01*
X124150404Y-55702219D02*
X124150404Y-54702219D01*
X124912309Y-55416504D02*
X125388499Y-55416504D01*
X124817071Y-55702219D02*
X125150404Y-54702219D01*
X125150404Y-54702219D02*
X125483737Y-55702219D01*
X125769452Y-55654600D02*
X125912309Y-55702219D01*
X125912309Y-55702219D02*
X126150404Y-55702219D01*
X126150404Y-55702219D02*
X126245642Y-55654600D01*
X126245642Y-55654600D02*
X126293261Y-55606980D01*
X126293261Y-55606980D02*
X126340880Y-55511742D01*
X126340880Y-55511742D02*
X126340880Y-55416504D01*
X126340880Y-55416504D02*
X126293261Y-55321266D01*
X126293261Y-55321266D02*
X126245642Y-55273647D01*
X126245642Y-55273647D02*
X126150404Y-55226028D01*
X126150404Y-55226028D02*
X125959928Y-55178409D01*
X125959928Y-55178409D02*
X125864690Y-55130790D01*
X125864690Y-55130790D02*
X125817071Y-55083171D01*
X125817071Y-55083171D02*
X125769452Y-54987933D01*
X125769452Y-54987933D02*
X125769452Y-54892695D01*
X125769452Y-54892695D02*
X125817071Y-54797457D01*
X125817071Y-54797457D02*
X125864690Y-54749838D01*
X125864690Y-54749838D02*
X125959928Y-54702219D01*
X125959928Y-54702219D02*
X126198023Y-54702219D01*
X126198023Y-54702219D02*
X126340880Y-54749838D01*
X126769452Y-55178409D02*
X127102785Y-55178409D01*
X127245642Y-55702219D02*
X126769452Y-55702219D01*
X126769452Y-55702219D02*
X126769452Y-54702219D01*
X126769452Y-54702219D02*
X127245642Y-54702219D01*
X128245642Y-55702219D02*
X127912309Y-55226028D01*
X127674214Y-55702219D02*
X127674214Y-54702219D01*
X127674214Y-54702219D02*
X128055166Y-54702219D01*
X128055166Y-54702219D02*
X128150404Y-54749838D01*
X128150404Y-54749838D02*
X128198023Y-54797457D01*
X128198023Y-54797457D02*
X128245642Y-54892695D01*
X128245642Y-54892695D02*
X128245642Y-55035552D01*
X128245642Y-55035552D02*
X128198023Y-55130790D01*
X128198023Y-55130790D02*
X128150404Y-55178409D01*
X128150404Y-55178409D02*
X128055166Y-55226028D01*
X128055166Y-55226028D02*
X127674214Y-55226028D01*
X128436119Y-55797457D02*
X129198023Y-55797457D01*
X129769452Y-55178409D02*
X129436119Y-55178409D01*
X129436119Y-55702219D02*
X129436119Y-54702219D01*
X129436119Y-54702219D02*
X129912309Y-54702219D01*
X130769452Y-55702219D02*
X130293262Y-55702219D01*
X130293262Y-55702219D02*
X130293262Y-54702219D01*
X157927618Y-110672219D02*
X157594285Y-110196028D01*
X157356190Y-110672219D02*
X157356190Y-109672219D01*
X157356190Y-109672219D02*
X157737142Y-109672219D01*
X157737142Y-109672219D02*
X157832380Y-109719838D01*
X157832380Y-109719838D02*
X157879999Y-109767457D01*
X157879999Y-109767457D02*
X157927618Y-109862695D01*
X157927618Y-109862695D02*
X157927618Y-110005552D01*
X157927618Y-110005552D02*
X157879999Y-110100790D01*
X157879999Y-110100790D02*
X157832380Y-110148409D01*
X157832380Y-110148409D02*
X157737142Y-110196028D01*
X157737142Y-110196028D02*
X157356190Y-110196028D01*
X158356190Y-110148409D02*
X158689523Y-110148409D01*
X158832380Y-110672219D02*
X158356190Y-110672219D01*
X158356190Y-110672219D02*
X158356190Y-109672219D01*
X158356190Y-109672219D02*
X158832380Y-109672219D01*
X159213333Y-110624600D02*
X159356190Y-110672219D01*
X159356190Y-110672219D02*
X159594285Y-110672219D01*
X159594285Y-110672219D02*
X159689523Y-110624600D01*
X159689523Y-110624600D02*
X159737142Y-110576980D01*
X159737142Y-110576980D02*
X159784761Y-110481742D01*
X159784761Y-110481742D02*
X159784761Y-110386504D01*
X159784761Y-110386504D02*
X159737142Y-110291266D01*
X159737142Y-110291266D02*
X159689523Y-110243647D01*
X159689523Y-110243647D02*
X159594285Y-110196028D01*
X159594285Y-110196028D02*
X159403809Y-110148409D01*
X159403809Y-110148409D02*
X159308571Y-110100790D01*
X159308571Y-110100790D02*
X159260952Y-110053171D01*
X159260952Y-110053171D02*
X159213333Y-109957933D01*
X159213333Y-109957933D02*
X159213333Y-109862695D01*
X159213333Y-109862695D02*
X159260952Y-109767457D01*
X159260952Y-109767457D02*
X159308571Y-109719838D01*
X159308571Y-109719838D02*
X159403809Y-109672219D01*
X159403809Y-109672219D02*
X159641904Y-109672219D01*
X159641904Y-109672219D02*
X159784761Y-109719838D01*
X160213333Y-110148409D02*
X160546666Y-110148409D01*
X160689523Y-110672219D02*
X160213333Y-110672219D01*
X160213333Y-110672219D02*
X160213333Y-109672219D01*
X160213333Y-109672219D02*
X160689523Y-109672219D01*
X160975238Y-109672219D02*
X161546666Y-109672219D01*
X161260952Y-110672219D02*
X161260952Y-109672219D01*
X166290167Y-127844600D02*
X166433024Y-127892219D01*
X166433024Y-127892219D02*
X166671119Y-127892219D01*
X166671119Y-127892219D02*
X166766357Y-127844600D01*
X166766357Y-127844600D02*
X166813976Y-127796980D01*
X166813976Y-127796980D02*
X166861595Y-127701742D01*
X166861595Y-127701742D02*
X166861595Y-127606504D01*
X166861595Y-127606504D02*
X166813976Y-127511266D01*
X166813976Y-127511266D02*
X166766357Y-127463647D01*
X166766357Y-127463647D02*
X166671119Y-127416028D01*
X166671119Y-127416028D02*
X166480643Y-127368409D01*
X166480643Y-127368409D02*
X166385405Y-127320790D01*
X166385405Y-127320790D02*
X166337786Y-127273171D01*
X166337786Y-127273171D02*
X166290167Y-127177933D01*
X166290167Y-127177933D02*
X166290167Y-127082695D01*
X166290167Y-127082695D02*
X166337786Y-126987457D01*
X166337786Y-126987457D02*
X166385405Y-126939838D01*
X166385405Y-126939838D02*
X166480643Y-126892219D01*
X166480643Y-126892219D02*
X166718738Y-126892219D01*
X166718738Y-126892219D02*
X166861595Y-126939838D01*
X167194929Y-126892219D02*
X167433024Y-127892219D01*
X167433024Y-127892219D02*
X167623500Y-127177933D01*
X167623500Y-127177933D02*
X167813976Y-127892219D01*
X167813976Y-127892219D02*
X168052072Y-126892219D01*
X168861595Y-127225552D02*
X168861595Y-127892219D01*
X168623500Y-126844600D02*
X168385405Y-127558885D01*
X168385405Y-127558885D02*
X169004452Y-127558885D01*
D12*
X156845642Y-124034819D02*
X156512309Y-123558628D01*
X156274214Y-124034819D02*
X156274214Y-123034819D01*
X156274214Y-123034819D02*
X156655166Y-123034819D01*
X156655166Y-123034819D02*
X156750404Y-123082438D01*
X156750404Y-123082438D02*
X156798023Y-123130057D01*
X156798023Y-123130057D02*
X156845642Y-123225295D01*
X156845642Y-123225295D02*
X156845642Y-123368152D01*
X156845642Y-123368152D02*
X156798023Y-123463390D01*
X156798023Y-123463390D02*
X156750404Y-123511009D01*
X156750404Y-123511009D02*
X156655166Y-123558628D01*
X156655166Y-123558628D02*
X156274214Y-123558628D01*
X157798023Y-124034819D02*
X157226595Y-124034819D01*
X157512309Y-124034819D02*
X157512309Y-123034819D01*
X157512309Y-123034819D02*
X157417071Y-123177676D01*
X157417071Y-123177676D02*
X157321833Y-123272914D01*
X157321833Y-123272914D02*
X157226595Y-123320533D01*
X158750404Y-124034819D02*
X158178976Y-124034819D01*
X158464690Y-124034819D02*
X158464690Y-123034819D01*
X158464690Y-123034819D02*
X158369452Y-123177676D01*
X158369452Y-123177676D02*
X158274214Y-123272914D01*
X158274214Y-123272914D02*
X158178976Y-123320533D01*
X124261685Y-77303825D02*
X124261685Y-78114846D01*
X124261685Y-78114846D02*
X124309392Y-78210260D01*
X124309392Y-78210260D02*
X124357100Y-78257968D01*
X124357100Y-78257968D02*
X124452514Y-78305675D01*
X124452514Y-78305675D02*
X124643342Y-78305675D01*
X124643342Y-78305675D02*
X124738757Y-78257968D01*
X124738757Y-78257968D02*
X124786464Y-78210260D01*
X124786464Y-78210260D02*
X124834171Y-78114846D01*
X124834171Y-78114846D02*
X124834171Y-77303825D01*
X125740607Y-77637775D02*
X125740607Y-78305675D01*
X125502071Y-77256118D02*
X125263535Y-77971725D01*
X125263535Y-77971725D02*
X125883728Y-77971725D01*
D11*
X112280719Y-86483333D02*
X112280719Y-86959523D01*
X112280719Y-86959523D02*
X111280719Y-86959523D01*
X111756909Y-86149999D02*
X111756909Y-85816666D01*
X112280719Y-85673809D02*
X112280719Y-86149999D01*
X112280719Y-86149999D02*
X111280719Y-86149999D01*
X111280719Y-86149999D02*
X111280719Y-85673809D01*
X111756909Y-84911904D02*
X111756909Y-85245237D01*
X112280719Y-85245237D02*
X111280719Y-85245237D01*
X111280719Y-85245237D02*
X111280719Y-84769047D01*
X111280719Y-84530951D02*
X111280719Y-83959523D01*
X112280719Y-84245237D02*
X111280719Y-84245237D01*
X112280719Y-82864284D02*
X111280719Y-82864284D01*
X111280719Y-82864284D02*
X111995004Y-82530951D01*
X111995004Y-82530951D02*
X111280719Y-82197618D01*
X111280719Y-82197618D02*
X112280719Y-82197618D01*
X111280719Y-81530951D02*
X111280719Y-81340475D01*
X111280719Y-81340475D02*
X111328338Y-81245237D01*
X111328338Y-81245237D02*
X111423576Y-81149999D01*
X111423576Y-81149999D02*
X111614052Y-81102380D01*
X111614052Y-81102380D02*
X111947385Y-81102380D01*
X111947385Y-81102380D02*
X112137861Y-81149999D01*
X112137861Y-81149999D02*
X112233100Y-81245237D01*
X112233100Y-81245237D02*
X112280719Y-81340475D01*
X112280719Y-81340475D02*
X112280719Y-81530951D01*
X112280719Y-81530951D02*
X112233100Y-81626189D01*
X112233100Y-81626189D02*
X112137861Y-81721427D01*
X112137861Y-81721427D02*
X111947385Y-81769046D01*
X111947385Y-81769046D02*
X111614052Y-81769046D01*
X111614052Y-81769046D02*
X111423576Y-81721427D01*
X111423576Y-81721427D02*
X111328338Y-81626189D01*
X111328338Y-81626189D02*
X111280719Y-81530951D01*
X111280719Y-80816665D02*
X111280719Y-80245237D01*
X112280719Y-80530951D02*
X111280719Y-80530951D01*
X111280719Y-79721427D02*
X111280719Y-79530951D01*
X111280719Y-79530951D02*
X111328338Y-79435713D01*
X111328338Y-79435713D02*
X111423576Y-79340475D01*
X111423576Y-79340475D02*
X111614052Y-79292856D01*
X111614052Y-79292856D02*
X111947385Y-79292856D01*
X111947385Y-79292856D02*
X112137861Y-79340475D01*
X112137861Y-79340475D02*
X112233100Y-79435713D01*
X112233100Y-79435713D02*
X112280719Y-79530951D01*
X112280719Y-79530951D02*
X112280719Y-79721427D01*
X112280719Y-79721427D02*
X112233100Y-79816665D01*
X112233100Y-79816665D02*
X112137861Y-79911903D01*
X112137861Y-79911903D02*
X111947385Y-79959522D01*
X111947385Y-79959522D02*
X111614052Y-79959522D01*
X111614052Y-79959522D02*
X111423576Y-79911903D01*
X111423576Y-79911903D02*
X111328338Y-79816665D01*
X111328338Y-79816665D02*
X111280719Y-79721427D01*
X112280719Y-78292856D02*
X111804528Y-78626189D01*
X112280719Y-78864284D02*
X111280719Y-78864284D01*
X111280719Y-78864284D02*
X111280719Y-78483332D01*
X111280719Y-78483332D02*
X111328338Y-78388094D01*
X111328338Y-78388094D02*
X111375957Y-78340475D01*
X111375957Y-78340475D02*
X111471195Y-78292856D01*
X111471195Y-78292856D02*
X111614052Y-78292856D01*
X111614052Y-78292856D02*
X111709290Y-78340475D01*
X111709290Y-78340475D02*
X111756909Y-78388094D01*
X111756909Y-78388094D02*
X111804528Y-78483332D01*
X111804528Y-78483332D02*
X111804528Y-78864284D01*
D12*
X137602142Y-96899580D02*
X137554523Y-96947200D01*
X137554523Y-96947200D02*
X137411666Y-96994819D01*
X137411666Y-96994819D02*
X137316428Y-96994819D01*
X137316428Y-96994819D02*
X137173571Y-96947200D01*
X137173571Y-96947200D02*
X137078333Y-96851961D01*
X137078333Y-96851961D02*
X137030714Y-96756723D01*
X137030714Y-96756723D02*
X136983095Y-96566247D01*
X136983095Y-96566247D02*
X136983095Y-96423390D01*
X136983095Y-96423390D02*
X137030714Y-96232914D01*
X137030714Y-96232914D02*
X137078333Y-96137676D01*
X137078333Y-96137676D02*
X137173571Y-96042438D01*
X137173571Y-96042438D02*
X137316428Y-95994819D01*
X137316428Y-95994819D02*
X137411666Y-95994819D01*
X137411666Y-95994819D02*
X137554523Y-96042438D01*
X137554523Y-96042438D02*
X137602142Y-96090057D01*
X138554523Y-96994819D02*
X137983095Y-96994819D01*
X138268809Y-96994819D02*
X138268809Y-95994819D01*
X138268809Y-95994819D02*
X138173571Y-96137676D01*
X138173571Y-96137676D02*
X138078333Y-96232914D01*
X138078333Y-96232914D02*
X137983095Y-96280533D01*
X138887857Y-95994819D02*
X139506904Y-95994819D01*
X139506904Y-95994819D02*
X139173571Y-96375771D01*
X139173571Y-96375771D02*
X139316428Y-96375771D01*
X139316428Y-96375771D02*
X139411666Y-96423390D01*
X139411666Y-96423390D02*
X139459285Y-96471009D01*
X139459285Y-96471009D02*
X139506904Y-96566247D01*
X139506904Y-96566247D02*
X139506904Y-96804342D01*
X139506904Y-96804342D02*
X139459285Y-96899580D01*
X139459285Y-96899580D02*
X139411666Y-96947200D01*
X139411666Y-96947200D02*
X139316428Y-96994819D01*
X139316428Y-96994819D02*
X139030714Y-96994819D01*
X139030714Y-96994819D02*
X138935476Y-96947200D01*
X138935476Y-96947200D02*
X138887857Y-96899580D01*
D11*
X152707780Y-97987619D02*
X153707780Y-97987619D01*
X153612542Y-98416190D02*
X153660161Y-98463809D01*
X153660161Y-98463809D02*
X153707780Y-98559047D01*
X153707780Y-98559047D02*
X153707780Y-98797142D01*
X153707780Y-98797142D02*
X153660161Y-98892380D01*
X153660161Y-98892380D02*
X153612542Y-98939999D01*
X153612542Y-98939999D02*
X153517304Y-98987618D01*
X153517304Y-98987618D02*
X153422066Y-98987618D01*
X153422066Y-98987618D02*
X153279209Y-98939999D01*
X153279209Y-98939999D02*
X152707780Y-98368571D01*
X152707780Y-98368571D02*
X152707780Y-98987618D01*
X152803019Y-99987618D02*
X152755400Y-99939999D01*
X152755400Y-99939999D02*
X152707780Y-99797142D01*
X152707780Y-99797142D02*
X152707780Y-99701904D01*
X152707780Y-99701904D02*
X152755400Y-99559047D01*
X152755400Y-99559047D02*
X152850638Y-99463809D01*
X152850638Y-99463809D02*
X152945876Y-99416190D01*
X152945876Y-99416190D02*
X153136352Y-99368571D01*
X153136352Y-99368571D02*
X153279209Y-99368571D01*
X153279209Y-99368571D02*
X153469685Y-99416190D01*
X153469685Y-99416190D02*
X153564923Y-99463809D01*
X153564923Y-99463809D02*
X153660161Y-99559047D01*
X153660161Y-99559047D02*
X153707780Y-99701904D01*
X153707780Y-99701904D02*
X153707780Y-99797142D01*
X153707780Y-99797142D02*
X153660161Y-99939999D01*
X153660161Y-99939999D02*
X153612542Y-99987618D01*
X153707780Y-100320952D02*
X153707780Y-100939999D01*
X153707780Y-100939999D02*
X153326828Y-100606666D01*
X153326828Y-100606666D02*
X153326828Y-100749523D01*
X153326828Y-100749523D02*
X153279209Y-100844761D01*
X153279209Y-100844761D02*
X153231590Y-100892380D01*
X153231590Y-100892380D02*
X153136352Y-100939999D01*
X153136352Y-100939999D02*
X152898257Y-100939999D01*
X152898257Y-100939999D02*
X152803019Y-100892380D01*
X152803019Y-100892380D02*
X152755400Y-100844761D01*
X152755400Y-100844761D02*
X152707780Y-100749523D01*
X152707780Y-100749523D02*
X152707780Y-100463809D01*
X152707780Y-100463809D02*
X152755400Y-100368571D01*
X152755400Y-100368571D02*
X152803019Y-100320952D01*
D12*
X153121833Y-64114819D02*
X152788500Y-63638628D01*
X152550405Y-64114819D02*
X152550405Y-63114819D01*
X152550405Y-63114819D02*
X152931357Y-63114819D01*
X152931357Y-63114819D02*
X153026595Y-63162438D01*
X153026595Y-63162438D02*
X153074214Y-63210057D01*
X153074214Y-63210057D02*
X153121833Y-63305295D01*
X153121833Y-63305295D02*
X153121833Y-63448152D01*
X153121833Y-63448152D02*
X153074214Y-63543390D01*
X153074214Y-63543390D02*
X153026595Y-63591009D01*
X153026595Y-63591009D02*
X152931357Y-63638628D01*
X152931357Y-63638628D02*
X152550405Y-63638628D01*
X154026595Y-63114819D02*
X153550405Y-63114819D01*
X153550405Y-63114819D02*
X153502786Y-63591009D01*
X153502786Y-63591009D02*
X153550405Y-63543390D01*
X153550405Y-63543390D02*
X153645643Y-63495771D01*
X153645643Y-63495771D02*
X153883738Y-63495771D01*
X153883738Y-63495771D02*
X153978976Y-63543390D01*
X153978976Y-63543390D02*
X154026595Y-63591009D01*
X154026595Y-63591009D02*
X154074214Y-63686247D01*
X154074214Y-63686247D02*
X154074214Y-63924342D01*
X154074214Y-63924342D02*
X154026595Y-64019580D01*
X154026595Y-64019580D02*
X153978976Y-64067200D01*
X153978976Y-64067200D02*
X153883738Y-64114819D01*
X153883738Y-64114819D02*
X153645643Y-64114819D01*
X153645643Y-64114819D02*
X153550405Y-64067200D01*
X153550405Y-64067200D02*
X153502786Y-64019580D01*
D11*
X174746280Y-78485714D02*
X175222471Y-78152381D01*
X174746280Y-77914286D02*
X175746280Y-77914286D01*
X175746280Y-77914286D02*
X175746280Y-78295238D01*
X175746280Y-78295238D02*
X175698661Y-78390476D01*
X175698661Y-78390476D02*
X175651042Y-78438095D01*
X175651042Y-78438095D02*
X175555804Y-78485714D01*
X175555804Y-78485714D02*
X175412947Y-78485714D01*
X175412947Y-78485714D02*
X175317709Y-78438095D01*
X175317709Y-78438095D02*
X175270090Y-78390476D01*
X175270090Y-78390476D02*
X175222471Y-78295238D01*
X175222471Y-78295238D02*
X175222471Y-77914286D01*
X174746280Y-78914286D02*
X175746280Y-78914286D01*
X175698661Y-79914285D02*
X175746280Y-79819047D01*
X175746280Y-79819047D02*
X175746280Y-79676190D01*
X175746280Y-79676190D02*
X175698661Y-79533333D01*
X175698661Y-79533333D02*
X175603423Y-79438095D01*
X175603423Y-79438095D02*
X175508185Y-79390476D01*
X175508185Y-79390476D02*
X175317709Y-79342857D01*
X175317709Y-79342857D02*
X175174852Y-79342857D01*
X175174852Y-79342857D02*
X174984376Y-79390476D01*
X174984376Y-79390476D02*
X174889138Y-79438095D01*
X174889138Y-79438095D02*
X174793900Y-79533333D01*
X174793900Y-79533333D02*
X174746280Y-79676190D01*
X174746280Y-79676190D02*
X174746280Y-79771428D01*
X174746280Y-79771428D02*
X174793900Y-79914285D01*
X174793900Y-79914285D02*
X174841519Y-79961904D01*
X174841519Y-79961904D02*
X175174852Y-79961904D01*
X175174852Y-79961904D02*
X175174852Y-79771428D01*
X174746280Y-80390476D02*
X175746280Y-80390476D01*
X175270090Y-80390476D02*
X175270090Y-80961904D01*
X174746280Y-80961904D02*
X175746280Y-80961904D01*
X175746280Y-81295238D02*
X175746280Y-81866666D01*
X174746280Y-81580952D02*
X175746280Y-81580952D01*
X174746280Y-82961905D02*
X175746280Y-82961905D01*
X175746280Y-82961905D02*
X175031995Y-83295238D01*
X175031995Y-83295238D02*
X175746280Y-83628571D01*
X175746280Y-83628571D02*
X174746280Y-83628571D01*
X175746280Y-84295238D02*
X175746280Y-84485714D01*
X175746280Y-84485714D02*
X175698661Y-84580952D01*
X175698661Y-84580952D02*
X175603423Y-84676190D01*
X175603423Y-84676190D02*
X175412947Y-84723809D01*
X175412947Y-84723809D02*
X175079614Y-84723809D01*
X175079614Y-84723809D02*
X174889138Y-84676190D01*
X174889138Y-84676190D02*
X174793900Y-84580952D01*
X174793900Y-84580952D02*
X174746280Y-84485714D01*
X174746280Y-84485714D02*
X174746280Y-84295238D01*
X174746280Y-84295238D02*
X174793900Y-84200000D01*
X174793900Y-84200000D02*
X174889138Y-84104762D01*
X174889138Y-84104762D02*
X175079614Y-84057143D01*
X175079614Y-84057143D02*
X175412947Y-84057143D01*
X175412947Y-84057143D02*
X175603423Y-84104762D01*
X175603423Y-84104762D02*
X175698661Y-84200000D01*
X175698661Y-84200000D02*
X175746280Y-84295238D01*
X175746280Y-85009524D02*
X175746280Y-85580952D01*
X174746280Y-85295238D02*
X175746280Y-85295238D01*
X175746280Y-86104762D02*
X175746280Y-86295238D01*
X175746280Y-86295238D02*
X175698661Y-86390476D01*
X175698661Y-86390476D02*
X175603423Y-86485714D01*
X175603423Y-86485714D02*
X175412947Y-86533333D01*
X175412947Y-86533333D02*
X175079614Y-86533333D01*
X175079614Y-86533333D02*
X174889138Y-86485714D01*
X174889138Y-86485714D02*
X174793900Y-86390476D01*
X174793900Y-86390476D02*
X174746280Y-86295238D01*
X174746280Y-86295238D02*
X174746280Y-86104762D01*
X174746280Y-86104762D02*
X174793900Y-86009524D01*
X174793900Y-86009524D02*
X174889138Y-85914286D01*
X174889138Y-85914286D02*
X175079614Y-85866667D01*
X175079614Y-85866667D02*
X175412947Y-85866667D01*
X175412947Y-85866667D02*
X175603423Y-85914286D01*
X175603423Y-85914286D02*
X175698661Y-86009524D01*
X175698661Y-86009524D02*
X175746280Y-86104762D01*
X174746280Y-87533333D02*
X175222471Y-87200000D01*
X174746280Y-86961905D02*
X175746280Y-86961905D01*
X175746280Y-86961905D02*
X175746280Y-87342857D01*
X175746280Y-87342857D02*
X175698661Y-87438095D01*
X175698661Y-87438095D02*
X175651042Y-87485714D01*
X175651042Y-87485714D02*
X175555804Y-87533333D01*
X175555804Y-87533333D02*
X175412947Y-87533333D01*
X175412947Y-87533333D02*
X175317709Y-87485714D01*
X175317709Y-87485714D02*
X175270090Y-87438095D01*
X175270090Y-87438095D02*
X175222471Y-87342857D01*
X175222471Y-87342857D02*
X175222471Y-86961905D01*
D12*
X148158080Y-69606666D02*
X148205700Y-69654285D01*
X148205700Y-69654285D02*
X148253319Y-69797142D01*
X148253319Y-69797142D02*
X148253319Y-69892380D01*
X148253319Y-69892380D02*
X148205700Y-70035237D01*
X148205700Y-70035237D02*
X148110461Y-70130475D01*
X148110461Y-70130475D02*
X148015223Y-70178094D01*
X148015223Y-70178094D02*
X147824747Y-70225713D01*
X147824747Y-70225713D02*
X147681890Y-70225713D01*
X147681890Y-70225713D02*
X147491414Y-70178094D01*
X147491414Y-70178094D02*
X147396176Y-70130475D01*
X147396176Y-70130475D02*
X147300938Y-70035237D01*
X147300938Y-70035237D02*
X147253319Y-69892380D01*
X147253319Y-69892380D02*
X147253319Y-69797142D01*
X147253319Y-69797142D02*
X147300938Y-69654285D01*
X147300938Y-69654285D02*
X147348557Y-69606666D01*
X148253319Y-69130475D02*
X148253319Y-68939999D01*
X148253319Y-68939999D02*
X148205700Y-68844761D01*
X148205700Y-68844761D02*
X148158080Y-68797142D01*
X148158080Y-68797142D02*
X148015223Y-68701904D01*
X148015223Y-68701904D02*
X147824747Y-68654285D01*
X147824747Y-68654285D02*
X147443795Y-68654285D01*
X147443795Y-68654285D02*
X147348557Y-68701904D01*
X147348557Y-68701904D02*
X147300938Y-68749523D01*
X147300938Y-68749523D02*
X147253319Y-68844761D01*
X147253319Y-68844761D02*
X147253319Y-69035237D01*
X147253319Y-69035237D02*
X147300938Y-69130475D01*
X147300938Y-69130475D02*
X147348557Y-69178094D01*
X147348557Y-69178094D02*
X147443795Y-69225713D01*
X147443795Y-69225713D02*
X147681890Y-69225713D01*
X147681890Y-69225713D02*
X147777128Y-69178094D01*
X147777128Y-69178094D02*
X147824747Y-69130475D01*
X147824747Y-69130475D02*
X147872366Y-69035237D01*
X147872366Y-69035237D02*
X147872366Y-68844761D01*
X147872366Y-68844761D02*
X147824747Y-68749523D01*
X147824747Y-68749523D02*
X147777128Y-68701904D01*
X147777128Y-68701904D02*
X147681890Y-68654285D01*
X135068095Y-75104819D02*
X135068095Y-75914342D01*
X135068095Y-75914342D02*
X135115714Y-76009580D01*
X135115714Y-76009580D02*
X135163333Y-76057200D01*
X135163333Y-76057200D02*
X135258571Y-76104819D01*
X135258571Y-76104819D02*
X135449047Y-76104819D01*
X135449047Y-76104819D02*
X135544285Y-76057200D01*
X135544285Y-76057200D02*
X135591904Y-76009580D01*
X135591904Y-76009580D02*
X135639523Y-75914342D01*
X135639523Y-75914342D02*
X135639523Y-75104819D01*
X136639523Y-76104819D02*
X136068095Y-76104819D01*
X136353809Y-76104819D02*
X136353809Y-75104819D01*
X136353809Y-75104819D02*
X136258571Y-75247676D01*
X136258571Y-75247676D02*
X136163333Y-75342914D01*
X136163333Y-75342914D02*
X136068095Y-75390533D01*
X129464819Y-95436666D02*
X128988628Y-95769999D01*
X129464819Y-96008094D02*
X128464819Y-96008094D01*
X128464819Y-96008094D02*
X128464819Y-95627142D01*
X128464819Y-95627142D02*
X128512438Y-95531904D01*
X128512438Y-95531904D02*
X128560057Y-95484285D01*
X128560057Y-95484285D02*
X128655295Y-95436666D01*
X128655295Y-95436666D02*
X128798152Y-95436666D01*
X128798152Y-95436666D02*
X128893390Y-95484285D01*
X128893390Y-95484285D02*
X128941009Y-95531904D01*
X128941009Y-95531904D02*
X128988628Y-95627142D01*
X128988628Y-95627142D02*
X128988628Y-96008094D01*
X128464819Y-95103332D02*
X128464819Y-94436666D01*
X128464819Y-94436666D02*
X129464819Y-94865237D01*
X129882309Y-63038628D02*
X129882309Y-63514819D01*
X129548976Y-62514819D02*
X129882309Y-63038628D01*
X129882309Y-63038628D02*
X130215642Y-62514819D01*
X130501357Y-62610057D02*
X130548976Y-62562438D01*
X130548976Y-62562438D02*
X130644214Y-62514819D01*
X130644214Y-62514819D02*
X130882309Y-62514819D01*
X130882309Y-62514819D02*
X130977547Y-62562438D01*
X130977547Y-62562438D02*
X131025166Y-62610057D01*
X131025166Y-62610057D02*
X131072785Y-62705295D01*
X131072785Y-62705295D02*
X131072785Y-62800533D01*
X131072785Y-62800533D02*
X131025166Y-62943390D01*
X131025166Y-62943390D02*
X130453738Y-63514819D01*
X130453738Y-63514819D02*
X131072785Y-63514819D01*
X158449642Y-91569580D02*
X158402023Y-91617200D01*
X158402023Y-91617200D02*
X158259166Y-91664819D01*
X158259166Y-91664819D02*
X158163928Y-91664819D01*
X158163928Y-91664819D02*
X158021071Y-91617200D01*
X158021071Y-91617200D02*
X157925833Y-91521961D01*
X157925833Y-91521961D02*
X157878214Y-91426723D01*
X157878214Y-91426723D02*
X157830595Y-91236247D01*
X157830595Y-91236247D02*
X157830595Y-91093390D01*
X157830595Y-91093390D02*
X157878214Y-90902914D01*
X157878214Y-90902914D02*
X157925833Y-90807676D01*
X157925833Y-90807676D02*
X158021071Y-90712438D01*
X158021071Y-90712438D02*
X158163928Y-90664819D01*
X158163928Y-90664819D02*
X158259166Y-90664819D01*
X158259166Y-90664819D02*
X158402023Y-90712438D01*
X158402023Y-90712438D02*
X158449642Y-90760057D01*
X158782976Y-90664819D02*
X159402023Y-90664819D01*
X159402023Y-90664819D02*
X159068690Y-91045771D01*
X159068690Y-91045771D02*
X159211547Y-91045771D01*
X159211547Y-91045771D02*
X159306785Y-91093390D01*
X159306785Y-91093390D02*
X159354404Y-91141009D01*
X159354404Y-91141009D02*
X159402023Y-91236247D01*
X159402023Y-91236247D02*
X159402023Y-91474342D01*
X159402023Y-91474342D02*
X159354404Y-91569580D01*
X159354404Y-91569580D02*
X159306785Y-91617200D01*
X159306785Y-91617200D02*
X159211547Y-91664819D01*
X159211547Y-91664819D02*
X158925833Y-91664819D01*
X158925833Y-91664819D02*
X158830595Y-91617200D01*
X158830595Y-91617200D02*
X158782976Y-91569580D01*
X160021071Y-90664819D02*
X160116309Y-90664819D01*
X160116309Y-90664819D02*
X160211547Y-90712438D01*
X160211547Y-90712438D02*
X160259166Y-90760057D01*
X160259166Y-90760057D02*
X160306785Y-90855295D01*
X160306785Y-90855295D02*
X160354404Y-91045771D01*
X160354404Y-91045771D02*
X160354404Y-91283866D01*
X160354404Y-91283866D02*
X160306785Y-91474342D01*
X160306785Y-91474342D02*
X160259166Y-91569580D01*
X160259166Y-91569580D02*
X160211547Y-91617200D01*
X160211547Y-91617200D02*
X160116309Y-91664819D01*
X160116309Y-91664819D02*
X160021071Y-91664819D01*
X160021071Y-91664819D02*
X159925833Y-91617200D01*
X159925833Y-91617200D02*
X159878214Y-91569580D01*
X159878214Y-91569580D02*
X159830595Y-91474342D01*
X159830595Y-91474342D02*
X159782976Y-91283866D01*
X159782976Y-91283866D02*
X159782976Y-91045771D01*
X159782976Y-91045771D02*
X159830595Y-90855295D01*
X159830595Y-90855295D02*
X159878214Y-90760057D01*
X159878214Y-90760057D02*
X159925833Y-90712438D01*
X159925833Y-90712438D02*
X160021071Y-90664819D01*
X140754142Y-123961580D02*
X140706523Y-124009200D01*
X140706523Y-124009200D02*
X140563666Y-124056819D01*
X140563666Y-124056819D02*
X140468428Y-124056819D01*
X140468428Y-124056819D02*
X140325571Y-124009200D01*
X140325571Y-124009200D02*
X140230333Y-123913961D01*
X140230333Y-123913961D02*
X140182714Y-123818723D01*
X140182714Y-123818723D02*
X140135095Y-123628247D01*
X140135095Y-123628247D02*
X140135095Y-123485390D01*
X140135095Y-123485390D02*
X140182714Y-123294914D01*
X140182714Y-123294914D02*
X140230333Y-123199676D01*
X140230333Y-123199676D02*
X140325571Y-123104438D01*
X140325571Y-123104438D02*
X140468428Y-123056819D01*
X140468428Y-123056819D02*
X140563666Y-123056819D01*
X140563666Y-123056819D02*
X140706523Y-123104438D01*
X140706523Y-123104438D02*
X140754142Y-123152057D01*
X141135095Y-123152057D02*
X141182714Y-123104438D01*
X141182714Y-123104438D02*
X141277952Y-123056819D01*
X141277952Y-123056819D02*
X141516047Y-123056819D01*
X141516047Y-123056819D02*
X141611285Y-123104438D01*
X141611285Y-123104438D02*
X141658904Y-123152057D01*
X141658904Y-123152057D02*
X141706523Y-123247295D01*
X141706523Y-123247295D02*
X141706523Y-123342533D01*
X141706523Y-123342533D02*
X141658904Y-123485390D01*
X141658904Y-123485390D02*
X141087476Y-124056819D01*
X141087476Y-124056819D02*
X141706523Y-124056819D01*
X142611285Y-123056819D02*
X142135095Y-123056819D01*
X142135095Y-123056819D02*
X142087476Y-123533009D01*
X142087476Y-123533009D02*
X142135095Y-123485390D01*
X142135095Y-123485390D02*
X142230333Y-123437771D01*
X142230333Y-123437771D02*
X142468428Y-123437771D01*
X142468428Y-123437771D02*
X142563666Y-123485390D01*
X142563666Y-123485390D02*
X142611285Y-123533009D01*
X142611285Y-123533009D02*
X142658904Y-123628247D01*
X142658904Y-123628247D02*
X142658904Y-123866342D01*
X142658904Y-123866342D02*
X142611285Y-123961580D01*
X142611285Y-123961580D02*
X142563666Y-124009200D01*
X142563666Y-124009200D02*
X142468428Y-124056819D01*
X142468428Y-124056819D02*
X142230333Y-124056819D01*
X142230333Y-124056819D02*
X142135095Y-124009200D01*
X142135095Y-124009200D02*
X142087476Y-123961580D01*
X164387142Y-90239580D02*
X164339523Y-90287200D01*
X164339523Y-90287200D02*
X164196666Y-90334819D01*
X164196666Y-90334819D02*
X164101428Y-90334819D01*
X164101428Y-90334819D02*
X163958571Y-90287200D01*
X163958571Y-90287200D02*
X163863333Y-90191961D01*
X163863333Y-90191961D02*
X163815714Y-90096723D01*
X163815714Y-90096723D02*
X163768095Y-89906247D01*
X163768095Y-89906247D02*
X163768095Y-89763390D01*
X163768095Y-89763390D02*
X163815714Y-89572914D01*
X163815714Y-89572914D02*
X163863333Y-89477676D01*
X163863333Y-89477676D02*
X163958571Y-89382438D01*
X163958571Y-89382438D02*
X164101428Y-89334819D01*
X164101428Y-89334819D02*
X164196666Y-89334819D01*
X164196666Y-89334819D02*
X164339523Y-89382438D01*
X164339523Y-89382438D02*
X164387142Y-89430057D01*
X164768095Y-89430057D02*
X164815714Y-89382438D01*
X164815714Y-89382438D02*
X164910952Y-89334819D01*
X164910952Y-89334819D02*
X165149047Y-89334819D01*
X165149047Y-89334819D02*
X165244285Y-89382438D01*
X165244285Y-89382438D02*
X165291904Y-89430057D01*
X165291904Y-89430057D02*
X165339523Y-89525295D01*
X165339523Y-89525295D02*
X165339523Y-89620533D01*
X165339523Y-89620533D02*
X165291904Y-89763390D01*
X165291904Y-89763390D02*
X164720476Y-90334819D01*
X164720476Y-90334819D02*
X165339523Y-90334819D01*
X165815714Y-90334819D02*
X166006190Y-90334819D01*
X166006190Y-90334819D02*
X166101428Y-90287200D01*
X166101428Y-90287200D02*
X166149047Y-90239580D01*
X166149047Y-90239580D02*
X166244285Y-90096723D01*
X166244285Y-90096723D02*
X166291904Y-89906247D01*
X166291904Y-89906247D02*
X166291904Y-89525295D01*
X166291904Y-89525295D02*
X166244285Y-89430057D01*
X166244285Y-89430057D02*
X166196666Y-89382438D01*
X166196666Y-89382438D02*
X166101428Y-89334819D01*
X166101428Y-89334819D02*
X165910952Y-89334819D01*
X165910952Y-89334819D02*
X165815714Y-89382438D01*
X165815714Y-89382438D02*
X165768095Y-89430057D01*
X165768095Y-89430057D02*
X165720476Y-89525295D01*
X165720476Y-89525295D02*
X165720476Y-89763390D01*
X165720476Y-89763390D02*
X165768095Y-89858628D01*
X165768095Y-89858628D02*
X165815714Y-89906247D01*
X165815714Y-89906247D02*
X165910952Y-89953866D01*
X165910952Y-89953866D02*
X166101428Y-89953866D01*
X166101428Y-89953866D02*
X166196666Y-89906247D01*
X166196666Y-89906247D02*
X166244285Y-89858628D01*
X166244285Y-89858628D02*
X166291904Y-89763390D01*
X168895642Y-124134819D02*
X168562309Y-123658628D01*
X168324214Y-124134819D02*
X168324214Y-123134819D01*
X168324214Y-123134819D02*
X168705166Y-123134819D01*
X168705166Y-123134819D02*
X168800404Y-123182438D01*
X168800404Y-123182438D02*
X168848023Y-123230057D01*
X168848023Y-123230057D02*
X168895642Y-123325295D01*
X168895642Y-123325295D02*
X168895642Y-123468152D01*
X168895642Y-123468152D02*
X168848023Y-123563390D01*
X168848023Y-123563390D02*
X168800404Y-123611009D01*
X168800404Y-123611009D02*
X168705166Y-123658628D01*
X168705166Y-123658628D02*
X168324214Y-123658628D01*
X169848023Y-124134819D02*
X169276595Y-124134819D01*
X169562309Y-124134819D02*
X169562309Y-123134819D01*
X169562309Y-123134819D02*
X169467071Y-123277676D01*
X169467071Y-123277676D02*
X169371833Y-123372914D01*
X169371833Y-123372914D02*
X169276595Y-123420533D01*
X170228976Y-123230057D02*
X170276595Y-123182438D01*
X170276595Y-123182438D02*
X170371833Y-123134819D01*
X170371833Y-123134819D02*
X170609928Y-123134819D01*
X170609928Y-123134819D02*
X170705166Y-123182438D01*
X170705166Y-123182438D02*
X170752785Y-123230057D01*
X170752785Y-123230057D02*
X170800404Y-123325295D01*
X170800404Y-123325295D02*
X170800404Y-123420533D01*
X170800404Y-123420533D02*
X170752785Y-123563390D01*
X170752785Y-123563390D02*
X170181357Y-124134819D01*
X170181357Y-124134819D02*
X170800404Y-124134819D01*
X146073333Y-96964819D02*
X145740000Y-96488628D01*
X145501905Y-96964819D02*
X145501905Y-95964819D01*
X145501905Y-95964819D02*
X145882857Y-95964819D01*
X145882857Y-95964819D02*
X145978095Y-96012438D01*
X145978095Y-96012438D02*
X146025714Y-96060057D01*
X146025714Y-96060057D02*
X146073333Y-96155295D01*
X146073333Y-96155295D02*
X146073333Y-96298152D01*
X146073333Y-96298152D02*
X146025714Y-96393390D01*
X146025714Y-96393390D02*
X145978095Y-96441009D01*
X145978095Y-96441009D02*
X145882857Y-96488628D01*
X145882857Y-96488628D02*
X145501905Y-96488628D01*
X146406667Y-95964819D02*
X147025714Y-95964819D01*
X147025714Y-95964819D02*
X146692381Y-96345771D01*
X146692381Y-96345771D02*
X146835238Y-96345771D01*
X146835238Y-96345771D02*
X146930476Y-96393390D01*
X146930476Y-96393390D02*
X146978095Y-96441009D01*
X146978095Y-96441009D02*
X147025714Y-96536247D01*
X147025714Y-96536247D02*
X147025714Y-96774342D01*
X147025714Y-96774342D02*
X146978095Y-96869580D01*
X146978095Y-96869580D02*
X146930476Y-96917200D01*
X146930476Y-96917200D02*
X146835238Y-96964819D01*
X146835238Y-96964819D02*
X146549524Y-96964819D01*
X146549524Y-96964819D02*
X146454286Y-96917200D01*
X146454286Y-96917200D02*
X146406667Y-96869580D01*
X144915642Y-124094819D02*
X144582309Y-123618628D01*
X144344214Y-124094819D02*
X144344214Y-123094819D01*
X144344214Y-123094819D02*
X144725166Y-123094819D01*
X144725166Y-123094819D02*
X144820404Y-123142438D01*
X144820404Y-123142438D02*
X144868023Y-123190057D01*
X144868023Y-123190057D02*
X144915642Y-123285295D01*
X144915642Y-123285295D02*
X144915642Y-123428152D01*
X144915642Y-123428152D02*
X144868023Y-123523390D01*
X144868023Y-123523390D02*
X144820404Y-123571009D01*
X144820404Y-123571009D02*
X144725166Y-123618628D01*
X144725166Y-123618628D02*
X144344214Y-123618628D01*
X145868023Y-124094819D02*
X145296595Y-124094819D01*
X145582309Y-124094819D02*
X145582309Y-123094819D01*
X145582309Y-123094819D02*
X145487071Y-123237676D01*
X145487071Y-123237676D02*
X145391833Y-123332914D01*
X145391833Y-123332914D02*
X145296595Y-123380533D01*
X146487071Y-123094819D02*
X146582309Y-123094819D01*
X146582309Y-123094819D02*
X146677547Y-123142438D01*
X146677547Y-123142438D02*
X146725166Y-123190057D01*
X146725166Y-123190057D02*
X146772785Y-123285295D01*
X146772785Y-123285295D02*
X146820404Y-123475771D01*
X146820404Y-123475771D02*
X146820404Y-123713866D01*
X146820404Y-123713866D02*
X146772785Y-123904342D01*
X146772785Y-123904342D02*
X146725166Y-123999580D01*
X146725166Y-123999580D02*
X146677547Y-124047200D01*
X146677547Y-124047200D02*
X146582309Y-124094819D01*
X146582309Y-124094819D02*
X146487071Y-124094819D01*
X146487071Y-124094819D02*
X146391833Y-124047200D01*
X146391833Y-124047200D02*
X146344214Y-123999580D01*
X146344214Y-123999580D02*
X146296595Y-123904342D01*
X146296595Y-123904342D02*
X146248976Y-123713866D01*
X146248976Y-123713866D02*
X146248976Y-123475771D01*
X146248976Y-123475771D02*
X146296595Y-123285295D01*
X146296595Y-123285295D02*
X146344214Y-123190057D01*
X146344214Y-123190057D02*
X146391833Y-123142438D01*
X146391833Y-123142438D02*
X146487071Y-123094819D01*
D11*
X112095004Y-98918094D02*
X112095004Y-98441904D01*
X112380719Y-99013332D02*
X111380719Y-98679999D01*
X111380719Y-98679999D02*
X112380719Y-98346666D01*
X112380719Y-98013332D02*
X111380719Y-98013332D01*
X111380719Y-98013332D02*
X111380719Y-97775237D01*
X111380719Y-97775237D02*
X111428338Y-97632380D01*
X111428338Y-97632380D02*
X111523576Y-97537142D01*
X111523576Y-97537142D02*
X111618814Y-97489523D01*
X111618814Y-97489523D02*
X111809290Y-97441904D01*
X111809290Y-97441904D02*
X111952147Y-97441904D01*
X111952147Y-97441904D02*
X112142623Y-97489523D01*
X112142623Y-97489523D02*
X112237861Y-97537142D01*
X112237861Y-97537142D02*
X112333100Y-97632380D01*
X112333100Y-97632380D02*
X112380719Y-97775237D01*
X112380719Y-97775237D02*
X112380719Y-98013332D01*
X112285480Y-96441904D02*
X112333100Y-96489523D01*
X112333100Y-96489523D02*
X112380719Y-96632380D01*
X112380719Y-96632380D02*
X112380719Y-96727618D01*
X112380719Y-96727618D02*
X112333100Y-96870475D01*
X112333100Y-96870475D02*
X112237861Y-96965713D01*
X112237861Y-96965713D02*
X112142623Y-97013332D01*
X112142623Y-97013332D02*
X111952147Y-97060951D01*
X111952147Y-97060951D02*
X111809290Y-97060951D01*
X111809290Y-97060951D02*
X111618814Y-97013332D01*
X111618814Y-97013332D02*
X111523576Y-96965713D01*
X111523576Y-96965713D02*
X111428338Y-96870475D01*
X111428338Y-96870475D02*
X111380719Y-96727618D01*
X111380719Y-96727618D02*
X111380719Y-96632380D01*
X111380719Y-96632380D02*
X111428338Y-96489523D01*
X111428338Y-96489523D02*
X111475957Y-96441904D01*
D12*
X135828080Y-72432857D02*
X135875700Y-72480476D01*
X135875700Y-72480476D02*
X135923319Y-72623333D01*
X135923319Y-72623333D02*
X135923319Y-72718571D01*
X135923319Y-72718571D02*
X135875700Y-72861428D01*
X135875700Y-72861428D02*
X135780461Y-72956666D01*
X135780461Y-72956666D02*
X135685223Y-73004285D01*
X135685223Y-73004285D02*
X135494747Y-73051904D01*
X135494747Y-73051904D02*
X135351890Y-73051904D01*
X135351890Y-73051904D02*
X135161414Y-73004285D01*
X135161414Y-73004285D02*
X135066176Y-72956666D01*
X135066176Y-72956666D02*
X134970938Y-72861428D01*
X134970938Y-72861428D02*
X134923319Y-72718571D01*
X134923319Y-72718571D02*
X134923319Y-72623333D01*
X134923319Y-72623333D02*
X134970938Y-72480476D01*
X134970938Y-72480476D02*
X135018557Y-72432857D01*
X135923319Y-71480476D02*
X135923319Y-72051904D01*
X135923319Y-71766190D02*
X134923319Y-71766190D01*
X134923319Y-71766190D02*
X135066176Y-71861428D01*
X135066176Y-71861428D02*
X135161414Y-71956666D01*
X135161414Y-71956666D02*
X135209033Y-72051904D01*
X134923319Y-71147142D02*
X134923319Y-70480476D01*
X134923319Y-70480476D02*
X135923319Y-70909047D01*
D11*
X117670167Y-127984600D02*
X117813024Y-128032219D01*
X117813024Y-128032219D02*
X118051119Y-128032219D01*
X118051119Y-128032219D02*
X118146357Y-127984600D01*
X118146357Y-127984600D02*
X118193976Y-127936980D01*
X118193976Y-127936980D02*
X118241595Y-127841742D01*
X118241595Y-127841742D02*
X118241595Y-127746504D01*
X118241595Y-127746504D02*
X118193976Y-127651266D01*
X118193976Y-127651266D02*
X118146357Y-127603647D01*
X118146357Y-127603647D02*
X118051119Y-127556028D01*
X118051119Y-127556028D02*
X117860643Y-127508409D01*
X117860643Y-127508409D02*
X117765405Y-127460790D01*
X117765405Y-127460790D02*
X117717786Y-127413171D01*
X117717786Y-127413171D02*
X117670167Y-127317933D01*
X117670167Y-127317933D02*
X117670167Y-127222695D01*
X117670167Y-127222695D02*
X117717786Y-127127457D01*
X117717786Y-127127457D02*
X117765405Y-127079838D01*
X117765405Y-127079838D02*
X117860643Y-127032219D01*
X117860643Y-127032219D02*
X118098738Y-127032219D01*
X118098738Y-127032219D02*
X118241595Y-127079838D01*
X118574929Y-127032219D02*
X118813024Y-128032219D01*
X118813024Y-128032219D02*
X119003500Y-127317933D01*
X119003500Y-127317933D02*
X119193976Y-128032219D01*
X119193976Y-128032219D02*
X119432072Y-127032219D01*
X120003500Y-127032219D02*
X120098738Y-127032219D01*
X120098738Y-127032219D02*
X120193976Y-127079838D01*
X120193976Y-127079838D02*
X120241595Y-127127457D01*
X120241595Y-127127457D02*
X120289214Y-127222695D01*
X120289214Y-127222695D02*
X120336833Y-127413171D01*
X120336833Y-127413171D02*
X120336833Y-127651266D01*
X120336833Y-127651266D02*
X120289214Y-127841742D01*
X120289214Y-127841742D02*
X120241595Y-127936980D01*
X120241595Y-127936980D02*
X120193976Y-127984600D01*
X120193976Y-127984600D02*
X120098738Y-128032219D01*
X120098738Y-128032219D02*
X120003500Y-128032219D01*
X120003500Y-128032219D02*
X119908262Y-127984600D01*
X119908262Y-127984600D02*
X119860643Y-127936980D01*
X119860643Y-127936980D02*
X119813024Y-127841742D01*
X119813024Y-127841742D02*
X119765405Y-127651266D01*
X119765405Y-127651266D02*
X119765405Y-127413171D01*
X119765405Y-127413171D02*
X119813024Y-127222695D01*
X119813024Y-127222695D02*
X119860643Y-127127457D01*
X119860643Y-127127457D02*
X119908262Y-127079838D01*
X119908262Y-127079838D02*
X120003500Y-127032219D01*
D12*
X150379523Y-115714819D02*
X150046190Y-115238628D01*
X149808095Y-115714819D02*
X149808095Y-114714819D01*
X149808095Y-114714819D02*
X150189047Y-114714819D01*
X150189047Y-114714819D02*
X150284285Y-114762438D01*
X150284285Y-114762438D02*
X150331904Y-114810057D01*
X150331904Y-114810057D02*
X150379523Y-114905295D01*
X150379523Y-114905295D02*
X150379523Y-115048152D01*
X150379523Y-115048152D02*
X150331904Y-115143390D01*
X150331904Y-115143390D02*
X150284285Y-115191009D01*
X150284285Y-115191009D02*
X150189047Y-115238628D01*
X150189047Y-115238628D02*
X149808095Y-115238628D01*
X150808095Y-115714819D02*
X150808095Y-114714819D01*
X150808095Y-114714819D02*
X151379523Y-115714819D01*
X151379523Y-115714819D02*
X151379523Y-114714819D01*
X151808095Y-114810057D02*
X151855714Y-114762438D01*
X151855714Y-114762438D02*
X151950952Y-114714819D01*
X151950952Y-114714819D02*
X152189047Y-114714819D01*
X152189047Y-114714819D02*
X152284285Y-114762438D01*
X152284285Y-114762438D02*
X152331904Y-114810057D01*
X152331904Y-114810057D02*
X152379523Y-114905295D01*
X152379523Y-114905295D02*
X152379523Y-115000533D01*
X152379523Y-115000533D02*
X152331904Y-115143390D01*
X152331904Y-115143390D02*
X151760476Y-115714819D01*
X151760476Y-115714819D02*
X152379523Y-115714819D01*
X157311833Y-64114819D02*
X156978500Y-63638628D01*
X156740405Y-64114819D02*
X156740405Y-63114819D01*
X156740405Y-63114819D02*
X157121357Y-63114819D01*
X157121357Y-63114819D02*
X157216595Y-63162438D01*
X157216595Y-63162438D02*
X157264214Y-63210057D01*
X157264214Y-63210057D02*
X157311833Y-63305295D01*
X157311833Y-63305295D02*
X157311833Y-63448152D01*
X157311833Y-63448152D02*
X157264214Y-63543390D01*
X157264214Y-63543390D02*
X157216595Y-63591009D01*
X157216595Y-63591009D02*
X157121357Y-63638628D01*
X157121357Y-63638628D02*
X156740405Y-63638628D01*
X158168976Y-63114819D02*
X157978500Y-63114819D01*
X157978500Y-63114819D02*
X157883262Y-63162438D01*
X157883262Y-63162438D02*
X157835643Y-63210057D01*
X157835643Y-63210057D02*
X157740405Y-63352914D01*
X157740405Y-63352914D02*
X157692786Y-63543390D01*
X157692786Y-63543390D02*
X157692786Y-63924342D01*
X157692786Y-63924342D02*
X157740405Y-64019580D01*
X157740405Y-64019580D02*
X157788024Y-64067200D01*
X157788024Y-64067200D02*
X157883262Y-64114819D01*
X157883262Y-64114819D02*
X158073738Y-64114819D01*
X158073738Y-64114819D02*
X158168976Y-64067200D01*
X158168976Y-64067200D02*
X158216595Y-64019580D01*
X158216595Y-64019580D02*
X158264214Y-63924342D01*
X158264214Y-63924342D02*
X158264214Y-63686247D01*
X158264214Y-63686247D02*
X158216595Y-63591009D01*
X158216595Y-63591009D02*
X158168976Y-63543390D01*
X158168976Y-63543390D02*
X158073738Y-63495771D01*
X158073738Y-63495771D02*
X157883262Y-63495771D01*
X157883262Y-63495771D02*
X157788024Y-63543390D01*
X157788024Y-63543390D02*
X157740405Y-63591009D01*
X157740405Y-63591009D02*
X157692786Y-63686247D01*
X145158080Y-70442857D02*
X145205700Y-70490476D01*
X145205700Y-70490476D02*
X145253319Y-70633333D01*
X145253319Y-70633333D02*
X145253319Y-70728571D01*
X145253319Y-70728571D02*
X145205700Y-70871428D01*
X145205700Y-70871428D02*
X145110461Y-70966666D01*
X145110461Y-70966666D02*
X145015223Y-71014285D01*
X145015223Y-71014285D02*
X144824747Y-71061904D01*
X144824747Y-71061904D02*
X144681890Y-71061904D01*
X144681890Y-71061904D02*
X144491414Y-71014285D01*
X144491414Y-71014285D02*
X144396176Y-70966666D01*
X144396176Y-70966666D02*
X144300938Y-70871428D01*
X144300938Y-70871428D02*
X144253319Y-70728571D01*
X144253319Y-70728571D02*
X144253319Y-70633333D01*
X144253319Y-70633333D02*
X144300938Y-70490476D01*
X144300938Y-70490476D02*
X144348557Y-70442857D01*
X145253319Y-69490476D02*
X145253319Y-70061904D01*
X145253319Y-69776190D02*
X144253319Y-69776190D01*
X144253319Y-69776190D02*
X144396176Y-69871428D01*
X144396176Y-69871428D02*
X144491414Y-69966666D01*
X144491414Y-69966666D02*
X144539033Y-70061904D01*
X144253319Y-68871428D02*
X144253319Y-68776190D01*
X144253319Y-68776190D02*
X144300938Y-68680952D01*
X144300938Y-68680952D02*
X144348557Y-68633333D01*
X144348557Y-68633333D02*
X144443795Y-68585714D01*
X144443795Y-68585714D02*
X144634271Y-68538095D01*
X144634271Y-68538095D02*
X144872366Y-68538095D01*
X144872366Y-68538095D02*
X145062842Y-68585714D01*
X145062842Y-68585714D02*
X145158080Y-68633333D01*
X145158080Y-68633333D02*
X145205700Y-68680952D01*
X145205700Y-68680952D02*
X145253319Y-68776190D01*
X145253319Y-68776190D02*
X145253319Y-68871428D01*
X145253319Y-68871428D02*
X145205700Y-68966666D01*
X145205700Y-68966666D02*
X145158080Y-69014285D01*
X145158080Y-69014285D02*
X145062842Y-69061904D01*
X145062842Y-69061904D02*
X144872366Y-69109523D01*
X144872366Y-69109523D02*
X144634271Y-69109523D01*
X144634271Y-69109523D02*
X144443795Y-69061904D01*
X144443795Y-69061904D02*
X144348557Y-69014285D01*
X144348557Y-69014285D02*
X144300938Y-68966666D01*
X144300938Y-68966666D02*
X144253319Y-68871428D01*
X119197128Y-70286190D02*
X119673319Y-70286190D01*
X118673319Y-70619523D02*
X119197128Y-70286190D01*
X119197128Y-70286190D02*
X118673319Y-69952857D01*
X119673319Y-69095714D02*
X119673319Y-69667142D01*
X119673319Y-69381428D02*
X118673319Y-69381428D01*
X118673319Y-69381428D02*
X118816176Y-69476666D01*
X118816176Y-69476666D02*
X118911414Y-69571904D01*
X118911414Y-69571904D02*
X118959033Y-69667142D01*
D11*
X142065167Y-128014600D02*
X142208024Y-128062219D01*
X142208024Y-128062219D02*
X142446119Y-128062219D01*
X142446119Y-128062219D02*
X142541357Y-128014600D01*
X142541357Y-128014600D02*
X142588976Y-127966980D01*
X142588976Y-127966980D02*
X142636595Y-127871742D01*
X142636595Y-127871742D02*
X142636595Y-127776504D01*
X142636595Y-127776504D02*
X142588976Y-127681266D01*
X142588976Y-127681266D02*
X142541357Y-127633647D01*
X142541357Y-127633647D02*
X142446119Y-127586028D01*
X142446119Y-127586028D02*
X142255643Y-127538409D01*
X142255643Y-127538409D02*
X142160405Y-127490790D01*
X142160405Y-127490790D02*
X142112786Y-127443171D01*
X142112786Y-127443171D02*
X142065167Y-127347933D01*
X142065167Y-127347933D02*
X142065167Y-127252695D01*
X142065167Y-127252695D02*
X142112786Y-127157457D01*
X142112786Y-127157457D02*
X142160405Y-127109838D01*
X142160405Y-127109838D02*
X142255643Y-127062219D01*
X142255643Y-127062219D02*
X142493738Y-127062219D01*
X142493738Y-127062219D02*
X142636595Y-127109838D01*
X142969929Y-127062219D02*
X143208024Y-128062219D01*
X143208024Y-128062219D02*
X143398500Y-127347933D01*
X143398500Y-127347933D02*
X143588976Y-128062219D01*
X143588976Y-128062219D02*
X143827072Y-127062219D01*
X144160405Y-127157457D02*
X144208024Y-127109838D01*
X144208024Y-127109838D02*
X144303262Y-127062219D01*
X144303262Y-127062219D02*
X144541357Y-127062219D01*
X144541357Y-127062219D02*
X144636595Y-127109838D01*
X144636595Y-127109838D02*
X144684214Y-127157457D01*
X144684214Y-127157457D02*
X144731833Y-127252695D01*
X144731833Y-127252695D02*
X144731833Y-127347933D01*
X144731833Y-127347933D02*
X144684214Y-127490790D01*
X144684214Y-127490790D02*
X144112786Y-128062219D01*
X144112786Y-128062219D02*
X144731833Y-128062219D01*
X156711356Y-55742219D02*
X156235166Y-55742219D01*
X156235166Y-55742219D02*
X156235166Y-54742219D01*
X156997071Y-55456504D02*
X157473261Y-55456504D01*
X156901833Y-55742219D02*
X157235166Y-54742219D01*
X157235166Y-54742219D02*
X157568499Y-55742219D01*
X157854214Y-55694600D02*
X157997071Y-55742219D01*
X157997071Y-55742219D02*
X158235166Y-55742219D01*
X158235166Y-55742219D02*
X158330404Y-55694600D01*
X158330404Y-55694600D02*
X158378023Y-55646980D01*
X158378023Y-55646980D02*
X158425642Y-55551742D01*
X158425642Y-55551742D02*
X158425642Y-55456504D01*
X158425642Y-55456504D02*
X158378023Y-55361266D01*
X158378023Y-55361266D02*
X158330404Y-55313647D01*
X158330404Y-55313647D02*
X158235166Y-55266028D01*
X158235166Y-55266028D02*
X158044690Y-55218409D01*
X158044690Y-55218409D02*
X157949452Y-55170790D01*
X157949452Y-55170790D02*
X157901833Y-55123171D01*
X157901833Y-55123171D02*
X157854214Y-55027933D01*
X157854214Y-55027933D02*
X157854214Y-54932695D01*
X157854214Y-54932695D02*
X157901833Y-54837457D01*
X157901833Y-54837457D02*
X157949452Y-54789838D01*
X157949452Y-54789838D02*
X158044690Y-54742219D01*
X158044690Y-54742219D02*
X158282785Y-54742219D01*
X158282785Y-54742219D02*
X158425642Y-54789838D01*
X158854214Y-55218409D02*
X159187547Y-55218409D01*
X159330404Y-55742219D02*
X158854214Y-55742219D01*
X158854214Y-55742219D02*
X158854214Y-54742219D01*
X158854214Y-54742219D02*
X159330404Y-54742219D01*
X160330404Y-55742219D02*
X159997071Y-55266028D01*
X159758976Y-55742219D02*
X159758976Y-54742219D01*
X159758976Y-54742219D02*
X160139928Y-54742219D01*
X160139928Y-54742219D02*
X160235166Y-54789838D01*
X160235166Y-54789838D02*
X160282785Y-54837457D01*
X160282785Y-54837457D02*
X160330404Y-54932695D01*
X160330404Y-54932695D02*
X160330404Y-55075552D01*
X160330404Y-55075552D02*
X160282785Y-55170790D01*
X160282785Y-55170790D02*
X160235166Y-55218409D01*
X160235166Y-55218409D02*
X160139928Y-55266028D01*
X160139928Y-55266028D02*
X159758976Y-55266028D01*
X160520881Y-55837457D02*
X161282785Y-55837457D01*
X161854214Y-55218409D02*
X161520881Y-55218409D01*
X161520881Y-55742219D02*
X161520881Y-54742219D01*
X161520881Y-54742219D02*
X161997071Y-54742219D01*
X162949452Y-55742219D02*
X162616119Y-55266028D01*
X162378024Y-55742219D02*
X162378024Y-54742219D01*
X162378024Y-54742219D02*
X162758976Y-54742219D01*
X162758976Y-54742219D02*
X162854214Y-54789838D01*
X162854214Y-54789838D02*
X162901833Y-54837457D01*
X162901833Y-54837457D02*
X162949452Y-54932695D01*
X162949452Y-54932695D02*
X162949452Y-55075552D01*
X162949452Y-55075552D02*
X162901833Y-55170790D01*
X162901833Y-55170790D02*
X162854214Y-55218409D01*
X162854214Y-55218409D02*
X162758976Y-55266028D01*
X162758976Y-55266028D02*
X162378024Y-55266028D01*
D12*
X124989047Y-112271009D02*
X125131904Y-112318628D01*
X125131904Y-112318628D02*
X125179523Y-112366247D01*
X125179523Y-112366247D02*
X125227142Y-112461485D01*
X125227142Y-112461485D02*
X125227142Y-112604342D01*
X125227142Y-112604342D02*
X125179523Y-112699580D01*
X125179523Y-112699580D02*
X125131904Y-112747200D01*
X125131904Y-112747200D02*
X125036666Y-112794819D01*
X125036666Y-112794819D02*
X124655714Y-112794819D01*
X124655714Y-112794819D02*
X124655714Y-111794819D01*
X124655714Y-111794819D02*
X124989047Y-111794819D01*
X124989047Y-111794819D02*
X125084285Y-111842438D01*
X125084285Y-111842438D02*
X125131904Y-111890057D01*
X125131904Y-111890057D02*
X125179523Y-111985295D01*
X125179523Y-111985295D02*
X125179523Y-112080533D01*
X125179523Y-112080533D02*
X125131904Y-112175771D01*
X125131904Y-112175771D02*
X125084285Y-112223390D01*
X125084285Y-112223390D02*
X124989047Y-112271009D01*
X124989047Y-112271009D02*
X124655714Y-112271009D01*
X125560476Y-111794819D02*
X126227142Y-111794819D01*
X126227142Y-111794819D02*
X125560476Y-112794819D01*
X125560476Y-112794819D02*
X126227142Y-112794819D01*
X127131904Y-112794819D02*
X126560476Y-112794819D01*
X126846190Y-112794819D02*
X126846190Y-111794819D01*
X126846190Y-111794819D02*
X126750952Y-111937676D01*
X126750952Y-111937676D02*
X126655714Y-112032914D01*
X126655714Y-112032914D02*
X126560476Y-112080533D01*
X121669048Y-102743866D02*
X122430953Y-102743866D01*
X122050000Y-103124819D02*
X122050000Y-102362914D01*
X164838142Y-124039580D02*
X164790523Y-124087200D01*
X164790523Y-124087200D02*
X164647666Y-124134819D01*
X164647666Y-124134819D02*
X164552428Y-124134819D01*
X164552428Y-124134819D02*
X164409571Y-124087200D01*
X164409571Y-124087200D02*
X164314333Y-123991961D01*
X164314333Y-123991961D02*
X164266714Y-123896723D01*
X164266714Y-123896723D02*
X164219095Y-123706247D01*
X164219095Y-123706247D02*
X164219095Y-123563390D01*
X164219095Y-123563390D02*
X164266714Y-123372914D01*
X164266714Y-123372914D02*
X164314333Y-123277676D01*
X164314333Y-123277676D02*
X164409571Y-123182438D01*
X164409571Y-123182438D02*
X164552428Y-123134819D01*
X164552428Y-123134819D02*
X164647666Y-123134819D01*
X164647666Y-123134819D02*
X164790523Y-123182438D01*
X164790523Y-123182438D02*
X164838142Y-123230057D01*
X165219095Y-123230057D02*
X165266714Y-123182438D01*
X165266714Y-123182438D02*
X165361952Y-123134819D01*
X165361952Y-123134819D02*
X165600047Y-123134819D01*
X165600047Y-123134819D02*
X165695285Y-123182438D01*
X165695285Y-123182438D02*
X165742904Y-123230057D01*
X165742904Y-123230057D02*
X165790523Y-123325295D01*
X165790523Y-123325295D02*
X165790523Y-123420533D01*
X165790523Y-123420533D02*
X165742904Y-123563390D01*
X165742904Y-123563390D02*
X165171476Y-124134819D01*
X165171476Y-124134819D02*
X165790523Y-124134819D01*
X166123857Y-123134819D02*
X166790523Y-123134819D01*
X166790523Y-123134819D02*
X166361952Y-124134819D01*
X129529580Y-73066666D02*
X129577200Y-73114285D01*
X129577200Y-73114285D02*
X129624819Y-73257142D01*
X129624819Y-73257142D02*
X129624819Y-73352380D01*
X129624819Y-73352380D02*
X129577200Y-73495237D01*
X129577200Y-73495237D02*
X129481961Y-73590475D01*
X129481961Y-73590475D02*
X129386723Y-73638094D01*
X129386723Y-73638094D02*
X129196247Y-73685713D01*
X129196247Y-73685713D02*
X129053390Y-73685713D01*
X129053390Y-73685713D02*
X128862914Y-73638094D01*
X128862914Y-73638094D02*
X128767676Y-73590475D01*
X128767676Y-73590475D02*
X128672438Y-73495237D01*
X128672438Y-73495237D02*
X128624819Y-73352380D01*
X128624819Y-73352380D02*
X128624819Y-73257142D01*
X128624819Y-73257142D02*
X128672438Y-73114285D01*
X128672438Y-73114285D02*
X128720057Y-73066666D01*
X128624819Y-72161904D02*
X128624819Y-72638094D01*
X128624819Y-72638094D02*
X129101009Y-72685713D01*
X129101009Y-72685713D02*
X129053390Y-72638094D01*
X129053390Y-72638094D02*
X129005771Y-72542856D01*
X129005771Y-72542856D02*
X129005771Y-72304761D01*
X129005771Y-72304761D02*
X129053390Y-72209523D01*
X129053390Y-72209523D02*
X129101009Y-72161904D01*
X129101009Y-72161904D02*
X129196247Y-72114285D01*
X129196247Y-72114285D02*
X129434342Y-72114285D01*
X129434342Y-72114285D02*
X129529580Y-72161904D01*
X129529580Y-72161904D02*
X129577200Y-72209523D01*
X129577200Y-72209523D02*
X129624819Y-72304761D01*
X129624819Y-72304761D02*
X129624819Y-72542856D01*
X129624819Y-72542856D02*
X129577200Y-72638094D01*
X129577200Y-72638094D02*
X129529580Y-72685713D01*
X153094333Y-69964819D02*
X152618143Y-69964819D01*
X152618143Y-69964819D02*
X152618143Y-68964819D01*
X153380048Y-69060057D02*
X153427667Y-69012438D01*
X153427667Y-69012438D02*
X153522905Y-68964819D01*
X153522905Y-68964819D02*
X153761000Y-68964819D01*
X153761000Y-68964819D02*
X153856238Y-69012438D01*
X153856238Y-69012438D02*
X153903857Y-69060057D01*
X153903857Y-69060057D02*
X153951476Y-69155295D01*
X153951476Y-69155295D02*
X153951476Y-69250533D01*
X153951476Y-69250533D02*
X153903857Y-69393390D01*
X153903857Y-69393390D02*
X153332429Y-69964819D01*
X153332429Y-69964819D02*
X153951476Y-69964819D01*
X127647142Y-91969580D02*
X127599523Y-92017200D01*
X127599523Y-92017200D02*
X127456666Y-92064819D01*
X127456666Y-92064819D02*
X127361428Y-92064819D01*
X127361428Y-92064819D02*
X127218571Y-92017200D01*
X127218571Y-92017200D02*
X127123333Y-91921961D01*
X127123333Y-91921961D02*
X127075714Y-91826723D01*
X127075714Y-91826723D02*
X127028095Y-91636247D01*
X127028095Y-91636247D02*
X127028095Y-91493390D01*
X127028095Y-91493390D02*
X127075714Y-91302914D01*
X127075714Y-91302914D02*
X127123333Y-91207676D01*
X127123333Y-91207676D02*
X127218571Y-91112438D01*
X127218571Y-91112438D02*
X127361428Y-91064819D01*
X127361428Y-91064819D02*
X127456666Y-91064819D01*
X127456666Y-91064819D02*
X127599523Y-91112438D01*
X127599523Y-91112438D02*
X127647142Y-91160057D01*
X128599523Y-92064819D02*
X128028095Y-92064819D01*
X128313809Y-92064819D02*
X128313809Y-91064819D01*
X128313809Y-91064819D02*
X128218571Y-91207676D01*
X128218571Y-91207676D02*
X128123333Y-91302914D01*
X128123333Y-91302914D02*
X128028095Y-91350533D01*
X129075714Y-92064819D02*
X129266190Y-92064819D01*
X129266190Y-92064819D02*
X129361428Y-92017200D01*
X129361428Y-92017200D02*
X129409047Y-91969580D01*
X129409047Y-91969580D02*
X129504285Y-91826723D01*
X129504285Y-91826723D02*
X129551904Y-91636247D01*
X129551904Y-91636247D02*
X129551904Y-91255295D01*
X129551904Y-91255295D02*
X129504285Y-91160057D01*
X129504285Y-91160057D02*
X129456666Y-91112438D01*
X129456666Y-91112438D02*
X129361428Y-91064819D01*
X129361428Y-91064819D02*
X129170952Y-91064819D01*
X129170952Y-91064819D02*
X129075714Y-91112438D01*
X129075714Y-91112438D02*
X129028095Y-91160057D01*
X129028095Y-91160057D02*
X128980476Y-91255295D01*
X128980476Y-91255295D02*
X128980476Y-91493390D01*
X128980476Y-91493390D02*
X129028095Y-91588628D01*
X129028095Y-91588628D02*
X129075714Y-91636247D01*
X129075714Y-91636247D02*
X129170952Y-91683866D01*
X129170952Y-91683866D02*
X129361428Y-91683866D01*
X129361428Y-91683866D02*
X129456666Y-91636247D01*
X129456666Y-91636247D02*
X129504285Y-91588628D01*
X129504285Y-91588628D02*
X129551904Y-91493390D01*
X139231905Y-111634819D02*
X139231905Y-110634819D01*
X139231905Y-110634819D02*
X139470000Y-110634819D01*
X139470000Y-110634819D02*
X139612857Y-110682438D01*
X139612857Y-110682438D02*
X139708095Y-110777676D01*
X139708095Y-110777676D02*
X139755714Y-110872914D01*
X139755714Y-110872914D02*
X139803333Y-111063390D01*
X139803333Y-111063390D02*
X139803333Y-111206247D01*
X139803333Y-111206247D02*
X139755714Y-111396723D01*
X139755714Y-111396723D02*
X139708095Y-111491961D01*
X139708095Y-111491961D02*
X139612857Y-111587200D01*
X139612857Y-111587200D02*
X139470000Y-111634819D01*
X139470000Y-111634819D02*
X139231905Y-111634819D01*
X140136667Y-110634819D02*
X140755714Y-110634819D01*
X140755714Y-110634819D02*
X140422381Y-111015771D01*
X140422381Y-111015771D02*
X140565238Y-111015771D01*
X140565238Y-111015771D02*
X140660476Y-111063390D01*
X140660476Y-111063390D02*
X140708095Y-111111009D01*
X140708095Y-111111009D02*
X140755714Y-111206247D01*
X140755714Y-111206247D02*
X140755714Y-111444342D01*
X140755714Y-111444342D02*
X140708095Y-111539580D01*
X140708095Y-111539580D02*
X140660476Y-111587200D01*
X140660476Y-111587200D02*
X140565238Y-111634819D01*
X140565238Y-111634819D02*
X140279524Y-111634819D01*
X140279524Y-111634819D02*
X140184286Y-111587200D01*
X140184286Y-111587200D02*
X140136667Y-111539580D01*
X143361905Y-111784819D02*
X143361905Y-110784819D01*
X143361905Y-110784819D02*
X143600000Y-110784819D01*
X143600000Y-110784819D02*
X143742857Y-110832438D01*
X143742857Y-110832438D02*
X143838095Y-110927676D01*
X143838095Y-110927676D02*
X143885714Y-111022914D01*
X143885714Y-111022914D02*
X143933333Y-111213390D01*
X143933333Y-111213390D02*
X143933333Y-111356247D01*
X143933333Y-111356247D02*
X143885714Y-111546723D01*
X143885714Y-111546723D02*
X143838095Y-111641961D01*
X143838095Y-111641961D02*
X143742857Y-111737200D01*
X143742857Y-111737200D02*
X143600000Y-111784819D01*
X143600000Y-111784819D02*
X143361905Y-111784819D01*
X144790476Y-111118152D02*
X144790476Y-111784819D01*
X144552381Y-110737200D02*
X144314286Y-111451485D01*
X144314286Y-111451485D02*
X144933333Y-111451485D01*
D13*
X174598500Y-92960000D02*
X168629500Y-92960000D01*
X168629500Y-92960000D02*
X168629500Y-105660000D01*
X168629500Y-105660000D02*
X174598500Y-105660000D01*
X174598500Y-105660000D02*
X174598500Y-92960000D01*
X173582500Y-97532000D02*
X174598500Y-97532000D01*
X174598500Y-97532000D02*
X174598500Y-101138800D01*
X174598500Y-101138800D02*
X173582500Y-101138800D01*
X173582500Y-101138800D02*
X173582500Y-97532000D01*
G36*
X152717827Y-105447293D02*
G01*
X152749177Y-105465750D01*
X152730423Y-105483492D01*
X152696736Y-105517793D01*
X152692167Y-105575547D01*
X152718199Y-105679624D01*
X152749258Y-105774219D01*
X152798354Y-105900249D01*
X152840658Y-105976852D01*
X152863514Y-105988582D01*
X152894919Y-105929402D01*
X152942619Y-105816396D01*
X152973058Y-105736760D01*
X153017236Y-105603889D01*
X153026016Y-105528635D01*
X153001108Y-105487409D01*
X152991596Y-105480765D01*
X152978826Y-105453834D01*
X153051918Y-105442389D01*
X153086415Y-105441860D01*
X153175928Y-105449622D01*
X153201460Y-105468856D01*
X153195602Y-105474656D01*
X153161194Y-105527878D01*
X153104994Y-105646097D01*
X153035561Y-105810348D01*
X152979375Y-105953850D01*
X152905350Y-106143304D01*
X152838360Y-106304194D01*
X152787049Y-106416339D01*
X152764282Y-106456047D01*
X152696915Y-106496110D01*
X152606222Y-106510756D01*
X152530395Y-106498335D01*
X152506098Y-106467207D01*
X152543416Y-106430724D01*
X152593807Y-106422567D01*
X152695912Y-106393627D01*
X152742634Y-106304474D01*
X152734426Y-106151603D01*
X152671741Y-105931512D01*
X152661231Y-105902201D01*
X152595425Y-105735597D01*
X152531616Y-105597214D01*
X152481911Y-105512891D01*
X152475291Y-105505343D01*
X152445894Y-105465257D01*
X152473558Y-105446299D01*
X152572830Y-105441179D01*
X152603349Y-105441177D01*
X152717827Y-105447293D01*
G37*
G36*
X139766432Y-105181366D02*
G01*
X139898676Y-105199336D01*
X139978773Y-105222736D01*
X140086165Y-105313595D01*
X140119153Y-105445941D01*
X140096148Y-105552378D01*
X140013978Y-105673456D01*
X139889252Y-105763118D01*
X139762686Y-105794756D01*
X139719315Y-105785057D01*
X139749584Y-105755786D01*
X139817258Y-105719698D01*
X139919647Y-105651754D01*
X139958828Y-105565712D01*
X139962337Y-105508282D01*
X139935216Y-105361506D01*
X139850542Y-105281496D01*
X139734987Y-105261934D01*
X139662377Y-105268194D01*
X139615938Y-105297451D01*
X139590622Y-105365428D01*
X139581378Y-105487844D01*
X139583158Y-105680418D01*
X139584444Y-105730651D01*
X139589869Y-105927310D01*
X139595632Y-106051401D01*
X139605180Y-106119582D01*
X139621960Y-106148510D01*
X139649416Y-106154844D01*
X139672179Y-106154729D01*
X139731584Y-106178833D01*
X139739139Y-106199368D01*
X139698991Y-106224833D01*
X139596340Y-106240996D01*
X139515940Y-106244008D01*
X139388618Y-106235979D01*
X139307804Y-106215448D01*
X139292741Y-106199368D01*
X139328898Y-106159765D01*
X139359701Y-106154729D01*
X139390926Y-106139977D01*
X139410973Y-106085934D01*
X139422044Y-105977913D01*
X139426344Y-105801231D01*
X139426661Y-105708331D01*
X139422417Y-105500957D01*
X139410542Y-105351029D01*
X139392323Y-105271410D01*
X139382021Y-105261934D01*
X139338678Y-105227965D01*
X139337381Y-105217295D01*
X139377288Y-105191697D01*
X139479555Y-105177324D01*
X139617997Y-105173954D01*
X139766432Y-105181366D01*
G37*
G36*
X140453479Y-105092109D02*
G01*
X140475861Y-105126768D01*
X140489257Y-105202752D01*
X140495881Y-105334780D01*
X140497949Y-105537566D01*
X140498014Y-105602971D01*
X140499833Y-105832188D01*
X140506768Y-105988587D01*
X140521033Y-106088581D01*
X140544843Y-106148587D01*
X140576133Y-106181868D01*
X140612429Y-106217354D01*
X140590783Y-106235371D01*
X140498027Y-106241890D01*
X140442214Y-106242588D01*
X140318618Y-106234992D01*
X140242197Y-106214071D01*
X140230176Y-106199368D01*
X140266332Y-106159765D01*
X140297135Y-106154729D01*
X140330780Y-106114029D01*
X140354402Y-106006542D01*
X140368085Y-105854184D01*
X140371914Y-105678875D01*
X140365974Y-105502531D01*
X140350350Y-105347071D01*
X140325126Y-105234412D01*
X140293392Y-105187361D01*
X140248360Y-105157095D01*
X140282232Y-105122486D01*
X140379104Y-105088289D01*
X140419894Y-105084059D01*
X140453479Y-105092109D01*
G37*
G36*
X140853024Y-105439365D02*
G01*
X140930085Y-105505849D01*
X140972624Y-105614423D01*
X140985757Y-105782948D01*
X140982999Y-105893056D01*
X140986079Y-106050525D01*
X141011625Y-106134433D01*
X141025331Y-106144502D01*
X141080807Y-106180146D01*
X141060466Y-106215105D01*
X140977254Y-106239118D01*
X140899771Y-106244008D01*
X140787910Y-106238345D01*
X140725737Y-106224200D01*
X140721212Y-106218500D01*
X140749045Y-106170289D01*
X140790739Y-106123464D01*
X140836457Y-106041372D01*
X140835379Y-105989083D01*
X140819938Y-105906015D01*
X140811215Y-105776016D01*
X140810492Y-105727000D01*
X140806417Y-105604923D01*
X140783128Y-105547647D01*
X140724030Y-105530732D01*
X140676573Y-105529773D01*
X140582523Y-105518238D01*
X140542663Y-105490449D01*
X140542654Y-105489972D01*
X140580855Y-105446432D01*
X140671279Y-105420623D01*
X140777653Y-105418460D01*
X140853024Y-105439365D01*
G37*
G36*
X141729504Y-105459492D02*
G01*
X141737993Y-105465344D01*
X141817313Y-105563085D01*
X141837205Y-105688543D01*
X141837205Y-105842251D01*
X141591687Y-105842251D01*
X141449686Y-105846186D01*
X141375713Y-105863048D01*
X141348678Y-105900416D01*
X141346168Y-105930501D01*
X141385906Y-106032849D01*
X141487557Y-106107223D01*
X141624782Y-106139139D01*
X141712632Y-106132010D01*
X141807232Y-106114614D01*
X141824940Y-106123909D01*
X141775927Y-106166831D01*
X141770246Y-106171285D01*
X141628187Y-106234001D01*
X141469423Y-106233565D01*
X141331148Y-106171965D01*
X141303268Y-106146311D01*
X141236123Y-106031154D01*
X141212534Y-105864232D01*
X141212249Y-105837801D01*
X141220547Y-105711520D01*
X141346168Y-105711520D01*
X141383098Y-105776630D01*
X141478513Y-105800648D01*
X141609351Y-105778825D01*
X141632676Y-105770515D01*
X141691457Y-105711187D01*
X141694182Y-105623424D01*
X141650944Y-105538751D01*
X141571835Y-105488694D01*
X141541308Y-105485133D01*
X141453252Y-105522640D01*
X141377688Y-105610751D01*
X141346168Y-105711520D01*
X141220547Y-105711520D01*
X141221601Y-105695480D01*
X141261081Y-105600759D01*
X141347829Y-105512908D01*
X141349593Y-105511421D01*
X141486970Y-105419735D01*
X141605528Y-105403384D01*
X141729504Y-105459492D01*
G37*
G36*
X142618782Y-105440697D02*
G01*
X142676394Y-105478671D01*
X142709742Y-105530792D01*
X142725379Y-105619842D01*
X142729854Y-105768601D01*
X142730000Y-105827474D01*
X142733643Y-106001786D01*
X142746789Y-106103275D01*
X142772759Y-106148180D01*
X142796959Y-106154729D01*
X142856364Y-106178833D01*
X142863919Y-106199368D01*
X142823903Y-106225121D01*
X142722099Y-106240528D01*
X142651880Y-106242588D01*
X142529058Y-106238843D01*
X142482286Y-106225838D01*
X142498394Y-106197603D01*
X142517961Y-106181868D01*
X142566032Y-106118650D01*
X142590272Y-106008133D01*
X142596081Y-105857417D01*
X142587481Y-105675483D01*
X142555475Y-105567717D01*
X142490753Y-105520125D01*
X142384004Y-105518717D01*
X142371839Y-105520404D01*
X142302014Y-105534000D01*
X142262293Y-105562971D01*
X142244182Y-105628209D01*
X142239192Y-105750604D01*
X142238963Y-105847317D01*
X142243011Y-106015516D01*
X142257550Y-106111181D01*
X142286168Y-106150789D01*
X142305922Y-106154729D01*
X142365328Y-106178833D01*
X142372882Y-106199368D01*
X142332866Y-106225121D01*
X142231062Y-106240528D01*
X142160843Y-106242588D01*
X142038021Y-106238843D01*
X141991249Y-106225838D01*
X142007357Y-106197603D01*
X142026924Y-106181868D01*
X142070333Y-106109991D01*
X142098543Y-105988914D01*
X142111110Y-105844638D01*
X142107587Y-105703165D01*
X142087530Y-105590495D01*
X142050495Y-105532631D01*
X142038084Y-105529773D01*
X141978721Y-105503090D01*
X141971125Y-105480249D01*
X142011466Y-105449949D01*
X142123967Y-105449366D01*
X142138523Y-105451007D01*
X142278297Y-105452796D01*
X142397008Y-105430199D01*
X142406743Y-105426232D01*
X142526286Y-105407012D01*
X142618782Y-105440697D01*
G37*
G36*
X143166122Y-105444610D02*
G01*
X143198488Y-105469097D01*
X143214724Y-105532163D01*
X143220387Y-105652015D01*
X143221037Y-105797611D01*
X143224190Y-105980845D01*
X143235634Y-106090811D01*
X143258338Y-106143360D01*
X143287996Y-106154729D01*
X143347401Y-106178833D01*
X143354956Y-106199368D01*
X143314940Y-106225121D01*
X143213136Y-106240528D01*
X143142917Y-106242588D01*
X143020095Y-106238843D01*
X142973323Y-106225838D01*
X142989431Y-106197603D01*
X143008998Y-106181868D01*
X143053145Y-106109314D01*
X143081477Y-105987837D01*
X143093654Y-105843424D01*
X143089336Y-105702064D01*
X143068184Y-105589744D01*
X143029857Y-105532452D01*
X143017523Y-105529773D01*
X142971319Y-105508132D01*
X142975518Y-105485133D01*
X143037051Y-105450578D01*
X143112072Y-105440493D01*
X143166122Y-105444610D01*
G37*
G36*
X143674243Y-105094997D02*
G01*
X143697906Y-105140598D01*
X143709122Y-105238735D01*
X143712068Y-105407277D01*
X143712074Y-105418173D01*
X143715690Y-105595362D01*
X143728619Y-105699333D01*
X143753983Y-105745935D01*
X143778004Y-105752971D01*
X143848378Y-105718615D01*
X143917150Y-105638783D01*
X143960620Y-105548327D01*
X143958805Y-105487096D01*
X143974962Y-105453765D01*
X144067085Y-105440542D01*
X144075089Y-105440493D01*
X144167325Y-105445711D01*
X144182896Y-105467104D01*
X144154782Y-105496293D01*
X144076510Y-105572983D01*
X144007037Y-105650736D01*
X143961501Y-105712214D01*
X143951856Y-105766679D01*
X143981603Y-105843101D01*
X144043459Y-105952055D01*
X144122123Y-106066684D01*
X144194605Y-106140157D01*
X144227312Y-106154729D01*
X144285499Y-106179437D01*
X144292390Y-106199368D01*
X144253848Y-106231672D01*
X144168698Y-106244008D01*
X144083282Y-106228216D01*
X144013049Y-106167746D01*
X143935272Y-106043129D01*
X143846503Y-105905590D01*
X143777033Y-105848875D01*
X143730934Y-105873797D01*
X143712276Y-105981172D01*
X143712074Y-105998490D01*
X143726594Y-106114047D01*
X143772935Y-106154446D01*
X143779033Y-106154729D01*
X143838438Y-106178833D01*
X143845993Y-106199368D01*
X143806094Y-106225990D01*
X143705147Y-106241960D01*
X143645114Y-106244008D01*
X143525315Y-106235142D01*
X143453453Y-106212709D01*
X143444235Y-106199368D01*
X143480392Y-106159765D01*
X143511195Y-106154729D01*
X143541167Y-106140703D01*
X143560902Y-106089191D01*
X143572329Y-105986043D01*
X143577378Y-105817109D01*
X143578154Y-105663692D01*
X143576766Y-105447436D01*
X143570998Y-105305291D01*
X143558442Y-105222108D01*
X143536694Y-105182742D01*
X143503345Y-105172043D01*
X143500035Y-105171971D01*
X143448342Y-105164599D01*
X143480324Y-105133607D01*
X143488875Y-105128015D01*
X143592074Y-105088928D01*
X143633954Y-105084059D01*
X143674243Y-105094997D01*
G37*
G36*
X144756498Y-105413381D02*
G01*
X144804564Y-105431832D01*
X144864042Y-105465883D01*
X144897889Y-105515306D01*
X144913250Y-105603078D01*
X144917273Y-105752174D01*
X144917346Y-105794436D01*
X144921903Y-105968574D01*
X144938596Y-106074365D01*
X144971958Y-106132415D01*
X144995465Y-106149508D01*
X145048704Y-106186943D01*
X145020139Y-106213429D01*
X144989552Y-106225731D01*
X144884438Y-106230207D01*
X144824223Y-106207328D01*
X144743713Y-106181822D01*
X144715902Y-106200283D01*
X144649893Y-106235629D01*
X144542829Y-106241447D01*
X144437445Y-106219029D01*
X144390597Y-106190440D01*
X144342793Y-106100215D01*
X144337030Y-106059761D01*
X144347590Y-106035103D01*
X144479776Y-106035103D01*
X144526227Y-106102872D01*
X144622375Y-106153220D01*
X144710301Y-106126195D01*
X144767012Y-106032474D01*
X144775095Y-105987330D01*
X144774903Y-105885554D01*
X144736706Y-105847749D01*
X144643637Y-105864884D01*
X144585454Y-105885785D01*
X144490143Y-105950659D01*
X144479776Y-106035103D01*
X144347590Y-106035103D01*
X144374912Y-105971304D01*
X144468060Y-105882566D01*
X144585729Y-105817194D01*
X144677848Y-105797611D01*
X144754713Y-105781028D01*
X144781743Y-105713779D01*
X144783427Y-105668898D01*
X144752094Y-105559098D01*
X144676626Y-105504855D01*
X144584819Y-105516166D01*
X144521304Y-105574633D01*
X144450469Y-105649675D01*
X144398957Y-105653867D01*
X144381669Y-105596010D01*
X144418569Y-105534708D01*
X144509946Y-105468175D01*
X144536726Y-105454387D01*
X144660109Y-105408623D01*
X144756498Y-105413381D01*
G37*
G36*
X145599970Y-105428094D02*
G01*
X145655598Y-105459820D01*
X145714040Y-105506853D01*
X145747151Y-105568048D01*
X145761959Y-105667929D01*
X145765494Y-105831021D01*
X145765501Y-105843280D01*
X145771417Y-106003180D01*
X145787265Y-106113624D01*
X145810140Y-106154729D01*
X145853483Y-106188698D01*
X145854780Y-106199368D01*
X145820725Y-106236798D01*
X145745902Y-106240615D01*
X145671329Y-106213018D01*
X145647021Y-106188235D01*
X145625148Y-106103767D01*
X145624966Y-106014103D01*
X145615610Y-105902727D01*
X145553261Y-105861154D01*
X145432876Y-105886066D01*
X145431353Y-105886643D01*
X145345075Y-105952204D01*
X145323044Y-106038137D01*
X145363944Y-106113865D01*
X145442525Y-106146760D01*
X145513866Y-106172044D01*
X145511447Y-106206290D01*
X145447632Y-106234927D01*
X145360004Y-106244008D01*
X145251177Y-106222312D01*
X145188983Y-106141405D01*
X145182147Y-106124421D01*
X145174177Y-105998262D01*
X145246730Y-105893535D01*
X145391888Y-105819465D01*
X145458530Y-105802459D01*
X145579970Y-105752045D01*
X145622739Y-105673355D01*
X145582048Y-105577553D01*
X145563663Y-105557511D01*
X145463208Y-105493245D01*
X145378513Y-105502738D01*
X145332038Y-105574412D01*
X145285159Y-105646988D01*
X145242162Y-105663692D01*
X145196454Y-105635085D01*
X145202728Y-105593081D01*
X145226294Y-105523944D01*
X145229824Y-105507264D01*
X145267532Y-105484985D01*
X145360872Y-105449029D01*
X145387760Y-105439933D01*
X145509657Y-105411085D01*
X145599970Y-105428094D01*
G37*
G36*
X146629820Y-105177852D02*
G01*
X146681607Y-105189058D01*
X146670681Y-105215111D01*
X146641286Y-105239072D01*
X146599299Y-105282174D01*
X146576552Y-105346000D01*
X146569813Y-105452006D01*
X146575846Y-105621651D01*
X146577960Y-105659248D01*
X146598413Y-105880617D01*
X146634543Y-106026864D01*
X146694277Y-106111812D01*
X146785540Y-106149280D01*
X146862108Y-106154729D01*
X146989386Y-106133277D01*
X147075501Y-106061714D01*
X147126319Y-105929229D01*
X147147703Y-105725012D01*
X147149332Y-105625201D01*
X147144728Y-105441471D01*
X147128153Y-105325951D01*
X147095457Y-105257911D01*
X147071212Y-105234795D01*
X147033999Y-105198727D01*
X147055971Y-105181132D01*
X147150193Y-105175697D01*
X147193972Y-105175494D01*
X147312144Y-105178535D01*
X147354190Y-105191864D01*
X147333174Y-105221793D01*
X147316731Y-105234795D01*
X147276272Y-105282826D01*
X147252215Y-105364405D01*
X147240915Y-105499346D01*
X147238611Y-105659482D01*
X147235916Y-105845807D01*
X147224101Y-105967162D01*
X147197576Y-106047785D01*
X147150748Y-106111916D01*
X147129041Y-106134438D01*
X146980583Y-106225242D01*
X146806172Y-106247612D01*
X146637194Y-106201548D01*
X146544667Y-106134438D01*
X146490535Y-106071834D01*
X146457816Y-106001530D01*
X146441237Y-105900006D01*
X146435526Y-105743740D01*
X146435096Y-105645619D01*
X146432037Y-105453144D01*
X146420542Y-105330922D01*
X146397137Y-105260063D01*
X146358349Y-105221679D01*
X146356977Y-105220870D01*
X146329117Y-105193903D01*
X146370142Y-105179777D01*
X146489769Y-105175447D01*
X146502056Y-105175432D01*
X146629820Y-105177852D01*
G37*
G36*
X147774288Y-105797611D02*
G01*
X147777442Y-105980845D01*
X147788885Y-106090811D01*
X147811589Y-106143360D01*
X147841248Y-106154729D01*
X147900653Y-106178833D01*
X147908207Y-106199368D01*
X147868309Y-106225990D01*
X147767361Y-106241960D01*
X147707328Y-106244008D01*
X147587529Y-106235142D01*
X147515667Y-106212709D01*
X147506450Y-106199368D01*
X147542606Y-106159765D01*
X147573409Y-106154729D01*
X147609790Y-106136352D01*
X147630611Y-106070275D01*
X147639393Y-105940078D01*
X147640369Y-105842251D01*
X147636431Y-105672476D01*
X147622272Y-105575309D01*
X147594372Y-105534328D01*
X147573409Y-105529773D01*
X147514004Y-105505668D01*
X147506450Y-105485133D01*
X147545240Y-105453790D01*
X147638703Y-105440497D01*
X147640369Y-105440493D01*
X147774288Y-105440493D01*
X147774288Y-105797611D01*
G37*
G36*
X148104162Y-105418100D02*
G01*
X148194075Y-105502215D01*
X148248787Y-105660759D01*
X148265325Y-105864570D01*
X148271632Y-106016196D01*
X148288340Y-106120006D01*
X148309965Y-106154729D01*
X148353307Y-106188698D01*
X148354604Y-106199368D01*
X148315002Y-106227322D01*
X148216071Y-106242870D01*
X148176045Y-106244008D01*
X148064231Y-106234108D01*
X148002040Y-106209375D01*
X147997487Y-106199368D01*
X148032869Y-106158133D01*
X148054738Y-106154729D01*
X148095331Y-106111150D01*
X148118471Y-105981376D01*
X148122064Y-105923205D01*
X148123510Y-105731517D01*
X148103064Y-105612395D01*
X148053975Y-105550421D01*
X147969493Y-105530175D01*
X147949839Y-105529773D01*
X147857118Y-105516569D01*
X147818928Y-105485133D01*
X147844699Y-105441226D01*
X147852407Y-105439884D01*
X147918609Y-105428859D01*
X147982200Y-105413437D01*
X148104162Y-105418100D01*
G37*
G36*
X148756362Y-105797611D02*
G01*
X148761583Y-105974464D01*
X148775836Y-106098743D01*
X148797008Y-106153538D01*
X148801002Y-106154729D01*
X148844344Y-106188698D01*
X148845641Y-106199368D01*
X148805900Y-106226330D01*
X148705950Y-106241378D01*
X148655922Y-106242588D01*
X148542469Y-106238535D01*
X148505274Y-106224009D01*
X148531381Y-106191962D01*
X148544323Y-106181868D01*
X148587732Y-106109991D01*
X148615942Y-105988914D01*
X148628509Y-105844638D01*
X148624986Y-105703165D01*
X148604929Y-105590495D01*
X148567894Y-105532631D01*
X148555483Y-105529773D01*
X148496078Y-105505668D01*
X148488523Y-105485133D01*
X148527314Y-105453790D01*
X148620777Y-105440497D01*
X148622443Y-105440493D01*
X148756362Y-105440493D01*
X148756362Y-105797611D01*
G37*
G36*
X149686605Y-105444940D02*
G01*
X149717384Y-105461763D01*
X149687044Y-105496293D01*
X149640023Y-105562704D01*
X149576104Y-105689370D01*
X149507200Y-105852041D01*
X149489637Y-105898050D01*
X149425275Y-106056972D01*
X149366761Y-106177355D01*
X149324049Y-106239467D01*
X149315202Y-106243815D01*
X149280270Y-106204704D01*
X149226097Y-106100474D01*
X149162275Y-105950502D01*
X149136588Y-105883111D01*
X149068285Y-105714112D01*
X149002024Y-105577203D01*
X148949029Y-105494750D01*
X148935709Y-105482904D01*
X148921761Y-105457495D01*
X148991336Y-105444629D01*
X149068840Y-105442534D01*
X149187706Y-105448737D01*
X149221481Y-105468002D01*
X149208298Y-105480765D01*
X149176423Y-105517784D01*
X149177872Y-105583799D01*
X149214355Y-105702398D01*
X149226836Y-105736760D01*
X149277941Y-105867256D01*
X149320565Y-105961887D01*
X149336380Y-105988582D01*
X149364772Y-105969231D01*
X149408765Y-105883926D01*
X149450636Y-105774219D01*
X149495810Y-105631212D01*
X149509492Y-105548301D01*
X149493163Y-105502616D01*
X149469472Y-105483492D01*
X149451115Y-105456134D01*
X149511863Y-105443098D01*
X149579569Y-105441177D01*
X149686605Y-105444940D01*
G37*
G36*
X150271177Y-105449030D02*
G01*
X150360075Y-105566566D01*
X150362824Y-105573043D01*
X150401543Y-105708125D01*
X150376569Y-105791605D01*
X150280073Y-105833011D01*
X150141594Y-105842251D01*
X150005403Y-105847744D01*
X149937624Y-105868979D01*
X149917804Y-105913093D01*
X149917678Y-105920370D01*
X149947834Y-106042996D01*
X150041073Y-106110750D01*
X150181653Y-106130128D01*
X150309995Y-106140624D01*
X150360654Y-106165461D01*
X150328852Y-106200909D01*
X150292781Y-106216912D01*
X150132479Y-106244150D01*
X149974299Y-106216556D01*
X149872355Y-106154729D01*
X149811747Y-106044833D01*
X149782660Y-105891228D01*
X149785612Y-105757909D01*
X149922405Y-105757909D01*
X149955377Y-105787985D01*
X150047519Y-105786586D01*
X150081277Y-105783259D01*
X150194725Y-105762747D01*
X150243296Y-105721447D01*
X150251792Y-105663795D01*
X150222104Y-105552406D01*
X150149771Y-105497854D01*
X150059895Y-105498822D01*
X149977574Y-105553993D01*
X149927909Y-105662053D01*
X149925038Y-105680925D01*
X149922405Y-105757909D01*
X149785612Y-105757909D01*
X149786229Y-105730066D01*
X149823590Y-105597503D01*
X149853516Y-105554989D01*
X150004859Y-105442779D01*
X150148426Y-105407614D01*
X150271177Y-105449030D01*
G37*
G36*
X151047311Y-105456576D02*
G01*
X151066997Y-105495813D01*
X151064738Y-105547101D01*
X151011059Y-105556526D01*
X150946889Y-105546033D01*
X150809789Y-105518613D01*
X150809789Y-105836671D01*
X150812116Y-106002648D01*
X150822643Y-106098331D01*
X150846685Y-106142658D01*
X150889558Y-106154566D01*
X150899068Y-106154729D01*
X150971606Y-106173423D01*
X150988348Y-106199368D01*
X150948100Y-106224061D01*
X150844714Y-106239638D01*
X150753989Y-106242588D01*
X150622269Y-106239103D01*
X150566534Y-106227326D01*
X150573548Y-106202112D01*
X150597750Y-106181868D01*
X150641159Y-106109991D01*
X150669369Y-105988914D01*
X150681936Y-105844638D01*
X150678413Y-105703165D01*
X150658356Y-105590495D01*
X150621321Y-105532631D01*
X150608910Y-105529773D01*
X150549520Y-105504722D01*
X150541951Y-105483345D01*
X150581922Y-105456240D01*
X150684537Y-105445258D01*
X150731669Y-105446222D01*
X150865752Y-105447882D01*
X150967610Y-105440619D01*
X150985697Y-105436850D01*
X151047311Y-105456576D01*
G37*
G36*
X151586236Y-105409685D02*
G01*
X151670899Y-105451653D01*
X151719796Y-105521430D01*
X151704152Y-105573161D01*
X151666413Y-105613497D01*
X151636945Y-105571432D01*
X151633249Y-105562001D01*
X151569570Y-105498983D01*
X151471647Y-105483261D01*
X151378713Y-105513089D01*
X151332278Y-105575382D01*
X151333898Y-105638022D01*
X151386937Y-105694231D01*
X151507632Y-105760703D01*
X151516790Y-105765101D01*
X151672289Y-105865714D01*
X151741490Y-105976133D01*
X151723234Y-106093505D01*
X151676932Y-106158410D01*
X151588980Y-106210738D01*
X151462114Y-106241586D01*
X151335084Y-106245988D01*
X151246643Y-106218976D01*
X151241306Y-106214248D01*
X151219779Y-106151223D01*
X151214568Y-106069169D01*
X151219067Y-105988957D01*
X151235571Y-105993871D01*
X151266029Y-106054289D01*
X151332805Y-106130304D01*
X151449567Y-106154575D01*
X151463886Y-106154729D01*
X151567234Y-106144843D01*
X151608089Y-106103541D01*
X151613304Y-106053134D01*
X151588111Y-105973521D01*
X151501235Y-105903141D01*
X151423585Y-105863415D01*
X151294537Y-105789148D01*
X151232824Y-105709975D01*
X151220158Y-105656848D01*
X151244457Y-105537818D01*
X151330553Y-105449216D01*
X151452971Y-105402640D01*
X151586236Y-105409685D01*
G37*
G36*
X152117649Y-105283017D02*
G01*
X152126735Y-105332311D01*
X152162644Y-105406135D01*
X152260654Y-105443880D01*
X152394499Y-105470437D01*
X152270352Y-105488945D01*
X152181175Y-105512669D01*
X152147593Y-105540933D01*
X152148302Y-105599813D01*
X152148802Y-105721097D01*
X152148980Y-105869777D01*
X152151141Y-106026974D01*
X152161572Y-106112979D01*
X152186197Y-106145849D01*
X152230938Y-106143642D01*
X152238215Y-106141806D01*
X152319825Y-106137650D01*
X152349313Y-106153844D01*
X152330213Y-106190537D01*
X152271238Y-106216004D01*
X152175709Y-106238543D01*
X152119606Y-106233759D01*
X152059701Y-106200329D01*
X152020225Y-106143941D01*
X151996937Y-106026769D01*
X151987071Y-105835245D01*
X151980408Y-105662041D01*
X151964695Y-105558249D01*
X151935040Y-105504098D01*
X151900183Y-105483982D01*
X151848772Y-105460017D01*
X151877811Y-105440783D01*
X151917012Y-105429852D01*
X151999710Y-105370789D01*
X152015061Y-105307033D01*
X152035524Y-105235912D01*
X152070861Y-105228577D01*
X152117649Y-105283017D01*
G37*
G36*
X135946613Y-100656177D02*
G01*
X136062022Y-100725167D01*
X136141440Y-100848623D01*
X136202219Y-101039773D01*
X136228916Y-101155080D01*
X136253250Y-101266679D01*
X137590801Y-101244360D01*
X137927932Y-101237724D01*
X138235988Y-101229727D01*
X138503703Y-101220813D01*
X138719812Y-101211430D01*
X138873048Y-101202023D01*
X138952145Y-101193038D01*
X138960177Y-101190131D01*
X139023353Y-101177409D01*
X139095538Y-101222216D01*
X139148306Y-101301028D01*
X139158822Y-101354521D01*
X139124792Y-101446207D01*
X139045616Y-101498760D01*
X138955664Y-101495116D01*
X138922202Y-101471993D01*
X138865757Y-101455905D01*
X138730446Y-101443096D01*
X138514045Y-101433488D01*
X138214331Y-101427002D01*
X137829080Y-101423560D01*
X137526010Y-101422918D01*
X137118327Y-101422003D01*
X136792493Y-101419058D01*
X136541098Y-101413786D01*
X136356729Y-101405891D01*
X136231974Y-101395076D01*
X136159421Y-101381043D01*
X136133834Y-101367119D01*
X136098957Y-101290414D01*
X136065738Y-101165318D01*
X136056688Y-101116879D01*
X136007329Y-100936466D01*
X135920770Y-100824216D01*
X135781001Y-100767451D01*
X135597577Y-100753323D01*
X135386574Y-100769619D01*
X135245421Y-100824922D01*
X135159662Y-100928856D01*
X135117759Y-101072718D01*
X135048032Y-101267117D01*
X134921462Y-101414749D01*
X134764457Y-101493202D01*
X134647582Y-101493467D01*
X134510382Y-101430898D01*
X134481029Y-101412103D01*
X134320289Y-101312955D01*
X134203066Y-101270130D01*
X134102271Y-101285308D01*
X133990815Y-101360170D01*
X133892309Y-101448648D01*
X133751673Y-101595519D01*
X133682693Y-101719921D01*
X133681236Y-101846576D01*
X133743173Y-102000209D01*
X133787050Y-102078647D01*
X133855086Y-102201862D01*
X133881160Y-102287119D01*
X133870417Y-102372298D01*
X133839398Y-102464121D01*
X133793193Y-102571667D01*
X133735491Y-102635618D01*
X133638074Y-102678208D01*
X133530766Y-102707312D01*
X133383904Y-102752198D01*
X133267538Y-102802141D01*
X133224516Y-102830801D01*
X133186367Y-102912260D01*
X133160226Y-103049818D01*
X133148286Y-103210838D01*
X133152740Y-103362680D01*
X133175782Y-103472706D01*
X133180687Y-103483047D01*
X133248455Y-103537713D01*
X133379244Y-103590488D01*
X133472856Y-103615420D01*
X133633708Y-103660823D01*
X133734816Y-103718523D01*
X133805599Y-103805384D01*
X133806324Y-103806573D01*
X133893863Y-103980725D01*
X133917469Y-104131095D01*
X133877102Y-104289017D01*
X133805528Y-104430031D01*
X133733486Y-104559909D01*
X133683740Y-104657162D01*
X133668137Y-104696658D01*
X133697513Y-104750490D01*
X133770778Y-104840313D01*
X133865641Y-104942199D01*
X133959806Y-105032217D01*
X134030981Y-105086438D01*
X134031541Y-105086740D01*
X134098993Y-105101462D01*
X134194169Y-105077114D01*
X134337339Y-105007819D01*
X134375444Y-104986981D01*
X134636024Y-104842630D01*
X134844947Y-104922418D01*
X135009090Y-105008828D01*
X135116857Y-105131510D01*
X135184923Y-105312372D01*
X135202097Y-105391599D01*
X135243313Y-105537406D01*
X135311854Y-105620523D01*
X135429407Y-105657094D01*
X135567602Y-105663692D01*
X135749733Y-105648941D01*
X135865411Y-105595021D01*
X135933987Y-105487430D01*
X135965666Y-105365386D01*
X136010218Y-105190664D01*
X136078116Y-105074383D01*
X136191285Y-104985715D01*
X136263899Y-104946059D01*
X136420857Y-104886155D01*
X136563264Y-104885696D01*
X136718581Y-104948199D01*
X136831339Y-105018707D01*
X136940085Y-105085892D01*
X137021078Y-105124092D01*
X137037638Y-105127459D01*
X137105820Y-105095081D01*
X137204691Y-105014605D01*
X137311371Y-104909351D01*
X137402978Y-104802642D01*
X137456632Y-104717799D01*
X137462346Y-104694569D01*
X137439816Y-104604941D01*
X137384645Y-104488165D01*
X137373067Y-104468500D01*
X137314870Y-104369378D01*
X137285686Y-104297167D01*
X137295112Y-104247604D01*
X137352744Y-104216429D01*
X137468177Y-104199378D01*
X137651007Y-104192190D01*
X137910830Y-104190602D01*
X137998795Y-104190581D01*
X138320815Y-104187346D01*
X138558598Y-104177420D01*
X138716959Y-104160470D01*
X138800714Y-104136164D01*
X138802464Y-104135107D01*
X138912696Y-104108940D01*
X139007530Y-104157346D01*
X139060421Y-104266314D01*
X139061281Y-104271682D01*
X139047300Y-104350466D01*
X138963086Y-104394124D01*
X138957573Y-104395542D01*
X138847984Y-104400735D01*
X138789508Y-104374799D01*
X138731589Y-104357619D01*
X138607966Y-104343631D01*
X138437761Y-104333087D01*
X138240093Y-104326238D01*
X138034085Y-104323335D01*
X137838858Y-104324630D01*
X137673532Y-104330373D01*
X137557228Y-104340815D01*
X137509069Y-104356208D01*
X137508734Y-104357980D01*
X137530085Y-104417700D01*
X137574112Y-104503059D01*
X137628286Y-104629097D01*
X137627415Y-104741726D01*
X137565299Y-104860607D01*
X137435736Y-105005401D01*
X137406713Y-105033856D01*
X137241026Y-105176932D01*
X137101776Y-105248357D01*
X136967631Y-105251906D01*
X136817259Y-105191351D01*
X136748277Y-105150335D01*
X136602278Y-105069436D01*
X136489608Y-105043943D01*
X136376546Y-105070319D01*
X136305424Y-105103863D01*
X136212472Y-105177505D01*
X136150436Y-105298775D01*
X136126173Y-105382861D01*
X136071510Y-105575989D01*
X136010342Y-105697717D01*
X135921724Y-105764355D01*
X135784711Y-105792212D01*
X135593534Y-105797611D01*
X135403351Y-105793274D01*
X135280923Y-105777572D01*
X135205027Y-105746470D01*
X135171800Y-105717428D01*
X135120336Y-105628681D01*
X135068852Y-105490365D01*
X135044876Y-105401750D01*
X134998021Y-105245715D01*
X134937198Y-105151652D01*
X134867221Y-105102495D01*
X134733401Y-105050599D01*
X134611790Y-105052918D01*
X134470392Y-105112842D01*
X134404692Y-105151499D01*
X134234436Y-105237176D01*
X134090112Y-105256999D01*
X133949145Y-105207611D01*
X133788965Y-105085656D01*
X133755504Y-105054947D01*
X133609080Y-104894966D01*
X133540939Y-104750571D01*
X133547721Y-104601221D01*
X133626065Y-104426372D01*
X133646981Y-104391460D01*
X133729183Y-104234613D01*
X133752164Y-104109048D01*
X133719199Y-103982291D01*
X133693657Y-103928931D01*
X133629629Y-103845143D01*
X133525552Y-103788340D01*
X133394402Y-103751276D01*
X133214679Y-103701668D01*
X133099076Y-103639852D01*
X133033750Y-103546481D01*
X133004856Y-103402212D01*
X132998541Y-103198155D01*
X133001076Y-103016754D01*
X133013111Y-102898968D01*
X133041296Y-102819177D01*
X133092277Y-102751763D01*
X133122458Y-102720605D01*
X133297366Y-102606663D01*
X133454209Y-102565521D01*
X133584298Y-102539267D01*
X133652279Y-102499271D01*
X133685203Y-102427132D01*
X133690503Y-102404781D01*
X133692243Y-102284137D01*
X133639412Y-102143097D01*
X133604270Y-102079499D01*
X133520082Y-101912874D01*
X133491897Y-101776511D01*
X133524145Y-101648924D01*
X133621255Y-101508624D01*
X133750274Y-101371136D01*
X133919136Y-101216912D01*
X134059604Y-101132039D01*
X134193599Y-101112122D01*
X134343043Y-101152761D01*
X134484687Y-101223809D01*
X134668233Y-101304504D01*
X134803000Y-101312082D01*
X134892800Y-101245571D01*
X134940873Y-101107455D01*
X134988187Y-100947718D01*
X135063150Y-100795966D01*
X135068489Y-100787842D01*
X135120511Y-100716210D01*
X135173393Y-100672091D01*
X135249885Y-100647779D01*
X135372736Y-100635570D01*
X135538416Y-100628678D01*
X135777862Y-100628423D01*
X135946613Y-100656177D01*
G37*
G36*
X143208860Y-105120543D02*
G01*
X143221037Y-105172655D01*
X143189270Y-105244469D01*
X143121612Y-105260155D01*
X143064798Y-105217295D01*
X143058980Y-105142421D01*
X143117031Y-105090085D01*
X143156712Y-105083375D01*
X143208860Y-105120543D01*
G37*
G36*
X148730113Y-105142805D02*
G01*
X148747864Y-105183815D01*
X148732335Y-105247090D01*
X148667082Y-105261934D01*
X148593817Y-105239341D01*
X148586301Y-105183815D01*
X148630318Y-105117404D01*
X148667082Y-105105695D01*
X148730113Y-105142805D01*
G37*
G36*
X135986985Y-101908112D02*
G01*
X136285337Y-102033271D01*
X136414857Y-102118911D01*
X136472492Y-102159632D01*
X136531891Y-102188526D01*
X136608868Y-102207615D01*
X136719239Y-102218924D01*
X136878820Y-102224475D01*
X137103426Y-102226292D01*
X137255294Y-102226433D01*
X137583401Y-102222621D01*
X137825705Y-102211235D01*
X137981052Y-102192355D01*
X138039810Y-102173319D01*
X138136891Y-102149931D01*
X138214343Y-102191139D01*
X138258215Y-102272438D01*
X138254557Y-102369325D01*
X138197746Y-102450729D01*
X138121261Y-102484645D01*
X138020453Y-102457718D01*
X138017087Y-102456195D01*
X137922943Y-102435025D01*
X137751270Y-102418939D01*
X137513711Y-102408681D01*
X137221911Y-102404994D01*
X137215280Y-102404992D01*
X136525851Y-102404992D01*
X136331189Y-102256403D01*
X136066047Y-102106079D01*
X135766900Y-102023620D01*
X135456978Y-102011300D01*
X135159512Y-102071395D01*
X135024410Y-102128439D01*
X134822662Y-102267099D01*
X134629769Y-102461262D01*
X134474065Y-102679307D01*
X134406477Y-102818185D01*
X134356043Y-103034195D01*
X134344020Y-103289430D01*
X134368941Y-103545569D01*
X134429341Y-103764293D01*
X134443917Y-103796834D01*
X134617182Y-104060071D01*
X134844583Y-104264438D01*
X135111286Y-104406768D01*
X135402457Y-104483893D01*
X135703260Y-104492644D01*
X135998860Y-104429854D01*
X136274425Y-104292356D01*
X136381713Y-104210631D01*
X136581396Y-104005870D01*
X136716247Y-103778928D01*
X136803334Y-103500196D01*
X136810303Y-103467208D01*
X136867546Y-103186187D01*
X137689546Y-103163867D01*
X137954018Y-103154908D01*
X138189214Y-103143579D01*
X138379942Y-103130884D01*
X138511014Y-103117824D01*
X138566423Y-103106004D01*
X138651621Y-103095901D01*
X138740715Y-103142067D01*
X138796744Y-103221388D01*
X138801705Y-103253147D01*
X138764092Y-103347534D01*
X138673605Y-103402283D01*
X138563768Y-103400248D01*
X138536801Y-103388637D01*
X138461707Y-103372138D01*
X138312409Y-103358497D01*
X138103958Y-103348557D01*
X137851407Y-103343159D01*
X137710966Y-103342426D01*
X136971476Y-103342426D01*
X136971476Y-103446074D01*
X136932445Y-103672005D01*
X136825011Y-103910897D01*
X136663664Y-104142544D01*
X136462891Y-104346745D01*
X136237183Y-104503295D01*
X136199326Y-104522766D01*
X135952688Y-104610478D01*
X135674981Y-104657444D01*
X135405662Y-104658905D01*
X135263313Y-104635660D01*
X134934242Y-104508404D01*
X134647690Y-104307357D01*
X134416024Y-104042763D01*
X134298327Y-103836435D01*
X134206147Y-103548223D01*
X134176827Y-103232758D01*
X134210742Y-102921912D01*
X134284937Y-102695150D01*
X134429736Y-102455845D01*
X134630159Y-102230348D01*
X134859119Y-102045776D01*
X135025546Y-101953831D01*
X135333433Y-101865581D01*
X135661798Y-101851278D01*
X135986985Y-101908112D01*
G37*
G36*
X142307970Y-102159474D02*
G01*
X142992424Y-103989702D01*
X143218330Y-104029460D01*
X143444235Y-104069218D01*
X143444235Y-104263819D01*
X143444235Y-104458419D01*
X142462161Y-104458419D01*
X141480088Y-104458419D01*
X141480088Y-104263121D01*
X141485352Y-104140161D01*
X141512952Y-104078026D01*
X141580596Y-104048382D01*
X141619587Y-104039922D01*
X141756328Y-104019428D01*
X141865105Y-104012022D01*
X141925366Y-104010278D01*
X141957181Y-103993809D01*
X141960967Y-103945755D01*
X141937142Y-103849259D01*
X141886125Y-103687462D01*
X141874081Y-103650088D01*
X141808497Y-103471805D01*
X141748072Y-103367775D01*
X141684646Y-103323969D01*
X141684363Y-103323892D01*
X141593457Y-103312235D01*
X141438277Y-103304364D01*
X141243747Y-103300280D01*
X141034792Y-103299982D01*
X140836335Y-103303470D01*
X140673302Y-103310744D01*
X140570617Y-103321805D01*
X140561577Y-103323892D01*
X140498121Y-103367476D01*
X140437700Y-103471225D01*
X140372155Y-103649167D01*
X140371858Y-103650088D01*
X140323936Y-103802186D01*
X140289257Y-103918555D01*
X140274879Y-103975452D01*
X140274815Y-103976566D01*
X140315010Y-103995345D01*
X140418735Y-104017447D01*
X140520334Y-104032411D01*
X140765852Y-104063086D01*
X140765852Y-104260753D01*
X140765852Y-104458419D01*
X139962337Y-104458419D01*
X139158822Y-104458419D01*
X139158822Y-104258068D01*
X139162775Y-104134140D01*
X139188622Y-104071749D01*
X139257344Y-104043155D01*
X139331225Y-104030149D01*
X139453314Y-104005367D01*
X139537063Y-103978969D01*
X139546563Y-103973821D01*
X139571864Y-103925490D01*
X139621398Y-103803817D01*
X139690980Y-103620099D01*
X139776423Y-103385629D01*
X139873541Y-103111703D01*
X139978147Y-102809615D01*
X139979128Y-102806750D01*
X139990969Y-102772210D01*
X140676573Y-102772210D01*
X140718142Y-102786352D01*
X140830590Y-102797693D01*
X140995529Y-102804886D01*
X141147924Y-102806750D01*
X141338415Y-102803823D01*
X141488211Y-102795901D01*
X141579920Y-102784273D01*
X141599840Y-102773270D01*
X141574954Y-102711179D01*
X141530620Y-102582833D01*
X141472658Y-102406790D01*
X141406888Y-102201605D01*
X141339129Y-101985835D01*
X141275200Y-101778039D01*
X141220922Y-101596771D01*
X141182113Y-101460590D01*
X141164593Y-101388052D01*
X141164170Y-101384029D01*
X141150065Y-101403743D01*
X141113364Y-101492266D01*
X141059657Y-101633693D01*
X140994528Y-101812117D01*
X140923565Y-102011632D01*
X140852355Y-102216334D01*
X140786485Y-102410315D01*
X140731541Y-102577671D01*
X140693111Y-102702495D01*
X140676782Y-102768882D01*
X140676573Y-102772210D01*
X139990969Y-102772210D01*
X140098510Y-102458505D01*
X140223090Y-102096037D01*
X140345507Y-101740698D01*
X140458398Y-101413841D01*
X140554403Y-101136820D01*
X140602431Y-100998841D01*
X140836104Y-100329245D01*
X141229810Y-100329245D01*
X141623517Y-100329245D01*
X142307970Y-102159474D01*
G37*
G36*
X145331911Y-100831442D02*
G01*
X145390065Y-101018526D01*
X145467881Y-101270634D01*
X145559093Y-101567359D01*
X145657429Y-101888295D01*
X145756622Y-102213034D01*
X145791173Y-102326413D01*
X145878680Y-102610817D01*
X145958443Y-102864467D01*
X146026626Y-103075610D01*
X146079392Y-103232498D01*
X146112904Y-103323380D01*
X146122618Y-103341498D01*
X146140599Y-103300445D01*
X146181732Y-103183723D01*
X146242867Y-103000979D01*
X146320854Y-102761861D01*
X146412542Y-102476015D01*
X146514782Y-102153090D01*
X146610785Y-101846527D01*
X147076632Y-100351565D01*
X147849537Y-100351565D01*
X148622443Y-100351565D01*
X148622443Y-100550906D01*
X148622443Y-100750248D01*
X148398686Y-100779930D01*
X148174930Y-100809612D01*
X148186648Y-102397634D01*
X148198365Y-103985655D01*
X148455044Y-104048290D01*
X148711722Y-104110925D01*
X148711722Y-104284672D01*
X148711722Y-104458419D01*
X147751968Y-104458419D01*
X146792214Y-104458419D01*
X146792214Y-104281959D01*
X146799314Y-104165677D01*
X146837295Y-104105156D01*
X146931180Y-104067073D01*
X146959613Y-104059009D01*
X147089678Y-104028259D01*
X147193196Y-104012721D01*
X147205132Y-104012271D01*
X147228342Y-104006902D01*
X147246374Y-103984438D01*
X147259814Y-103935099D01*
X147269248Y-103849104D01*
X147275264Y-103716672D01*
X147278447Y-103528021D01*
X147279384Y-103273371D01*
X147278660Y-102942941D01*
X147278073Y-102795590D01*
X147275963Y-102482047D01*
X147272594Y-102204827D01*
X147268217Y-101974285D01*
X147263081Y-101800773D01*
X147257436Y-101694647D01*
X147251534Y-101666261D01*
X147250852Y-101668437D01*
X147232852Y-101730537D01*
X147192280Y-101864682D01*
X147133220Y-102057709D01*
X147059751Y-102296454D01*
X146975956Y-102567754D01*
X146885916Y-102858445D01*
X146793711Y-103155364D01*
X146703424Y-103445348D01*
X146619135Y-103715232D01*
X146544926Y-103951854D01*
X146484878Y-104142051D01*
X146451568Y-104246381D01*
X146383282Y-104458419D01*
X145994705Y-104458419D01*
X145606128Y-104458419D01*
X145327309Y-103554465D01*
X145230184Y-103240974D01*
X145128600Y-102915513D01*
X145030236Y-102602523D01*
X144942776Y-102326447D01*
X144874905Y-102114834D01*
X144701320Y-101579157D01*
X144697734Y-102795590D01*
X144697009Y-103157376D01*
X144697621Y-103439666D01*
X144700170Y-103652239D01*
X144705254Y-103804875D01*
X144713472Y-103907353D01*
X144725423Y-103969452D01*
X144741707Y-104000954D01*
X144762923Y-104011636D01*
X144772267Y-104012271D01*
X144865753Y-104024077D01*
X144994721Y-104052796D01*
X145017785Y-104059009D01*
X145126226Y-104096609D01*
X145173632Y-104149811D01*
X145185025Y-104251942D01*
X145185184Y-104281959D01*
X145185184Y-104458419D01*
X144359350Y-104458419D01*
X143533515Y-104458419D01*
X143533515Y-104284672D01*
X143533515Y-104110925D01*
X143790193Y-104048279D01*
X144046871Y-103985633D01*
X144046871Y-102402957D01*
X144046871Y-100820282D01*
X143834833Y-100779321D01*
X143622794Y-100738359D01*
X143622794Y-100544962D01*
X143622794Y-100351565D01*
X144402285Y-100351565D01*
X145181775Y-100351565D01*
X145331911Y-100831442D01*
G37*
G36*
X151077627Y-100525312D02*
G01*
X151077627Y-100699060D01*
X150820949Y-100761694D01*
X150564270Y-100824328D01*
X150552538Y-102368179D01*
X150540806Y-103912031D01*
X150641818Y-103939097D01*
X150729454Y-103950955D01*
X150880757Y-103960313D01*
X151070119Y-103965846D01*
X151176346Y-103966773D01*
X151609863Y-103967382D01*
X151656223Y-103788824D01*
X151700573Y-103618009D01*
X151745817Y-103443748D01*
X151748944Y-103431706D01*
X151782680Y-103321432D01*
X151827841Y-103269580D01*
X151914717Y-103254120D01*
X151994462Y-103253147D01*
X152193620Y-103253147D01*
X152193620Y-103855783D01*
X152193620Y-104458419D01*
X150675870Y-104458419D01*
X149158119Y-104458419D01*
X149158119Y-104281959D01*
X149165219Y-104165677D01*
X149203201Y-104105156D01*
X149297085Y-104067073D01*
X149325518Y-104059009D01*
X149455583Y-104028259D01*
X149559101Y-104012721D01*
X149571037Y-104012271D01*
X149591544Y-104007380D01*
X149608125Y-103987170D01*
X149621195Y-103943120D01*
X149631167Y-103866710D01*
X149638455Y-103749419D01*
X149643474Y-103582725D01*
X149646639Y-103358109D01*
X149648362Y-103067049D01*
X149649058Y-102701025D01*
X149649156Y-102404992D01*
X149648922Y-101983131D01*
X149647942Y-101642027D01*
X149645802Y-101373161D01*
X149642090Y-101168011D01*
X149636389Y-101018057D01*
X149628287Y-100914778D01*
X149617368Y-100849652D01*
X149603220Y-100814160D01*
X149585427Y-100799780D01*
X149571037Y-100797713D01*
X149477550Y-100785908D01*
X149348582Y-100757189D01*
X149325518Y-100750975D01*
X149217078Y-100713376D01*
X149169672Y-100660173D01*
X149158278Y-100558043D01*
X149158119Y-100528026D01*
X149158119Y-100351565D01*
X150117873Y-100351565D01*
X151077627Y-100351565D01*
X151077627Y-100525312D01*
G37*
G36*
X135537179Y-103040199D02*
G01*
X136067029Y-103047126D01*
X136064550Y-103308465D01*
X136062072Y-103569804D01*
X135791379Y-103565705D01*
X135624883Y-103565673D01*
X135479281Y-103569892D01*
X135409086Y-103575078D01*
X135281597Y-103580365D01*
X135152407Y-103574260D01*
X135059089Y-103556844D01*
X135045217Y-103543305D01*
X135275167Y-103543305D01*
X135297487Y-103565625D01*
X135319806Y-103543305D01*
X135409086Y-103543305D01*
X135431406Y-103565625D01*
X135453726Y-103543305D01*
X135431406Y-103520985D01*
X135409086Y-103543305D01*
X135319806Y-103543305D01*
X135297487Y-103520985D01*
X135275167Y-103543305D01*
X135045217Y-103543305D01*
X135013315Y-103512168D01*
X134998450Y-103415348D01*
X134997408Y-103342426D01*
X134999477Y-103224147D01*
X135002368Y-103143209D01*
X135007328Y-103033271D01*
X135537179Y-103040199D01*
G37*
D14*
X130553500Y-72081252D02*
X130553500Y-71558748D01*
X132023500Y-72081252D02*
X132023500Y-71558748D01*
X166020000Y-114312500D02*
X166020000Y-106232500D01*
X173040000Y-114312500D02*
X166020000Y-114312500D01*
X173040000Y-113112500D02*
X173040000Y-114312500D01*
X174740000Y-113112500D02*
X173040000Y-113112500D01*
X173040000Y-107432500D02*
X174740000Y-107432500D01*
X174740000Y-107432500D02*
X174740000Y-113112500D01*
X166020000Y-106232500D02*
X173040000Y-106232500D01*
X173040000Y-106232500D02*
X173040000Y-107432500D01*
X170930000Y-106032500D02*
X170630000Y-105432500D01*
X170630000Y-105432500D02*
X171230000Y-105432500D01*
X171230000Y-105432500D02*
X170930000Y-106032500D01*
X122153752Y-90455000D02*
X121631248Y-90455000D01*
X122153752Y-88985000D02*
X121631248Y-88985000D01*
X150110000Y-121295000D02*
X152030000Y-121295000D01*
X152030000Y-121295000D02*
X152030000Y-118435000D01*
X150110000Y-118435000D02*
X150110000Y-121295000D01*
D13*
X166898500Y-63540000D02*
X160929500Y-63540000D01*
X160929500Y-63540000D02*
X160929500Y-76240000D01*
X160929500Y-76240000D02*
X166898500Y-76240000D01*
X166898500Y-76240000D02*
X166898500Y-63540000D01*
X165882500Y-68112000D02*
X166898500Y-68112000D01*
X166898500Y-68112000D02*
X166898500Y-71718800D01*
X166898500Y-71718800D02*
X165882500Y-71718800D01*
X165882500Y-71718800D02*
X165882500Y-68112000D01*
D14*
X129670000Y-121125000D02*
X131590000Y-121125000D01*
X131590000Y-121125000D02*
X131590000Y-118265000D01*
X129670000Y-118265000D02*
X129670000Y-121125000D01*
X150387064Y-95595000D02*
X149932936Y-95595000D01*
X150387064Y-94125000D02*
X149932936Y-94125000D01*
X135050000Y-112370000D02*
X135050000Y-113370000D01*
X131690000Y-112370000D02*
X131690000Y-113370000D01*
X145010000Y-121185000D02*
X146930000Y-121185000D01*
X146930000Y-121185000D02*
X146930000Y-118325000D01*
X145010000Y-118325000D02*
X145010000Y-121185000D01*
X155150000Y-121185000D02*
X157070000Y-121185000D01*
X157070000Y-121185000D02*
X157070000Y-118325000D01*
X155150000Y-118325000D02*
X155150000Y-121185000D01*
D13*
X135828500Y-56060000D02*
X151068500Y-56060000D01*
X151068500Y-56060000D02*
X151068500Y-62029000D01*
X151068500Y-62029000D02*
X135828500Y-62029000D01*
X135828500Y-62029000D02*
X135828500Y-56060000D01*
X140511000Y-57210000D02*
X146386000Y-57210000D01*
X146386000Y-57210000D02*
X146386000Y-56060000D01*
X146386000Y-56060000D02*
X140511000Y-56060000D01*
X140511000Y-56060000D02*
X140511000Y-57210000D01*
D14*
X126323500Y-73771248D02*
X126323500Y-74293752D01*
X127793500Y-73771248D02*
X127793500Y-74293752D01*
D15*
X166698500Y-87255000D02*
G75*
G03*
X166698500Y-87255000I-63500J0D01*
G01*
D16*
X159585000Y-87255000D02*
X165185000Y-87255000D01*
X165185000Y-78855000D02*
X159585000Y-78855000D01*
D14*
X153133748Y-124581000D02*
X153656252Y-124581000D01*
X153133748Y-126051000D02*
X153656252Y-126051000D01*
D13*
X166414000Y-97572000D02*
X167430000Y-97572000D01*
X167430000Y-97572000D02*
X167430000Y-101178800D01*
X167430000Y-101178800D02*
X166414000Y-101178800D01*
X166414000Y-101178800D02*
X166414000Y-97572000D01*
X167430000Y-93000000D02*
X161461000Y-93000000D01*
X161461000Y-93000000D02*
X161461000Y-105700000D01*
X161461000Y-105700000D02*
X167430000Y-105700000D01*
X167430000Y-105700000D02*
X167430000Y-93000000D01*
D14*
X127488500Y-128510000D02*
X127488500Y-129710000D01*
X127488500Y-131310000D02*
X127488500Y-132510000D01*
X127488500Y-132510000D02*
X133888500Y-132510000D01*
X133888500Y-128510000D02*
X127488500Y-128510000D01*
X133888500Y-129710000D02*
X133888500Y-128510000D01*
X133888500Y-132510000D02*
X133888500Y-131310000D01*
X157021252Y-106545000D02*
X156498748Y-106545000D01*
X157021252Y-108015000D02*
X156498748Y-108015000D01*
X128479748Y-124725000D02*
X129002252Y-124725000D01*
X128479748Y-126195000D02*
X129002252Y-126195000D01*
X138453500Y-66218748D02*
X138453500Y-66741252D01*
X136983500Y-66218748D02*
X136983500Y-66741252D01*
X143203500Y-66181248D02*
X143203500Y-66703752D01*
X141733500Y-66181248D02*
X141733500Y-66703752D01*
X140853500Y-66221248D02*
X140853500Y-66743752D01*
X139383500Y-66221248D02*
X139383500Y-66743752D01*
X150883500Y-66186248D02*
X150883500Y-66708752D01*
X149413500Y-66186248D02*
X149413500Y-66708752D01*
D13*
X112558500Y-111470000D02*
X118527500Y-111470000D01*
X118527500Y-111470000D02*
X118527500Y-103926200D01*
X118527500Y-103926200D02*
X112558500Y-103926200D01*
X112558500Y-103926200D02*
X112558500Y-111470000D01*
X112558500Y-108930000D02*
X113574500Y-108930000D01*
X113574500Y-108930000D02*
X113574500Y-106390000D01*
X113574500Y-106390000D02*
X112558500Y-106390000D01*
X112558500Y-106390000D02*
X112558500Y-108930000D01*
D14*
X133065564Y-126145000D02*
X132611436Y-126145000D01*
X133065564Y-124675000D02*
X132611436Y-124675000D01*
X123672500Y-96780000D02*
X125347500Y-96780000D01*
X123672500Y-96780000D02*
X123022500Y-96780000D01*
X123672500Y-93660000D02*
X124322500Y-93660000D01*
X123672500Y-93660000D02*
X123022500Y-93660000D01*
D13*
X174497700Y-57630000D02*
X168528700Y-57630000D01*
X168528700Y-57630000D02*
X168528700Y-72870000D01*
X168528700Y-72870000D02*
X174497700Y-72870000D01*
X174497700Y-72870000D02*
X174497700Y-57630000D01*
X173347700Y-62312500D02*
X174497700Y-62312500D01*
X174497700Y-62312500D02*
X174497700Y-68187500D01*
X174497700Y-68187500D02*
X173347700Y-68187500D01*
X173347700Y-68187500D02*
X173347700Y-62312500D01*
X112634000Y-73162500D02*
X118603000Y-73162500D01*
X118603000Y-73162500D02*
X118603000Y-57922500D01*
X118603000Y-57922500D02*
X112634000Y-57922500D01*
X112634000Y-57922500D02*
X112634000Y-73162500D01*
X113784000Y-68480000D02*
X112634000Y-68480000D01*
X112634000Y-68480000D02*
X112634000Y-62605000D01*
X112634000Y-62605000D02*
X113784000Y-62605000D01*
X113784000Y-62605000D02*
X113784000Y-68480000D01*
D14*
X121443064Y-126115000D02*
X120988936Y-126115000D01*
X121443064Y-124645000D02*
X120988936Y-124645000D01*
X152368500Y-128510000D02*
X152368500Y-129710000D01*
X152368500Y-131310000D02*
X152368500Y-132510000D01*
X152368500Y-132510000D02*
X158768500Y-132510000D01*
X158768500Y-128510000D02*
X152368500Y-128510000D01*
X158768500Y-129710000D02*
X158768500Y-128510000D01*
X158768500Y-132510000D02*
X158768500Y-131310000D01*
X141981248Y-94125000D02*
X142503752Y-94125000D01*
X141981248Y-95595000D02*
X142503752Y-95595000D01*
X124330000Y-121165000D02*
X126250000Y-121165000D01*
X126250000Y-121165000D02*
X126250000Y-118305000D01*
X124330000Y-118305000D02*
X124330000Y-121165000D01*
X134550000Y-121185000D02*
X136470000Y-121185000D01*
X136470000Y-121185000D02*
X136470000Y-118325000D01*
X134550000Y-118325000D02*
X134550000Y-121185000D01*
X157787252Y-68575000D02*
X157264748Y-68575000D01*
X157787252Y-67105000D02*
X157264748Y-67105000D01*
X116774748Y-124675000D02*
X117297252Y-124675000D01*
X116774748Y-126145000D02*
X117297252Y-126145000D01*
X139700000Y-121125000D02*
X141620000Y-121125000D01*
X141620000Y-121125000D02*
X141620000Y-118265000D01*
X139700000Y-118265000D02*
X139700000Y-121125000D01*
X160300000Y-121075000D02*
X162220000Y-121075000D01*
X162220000Y-121075000D02*
X162220000Y-118215000D01*
X160300000Y-118215000D02*
X160300000Y-121075000D01*
D13*
X119708500Y-56060000D02*
X134948500Y-56060000D01*
X134948500Y-56060000D02*
X134948500Y-62029000D01*
X134948500Y-62029000D02*
X119708500Y-62029000D01*
X119708500Y-62029000D02*
X119708500Y-56060000D01*
X124391000Y-57210000D02*
X130266000Y-57210000D01*
X130266000Y-57210000D02*
X130266000Y-56060000D01*
X130266000Y-56060000D02*
X124391000Y-56060000D01*
X124391000Y-56060000D02*
X124391000Y-57210000D01*
D14*
X156170000Y-110940000D02*
X156170000Y-112140000D01*
X156170000Y-113740000D02*
X156170000Y-114940000D01*
X156170000Y-114940000D02*
X162570000Y-114940000D01*
X162570000Y-110940000D02*
X156170000Y-110940000D01*
X162570000Y-112140000D02*
X162570000Y-110940000D01*
X162570000Y-114940000D02*
X162570000Y-113740000D01*
X170823500Y-132440000D02*
X170823500Y-131240000D01*
X170823500Y-129640000D02*
X170823500Y-128440000D01*
X170823500Y-128440000D02*
X164423500Y-128440000D01*
X164423500Y-132440000D02*
X170823500Y-132440000D01*
X164423500Y-131240000D02*
X164423500Y-132440000D01*
X164423500Y-128440000D02*
X164423500Y-129640000D01*
X157723564Y-126051000D02*
X157269436Y-126051000D01*
X157723564Y-124581000D02*
X157269436Y-124581000D01*
D15*
X120828500Y-78945000D02*
G75*
G03*
X120828500Y-78945000I-63500J0D01*
G01*
D16*
X127815000Y-78945000D02*
X122215000Y-78945000D01*
X122215000Y-87345000D02*
X127815000Y-87345000D01*
D13*
X112538500Y-91740000D02*
X118634500Y-91740000D01*
X118634500Y-91740000D02*
X118634500Y-73960000D01*
X118634500Y-73960000D02*
X112538500Y-73960000D01*
X112538500Y-73960000D02*
X112538500Y-91740000D01*
X113554500Y-85136000D02*
X112538500Y-85136000D01*
X112538500Y-85136000D02*
X112538500Y-80564000D01*
X112538500Y-80564000D02*
X113554500Y-80564000D01*
X113554500Y-80564000D02*
X113554500Y-85136000D01*
D14*
X137983748Y-94115000D02*
X138506252Y-94115000D01*
X137983748Y-95585000D02*
X138506252Y-95585000D01*
D13*
X159068500Y-97642000D02*
X160084500Y-97642000D01*
X160084500Y-97642000D02*
X160084500Y-101248800D01*
X160084500Y-101248800D02*
X159068500Y-101248800D01*
X159068500Y-101248800D02*
X159068500Y-97642000D01*
X160084500Y-93070000D02*
X154115500Y-93070000D01*
X154115500Y-93070000D02*
X154115500Y-105770000D01*
X154115500Y-105770000D02*
X160084500Y-105770000D01*
X160084500Y-105770000D02*
X160084500Y-93070000D01*
D14*
X153061436Y-64575000D02*
X153515564Y-64575000D01*
X153061436Y-66045000D02*
X153515564Y-66045000D01*
D13*
X174537700Y-73700000D02*
X168441700Y-73700000D01*
X168441700Y-73700000D02*
X168441700Y-91480000D01*
X168441700Y-91480000D02*
X174537700Y-91480000D01*
X174537700Y-91480000D02*
X174537700Y-73700000D01*
X173521700Y-80304000D02*
X174537700Y-80304000D01*
X174537700Y-80304000D02*
X174537700Y-84876000D01*
X174537700Y-84876000D02*
X173521700Y-84876000D01*
X173521700Y-84876000D02*
X173521700Y-80304000D01*
D14*
X148533500Y-66156248D02*
X148533500Y-66678752D01*
X147063500Y-66156248D02*
X147063500Y-66678752D01*
X151030000Y-90870000D02*
X151030000Y-90170000D01*
X151030000Y-76650000D02*
X151030000Y-77350000D01*
X150330000Y-90870000D02*
X151030000Y-90870000D01*
X150330000Y-76650000D02*
X151030000Y-76650000D01*
X137510000Y-90870000D02*
X136810000Y-90870000D01*
X137510000Y-76650000D02*
X136810000Y-76650000D01*
X136810000Y-90870000D02*
X136810000Y-90170000D01*
X136810000Y-77350000D02*
X135445000Y-77350000D01*
X136810000Y-76650000D02*
X136810000Y-77350000D01*
X126585000Y-95517064D02*
X126585000Y-95062936D01*
X128055000Y-95517064D02*
X128055000Y-95062936D01*
X126158500Y-64810000D02*
X126758500Y-64810000D01*
X126158500Y-66110000D02*
X126158500Y-64810000D01*
X126158500Y-68410000D02*
X126158500Y-67110000D01*
X126158500Y-68410000D02*
X126758500Y-68410000D01*
X128458500Y-64810000D02*
X132258500Y-64810000D01*
X132258500Y-68410000D02*
X128458500Y-68410000D01*
X133958500Y-64810000D02*
X134558500Y-64810000D01*
X134558500Y-64810000D02*
X134558500Y-68410000D01*
X134558500Y-68410000D02*
X133958500Y-68410000D01*
X126158500Y-67110000D02*
G75*
G03*
X126158500Y-66110000I0J500000D01*
G01*
X159353752Y-90265000D02*
X158831248Y-90265000D01*
X159353752Y-88795000D02*
X158831248Y-88795000D01*
X141135748Y-124547000D02*
X141658252Y-124547000D01*
X141135748Y-126017000D02*
X141658252Y-126017000D01*
X164768748Y-92295000D02*
X165291252Y-92295000D01*
X164768748Y-90825000D02*
X165291252Y-90825000D01*
X169765564Y-124645000D02*
X169311436Y-124645000D01*
X169765564Y-126115000D02*
X169311436Y-126115000D01*
X146467064Y-95595000D02*
X146012936Y-95595000D01*
X146467064Y-94125000D02*
X146012936Y-94125000D01*
X145785564Y-126051000D02*
X145331436Y-126051000D01*
X145785564Y-124581000D02*
X145331436Y-124581000D01*
D13*
X112578500Y-102960000D02*
X118547500Y-102960000D01*
X118547500Y-102960000D02*
X118547500Y-92800000D01*
X118547500Y-92800000D02*
X112578500Y-92800000D01*
X112578500Y-92800000D02*
X112578500Y-102960000D01*
X112578500Y-99531000D02*
X113848500Y-99531000D01*
X113848500Y-99531000D02*
X113848500Y-96229000D01*
X113848500Y-96229000D02*
X112578500Y-96229000D01*
X112578500Y-96229000D02*
X112578500Y-99531000D01*
D14*
X133083500Y-72068752D02*
X133083500Y-71546248D01*
X134553500Y-72068752D02*
X134553500Y-71546248D01*
X115803500Y-128580000D02*
X115803500Y-129780000D01*
X115803500Y-131380000D02*
X115803500Y-132580000D01*
X115803500Y-132580000D02*
X122203500Y-132580000D01*
X122203500Y-128580000D02*
X115803500Y-128580000D01*
X122203500Y-129780000D02*
X122203500Y-128580000D01*
X122203500Y-132580000D02*
X122203500Y-131380000D01*
X152750000Y-112400000D02*
X152750000Y-113400000D01*
X149390000Y-112400000D02*
X149390000Y-113400000D01*
X157705564Y-66025000D02*
X157251436Y-66025000D01*
X157705564Y-64555000D02*
X157251436Y-64555000D01*
X145523500Y-66156248D02*
X145523500Y-66678752D01*
X144053500Y-66156248D02*
X144053500Y-66678752D01*
X124983500Y-66652500D02*
X124983500Y-72902500D01*
X119933500Y-66652500D02*
X119933500Y-72902500D01*
X124983500Y-66652500D02*
G75*
G03*
X119933500Y-66652500I-2525000J0D01*
G01*
X119933500Y-72902500D02*
G75*
G03*
X124983500Y-72902500I2525000J0D01*
G01*
X140198500Y-128610000D02*
X140198500Y-129810000D01*
X140198500Y-131410000D02*
X140198500Y-132610000D01*
X140198500Y-132610000D02*
X146598500Y-132610000D01*
X146598500Y-128610000D02*
X140198500Y-128610000D01*
X146598500Y-129810000D02*
X146598500Y-128610000D01*
X146598500Y-132610000D02*
X146598500Y-131410000D01*
D13*
X151878500Y-56110000D02*
X167118500Y-56110000D01*
X167118500Y-56110000D02*
X167118500Y-62079000D01*
X167118500Y-62079000D02*
X151878500Y-62079000D01*
X151878500Y-62079000D02*
X151878500Y-56110000D01*
X156561000Y-57260000D02*
X162436000Y-57260000D01*
X162436000Y-57260000D02*
X162436000Y-56110000D01*
X162436000Y-56110000D02*
X156561000Y-56110000D01*
X156561000Y-56110000D02*
X156561000Y-57260000D01*
D14*
X131960000Y-105210000D02*
G75*
G03*
X131960000Y-105210000I-6100000J0D01*
G01*
X165219748Y-124625000D02*
X165742252Y-124625000D01*
X165219748Y-126095000D02*
X165742252Y-126095000D01*
X128212252Y-71655000D02*
X127689748Y-71655000D01*
X128212252Y-70185000D02*
X127689748Y-70185000D01*
X153522252Y-68565000D02*
X152999748Y-68565000D01*
X153522252Y-67095000D02*
X152999748Y-67095000D01*
X128031248Y-90405000D02*
X128553752Y-90405000D01*
X128031248Y-88935000D02*
X128553752Y-88935000D01*
X141857500Y-112020000D02*
X138997500Y-112020000D01*
X141857500Y-113940000D02*
X141857500Y-112020000D01*
X138997500Y-113940000D02*
X141857500Y-113940000D01*
X143135000Y-113960000D02*
X145995000Y-113960000D01*
X145995000Y-113960000D02*
X145995000Y-112040000D01*
X145995000Y-112040000D02*
X143135000Y-112040000D01*
%LPC*%
D17*
X172058500Y-95500000D03*
D18*
X172058500Y-98040000D03*
X172058500Y-100580000D03*
X172058500Y-103120000D03*
D19*
X131288500Y-72857500D03*
X131288500Y-70782500D03*
D20*
X170930000Y-112252500D03*
D21*
X170930000Y-108292500D03*
D22*
X122930000Y-89720000D03*
X120855000Y-89720000D03*
D23*
X151070000Y-120460000D03*
X151070000Y-118410000D03*
D17*
X164358500Y-66080000D03*
D18*
X164358500Y-68620000D03*
X164358500Y-71160000D03*
X164358500Y-73700000D03*
D23*
X130630000Y-120290000D03*
X130630000Y-118240000D03*
D24*
X151160000Y-94860000D03*
X149160000Y-94860000D03*
D25*
X132170000Y-111970000D03*
D26*
X132970000Y-111970000D03*
X133770000Y-111970000D03*
D25*
X134570000Y-111970000D03*
X134570000Y-113770000D03*
D26*
X133770000Y-113770000D03*
X132970000Y-113770000D03*
D25*
X132170000Y-113770000D03*
D23*
X145970000Y-120350000D03*
X145970000Y-118300000D03*
X156110000Y-120350000D03*
X156110000Y-118300000D03*
D27*
X138368500Y-58600000D03*
D18*
X140908500Y-58600000D03*
X143448500Y-58600000D03*
X145988500Y-58600000D03*
X148528500Y-58600000D03*
D28*
X127058500Y-75070000D03*
X127058500Y-72995000D03*
D29*
X158760000Y-86630000D03*
X158760000Y-85980000D03*
X158760000Y-85330000D03*
X158760000Y-84680000D03*
X158760000Y-84030000D03*
X158760000Y-83380000D03*
X158760000Y-82730000D03*
X158760000Y-82080000D03*
X158760000Y-81430000D03*
X158760000Y-80780000D03*
X158760000Y-80130000D03*
X158760000Y-79480000D03*
X166010000Y-79480000D03*
X166010000Y-80130000D03*
X166010000Y-80780000D03*
X166010000Y-81430000D03*
X166010000Y-82080000D03*
X166010000Y-82730000D03*
X166010000Y-83380000D03*
X166010000Y-84030000D03*
X166010000Y-84680000D03*
X166010000Y-85330000D03*
X166010000Y-85980000D03*
X166010000Y-86630000D03*
D30*
X152357500Y-125316000D03*
X154432500Y-125316000D03*
D18*
X164890000Y-103160000D03*
X164890000Y-100620000D03*
X164890000Y-98080000D03*
D17*
X164890000Y-95540000D03*
D31*
X126813500Y-130510000D03*
X134563500Y-130510000D03*
D22*
X155722500Y-107280000D03*
X157797500Y-107280000D03*
D30*
X127703500Y-125460000D03*
X129778500Y-125460000D03*
D28*
X137718500Y-65442500D03*
X137718500Y-67517500D03*
X142468500Y-65405000D03*
X142468500Y-67480000D03*
X140118500Y-65445000D03*
X140118500Y-67520000D03*
X150148500Y-65410000D03*
X150148500Y-67485000D03*
D32*
X115098500Y-108930000D03*
D18*
X115098500Y-106390000D03*
D24*
X133838500Y-125410000D03*
X131838500Y-125410000D03*
D33*
X124610000Y-94270000D03*
X124610000Y-96170000D03*
X122735000Y-95220000D03*
D17*
X171957700Y-60170000D03*
D18*
X171957700Y-62710000D03*
X171957700Y-65250000D03*
X171957700Y-67790000D03*
X171957700Y-70330000D03*
D32*
X115174000Y-70622500D03*
D18*
X115174000Y-68082500D03*
X115174000Y-65542500D03*
X115174000Y-63002500D03*
X115174000Y-60462500D03*
D24*
X122216000Y-125380000D03*
X120216000Y-125380000D03*
D31*
X151693500Y-130510000D03*
X159443500Y-130510000D03*
D30*
X141205000Y-94860000D03*
X143280000Y-94860000D03*
D23*
X125290000Y-120330000D03*
X125290000Y-118280000D03*
X135510000Y-120350000D03*
X135510000Y-118300000D03*
D22*
X158563500Y-67840000D03*
X156488500Y-67840000D03*
D30*
X115998500Y-125410000D03*
X118073500Y-125410000D03*
D23*
X140660000Y-120290000D03*
X140660000Y-118240000D03*
X161260000Y-120240000D03*
X161260000Y-118190000D03*
D27*
X122248500Y-58600000D03*
D18*
X124788500Y-58600000D03*
X127328500Y-58600000D03*
X129868500Y-58600000D03*
X132408500Y-58600000D03*
D31*
X155495000Y-112940000D03*
X163245000Y-112940000D03*
X171498500Y-130440000D03*
X163748500Y-130440000D03*
D24*
X158496500Y-125316000D03*
X156496500Y-125316000D03*
D34*
X128640000Y-79570000D03*
X128640000Y-80220000D03*
X128640000Y-80870000D03*
X128640000Y-81520000D03*
X128640000Y-82170000D03*
X128640000Y-82820000D03*
X128640000Y-83470000D03*
X128640000Y-84120000D03*
X128640000Y-84770000D03*
X128640000Y-85420000D03*
X128640000Y-86070000D03*
X128640000Y-86720000D03*
X121390000Y-86720000D03*
X121390000Y-86070000D03*
X121390000Y-85420000D03*
X121390000Y-84770000D03*
X121390000Y-84120000D03*
X121390000Y-83470000D03*
X121390000Y-82820000D03*
X121390000Y-82170000D03*
X121390000Y-81520000D03*
X121390000Y-80870000D03*
X121390000Y-80220000D03*
X121390000Y-79570000D03*
D32*
X115078500Y-89200000D03*
D18*
X115078500Y-86660000D03*
X115078500Y-84120000D03*
X115078500Y-81580000D03*
X115078500Y-79040000D03*
X115078500Y-76500000D03*
D30*
X137207500Y-94850000D03*
X139282500Y-94850000D03*
D18*
X157544500Y-103230000D03*
X157544500Y-100690000D03*
X157544500Y-98150000D03*
D17*
X157544500Y-95610000D03*
D35*
X152288500Y-65310000D03*
X154288500Y-65310000D03*
D17*
X171997700Y-76240000D03*
D18*
X171997700Y-78780000D03*
X171997700Y-81320000D03*
X171997700Y-83860000D03*
X171997700Y-86400000D03*
X171997700Y-88940000D03*
D28*
X147798500Y-65380000D03*
X147798500Y-67455000D03*
D36*
X137920000Y-76085000D03*
X138420000Y-76085000D03*
X138920000Y-76085000D03*
X139420000Y-76085000D03*
X139920000Y-76085000D03*
X140420000Y-76085000D03*
X140920000Y-76085000D03*
X141420000Y-76085000D03*
X141920000Y-76085000D03*
X142420000Y-76085000D03*
X142920000Y-76085000D03*
X143420000Y-76085000D03*
X143920000Y-76085000D03*
X144420000Y-76085000D03*
X144920000Y-76085000D03*
X145420000Y-76085000D03*
X145920000Y-76085000D03*
X146420000Y-76085000D03*
X146920000Y-76085000D03*
X147420000Y-76085000D03*
X147920000Y-76085000D03*
X148420000Y-76085000D03*
X148920000Y-76085000D03*
X149420000Y-76085000D03*
X149920000Y-76085000D03*
D37*
X151595000Y-77760000D03*
X151595000Y-78260000D03*
X151595000Y-78760000D03*
X151595000Y-79260000D03*
X151595000Y-79760000D03*
X151595000Y-80260000D03*
X151595000Y-80760000D03*
X151595000Y-81260000D03*
X151595000Y-81760000D03*
X151595000Y-82260000D03*
X151595000Y-82760000D03*
X151595000Y-83260000D03*
X151595000Y-83760000D03*
X151595000Y-84260000D03*
X151595000Y-84760000D03*
X151595000Y-85260000D03*
X151595000Y-85760000D03*
X151595000Y-86260000D03*
X151595000Y-86760000D03*
X151595000Y-87260000D03*
X151595000Y-87760000D03*
X151595000Y-88260000D03*
X151595000Y-88760000D03*
X151595000Y-89260000D03*
X151595000Y-89760000D03*
D36*
X149920000Y-91435000D03*
X149420000Y-91435000D03*
X148920000Y-91435000D03*
X148420000Y-91435000D03*
X147920000Y-91435000D03*
X147420000Y-91435000D03*
X146920000Y-91435000D03*
X146420000Y-91435000D03*
X145920000Y-91435000D03*
X145420000Y-91435000D03*
X144920000Y-91435000D03*
X144420000Y-91435000D03*
X143920000Y-91435000D03*
X143420000Y-91435000D03*
X142920000Y-91435000D03*
X142420000Y-91435000D03*
X141920000Y-91435000D03*
X141420000Y-91435000D03*
X140920000Y-91435000D03*
X140420000Y-91435000D03*
X139920000Y-91435000D03*
X139420000Y-91435000D03*
X138920000Y-91435000D03*
X138420000Y-91435000D03*
X137920000Y-91435000D03*
D37*
X136245000Y-89760000D03*
X136245000Y-89260000D03*
X136245000Y-88760000D03*
X136245000Y-88260000D03*
X136245000Y-87760000D03*
X136245000Y-87260000D03*
X136245000Y-86760000D03*
X136245000Y-86260000D03*
X136245000Y-85760000D03*
X136245000Y-85260000D03*
X136245000Y-84760000D03*
X136245000Y-84260000D03*
X136245000Y-83760000D03*
X136245000Y-83260000D03*
X136245000Y-82760000D03*
X136245000Y-82260000D03*
X136245000Y-81760000D03*
X136245000Y-81260000D03*
X136245000Y-80760000D03*
X136245000Y-80260000D03*
X136245000Y-79760000D03*
X136245000Y-79260000D03*
X136245000Y-78760000D03*
X136245000Y-78260000D03*
X136245000Y-77760000D03*
D38*
X127320000Y-96290000D03*
X127320000Y-94290000D03*
D39*
X127608500Y-68210000D03*
X133108500Y-68210000D03*
X133108500Y-65010000D03*
X127608500Y-65010000D03*
D22*
X160130000Y-89530000D03*
X158055000Y-89530000D03*
D30*
X140359500Y-125282000D03*
X142434500Y-125282000D03*
X166067500Y-91560000D03*
X163992500Y-91560000D03*
D24*
X168538500Y-125380000D03*
X170538500Y-125380000D03*
X147240000Y-94860000D03*
X145240000Y-94860000D03*
X146558500Y-125316000D03*
X144558500Y-125316000D03*
D32*
X115118500Y-100420000D03*
D18*
X115118500Y-97880000D03*
X115118500Y-95340000D03*
D19*
X133818500Y-72845000D03*
X133818500Y-70770000D03*
D31*
X115128500Y-130580000D03*
X122878500Y-130580000D03*
D25*
X149870000Y-112000000D03*
D26*
X150670000Y-112000000D03*
X151470000Y-112000000D03*
D25*
X152270000Y-112000000D03*
X152270000Y-113800000D03*
D26*
X151470000Y-113800000D03*
X150670000Y-113800000D03*
D25*
X149870000Y-113800000D03*
D24*
X158478500Y-65290000D03*
X156478500Y-65290000D03*
D28*
X144788500Y-65380000D03*
X144788500Y-67455000D03*
D40*
X122458500Y-67337500D03*
X122458500Y-72217500D03*
D31*
X139523500Y-130610000D03*
X147273500Y-130610000D03*
D27*
X154418500Y-58650000D03*
D18*
X156958500Y-58650000D03*
X159498500Y-58650000D03*
X162038500Y-58650000D03*
X164578500Y-58650000D03*
D41*
X129660000Y-105210000D03*
D42*
X122060000Y-105210000D03*
D30*
X164443500Y-125360000D03*
X166518500Y-125360000D03*
D22*
X128988500Y-70920000D03*
X126913500Y-70920000D03*
X154298500Y-67830000D03*
X152223500Y-67830000D03*
D30*
X129330000Y-89670000D03*
X127255000Y-89670000D03*
D43*
X141022500Y-112980000D03*
X138972500Y-112980000D03*
X143110000Y-113000000D03*
X145160000Y-113000000D03*
%LPD*%
M02*
