G04 #@! TF.GenerationSoftware,KiCad,Pcbnew,7.0.8*
G04 #@! TF.CreationDate,2023-11-09T09:46:19+07:00*
G04 #@! TF.ProjectId,PCB v2,50434220-7632-42e6-9b69-6361645f7063,rev?*
G04 #@! TF.SameCoordinates,Original*
G04 #@! TF.FileFunction,Legend,Bot*
G04 #@! TF.FilePolarity,Positive*
%FSLAX46Y46*%
G04 Gerber Fmt 4.6, Leading zero omitted, Abs format (unit mm)*
G04 Created by KiCad (PCBNEW 7.0.8) date 2023-11-09 09:46:19*
%MOMM*%
%LPD*%
G01*
G04 APERTURE LIST*
G04 Aperture macros list*
%AMRoundRect*
0 Rectangle with rounded corners*
0 $1 Rounding radius*
0 $2 $3 $4 $5 $6 $7 $8 $9 X,Y pos of 4 corners*
0 Add a 4 corners polygon primitive as box body*
4,1,4,$2,$3,$4,$5,$6,$7,$8,$9,$2,$3,0*
0 Add four circle primitives for the rounded corners*
1,1,$1+$1,$2,$3*
1,1,$1+$1,$4,$5*
1,1,$1+$1,$6,$7*
1,1,$1+$1,$8,$9*
0 Add four rect primitives between the rounded corners*
20,1,$1+$1,$2,$3,$4,$5,0*
20,1,$1+$1,$4,$5,$6,$7,0*
20,1,$1+$1,$6,$7,$8,$9,0*
20,1,$1+$1,$8,$9,$2,$3,0*%
G04 Aperture macros list end*
%ADD10C,0.250000*%
%ADD11C,0.150000*%
%ADD12C,0.120000*%
%ADD13RoundRect,0.425000X-0.425000X0.425000X-0.425000X-0.425000X0.425000X-0.425000X0.425000X0.425000X0*%
%ADD14C,1.700000*%
%ADD15C,2.700000*%
%ADD16RoundRect,0.250001X-1.099999X1.099999X-1.099999X-1.099999X1.099999X-1.099999X1.099999X1.099999X0*%
%ADD17RoundRect,0.425000X-0.425000X-0.425000X0.425000X-0.425000X0.425000X0.425000X-0.425000X0.425000X0*%
%ADD18RoundRect,0.425000X0.425000X-0.425000X0.425000X0.425000X-0.425000X0.425000X-0.425000X-0.425000X0*%
%ADD19C,1.500000*%
%ADD20C,2.000000*%
%ADD21R,2.000000X2.000000*%
%ADD22RoundRect,0.250000X0.475000X-0.337500X0.475000X0.337500X-0.475000X0.337500X-0.475000X-0.337500X0*%
%ADD23RoundRect,0.250000X2.050000X0.300000X-2.050000X0.300000X-2.050000X-0.300000X2.050000X-0.300000X0*%
%ADD24RoundRect,0.250002X4.449998X5.149998X-4.449998X5.149998X-4.449998X-5.149998X4.449998X-5.149998X0*%
%ADD25RoundRect,0.250000X-0.650000X1.500000X-0.650000X-1.500000X0.650000X-1.500000X0.650000X1.500000X0*%
%ADD26R,2.900000X5.400000*%
%ADD27R,1.500000X2.000000*%
%ADD28R,3.800000X2.000000*%
%ADD29RoundRect,0.250000X0.450000X-0.350000X0.450000X0.350000X-0.450000X0.350000X-0.450000X-0.350000X0*%
%ADD30RoundRect,0.250000X-0.337500X-0.475000X0.337500X-0.475000X0.337500X0.475000X-0.337500X0.475000X0*%
%ADD31RoundRect,0.250000X-0.875000X-1.025000X0.875000X-1.025000X0.875000X1.025000X-0.875000X1.025000X0*%
%ADD32RoundRect,0.250000X-1.000000X1.950000X-1.000000X-1.950000X1.000000X-1.950000X1.000000X1.950000X0*%
%ADD33RoundRect,0.250000X-1.500000X-0.650000X1.500000X-0.650000X1.500000X0.650000X-1.500000X0.650000X0*%
%ADD34RoundRect,0.250000X0.350000X0.450000X-0.350000X0.450000X-0.350000X-0.450000X0.350000X-0.450000X0*%
G04 APERTURE END LIST*
D10*
X174030765Y-134819857D02*
X174126003Y-134772238D01*
X174126003Y-134772238D02*
X174221241Y-134677000D01*
X174221241Y-134677000D02*
X174364098Y-134534142D01*
X174364098Y-134534142D02*
X174459336Y-134486523D01*
X174459336Y-134486523D02*
X174554574Y-134486523D01*
X174506955Y-134724619D02*
X174602193Y-134677000D01*
X174602193Y-134677000D02*
X174697431Y-134581761D01*
X174697431Y-134581761D02*
X174745050Y-134391285D01*
X174745050Y-134391285D02*
X174745050Y-134057952D01*
X174745050Y-134057952D02*
X174697431Y-133867476D01*
X174697431Y-133867476D02*
X174602193Y-133772238D01*
X174602193Y-133772238D02*
X174506955Y-133724619D01*
X174506955Y-133724619D02*
X174316479Y-133724619D01*
X174316479Y-133724619D02*
X174221241Y-133772238D01*
X174221241Y-133772238D02*
X174126003Y-133867476D01*
X174126003Y-133867476D02*
X174078384Y-134057952D01*
X174078384Y-134057952D02*
X174078384Y-134391285D01*
X174078384Y-134391285D02*
X174126003Y-134581761D01*
X174126003Y-134581761D02*
X174221241Y-134677000D01*
X174221241Y-134677000D02*
X174316479Y-134724619D01*
X174316479Y-134724619D02*
X174506955Y-134724619D01*
X173649812Y-133724619D02*
X173649812Y-134534142D01*
X173649812Y-134534142D02*
X173602193Y-134629380D01*
X173602193Y-134629380D02*
X173554574Y-134677000D01*
X173554574Y-134677000D02*
X173459336Y-134724619D01*
X173459336Y-134724619D02*
X173268860Y-134724619D01*
X173268860Y-134724619D02*
X173173622Y-134677000D01*
X173173622Y-134677000D02*
X173126003Y-134629380D01*
X173126003Y-134629380D02*
X173078384Y-134534142D01*
X173078384Y-134534142D02*
X173078384Y-133724619D01*
X172411717Y-134248428D02*
X172411717Y-134724619D01*
X172745050Y-133724619D02*
X172411717Y-134248428D01*
X172411717Y-134248428D02*
X172078384Y-133724619D01*
X172411717Y-133486523D02*
X172316479Y-133391285D01*
X172316479Y-133391285D02*
X172268860Y-133296047D01*
X172268860Y-133296047D02*
X172316479Y-133200809D01*
X172316479Y-133200809D02*
X172411717Y-133153190D01*
X172411717Y-133153190D02*
X172506955Y-133153190D01*
X170983145Y-134724619D02*
X170983145Y-133724619D01*
X170983145Y-133724619D02*
X170745050Y-133724619D01*
X170745050Y-133724619D02*
X170602193Y-133772238D01*
X170602193Y-133772238D02*
X170506955Y-133867476D01*
X170506955Y-133867476D02*
X170459336Y-133962714D01*
X170459336Y-133962714D02*
X170411717Y-134153190D01*
X170411717Y-134153190D02*
X170411717Y-134296047D01*
X170411717Y-134296047D02*
X170459336Y-134486523D01*
X170459336Y-134486523D02*
X170506955Y-134581761D01*
X170506955Y-134581761D02*
X170602193Y-134677000D01*
X170602193Y-134677000D02*
X170745050Y-134724619D01*
X170745050Y-134724619D02*
X170983145Y-134724619D01*
X171126002Y-134200809D02*
X170745050Y-134200809D01*
X169792669Y-133724619D02*
X169602193Y-133724619D01*
X169602193Y-133724619D02*
X169506955Y-133772238D01*
X169506955Y-133772238D02*
X169411717Y-133867476D01*
X169411717Y-133867476D02*
X169364098Y-134057952D01*
X169364098Y-134057952D02*
X169364098Y-134391285D01*
X169364098Y-134391285D02*
X169411717Y-134581761D01*
X169411717Y-134581761D02*
X169506955Y-134677000D01*
X169506955Y-134677000D02*
X169602193Y-134724619D01*
X169602193Y-134724619D02*
X169792669Y-134724619D01*
X169792669Y-134724619D02*
X169887907Y-134677000D01*
X169887907Y-134677000D02*
X169983145Y-134581761D01*
X169983145Y-134581761D02*
X170030764Y-134391285D01*
X170030764Y-134391285D02*
X170030764Y-134057952D01*
X170030764Y-134057952D02*
X169983145Y-133867476D01*
X169983145Y-133867476D02*
X169887907Y-133772238D01*
X169887907Y-133772238D02*
X169792669Y-133724619D01*
X169697431Y-133486523D02*
X169602193Y-133391285D01*
X169602193Y-133391285D02*
X169554574Y-133296047D01*
X169554574Y-133296047D02*
X169602193Y-133200809D01*
X169602193Y-133200809D02*
X169697431Y-133153190D01*
X169697431Y-133153190D02*
X169792669Y-133153190D01*
X168173621Y-134343666D02*
X167411717Y-134343666D01*
X166221240Y-134438904D02*
X165745050Y-134438904D01*
X166316478Y-134724619D02*
X165983145Y-133724619D01*
X165983145Y-133724619D02*
X165649812Y-134724619D01*
X165316478Y-134724619D02*
X165316478Y-133724619D01*
X165316478Y-133724619D02*
X164983145Y-134438904D01*
X164983145Y-134438904D02*
X164649812Y-133724619D01*
X164649812Y-133724619D02*
X164649812Y-134724619D01*
X163697431Y-134724619D02*
X164173621Y-134724619D01*
X164173621Y-134724619D02*
X164173621Y-133724619D01*
X174546955Y-135554619D02*
X174451717Y-135554619D01*
X174451717Y-135554619D02*
X174356479Y-135602238D01*
X174356479Y-135602238D02*
X174308860Y-135649857D01*
X174308860Y-135649857D02*
X174261241Y-135745095D01*
X174261241Y-135745095D02*
X174213622Y-135935571D01*
X174213622Y-135935571D02*
X174213622Y-136173666D01*
X174213622Y-136173666D02*
X174261241Y-136364142D01*
X174261241Y-136364142D02*
X174308860Y-136459380D01*
X174308860Y-136459380D02*
X174356479Y-136507000D01*
X174356479Y-136507000D02*
X174451717Y-136554619D01*
X174451717Y-136554619D02*
X174546955Y-136554619D01*
X174546955Y-136554619D02*
X174642193Y-136507000D01*
X174642193Y-136507000D02*
X174689812Y-136459380D01*
X174689812Y-136459380D02*
X174737431Y-136364142D01*
X174737431Y-136364142D02*
X174785050Y-136173666D01*
X174785050Y-136173666D02*
X174785050Y-135935571D01*
X174785050Y-135935571D02*
X174737431Y-135745095D01*
X174737431Y-135745095D02*
X174689812Y-135649857D01*
X174689812Y-135649857D02*
X174642193Y-135602238D01*
X174642193Y-135602238D02*
X174546955Y-135554619D01*
X173737431Y-136554619D02*
X173546955Y-136554619D01*
X173546955Y-136554619D02*
X173451717Y-136507000D01*
X173451717Y-136507000D02*
X173404098Y-136459380D01*
X173404098Y-136459380D02*
X173308860Y-136316523D01*
X173308860Y-136316523D02*
X173261241Y-136126047D01*
X173261241Y-136126047D02*
X173261241Y-135745095D01*
X173261241Y-135745095D02*
X173308860Y-135649857D01*
X173308860Y-135649857D02*
X173356479Y-135602238D01*
X173356479Y-135602238D02*
X173451717Y-135554619D01*
X173451717Y-135554619D02*
X173642193Y-135554619D01*
X173642193Y-135554619D02*
X173737431Y-135602238D01*
X173737431Y-135602238D02*
X173785050Y-135649857D01*
X173785050Y-135649857D02*
X173832669Y-135745095D01*
X173832669Y-135745095D02*
X173832669Y-135983190D01*
X173832669Y-135983190D02*
X173785050Y-136078428D01*
X173785050Y-136078428D02*
X173737431Y-136126047D01*
X173737431Y-136126047D02*
X173642193Y-136173666D01*
X173642193Y-136173666D02*
X173451717Y-136173666D01*
X173451717Y-136173666D02*
X173356479Y-136126047D01*
X173356479Y-136126047D02*
X173308860Y-136078428D01*
X173308860Y-136078428D02*
X173261241Y-135983190D01*
X172118384Y-135507000D02*
X172975526Y-136792714D01*
X171261241Y-136554619D02*
X171832669Y-136554619D01*
X171546955Y-136554619D02*
X171546955Y-135554619D01*
X171546955Y-135554619D02*
X171642193Y-135697476D01*
X171642193Y-135697476D02*
X171737431Y-135792714D01*
X171737431Y-135792714D02*
X171832669Y-135840333D01*
X170308860Y-136554619D02*
X170880288Y-136554619D01*
X170594574Y-136554619D02*
X170594574Y-135554619D01*
X170594574Y-135554619D02*
X170689812Y-135697476D01*
X170689812Y-135697476D02*
X170785050Y-135792714D01*
X170785050Y-135792714D02*
X170880288Y-135840333D01*
X169166003Y-135507000D02*
X170023145Y-136792714D01*
X168880288Y-135649857D02*
X168832669Y-135602238D01*
X168832669Y-135602238D02*
X168737431Y-135554619D01*
X168737431Y-135554619D02*
X168499336Y-135554619D01*
X168499336Y-135554619D02*
X168404098Y-135602238D01*
X168404098Y-135602238D02*
X168356479Y-135649857D01*
X168356479Y-135649857D02*
X168308860Y-135745095D01*
X168308860Y-135745095D02*
X168308860Y-135840333D01*
X168308860Y-135840333D02*
X168356479Y-135983190D01*
X168356479Y-135983190D02*
X168927907Y-136554619D01*
X168927907Y-136554619D02*
X168308860Y-136554619D01*
X167689812Y-135554619D02*
X167594574Y-135554619D01*
X167594574Y-135554619D02*
X167499336Y-135602238D01*
X167499336Y-135602238D02*
X167451717Y-135649857D01*
X167451717Y-135649857D02*
X167404098Y-135745095D01*
X167404098Y-135745095D02*
X167356479Y-135935571D01*
X167356479Y-135935571D02*
X167356479Y-136173666D01*
X167356479Y-136173666D02*
X167404098Y-136364142D01*
X167404098Y-136364142D02*
X167451717Y-136459380D01*
X167451717Y-136459380D02*
X167499336Y-136507000D01*
X167499336Y-136507000D02*
X167594574Y-136554619D01*
X167594574Y-136554619D02*
X167689812Y-136554619D01*
X167689812Y-136554619D02*
X167785050Y-136507000D01*
X167785050Y-136507000D02*
X167832669Y-136459380D01*
X167832669Y-136459380D02*
X167880288Y-136364142D01*
X167880288Y-136364142D02*
X167927907Y-136173666D01*
X167927907Y-136173666D02*
X167927907Y-135935571D01*
X167927907Y-135935571D02*
X167880288Y-135745095D01*
X167880288Y-135745095D02*
X167832669Y-135649857D01*
X167832669Y-135649857D02*
X167785050Y-135602238D01*
X167785050Y-135602238D02*
X167689812Y-135554619D01*
X166975526Y-135649857D02*
X166927907Y-135602238D01*
X166927907Y-135602238D02*
X166832669Y-135554619D01*
X166832669Y-135554619D02*
X166594574Y-135554619D01*
X166594574Y-135554619D02*
X166499336Y-135602238D01*
X166499336Y-135602238D02*
X166451717Y-135649857D01*
X166451717Y-135649857D02*
X166404098Y-135745095D01*
X166404098Y-135745095D02*
X166404098Y-135840333D01*
X166404098Y-135840333D02*
X166451717Y-135983190D01*
X166451717Y-135983190D02*
X167023145Y-136554619D01*
X167023145Y-136554619D02*
X166404098Y-136554619D01*
X166070764Y-135554619D02*
X165451717Y-135554619D01*
X165451717Y-135554619D02*
X165785050Y-135935571D01*
X165785050Y-135935571D02*
X165642193Y-135935571D01*
X165642193Y-135935571D02*
X165546955Y-135983190D01*
X165546955Y-135983190D02*
X165499336Y-136030809D01*
X165499336Y-136030809D02*
X165451717Y-136126047D01*
X165451717Y-136126047D02*
X165451717Y-136364142D01*
X165451717Y-136364142D02*
X165499336Y-136459380D01*
X165499336Y-136459380D02*
X165546955Y-136507000D01*
X165546955Y-136507000D02*
X165642193Y-136554619D01*
X165642193Y-136554619D02*
X165927907Y-136554619D01*
X165927907Y-136554619D02*
X166023145Y-136507000D01*
X166023145Y-136507000D02*
X166070764Y-136459380D01*
D11*
X122005166Y-136119580D02*
X122052785Y-136167200D01*
X122052785Y-136167200D02*
X122195642Y-136214819D01*
X122195642Y-136214819D02*
X122290880Y-136214819D01*
X122290880Y-136214819D02*
X122433737Y-136167200D01*
X122433737Y-136167200D02*
X122528975Y-136071961D01*
X122528975Y-136071961D02*
X122576594Y-135976723D01*
X122576594Y-135976723D02*
X122624213Y-135786247D01*
X122624213Y-135786247D02*
X122624213Y-135643390D01*
X122624213Y-135643390D02*
X122576594Y-135452914D01*
X122576594Y-135452914D02*
X122528975Y-135357676D01*
X122528975Y-135357676D02*
X122433737Y-135262438D01*
X122433737Y-135262438D02*
X122290880Y-135214819D01*
X122290880Y-135214819D02*
X122195642Y-135214819D01*
X122195642Y-135214819D02*
X122052785Y-135262438D01*
X122052785Y-135262438D02*
X122005166Y-135310057D01*
X121671832Y-135214819D02*
X121052785Y-135214819D01*
X121052785Y-135214819D02*
X121386118Y-135595771D01*
X121386118Y-135595771D02*
X121243261Y-135595771D01*
X121243261Y-135595771D02*
X121148023Y-135643390D01*
X121148023Y-135643390D02*
X121100404Y-135691009D01*
X121100404Y-135691009D02*
X121052785Y-135786247D01*
X121052785Y-135786247D02*
X121052785Y-136024342D01*
X121052785Y-136024342D02*
X121100404Y-136119580D01*
X121100404Y-136119580D02*
X121148023Y-136167200D01*
X121148023Y-136167200D02*
X121243261Y-136214819D01*
X121243261Y-136214819D02*
X121528975Y-136214819D01*
X121528975Y-136214819D02*
X121624213Y-136167200D01*
X121624213Y-136167200D02*
X121671832Y-136119580D01*
X152780404Y-108334819D02*
X152780404Y-109144342D01*
X152780404Y-109144342D02*
X152732785Y-109239580D01*
X152732785Y-109239580D02*
X152685166Y-109287200D01*
X152685166Y-109287200D02*
X152589928Y-109334819D01*
X152589928Y-109334819D02*
X152399452Y-109334819D01*
X152399452Y-109334819D02*
X152304214Y-109287200D01*
X152304214Y-109287200D02*
X152256595Y-109239580D01*
X152256595Y-109239580D02*
X152208976Y-109144342D01*
X152208976Y-109144342D02*
X152208976Y-108334819D01*
X151780404Y-108430057D02*
X151732785Y-108382438D01*
X151732785Y-108382438D02*
X151637547Y-108334819D01*
X151637547Y-108334819D02*
X151399452Y-108334819D01*
X151399452Y-108334819D02*
X151304214Y-108382438D01*
X151304214Y-108382438D02*
X151256595Y-108430057D01*
X151256595Y-108430057D02*
X151208976Y-108525295D01*
X151208976Y-108525295D02*
X151208976Y-108620533D01*
X151208976Y-108620533D02*
X151256595Y-108763390D01*
X151256595Y-108763390D02*
X151828023Y-109334819D01*
X151828023Y-109334819D02*
X151208976Y-109334819D01*
X126548128Y-118704819D02*
X126548128Y-117704819D01*
X126548128Y-117704819D02*
X126310033Y-117704819D01*
X126310033Y-117704819D02*
X126167176Y-117752438D01*
X126167176Y-117752438D02*
X126071938Y-117847676D01*
X126071938Y-117847676D02*
X126024319Y-117942914D01*
X126024319Y-117942914D02*
X125976700Y-118133390D01*
X125976700Y-118133390D02*
X125976700Y-118276247D01*
X125976700Y-118276247D02*
X126024319Y-118466723D01*
X126024319Y-118466723D02*
X126071938Y-118561961D01*
X126071938Y-118561961D02*
X126167176Y-118657200D01*
X126167176Y-118657200D02*
X126310033Y-118704819D01*
X126310033Y-118704819D02*
X126548128Y-118704819D01*
X125595747Y-117800057D02*
X125548128Y-117752438D01*
X125548128Y-117752438D02*
X125452890Y-117704819D01*
X125452890Y-117704819D02*
X125214795Y-117704819D01*
X125214795Y-117704819D02*
X125119557Y-117752438D01*
X125119557Y-117752438D02*
X125071938Y-117800057D01*
X125071938Y-117800057D02*
X125024319Y-117895295D01*
X125024319Y-117895295D02*
X125024319Y-117990533D01*
X125024319Y-117990533D02*
X125071938Y-118133390D01*
X125071938Y-118133390D02*
X125643366Y-118704819D01*
X125643366Y-118704819D02*
X125024319Y-118704819D01*
X140245166Y-136444819D02*
X140721356Y-136444819D01*
X140721356Y-136444819D02*
X140721356Y-135444819D01*
X139388023Y-136444819D02*
X139959451Y-136444819D01*
X139673737Y-136444819D02*
X139673737Y-135444819D01*
X139673737Y-135444819D02*
X139768975Y-135587676D01*
X139768975Y-135587676D02*
X139864213Y-135682914D01*
X139864213Y-135682914D02*
X139959451Y-135730533D01*
X116820404Y-135844819D02*
X116820404Y-136654342D01*
X116820404Y-136654342D02*
X116772785Y-136749580D01*
X116772785Y-136749580D02*
X116725166Y-136797200D01*
X116725166Y-136797200D02*
X116629928Y-136844819D01*
X116629928Y-136844819D02*
X116439452Y-136844819D01*
X116439452Y-136844819D02*
X116344214Y-136797200D01*
X116344214Y-136797200D02*
X116296595Y-136749580D01*
X116296595Y-136749580D02*
X116248976Y-136654342D01*
X116248976Y-136654342D02*
X116248976Y-135844819D01*
X115868023Y-135844819D02*
X115248976Y-135844819D01*
X115248976Y-135844819D02*
X115582309Y-136225771D01*
X115582309Y-136225771D02*
X115439452Y-136225771D01*
X115439452Y-136225771D02*
X115344214Y-136273390D01*
X115344214Y-136273390D02*
X115296595Y-136321009D01*
X115296595Y-136321009D02*
X115248976Y-136416247D01*
X115248976Y-136416247D02*
X115248976Y-136654342D01*
X115248976Y-136654342D02*
X115296595Y-136749580D01*
X115296595Y-136749580D02*
X115344214Y-136797200D01*
X115344214Y-136797200D02*
X115439452Y-136844819D01*
X115439452Y-136844819D02*
X115725166Y-136844819D01*
X115725166Y-136844819D02*
X115820404Y-136797200D01*
X115820404Y-136797200D02*
X115868023Y-136749580D01*
X130893319Y-126783333D02*
X130417128Y-126450000D01*
X130893319Y-126211905D02*
X129893319Y-126211905D01*
X129893319Y-126211905D02*
X129893319Y-126592857D01*
X129893319Y-126592857D02*
X129940938Y-126688095D01*
X129940938Y-126688095D02*
X129988557Y-126735714D01*
X129988557Y-126735714D02*
X130083795Y-126783333D01*
X130083795Y-126783333D02*
X130226652Y-126783333D01*
X130226652Y-126783333D02*
X130321890Y-126735714D01*
X130321890Y-126735714D02*
X130369509Y-126688095D01*
X130369509Y-126688095D02*
X130417128Y-126592857D01*
X130417128Y-126592857D02*
X130417128Y-126211905D01*
X130893319Y-127735714D02*
X130893319Y-127164286D01*
X130893319Y-127450000D02*
X129893319Y-127450000D01*
X129893319Y-127450000D02*
X130036176Y-127354762D01*
X130036176Y-127354762D02*
X130131414Y-127259524D01*
X130131414Y-127259524D02*
X130179033Y-127164286D01*
X134096666Y-117889580D02*
X134144285Y-117937200D01*
X134144285Y-117937200D02*
X134287142Y-117984819D01*
X134287142Y-117984819D02*
X134382380Y-117984819D01*
X134382380Y-117984819D02*
X134525237Y-117937200D01*
X134525237Y-117937200D02*
X134620475Y-117841961D01*
X134620475Y-117841961D02*
X134668094Y-117746723D01*
X134668094Y-117746723D02*
X134715713Y-117556247D01*
X134715713Y-117556247D02*
X134715713Y-117413390D01*
X134715713Y-117413390D02*
X134668094Y-117222914D01*
X134668094Y-117222914D02*
X134620475Y-117127676D01*
X134620475Y-117127676D02*
X134525237Y-117032438D01*
X134525237Y-117032438D02*
X134382380Y-116984819D01*
X134382380Y-116984819D02*
X134287142Y-116984819D01*
X134287142Y-116984819D02*
X134144285Y-117032438D01*
X134144285Y-117032438D02*
X134096666Y-117080057D01*
X133239523Y-117318152D02*
X133239523Y-117984819D01*
X133477618Y-116937200D02*
X133715713Y-117651485D01*
X133715713Y-117651485D02*
X133096666Y-117651485D01*
X127885166Y-136012080D02*
X127932785Y-136059700D01*
X127932785Y-136059700D02*
X128075642Y-136107319D01*
X128075642Y-136107319D02*
X128170880Y-136107319D01*
X128170880Y-136107319D02*
X128313737Y-136059700D01*
X128313737Y-136059700D02*
X128408975Y-135964461D01*
X128408975Y-135964461D02*
X128456594Y-135869223D01*
X128456594Y-135869223D02*
X128504213Y-135678747D01*
X128504213Y-135678747D02*
X128504213Y-135535890D01*
X128504213Y-135535890D02*
X128456594Y-135345414D01*
X128456594Y-135345414D02*
X128408975Y-135250176D01*
X128408975Y-135250176D02*
X128313737Y-135154938D01*
X128313737Y-135154938D02*
X128170880Y-135107319D01*
X128170880Y-135107319D02*
X128075642Y-135107319D01*
X128075642Y-135107319D02*
X127932785Y-135154938D01*
X127932785Y-135154938D02*
X127885166Y-135202557D01*
X127504213Y-135202557D02*
X127456594Y-135154938D01*
X127456594Y-135154938D02*
X127361356Y-135107319D01*
X127361356Y-135107319D02*
X127123261Y-135107319D01*
X127123261Y-135107319D02*
X127028023Y-135154938D01*
X127028023Y-135154938D02*
X126980404Y-135202557D01*
X126980404Y-135202557D02*
X126932785Y-135297795D01*
X126932785Y-135297795D02*
X126932785Y-135393033D01*
X126932785Y-135393033D02*
X126980404Y-135535890D01*
X126980404Y-135535890D02*
X127551832Y-136107319D01*
X127551832Y-136107319D02*
X126932785Y-136107319D01*
X148388080Y-129333333D02*
X148435700Y-129285714D01*
X148435700Y-129285714D02*
X148483319Y-129142857D01*
X148483319Y-129142857D02*
X148483319Y-129047619D01*
X148483319Y-129047619D02*
X148435700Y-128904762D01*
X148435700Y-128904762D02*
X148340461Y-128809524D01*
X148340461Y-128809524D02*
X148245223Y-128761905D01*
X148245223Y-128761905D02*
X148054747Y-128714286D01*
X148054747Y-128714286D02*
X147911890Y-128714286D01*
X147911890Y-128714286D02*
X147721414Y-128761905D01*
X147721414Y-128761905D02*
X147626176Y-128809524D01*
X147626176Y-128809524D02*
X147530938Y-128904762D01*
X147530938Y-128904762D02*
X147483319Y-129047619D01*
X147483319Y-129047619D02*
X147483319Y-129142857D01*
X147483319Y-129142857D02*
X147530938Y-129285714D01*
X147530938Y-129285714D02*
X147578557Y-129333333D01*
X148483319Y-130285714D02*
X148483319Y-129714286D01*
X148483319Y-130000000D02*
X147483319Y-130000000D01*
X147483319Y-130000000D02*
X147626176Y-129904762D01*
X147626176Y-129904762D02*
X147721414Y-129809524D01*
X147721414Y-129809524D02*
X147769033Y-129714286D01*
X168896594Y-126904819D02*
X168896594Y-125904819D01*
X168896594Y-125904819D02*
X168658499Y-125904819D01*
X168658499Y-125904819D02*
X168515642Y-125952438D01*
X168515642Y-125952438D02*
X168420404Y-126047676D01*
X168420404Y-126047676D02*
X168372785Y-126142914D01*
X168372785Y-126142914D02*
X168325166Y-126333390D01*
X168325166Y-126333390D02*
X168325166Y-126476247D01*
X168325166Y-126476247D02*
X168372785Y-126666723D01*
X168372785Y-126666723D02*
X168420404Y-126761961D01*
X168420404Y-126761961D02*
X168515642Y-126857200D01*
X168515642Y-126857200D02*
X168658499Y-126904819D01*
X168658499Y-126904819D02*
X168896594Y-126904819D01*
X167372785Y-126904819D02*
X167944213Y-126904819D01*
X167658499Y-126904819D02*
X167658499Y-125904819D01*
X167658499Y-125904819D02*
X167753737Y-126047676D01*
X167753737Y-126047676D02*
X167848975Y-126142914D01*
X167848975Y-126142914D02*
X167944213Y-126190533D01*
X134066666Y-120034819D02*
X134399999Y-119558628D01*
X134638094Y-120034819D02*
X134638094Y-119034819D01*
X134638094Y-119034819D02*
X134257142Y-119034819D01*
X134257142Y-119034819D02*
X134161904Y-119082438D01*
X134161904Y-119082438D02*
X134114285Y-119130057D01*
X134114285Y-119130057D02*
X134066666Y-119225295D01*
X134066666Y-119225295D02*
X134066666Y-119368152D01*
X134066666Y-119368152D02*
X134114285Y-119463390D01*
X134114285Y-119463390D02*
X134161904Y-119511009D01*
X134161904Y-119511009D02*
X134257142Y-119558628D01*
X134257142Y-119558628D02*
X134638094Y-119558628D01*
X133685713Y-119130057D02*
X133638094Y-119082438D01*
X133638094Y-119082438D02*
X133542856Y-119034819D01*
X133542856Y-119034819D02*
X133304761Y-119034819D01*
X133304761Y-119034819D02*
X133209523Y-119082438D01*
X133209523Y-119082438D02*
X133161904Y-119130057D01*
X133161904Y-119130057D02*
X133114285Y-119225295D01*
X133114285Y-119225295D02*
X133114285Y-119320533D01*
X133114285Y-119320533D02*
X133161904Y-119463390D01*
X133161904Y-119463390D02*
X133733332Y-120034819D01*
X133733332Y-120034819D02*
X133114285Y-120034819D01*
D12*
X121083500Y-133351252D02*
X121083500Y-132828748D01*
X122553500Y-133351252D02*
X122553500Y-132828748D01*
X155343500Y-110330000D02*
X156843500Y-110330000D01*
X155343500Y-120730000D02*
X156843500Y-120730000D01*
X156843500Y-110330000D02*
X156843500Y-111280000D01*
X156843500Y-111280000D02*
X161968500Y-111280000D01*
X156843500Y-119780000D02*
X157943500Y-119780000D01*
X156843500Y-120730000D02*
X156843500Y-119780000D01*
X127398500Y-119810000D02*
X127398500Y-126820000D01*
X124098500Y-119810000D02*
X127398500Y-119810000D01*
X124098500Y-119810000D02*
X124098500Y-126820000D01*
X146398500Y-134830000D02*
X146398500Y-131830000D01*
X146398500Y-125230000D02*
X146398500Y-122230000D01*
X146398500Y-122230000D02*
X133798500Y-122230000D01*
X133798500Y-134830000D02*
X146398500Y-134830000D01*
X133798500Y-131830000D02*
X133798500Y-134830000D01*
X133798500Y-122230000D02*
X133798500Y-125230000D01*
X119428500Y-135190000D02*
X119428500Y-129180000D01*
X112608500Y-132940000D02*
X112608500Y-129180000D01*
X112608500Y-129180000D02*
X113868500Y-129180000D01*
X119428500Y-129180000D02*
X118168500Y-129180000D01*
X128053500Y-127177064D02*
X128053500Y-126722936D01*
X129523500Y-127177064D02*
X129523500Y-126722936D01*
X136556248Y-116795000D02*
X137078752Y-116795000D01*
X136556248Y-118265000D02*
X137078752Y-118265000D01*
X123133500Y-130292500D02*
X131368500Y-130292500D01*
X123133500Y-134812500D02*
X123133500Y-130292500D01*
X131368500Y-134812500D02*
X123133500Y-134812500D01*
X148968500Y-134860000D02*
X152818500Y-134860000D01*
X159688500Y-134860000D02*
X155838500Y-134860000D01*
X148968500Y-125204437D02*
X148968500Y-134860000D01*
X159688500Y-125204437D02*
X159688500Y-134860000D01*
X150032937Y-124140000D02*
X148968500Y-125204437D01*
X150032937Y-124140000D02*
X152818500Y-124140000D01*
X158624063Y-124140000D02*
X159688500Y-125204437D01*
X158624063Y-124140000D02*
X155838500Y-124140000D01*
X150943500Y-123275000D02*
X152193500Y-123275000D01*
X151568500Y-122650000D02*
X151568500Y-123900000D01*
X163648500Y-125600000D02*
X170658500Y-125600000D01*
X163648500Y-125600000D02*
X163648500Y-122300000D01*
X163648500Y-122300000D02*
X170658500Y-122300000D01*
X137044564Y-120305000D02*
X136590436Y-120305000D01*
X137044564Y-118835000D02*
X136590436Y-118835000D01*
%LPC*%
D13*
X172058500Y-95500000D03*
D14*
X172058500Y-98040000D03*
X172058500Y-100580000D03*
X172058500Y-103120000D03*
D15*
X170930000Y-112252500D03*
D16*
X170930000Y-108292500D03*
D13*
X164358500Y-66080000D03*
D14*
X164358500Y-68620000D03*
X164358500Y-71160000D03*
X164358500Y-73700000D03*
D17*
X138368500Y-58600000D03*
D14*
X140908500Y-58600000D03*
X143448500Y-58600000D03*
X145988500Y-58600000D03*
X148528500Y-58600000D03*
X164890000Y-103160000D03*
X164890000Y-100620000D03*
X164890000Y-98080000D03*
D13*
X164890000Y-95540000D03*
D18*
X115098500Y-108930000D03*
D14*
X115098500Y-106390000D03*
D13*
X171957700Y-60170000D03*
D14*
X171957700Y-62710000D03*
X171957700Y-65250000D03*
X171957700Y-67790000D03*
X171957700Y-70330000D03*
D18*
X115174000Y-70622500D03*
D14*
X115174000Y-68082500D03*
X115174000Y-65542500D03*
X115174000Y-63002500D03*
X115174000Y-60462500D03*
D17*
X122248500Y-58600000D03*
D14*
X124788500Y-58600000D03*
X127328500Y-58600000D03*
X129868500Y-58600000D03*
X132408500Y-58600000D03*
D18*
X115078500Y-89200000D03*
D14*
X115078500Y-86660000D03*
X115078500Y-84120000D03*
X115078500Y-81580000D03*
X115078500Y-79040000D03*
X115078500Y-76500000D03*
X157544500Y-103230000D03*
X157544500Y-100690000D03*
X157544500Y-98150000D03*
D13*
X157544500Y-95610000D03*
X171997700Y-76240000D03*
D14*
X171997700Y-78780000D03*
X171997700Y-81320000D03*
X171997700Y-83860000D03*
X171997700Y-86400000D03*
X171997700Y-88940000D03*
D18*
X115118500Y-100420000D03*
D14*
X115118500Y-97880000D03*
X115118500Y-95340000D03*
D19*
X122458500Y-67337500D03*
X122458500Y-72217500D03*
D17*
X154418500Y-58650000D03*
D14*
X156958500Y-58650000D03*
X159498500Y-58650000D03*
X162038500Y-58650000D03*
X164578500Y-58650000D03*
D20*
X129660000Y-105210000D03*
D21*
X122060000Y-105210000D03*
D22*
X121818500Y-134127500D03*
X121818500Y-132052500D03*
D23*
X159668500Y-118930000D03*
X159668500Y-117230000D03*
D24*
X150518500Y-115530000D03*
D23*
X159668500Y-115530000D03*
X159668500Y-113830000D03*
X159668500Y-112130000D03*
D25*
X125748500Y-121820000D03*
X125748500Y-126820000D03*
D26*
X145048500Y-128530000D03*
X135148500Y-128530000D03*
D27*
X118318500Y-134240000D03*
X116018500Y-134240000D03*
D28*
X116018500Y-127940000D03*
D27*
X113718500Y-134240000D03*
D29*
X128788500Y-127950000D03*
X128788500Y-125950000D03*
D30*
X135780000Y-117530000D03*
X137855000Y-117530000D03*
D31*
X124518500Y-132552500D03*
X130918500Y-132552500D03*
D32*
X154328500Y-133700000D03*
X154328500Y-125300000D03*
D33*
X170658500Y-123950000D03*
X165658500Y-123950000D03*
D34*
X137817500Y-119570000D03*
X135817500Y-119570000D03*
%LPD*%
M02*
